<?xml version="1.0" encoding="utf-8" standalone="no"?>
<!DOCTYPE svg PUBLIC "-//W3C//DTD SVG 1.1//EN"
  "http://www.w3.org/Graphics/SVG/1.1/DTD/svg11.dtd">
<svg xmlns:xlink="http://www.w3.org/1999/xlink" width="460.8pt" height="345.6pt" viewBox="0 0 460.8 345.6" xmlns="http://www.w3.org/2000/svg" version="1.1">
 <metadata>
  <rdf:RDF xmlns:dc="http://purl.org/dc/elements/1.1/" xmlns:cc="http://creativecommons.org/ns#" xmlns:rdf="http://www.w3.org/1999/02/22-rdf-syntax-ns#">
   <cc:Work>
    <dc:type rdf:resource="http://purl.org/dc/dcmitype/StillImage"/>
    <dc:date>2024-04-08T14:14:06.947492</dc:date>
    <dc:format>image/svg+xml</dc:format>
    <dc:creator>
     <cc:Agent>
      <dc:title>Matplotlib v3.5.1, https://matplotlib.org/</dc:title>
     </cc:Agent>
    </dc:creator>
   </cc:Work>
  </rdf:RDF>
 </metadata>
 <defs>
  <style type="text/css">*{stroke-linejoin: round; stroke-linecap: butt}</style>
 </defs>
 <g id="figure_1">
  <g id="patch_1">
   <path d="M 0 345.6 
L 460.8 345.6 
L 460.8 0 
L 0 0 
z
" style="fill: #ffffff"/>
  </g>
  <g id="axes_1">
   <g id="patch_2">
    <path d="M 57.6 307.584 
L 414.72 307.584 
L 414.72 41.472 
L 57.6 41.472 
z
" style="fill: #ffffff"/>
   </g>
   <g id="matplotlib.axis_1">
    <g id="xtick_1">
     <g id="line2d_1">
      <defs>
       <path id="m1dbe67e1e9" d="M 0 0 
L 0 4 
" style="stroke: #262626"/>
      </defs>
      <g>
       <use xlink:href="#m1dbe67e1e9" x="73.832727" y="307.584" style="fill: #262626; stroke: #262626"/>
      </g>
     </g>
     <g id="text_1">
      <!-- 0 -->
      <g style="fill: #262626" transform="translate(69.940071 325.126812)scale(0.14 -0.14)">
       <defs>
        <path id="Helvetica-30" d="M 1731 4475 
Q 2600 4475 2988 3759 
Q 3288 3206 3288 2244 
Q 3288 1331 3016 734 
Q 2622 -122 1728 -122 
Q 922 -122 528 578 
Q 200 1163 200 2147 
Q 200 2909 397 3456 
Q 766 4475 1731 4475 
z
M 1725 391 
Q 2163 391 2422 778 
Q 2681 1166 2681 2222 
Q 2681 2984 2493 3476 
Q 2306 3969 1766 3969 
Q 1269 3969 1039 3501 
Q 809 3034 809 2125 
Q 809 1441 956 1025 
Q 1181 391 1725 391 
z
" transform="scale(0.015625)"/>
       </defs>
       <use xlink:href="#Helvetica-30"/>
      </g>
     </g>
    </g>
    <g id="xtick_2">
     <g id="line2d_2">
      <g>
       <use xlink:href="#m1dbe67e1e9" x="127.941818" y="307.584" style="fill: #262626; stroke: #262626"/>
      </g>
     </g>
     <g id="text_2">
      <!-- 5 -->
      <g style="fill: #262626" transform="translate(124.049162 325.126812)scale(0.14 -0.14)">
       <defs>
        <path id="Helvetica-35" d="M 791 1141 
Q 847 659 1238 475 
Q 1438 381 1700 381 
Q 2200 381 2440 700 
Q 2681 1019 2681 1406 
Q 2681 1875 2395 2131 
Q 2109 2388 1709 2388 
Q 1419 2388 1211 2275 
Q 1003 2163 856 1963 
L 369 1991 
L 709 4400 
L 3034 4400 
L 3034 3856 
L 1131 3856 
L 941 2613 
Q 1097 2731 1238 2791 
Q 1488 2894 1816 2894 
Q 2431 2894 2859 2497 
Q 3288 2100 3288 1491 
Q 3288 856 2895 371 
Q 2503 -113 1644 -113 
Q 1097 -113 676 195 
Q 256 503 206 1141 
L 791 1141 
z
" transform="scale(0.015625)"/>
       </defs>
       <use xlink:href="#Helvetica-35"/>
      </g>
     </g>
    </g>
    <g id="xtick_3">
     <g id="line2d_3">
      <g>
       <use xlink:href="#m1dbe67e1e9" x="182.050909" y="307.584" style="fill: #262626; stroke: #262626"/>
      </g>
     </g>
     <g id="text_3">
      <!-- 10 -->
      <g style="fill: #262626" transform="translate(174.265597 325.126812)scale(0.14 -0.14)">
       <defs>
        <path id="Helvetica-31" d="M 613 3169 
L 613 3600 
Q 1222 3659 1462 3798 
Q 1703 3938 1822 4456 
L 2266 4456 
L 2266 0 
L 1666 0 
L 1666 3169 
L 613 3169 
z
" transform="scale(0.015625)"/>
       </defs>
       <use xlink:href="#Helvetica-31"/>
       <use xlink:href="#Helvetica-30" x="55.615234"/>
      </g>
     </g>
    </g>
    <g id="xtick_4">
     <g id="line2d_4">
      <g>
       <use xlink:href="#m1dbe67e1e9" x="236.16" y="307.584" style="fill: #262626; stroke: #262626"/>
      </g>
     </g>
     <g id="text_4">
      <!-- 15 -->
      <g style="fill: #262626" transform="translate(228.374688 325.126812)scale(0.14 -0.14)">
       <use xlink:href="#Helvetica-31"/>
       <use xlink:href="#Helvetica-35" x="55.615234"/>
      </g>
     </g>
    </g>
    <g id="xtick_5">
     <g id="line2d_5">
      <g>
       <use xlink:href="#m1dbe67e1e9" x="290.269091" y="307.584" style="fill: #262626; stroke: #262626"/>
      </g>
     </g>
     <g id="text_5">
      <!-- 20 -->
      <g style="fill: #262626" transform="translate(282.483778 325.126812)scale(0.14 -0.14)">
       <defs>
        <path id="Helvetica-32" d="M 200 0 
Q 231 578 439 1006 
Q 647 1434 1250 1784 
L 1850 2131 
Q 2253 2366 2416 2531 
Q 2672 2791 2672 3125 
Q 2672 3516 2437 3745 
Q 2203 3975 1813 3975 
Q 1234 3975 1013 3538 
Q 894 3303 881 2888 
L 309 2888 
Q 319 3472 525 3841 
Q 891 4491 1816 4491 
Q 2584 4491 2939 4075 
Q 3294 3659 3294 3150 
Q 3294 2613 2916 2231 
Q 2697 2009 2131 1694 
L 1703 1456 
Q 1397 1288 1222 1134 
Q 909 863 828 531 
L 3272 531 
L 3272 0 
L 200 0 
z
" transform="scale(0.015625)"/>
       </defs>
       <use xlink:href="#Helvetica-32"/>
       <use xlink:href="#Helvetica-30" x="55.615234"/>
      </g>
     </g>
    </g>
    <g id="xtick_6">
     <g id="line2d_6">
      <g>
       <use xlink:href="#m1dbe67e1e9" x="344.378182" y="307.584" style="fill: #262626; stroke: #262626"/>
      </g>
     </g>
     <g id="text_6">
      <!-- 25 -->
      <g style="fill: #262626" transform="translate(336.592869 325.126812)scale(0.14 -0.14)">
       <use xlink:href="#Helvetica-32"/>
       <use xlink:href="#Helvetica-35" x="55.615234"/>
      </g>
     </g>
    </g>
    <g id="xtick_7">
     <g id="line2d_7">
      <g>
       <use xlink:href="#m1dbe67e1e9" x="398.487273" y="307.584" style="fill: #262626; stroke: #262626"/>
      </g>
     </g>
     <g id="text_7">
      <!-- 30 -->
      <g style="fill: #262626" transform="translate(390.70196 325.126812)scale(0.14 -0.14)">
       <defs>
        <path id="Helvetica-33" d="M 1663 -122 
Q 869 -122 511 314 
Q 153 750 153 1375 
L 741 1375 
Q 778 941 903 744 
Q 1122 391 1694 391 
Q 2138 391 2406 628 
Q 2675 866 2675 1241 
Q 2675 1703 2392 1887 
Q 2109 2072 1606 2072 
Q 1550 2072 1492 2070 
Q 1434 2069 1375 2066 
L 1375 2563 
Q 1463 2553 1522 2550 
Q 1581 2547 1650 2547 
Q 1966 2547 2169 2647 
Q 2525 2822 2525 3272 
Q 2525 3606 2287 3787 
Q 2050 3969 1734 3969 
Q 1172 3969 956 3594 
Q 838 3388 822 3006 
L 266 3006 
Q 266 3506 466 3856 
Q 809 4481 1675 4481 
Q 2359 4481 2734 4176 
Q 3109 3872 3109 3294 
Q 3109 2881 2888 2625 
Q 2750 2466 2531 2375 
Q 2884 2278 3082 2001 
Q 3281 1725 3281 1325 
Q 3281 684 2859 281 
Q 2438 -122 1663 -122 
z
" transform="scale(0.015625)"/>
       </defs>
       <use xlink:href="#Helvetica-33"/>
       <use xlink:href="#Helvetica-30" x="55.615234"/>
      </g>
     </g>
    </g>
    <g id="text_8">
     <!-- Time (hours) -->
     <g style="fill: #262626" transform="translate(185.156719 345.089312)scale(0.18 -0.18)">
      <defs>
       <path id="Helvetica-54" d="M 3828 4591 
L 3828 4044 
L 2281 4044 
L 2281 0 
L 1650 0 
L 1650 4044 
L 103 4044 
L 103 4591 
L 3828 4591 
z
" transform="scale(0.015625)"/>
       <path id="Helvetica-69" d="M 413 3331 
L 984 3331 
L 984 0 
L 413 0 
L 413 3331 
z
M 413 4591 
L 984 4591 
L 984 3953 
L 413 3953 
L 413 4591 
z
" transform="scale(0.015625)"/>
       <path id="Helvetica-6d" d="M 413 3347 
L 969 3347 
L 969 2872 
Q 1169 3119 1331 3231 
Q 1609 3422 1963 3422 
Q 2363 3422 2606 3225 
Q 2744 3113 2856 2894 
Q 3044 3163 3297 3292 
Q 3550 3422 3866 3422 
Q 4541 3422 4784 2934 
Q 4916 2672 4916 2228 
L 4916 0 
L 4331 0 
L 4331 2325 
Q 4331 2659 4164 2784 
Q 3997 2909 3756 2909 
Q 3425 2909 3186 2687 
Q 2947 2466 2947 1947 
L 2947 0 
L 2375 0 
L 2375 2184 
Q 2375 2525 2294 2681 
Q 2166 2916 1816 2916 
Q 1497 2916 1236 2669 
Q 975 2422 975 1775 
L 975 0 
L 413 0 
L 413 3347 
z
" transform="scale(0.015625)"/>
       <path id="Helvetica-65" d="M 1806 3422 
Q 2163 3422 2497 3255 
Q 2831 3088 3006 2822 
Q 3175 2569 3231 2231 
Q 3281 2000 3281 1494 
L 828 1494 
Q 844 984 1069 676 
Q 1294 369 1766 369 
Q 2206 369 2469 659 
Q 2619 828 2681 1050 
L 3234 1050 
Q 3213 866 3089 639 
Q 2966 413 2813 269 
Q 2556 19 2178 -69 
Q 1975 -119 1719 -119 
Q 1094 -119 659 336 
Q 225 791 225 1609 
Q 225 2416 662 2919 
Q 1100 3422 1806 3422 
z
M 2703 1941 
Q 2669 2306 2544 2525 
Q 2313 2931 1772 2931 
Q 1384 2931 1121 2651 
Q 859 2372 844 1941 
L 2703 1941 
z
M 1753 3428 
L 1753 3428 
z
" transform="scale(0.015625)"/>
       <path id="Helvetica-20" transform="scale(0.015625)"/>
       <path id="Helvetica-28" d="M 1894 4666 
Q 1403 3713 1256 3263 
Q 1034 2578 1034 1681 
Q 1034 775 1288 25 
Q 1444 -438 1903 -1306 
L 1525 -1306 
Q 1069 -594 959 -397 
Q 850 -200 722 138 
Q 547 600 478 1125 
Q 444 1397 444 1644 
Q 444 2569 734 3291 
Q 919 3750 1503 4666 
L 1894 4666 
z
" transform="scale(0.015625)"/>
       <path id="Helvetica-68" d="M 413 4606 
L 975 4606 
L 975 2894 
Q 1175 3147 1334 3250 
Q 1606 3428 2013 3428 
Q 2741 3428 3000 2919 
Q 3141 2641 3141 2147 
L 3141 0 
L 2563 0 
L 2563 2109 
Q 2563 2478 2469 2650 
Q 2316 2925 1894 2925 
Q 1544 2925 1259 2684 
Q 975 2444 975 1775 
L 975 0 
L 413 0 
L 413 4606 
z
" transform="scale(0.015625)"/>
       <path id="Helvetica-6f" d="M 1741 363 
Q 2300 363 2508 786 
Q 2716 1209 2716 1728 
Q 2716 2197 2566 2491 
Q 2328 2953 1747 2953 
Q 1231 2953 997 2559 
Q 763 2166 763 1609 
Q 763 1075 997 719 
Q 1231 363 1741 363 
z
M 1763 3444 
Q 2409 3444 2856 3012 
Q 3303 2581 3303 1744 
Q 3303 934 2909 406 
Q 2516 -122 1688 -122 
Q 997 -122 590 345 
Q 184 813 184 1600 
Q 184 2444 612 2944 
Q 1041 3444 1763 3444 
z
M 1744 3428 
L 1744 3428 
z
" transform="scale(0.015625)"/>
       <path id="Helvetica-75" d="M 975 3347 
L 975 1125 
Q 975 869 1056 706 
Q 1206 406 1616 406 
Q 2203 406 2416 931 
Q 2531 1213 2531 1703 
L 2531 3347 
L 3094 3347 
L 3094 0 
L 2563 0 
L 2569 494 
Q 2459 303 2297 172 
Q 1975 -91 1516 -91 
Q 800 -91 541 388 
Q 400 644 400 1072 
L 400 3347 
L 975 3347 
z
M 1747 3428 
L 1747 3428 
z
" transform="scale(0.015625)"/>
       <path id="Helvetica-72" d="M 428 3347 
L 963 3347 
L 963 2769 
Q 1028 2938 1284 3180 
Q 1541 3422 1875 3422 
Q 1891 3422 1928 3419 
Q 1966 3416 2056 3406 
L 2056 2813 
Q 2006 2822 1964 2825 
Q 1922 2828 1872 2828 
Q 1447 2828 1219 2554 
Q 991 2281 991 1925 
L 991 0 
L 428 0 
L 428 3347 
z
" transform="scale(0.015625)"/>
       <path id="Helvetica-73" d="M 747 1050 
Q 772 769 888 619 
Q 1100 347 1625 347 
Q 1938 347 2175 483 
Q 2413 619 2413 903 
Q 2413 1119 2222 1231 
Q 2100 1300 1741 1391 
L 1294 1503 
Q 866 1609 663 1741 
Q 300 1969 300 2372 
Q 300 2847 642 3140 
Q 984 3434 1563 3434 
Q 2319 3434 2653 2991 
Q 2863 2709 2856 2384 
L 2325 2384 
Q 2309 2575 2191 2731 
Q 1997 2953 1519 2953 
Q 1200 2953 1036 2831 
Q 872 2709 872 2509 
Q 872 2291 1088 2159 
Q 1213 2081 1456 2022 
L 1828 1931 
Q 2434 1784 2641 1647 
Q 2969 1431 2969 969 
Q 2969 522 2630 197 
Q 2291 -128 1597 -128 
Q 850 -128 539 211 
Q 228 550 206 1050 
L 747 1050 
z
M 1578 3428 
L 1578 3428 
z
" transform="scale(0.015625)"/>
       <path id="Helvetica-29" d="M 222 -1306 
Q 719 -338 863 106 
Q 1081 778 1081 1681 
Q 1081 2584 828 3334 
Q 672 3797 213 4666 
L 591 4666 
Q 1072 3897 1173 3717 
Q 1275 3538 1394 3222 
Q 1544 2831 1608 2450 
Q 1672 2069 1672 1716 
Q 1672 791 1378 66 
Q 1194 -400 613 -1306 
L 222 -1306 
z
" transform="scale(0.015625)"/>
      </defs>
      <use xlink:href="#Helvetica-54"/>
      <use xlink:href="#Helvetica-69" x="61.083984"/>
      <use xlink:href="#Helvetica-6d" x="83.300781"/>
      <use xlink:href="#Helvetica-65" x="166.601562"/>
      <use xlink:href="#Helvetica-20" x="222.216797"/>
      <use xlink:href="#Helvetica-28" x="250"/>
      <use xlink:href="#Helvetica-68" x="283.300781"/>
      <use xlink:href="#Helvetica-6f" x="338.916016"/>
      <use xlink:href="#Helvetica-75" x="394.53125"/>
      <use xlink:href="#Helvetica-72" x="450.146484"/>
      <use xlink:href="#Helvetica-73" x="483.447266"/>
      <use xlink:href="#Helvetica-29" x="533.447266"/>
     </g>
    </g>
   </g>
   <g id="matplotlib.axis_2">
    <g id="ytick_1">
     <g id="line2d_8">
      <defs>
       <path id="m8c8a2987d5" d="M 0 0 
L -4 0 
" style="stroke: #262626"/>
      </defs>
      <g>
       <use xlink:href="#m8c8a2987d5" x="57.6" y="295.933475" style="fill: #262626; stroke: #262626"/>
      </g>
     </g>
     <g id="text_9">
      <!-- 0 -->
      <g style="fill: #262626" transform="translate(42.314687 300.954881)scale(0.14 -0.14)">
       <use xlink:href="#Helvetica-30"/>
      </g>
     </g>
    </g>
    <g id="ytick_2">
     <g id="line2d_9">
      <g>
       <use xlink:href="#m8c8a2987d5" x="57.6" y="252.745466" style="fill: #262626; stroke: #262626"/>
      </g>
     </g>
     <g id="text_10">
      <!-- 2 -->
      <g style="fill: #262626" transform="translate(42.314687 257.766872)scale(0.14 -0.14)">
       <use xlink:href="#Helvetica-32"/>
      </g>
     </g>
    </g>
    <g id="ytick_3">
     <g id="line2d_10">
      <g>
       <use xlink:href="#m8c8a2987d5" x="57.6" y="209.557456" style="fill: #262626; stroke: #262626"/>
      </g>
     </g>
     <g id="text_11">
      <!-- 4 -->
      <g style="fill: #262626" transform="translate(42.314687 214.578863)scale(0.14 -0.14)">
       <defs>
        <path id="Helvetica-34" d="M 2116 1584 
L 2116 3613 
L 681 1584 
L 2116 1584 
z
M 2125 0 
L 2125 1094 
L 163 1094 
L 163 1644 
L 2213 4488 
L 2688 4488 
L 2688 1584 
L 3347 1584 
L 3347 1094 
L 2688 1094 
L 2688 0 
L 2125 0 
z
" transform="scale(0.015625)"/>
       </defs>
       <use xlink:href="#Helvetica-34"/>
      </g>
     </g>
    </g>
    <g id="ytick_4">
     <g id="line2d_11">
      <g>
       <use xlink:href="#m8c8a2987d5" x="57.6" y="166.369447" style="fill: #262626; stroke: #262626"/>
      </g>
     </g>
     <g id="text_12">
      <!-- 6 -->
      <g style="fill: #262626" transform="translate(42.314687 171.390853)scale(0.14 -0.14)">
       <defs>
        <path id="Helvetica-36" d="M 1872 4494 
Q 2622 4494 2917 4105 
Q 3213 3716 3213 3303 
L 2656 3303 
Q 2606 3569 2497 3719 
Q 2294 4000 1881 4000 
Q 1409 4000 1131 3564 
Q 853 3128 822 2316 
Q 1016 2600 1309 2741 
Q 1578 2866 1909 2866 
Q 2472 2866 2890 2506 
Q 3309 2147 3309 1434 
Q 3309 825 2912 354 
Q 2516 -116 1781 -116 
Q 1153 -116 697 361 
Q 241 838 241 1966 
Q 241 2800 444 3381 
Q 834 4494 1872 4494 
z
M 1831 384 
Q 2275 384 2495 682 
Q 2716 981 2716 1388 
Q 2716 1731 2519 2042 
Q 2322 2353 1803 2353 
Q 1441 2353 1167 2112 
Q 894 1872 894 1388 
Q 894 963 1142 673 
Q 1391 384 1831 384 
z
" transform="scale(0.015625)"/>
       </defs>
       <use xlink:href="#Helvetica-36"/>
      </g>
     </g>
    </g>
    <g id="ytick_5">
     <g id="line2d_12">
      <g>
       <use xlink:href="#m8c8a2987d5" x="57.6" y="123.181438" style="fill: #262626; stroke: #262626"/>
      </g>
     </g>
     <g id="text_13">
      <!-- 8 -->
      <g style="fill: #262626" transform="translate(42.314687 128.202844)scale(0.14 -0.14)">
       <defs>
        <path id="Helvetica-38" d="M 1741 2600 
Q 2113 2600 2322 2808 
Q 2531 3016 2531 3303 
Q 2531 3553 2331 3762 
Q 2131 3972 1722 3972 
Q 1316 3972 1134 3762 
Q 953 3553 953 3272 
Q 953 2956 1187 2778 
Q 1422 2600 1741 2600 
z
M 1775 384 
Q 2166 384 2423 595 
Q 2681 806 2681 1225 
Q 2681 1659 2415 1884 
Q 2150 2109 1734 2109 
Q 1331 2109 1076 1879 
Q 822 1650 822 1244 
Q 822 894 1055 639 
Q 1288 384 1775 384 
z
M 975 2384 
Q 741 2484 609 2619 
Q 363 2869 363 3269 
Q 363 3769 725 4128 
Q 1088 4488 1753 4488 
Q 2397 4488 2762 4148 
Q 3128 3809 3128 3356 
Q 3128 2938 2916 2678 
Q 2797 2531 2547 2391 
Q 2825 2263 2984 2097 
Q 3281 1784 3281 1284 
Q 3281 694 2884 283 
Q 2488 -128 1763 -128 
Q 1109 -128 657 226 
Q 206 581 206 1256 
Q 206 1653 400 1942 
Q 594 2231 975 2384 
z
" transform="scale(0.015625)"/>
       </defs>
       <use xlink:href="#Helvetica-38"/>
      </g>
     </g>
    </g>
    <g id="ytick_6">
     <g id="line2d_13">
      <g>
       <use xlink:href="#m8c8a2987d5" x="57.6" y="79.993429" style="fill: #262626; stroke: #262626"/>
      </g>
     </g>
     <g id="text_14">
      <!-- 10 -->
      <g style="fill: #262626" transform="translate(34.529375 85.014835)scale(0.14 -0.14)">
       <use xlink:href="#Helvetica-31"/>
       <use xlink:href="#Helvetica-30" x="55.615234"/>
      </g>
     </g>
    </g>
    <g id="ytick_7">
     <g id="line2d_14">
      <defs>
       <path id="m537c2e07f6" d="M 0 0 
L -2 0 
" style="stroke: #262626"/>
      </defs>
      <g>
       <use xlink:href="#m537c2e07f6" x="57.6" y="306.730477" style="fill: #262626; stroke: #262626"/>
      </g>
     </g>
    </g>
    <g id="ytick_8">
     <g id="line2d_15">
      <g>
       <use xlink:href="#m537c2e07f6" x="57.6" y="285.136473" style="fill: #262626; stroke: #262626"/>
      </g>
     </g>
    </g>
    <g id="ytick_9">
     <g id="line2d_16">
      <g>
       <use xlink:href="#m537c2e07f6" x="57.6" y="274.33947" style="fill: #262626; stroke: #262626"/>
      </g>
     </g>
    </g>
    <g id="ytick_10">
     <g id="line2d_17">
      <g>
       <use xlink:href="#m537c2e07f6" x="57.6" y="263.542468" style="fill: #262626; stroke: #262626"/>
      </g>
     </g>
    </g>
    <g id="ytick_11">
     <g id="line2d_18">
      <g>
       <use xlink:href="#m537c2e07f6" x="57.6" y="241.948463" style="fill: #262626; stroke: #262626"/>
      </g>
     </g>
    </g>
    <g id="ytick_12">
     <g id="line2d_19">
      <g>
       <use xlink:href="#m537c2e07f6" x="57.6" y="231.151461" style="fill: #262626; stroke: #262626"/>
      </g>
     </g>
    </g>
    <g id="ytick_13">
     <g id="line2d_20">
      <g>
       <use xlink:href="#m537c2e07f6" x="57.6" y="220.354459" style="fill: #262626; stroke: #262626"/>
      </g>
     </g>
    </g>
    <g id="ytick_14">
     <g id="line2d_21">
      <g>
       <use xlink:href="#m537c2e07f6" x="57.6" y="198.760454" style="fill: #262626; stroke: #262626"/>
      </g>
     </g>
    </g>
    <g id="ytick_15">
     <g id="line2d_22">
      <g>
       <use xlink:href="#m537c2e07f6" x="57.6" y="187.963452" style="fill: #262626; stroke: #262626"/>
      </g>
     </g>
    </g>
    <g id="ytick_16">
     <g id="line2d_23">
      <g>
       <use xlink:href="#m537c2e07f6" x="57.6" y="177.166449" style="fill: #262626; stroke: #262626"/>
      </g>
     </g>
    </g>
    <g id="ytick_17">
     <g id="line2d_24">
      <g>
       <use xlink:href="#m537c2e07f6" x="57.6" y="155.572445" style="fill: #262626; stroke: #262626"/>
      </g>
     </g>
    </g>
    <g id="ytick_18">
     <g id="line2d_25">
      <g>
       <use xlink:href="#m537c2e07f6" x="57.6" y="144.775443" style="fill: #262626; stroke: #262626"/>
      </g>
     </g>
    </g>
    <g id="ytick_19">
     <g id="line2d_26">
      <g>
       <use xlink:href="#m537c2e07f6" x="57.6" y="133.97844" style="fill: #262626; stroke: #262626"/>
      </g>
     </g>
    </g>
    <g id="ytick_20">
     <g id="line2d_27">
      <g>
       <use xlink:href="#m537c2e07f6" x="57.6" y="112.384436" style="fill: #262626; stroke: #262626"/>
      </g>
     </g>
    </g>
    <g id="ytick_21">
     <g id="line2d_28">
      <g>
       <use xlink:href="#m537c2e07f6" x="57.6" y="101.587433" style="fill: #262626; stroke: #262626"/>
      </g>
     </g>
    </g>
    <g id="ytick_22">
     <g id="line2d_29">
      <g>
       <use xlink:href="#m537c2e07f6" x="57.6" y="90.790431" style="fill: #262626; stroke: #262626"/>
      </g>
     </g>
    </g>
    <g id="ytick_23">
     <g id="line2d_30">
      <g>
       <use xlink:href="#m537c2e07f6" x="57.6" y="69.196426" style="fill: #262626; stroke: #262626"/>
      </g>
     </g>
    </g>
    <g id="ytick_24">
     <g id="line2d_31">
      <g>
       <use xlink:href="#m537c2e07f6" x="57.6" y="58.399424" style="fill: #262626; stroke: #262626"/>
      </g>
     </g>
    </g>
    <g id="ytick_25">
     <g id="line2d_32">
      <g>
       <use xlink:href="#m537c2e07f6" x="57.6" y="47.602422" style="fill: #262626; stroke: #262626"/>
      </g>
     </g>
    </g>
    <g id="text_15">
     <!-- Concentration (nM) -->
     <g style="fill: #262626" transform="translate(26.7775 251.553937)rotate(-90)scale(0.18 -0.18)">
      <defs>
       <path id="Helvetica-43" d="M 2422 4716 
Q 3294 4716 3775 4256 
Q 4256 3797 4309 3213 
L 3703 3213 
Q 3600 3656 3292 3915 
Q 2984 4175 2428 4175 
Q 1750 4175 1333 3698 
Q 916 3222 916 2238 
Q 916 1431 1292 929 
Q 1669 428 2416 428 
Q 3103 428 3463 956 
Q 3653 1234 3747 1688 
L 4353 1688 
Q 4272 963 3816 472 
Q 3269 -119 2341 -119 
Q 1541 -119 997 366 
Q 281 1006 281 2344 
Q 281 3359 819 4009 
Q 1400 4716 2422 4716 
z
M 2297 4716 
L 2297 4716 
z
" transform="scale(0.015625)"/>
       <path id="Helvetica-6e" d="M 413 3347 
L 947 3347 
L 947 2872 
Q 1184 3166 1450 3294 
Q 1716 3422 2041 3422 
Q 2753 3422 3003 2925 
Q 3141 2653 3141 2147 
L 3141 0 
L 2569 0 
L 2569 2109 
Q 2569 2416 2478 2603 
Q 2328 2916 1934 2916 
Q 1734 2916 1606 2875 
Q 1375 2806 1200 2600 
Q 1059 2434 1017 2257 
Q 975 2081 975 1753 
L 975 0 
L 413 0 
L 413 3347 
z
M 1734 3428 
L 1734 3428 
z
" transform="scale(0.015625)"/>
       <path id="Helvetica-63" d="M 1703 3444 
Q 2269 3444 2623 3169 
Q 2978 2894 3050 2222 
L 2503 2222 
Q 2453 2531 2275 2736 
Q 2097 2941 1703 2941 
Q 1166 2941 934 2416 
Q 784 2075 784 1575 
Q 784 1072 996 728 
Q 1209 384 1666 384 
Q 2016 384 2220 598 
Q 2425 813 2503 1184 
L 3050 1184 
Q 2956 519 2581 211 
Q 2206 -97 1622 -97 
Q 966 -97 575 383 
Q 184 863 184 1581 
Q 184 2463 612 2953 
Q 1041 3444 1703 3444 
z
M 1616 3428 
L 1616 3428 
z
" transform="scale(0.015625)"/>
       <path id="Helvetica-74" d="M 525 4281 
L 1094 4281 
L 1094 3347 
L 1628 3347 
L 1628 2888 
L 1094 2888 
L 1094 703 
Q 1094 528 1213 469 
Q 1278 434 1431 434 
Q 1472 434 1519 436 
Q 1566 438 1628 444 
L 1628 0 
Q 1531 -28 1426 -40 
Q 1322 -53 1200 -53 
Q 806 -53 665 148 
Q 525 350 525 672 
L 525 2888 
L 72 2888 
L 72 3347 
L 525 3347 
L 525 4281 
z
" transform="scale(0.015625)"/>
       <path id="Helvetica-61" d="M 844 891 
Q 844 647 1022 506 
Q 1200 366 1444 366 
Q 1741 366 2019 503 
Q 2488 731 2488 1250 
L 2488 1703 
Q 2384 1638 2221 1594 
Q 2059 1550 1903 1531 
L 1563 1488 
Q 1256 1447 1103 1359 
Q 844 1213 844 891 
z
M 2206 2028 
Q 2400 2053 2466 2191 
Q 2503 2266 2503 2406 
Q 2503 2694 2298 2823 
Q 2094 2953 1713 2953 
Q 1272 2953 1088 2716 
Q 984 2584 953 2325 
L 428 2325 
Q 444 2944 830 3186 
Q 1216 3428 1725 3428 
Q 2316 3428 2684 3203 
Q 3050 2978 3050 2503 
L 3050 575 
Q 3050 488 3086 434 
Q 3122 381 3238 381 
Q 3275 381 3322 386 
Q 3369 391 3422 400 
L 3422 -16 
Q 3291 -53 3222 -62 
Q 3153 -72 3034 -72 
Q 2744 -72 2613 134 
Q 2544 244 2516 444 
Q 2344 219 2022 53 
Q 1700 -113 1313 -113 
Q 847 -113 551 170 
Q 256 453 256 878 
Q 256 1344 547 1600 
Q 838 1856 1309 1916 
L 2206 2028 
z
M 1741 3428 
L 1741 3428 
z
" transform="scale(0.015625)"/>
       <path id="Helvetica-4d" d="M 472 4591 
L 1363 4591 
L 2681 709 
L 3991 4591 
L 4872 4591 
L 4872 0 
L 4281 0 
L 4281 2709 
Q 4281 2850 4287 3175 
Q 4294 3500 4294 3872 
L 2984 0 
L 2369 0 
L 1050 3872 
L 1050 3731 
Q 1050 3563 1058 3217 
Q 1066 2872 1066 2709 
L 1066 0 
L 472 0 
L 472 4591 
z
" transform="scale(0.015625)"/>
      </defs>
      <use xlink:href="#Helvetica-43"/>
      <use xlink:href="#Helvetica-6f" x="72.216797"/>
      <use xlink:href="#Helvetica-6e" x="127.832031"/>
      <use xlink:href="#Helvetica-63" x="183.447266"/>
      <use xlink:href="#Helvetica-65" x="233.447266"/>
      <use xlink:href="#Helvetica-6e" x="289.0625"/>
      <use xlink:href="#Helvetica-74" x="344.677734"/>
      <use xlink:href="#Helvetica-72" x="372.460938"/>
      <use xlink:href="#Helvetica-61" x="405.761719"/>
      <use xlink:href="#Helvetica-74" x="461.376953"/>
      <use xlink:href="#Helvetica-69" x="489.160156"/>
      <use xlink:href="#Helvetica-6f" x="511.376953"/>
      <use xlink:href="#Helvetica-6e" x="566.992188"/>
      <use xlink:href="#Helvetica-20" x="622.607422"/>
      <use xlink:href="#Helvetica-28" x="650.390625"/>
      <use xlink:href="#Helvetica-6e" x="683.691406"/>
      <use xlink:href="#Helvetica-4d" x="739.306641"/>
      <use xlink:href="#Helvetica-29" x="822.607422"/>
     </g>
    </g>
   </g>
   <g id="line2d_33">
    <path d="M 73.832727 79.993213 
L 74.483338 142.35629 
L 75.133948 156.389389 
L 75.784558 165.994322 
L 76.435169 172.537456 
L 77.085779 176.958699 
L 77.736389 179.902522 
L 78.386999 181.811813 
L 79.03761 182.991938 
L 79.68822 183.654295 
L 80.33883 183.945908 
L 80.989441 183.96958 
L 81.640051 183.797644 
L 82.941272 183.057299 
L 84.242492 181.984264 
L 86.194323 180.032484 
L 89.447375 176.342903 
L 95.302868 169.232457 
L 110.266905 150.936847 
L 118.074228 141.775214 
L 124.580332 134.453883 
L 131.086435 127.469193 
L 136.941928 121.50255 
L 142.79742 115.860639 
L 148.002303 111.130213 
L 153.207185 106.674304 
L 158.412068 102.49565 
L 163.61695 98.593779 
L 168.821833 94.965368 
L 174.026715 91.604636 
L 179.231598 88.503732 
L 184.43648 85.65313 
L 189.641363 83.042001 
L 194.846245 80.658554 
L 200.701738 78.233827 
L 206.557231 76.063262 
L 212.412724 74.128434 
L 218.268216 72.411094 
L 224.77432 70.736392 
L 231.280423 69.284797 
L 238.437136 67.919311 
L 246.24446 66.674766 
L 254.051784 65.654262 
L 262.509718 64.767483 
L 271.618262 64.029935 
L 282.028027 63.418119 
L 293.088402 62.989248 
L 306.100609 62.716311 
L 321.064646 62.63932 
L 338.631124 62.7836 
L 360.101264 63.192472 
L 388.728118 63.975765 
L 398.487273 64.280121 
L 398.487273 64.280121 
" clip-path="url(#p9097db493b)" style="fill: none; stroke: #4477aa; stroke-linecap: round"/>
    <defs>
     <path id="m9aaf97bca2" d="M 0 2 
C 0.530406 2 1.03916 1.789267 1.414214 1.414214 
C 1.789267 1.03916 2 0.530406 2 0 
C 2 -0.530406 1.789267 -1.03916 1.414214 -1.414214 
C 1.03916 -1.789267 0.530406 -2 0 -2 
C -0.530406 -2 -1.03916 -1.789267 -1.414214 -1.414214 
C -1.789267 -1.03916 -2 -0.530406 -2 0 
C -2 0.530406 -1.789267 1.03916 -1.414214 1.414214 
C -1.03916 1.789267 -0.530406 2 0 2 
z
" style="stroke: #4477aa"/>
    </defs>
    <g clip-path="url(#p9097db493b)">
     <use xlink:href="#m9aaf97bca2" x="73.832727" y="79.993213" style="fill: #4477aa; stroke: #4477aa"/>
     <use xlink:href="#m9aaf97bca2" x="99.85714" y="163.611637" style="fill: #4477aa; stroke: #4477aa"/>
     <use xlink:href="#m9aaf97bca2" x="125.881552" y="133.028651" style="fill: #4477aa; stroke: #4477aa"/>
     <use xlink:href="#m9aaf97bca2" x="151.905965" y="107.762338" style="fill: #4477aa; stroke: #4477aa"/>
     <use xlink:href="#m9aaf97bca2" x="177.930377" y="89.255095" style="fill: #4477aa; stroke: #4477aa"/>
     <use xlink:href="#m9aaf97bca2" x="203.95479" y="76.99776" style="fill: #4477aa; stroke: #4477aa"/>
     <use xlink:href="#m9aaf97bca2" x="229.979202" y="69.558351" style="fill: #4477aa; stroke: #4477aa"/>
     <use xlink:href="#m9aaf97bca2" x="256.003614" y="65.430623" style="fill: #4477aa; stroke: #4477aa"/>
     <use xlink:href="#m9aaf97bca2" x="282.028027" y="63.418119" style="fill: #4477aa; stroke: #4477aa"/>
     <use xlink:href="#m9aaf97bca2" x="308.052439" y="62.693388" style="fill: #4477aa; stroke: #4477aa"/>
     <use xlink:href="#m9aaf97bca2" x="334.076852" y="62.726468" style="fill: #4477aa; stroke: #4477aa"/>
     <use xlink:href="#m9aaf97bca2" x="360.101264" y="63.192472" style="fill: #4477aa; stroke: #4477aa"/>
     <use xlink:href="#m9aaf97bca2" x="386.125677" y="63.897089" style="fill: #4477aa; stroke: #4477aa"/>
    </g>
   </g>
   <g id="line2d_34">
    <path d="M 73.832727 79.993429 
L 74.483338 80.281862 
L 75.133948 81.012746 
L 76.435169 83.251295 
L 78.386999 87.462083 
L 90.748595 115.442873 
L 98.555919 132.32175 
L 105.062022 145.894922 
L 110.917515 157.652786 
L 116.773008 168.915063 
L 121.97789 178.470356 
L 127.182773 187.569331 
L 132.387655 196.193349 
L 136.941928 203.340588 
L 141.4962 210.111879 
L 146.050472 216.50736 
L 150.604744 222.53038 
L 155.159016 228.187108 
L 159.713288 233.486133 
L 164.267561 238.43806 
L 168.821833 243.055136 
L 173.376105 247.35088 
L 177.930377 251.339761 
L 182.484649 255.036891 
L 187.038921 258.457761 
L 191.593194 261.618011 
L 196.147466 264.533227 
L 201.352348 267.584564 
L 206.557231 270.358289 
L 211.762113 272.875965 
L 216.966996 275.158192 
L 222.822489 277.468543 
L 228.677981 279.531693 
L 234.533474 281.371864 
L 241.039577 283.182092 
L 247.54568 284.772554 
L 254.702394 286.298327 
L 262.509718 287.729608 
L 270.967652 289.04413 
L 280.076196 290.227306 
L 289.835351 291.271852 
L 300.895726 292.227334 
L 313.257322 293.0658 
L 327.570749 293.802618 
L 343.836007 294.412625 
L 363.354316 294.918249 
L 388.077508 295.324311 
L 398.487273 295.441973 
L 398.487273 295.441973 
" clip-path="url(#p9097db493b)" style="fill: none; stroke-dasharray: 3.7,1.6; stroke-dashoffset: 0; stroke: #4477aa"/>
    <g clip-path="url(#p9097db493b)">
     <use xlink:href="#m9aaf97bca2" x="73.832727" y="79.993429" style="fill: #4477aa; stroke: #4477aa"/>
     <use xlink:href="#m9aaf97bca2" x="112.869346" y="161.464586" style="fill: #4477aa; stroke: #4477aa"/>
     <use xlink:href="#m9aaf97bca2" x="151.905965" y="224.183631" style="fill: #4477aa; stroke: #4477aa"/>
     <use xlink:href="#m9aaf97bca2" x="190.942583" y="261.181911" style="fill: #4477aa; stroke: #4477aa"/>
     <use xlink:href="#m9aaf97bca2" x="229.979202" y="279.959074" style="fill: #4477aa; stroke: #4477aa"/>
     <use xlink:href="#m9aaf97bca2" x="269.015821" y="288.76059" style="fill: #4477aa; stroke: #4477aa"/>
     <use xlink:href="#m9aaf97bca2" x="308.052439" y="292.738738" style="fill: #4477aa; stroke: #4477aa"/>
     <use xlink:href="#m9aaf97bca2" x="347.089058" y="294.511762" style="fill: #4477aa; stroke: #4477aa"/>
     <use xlink:href="#m9aaf97bca2" x="386.125677" y="295.299278" style="fill: #4477aa; stroke: #4477aa"/>
    </g>
   </g>
   <g id="line2d_35">
    <path d="M 73.832727 79.993213 
L 74.483338 142.259352 
L 75.133948 156.21611 
L 75.784558 165.792456 
L 76.435169 172.329077 
L 77.085779 176.754104 
L 77.736389 179.706973 
L 78.386999 181.62814 
L 79.03761 182.821578 
L 79.68822 183.497785 
L 80.33883 183.803182 
L 80.989441 183.840158 
L 81.640051 183.680784 
L 82.941272 182.962815 
L 84.242492 181.908272 
L 86.194323 179.977465 
L 88.796764 177.068754 
L 93.351037 171.601645 
L 117.423618 142.216964 
L 124.580332 133.984694 
L 131.086435 126.82871 
L 136.941928 120.691428 
L 142.79742 114.865866 
L 148.652913 109.369058 
L 153.857796 104.767882 
L 159.062678 100.438851 
L 164.267561 96.382428 
L 169.472443 92.596149 
L 174.677326 89.075011 
L 179.882208 85.811868 
L 185.087091 82.797825 
L 190.291973 80.02262 
L 195.496856 77.474968 
L 201.352348 74.865913 
L 207.207841 72.51199 
L 213.063334 70.395276 
L 218.918827 68.497965 
L 225.42493 66.626022 
L 231.931033 64.98053 
L 239.087746 63.406148 
L 246.24446 62.052556 
L 254.051784 60.7987 
L 262.509718 59.670048 
L 271.618262 58.685245 
L 281.377417 57.856262 
L 292.437792 57.153927 
L 304.148778 56.637413 
L 317.160984 56.286895 
L 331.474411 56.121025 
L 347.739668 56.157683 
L 365.956757 56.430793 
L 385.475067 56.955087 
L 398.487273 57.427822 
L 398.487273 57.427822 
" clip-path="url(#p9097db493b)" style="fill: none; stroke: #ee6677; stroke-linecap: round"/>
    <defs>
     <path id="m4f8ff7ae6a" d="M 0 -2 
L -2 2 
L 2 2 
z
" style="stroke: #ee6677; stroke-linejoin: miter"/>
    </defs>
    <g clip-path="url(#p9097db493b)">
     <use xlink:href="#m4f8ff7ae6a" x="73.832727" y="79.993213" style="fill: #ee6677; stroke: #ee6677; stroke-linejoin: miter"/>
     <use xlink:href="#m4f8ff7ae6a" x="114.170567" y="146.06617" style="fill: #ee6677; stroke: #ee6677; stroke-linejoin: miter"/>
     <use xlink:href="#m4f8ff7ae6a" x="154.508406" y="104.21183" style="fill: #ee6677; stroke: #ee6677; stroke-linejoin: miter"/>
     <use xlink:href="#m4f8ff7ae6a" x="194.846245" y="77.781385" style="fill: #ee6677; stroke: #ee6677; stroke-linejoin: miter"/>
     <use xlink:href="#m4f8ff7ae6a" x="235.184085" y="64.23586" style="fill: #ee6677; stroke: #ee6677; stroke-linejoin: miter"/>
     <use xlink:href="#m4f8ff7ae6a" x="275.521924" y="58.327695" style="fill: #ee6677; stroke: #ee6677; stroke-linejoin: miter"/>
     <use xlink:href="#m4f8ff7ae6a" x="315.859763" y="56.312678" style="fill: #ee6677; stroke: #ee6677; stroke-linejoin: miter"/>
     <use xlink:href="#m4f8ff7ae6a" x="356.197602" y="56.256603" style="fill: #ee6677; stroke: #ee6677; stroke-linejoin: miter"/>
     <use xlink:href="#m4f8ff7ae6a" x="396.535442" y="57.350697" style="fill: #ee6677; stroke: #ee6677; stroke-linejoin: miter"/>
    </g>
   </g>
   <g id="line2d_36">
    <path d="M 73.832727 79.993429 
L 74.483338 80.281901 
L 75.133948 81.013123 
L 76.435169 83.253723 
L 78.386999 87.469929 
L 90.748595 115.472796 
L 98.555919 132.353064 
L 105.062022 145.928744 
L 110.917515 157.692439 
L 116.773008 168.96481 
L 121.97789 178.532728 
L 127.182773 187.647468 
L 132.387655 196.289879 
L 136.941928 203.454864 
L 141.4962 210.244953 
L 146.050472 216.659804 
L 150.604744 222.702311 
L 155.159016 228.378218 
L 159.713288 233.695735 
L 164.267561 238.665148 
L 168.821833 243.298431 
L 173.376105 247.608898 
L 177.930377 251.61086 
L 182.484649 255.319328 
L 187.038921 258.749738 
L 191.593194 261.917714 
L 196.147466 264.838863 
L 201.352348 267.894851 
L 206.557231 270.671066 
L 211.762113 273.189211 
L 216.966996 275.470054 
L 222.822489 277.776853 
L 228.677981 279.834591 
L 234.533474 281.667756 
L 241.039577 283.468639 
L 247.54568 285.04844 
L 254.702394 286.561331 
L 262.509718 287.977599 
L 270.967652 289.275198 
L 280.076196 290.439879 
L 289.835351 291.464789 
L 300.895726 292.398757 
L 313.257322 293.214604 
L 327.570749 293.927567 
L 344.486617 294.5333 
L 364.655537 295.021159 
L 390.029339 295.400711 
L 398.487273 295.488 
L 398.487273 295.488 
" clip-path="url(#p9097db493b)" style="fill: none; stroke-dasharray: 3.7,1.6; stroke-dashoffset: 0; stroke: #ee6677"/>
    <g clip-path="url(#p9097db493b)">
     <use xlink:href="#m4f8ff7ae6a" x="73.832727" y="79.993429" style="fill: #ee6677; stroke: #ee6677; stroke-linejoin: miter"/>
     <use xlink:href="#m4f8ff7ae6a" x="98.555919" y="132.353064" style="fill: #ee6677; stroke: #ee6677; stroke-linejoin: miter"/>
     <use xlink:href="#m4f8ff7ae6a" x="123.279111" y="180.854771" style="fill: #ee6677; stroke: #ee6677; stroke-linejoin: miter"/>
     <use xlink:href="#m4f8ff7ae6a" x="148.002303" y="219.294769" style="fill: #ee6677; stroke: #ee6677; stroke-linejoin: miter"/>
     <use xlink:href="#m4f8ff7ae6a" x="172.725495" y="247.012348" style="fill: #ee6677; stroke: #ee6677; stroke-linejoin: miter"/>
     <use xlink:href="#m4f8ff7ae6a" x="197.448686" y="265.630307" style="fill: #ee6677; stroke: #ee6677; stroke-linejoin: miter"/>
     <use xlink:href="#m4f8ff7ae6a" x="222.171878" y="277.533307" style="fill: #ee6677; stroke: #ee6677; stroke-linejoin: miter"/>
     <use xlink:href="#m4f8ff7ae6a" x="246.89507" y="284.899659" style="fill: #ee6677; stroke: #ee6677; stroke-linejoin: miter"/>
     <use xlink:href="#m4f8ff7ae6a" x="271.618262" y="289.365908" style="fill: #ee6677; stroke: #ee6677; stroke-linejoin: miter"/>
     <use xlink:href="#m4f8ff7ae6a" x="296.341454" y="292.040307" style="fill: #ee6677; stroke: #ee6677; stroke-linejoin: miter"/>
     <use xlink:href="#m4f8ff7ae6a" x="321.064646" y="293.630147" style="fill: #ee6677; stroke: #ee6677; stroke-linejoin: miter"/>
     <use xlink:href="#m4f8ff7ae6a" x="345.787838" y="294.571483" style="fill: #ee6677; stroke: #ee6677; stroke-linejoin: miter"/>
     <use xlink:href="#m4f8ff7ae6a" x="370.511029" y="295.127759" style="fill: #ee6677; stroke: #ee6677; stroke-linejoin: miter"/>
     <use xlink:href="#m4f8ff7ae6a" x="395.234221" y="295.456274" style="fill: #ee6677; stroke: #ee6677; stroke-linejoin: miter"/>
    </g>
   </g>
   <g id="line2d_37">
    <path d="M 73.832727 79.993213 
L 74.483338 142.22447 
L 75.133948 156.160341 
L 75.784558 165.739375 
L 76.435169 172.298301 
L 77.085779 176.761393 
L 77.736389 179.764995 
L 78.386999 181.747007 
L 79.03761 183.009214 
L 79.68822 183.760177 
L 80.33883 184.144629 
L 80.989441 184.263528 
L 81.640051 184.187759 
L 82.941272 183.638474 
L 84.242492 182.750623 
L 86.194323 181.060722 
L 88.796764 178.452424 
L 92.700426 174.189075 
L 99.85714 165.982259 
L 118.074228 144.992178 
L 125.881552 136.354589 
L 133.038266 128.759139 
L 139.544369 122.174085 
L 145.399862 116.537762 
L 151.255354 111.195501 
L 157.110847 106.159511 
L 162.96634 101.436422 
L 168.821833 97.027849 
L 174.026715 93.371005 
L 179.231598 89.9561 
L 185.087091 86.395517 
L 190.942583 83.121572 
L 196.798076 80.12089 
L 202.653569 77.378733 
L 208.509062 74.879496 
L 214.364555 72.60713 
L 220.870658 70.328752 
L 227.376761 68.288757 
L 234.533474 66.294943 
L 241.690188 64.537378 
L 249.497511 62.860218 
L 257.304835 61.404802 
L 265.762769 60.047171 
L 274.871314 58.805962 
L 284.630468 57.693547 
L 295.690843 56.661907 
L 308.052439 55.747463 
L 321.715256 54.975297 
L 336.679293 54.361196 
L 352.944551 53.915283 
L 371.16164 53.640595 
L 390.679949 53.571678 
L 398.487273 53.604533 
L 398.487273 53.604533 
" clip-path="url(#p9097db493b)" style="fill: none; stroke: #228833; stroke-linecap: round"/>
    <defs>
     <path id="m913ef56dbb" d="M -2 2 
L 2 2 
L 2 -2 
L -2 -2 
z
" style="stroke: #228833; stroke-linejoin: miter"/>
    </defs>
    <g clip-path="url(#p9097db493b)">
     <use xlink:href="#m913ef56dbb" x="73.832727" y="79.993213" style="fill: #228833; stroke: #228833; stroke-linejoin: miter"/>
     <use xlink:href="#m913ef56dbb" x="108.315074" y="156.157035" style="fill: #228833; stroke: #228833; stroke-linejoin: miter"/>
     <use xlink:href="#m913ef56dbb" x="142.79742" y="119.007431" style="fill: #228833; stroke: #228833; stroke-linejoin: miter"/>
     <use xlink:href="#m913ef56dbb" x="177.279767" y="91.208704" style="fill: #228833; stroke: #228833; stroke-linejoin: miter"/>
     <use xlink:href="#m913ef56dbb" x="211.762113" y="73.590095" style="fill: #228833; stroke: #228833; stroke-linejoin: miter"/>
     <use xlink:href="#m913ef56dbb" x="246.24446" y="63.530442" style="fill: #228833; stroke: #228833; stroke-linejoin: miter"/>
     <use xlink:href="#m913ef56dbb" x="280.726806" y="58.113783" style="fill: #228833; stroke: #228833; stroke-linejoin: miter"/>
     <use xlink:href="#m913ef56dbb" x="315.209153" y="55.314969" style="fill: #228833; stroke: #228833; stroke-linejoin: miter"/>
     <use xlink:href="#m913ef56dbb" x="349.691499" y="53.98814" style="fill: #228833; stroke: #228833; stroke-linejoin: miter"/>
     <use xlink:href="#m913ef56dbb" x="384.173846" y="53.570318" style="fill: #228833; stroke: #228833; stroke-linejoin: miter"/>
    </g>
   </g>
   <g id="line2d_38">
    <path d="M 73.832727 79.993429 
L 74.483338 80.281917 
L 75.133948 81.013262 
L 76.435169 83.254495 
L 78.386999 87.471316 
L 89.447375 112.49904 
L 96.604088 127.915831 
L 103.110191 141.449431 
L 109.616294 154.469073 
L 115.471787 165.692395 
L 121.32728 176.40265 
L 126.532162 185.464012 
L 131.737045 194.07446 
L 136.941928 202.221814 
L 141.4962 208.965667 
L 146.050472 215.349039 
L 150.604744 221.373934 
L 155.159016 227.044988 
L 159.713288 232.369154 
L 164.267561 237.355379 
L 168.821833 242.014278 
L 173.376105 246.35782 
L 177.930377 250.399022 
L 182.484649 254.151672 
L 187.038921 257.630079 
L 191.593194 260.848839 
L 196.147466 263.822644 
L 201.352348 266.940067 
L 206.557231 269.778065 
L 211.762113 272.357479 
L 216.966996 274.698369 
L 222.822489 277.070567 
L 228.677981 279.190849 
L 234.533474 281.083274 
L 241.039577 282.945819 
L 247.54568 284.582688 
L 254.702394 286.152985 
L 262.509718 287.62557 
L 270.967652 288.977065 
L 280.076196 290.192069 
L 289.835351 291.262824 
L 300.895726 292.239832 
L 313.257322 293.094197 
L 326.920138 293.812103 
L 343.185396 294.435194 
L 362.703706 294.94705 
L 386.776287 295.344689 
L 398.487273 295.475419 
L 398.487273 295.475419 
" clip-path="url(#p9097db493b)" style="fill: none; stroke-dasharray: 3.7,1.6; stroke-dashoffset: 0; stroke: #228833"/>
    <g clip-path="url(#p9097db493b)">
     <use xlink:href="#m913ef56dbb" x="73.832727" y="79.993429" style="fill: #228833; stroke: #228833; stroke-linejoin: miter"/>
     <use xlink:href="#m913ef56dbb" x="97.905309" y="130.660539" style="fill: #228833; stroke: #228833; stroke-linejoin: miter"/>
     <use xlink:href="#m913ef56dbb" x="121.97789" y="177.559418" style="fill: #228833; stroke: #228833; stroke-linejoin: miter"/>
     <use xlink:href="#m913ef56dbb" x="146.050472" y="215.349039" style="fill: #228833; stroke: #228833; stroke-linejoin: miter"/>
     <use xlink:href="#m913ef56dbb" x="170.123053" y="243.286918" style="fill: #228833; stroke: #228833; stroke-linejoin: miter"/>
     <use xlink:href="#m913ef56dbb" x="194.195635" y="262.57721" style="fill: #228833; stroke: #228833; stroke-linejoin: miter"/>
     <use xlink:href="#m913ef56dbb" x="218.268216" y="275.248588" style="fill: #228833; stroke: #228833; stroke-linejoin: miter"/>
     <use xlink:href="#m913ef56dbb" x="242.340798" y="283.290394" style="fill: #228833; stroke: #228833; stroke-linejoin: miter"/>
     <use xlink:href="#m913ef56dbb" x="266.413379" y="288.2785" style="fill: #228833; stroke: #228833; stroke-linejoin: miter"/>
     <use xlink:href="#m913ef56dbb" x="290.485961" y="291.326763" style="fill: #228833; stroke: #228833; stroke-linejoin: miter"/>
     <use xlink:href="#m913ef56dbb" x="314.558543" y="293.17185" style="fill: #228833; stroke: #228833; stroke-linejoin: miter"/>
     <use xlink:href="#m913ef56dbb" x="338.631124" y="294.281862" style="fill: #228833; stroke: #228833; stroke-linejoin: miter"/>
     <use xlink:href="#m913ef56dbb" x="362.703706" y="294.94705" style="fill: #228833; stroke: #228833; stroke-linejoin: miter"/>
     <use xlink:href="#m913ef56dbb" x="386.776287" y="295.344689" style="fill: #228833; stroke: #228833; stroke-linejoin: miter"/>
    </g>
   </g>
   <g id="line2d_39">
    <path d="M 73.832727 79.993213 
L 74.483338 142.210597 
L 75.133948 156.144097 
L 75.784558 165.744447 
L 76.435169 172.349003 
L 77.085779 176.880923 
L 77.736389 179.97518 
L 78.386999 182.068113 
L 79.03761 183.45967 
L 79.68822 184.356301 
L 80.33883 184.900403 
L 80.989441 185.190501 
L 81.640051 185.295059 
L 82.941272 185.124791 
L 84.242492 184.627599 
L 86.194323 183.520762 
L 88.146154 182.149075 
L 90.748595 180.067741 
L 94.652257 176.617022 
L 99.85714 171.66914 
L 107.664463 163.881073 
L 132.387655 138.948994 
L 140.194979 131.492886 
L 147.351692 124.969803 
L 153.857796 119.336536 
L 160.363899 114.009604 
L 166.219391 109.489262 
L 172.074884 105.234007 
L 177.930377 101.244867 
L 183.78587 97.519228 
L 189.641363 94.05144 
L 195.496856 90.83338 
L 201.352348 87.854999 
L 207.207841 85.104814 
L 213.713944 82.30149 
L 220.220047 79.746494 
L 226.72615 77.421461 
L 233.882864 75.1077 
L 241.039577 73.026287 
L 248.846901 70.99394 
L 256.654225 69.183286 
L 265.112159 67.442236 
L 274.220703 65.790722 
L 283.979858 64.242026 
L 295.040233 62.719627 
L 306.751219 61.330978 
L 320.414035 59.945675 
L 335.378072 58.65816 
L 352.293941 57.426345 
L 371.81225 56.229422 
L 394.583611 55.063084 
L 398.487273 54.883786 
L 398.487273 54.883786 
" clip-path="url(#p9097db493b)" style="fill: none; stroke: #ccbb44; stroke-linecap: round"/>
    <defs>
     <path id="mc7594186fc" d="M -0.666667 2 
L 0.666667 2 
L 0.666667 0.666667 
L 2 0.666667 
L 2 -0.666667 
L 0.666667 -0.666667 
L 0.666667 -2 
L -0.666667 -2 
L -0.666667 -0.666667 
L -2 -0.666667 
L -2 0.666667 
L -0.666667 0.666667 
z
" style="stroke: #ccbb44; stroke-linejoin: miter"/>
    </defs>
    <g clip-path="url(#p9097db493b)">
     <use xlink:href="#mc7594186fc" x="73.832727" y="79.993213" style="fill: #ccbb44; stroke: #ccbb44; stroke-linejoin: miter"/>
     <use xlink:href="#mc7594186fc" x="103.110191" y="168.460145" style="fill: #ccbb44; stroke: #ccbb44; stroke-linejoin: miter"/>
     <use xlink:href="#mc7594186fc" x="132.387655" y="138.948994" style="fill: #ccbb44; stroke: #ccbb44; stroke-linejoin: miter"/>
     <use xlink:href="#mc7594186fc" x="161.665119" y="112.982373" style="fill: #ccbb44; stroke: #ccbb44; stroke-linejoin: miter"/>
     <use xlink:href="#mc7594186fc" x="190.942583" y="93.315061" style="fill: #ccbb44; stroke: #ccbb44; stroke-linejoin: miter"/>
     <use xlink:href="#mc7594186fc" x="220.220047" y="79.746494" style="fill: #ccbb44; stroke: #ccbb44; stroke-linejoin: miter"/>
     <use xlink:href="#mc7594186fc" x="249.497511" y="70.834953" style="fill: #ccbb44; stroke: #ccbb44; stroke-linejoin: miter"/>
     <use xlink:href="#mc7594186fc" x="278.774975" y="65.041736" style="fill: #ccbb44; stroke: #ccbb44; stroke-linejoin: miter"/>
     <use xlink:href="#mc7594186fc" x="308.052439" y="61.188976" style="fill: #ccbb44; stroke: #ccbb44; stroke-linejoin: miter"/>
     <use xlink:href="#mc7594186fc" x="337.329903" y="58.505043" style="fill: #ccbb44; stroke: #ccbb44; stroke-linejoin: miter"/>
     <use xlink:href="#mc7594186fc" x="366.607367" y="56.528578" style="fill: #ccbb44; stroke: #ccbb44; stroke-linejoin: miter"/>
     <use xlink:href="#mc7594186fc" x="395.884831" y="55.002699" style="fill: #ccbb44; stroke: #ccbb44; stroke-linejoin: miter"/>
    </g>
   </g>
   <g id="line2d_40">
    <path d="M 73.832727 79.993429 
L 74.483338 80.281924 
L 75.133948 81.013316 
L 76.435169 83.254666 
L 78.386999 87.469828 
L 87.495544 108.035332 
L 93.351037 120.534546 
L 99.85714 133.889424 
L 106.363243 146.720432 
L 112.218736 157.806253 
L 118.074228 168.429637 
L 123.929721 178.565856 
L 129.134604 187.149204 
L 134.339486 195.318416 
L 139.544369 203.065144 
L 144.749251 210.384922 
L 149.954134 217.277163 
L 154.508406 222.959529 
L 159.062678 228.321152 
L 163.61695 233.368089 
L 168.171222 238.107997 
L 172.725495 242.549894 
L 177.279767 246.703941 
L 181.834039 250.581206 
L 186.388311 254.193453 
L 190.942583 257.55294 
L 196.147466 261.098988 
L 201.352348 264.35031 
L 206.557231 267.325866 
L 211.762113 270.044356 
L 216.966996 272.52403 
L 222.822489 275.050148 
L 228.677981 277.320363 
L 234.533474 279.357407 
L 241.039577 281.37323 
L 247.54568 283.154696 
L 254.702394 284.873378 
L 261.859107 286.368893 
L 269.666431 287.777691 
L 278.124365 289.076901 
L 287.232909 290.25088 
L 296.992064 291.291019 
L 308.052439 292.245497 
L 320.414035 293.08528 
L 334.727462 293.824546 
L 350.99272 294.436836 
L 370.511029 294.943519 
L 395.234221 295.348371 
L 398.487273 295.387581 
L 398.487273 295.387581 
" clip-path="url(#p9097db493b)" style="fill: none; stroke-dasharray: 3.7,1.6; stroke-dashoffset: 0; stroke: #ccbb44"/>
    <g clip-path="url(#p9097db493b)">
     <use xlink:href="#mc7594186fc" x="73.832727" y="79.993429" style="fill: #ccbb44; stroke: #ccbb44; stroke-linejoin: miter"/>
     <use xlink:href="#mc7594186fc" x="106.363243" y="146.720432" style="fill: #ccbb44; stroke: #ccbb44; stroke-linejoin: miter"/>
     <use xlink:href="#mc7594186fc" x="138.893758" y="202.120098" style="fill: #ccbb44; stroke: #ccbb44; stroke-linejoin: miter"/>
     <use xlink:href="#mc7594186fc" x="171.424274" y="241.310616" style="fill: #ccbb44; stroke: #ccbb44; stroke-linejoin: miter"/>
     <use xlink:href="#mc7594186fc" x="203.95479" y="265.871382" style="fill: #ccbb44; stroke: #ccbb44; stroke-linejoin: miter"/>
     <use xlink:href="#mc7594186fc" x="236.485305" y="279.988337" style="fill: #ccbb44; stroke: #ccbb44; stroke-linejoin: miter"/>
     <use xlink:href="#mc7594186fc" x="269.015821" y="287.668411" style="fill: #ccbb44; stroke: #ccbb44; stroke-linejoin: miter"/>
     <use xlink:href="#mc7594186fc" x="301.546336" y="291.710262" style="fill: #ccbb44; stroke: #ccbb44; stroke-linejoin: miter"/>
     <use xlink:href="#mc7594186fc" x="334.076852" y="293.795483" style="fill: #ccbb44; stroke: #ccbb44; stroke-linejoin: miter"/>
     <use xlink:href="#mc7594186fc" x="366.607367" y="294.858057" style="fill: #ccbb44; stroke: #ccbb44; stroke-linejoin: miter"/>
    </g>
   </g>
   <g id="line2d_41"/>
   <g id="line2d_42"/>
   <g id="patch_3">
    <path d="M 57.6 307.584 
L 57.6 41.472 
" style="fill: none; stroke: #262626; stroke-width: 0.5; stroke-linejoin: miter; stroke-linecap: square"/>
   </g>
   <g id="patch_4">
    <path d="M 57.6 307.584 
L 414.72 307.584 
" style="fill: none; stroke: #262626; stroke-width: 0.5; stroke-linejoin: miter; stroke-linecap: square"/>
   </g>
   <g id="legend_1">
    <g id="line2d_43">
     <path d="M 328.2 98.412187 
L 346.2 98.412187 
L 364.2 98.412187 
" style="fill: none; stroke: #4477aa; stroke-linecap: round"/>
     <g>
      <use xlink:href="#m9aaf97bca2" x="346.2" y="98.412187" style="fill: #4477aa; stroke: #4477aa"/>
     </g>
    </g>
    <g id="text_16">
     <!-- 1X -->
     <g style="fill: #262626" transform="translate(378.6 104.712187)scale(0.18 -0.18)">
      <defs>
       <path id="Helvetica-58" d="M 881 0 
L 131 0 
L 1775 2353 
L 234 4591 
L 1013 4591 
L 2184 2834 
L 3347 4591 
L 4088 4591 
L 2547 2353 
L 4163 0 
L 3391 0 
L 2153 1888 
L 881 0 
z
" transform="scale(0.015625)"/>
      </defs>
      <use xlink:href="#Helvetica-31"/>
      <use xlink:href="#Helvetica-58" x="55.615234"/>
     </g>
    </g>
    <g id="line2d_44">
     <path d="M 328.2 124.07625 
L 346.2 124.07625 
L 364.2 124.07625 
" style="fill: none; stroke: #ee6677; stroke-linecap: round"/>
     <g>
      <use xlink:href="#m4f8ff7ae6a" x="346.2" y="124.07625" style="fill: #ee6677; stroke: #ee6677; stroke-linejoin: miter"/>
     </g>
    </g>
    <g id="text_17">
     <!-- 30X -->
     <g style="fill: #262626" transform="translate(378.6 130.37625)scale(0.18 -0.18)">
      <use xlink:href="#Helvetica-33"/>
      <use xlink:href="#Helvetica-30" x="55.615234"/>
      <use xlink:href="#Helvetica-58" x="111.230469"/>
     </g>
    </g>
    <g id="line2d_45">
     <path d="M 328.2 149.740312 
L 346.2 149.740312 
L 364.2 149.740312 
" style="fill: none; stroke: #228833; stroke-linecap: round"/>
     <g>
      <use xlink:href="#m913ef56dbb" x="346.2" y="149.740312" style="fill: #228833; stroke: #228833; stroke-linejoin: miter"/>
     </g>
    </g>
    <g id="text_18">
     <!-- 70X -->
     <g style="fill: #262626" transform="translate(378.6 156.040312)scale(0.18 -0.18)">
      <defs>
       <path id="Helvetica-37" d="M 3347 4400 
L 3347 3909 
Q 3131 3700 2773 3181 
Q 2416 2663 2141 2063 
Q 1869 1478 1728 997 
Q 1638 688 1494 0 
L 872 0 
Q 1084 1281 1809 2550 
Q 2238 3294 2709 3834 
L 234 3834 
L 234 4400 
L 3347 4400 
z
" transform="scale(0.015625)"/>
      </defs>
      <use xlink:href="#Helvetica-37"/>
      <use xlink:href="#Helvetica-30" x="55.615234"/>
      <use xlink:href="#Helvetica-58" x="111.230469"/>
     </g>
    </g>
    <g id="line2d_46">
     <path d="M 328.2 175.404375 
L 346.2 175.404375 
L 364.2 175.404375 
" style="fill: none; stroke: #ccbb44; stroke-linecap: round"/>
     <g>
      <use xlink:href="#mc7594186fc" x="346.2" y="175.404375" style="fill: #ccbb44; stroke: #ccbb44; stroke-linejoin: miter"/>
     </g>
    </g>
    <g id="text_19">
     <!-- 100X -->
     <g style="fill: #262626" transform="translate(378.6 181.704375)scale(0.18 -0.18)">
      <use xlink:href="#Helvetica-31"/>
      <use xlink:href="#Helvetica-30" x="55.615234"/>
      <use xlink:href="#Helvetica-30" x="111.230469"/>
      <use xlink:href="#Helvetica-58" x="166.845703"/>
     </g>
    </g>
    <g id="line2d_47">
     <path d="M 328.2 201.068437 
L 346.2 201.068437 
L 364.2 201.068437 
" style="fill: none; stroke: #000000; stroke-width: 1.5; stroke-linecap: round"/>
    </g>
    <g id="text_20">
     <!-- C -->
     <g style="fill: #262626" transform="translate(378.6 207.368437)scale(0.18 -0.18)">
      <use xlink:href="#Helvetica-43"/>
     </g>
    </g>
    <g id="line2d_48">
     <path d="M 328.2 226.7325 
L 346.2 226.7325 
L 364.2 226.7325 
" style="fill: none; stroke-dasharray: 5.55,2.4; stroke-dashoffset: 0; stroke: #000000; stroke-width: 1.5"/>
    </g>
    <g id="text_21">
     <!-- B -->
     <g style="fill: #262626" transform="translate(378.6 233.0325)scale(0.18 -0.18)">
      <defs>
       <path id="Helvetica-42" d="M 2213 2650 
Q 2606 2650 2825 2759 
Q 3169 2931 3169 3378 
Q 3169 3828 2803 3984 
Q 2597 4072 2191 4072 
L 1081 4072 
L 1081 2650 
L 2213 2650 
z
M 2422 531 
Q 2994 531 3238 863 
Q 3391 1072 3391 1369 
Q 3391 1869 2944 2050 
Q 2706 2147 2316 2147 
L 1081 2147 
L 1081 531 
L 2422 531 
z
M 472 4591 
L 2444 4591 
Q 3250 4591 3591 4109 
Q 3791 3825 3791 3453 
Q 3791 3019 3544 2741 
Q 3416 2594 3175 2472 
Q 3528 2338 3703 2169 
Q 4013 1869 4013 1341 
Q 4013 897 3734 538 
Q 3319 0 2413 0 
L 472 0 
L 472 4591 
z
" transform="scale(0.015625)"/>
      </defs>
      <use xlink:href="#Helvetica-42"/>
     </g>
    </g>
   </g>
  </g>
 </g>
 <defs>
  <clipPath id="p9097db493b">
   <rect x="57.6" y="41.472" width="357.12" height="266.112"/>
  </clipPath>
 </defs>
</svg>
