<?xml version="1.0" encoding="utf-8" standalone="no"?>
<!DOCTYPE svg PUBLIC "-//W3C//DTD SVG 1.1//EN"
  "http://www.w3.org/Graphics/SVG/1.1/DTD/svg11.dtd">
<svg xmlns:xlink="http://www.w3.org/1999/xlink" width="460.8pt" height="345.6pt" viewBox="0 0 460.8 345.6" xmlns="http://www.w3.org/2000/svg" version="1.1">
 <metadata>
  <rdf:RDF xmlns:dc="http://purl.org/dc/elements/1.1/" xmlns:cc="http://creativecommons.org/ns#" xmlns:rdf="http://www.w3.org/1999/02/22-rdf-syntax-ns#">
   <cc:Work>
    <dc:type rdf:resource="http://purl.org/dc/dcmitype/StillImage"/>
    <dc:date>2024-04-09T11:09:36.786944</dc:date>
    <dc:format>image/svg+xml</dc:format>
    <dc:creator>
     <cc:Agent>
      <dc:title>Matplotlib v3.5.1, https://matplotlib.org/</dc:title>
     </cc:Agent>
    </dc:creator>
   </cc:Work>
  </rdf:RDF>
 </metadata>
 <defs>
  <style type="text/css">*{stroke-linejoin: round; stroke-linecap: butt}</style>
 </defs>
 <g id="figure_1">
  <g id="patch_1">
   <path d="M 0 345.6 
L 460.8 345.6 
L 460.8 0 
L 0 0 
z
" style="fill: #ffffff"/>
  </g>
  <g id="axes_1">
   <g id="patch_2">
    <path d="M 57.6 307.584 
L 414.72 307.584 
L 414.72 41.472 
L 57.6 41.472 
z
" style="fill: #ffffff"/>
   </g>
   <g id="matplotlib.axis_1">
    <g id="xtick_1">
     <g id="line2d_1">
      <defs>
       <path id="mb71933f992" d="M 0 0 
L 0 4 
" style="stroke: #262626"/>
      </defs>
      <g>
       <use xlink:href="#mb71933f992" x="73.832727" y="307.584" style="fill: #262626; stroke: #262626"/>
      </g>
     </g>
     <g id="text_1">
      <!-- 0 -->
      <g style="fill: #262626" transform="translate(69.940071 325.126812)scale(0.14 -0.14)">
       <defs>
        <path id="Helvetica-30" d="M 1731 4475 
Q 2600 4475 2988 3759 
Q 3288 3206 3288 2244 
Q 3288 1331 3016 734 
Q 2622 -122 1728 -122 
Q 922 -122 528 578 
Q 200 1163 200 2147 
Q 200 2909 397 3456 
Q 766 4475 1731 4475 
z
M 1725 391 
Q 2163 391 2422 778 
Q 2681 1166 2681 2222 
Q 2681 2984 2493 3476 
Q 2306 3969 1766 3969 
Q 1269 3969 1039 3501 
Q 809 3034 809 2125 
Q 809 1441 956 1025 
Q 1181 391 1725 391 
z
" transform="scale(0.015625)"/>
       </defs>
       <use xlink:href="#Helvetica-30"/>
      </g>
     </g>
    </g>
    <g id="xtick_2">
     <g id="line2d_2">
      <g>
       <use xlink:href="#mb71933f992" x="127.941818" y="307.584" style="fill: #262626; stroke: #262626"/>
      </g>
     </g>
     <g id="text_2">
      <!-- 5 -->
      <g style="fill: #262626" transform="translate(124.049162 325.126812)scale(0.14 -0.14)">
       <defs>
        <path id="Helvetica-35" d="M 791 1141 
Q 847 659 1238 475 
Q 1438 381 1700 381 
Q 2200 381 2440 700 
Q 2681 1019 2681 1406 
Q 2681 1875 2395 2131 
Q 2109 2388 1709 2388 
Q 1419 2388 1211 2275 
Q 1003 2163 856 1963 
L 369 1991 
L 709 4400 
L 3034 4400 
L 3034 3856 
L 1131 3856 
L 941 2613 
Q 1097 2731 1238 2791 
Q 1488 2894 1816 2894 
Q 2431 2894 2859 2497 
Q 3288 2100 3288 1491 
Q 3288 856 2895 371 
Q 2503 -113 1644 -113 
Q 1097 -113 676 195 
Q 256 503 206 1141 
L 791 1141 
z
" transform="scale(0.015625)"/>
       </defs>
       <use xlink:href="#Helvetica-35"/>
      </g>
     </g>
    </g>
    <g id="xtick_3">
     <g id="line2d_3">
      <g>
       <use xlink:href="#mb71933f992" x="182.050909" y="307.584" style="fill: #262626; stroke: #262626"/>
      </g>
     </g>
     <g id="text_3">
      <!-- 10 -->
      <g style="fill: #262626" transform="translate(174.265597 325.126812)scale(0.14 -0.14)">
       <defs>
        <path id="Helvetica-31" d="M 613 3169 
L 613 3600 
Q 1222 3659 1462 3798 
Q 1703 3938 1822 4456 
L 2266 4456 
L 2266 0 
L 1666 0 
L 1666 3169 
L 613 3169 
z
" transform="scale(0.015625)"/>
       </defs>
       <use xlink:href="#Helvetica-31"/>
       <use xlink:href="#Helvetica-30" x="55.615234"/>
      </g>
     </g>
    </g>
    <g id="xtick_4">
     <g id="line2d_4">
      <g>
       <use xlink:href="#mb71933f992" x="236.16" y="307.584" style="fill: #262626; stroke: #262626"/>
      </g>
     </g>
     <g id="text_4">
      <!-- 15 -->
      <g style="fill: #262626" transform="translate(228.374688 325.126812)scale(0.14 -0.14)">
       <use xlink:href="#Helvetica-31"/>
       <use xlink:href="#Helvetica-35" x="55.615234"/>
      </g>
     </g>
    </g>
    <g id="xtick_5">
     <g id="line2d_5">
      <g>
       <use xlink:href="#mb71933f992" x="290.269091" y="307.584" style="fill: #262626; stroke: #262626"/>
      </g>
     </g>
     <g id="text_5">
      <!-- 20 -->
      <g style="fill: #262626" transform="translate(282.483778 325.126812)scale(0.14 -0.14)">
       <defs>
        <path id="Helvetica-32" d="M 200 0 
Q 231 578 439 1006 
Q 647 1434 1250 1784 
L 1850 2131 
Q 2253 2366 2416 2531 
Q 2672 2791 2672 3125 
Q 2672 3516 2437 3745 
Q 2203 3975 1813 3975 
Q 1234 3975 1013 3538 
Q 894 3303 881 2888 
L 309 2888 
Q 319 3472 525 3841 
Q 891 4491 1816 4491 
Q 2584 4491 2939 4075 
Q 3294 3659 3294 3150 
Q 3294 2613 2916 2231 
Q 2697 2009 2131 1694 
L 1703 1456 
Q 1397 1288 1222 1134 
Q 909 863 828 531 
L 3272 531 
L 3272 0 
L 200 0 
z
" transform="scale(0.015625)"/>
       </defs>
       <use xlink:href="#Helvetica-32"/>
       <use xlink:href="#Helvetica-30" x="55.615234"/>
      </g>
     </g>
    </g>
    <g id="xtick_6">
     <g id="line2d_6">
      <g>
       <use xlink:href="#mb71933f992" x="344.378182" y="307.584" style="fill: #262626; stroke: #262626"/>
      </g>
     </g>
     <g id="text_6">
      <!-- 25 -->
      <g style="fill: #262626" transform="translate(336.592869 325.126812)scale(0.14 -0.14)">
       <use xlink:href="#Helvetica-32"/>
       <use xlink:href="#Helvetica-35" x="55.615234"/>
      </g>
     </g>
    </g>
    <g id="xtick_7">
     <g id="line2d_7">
      <g>
       <use xlink:href="#mb71933f992" x="398.487273" y="307.584" style="fill: #262626; stroke: #262626"/>
      </g>
     </g>
     <g id="text_7">
      <!-- 30 -->
      <g style="fill: #262626" transform="translate(390.70196 325.126812)scale(0.14 -0.14)">
       <defs>
        <path id="Helvetica-33" d="M 1663 -122 
Q 869 -122 511 314 
Q 153 750 153 1375 
L 741 1375 
Q 778 941 903 744 
Q 1122 391 1694 391 
Q 2138 391 2406 628 
Q 2675 866 2675 1241 
Q 2675 1703 2392 1887 
Q 2109 2072 1606 2072 
Q 1550 2072 1492 2070 
Q 1434 2069 1375 2066 
L 1375 2563 
Q 1463 2553 1522 2550 
Q 1581 2547 1650 2547 
Q 1966 2547 2169 2647 
Q 2525 2822 2525 3272 
Q 2525 3606 2287 3787 
Q 2050 3969 1734 3969 
Q 1172 3969 956 3594 
Q 838 3388 822 3006 
L 266 3006 
Q 266 3506 466 3856 
Q 809 4481 1675 4481 
Q 2359 4481 2734 4176 
Q 3109 3872 3109 3294 
Q 3109 2881 2888 2625 
Q 2750 2466 2531 2375 
Q 2884 2278 3082 2001 
Q 3281 1725 3281 1325 
Q 3281 684 2859 281 
Q 2438 -122 1663 -122 
z
" transform="scale(0.015625)"/>
       </defs>
       <use xlink:href="#Helvetica-33"/>
       <use xlink:href="#Helvetica-30" x="55.615234"/>
      </g>
     </g>
    </g>
    <g id="text_8">
     <!-- Time (hours) -->
     <g style="fill: #262626" transform="translate(185.156719 345.089312)scale(0.18 -0.18)">
      <defs>
       <path id="Helvetica-54" d="M 3828 4591 
L 3828 4044 
L 2281 4044 
L 2281 0 
L 1650 0 
L 1650 4044 
L 103 4044 
L 103 4591 
L 3828 4591 
z
" transform="scale(0.015625)"/>
       <path id="Helvetica-69" d="M 413 3331 
L 984 3331 
L 984 0 
L 413 0 
L 413 3331 
z
M 413 4591 
L 984 4591 
L 984 3953 
L 413 3953 
L 413 4591 
z
" transform="scale(0.015625)"/>
       <path id="Helvetica-6d" d="M 413 3347 
L 969 3347 
L 969 2872 
Q 1169 3119 1331 3231 
Q 1609 3422 1963 3422 
Q 2363 3422 2606 3225 
Q 2744 3113 2856 2894 
Q 3044 3163 3297 3292 
Q 3550 3422 3866 3422 
Q 4541 3422 4784 2934 
Q 4916 2672 4916 2228 
L 4916 0 
L 4331 0 
L 4331 2325 
Q 4331 2659 4164 2784 
Q 3997 2909 3756 2909 
Q 3425 2909 3186 2687 
Q 2947 2466 2947 1947 
L 2947 0 
L 2375 0 
L 2375 2184 
Q 2375 2525 2294 2681 
Q 2166 2916 1816 2916 
Q 1497 2916 1236 2669 
Q 975 2422 975 1775 
L 975 0 
L 413 0 
L 413 3347 
z
" transform="scale(0.015625)"/>
       <path id="Helvetica-65" d="M 1806 3422 
Q 2163 3422 2497 3255 
Q 2831 3088 3006 2822 
Q 3175 2569 3231 2231 
Q 3281 2000 3281 1494 
L 828 1494 
Q 844 984 1069 676 
Q 1294 369 1766 369 
Q 2206 369 2469 659 
Q 2619 828 2681 1050 
L 3234 1050 
Q 3213 866 3089 639 
Q 2966 413 2813 269 
Q 2556 19 2178 -69 
Q 1975 -119 1719 -119 
Q 1094 -119 659 336 
Q 225 791 225 1609 
Q 225 2416 662 2919 
Q 1100 3422 1806 3422 
z
M 2703 1941 
Q 2669 2306 2544 2525 
Q 2313 2931 1772 2931 
Q 1384 2931 1121 2651 
Q 859 2372 844 1941 
L 2703 1941 
z
M 1753 3428 
L 1753 3428 
z
" transform="scale(0.015625)"/>
       <path id="Helvetica-20" transform="scale(0.015625)"/>
       <path id="Helvetica-28" d="M 1894 4666 
Q 1403 3713 1256 3263 
Q 1034 2578 1034 1681 
Q 1034 775 1288 25 
Q 1444 -438 1903 -1306 
L 1525 -1306 
Q 1069 -594 959 -397 
Q 850 -200 722 138 
Q 547 600 478 1125 
Q 444 1397 444 1644 
Q 444 2569 734 3291 
Q 919 3750 1503 4666 
L 1894 4666 
z
" transform="scale(0.015625)"/>
       <path id="Helvetica-68" d="M 413 4606 
L 975 4606 
L 975 2894 
Q 1175 3147 1334 3250 
Q 1606 3428 2013 3428 
Q 2741 3428 3000 2919 
Q 3141 2641 3141 2147 
L 3141 0 
L 2563 0 
L 2563 2109 
Q 2563 2478 2469 2650 
Q 2316 2925 1894 2925 
Q 1544 2925 1259 2684 
Q 975 2444 975 1775 
L 975 0 
L 413 0 
L 413 4606 
z
" transform="scale(0.015625)"/>
       <path id="Helvetica-6f" d="M 1741 363 
Q 2300 363 2508 786 
Q 2716 1209 2716 1728 
Q 2716 2197 2566 2491 
Q 2328 2953 1747 2953 
Q 1231 2953 997 2559 
Q 763 2166 763 1609 
Q 763 1075 997 719 
Q 1231 363 1741 363 
z
M 1763 3444 
Q 2409 3444 2856 3012 
Q 3303 2581 3303 1744 
Q 3303 934 2909 406 
Q 2516 -122 1688 -122 
Q 997 -122 590 345 
Q 184 813 184 1600 
Q 184 2444 612 2944 
Q 1041 3444 1763 3444 
z
M 1744 3428 
L 1744 3428 
z
" transform="scale(0.015625)"/>
       <path id="Helvetica-75" d="M 975 3347 
L 975 1125 
Q 975 869 1056 706 
Q 1206 406 1616 406 
Q 2203 406 2416 931 
Q 2531 1213 2531 1703 
L 2531 3347 
L 3094 3347 
L 3094 0 
L 2563 0 
L 2569 494 
Q 2459 303 2297 172 
Q 1975 -91 1516 -91 
Q 800 -91 541 388 
Q 400 644 400 1072 
L 400 3347 
L 975 3347 
z
M 1747 3428 
L 1747 3428 
z
" transform="scale(0.015625)"/>
       <path id="Helvetica-72" d="M 428 3347 
L 963 3347 
L 963 2769 
Q 1028 2938 1284 3180 
Q 1541 3422 1875 3422 
Q 1891 3422 1928 3419 
Q 1966 3416 2056 3406 
L 2056 2813 
Q 2006 2822 1964 2825 
Q 1922 2828 1872 2828 
Q 1447 2828 1219 2554 
Q 991 2281 991 1925 
L 991 0 
L 428 0 
L 428 3347 
z
" transform="scale(0.015625)"/>
       <path id="Helvetica-73" d="M 747 1050 
Q 772 769 888 619 
Q 1100 347 1625 347 
Q 1938 347 2175 483 
Q 2413 619 2413 903 
Q 2413 1119 2222 1231 
Q 2100 1300 1741 1391 
L 1294 1503 
Q 866 1609 663 1741 
Q 300 1969 300 2372 
Q 300 2847 642 3140 
Q 984 3434 1563 3434 
Q 2319 3434 2653 2991 
Q 2863 2709 2856 2384 
L 2325 2384 
Q 2309 2575 2191 2731 
Q 1997 2953 1519 2953 
Q 1200 2953 1036 2831 
Q 872 2709 872 2509 
Q 872 2291 1088 2159 
Q 1213 2081 1456 2022 
L 1828 1931 
Q 2434 1784 2641 1647 
Q 2969 1431 2969 969 
Q 2969 522 2630 197 
Q 2291 -128 1597 -128 
Q 850 -128 539 211 
Q 228 550 206 1050 
L 747 1050 
z
M 1578 3428 
L 1578 3428 
z
" transform="scale(0.015625)"/>
       <path id="Helvetica-29" d="M 222 -1306 
Q 719 -338 863 106 
Q 1081 778 1081 1681 
Q 1081 2584 828 3334 
Q 672 3797 213 4666 
L 591 4666 
Q 1072 3897 1173 3717 
Q 1275 3538 1394 3222 
Q 1544 2831 1608 2450 
Q 1672 2069 1672 1716 
Q 1672 791 1378 66 
Q 1194 -400 613 -1306 
L 222 -1306 
z
" transform="scale(0.015625)"/>
      </defs>
      <use xlink:href="#Helvetica-54"/>
      <use xlink:href="#Helvetica-69" x="61.083984"/>
      <use xlink:href="#Helvetica-6d" x="83.300781"/>
      <use xlink:href="#Helvetica-65" x="166.601562"/>
      <use xlink:href="#Helvetica-20" x="222.216797"/>
      <use xlink:href="#Helvetica-28" x="250"/>
      <use xlink:href="#Helvetica-68" x="283.300781"/>
      <use xlink:href="#Helvetica-6f" x="338.916016"/>
      <use xlink:href="#Helvetica-75" x="394.53125"/>
      <use xlink:href="#Helvetica-72" x="450.146484"/>
      <use xlink:href="#Helvetica-73" x="483.447266"/>
      <use xlink:href="#Helvetica-29" x="533.447266"/>
     </g>
    </g>
   </g>
   <g id="matplotlib.axis_2">
    <g id="ytick_1">
     <g id="line2d_8">
      <defs>
       <path id="m2bfbd1e7ab" d="M 0 0 
L -4 0 
" style="stroke: #262626"/>
      </defs>
      <g>
       <use xlink:href="#m2bfbd1e7ab" x="57.6" y="288.872447" style="fill: #262626; stroke: #262626"/>
      </g>
     </g>
     <g id="text_9">
      <!-- 70 -->
      <g style="fill: #262626" transform="translate(34.529375 293.893854)scale(0.14 -0.14)">
       <defs>
        <path id="Helvetica-37" d="M 3347 4400 
L 3347 3909 
Q 3131 3700 2773 3181 
Q 2416 2663 2141 2063 
Q 1869 1478 1728 997 
Q 1638 688 1494 0 
L 872 0 
Q 1084 1281 1809 2550 
Q 2238 3294 2709 3834 
L 234 3834 
L 234 4400 
L 3347 4400 
z
" transform="scale(0.015625)"/>
       </defs>
       <use xlink:href="#Helvetica-37"/>
       <use xlink:href="#Helvetica-30" x="55.615234"/>
      </g>
     </g>
    </g>
    <g id="ytick_2">
     <g id="line2d_9">
      <g>
       <use xlink:href="#m2bfbd1e7ab" x="57.6" y="249.65504" style="fill: #262626; stroke: #262626"/>
      </g>
     </g>
     <g id="text_10">
      <!-- 75 -->
      <g style="fill: #262626" transform="translate(34.529375 254.676446)scale(0.14 -0.14)">
       <use xlink:href="#Helvetica-37"/>
       <use xlink:href="#Helvetica-35" x="55.615234"/>
      </g>
     </g>
    </g>
    <g id="ytick_3">
     <g id="line2d_10">
      <g>
       <use xlink:href="#m2bfbd1e7ab" x="57.6" y="210.437632" style="fill: #262626; stroke: #262626"/>
      </g>
     </g>
     <g id="text_11">
      <!-- 80 -->
      <g style="fill: #262626" transform="translate(34.529375 215.459038)scale(0.14 -0.14)">
       <defs>
        <path id="Helvetica-38" d="M 1741 2600 
Q 2113 2600 2322 2808 
Q 2531 3016 2531 3303 
Q 2531 3553 2331 3762 
Q 2131 3972 1722 3972 
Q 1316 3972 1134 3762 
Q 953 3553 953 3272 
Q 953 2956 1187 2778 
Q 1422 2600 1741 2600 
z
M 1775 384 
Q 2166 384 2423 595 
Q 2681 806 2681 1225 
Q 2681 1659 2415 1884 
Q 2150 2109 1734 2109 
Q 1331 2109 1076 1879 
Q 822 1650 822 1244 
Q 822 894 1055 639 
Q 1288 384 1775 384 
z
M 975 2384 
Q 741 2484 609 2619 
Q 363 2869 363 3269 
Q 363 3769 725 4128 
Q 1088 4488 1753 4488 
Q 2397 4488 2762 4148 
Q 3128 3809 3128 3356 
Q 3128 2938 2916 2678 
Q 2797 2531 2547 2391 
Q 2825 2263 2984 2097 
Q 3281 1784 3281 1284 
Q 3281 694 2884 283 
Q 2488 -128 1763 -128 
Q 1109 -128 657 226 
Q 206 581 206 1256 
Q 206 1653 400 1942 
Q 594 2231 975 2384 
z
" transform="scale(0.015625)"/>
       </defs>
       <use xlink:href="#Helvetica-38"/>
       <use xlink:href="#Helvetica-30" x="55.615234"/>
      </g>
     </g>
    </g>
    <g id="ytick_4">
     <g id="line2d_11">
      <g>
       <use xlink:href="#m2bfbd1e7ab" x="57.6" y="171.220224" style="fill: #262626; stroke: #262626"/>
      </g>
     </g>
     <g id="text_12">
      <!-- 85 -->
      <g style="fill: #262626" transform="translate(34.529375 176.24163)scale(0.14 -0.14)">
       <use xlink:href="#Helvetica-38"/>
       <use xlink:href="#Helvetica-35" x="55.615234"/>
      </g>
     </g>
    </g>
    <g id="ytick_5">
     <g id="line2d_12">
      <g>
       <use xlink:href="#m2bfbd1e7ab" x="57.6" y="132.002816" style="fill: #262626; stroke: #262626"/>
      </g>
     </g>
     <g id="text_13">
      <!-- 90 -->
      <g style="fill: #262626" transform="translate(34.529375 137.024222)scale(0.14 -0.14)">
       <defs>
        <path id="Helvetica-39" d="M 850 1081 
Q 875 616 1209 438 
Q 1381 344 1597 344 
Q 2000 344 2284 680 
Q 2569 1016 2688 2044 
Q 2500 1747 2223 1626 
Q 1947 1506 1628 1506 
Q 981 1506 604 1909 
Q 228 2313 228 2947 
Q 228 3556 600 4018 
Q 972 4481 1697 4481 
Q 2675 4481 3047 3600 
Q 3253 3116 3253 2388 
Q 3253 1566 3006 931 
Q 2597 -125 1619 -125 
Q 963 -125 622 219 
Q 281 563 281 1081 
L 850 1081 
z
M 1703 2000 
Q 2038 2000 2314 2220 
Q 2591 2441 2591 2991 
Q 2591 3484 2342 3726 
Q 2094 3969 1709 3969 
Q 1297 3969 1055 3692 
Q 813 3416 813 2953 
Q 813 2516 1025 2258 
Q 1238 2000 1703 2000 
z
" transform="scale(0.015625)"/>
       </defs>
       <use xlink:href="#Helvetica-39"/>
       <use xlink:href="#Helvetica-30" x="55.615234"/>
      </g>
     </g>
    </g>
    <g id="ytick_6">
     <g id="line2d_13">
      <g>
       <use xlink:href="#m2bfbd1e7ab" x="57.6" y="92.785408" style="fill: #262626; stroke: #262626"/>
      </g>
     </g>
     <g id="text_14">
      <!-- 95 -->
      <g style="fill: #262626" transform="translate(34.529375 97.806814)scale(0.14 -0.14)">
       <use xlink:href="#Helvetica-39"/>
       <use xlink:href="#Helvetica-35" x="55.615234"/>
      </g>
     </g>
    </g>
    <g id="ytick_7">
     <g id="line2d_14">
      <g>
       <use xlink:href="#m2bfbd1e7ab" x="57.6" y="53.568" style="fill: #262626; stroke: #262626"/>
      </g>
     </g>
     <g id="text_15">
      <!-- 100 -->
      <g style="fill: #262626" transform="translate(26.744062 58.589406)scale(0.14 -0.14)">
       <use xlink:href="#Helvetica-31"/>
       <use xlink:href="#Helvetica-30" x="55.615234"/>
       <use xlink:href="#Helvetica-30" x="111.230469"/>
      </g>
     </g>
    </g>
    <g id="ytick_8">
     <g id="line2d_15">
      <defs>
       <path id="mfc5951a2f0" d="M 0 0 
L -2 0 
" style="stroke: #262626"/>
      </defs>
      <g>
       <use xlink:href="#mfc5951a2f0" x="57.6" y="304.559411" style="fill: #262626; stroke: #262626"/>
      </g>
     </g>
    </g>
    <g id="ytick_9">
     <g id="line2d_16">
      <g>
       <use xlink:href="#mfc5951a2f0" x="57.6" y="296.715929" style="fill: #262626; stroke: #262626"/>
      </g>
     </g>
    </g>
    <g id="ytick_10">
     <g id="line2d_17">
      <g>
       <use xlink:href="#mfc5951a2f0" x="57.6" y="281.028966" style="fill: #262626; stroke: #262626"/>
      </g>
     </g>
    </g>
    <g id="ytick_11">
     <g id="line2d_18">
      <g>
       <use xlink:href="#mfc5951a2f0" x="57.6" y="273.185484" style="fill: #262626; stroke: #262626"/>
      </g>
     </g>
    </g>
    <g id="ytick_12">
     <g id="line2d_19">
      <g>
       <use xlink:href="#mfc5951a2f0" x="57.6" y="265.342003" style="fill: #262626; stroke: #262626"/>
      </g>
     </g>
    </g>
    <g id="ytick_13">
     <g id="line2d_20">
      <g>
       <use xlink:href="#mfc5951a2f0" x="57.6" y="257.498521" style="fill: #262626; stroke: #262626"/>
      </g>
     </g>
    </g>
    <g id="ytick_14">
     <g id="line2d_21">
      <g>
       <use xlink:href="#mfc5951a2f0" x="57.6" y="241.811558" style="fill: #262626; stroke: #262626"/>
      </g>
     </g>
    </g>
    <g id="ytick_15">
     <g id="line2d_22">
      <g>
       <use xlink:href="#mfc5951a2f0" x="57.6" y="233.968076" style="fill: #262626; stroke: #262626"/>
      </g>
     </g>
    </g>
    <g id="ytick_16">
     <g id="line2d_23">
      <g>
       <use xlink:href="#mfc5951a2f0" x="57.6" y="226.124595" style="fill: #262626; stroke: #262626"/>
      </g>
     </g>
    </g>
    <g id="ytick_17">
     <g id="line2d_24">
      <g>
       <use xlink:href="#mfc5951a2f0" x="57.6" y="218.281113" style="fill: #262626; stroke: #262626"/>
      </g>
     </g>
    </g>
    <g id="ytick_18">
     <g id="line2d_25">
      <g>
       <use xlink:href="#mfc5951a2f0" x="57.6" y="202.59415" style="fill: #262626; stroke: #262626"/>
      </g>
     </g>
    </g>
    <g id="ytick_19">
     <g id="line2d_26">
      <g>
       <use xlink:href="#mfc5951a2f0" x="57.6" y="194.750668" style="fill: #262626; stroke: #262626"/>
      </g>
     </g>
    </g>
    <g id="ytick_20">
     <g id="line2d_27">
      <g>
       <use xlink:href="#mfc5951a2f0" x="57.6" y="186.907187" style="fill: #262626; stroke: #262626"/>
      </g>
     </g>
    </g>
    <g id="ytick_21">
     <g id="line2d_28">
      <g>
       <use xlink:href="#mfc5951a2f0" x="57.6" y="179.063705" style="fill: #262626; stroke: #262626"/>
      </g>
     </g>
    </g>
    <g id="ytick_22">
     <g id="line2d_29">
      <g>
       <use xlink:href="#mfc5951a2f0" x="57.6" y="163.376742" style="fill: #262626; stroke: #262626"/>
      </g>
     </g>
    </g>
    <g id="ytick_23">
     <g id="line2d_30">
      <g>
       <use xlink:href="#mfc5951a2f0" x="57.6" y="155.533261" style="fill: #262626; stroke: #262626"/>
      </g>
     </g>
    </g>
    <g id="ytick_24">
     <g id="line2d_31">
      <g>
       <use xlink:href="#mfc5951a2f0" x="57.6" y="147.689779" style="fill: #262626; stroke: #262626"/>
      </g>
     </g>
    </g>
    <g id="ytick_25">
     <g id="line2d_32">
      <g>
       <use xlink:href="#mfc5951a2f0" x="57.6" y="139.846297" style="fill: #262626; stroke: #262626"/>
      </g>
     </g>
    </g>
    <g id="ytick_26">
     <g id="line2d_33">
      <g>
       <use xlink:href="#mfc5951a2f0" x="57.6" y="124.159334" style="fill: #262626; stroke: #262626"/>
      </g>
     </g>
    </g>
    <g id="ytick_27">
     <g id="line2d_34">
      <g>
       <use xlink:href="#mfc5951a2f0" x="57.6" y="116.315853" style="fill: #262626; stroke: #262626"/>
      </g>
     </g>
    </g>
    <g id="ytick_28">
     <g id="line2d_35">
      <g>
       <use xlink:href="#mfc5951a2f0" x="57.6" y="108.472371" style="fill: #262626; stroke: #262626"/>
      </g>
     </g>
    </g>
    <g id="ytick_29">
     <g id="line2d_36">
      <g>
       <use xlink:href="#mfc5951a2f0" x="57.6" y="100.628889" style="fill: #262626; stroke: #262626"/>
      </g>
     </g>
    </g>
    <g id="ytick_30">
     <g id="line2d_37">
      <g>
       <use xlink:href="#mfc5951a2f0" x="57.6" y="84.941926" style="fill: #262626; stroke: #262626"/>
      </g>
     </g>
    </g>
    <g id="ytick_31">
     <g id="line2d_38">
      <g>
       <use xlink:href="#mfc5951a2f0" x="57.6" y="77.098445" style="fill: #262626; stroke: #262626"/>
      </g>
     </g>
    </g>
    <g id="ytick_32">
     <g id="line2d_39">
      <g>
       <use xlink:href="#mfc5951a2f0" x="57.6" y="69.254963" style="fill: #262626; stroke: #262626"/>
      </g>
     </g>
    </g>
    <g id="ytick_33">
     <g id="line2d_40">
      <g>
       <use xlink:href="#mfc5951a2f0" x="57.6" y="61.411482" style="fill: #262626; stroke: #262626"/>
      </g>
     </g>
    </g>
    <g id="ytick_34">
     <g id="line2d_41">
      <g>
       <use xlink:href="#mfc5951a2f0" x="57.6" y="45.724518" style="fill: #262626; stroke: #262626"/>
      </g>
     </g>
    </g>
    <g id="text_16">
     <!-- Concentration (nM) -->
     <g style="fill: #262626" transform="translate(18.992187 251.553937)rotate(-90)scale(0.18 -0.18)">
      <defs>
       <path id="Helvetica-43" d="M 2422 4716 
Q 3294 4716 3775 4256 
Q 4256 3797 4309 3213 
L 3703 3213 
Q 3600 3656 3292 3915 
Q 2984 4175 2428 4175 
Q 1750 4175 1333 3698 
Q 916 3222 916 2238 
Q 916 1431 1292 929 
Q 1669 428 2416 428 
Q 3103 428 3463 956 
Q 3653 1234 3747 1688 
L 4353 1688 
Q 4272 963 3816 472 
Q 3269 -119 2341 -119 
Q 1541 -119 997 366 
Q 281 1006 281 2344 
Q 281 3359 819 4009 
Q 1400 4716 2422 4716 
z
M 2297 4716 
L 2297 4716 
z
" transform="scale(0.015625)"/>
       <path id="Helvetica-6e" d="M 413 3347 
L 947 3347 
L 947 2872 
Q 1184 3166 1450 3294 
Q 1716 3422 2041 3422 
Q 2753 3422 3003 2925 
Q 3141 2653 3141 2147 
L 3141 0 
L 2569 0 
L 2569 2109 
Q 2569 2416 2478 2603 
Q 2328 2916 1934 2916 
Q 1734 2916 1606 2875 
Q 1375 2806 1200 2600 
Q 1059 2434 1017 2257 
Q 975 2081 975 1753 
L 975 0 
L 413 0 
L 413 3347 
z
M 1734 3428 
L 1734 3428 
z
" transform="scale(0.015625)"/>
       <path id="Helvetica-63" d="M 1703 3444 
Q 2269 3444 2623 3169 
Q 2978 2894 3050 2222 
L 2503 2222 
Q 2453 2531 2275 2736 
Q 2097 2941 1703 2941 
Q 1166 2941 934 2416 
Q 784 2075 784 1575 
Q 784 1072 996 728 
Q 1209 384 1666 384 
Q 2016 384 2220 598 
Q 2425 813 2503 1184 
L 3050 1184 
Q 2956 519 2581 211 
Q 2206 -97 1622 -97 
Q 966 -97 575 383 
Q 184 863 184 1581 
Q 184 2463 612 2953 
Q 1041 3444 1703 3444 
z
M 1616 3428 
L 1616 3428 
z
" transform="scale(0.015625)"/>
       <path id="Helvetica-74" d="M 525 4281 
L 1094 4281 
L 1094 3347 
L 1628 3347 
L 1628 2888 
L 1094 2888 
L 1094 703 
Q 1094 528 1213 469 
Q 1278 434 1431 434 
Q 1472 434 1519 436 
Q 1566 438 1628 444 
L 1628 0 
Q 1531 -28 1426 -40 
Q 1322 -53 1200 -53 
Q 806 -53 665 148 
Q 525 350 525 672 
L 525 2888 
L 72 2888 
L 72 3347 
L 525 3347 
L 525 4281 
z
" transform="scale(0.015625)"/>
       <path id="Helvetica-61" d="M 844 891 
Q 844 647 1022 506 
Q 1200 366 1444 366 
Q 1741 366 2019 503 
Q 2488 731 2488 1250 
L 2488 1703 
Q 2384 1638 2221 1594 
Q 2059 1550 1903 1531 
L 1563 1488 
Q 1256 1447 1103 1359 
Q 844 1213 844 891 
z
M 2206 2028 
Q 2400 2053 2466 2191 
Q 2503 2266 2503 2406 
Q 2503 2694 2298 2823 
Q 2094 2953 1713 2953 
Q 1272 2953 1088 2716 
Q 984 2584 953 2325 
L 428 2325 
Q 444 2944 830 3186 
Q 1216 3428 1725 3428 
Q 2316 3428 2684 3203 
Q 3050 2978 3050 2503 
L 3050 575 
Q 3050 488 3086 434 
Q 3122 381 3238 381 
Q 3275 381 3322 386 
Q 3369 391 3422 400 
L 3422 -16 
Q 3291 -53 3222 -62 
Q 3153 -72 3034 -72 
Q 2744 -72 2613 134 
Q 2544 244 2516 444 
Q 2344 219 2022 53 
Q 1700 -113 1313 -113 
Q 847 -113 551 170 
Q 256 453 256 878 
Q 256 1344 547 1600 
Q 838 1856 1309 1916 
L 2206 2028 
z
M 1741 3428 
L 1741 3428 
z
" transform="scale(0.015625)"/>
       <path id="Helvetica-4d" d="M 472 4591 
L 1363 4591 
L 2681 709 
L 3991 4591 
L 4872 4591 
L 4872 0 
L 4281 0 
L 4281 2709 
Q 4281 2850 4287 3175 
Q 4294 3500 4294 3872 
L 2984 0 
L 2369 0 
L 1050 3872 
L 1050 3731 
Q 1050 3563 1058 3217 
Q 1066 2872 1066 2709 
L 1066 0 
L 472 0 
L 472 4591 
z
" transform="scale(0.015625)"/>
      </defs>
      <use xlink:href="#Helvetica-43"/>
      <use xlink:href="#Helvetica-6f" x="72.216797"/>
      <use xlink:href="#Helvetica-6e" x="127.832031"/>
      <use xlink:href="#Helvetica-63" x="183.447266"/>
      <use xlink:href="#Helvetica-65" x="233.447266"/>
      <use xlink:href="#Helvetica-6e" x="289.0625"/>
      <use xlink:href="#Helvetica-74" x="344.677734"/>
      <use xlink:href="#Helvetica-72" x="372.460938"/>
      <use xlink:href="#Helvetica-61" x="405.761719"/>
      <use xlink:href="#Helvetica-74" x="461.376953"/>
      <use xlink:href="#Helvetica-69" x="489.160156"/>
      <use xlink:href="#Helvetica-6f" x="511.376953"/>
      <use xlink:href="#Helvetica-6e" x="566.992188"/>
      <use xlink:href="#Helvetica-20" x="622.607422"/>
      <use xlink:href="#Helvetica-28" x="650.390625"/>
      <use xlink:href="#Helvetica-6e" x="683.691406"/>
      <use xlink:href="#Helvetica-4d" x="739.306641"/>
      <use xlink:href="#Helvetica-29" x="822.607422"/>
     </g>
    </g>
   </g>
   <g id="line2d_42">
    <path d="M 73.832727 53.568 
L 92.049816 53.691513 
L 398.487273 54.425999 
L 398.487273 54.425999 
" clip-path="url(#pd9a4af07b8)" style="fill: none; stroke: #4477aa; stroke-linecap: round"/>
    <defs>
     <path id="mbbfcfd0d86" d="M 0 2 
C 0.530406 2 1.03916 1.789267 1.414214 1.414214 
C 1.789267 1.03916 2 0.530406 2 0 
C 2 -0.530406 1.789267 -1.03916 1.414214 -1.414214 
C 1.03916 -1.789267 0.530406 -2 0 -2 
C -0.530406 -2 -1.03916 -1.789267 -1.414214 -1.414214 
C -1.789267 -1.03916 -2 -0.530406 -2 0 
C -2 0.530406 -1.789267 1.03916 -1.414214 1.414214 
C -1.03916 1.789267 -0.530406 2 0 2 
z
" style="stroke: #4477aa"/>
    </defs>
    <g clip-path="url(#pd9a4af07b8)">
     <use xlink:href="#mbbfcfd0d86" x="73.832727" y="53.568" style="fill: #4477aa; stroke: #4477aa"/>
     <use xlink:href="#mbbfcfd0d86" x="99.206529" y="53.706965" style="fill: #4477aa; stroke: #4477aa"/>
     <use xlink:href="#mbbfcfd0d86" x="124.580332" y="53.757362" style="fill: #4477aa; stroke: #4477aa"/>
     <use xlink:href="#mbbfcfd0d86" x="149.954134" y="53.805928" style="fill: #4477aa; stroke: #4477aa"/>
     <use xlink:href="#mbbfcfd0d86" x="175.327936" y="53.854407" style="fill: #4477aa; stroke: #4477aa"/>
     <use xlink:href="#mbbfcfd0d86" x="200.701738" y="53.903955" style="fill: #4477aa; stroke: #4477aa"/>
     <use xlink:href="#mbbfcfd0d86" x="226.07554" y="53.955473" style="fill: #4477aa; stroke: #4477aa"/>
     <use xlink:href="#mbbfcfd0d86" x="251.449342" y="54.009738" style="fill: #4477aa; stroke: #4477aa"/>
     <use xlink:href="#mbbfcfd0d86" x="276.823144" y="54.067511" style="fill: #4477aa; stroke: #4477aa"/>
     <use xlink:href="#mbbfcfd0d86" x="302.196947" y="54.129621" style="fill: #4477aa; stroke: #4477aa"/>
     <use xlink:href="#mbbfcfd0d86" x="327.570749" y="54.197051" style="fill: #4477aa; stroke: #4477aa"/>
     <use xlink:href="#mbbfcfd0d86" x="352.944551" y="54.271049" style="fill: #4477aa; stroke: #4477aa"/>
     <use xlink:href="#mbbfcfd0d86" x="378.318353" y="54.353271" style="fill: #4477aa; stroke: #4477aa"/>
    </g>
   </g>
   <g id="line2d_43">
    <path d="M 73.832727 132.002816 
L 88.146154 133.18683 
L 105.062022 134.456003 
L 125.881552 135.778551 
L 153.207185 137.278458 
L 196.147466 139.385774 
L 299.594505 144.404443 
L 342.534786 146.740696 
L 377.667743 148.868575 
L 398.487273 150.25913 
L 398.487273 150.25913 
" clip-path="url(#pd9a4af07b8)" style="fill: none; stroke: #ee6677; stroke-linecap: round"/>
    <defs>
     <path id="mf50e0f4fc8" d="M 0 -2 
L -2 2 
L 2 2 
z
" style="stroke: #ee6677; stroke-linejoin: miter"/>
    </defs>
    <g clip-path="url(#pd9a4af07b8)">
     <use xlink:href="#mf50e0f4fc8" x="73.832727" y="132.002816" style="fill: #ee6677; stroke: #ee6677; stroke-linejoin: miter"/>
     <use xlink:href="#mf50e0f4fc8" x="107.664463" y="134.633491" style="fill: #ee6677; stroke: #ee6677; stroke-linejoin: miter"/>
     <use xlink:href="#mf50e0f4fc8" x="141.4962" y="136.65922" style="fill: #ee6677; stroke: #ee6677; stroke-linejoin: miter"/>
     <use xlink:href="#mf50e0f4fc8" x="175.327936" y="138.385982" style="fill: #ee6677; stroke: #ee6677; stroke-linejoin: miter"/>
     <use xlink:href="#mf50e0f4fc8" x="209.159672" y="140.001252" style="fill: #ee6677; stroke: #ee6677; stroke-linejoin: miter"/>
     <use xlink:href="#mf50e0f4fc8" x="242.991408" y="141.602502" style="fill: #ee6677; stroke: #ee6677; stroke-linejoin: miter"/>
     <use xlink:href="#mf50e0f4fc8" x="276.823144" y="143.248695" style="fill: #ee6677; stroke: #ee6677; stroke-linejoin: miter"/>
     <use xlink:href="#mf50e0f4fc8" x="310.654881" y="144.984241" style="fill: #ee6677; stroke: #ee6677; stroke-linejoin: miter"/>
     <use xlink:href="#mf50e0f4fc8" x="344.486617" y="146.853014" style="fill: #ee6677; stroke: #ee6677; stroke-linejoin: miter"/>
     <use xlink:href="#mf50e0f4fc8" x="378.318353" y="148.910371" style="fill: #ee6677; stroke: #ee6677; stroke-linejoin: miter"/>
    </g>
   </g>
   <g id="line2d_44">
    <path d="M 73.832727 210.437632 
L 75.784558 210.681969 
L 79.03761 211.343597 
L 95.302868 215.02303 
L 103.760802 216.600412 
L 113.519956 218.192106 
L 125.230942 219.865146 
L 138.893758 221.584106 
L 155.809627 223.474397 
L 176.629157 225.566544 
L 204.6054 228.139201 
L 248.196291 231.896671 
L 344.486617 240.157282 
L 384.173846 243.810049 
L 398.487273 245.195387 
L 398.487273 245.195387 
" clip-path="url(#pd9a4af07b8)" style="fill: none; stroke: #228833; stroke-linecap: round"/>
    <defs>
     <path id="mf66b819a37" d="M -2 2 
L 2 2 
L 2 -2 
L -2 -2 
z
" style="stroke: #228833; stroke-linejoin: miter"/>
    </defs>
    <g clip-path="url(#pd9a4af07b8)">
     <use xlink:href="#mf66b819a37" x="73.832727" y="210.437632" style="fill: #228833; stroke: #228833; stroke-linejoin: miter"/>
     <use xlink:href="#mf66b819a37" x="105.712633" y="216.936173" style="fill: #228833; stroke: #228833; stroke-linejoin: miter"/>
     <use xlink:href="#mf66b819a37" x="137.592538" y="221.428993" style="fill: #228833; stroke: #228833; stroke-linejoin: miter"/>
     <use xlink:href="#mf66b819a37" x="169.472443" y="224.869696" style="fill: #228833; stroke: #228833; stroke-linejoin: miter"/>
     <use xlink:href="#mf66b819a37" x="201.352348" y="227.849463" style="fill: #228833; stroke: #228833; stroke-linejoin: miter"/>
     <use xlink:href="#mf66b819a37" x="233.232254" y="230.625056" style="fill: #228833; stroke: #228833; stroke-linejoin: miter"/>
     <use xlink:href="#mf66b819a37" x="265.112159" y="233.325635" style="fill: #228833; stroke: #228833; stroke-linejoin: miter"/>
     <use xlink:href="#mf66b819a37" x="296.992064" y="236.025746" style="fill: #228833; stroke: #228833; stroke-linejoin: miter"/>
     <use xlink:href="#mf66b819a37" x="328.871969" y="238.777154" style="fill: #228833; stroke: #228833; stroke-linejoin: miter"/>
     <use xlink:href="#mf66b819a37" x="360.751875" y="241.625715" style="fill: #228833; stroke: #228833; stroke-linejoin: miter"/>
     <use xlink:href="#mf66b819a37" x="392.63178" y="244.62341" style="fill: #228833; stroke: #228833; stroke-linejoin: miter"/>
    </g>
   </g>
   <g id="line2d_45">
    <path d="M 73.832727 249.65504 
L 75.133948 249.835694 
L 77.085779 250.362501 
L 79.68822 251.381831 
L 84.242492 253.546513 
L 89.447375 255.974522 
L 94.001647 257.854758 
L 98.555919 259.509504 
L 103.760802 261.173911 
L 109.616294 262.819149 
L 116.773008 264.579706 
L 124.580332 266.262596 
L 133.688876 267.991734 
L 144.098641 269.738864 
L 156.460237 271.582376 
L 171.424274 273.575014 
L 188.990752 275.683482 
L 211.111503 278.103912 
L 239.087746 280.930821 
L 277.473755 284.569276 
L 338.631124 290.111809 
L 398.487273 295.488 
L 398.487273 295.488 
" clip-path="url(#pd9a4af07b8)" style="fill: none; stroke: #ccbb44; stroke-linecap: round"/>
    <defs>
     <path id="m7195b0658a" d="M -0.666667 2 
L 0.666667 2 
L 0.666667 0.666667 
L 2 0.666667 
L 2 -0.666667 
L 0.666667 -0.666667 
L 0.666667 -2 
L -0.666667 -2 
L -0.666667 -0.666667 
L -2 -0.666667 
L -2 0.666667 
L -0.666667 0.666667 
z
" style="stroke: #ccbb44; stroke-linejoin: miter"/>
    </defs>
    <g clip-path="url(#pd9a4af07b8)">
     <use xlink:href="#m7195b0658a" x="73.832727" y="249.65504" style="fill: #ccbb44; stroke: #ccbb44; stroke-linejoin: miter"/>
     <use xlink:href="#m7195b0658a" x="102.459581" y="260.777623" style="fill: #ccbb44; stroke: #ccbb44; stroke-linejoin: miter"/>
     <use xlink:href="#m7195b0658a" x="131.086435" y="267.519463" style="fill: #ccbb44; stroke: #ccbb44; stroke-linejoin: miter"/>
     <use xlink:href="#m7195b0658a" x="159.713288" y="272.034868" style="fill: #ccbb44; stroke: #ccbb44; stroke-linejoin: miter"/>
     <use xlink:href="#m7195b0658a" x="188.340142" y="275.608828" style="fill: #ccbb44; stroke: #ccbb44; stroke-linejoin: miter"/>
     <use xlink:href="#m7195b0658a" x="216.966996" y="278.713235" style="fill: #ccbb44; stroke: #ccbb44; stroke-linejoin: miter"/>
     <use xlink:href="#m7195b0658a" x="245.59385" y="281.562821" style="fill: #ccbb44; stroke: #ccbb44; stroke-linejoin: miter"/>
     <use xlink:href="#m7195b0658a" x="274.220703" y="284.26795" style="fill: #ccbb44; stroke: #ccbb44; stroke-linejoin: miter"/>
     <use xlink:href="#m7195b0658a" x="302.847557" y="286.890851" style="fill: #ccbb44; stroke: #ccbb44; stroke-linejoin: miter"/>
     <use xlink:href="#m7195b0658a" x="331.474411" y="289.470341" style="fill: #ccbb44; stroke: #ccbb44; stroke-linejoin: miter"/>
     <use xlink:href="#m7195b0658a" x="360.101264" y="292.034104" style="fill: #ccbb44; stroke: #ccbb44; stroke-linejoin: miter"/>
     <use xlink:href="#m7195b0658a" x="388.728118" y="294.605514" style="fill: #ccbb44; stroke: #ccbb44; stroke-linejoin: miter"/>
    </g>
   </g>
   <g id="patch_3">
    <path d="M 57.6 307.584 
L 57.6 41.472 
" style="fill: none; stroke: #262626; stroke-width: 0.5; stroke-linejoin: miter; stroke-linecap: square"/>
   </g>
   <g id="patch_4">
    <path d="M 57.6 307.584 
L 414.72 307.584 
" style="fill: none; stroke: #262626; stroke-width: 0.5; stroke-linejoin: miter; stroke-linecap: square"/>
   </g>
   <g id="legend_1">
    <g id="line2d_46">
     <path d="M 306.084375 134.312062 
L 324.084375 134.312062 
L 342.084375 134.312062 
" style="fill: none; stroke: #4477aa; stroke-linecap: round"/>
     <g>
      <use xlink:href="#mbbfcfd0d86" x="324.084375" y="134.312062" style="fill: #4477aa; stroke: #4477aa"/>
     </g>
    </g>
    <g id="text_17">
     <!-- 1X -->
     <g style="fill: #262626" transform="translate(356.484375 140.612062)scale(0.18 -0.18)">
      <defs>
       <path id="Helvetica-58" d="M 881 0 
L 131 0 
L 1775 2353 
L 234 4591 
L 1013 4591 
L 2184 2834 
L 3347 4591 
L 4088 4591 
L 2547 2353 
L 4163 0 
L 3391 0 
L 2153 1888 
L 881 0 
z
" transform="scale(0.015625)"/>
      </defs>
      <use xlink:href="#Helvetica-31"/>
      <use xlink:href="#Helvetica-58" x="55.615234"/>
     </g>
    </g>
    <g id="line2d_47">
     <path d="M 306.084375 159.976125 
L 324.084375 159.976125 
L 342.084375 159.976125 
" style="fill: none; stroke: #ee6677; stroke-linecap: round"/>
     <g>
      <use xlink:href="#mf50e0f4fc8" x="324.084375" y="159.976125" style="fill: #ee6677; stroke: #ee6677; stroke-linejoin: miter"/>
     </g>
    </g>
    <g id="text_18">
     <!-- 30X -->
     <g style="fill: #262626" transform="translate(356.484375 166.276125)scale(0.18 -0.18)">
      <use xlink:href="#Helvetica-33"/>
      <use xlink:href="#Helvetica-30" x="55.615234"/>
      <use xlink:href="#Helvetica-58" x="111.230469"/>
     </g>
    </g>
    <g id="line2d_48">
     <path d="M 306.084375 185.640187 
L 324.084375 185.640187 
L 342.084375 185.640187 
" style="fill: none; stroke: #228833; stroke-linecap: round"/>
     <g>
      <use xlink:href="#mf66b819a37" x="324.084375" y="185.640187" style="fill: #228833; stroke: #228833; stroke-linejoin: miter"/>
     </g>
    </g>
    <g id="text_19">
     <!-- 70X -->
     <g style="fill: #262626" transform="translate(356.484375 191.940187)scale(0.18 -0.18)">
      <use xlink:href="#Helvetica-37"/>
      <use xlink:href="#Helvetica-30" x="55.615234"/>
      <use xlink:href="#Helvetica-58" x="111.230469"/>
     </g>
    </g>
    <g id="line2d_49">
     <path d="M 306.084375 211.30425 
L 324.084375 211.30425 
L 342.084375 211.30425 
" style="fill: none; stroke: #ccbb44; stroke-linecap: round"/>
     <g>
      <use xlink:href="#m7195b0658a" x="324.084375" y="211.30425" style="fill: #ccbb44; stroke: #ccbb44; stroke-linejoin: miter"/>
     </g>
    </g>
    <g id="text_20">
     <!-- 100X -->
     <g style="fill: #262626" transform="translate(356.484375 217.60425)scale(0.18 -0.18)">
      <use xlink:href="#Helvetica-31"/>
      <use xlink:href="#Helvetica-30" x="55.615234"/>
      <use xlink:href="#Helvetica-30" x="111.230469"/>
      <use xlink:href="#Helvetica-58" x="166.845703"/>
     </g>
    </g>
   </g>
  </g>
 </g>
 <defs>
  <clipPath id="pd9a4af07b8">
   <rect x="57.6" y="41.472" width="357.12" height="266.112"/>
  </clipPath>
 </defs>
</svg>
