<?xml version="1.0" encoding="utf-8" standalone="no"?>
<!DOCTYPE svg PUBLIC "-//W3C//DTD SVG 1.1//EN"
  "http://www.w3.org/Graphics/SVG/1.1/DTD/svg11.dtd">
<svg xmlns:xlink="http://www.w3.org/1999/xlink" width="460.8pt" height="345.6pt" viewBox="0 0 460.8 345.6" xmlns="http://www.w3.org/2000/svg" version="1.1">
 <metadata>
  <rdf:RDF xmlns:dc="http://purl.org/dc/elements/1.1/" xmlns:cc="http://creativecommons.org/ns#" xmlns:rdf="http://www.w3.org/1999/02/22-rdf-syntax-ns#">
   <cc:Work>
    <dc:type rdf:resource="http://purl.org/dc/dcmitype/StillImage"/>
    <dc:date>2024-04-08T14:25:47.178091</dc:date>
    <dc:format>image/svg+xml</dc:format>
    <dc:creator>
     <cc:Agent>
      <dc:title>Matplotlib v3.5.1, https://matplotlib.org/</dc:title>
     </cc:Agent>
    </dc:creator>
   </cc:Work>
  </rdf:RDF>
 </metadata>
 <defs>
  <style type="text/css">*{stroke-linejoin: round; stroke-linecap: butt}</style>
 </defs>
 <g id="figure_1">
  <g id="patch_1">
   <path d="M 0 345.6 
L 460.8 345.6 
L 460.8 0 
L 0 0 
z
" style="fill: #ffffff"/>
  </g>
  <g id="axes_1">
   <g id="patch_2">
    <path d="M 57.6 307.584 
L 414.72 307.584 
L 414.72 41.472 
L 57.6 41.472 
z
" style="fill: #ffffff"/>
   </g>
   <g id="matplotlib.axis_1">
    <g id="xtick_1">
     <g id="line2d_1">
      <defs>
       <path id="mcc9366e8f5" d="M 0 0 
L 0 4 
" style="stroke: #262626"/>
      </defs>
      <g>
       <use xlink:href="#mcc9366e8f5" x="73.832727" y="307.584" style="fill: #262626; stroke: #262626"/>
      </g>
     </g>
     <g id="text_1">
      <!-- 0 -->
      <g style="fill: #262626" transform="translate(69.940071 325.126812)scale(0.14 -0.14)">
       <defs>
        <path id="Helvetica-30" d="M 1731 4475 
Q 2600 4475 2988 3759 
Q 3288 3206 3288 2244 
Q 3288 1331 3016 734 
Q 2622 -122 1728 -122 
Q 922 -122 528 578 
Q 200 1163 200 2147 
Q 200 2909 397 3456 
Q 766 4475 1731 4475 
z
M 1725 391 
Q 2163 391 2422 778 
Q 2681 1166 2681 2222 
Q 2681 2984 2493 3476 
Q 2306 3969 1766 3969 
Q 1269 3969 1039 3501 
Q 809 3034 809 2125 
Q 809 1441 956 1025 
Q 1181 391 1725 391 
z
" transform="scale(0.015625)"/>
       </defs>
       <use xlink:href="#Helvetica-30"/>
      </g>
     </g>
    </g>
    <g id="xtick_2">
     <g id="line2d_2">
      <g>
       <use xlink:href="#mcc9366e8f5" x="127.941818" y="307.584" style="fill: #262626; stroke: #262626"/>
      </g>
     </g>
     <g id="text_2">
      <!-- 5 -->
      <g style="fill: #262626" transform="translate(124.049162 325.126812)scale(0.14 -0.14)">
       <defs>
        <path id="Helvetica-35" d="M 791 1141 
Q 847 659 1238 475 
Q 1438 381 1700 381 
Q 2200 381 2440 700 
Q 2681 1019 2681 1406 
Q 2681 1875 2395 2131 
Q 2109 2388 1709 2388 
Q 1419 2388 1211 2275 
Q 1003 2163 856 1963 
L 369 1991 
L 709 4400 
L 3034 4400 
L 3034 3856 
L 1131 3856 
L 941 2613 
Q 1097 2731 1238 2791 
Q 1488 2894 1816 2894 
Q 2431 2894 2859 2497 
Q 3288 2100 3288 1491 
Q 3288 856 2895 371 
Q 2503 -113 1644 -113 
Q 1097 -113 676 195 
Q 256 503 206 1141 
L 791 1141 
z
" transform="scale(0.015625)"/>
       </defs>
       <use xlink:href="#Helvetica-35"/>
      </g>
     </g>
    </g>
    <g id="xtick_3">
     <g id="line2d_3">
      <g>
       <use xlink:href="#mcc9366e8f5" x="182.050909" y="307.584" style="fill: #262626; stroke: #262626"/>
      </g>
     </g>
     <g id="text_3">
      <!-- 10 -->
      <g style="fill: #262626" transform="translate(174.265597 325.126812)scale(0.14 -0.14)">
       <defs>
        <path id="Helvetica-31" d="M 613 3169 
L 613 3600 
Q 1222 3659 1462 3798 
Q 1703 3938 1822 4456 
L 2266 4456 
L 2266 0 
L 1666 0 
L 1666 3169 
L 613 3169 
z
" transform="scale(0.015625)"/>
       </defs>
       <use xlink:href="#Helvetica-31"/>
       <use xlink:href="#Helvetica-30" x="55.615234"/>
      </g>
     </g>
    </g>
    <g id="xtick_4">
     <g id="line2d_4">
      <g>
       <use xlink:href="#mcc9366e8f5" x="236.16" y="307.584" style="fill: #262626; stroke: #262626"/>
      </g>
     </g>
     <g id="text_4">
      <!-- 15 -->
      <g style="fill: #262626" transform="translate(228.374688 325.126812)scale(0.14 -0.14)">
       <use xlink:href="#Helvetica-31"/>
       <use xlink:href="#Helvetica-35" x="55.615234"/>
      </g>
     </g>
    </g>
    <g id="xtick_5">
     <g id="line2d_5">
      <g>
       <use xlink:href="#mcc9366e8f5" x="290.269091" y="307.584" style="fill: #262626; stroke: #262626"/>
      </g>
     </g>
     <g id="text_5">
      <!-- 20 -->
      <g style="fill: #262626" transform="translate(282.483778 325.126812)scale(0.14 -0.14)">
       <defs>
        <path id="Helvetica-32" d="M 200 0 
Q 231 578 439 1006 
Q 647 1434 1250 1784 
L 1850 2131 
Q 2253 2366 2416 2531 
Q 2672 2791 2672 3125 
Q 2672 3516 2437 3745 
Q 2203 3975 1813 3975 
Q 1234 3975 1013 3538 
Q 894 3303 881 2888 
L 309 2888 
Q 319 3472 525 3841 
Q 891 4491 1816 4491 
Q 2584 4491 2939 4075 
Q 3294 3659 3294 3150 
Q 3294 2613 2916 2231 
Q 2697 2009 2131 1694 
L 1703 1456 
Q 1397 1288 1222 1134 
Q 909 863 828 531 
L 3272 531 
L 3272 0 
L 200 0 
z
" transform="scale(0.015625)"/>
       </defs>
       <use xlink:href="#Helvetica-32"/>
       <use xlink:href="#Helvetica-30" x="55.615234"/>
      </g>
     </g>
    </g>
    <g id="xtick_6">
     <g id="line2d_6">
      <g>
       <use xlink:href="#mcc9366e8f5" x="344.378182" y="307.584" style="fill: #262626; stroke: #262626"/>
      </g>
     </g>
     <g id="text_6">
      <!-- 25 -->
      <g style="fill: #262626" transform="translate(336.592869 325.126812)scale(0.14 -0.14)">
       <use xlink:href="#Helvetica-32"/>
       <use xlink:href="#Helvetica-35" x="55.615234"/>
      </g>
     </g>
    </g>
    <g id="xtick_7">
     <g id="line2d_7">
      <g>
       <use xlink:href="#mcc9366e8f5" x="398.487273" y="307.584" style="fill: #262626; stroke: #262626"/>
      </g>
     </g>
     <g id="text_7">
      <!-- 30 -->
      <g style="fill: #262626" transform="translate(390.70196 325.126812)scale(0.14 -0.14)">
       <defs>
        <path id="Helvetica-33" d="M 1663 -122 
Q 869 -122 511 314 
Q 153 750 153 1375 
L 741 1375 
Q 778 941 903 744 
Q 1122 391 1694 391 
Q 2138 391 2406 628 
Q 2675 866 2675 1241 
Q 2675 1703 2392 1887 
Q 2109 2072 1606 2072 
Q 1550 2072 1492 2070 
Q 1434 2069 1375 2066 
L 1375 2563 
Q 1463 2553 1522 2550 
Q 1581 2547 1650 2547 
Q 1966 2547 2169 2647 
Q 2525 2822 2525 3272 
Q 2525 3606 2287 3787 
Q 2050 3969 1734 3969 
Q 1172 3969 956 3594 
Q 838 3388 822 3006 
L 266 3006 
Q 266 3506 466 3856 
Q 809 4481 1675 4481 
Q 2359 4481 2734 4176 
Q 3109 3872 3109 3294 
Q 3109 2881 2888 2625 
Q 2750 2466 2531 2375 
Q 2884 2278 3082 2001 
Q 3281 1725 3281 1325 
Q 3281 684 2859 281 
Q 2438 -122 1663 -122 
z
" transform="scale(0.015625)"/>
       </defs>
       <use xlink:href="#Helvetica-33"/>
       <use xlink:href="#Helvetica-30" x="55.615234"/>
      </g>
     </g>
    </g>
    <g id="text_8">
     <!-- Time (hours) -->
     <g style="fill: #262626" transform="translate(185.156719 345.089312)scale(0.18 -0.18)">
      <defs>
       <path id="Helvetica-54" d="M 3828 4591 
L 3828 4044 
L 2281 4044 
L 2281 0 
L 1650 0 
L 1650 4044 
L 103 4044 
L 103 4591 
L 3828 4591 
z
" transform="scale(0.015625)"/>
       <path id="Helvetica-69" d="M 413 3331 
L 984 3331 
L 984 0 
L 413 0 
L 413 3331 
z
M 413 4591 
L 984 4591 
L 984 3953 
L 413 3953 
L 413 4591 
z
" transform="scale(0.015625)"/>
       <path id="Helvetica-6d" d="M 413 3347 
L 969 3347 
L 969 2872 
Q 1169 3119 1331 3231 
Q 1609 3422 1963 3422 
Q 2363 3422 2606 3225 
Q 2744 3113 2856 2894 
Q 3044 3163 3297 3292 
Q 3550 3422 3866 3422 
Q 4541 3422 4784 2934 
Q 4916 2672 4916 2228 
L 4916 0 
L 4331 0 
L 4331 2325 
Q 4331 2659 4164 2784 
Q 3997 2909 3756 2909 
Q 3425 2909 3186 2687 
Q 2947 2466 2947 1947 
L 2947 0 
L 2375 0 
L 2375 2184 
Q 2375 2525 2294 2681 
Q 2166 2916 1816 2916 
Q 1497 2916 1236 2669 
Q 975 2422 975 1775 
L 975 0 
L 413 0 
L 413 3347 
z
" transform="scale(0.015625)"/>
       <path id="Helvetica-65" d="M 1806 3422 
Q 2163 3422 2497 3255 
Q 2831 3088 3006 2822 
Q 3175 2569 3231 2231 
Q 3281 2000 3281 1494 
L 828 1494 
Q 844 984 1069 676 
Q 1294 369 1766 369 
Q 2206 369 2469 659 
Q 2619 828 2681 1050 
L 3234 1050 
Q 3213 866 3089 639 
Q 2966 413 2813 269 
Q 2556 19 2178 -69 
Q 1975 -119 1719 -119 
Q 1094 -119 659 336 
Q 225 791 225 1609 
Q 225 2416 662 2919 
Q 1100 3422 1806 3422 
z
M 2703 1941 
Q 2669 2306 2544 2525 
Q 2313 2931 1772 2931 
Q 1384 2931 1121 2651 
Q 859 2372 844 1941 
L 2703 1941 
z
M 1753 3428 
L 1753 3428 
z
" transform="scale(0.015625)"/>
       <path id="Helvetica-20" transform="scale(0.015625)"/>
       <path id="Helvetica-28" d="M 1894 4666 
Q 1403 3713 1256 3263 
Q 1034 2578 1034 1681 
Q 1034 775 1288 25 
Q 1444 -438 1903 -1306 
L 1525 -1306 
Q 1069 -594 959 -397 
Q 850 -200 722 138 
Q 547 600 478 1125 
Q 444 1397 444 1644 
Q 444 2569 734 3291 
Q 919 3750 1503 4666 
L 1894 4666 
z
" transform="scale(0.015625)"/>
       <path id="Helvetica-68" d="M 413 4606 
L 975 4606 
L 975 2894 
Q 1175 3147 1334 3250 
Q 1606 3428 2013 3428 
Q 2741 3428 3000 2919 
Q 3141 2641 3141 2147 
L 3141 0 
L 2563 0 
L 2563 2109 
Q 2563 2478 2469 2650 
Q 2316 2925 1894 2925 
Q 1544 2925 1259 2684 
Q 975 2444 975 1775 
L 975 0 
L 413 0 
L 413 4606 
z
" transform="scale(0.015625)"/>
       <path id="Helvetica-6f" d="M 1741 363 
Q 2300 363 2508 786 
Q 2716 1209 2716 1728 
Q 2716 2197 2566 2491 
Q 2328 2953 1747 2953 
Q 1231 2953 997 2559 
Q 763 2166 763 1609 
Q 763 1075 997 719 
Q 1231 363 1741 363 
z
M 1763 3444 
Q 2409 3444 2856 3012 
Q 3303 2581 3303 1744 
Q 3303 934 2909 406 
Q 2516 -122 1688 -122 
Q 997 -122 590 345 
Q 184 813 184 1600 
Q 184 2444 612 2944 
Q 1041 3444 1763 3444 
z
M 1744 3428 
L 1744 3428 
z
" transform="scale(0.015625)"/>
       <path id="Helvetica-75" d="M 975 3347 
L 975 1125 
Q 975 869 1056 706 
Q 1206 406 1616 406 
Q 2203 406 2416 931 
Q 2531 1213 2531 1703 
L 2531 3347 
L 3094 3347 
L 3094 0 
L 2563 0 
L 2569 494 
Q 2459 303 2297 172 
Q 1975 -91 1516 -91 
Q 800 -91 541 388 
Q 400 644 400 1072 
L 400 3347 
L 975 3347 
z
M 1747 3428 
L 1747 3428 
z
" transform="scale(0.015625)"/>
       <path id="Helvetica-72" d="M 428 3347 
L 963 3347 
L 963 2769 
Q 1028 2938 1284 3180 
Q 1541 3422 1875 3422 
Q 1891 3422 1928 3419 
Q 1966 3416 2056 3406 
L 2056 2813 
Q 2006 2822 1964 2825 
Q 1922 2828 1872 2828 
Q 1447 2828 1219 2554 
Q 991 2281 991 1925 
L 991 0 
L 428 0 
L 428 3347 
z
" transform="scale(0.015625)"/>
       <path id="Helvetica-73" d="M 747 1050 
Q 772 769 888 619 
Q 1100 347 1625 347 
Q 1938 347 2175 483 
Q 2413 619 2413 903 
Q 2413 1119 2222 1231 
Q 2100 1300 1741 1391 
L 1294 1503 
Q 866 1609 663 1741 
Q 300 1969 300 2372 
Q 300 2847 642 3140 
Q 984 3434 1563 3434 
Q 2319 3434 2653 2991 
Q 2863 2709 2856 2384 
L 2325 2384 
Q 2309 2575 2191 2731 
Q 1997 2953 1519 2953 
Q 1200 2953 1036 2831 
Q 872 2709 872 2509 
Q 872 2291 1088 2159 
Q 1213 2081 1456 2022 
L 1828 1931 
Q 2434 1784 2641 1647 
Q 2969 1431 2969 969 
Q 2969 522 2630 197 
Q 2291 -128 1597 -128 
Q 850 -128 539 211 
Q 228 550 206 1050 
L 747 1050 
z
M 1578 3428 
L 1578 3428 
z
" transform="scale(0.015625)"/>
       <path id="Helvetica-29" d="M 222 -1306 
Q 719 -338 863 106 
Q 1081 778 1081 1681 
Q 1081 2584 828 3334 
Q 672 3797 213 4666 
L 591 4666 
Q 1072 3897 1173 3717 
Q 1275 3538 1394 3222 
Q 1544 2831 1608 2450 
Q 1672 2069 1672 1716 
Q 1672 791 1378 66 
Q 1194 -400 613 -1306 
L 222 -1306 
z
" transform="scale(0.015625)"/>
      </defs>
      <use xlink:href="#Helvetica-54"/>
      <use xlink:href="#Helvetica-69" x="61.083984"/>
      <use xlink:href="#Helvetica-6d" x="83.300781"/>
      <use xlink:href="#Helvetica-65" x="166.601562"/>
      <use xlink:href="#Helvetica-20" x="222.216797"/>
      <use xlink:href="#Helvetica-28" x="250"/>
      <use xlink:href="#Helvetica-68" x="283.300781"/>
      <use xlink:href="#Helvetica-6f" x="338.916016"/>
      <use xlink:href="#Helvetica-75" x="394.53125"/>
      <use xlink:href="#Helvetica-72" x="450.146484"/>
      <use xlink:href="#Helvetica-73" x="483.447266"/>
      <use xlink:href="#Helvetica-29" x="533.447266"/>
     </g>
    </g>
   </g>
   <g id="matplotlib.axis_2">
    <g id="ytick_1">
     <g id="line2d_8">
      <defs>
       <path id="m661b49c2b2" d="M 0 0 
L -4 0 
" style="stroke: #262626"/>
      </defs>
      <g>
       <use xlink:href="#m661b49c2b2" x="57.6" y="295.488" style="fill: #262626; stroke: #262626"/>
      </g>
     </g>
     <g id="text_9">
      <!-- 0 -->
      <g style="fill: #262626" transform="translate(42.314687 300.509406)scale(0.14 -0.14)">
       <use xlink:href="#Helvetica-30"/>
      </g>
     </g>
    </g>
    <g id="ytick_2">
     <g id="line2d_9">
      <g>
       <use xlink:href="#m661b49c2b2" x="57.6" y="261.006109" style="fill: #262626; stroke: #262626"/>
      </g>
     </g>
     <g id="text_10">
      <!-- 2 -->
      <g style="fill: #262626" transform="translate(42.314687 266.027515)scale(0.14 -0.14)">
       <use xlink:href="#Helvetica-32"/>
      </g>
     </g>
    </g>
    <g id="ytick_3">
     <g id="line2d_10">
      <g>
       <use xlink:href="#m661b49c2b2" x="57.6" y="226.524218" style="fill: #262626; stroke: #262626"/>
      </g>
     </g>
     <g id="text_11">
      <!-- 4 -->
      <g style="fill: #262626" transform="translate(42.314687 231.545624)scale(0.14 -0.14)">
       <defs>
        <path id="Helvetica-34" d="M 2116 1584 
L 2116 3613 
L 681 1584 
L 2116 1584 
z
M 2125 0 
L 2125 1094 
L 163 1094 
L 163 1644 
L 2213 4488 
L 2688 4488 
L 2688 1584 
L 3347 1584 
L 3347 1094 
L 2688 1094 
L 2688 0 
L 2125 0 
z
" transform="scale(0.015625)"/>
       </defs>
       <use xlink:href="#Helvetica-34"/>
      </g>
     </g>
    </g>
    <g id="ytick_4">
     <g id="line2d_11">
      <g>
       <use xlink:href="#m661b49c2b2" x="57.6" y="192.042327" style="fill: #262626; stroke: #262626"/>
      </g>
     </g>
     <g id="text_12">
      <!-- 6 -->
      <g style="fill: #262626" transform="translate(42.314687 197.063733)scale(0.14 -0.14)">
       <defs>
        <path id="Helvetica-36" d="M 1872 4494 
Q 2622 4494 2917 4105 
Q 3213 3716 3213 3303 
L 2656 3303 
Q 2606 3569 2497 3719 
Q 2294 4000 1881 4000 
Q 1409 4000 1131 3564 
Q 853 3128 822 2316 
Q 1016 2600 1309 2741 
Q 1578 2866 1909 2866 
Q 2472 2866 2890 2506 
Q 3309 2147 3309 1434 
Q 3309 825 2912 354 
Q 2516 -116 1781 -116 
Q 1153 -116 697 361 
Q 241 838 241 1966 
Q 241 2800 444 3381 
Q 834 4494 1872 4494 
z
M 1831 384 
Q 2275 384 2495 682 
Q 2716 981 2716 1388 
Q 2716 1731 2519 2042 
Q 2322 2353 1803 2353 
Q 1441 2353 1167 2112 
Q 894 1872 894 1388 
Q 894 963 1142 673 
Q 1391 384 1831 384 
z
" transform="scale(0.015625)"/>
       </defs>
       <use xlink:href="#Helvetica-36"/>
      </g>
     </g>
    </g>
    <g id="ytick_5">
     <g id="line2d_12">
      <g>
       <use xlink:href="#m661b49c2b2" x="57.6" y="157.560436" style="fill: #262626; stroke: #262626"/>
      </g>
     </g>
     <g id="text_13">
      <!-- 8 -->
      <g style="fill: #262626" transform="translate(42.314687 162.581842)scale(0.14 -0.14)">
       <defs>
        <path id="Helvetica-38" d="M 1741 2600 
Q 2113 2600 2322 2808 
Q 2531 3016 2531 3303 
Q 2531 3553 2331 3762 
Q 2131 3972 1722 3972 
Q 1316 3972 1134 3762 
Q 953 3553 953 3272 
Q 953 2956 1187 2778 
Q 1422 2600 1741 2600 
z
M 1775 384 
Q 2166 384 2423 595 
Q 2681 806 2681 1225 
Q 2681 1659 2415 1884 
Q 2150 2109 1734 2109 
Q 1331 2109 1076 1879 
Q 822 1650 822 1244 
Q 822 894 1055 639 
Q 1288 384 1775 384 
z
M 975 2384 
Q 741 2484 609 2619 
Q 363 2869 363 3269 
Q 363 3769 725 4128 
Q 1088 4488 1753 4488 
Q 2397 4488 2762 4148 
Q 3128 3809 3128 3356 
Q 3128 2938 2916 2678 
Q 2797 2531 2547 2391 
Q 2825 2263 2984 2097 
Q 3281 1784 3281 1284 
Q 3281 694 2884 283 
Q 2488 -128 1763 -128 
Q 1109 -128 657 226 
Q 206 581 206 1256 
Q 206 1653 400 1942 
Q 594 2231 975 2384 
z
" transform="scale(0.015625)"/>
       </defs>
       <use xlink:href="#Helvetica-38"/>
      </g>
     </g>
    </g>
    <g id="ytick_6">
     <g id="line2d_13">
      <g>
       <use xlink:href="#m661b49c2b2" x="57.6" y="123.078544" style="fill: #262626; stroke: #262626"/>
      </g>
     </g>
     <g id="text_14">
      <!-- 10 -->
      <g style="fill: #262626" transform="translate(34.529375 128.099951)scale(0.14 -0.14)">
       <use xlink:href="#Helvetica-31"/>
       <use xlink:href="#Helvetica-30" x="55.615234"/>
      </g>
     </g>
    </g>
    <g id="ytick_7">
     <g id="line2d_14">
      <g>
       <use xlink:href="#m661b49c2b2" x="57.6" y="88.596653" style="fill: #262626; stroke: #262626"/>
      </g>
     </g>
     <g id="text_15">
      <!-- 12 -->
      <g style="fill: #262626" transform="translate(34.529375 93.61806)scale(0.14 -0.14)">
       <use xlink:href="#Helvetica-31"/>
       <use xlink:href="#Helvetica-32" x="55.615234"/>
      </g>
     </g>
    </g>
    <g id="ytick_8">
     <g id="line2d_15">
      <g>
       <use xlink:href="#m661b49c2b2" x="57.6" y="54.114762" style="fill: #262626; stroke: #262626"/>
      </g>
     </g>
     <g id="text_16">
      <!-- 14 -->
      <g style="fill: #262626" transform="translate(34.529375 59.136169)scale(0.14 -0.14)">
       <use xlink:href="#Helvetica-31"/>
       <use xlink:href="#Helvetica-34" x="55.615234"/>
      </g>
     </g>
    </g>
    <g id="ytick_9">
     <g id="line2d_16">
      <defs>
       <path id="m2a583b3301" d="M 0 0 
L -2 0 
" style="stroke: #262626"/>
      </defs>
      <g>
       <use xlink:href="#m2a583b3301" x="57.6" y="304.108473" style="fill: #262626; stroke: #262626"/>
      </g>
     </g>
    </g>
    <g id="ytick_10">
     <g id="line2d_17">
      <g>
       <use xlink:href="#m2a583b3301" x="57.6" y="286.867527" style="fill: #262626; stroke: #262626"/>
      </g>
     </g>
    </g>
    <g id="ytick_11">
     <g id="line2d_18">
      <g>
       <use xlink:href="#m2a583b3301" x="57.6" y="278.247054" style="fill: #262626; stroke: #262626"/>
      </g>
     </g>
    </g>
    <g id="ytick_12">
     <g id="line2d_19">
      <g>
       <use xlink:href="#m2a583b3301" x="57.6" y="269.626582" style="fill: #262626; stroke: #262626"/>
      </g>
     </g>
    </g>
    <g id="ytick_13">
     <g id="line2d_20">
      <g>
       <use xlink:href="#m2a583b3301" x="57.6" y="252.385636" style="fill: #262626; stroke: #262626"/>
      </g>
     </g>
    </g>
    <g id="ytick_14">
     <g id="line2d_21">
      <g>
       <use xlink:href="#m2a583b3301" x="57.6" y="243.765163" style="fill: #262626; stroke: #262626"/>
      </g>
     </g>
    </g>
    <g id="ytick_15">
     <g id="line2d_22">
      <g>
       <use xlink:href="#m2a583b3301" x="57.6" y="235.144691" style="fill: #262626; stroke: #262626"/>
      </g>
     </g>
    </g>
    <g id="ytick_16">
     <g id="line2d_23">
      <g>
       <use xlink:href="#m2a583b3301" x="57.6" y="217.903745" style="fill: #262626; stroke: #262626"/>
      </g>
     </g>
    </g>
    <g id="ytick_17">
     <g id="line2d_24">
      <g>
       <use xlink:href="#m2a583b3301" x="57.6" y="209.283272" style="fill: #262626; stroke: #262626"/>
      </g>
     </g>
    </g>
    <g id="ytick_18">
     <g id="line2d_25">
      <g>
       <use xlink:href="#m2a583b3301" x="57.6" y="200.662799" style="fill: #262626; stroke: #262626"/>
      </g>
     </g>
    </g>
    <g id="ytick_19">
     <g id="line2d_26">
      <g>
       <use xlink:href="#m2a583b3301" x="57.6" y="183.421854" style="fill: #262626; stroke: #262626"/>
      </g>
     </g>
    </g>
    <g id="ytick_20">
     <g id="line2d_27">
      <g>
       <use xlink:href="#m2a583b3301" x="57.6" y="174.801381" style="fill: #262626; stroke: #262626"/>
      </g>
     </g>
    </g>
    <g id="ytick_21">
     <g id="line2d_28">
      <g>
       <use xlink:href="#m2a583b3301" x="57.6" y="166.180908" style="fill: #262626; stroke: #262626"/>
      </g>
     </g>
    </g>
    <g id="ytick_22">
     <g id="line2d_29">
      <g>
       <use xlink:href="#m2a583b3301" x="57.6" y="148.939963" style="fill: #262626; stroke: #262626"/>
      </g>
     </g>
    </g>
    <g id="ytick_23">
     <g id="line2d_30">
      <g>
       <use xlink:href="#m2a583b3301" x="57.6" y="140.31949" style="fill: #262626; stroke: #262626"/>
      </g>
     </g>
    </g>
    <g id="ytick_24">
     <g id="line2d_31">
      <g>
       <use xlink:href="#m2a583b3301" x="57.6" y="131.699017" style="fill: #262626; stroke: #262626"/>
      </g>
     </g>
    </g>
    <g id="ytick_25">
     <g id="line2d_32">
      <g>
       <use xlink:href="#m2a583b3301" x="57.6" y="114.458072" style="fill: #262626; stroke: #262626"/>
      </g>
     </g>
    </g>
    <g id="ytick_26">
     <g id="line2d_33">
      <g>
       <use xlink:href="#m2a583b3301" x="57.6" y="105.837599" style="fill: #262626; stroke: #262626"/>
      </g>
     </g>
    </g>
    <g id="ytick_27">
     <g id="line2d_34">
      <g>
       <use xlink:href="#m2a583b3301" x="57.6" y="97.217126" style="fill: #262626; stroke: #262626"/>
      </g>
     </g>
    </g>
    <g id="ytick_28">
     <g id="line2d_35">
      <g>
       <use xlink:href="#m2a583b3301" x="57.6" y="79.976181" style="fill: #262626; stroke: #262626"/>
      </g>
     </g>
    </g>
    <g id="ytick_29">
     <g id="line2d_36">
      <g>
       <use xlink:href="#m2a583b3301" x="57.6" y="71.355708" style="fill: #262626; stroke: #262626"/>
      </g>
     </g>
    </g>
    <g id="ytick_30">
     <g id="line2d_37">
      <g>
       <use xlink:href="#m2a583b3301" x="57.6" y="62.735235" style="fill: #262626; stroke: #262626"/>
      </g>
     </g>
    </g>
    <g id="ytick_31">
     <g id="line2d_38">
      <g>
       <use xlink:href="#m2a583b3301" x="57.6" y="45.49429" style="fill: #262626; stroke: #262626"/>
      </g>
     </g>
    </g>
    <g id="text_17">
     <!-- Concentration (nM) -->
     <g style="fill: #262626" transform="translate(26.7775 251.553937)rotate(-90)scale(0.18 -0.18)">
      <defs>
       <path id="Helvetica-43" d="M 2422 4716 
Q 3294 4716 3775 4256 
Q 4256 3797 4309 3213 
L 3703 3213 
Q 3600 3656 3292 3915 
Q 2984 4175 2428 4175 
Q 1750 4175 1333 3698 
Q 916 3222 916 2238 
Q 916 1431 1292 929 
Q 1669 428 2416 428 
Q 3103 428 3463 956 
Q 3653 1234 3747 1688 
L 4353 1688 
Q 4272 963 3816 472 
Q 3269 -119 2341 -119 
Q 1541 -119 997 366 
Q 281 1006 281 2344 
Q 281 3359 819 4009 
Q 1400 4716 2422 4716 
z
M 2297 4716 
L 2297 4716 
z
" transform="scale(0.015625)"/>
       <path id="Helvetica-6e" d="M 413 3347 
L 947 3347 
L 947 2872 
Q 1184 3166 1450 3294 
Q 1716 3422 2041 3422 
Q 2753 3422 3003 2925 
Q 3141 2653 3141 2147 
L 3141 0 
L 2569 0 
L 2569 2109 
Q 2569 2416 2478 2603 
Q 2328 2916 1934 2916 
Q 1734 2916 1606 2875 
Q 1375 2806 1200 2600 
Q 1059 2434 1017 2257 
Q 975 2081 975 1753 
L 975 0 
L 413 0 
L 413 3347 
z
M 1734 3428 
L 1734 3428 
z
" transform="scale(0.015625)"/>
       <path id="Helvetica-63" d="M 1703 3444 
Q 2269 3444 2623 3169 
Q 2978 2894 3050 2222 
L 2503 2222 
Q 2453 2531 2275 2736 
Q 2097 2941 1703 2941 
Q 1166 2941 934 2416 
Q 784 2075 784 1575 
Q 784 1072 996 728 
Q 1209 384 1666 384 
Q 2016 384 2220 598 
Q 2425 813 2503 1184 
L 3050 1184 
Q 2956 519 2581 211 
Q 2206 -97 1622 -97 
Q 966 -97 575 383 
Q 184 863 184 1581 
Q 184 2463 612 2953 
Q 1041 3444 1703 3444 
z
M 1616 3428 
L 1616 3428 
z
" transform="scale(0.015625)"/>
       <path id="Helvetica-74" d="M 525 4281 
L 1094 4281 
L 1094 3347 
L 1628 3347 
L 1628 2888 
L 1094 2888 
L 1094 703 
Q 1094 528 1213 469 
Q 1278 434 1431 434 
Q 1472 434 1519 436 
Q 1566 438 1628 444 
L 1628 0 
Q 1531 -28 1426 -40 
Q 1322 -53 1200 -53 
Q 806 -53 665 148 
Q 525 350 525 672 
L 525 2888 
L 72 2888 
L 72 3347 
L 525 3347 
L 525 4281 
z
" transform="scale(0.015625)"/>
       <path id="Helvetica-61" d="M 844 891 
Q 844 647 1022 506 
Q 1200 366 1444 366 
Q 1741 366 2019 503 
Q 2488 731 2488 1250 
L 2488 1703 
Q 2384 1638 2221 1594 
Q 2059 1550 1903 1531 
L 1563 1488 
Q 1256 1447 1103 1359 
Q 844 1213 844 891 
z
M 2206 2028 
Q 2400 2053 2466 2191 
Q 2503 2266 2503 2406 
Q 2503 2694 2298 2823 
Q 2094 2953 1713 2953 
Q 1272 2953 1088 2716 
Q 984 2584 953 2325 
L 428 2325 
Q 444 2944 830 3186 
Q 1216 3428 1725 3428 
Q 2316 3428 2684 3203 
Q 3050 2978 3050 2503 
L 3050 575 
Q 3050 488 3086 434 
Q 3122 381 3238 381 
Q 3275 381 3322 386 
Q 3369 391 3422 400 
L 3422 -16 
Q 3291 -53 3222 -62 
Q 3153 -72 3034 -72 
Q 2744 -72 2613 134 
Q 2544 244 2516 444 
Q 2344 219 2022 53 
Q 1700 -113 1313 -113 
Q 847 -113 551 170 
Q 256 453 256 878 
Q 256 1344 547 1600 
Q 838 1856 1309 1916 
L 2206 2028 
z
M 1741 3428 
L 1741 3428 
z
" transform="scale(0.015625)"/>
       <path id="Helvetica-4d" d="M 472 4591 
L 1363 4591 
L 2681 709 
L 3991 4591 
L 4872 4591 
L 4872 0 
L 4281 0 
L 4281 2709 
Q 4281 2850 4287 3175 
Q 4294 3500 4294 3872 
L 2984 0 
L 2369 0 
L 1050 3872 
L 1050 3731 
Q 1050 3563 1058 3217 
Q 1066 2872 1066 2709 
L 1066 0 
L 472 0 
L 472 4591 
z
" transform="scale(0.015625)"/>
      </defs>
      <use xlink:href="#Helvetica-43"/>
      <use xlink:href="#Helvetica-6f" x="72.216797"/>
      <use xlink:href="#Helvetica-6e" x="127.832031"/>
      <use xlink:href="#Helvetica-63" x="183.447266"/>
      <use xlink:href="#Helvetica-65" x="233.447266"/>
      <use xlink:href="#Helvetica-6e" x="289.0625"/>
      <use xlink:href="#Helvetica-74" x="344.677734"/>
      <use xlink:href="#Helvetica-72" x="372.460938"/>
      <use xlink:href="#Helvetica-61" x="405.761719"/>
      <use xlink:href="#Helvetica-74" x="461.376953"/>
      <use xlink:href="#Helvetica-69" x="489.160156"/>
      <use xlink:href="#Helvetica-6f" x="511.376953"/>
      <use xlink:href="#Helvetica-6e" x="566.992188"/>
      <use xlink:href="#Helvetica-20" x="622.607422"/>
      <use xlink:href="#Helvetica-28" x="650.390625"/>
      <use xlink:href="#Helvetica-6e" x="683.691406"/>
      <use xlink:href="#Helvetica-4d" x="739.306641"/>
      <use xlink:href="#Helvetica-29" x="822.607422"/>
     </g>
    </g>
   </g>
   <g id="line2d_39">
    <path d="M 73.832727 295.488 
L 75.133948 294.521236 
L 77.085779 293.38889 
L 82.290661 290.79328 
L 89.447375 287.157743 
L 95.953478 283.603383 
L 102.459581 279.781439 
L 108.965684 275.675767 
L 114.821177 271.727284 
L 120.67667 267.531014 
L 126.532162 263.081903 
L 132.387655 258.377713 
L 138.893758 252.853018 
L 145.399862 247.021427 
L 151.905965 240.895687 
L 159.062678 233.840653 
L 166.870002 225.805601 
L 175.327936 216.766942 
L 185.737701 205.292488 
L 222.822489 164.049372 
L 231.280423 155.151144 
L 239.087746 147.254248 
L 246.24446 140.318425 
L 253.401173 133.694712 
L 260.557887 127.395762 
L 267.06399 121.955295 
L 273.570093 116.785532 
L 280.076196 111.880796 
L 286.582299 107.232074 
L 293.739013 102.400282 
L 300.895726 97.846181 
L 308.052439 93.55001 
L 315.859763 89.133178 
L 323.667087 84.97174 
L 332.125021 80.721169 
L 341.233565 76.407761 
L 350.99272 72.049543 
L 361.402485 67.65638 
L 372.46286 63.230745 
L 384.824456 58.527023 
L 398.487273 53.568 
L 398.487273 53.568 
" clip-path="url(#p0eb794fa24)" style="fill: none; stroke: #4477aa; stroke-linecap: round"/>
    <defs>
     <path id="ma4191f16d2" d="M 0 2 
C 0.530406 2 1.03916 1.789267 1.414214 1.414214 
C 1.789267 1.03916 2 0.530406 2 0 
C 2 -0.530406 1.789267 -1.03916 1.414214 -1.414214 
C 1.03916 -1.789267 0.530406 -2 0 -2 
C -0.530406 -2 -1.03916 -1.789267 -1.414214 -1.414214 
C -1.789267 -1.03916 -2 -0.530406 -2 0 
C -2 0.530406 -1.789267 1.03916 -1.414214 1.414214 
C -1.03916 1.789267 -0.530406 2 0 2 
z
" style="stroke: #4477aa"/>
    </defs>
    <g clip-path="url(#p0eb794fa24)">
     <use xlink:href="#ma4191f16d2" x="73.832727" y="295.488" style="fill: #4477aa; stroke: #4477aa"/>
     <use xlink:href="#ma4191f16d2" x="104.411412" y="278.580172" style="fill: #4477aa; stroke: #4477aa"/>
     <use xlink:href="#ma4191f16d2" x="134.990097" y="256.205221" style="fill: #4477aa; stroke: #4477aa"/>
     <use xlink:href="#ma4191f16d2" x="165.568781" y="227.167144" style="fill: #4477aa; stroke: #4477aa"/>
     <use xlink:href="#ma4191f16d2" x="196.147466" y="193.606382" style="fill: #4477aa; stroke: #4477aa"/>
     <use xlink:href="#ma4191f16d2" x="226.72615" y="159.901894" style="fill: #4477aa; stroke: #4477aa"/>
     <use xlink:href="#ma4191f16d2" x="257.304835" y="130.218191" style="fill: #4477aa; stroke: #4477aa"/>
     <use xlink:href="#ma4191f16d2" x="287.88352" y="106.332069" style="fill: #4477aa; stroke: #4477aa"/>
     <use xlink:href="#ma4191f16d2" x="318.462204" y="87.718975" style="fill: #4477aa; stroke: #4477aa"/>
     <use xlink:href="#ma4191f16d2" x="349.040889" y="72.90134" style="fill: #4477aa; stroke: #4477aa"/>
     <use xlink:href="#ma4191f16d2" x="379.619574" y="60.479564" style="fill: #4477aa; stroke: #4477aa"/>
    </g>
   </g>
   <g id="line2d_40">
    <path d="M 73.832727 295.488 
L 75.133948 294.879077 
L 76.435169 293.949387 
L 77.085779 293.297231 
L 77.736389 292.478313 
L 78.386999 291.452826 
L 79.03761 290.173381 
L 79.68822 288.584707 
L 80.33883 286.624104 
L 80.989441 284.223084 
L 81.640051 281.310761 
L 82.290661 277.819493 
L 83.591882 268.897528 
L 84.893103 257.34259 
L 86.844934 236.528409 
L 88.796764 215.848635 
L 90.097985 204.483313 
L 91.399206 195.755036 
L 92.700426 189.491565 
L 94.001647 185.183157 
L 95.302868 182.271914 
L 96.604088 180.294666 
L 97.905309 178.915868 
L 99.206529 177.910399 
L 101.15836 176.801918 
L 103.760802 175.686398 
L 108.315074 174.067491 
L 122.628501 169.355485 
L 153.857796 159.291942 
L 185.737701 149.253773 
L 218.268216 139.248139 
L 250.798732 129.475019 
L 283.979858 119.738604 
L 317.811594 110.045167 
L 352.293941 100.40063 
L 386.776287 90.986039 
L 398.487273 87.839621 
L 398.487273 87.839621 
" clip-path="url(#p0eb794fa24)" style="fill: none; stroke: #ee6677; stroke-linecap: round"/>
    <defs>
     <path id="m6bd35b8815" d="M 0 -2 
L -2 2 
L 2 2 
z
" style="stroke: #ee6677; stroke-linejoin: miter"/>
    </defs>
    <g clip-path="url(#p0eb794fa24)">
     <use xlink:href="#m6bd35b8815" x="73.832727" y="295.488" style="fill: #ee6677; stroke: #ee6677; stroke-linejoin: miter"/>
     <use xlink:href="#m6bd35b8815" x="112.218736" y="172.766082" style="fill: #ee6677; stroke: #ee6677; stroke-linejoin: miter"/>
     <use xlink:href="#m6bd35b8815" x="150.604744" y="160.329475" style="fill: #ee6677; stroke: #ee6677; stroke-linejoin: miter"/>
     <use xlink:href="#m6bd35b8815" x="188.990752" y="148.24254" style="fill: #ee6677; stroke: #ee6677; stroke-linejoin: miter"/>
     <use xlink:href="#m6bd35b8815" x="227.376761" y="136.488538" style="fill: #ee6677; stroke: #ee6677; stroke-linejoin: miter"/>
     <use xlink:href="#m6bd35b8815" x="265.762769" y="125.055497" style="fill: #ee6677; stroke: #ee6677; stroke-linejoin: miter"/>
     <use xlink:href="#m6bd35b8815" x="304.148778" y="113.931875" style="fill: #ee6677; stroke: #ee6677; stroke-linejoin: miter"/>
     <use xlink:href="#m6bd35b8815" x="342.534786" y="103.106558" style="fill: #ee6677; stroke: #ee6677; stroke-linejoin: miter"/>
     <use xlink:href="#m6bd35b8815" x="380.920794" y="92.568855" style="fill: #ee6677; stroke: #ee6677; stroke-linejoin: miter"/>
    </g>
   </g>
   <g id="line2d_41">
    <path d="M 73.832727 295.488 
L 74.483338 295.239012 
L 75.133948 294.831787 
L 75.784558 294.141528 
L 76.435169 292.978059 
L 77.085779 291.037394 
L 77.736389 287.85891 
L 78.386999 282.809143 
L 79.03761 275.166236 
L 79.68822 264.412075 
L 80.989441 235.432776 
L 82.290661 207.99391 
L 82.941272 198.559588 
L 83.591882 192.091247 
L 84.242492 187.915429 
L 84.893103 185.307248 
L 85.543713 183.693692 
L 86.194323 182.683351 
L 86.844934 182.029154 
L 88.146154 181.253817 
L 90.097985 180.574141 
L 95.953478 179.011056 
L 131.737045 169.814461 
L 168.821833 160.508557 
L 206.557231 151.267031 
L 244.943239 142.094242 
L 283.979858 132.994235 
L 323.667087 123.970754 
L 364.004926 115.027246 
L 398.487273 107.558302 
L 398.487273 107.558302 
" clip-path="url(#p0eb794fa24)" style="fill: none; stroke: #228833; stroke-linecap: round"/>
    <defs>
     <path id="m96eca36617" d="M -2 2 
L 2 2 
L 2 -2 
L -2 -2 
z
" style="stroke: #228833; stroke-linejoin: miter"/>
    </defs>
    <g clip-path="url(#p0eb794fa24)">
     <use xlink:href="#m96eca36617" x="73.832727" y="295.488" style="fill: #228833; stroke: #228833; stroke-linejoin: miter"/>
     <use xlink:href="#m96eca36617" x="116.122398" y="173.800821" style="fill: #228833; stroke: #228833; stroke-linejoin: miter"/>
     <use xlink:href="#m96eca36617" x="158.412068" y="163.098043" style="fill: #228833; stroke: #228833; stroke-linejoin: miter"/>
     <use xlink:href="#m96eca36617" x="200.701738" y="152.686305" style="fill: #228833; stroke: #228833; stroke-linejoin: miter"/>
     <use xlink:href="#m96eca36617" x="242.991408" y="142.555221" style="fill: #228833; stroke: #228833; stroke-linejoin: miter"/>
     <use xlink:href="#m96eca36617" x="285.281079" y="132.694778" style="fill: #228833; stroke: #228833; stroke-linejoin: miter"/>
     <use xlink:href="#m96eca36617" x="327.570749" y="123.095337" style="fill: #228833; stroke: #228833; stroke-linejoin: miter"/>
     <use xlink:href="#m96eca36617" x="369.860419" y="113.74763" style="fill: #228833; stroke: #228833; stroke-linejoin: miter"/>
    </g>
   </g>
   <g id="line2d_42">
    <path d="M 73.832727 295.488 
L 74.483338 295.246353 
L 75.133948 294.7493 
L 75.784558 293.706012 
L 76.435169 291.546368 
L 77.085779 287.208563 
L 77.736389 279.01063 
L 78.386999 265.172408 
L 80.33883 206.755127 
L 80.989441 195.050502 
L 81.640051 188.469934 
L 82.290661 185.080058 
L 82.941272 183.382654 
L 83.591882 182.51376 
L 84.242492 182.034968 
L 85.543713 181.520561 
L 88.796764 180.730273 
L 123.279111 173.036603 
L 164.267561 164.101625 
L 205.906621 155.250089 
L 248.196291 146.484937 
L 291.787182 137.679075 
L 336.028683 128.971305 
L 380.920794 120.36358 
L 398.487273 117.056126 
L 398.487273 117.056126 
" clip-path="url(#p0eb794fa24)" style="fill: none; stroke: #ccbb44; stroke-linecap: round"/>
    <defs>
     <path id="ma692e8965b" d="M -0.666667 2 
L 0.666667 2 
L 0.666667 0.666667 
L 2 0.666667 
L 2 -0.666667 
L 0.666667 -0.666667 
L 0.666667 -2 
L -0.666667 -2 
L -0.666667 -0.666667 
L -2 -0.666667 
L -2 0.666667 
L -0.666667 0.666667 
z
" style="stroke: #ccbb44; stroke-linejoin: miter"/>
    </defs>
    <g clip-path="url(#p0eb794fa24)">
     <use xlink:href="#ma692e8965b" x="73.832727" y="295.488" style="fill: #ccbb44; stroke: #ccbb44; stroke-linejoin: miter"/>
     <use xlink:href="#ma692e8965b" x="104.411412" y="177.225524" style="fill: #ccbb44; stroke: #ccbb44; stroke-linejoin: miter"/>
     <use xlink:href="#ma692e8965b" x="134.990097" y="170.460871" style="fill: #ccbb44; stroke: #ccbb44; stroke-linejoin: miter"/>
     <use xlink:href="#ma692e8965b" x="165.568781" y="163.821617" style="fill: #ccbb44; stroke: #ccbb44; stroke-linejoin: miter"/>
     <use xlink:href="#ma692e8965b" x="196.147466" y="157.304696" style="fill: #ccbb44; stroke: #ccbb44; stroke-linejoin: miter"/>
     <use xlink:href="#ma692e8965b" x="226.72615" y="150.907115" style="fill: #ccbb44; stroke: #ccbb44; stroke-linejoin: miter"/>
     <use xlink:href="#ma692e8965b" x="257.304835" y="144.62596" style="fill: #ccbb44; stroke: #ccbb44; stroke-linejoin: miter"/>
     <use xlink:href="#ma692e8965b" x="287.88352" y="138.45839" style="fill: #ccbb44; stroke: #ccbb44; stroke-linejoin: miter"/>
     <use xlink:href="#ma692e8965b" x="318.462204" y="132.401642" style="fill: #ccbb44; stroke: #ccbb44; stroke-linejoin: miter"/>
     <use xlink:href="#ma692e8965b" x="349.040889" y="126.453025" style="fill: #ccbb44; stroke: #ccbb44; stroke-linejoin: miter"/>
     <use xlink:href="#ma692e8965b" x="379.619574" y="120.609921" style="fill: #ccbb44; stroke: #ccbb44; stroke-linejoin: miter"/>
    </g>
   </g>
   <g id="line2d_43">
    <path d="M 73.832727 295.488 
L 74.483338 295.321426 
L 79.03761 295.23716 
L 98.555919 295.253035 
L 200.701738 295.308694 
L 397.186052 295.180603 
L 398.487273 295.178711 
L 398.487273 295.178711 
" clip-path="url(#p0eb794fa24)" style="fill: none; stroke-dasharray: 3.7,1.6; stroke-dashoffset: 0; stroke: #4477aa"/>
    <g clip-path="url(#p0eb794fa24)">
     <use xlink:href="#ma4191f16d2" x="73.832727" y="295.488" style="fill: #4477aa; stroke: #4477aa"/>
     <use xlink:href="#ma4191f16d2" x="108.965684" y="295.268415" style="fill: #4477aa; stroke: #4477aa"/>
     <use xlink:href="#ma4191f16d2" x="144.098641" y="295.29906" style="fill: #4477aa; stroke: #4477aa"/>
     <use xlink:href="#ma4191f16d2" x="179.231598" y="295.308843" style="fill: #4477aa; stroke: #4477aa"/>
     <use xlink:href="#ma4191f16d2" x="214.364555" y="295.306869" style="fill: #4477aa; stroke: #4477aa"/>
     <use xlink:href="#ma4191f16d2" x="249.497511" y="295.297299" style="fill: #4477aa; stroke: #4477aa"/>
     <use xlink:href="#ma4191f16d2" x="284.630468" y="295.281688" style="fill: #4477aa; stroke: #4477aa"/>
     <use xlink:href="#ma4191f16d2" x="319.763425" y="295.25996" style="fill: #4477aa; stroke: #4477aa"/>
     <use xlink:href="#ma4191f16d2" x="354.896382" y="295.230655" style="fill: #4477aa; stroke: #4477aa"/>
     <use xlink:href="#ma4191f16d2" x="390.029339" y="295.190571" style="fill: #4477aa; stroke: #4477aa"/>
    </g>
   </g>
   <g id="line2d_44">
    <path d="M 73.832727 295.488 
L 75.133948 295.319878 
L 79.68822 295.227381 
L 98.555919 295.255302 
L 185.737701 295.325534 
L 378.318353 295.232723 
L 398.487273 295.205165 
L 398.487273 295.205165 
" clip-path="url(#p0eb794fa24)" style="fill: none; stroke-dasharray: 3.7,1.6; stroke-dashoffset: 0; stroke: #ee6677"/>
    <g clip-path="url(#p0eb794fa24)">
     <use xlink:href="#m6bd35b8815" x="73.832727" y="295.488" style="fill: #ee6677; stroke: #ee6677; stroke-linejoin: miter"/>
     <use xlink:href="#m6bd35b8815" x="99.206529" y="295.256649" style="fill: #ee6677; stroke: #ee6677; stroke-linejoin: miter"/>
     <use xlink:href="#m6bd35b8815" x="124.580332" y="295.295336" style="fill: #ee6677; stroke: #ee6677; stroke-linejoin: miter"/>
     <use xlink:href="#m6bd35b8815" x="149.954134" y="295.31517" style="fill: #ee6677; stroke: #ee6677; stroke-linejoin: miter"/>
     <use xlink:href="#m6bd35b8815" x="175.327936" y="295.324036" style="fill: #ee6677; stroke: #ee6677; stroke-linejoin: miter"/>
     <use xlink:href="#m6bd35b8815" x="200.701738" y="295.326046" style="fill: #ee6677; stroke: #ee6677; stroke-linejoin: miter"/>
     <use xlink:href="#m6bd35b8815" x="226.07554" y="295.323395" style="fill: #ee6677; stroke: #ee6677; stroke-linejoin: miter"/>
     <use xlink:href="#m6bd35b8815" x="251.449342" y="295.317211" style="fill: #ee6677; stroke: #ee6677; stroke-linejoin: miter"/>
     <use xlink:href="#m6bd35b8815" x="276.823144" y="295.307958" style="fill: #ee6677; stroke: #ee6677; stroke-linejoin: miter"/>
     <use xlink:href="#m6bd35b8815" x="302.196947" y="295.295617" style="fill: #ee6677; stroke: #ee6677; stroke-linejoin: miter"/>
     <use xlink:href="#m6bd35b8815" x="327.570749" y="295.279734" style="fill: #ee6677; stroke: #ee6677; stroke-linejoin: miter"/>
     <use xlink:href="#m6bd35b8815" x="352.944551" y="295.259343" style="fill: #ee6677; stroke: #ee6677; stroke-linejoin: miter"/>
     <use xlink:href="#m6bd35b8815" x="378.318353" y="295.232723" style="fill: #ee6677; stroke: #ee6677; stroke-linejoin: miter"/>
    </g>
   </g>
   <g id="line2d_45">
    <path d="M 73.832727 295.488 
L 75.133948 295.325515 
L 79.03761 295.186204 
L 87.495544 295.170128 
L 148.002303 295.309753 
L 286.582299 295.317285 
L 398.487273 295.241043 
L 398.487273 295.241043 
" clip-path="url(#p0eb794fa24)" style="fill: none; stroke-dasharray: 3.7,1.6; stroke-dashoffset: 0; stroke: #228833"/>
    <g clip-path="url(#p0eb794fa24)">
     <use xlink:href="#m96eca36617" x="73.832727" y="295.488" style="fill: #228833; stroke: #228833; stroke-linejoin: miter"/>
     <use xlink:href="#m96eca36617" x="98.555919" y="295.21552" style="fill: #228833; stroke: #228833; stroke-linejoin: miter"/>
     <use xlink:href="#m96eca36617" x="123.279111" y="295.278896" style="fill: #228833; stroke: #228833; stroke-linejoin: miter"/>
     <use xlink:href="#m96eca36617" x="148.002303" y="295.309753" style="fill: #228833; stroke: #228833; stroke-linejoin: miter"/>
     <use xlink:href="#m96eca36617" x="172.725495" y="295.324712" style="fill: #228833; stroke: #228833; stroke-linejoin: miter"/>
     <use xlink:href="#m96eca36617" x="197.448686" y="295.33082" style="fill: #228833; stroke: #228833; stroke-linejoin: miter"/>
     <use xlink:href="#m96eca36617" x="222.171878" y="295.33145" style="fill: #228833; stroke: #228833; stroke-linejoin: miter"/>
     <use xlink:href="#m96eca36617" x="246.89507" y="295.328311" style="fill: #228833; stroke: #228833; stroke-linejoin: miter"/>
     <use xlink:href="#m96eca36617" x="271.618262" y="295.322239" style="fill: #228833; stroke: #228833; stroke-linejoin: miter"/>
     <use xlink:href="#m96eca36617" x="296.341454" y="295.313539" style="fill: #228833; stroke: #228833; stroke-linejoin: miter"/>
     <use xlink:href="#m96eca36617" x="321.064646" y="295.302124" style="fill: #228833; stroke: #228833; stroke-linejoin: miter"/>
     <use xlink:href="#m96eca36617" x="345.787838" y="295.287548" style="fill: #228833; stroke: #228833; stroke-linejoin: miter"/>
     <use xlink:href="#m96eca36617" x="370.511029" y="295.268933" style="fill: #228833; stroke: #228833; stroke-linejoin: miter"/>
     <use xlink:href="#m96eca36617" x="395.234221" y="295.244758" style="fill: #228833; stroke: #228833; stroke-linejoin: miter"/>
    </g>
   </g>
   <g id="line2d_46">
    <path d="M 73.832727 295.488 
L 75.784558 295.272345 
L 80.33883 295.055642 
L 86.194323 295.01056 
L 162.96634 295.303902 
L 301.546336 295.316219 
L 398.487273 295.26753 
L 398.487273 295.26753 
" clip-path="url(#p0eb794fa24)" style="fill: none; stroke-dasharray: 3.7,1.6; stroke-dashoffset: 0; stroke: #ccbb44"/>
    <g clip-path="url(#p0eb794fa24)">
     <use xlink:href="#ma692e8965b" x="73.832727" y="295.488" style="fill: #ccbb44; stroke: #ccbb44; stroke-linejoin: miter"/>
     <use xlink:href="#ma692e8965b" x="106.363243" y="295.166273" style="fill: #ccbb44; stroke: #ccbb44; stroke-linejoin: miter"/>
     <use xlink:href="#ma692e8965b" x="138.893758" y="295.272676" style="fill: #ccbb44; stroke: #ccbb44; stroke-linejoin: miter"/>
     <use xlink:href="#ma692e8965b" x="171.424274" y="295.310594" style="fill: #ccbb44; stroke: #ccbb44; stroke-linejoin: miter"/>
     <use xlink:href="#ma692e8965b" x="203.95479" y="295.324621" style="fill: #ccbb44; stroke: #ccbb44; stroke-linejoin: miter"/>
     <use xlink:href="#ma692e8965b" x="236.485305" y="295.32751" style="fill: #ccbb44; stroke: #ccbb44; stroke-linejoin: miter"/>
     <use xlink:href="#ma692e8965b" x="269.015821" y="295.324071" style="fill: #ccbb44; stroke: #ccbb44; stroke-linejoin: miter"/>
     <use xlink:href="#ma692e8965b" x="301.546336" y="295.316219" style="fill: #ccbb44; stroke: #ccbb44; stroke-linejoin: miter"/>
     <use xlink:href="#ma692e8965b" x="334.076852" y="295.304483" style="fill: #ccbb44; stroke: #ccbb44; stroke-linejoin: miter"/>
     <use xlink:href="#ma692e8965b" x="366.607367" y="295.288496" style="fill: #ccbb44; stroke: #ccbb44; stroke-linejoin: miter"/>
    </g>
   </g>
   <g id="line2d_47"/>
   <g id="line2d_48"/>
   <g id="patch_3">
    <path d="M 57.6 307.584 
L 57.6 41.472 
" style="fill: none; stroke: #262626; stroke-width: 0.5; stroke-linejoin: miter; stroke-linecap: square"/>
   </g>
   <g id="patch_4">
    <path d="M 57.6 307.584 
L 414.72 307.584 
" style="fill: none; stroke: #262626; stroke-width: 0.5; stroke-linejoin: miter; stroke-linecap: square"/>
   </g>
   <g id="legend_1">
    <g id="line2d_49">
     <path d="M 285 134.412187 
L 303 134.412187 
L 321 134.412187 
" style="fill: none; stroke: #4477aa; stroke-linecap: round"/>
     <g>
      <use xlink:href="#ma4191f16d2" x="303" y="134.412187" style="fill: #4477aa; stroke: #4477aa"/>
     </g>
    </g>
    <g id="text_18">
     <!-- 1X -->
     <g style="fill: #262626" transform="translate(335.4 140.712187)scale(0.18 -0.18)">
      <defs>
       <path id="Helvetica-58" d="M 881 0 
L 131 0 
L 1775 2353 
L 234 4591 
L 1013 4591 
L 2184 2834 
L 3347 4591 
L 4088 4591 
L 2547 2353 
L 4163 0 
L 3391 0 
L 2153 1888 
L 881 0 
z
" transform="scale(0.015625)"/>
      </defs>
      <use xlink:href="#Helvetica-31"/>
      <use xlink:href="#Helvetica-58" x="55.615234"/>
     </g>
    </g>
    <g id="line2d_50">
     <path d="M 285 160.07625 
L 303 160.07625 
L 321 160.07625 
" style="fill: none; stroke: #ee6677; stroke-linecap: round"/>
     <g>
      <use xlink:href="#m6bd35b8815" x="303" y="160.07625" style="fill: #ee6677; stroke: #ee6677; stroke-linejoin: miter"/>
     </g>
    </g>
    <g id="text_19">
     <!-- 30X -->
     <g style="fill: #262626" transform="translate(335.4 166.37625)scale(0.18 -0.18)">
      <use xlink:href="#Helvetica-33"/>
      <use xlink:href="#Helvetica-30" x="55.615234"/>
      <use xlink:href="#Helvetica-58" x="111.230469"/>
     </g>
    </g>
    <g id="line2d_51">
     <path d="M 285 185.740312 
L 303 185.740312 
L 321 185.740312 
" style="fill: none; stroke: #228833; stroke-linecap: round"/>
     <g>
      <use xlink:href="#m96eca36617" x="303" y="185.740312" style="fill: #228833; stroke: #228833; stroke-linejoin: miter"/>
     </g>
    </g>
    <g id="text_20">
     <!-- 70X -->
     <g style="fill: #262626" transform="translate(335.4 192.040312)scale(0.18 -0.18)">
      <defs>
       <path id="Helvetica-37" d="M 3347 4400 
L 3347 3909 
Q 3131 3700 2773 3181 
Q 2416 2663 2141 2063 
Q 1869 1478 1728 997 
Q 1638 688 1494 0 
L 872 0 
Q 1084 1281 1809 2550 
Q 2238 3294 2709 3834 
L 234 3834 
L 234 4400 
L 3347 4400 
z
" transform="scale(0.015625)"/>
      </defs>
      <use xlink:href="#Helvetica-37"/>
      <use xlink:href="#Helvetica-30" x="55.615234"/>
      <use xlink:href="#Helvetica-58" x="111.230469"/>
     </g>
    </g>
    <g id="line2d_52">
     <path d="M 285 211.404375 
L 303 211.404375 
L 321 211.404375 
" style="fill: none; stroke: #ccbb44; stroke-linecap: round"/>
     <g>
      <use xlink:href="#ma692e8965b" x="303" y="211.404375" style="fill: #ccbb44; stroke: #ccbb44; stroke-linejoin: miter"/>
     </g>
    </g>
    <g id="text_21">
     <!-- 100X -->
     <g style="fill: #262626" transform="translate(335.4 217.704375)scale(0.18 -0.18)">
      <use xlink:href="#Helvetica-31"/>
      <use xlink:href="#Helvetica-30" x="55.615234"/>
      <use xlink:href="#Helvetica-30" x="111.230469"/>
      <use xlink:href="#Helvetica-58" x="166.845703"/>
     </g>
    </g>
    <g id="line2d_53">
     <path d="M 285 237.068437 
L 303 237.068437 
L 321 237.068437 
" style="fill: none; stroke: #000000; stroke-width: 1.5; stroke-linecap: round"/>
    </g>
    <g id="text_22">
     <!-- w/o cancellation -->
     <g style="fill: #262626" transform="translate(335.4 243.368437)scale(0.18 -0.18)">
      <defs>
       <path id="Helvetica-77" d="M 672 3347 
L 1316 709 
L 1969 3347 
L 2600 3347 
L 3256 725 
L 3941 3347 
L 4503 3347 
L 3531 0 
L 2947 0 
L 2266 2591 
L 1606 0 
L 1022 0 
L 56 3347 
L 672 3347 
z
" transform="scale(0.015625)"/>
       <path id="Helvetica-2f" d="M 1456 4591 
L 1931 4591 
L 475 0 
L 0 0 
L 1456 4591 
z
" transform="scale(0.015625)"/>
       <path id="Helvetica-6c" d="M 428 4591 
L 991 4591 
L 991 0 
L 428 0 
L 428 4591 
z
" transform="scale(0.015625)"/>
      </defs>
      <use xlink:href="#Helvetica-77"/>
      <use xlink:href="#Helvetica-2f" x="72.216797"/>
      <use xlink:href="#Helvetica-6f" x="100"/>
      <use xlink:href="#Helvetica-20" x="155.615234"/>
      <use xlink:href="#Helvetica-63" x="183.398438"/>
      <use xlink:href="#Helvetica-61" x="233.398438"/>
      <use xlink:href="#Helvetica-6e" x="289.013672"/>
      <use xlink:href="#Helvetica-63" x="344.628906"/>
      <use xlink:href="#Helvetica-65" x="394.628906"/>
      <use xlink:href="#Helvetica-6c" x="450.244141"/>
      <use xlink:href="#Helvetica-6c" x="472.460938"/>
      <use xlink:href="#Helvetica-61" x="494.677734"/>
      <use xlink:href="#Helvetica-74" x="550.292969"/>
      <use xlink:href="#Helvetica-69" x="578.076172"/>
      <use xlink:href="#Helvetica-6f" x="600.292969"/>
      <use xlink:href="#Helvetica-6e" x="655.908203"/>
     </g>
    </g>
    <g id="line2d_54">
     <path d="M 285 262.7325 
L 303 262.7325 
L 321 262.7325 
" style="fill: none; stroke-dasharray: 5.55,2.4; stroke-dashoffset: 0; stroke: #000000; stroke-width: 1.5"/>
    </g>
    <g id="text_23">
     <!-- w/ cancellation -->
     <g style="fill: #262626" transform="translate(335.4 269.0325)scale(0.18 -0.18)">
      <use xlink:href="#Helvetica-77"/>
      <use xlink:href="#Helvetica-2f" x="72.216797"/>
      <use xlink:href="#Helvetica-20" x="100"/>
      <use xlink:href="#Helvetica-63" x="127.783203"/>
      <use xlink:href="#Helvetica-61" x="177.783203"/>
      <use xlink:href="#Helvetica-6e" x="233.398438"/>
      <use xlink:href="#Helvetica-63" x="289.013672"/>
      <use xlink:href="#Helvetica-65" x="339.013672"/>
      <use xlink:href="#Helvetica-6c" x="394.628906"/>
      <use xlink:href="#Helvetica-6c" x="416.845703"/>
      <use xlink:href="#Helvetica-61" x="439.0625"/>
      <use xlink:href="#Helvetica-74" x="494.677734"/>
      <use xlink:href="#Helvetica-69" x="522.460938"/>
      <use xlink:href="#Helvetica-6f" x="544.677734"/>
      <use xlink:href="#Helvetica-6e" x="600.292969"/>
     </g>
    </g>
   </g>
  </g>
 </g>
 <defs>
  <clipPath id="p0eb794fa24">
   <rect x="57.6" y="41.472" width="357.12" height="266.112"/>
  </clipPath>
 </defs>
</svg>
