<?xml version="1.0" encoding="utf-8" standalone="no"?>
<!DOCTYPE svg PUBLIC "-//W3C//DTD SVG 1.1//EN"
  "http://www.w3.org/Graphics/SVG/1.1/DTD/svg11.dtd">
<svg xmlns:xlink="http://www.w3.org/1999/xlink" width="460.8pt" height="345.6pt" viewBox="0 0 460.8 345.6" xmlns="http://www.w3.org/2000/svg" version="1.1">
 <metadata>
  <rdf:RDF xmlns:dc="http://purl.org/dc/elements/1.1/" xmlns:cc="http://creativecommons.org/ns#" xmlns:rdf="http://www.w3.org/1999/02/22-rdf-syntax-ns#">
   <cc:Work>
    <dc:type rdf:resource="http://purl.org/dc/dcmitype/StillImage"/>
    <dc:date>2024-04-08T14:42:16.566843</dc:date>
    <dc:format>image/svg+xml</dc:format>
    <dc:creator>
     <cc:Agent>
      <dc:title>Matplotlib v3.5.1, https://matplotlib.org/</dc:title>
     </cc:Agent>
    </dc:creator>
   </cc:Work>
  </rdf:RDF>
 </metadata>
 <defs>
  <style type="text/css">*{stroke-linejoin: round; stroke-linecap: butt}</style>
 </defs>
 <g id="figure_1">
  <g id="patch_1">
   <path d="M 0 345.6 
L 460.8 345.6 
L 460.8 0 
L 0 0 
z
" style="fill: #ffffff"/>
  </g>
  <g id="axes_1">
   <g id="patch_2">
    <path d="M 57.6 307.584 
L 414.72 307.584 
L 414.72 41.472 
L 57.6 41.472 
z
" style="fill: #ffffff"/>
   </g>
   <g id="matplotlib.axis_1">
    <g id="xtick_1">
     <g id="line2d_1">
      <defs>
       <path id="mb268697394" d="M 0 0 
L 0 4 
" style="stroke: #262626"/>
      </defs>
      <g>
       <use xlink:href="#mb268697394" x="73.832727" y="307.584" style="fill: #262626; stroke: #262626"/>
      </g>
     </g>
     <g id="text_1">
      <!-- 0 -->
      <g style="fill: #262626" transform="translate(69.940071 325.126812)scale(0.14 -0.14)">
       <defs>
        <path id="Helvetica-30" d="M 1731 4475 
Q 2600 4475 2988 3759 
Q 3288 3206 3288 2244 
Q 3288 1331 3016 734 
Q 2622 -122 1728 -122 
Q 922 -122 528 578 
Q 200 1163 200 2147 
Q 200 2909 397 3456 
Q 766 4475 1731 4475 
z
M 1725 391 
Q 2163 391 2422 778 
Q 2681 1166 2681 2222 
Q 2681 2984 2493 3476 
Q 2306 3969 1766 3969 
Q 1269 3969 1039 3501 
Q 809 3034 809 2125 
Q 809 1441 956 1025 
Q 1181 391 1725 391 
z
" transform="scale(0.015625)"/>
       </defs>
       <use xlink:href="#Helvetica-30"/>
      </g>
     </g>
    </g>
    <g id="xtick_2">
     <g id="line2d_2">
      <g>
       <use xlink:href="#mb268697394" x="114.414545" y="307.584" style="fill: #262626; stroke: #262626"/>
      </g>
     </g>
     <g id="text_2">
      <!-- 25 -->
      <g style="fill: #262626" transform="translate(106.629233 325.126812)scale(0.14 -0.14)">
       <defs>
        <path id="Helvetica-32" d="M 200 0 
Q 231 578 439 1006 
Q 647 1434 1250 1784 
L 1850 2131 
Q 2253 2366 2416 2531 
Q 2672 2791 2672 3125 
Q 2672 3516 2437 3745 
Q 2203 3975 1813 3975 
Q 1234 3975 1013 3538 
Q 894 3303 881 2888 
L 309 2888 
Q 319 3472 525 3841 
Q 891 4491 1816 4491 
Q 2584 4491 2939 4075 
Q 3294 3659 3294 3150 
Q 3294 2613 2916 2231 
Q 2697 2009 2131 1694 
L 1703 1456 
Q 1397 1288 1222 1134 
Q 909 863 828 531 
L 3272 531 
L 3272 0 
L 200 0 
z
" transform="scale(0.015625)"/>
        <path id="Helvetica-35" d="M 791 1141 
Q 847 659 1238 475 
Q 1438 381 1700 381 
Q 2200 381 2440 700 
Q 2681 1019 2681 1406 
Q 2681 1875 2395 2131 
Q 2109 2388 1709 2388 
Q 1419 2388 1211 2275 
Q 1003 2163 856 1963 
L 369 1991 
L 709 4400 
L 3034 4400 
L 3034 3856 
L 1131 3856 
L 941 2613 
Q 1097 2731 1238 2791 
Q 1488 2894 1816 2894 
Q 2431 2894 2859 2497 
Q 3288 2100 3288 1491 
Q 3288 856 2895 371 
Q 2503 -113 1644 -113 
Q 1097 -113 676 195 
Q 256 503 206 1141 
L 791 1141 
z
" transform="scale(0.015625)"/>
       </defs>
       <use xlink:href="#Helvetica-32"/>
       <use xlink:href="#Helvetica-35" x="55.615234"/>
      </g>
     </g>
    </g>
    <g id="xtick_3">
     <g id="line2d_3">
      <g>
       <use xlink:href="#mb268697394" x="154.996364" y="307.584" style="fill: #262626; stroke: #262626"/>
      </g>
     </g>
     <g id="text_3">
      <!-- 50 -->
      <g style="fill: #262626" transform="translate(147.211051 325.126812)scale(0.14 -0.14)">
       <use xlink:href="#Helvetica-35"/>
       <use xlink:href="#Helvetica-30" x="55.615234"/>
      </g>
     </g>
    </g>
    <g id="xtick_4">
     <g id="line2d_4">
      <g>
       <use xlink:href="#mb268697394" x="195.578182" y="307.584" style="fill: #262626; stroke: #262626"/>
      </g>
     </g>
     <g id="text_4">
      <!-- 75 -->
      <g style="fill: #262626" transform="translate(187.792869 325.126812)scale(0.14 -0.14)">
       <defs>
        <path id="Helvetica-37" d="M 3347 4400 
L 3347 3909 
Q 3131 3700 2773 3181 
Q 2416 2663 2141 2063 
Q 1869 1478 1728 997 
Q 1638 688 1494 0 
L 872 0 
Q 1084 1281 1809 2550 
Q 2238 3294 2709 3834 
L 234 3834 
L 234 4400 
L 3347 4400 
z
" transform="scale(0.015625)"/>
       </defs>
       <use xlink:href="#Helvetica-37"/>
       <use xlink:href="#Helvetica-35" x="55.615234"/>
      </g>
     </g>
    </g>
    <g id="xtick_5">
     <g id="line2d_5">
      <g>
       <use xlink:href="#mb268697394" x="236.16" y="307.584" style="fill: #262626; stroke: #262626"/>
      </g>
     </g>
     <g id="text_5">
      <!-- 100 -->
      <g style="fill: #262626" transform="translate(224.482031 325.126812)scale(0.14 -0.14)">
       <defs>
        <path id="Helvetica-31" d="M 613 3169 
L 613 3600 
Q 1222 3659 1462 3798 
Q 1703 3938 1822 4456 
L 2266 4456 
L 2266 0 
L 1666 0 
L 1666 3169 
L 613 3169 
z
" transform="scale(0.015625)"/>
       </defs>
       <use xlink:href="#Helvetica-31"/>
       <use xlink:href="#Helvetica-30" x="55.615234"/>
       <use xlink:href="#Helvetica-30" x="111.230469"/>
      </g>
     </g>
    </g>
    <g id="xtick_6">
     <g id="line2d_6">
      <g>
       <use xlink:href="#mb268697394" x="276.741818" y="307.584" style="fill: #262626; stroke: #262626"/>
      </g>
     </g>
     <g id="text_6">
      <!-- 125 -->
      <g style="fill: #262626" transform="translate(265.063849 325.126812)scale(0.14 -0.14)">
       <use xlink:href="#Helvetica-31"/>
       <use xlink:href="#Helvetica-32" x="55.615234"/>
       <use xlink:href="#Helvetica-35" x="111.230469"/>
      </g>
     </g>
    </g>
    <g id="xtick_7">
     <g id="line2d_7">
      <g>
       <use xlink:href="#mb268697394" x="317.323636" y="307.584" style="fill: #262626; stroke: #262626"/>
      </g>
     </g>
     <g id="text_7">
      <!-- 150 -->
      <g style="fill: #262626" transform="translate(305.645668 325.126812)scale(0.14 -0.14)">
       <use xlink:href="#Helvetica-31"/>
       <use xlink:href="#Helvetica-35" x="55.615234"/>
       <use xlink:href="#Helvetica-30" x="111.230469"/>
      </g>
     </g>
    </g>
    <g id="xtick_8">
     <g id="line2d_8">
      <g>
       <use xlink:href="#mb268697394" x="357.905455" y="307.584" style="fill: #262626; stroke: #262626"/>
      </g>
     </g>
     <g id="text_8">
      <!-- 175 -->
      <g style="fill: #262626" transform="translate(346.227486 325.126812)scale(0.14 -0.14)">
       <use xlink:href="#Helvetica-31"/>
       <use xlink:href="#Helvetica-37" x="55.615234"/>
       <use xlink:href="#Helvetica-35" x="111.230469"/>
      </g>
     </g>
    </g>
    <g id="xtick_9">
     <g id="line2d_9">
      <g>
       <use xlink:href="#mb268697394" x="398.487273" y="307.584" style="fill: #262626; stroke: #262626"/>
      </g>
     </g>
     <g id="text_9">
      <!-- 200 -->
      <g style="fill: #262626" transform="translate(386.809304 325.126812)scale(0.14 -0.14)">
       <use xlink:href="#Helvetica-32"/>
       <use xlink:href="#Helvetica-30" x="55.615234"/>
       <use xlink:href="#Helvetica-30" x="111.230469"/>
      </g>
     </g>
    </g>
    <g id="text_10">
     <!-- Time (hours) -->
     <g style="fill: #262626" transform="translate(185.156719 345.089312)scale(0.18 -0.18)">
      <defs>
       <path id="Helvetica-54" d="M 3828 4591 
L 3828 4044 
L 2281 4044 
L 2281 0 
L 1650 0 
L 1650 4044 
L 103 4044 
L 103 4591 
L 3828 4591 
z
" transform="scale(0.015625)"/>
       <path id="Helvetica-69" d="M 413 3331 
L 984 3331 
L 984 0 
L 413 0 
L 413 3331 
z
M 413 4591 
L 984 4591 
L 984 3953 
L 413 3953 
L 413 4591 
z
" transform="scale(0.015625)"/>
       <path id="Helvetica-6d" d="M 413 3347 
L 969 3347 
L 969 2872 
Q 1169 3119 1331 3231 
Q 1609 3422 1963 3422 
Q 2363 3422 2606 3225 
Q 2744 3113 2856 2894 
Q 3044 3163 3297 3292 
Q 3550 3422 3866 3422 
Q 4541 3422 4784 2934 
Q 4916 2672 4916 2228 
L 4916 0 
L 4331 0 
L 4331 2325 
Q 4331 2659 4164 2784 
Q 3997 2909 3756 2909 
Q 3425 2909 3186 2687 
Q 2947 2466 2947 1947 
L 2947 0 
L 2375 0 
L 2375 2184 
Q 2375 2525 2294 2681 
Q 2166 2916 1816 2916 
Q 1497 2916 1236 2669 
Q 975 2422 975 1775 
L 975 0 
L 413 0 
L 413 3347 
z
" transform="scale(0.015625)"/>
       <path id="Helvetica-65" d="M 1806 3422 
Q 2163 3422 2497 3255 
Q 2831 3088 3006 2822 
Q 3175 2569 3231 2231 
Q 3281 2000 3281 1494 
L 828 1494 
Q 844 984 1069 676 
Q 1294 369 1766 369 
Q 2206 369 2469 659 
Q 2619 828 2681 1050 
L 3234 1050 
Q 3213 866 3089 639 
Q 2966 413 2813 269 
Q 2556 19 2178 -69 
Q 1975 -119 1719 -119 
Q 1094 -119 659 336 
Q 225 791 225 1609 
Q 225 2416 662 2919 
Q 1100 3422 1806 3422 
z
M 2703 1941 
Q 2669 2306 2544 2525 
Q 2313 2931 1772 2931 
Q 1384 2931 1121 2651 
Q 859 2372 844 1941 
L 2703 1941 
z
M 1753 3428 
L 1753 3428 
z
" transform="scale(0.015625)"/>
       <path id="Helvetica-20" transform="scale(0.015625)"/>
       <path id="Helvetica-28" d="M 1894 4666 
Q 1403 3713 1256 3263 
Q 1034 2578 1034 1681 
Q 1034 775 1288 25 
Q 1444 -438 1903 -1306 
L 1525 -1306 
Q 1069 -594 959 -397 
Q 850 -200 722 138 
Q 547 600 478 1125 
Q 444 1397 444 1644 
Q 444 2569 734 3291 
Q 919 3750 1503 4666 
L 1894 4666 
z
" transform="scale(0.015625)"/>
       <path id="Helvetica-68" d="M 413 4606 
L 975 4606 
L 975 2894 
Q 1175 3147 1334 3250 
Q 1606 3428 2013 3428 
Q 2741 3428 3000 2919 
Q 3141 2641 3141 2147 
L 3141 0 
L 2563 0 
L 2563 2109 
Q 2563 2478 2469 2650 
Q 2316 2925 1894 2925 
Q 1544 2925 1259 2684 
Q 975 2444 975 1775 
L 975 0 
L 413 0 
L 413 4606 
z
" transform="scale(0.015625)"/>
       <path id="Helvetica-6f" d="M 1741 363 
Q 2300 363 2508 786 
Q 2716 1209 2716 1728 
Q 2716 2197 2566 2491 
Q 2328 2953 1747 2953 
Q 1231 2953 997 2559 
Q 763 2166 763 1609 
Q 763 1075 997 719 
Q 1231 363 1741 363 
z
M 1763 3444 
Q 2409 3444 2856 3012 
Q 3303 2581 3303 1744 
Q 3303 934 2909 406 
Q 2516 -122 1688 -122 
Q 997 -122 590 345 
Q 184 813 184 1600 
Q 184 2444 612 2944 
Q 1041 3444 1763 3444 
z
M 1744 3428 
L 1744 3428 
z
" transform="scale(0.015625)"/>
       <path id="Helvetica-75" d="M 975 3347 
L 975 1125 
Q 975 869 1056 706 
Q 1206 406 1616 406 
Q 2203 406 2416 931 
Q 2531 1213 2531 1703 
L 2531 3347 
L 3094 3347 
L 3094 0 
L 2563 0 
L 2569 494 
Q 2459 303 2297 172 
Q 1975 -91 1516 -91 
Q 800 -91 541 388 
Q 400 644 400 1072 
L 400 3347 
L 975 3347 
z
M 1747 3428 
L 1747 3428 
z
" transform="scale(0.015625)"/>
       <path id="Helvetica-72" d="M 428 3347 
L 963 3347 
L 963 2769 
Q 1028 2938 1284 3180 
Q 1541 3422 1875 3422 
Q 1891 3422 1928 3419 
Q 1966 3416 2056 3406 
L 2056 2813 
Q 2006 2822 1964 2825 
Q 1922 2828 1872 2828 
Q 1447 2828 1219 2554 
Q 991 2281 991 1925 
L 991 0 
L 428 0 
L 428 3347 
z
" transform="scale(0.015625)"/>
       <path id="Helvetica-73" d="M 747 1050 
Q 772 769 888 619 
Q 1100 347 1625 347 
Q 1938 347 2175 483 
Q 2413 619 2413 903 
Q 2413 1119 2222 1231 
Q 2100 1300 1741 1391 
L 1294 1503 
Q 866 1609 663 1741 
Q 300 1969 300 2372 
Q 300 2847 642 3140 
Q 984 3434 1563 3434 
Q 2319 3434 2653 2991 
Q 2863 2709 2856 2384 
L 2325 2384 
Q 2309 2575 2191 2731 
Q 1997 2953 1519 2953 
Q 1200 2953 1036 2831 
Q 872 2709 872 2509 
Q 872 2291 1088 2159 
Q 1213 2081 1456 2022 
L 1828 1931 
Q 2434 1784 2641 1647 
Q 2969 1431 2969 969 
Q 2969 522 2630 197 
Q 2291 -128 1597 -128 
Q 850 -128 539 211 
Q 228 550 206 1050 
L 747 1050 
z
M 1578 3428 
L 1578 3428 
z
" transform="scale(0.015625)"/>
       <path id="Helvetica-29" d="M 222 -1306 
Q 719 -338 863 106 
Q 1081 778 1081 1681 
Q 1081 2584 828 3334 
Q 672 3797 213 4666 
L 591 4666 
Q 1072 3897 1173 3717 
Q 1275 3538 1394 3222 
Q 1544 2831 1608 2450 
Q 1672 2069 1672 1716 
Q 1672 791 1378 66 
Q 1194 -400 613 -1306 
L 222 -1306 
z
" transform="scale(0.015625)"/>
      </defs>
      <use xlink:href="#Helvetica-54"/>
      <use xlink:href="#Helvetica-69" x="61.083984"/>
      <use xlink:href="#Helvetica-6d" x="83.300781"/>
      <use xlink:href="#Helvetica-65" x="166.601562"/>
      <use xlink:href="#Helvetica-20" x="222.216797"/>
      <use xlink:href="#Helvetica-28" x="250"/>
      <use xlink:href="#Helvetica-68" x="283.300781"/>
      <use xlink:href="#Helvetica-6f" x="338.916016"/>
      <use xlink:href="#Helvetica-75" x="394.53125"/>
      <use xlink:href="#Helvetica-72" x="450.146484"/>
      <use xlink:href="#Helvetica-73" x="483.447266"/>
      <use xlink:href="#Helvetica-29" x="533.447266"/>
     </g>
    </g>
   </g>
   <g id="matplotlib.axis_2">
    <g id="ytick_1">
     <g id="line2d_10">
      <defs>
       <path id="m8114b52cca" d="M 0 0 
L -4 0 
" style="stroke: #262626"/>
      </defs>
      <g>
       <use xlink:href="#m8114b52cca" x="57.6" y="295.488" style="fill: #262626; stroke: #262626"/>
      </g>
     </g>
     <g id="text_11">
      <!-- 0 -->
      <g style="fill: #262626" transform="translate(42.314687 300.509406)scale(0.14 -0.14)">
       <use xlink:href="#Helvetica-30"/>
      </g>
     </g>
    </g>
    <g id="ytick_2">
     <g id="line2d_11">
      <g>
       <use xlink:href="#m8114b52cca" x="57.6" y="251.502545" style="fill: #262626; stroke: #262626"/>
      </g>
     </g>
     <g id="text_12">
      <!-- 2 -->
      <g style="fill: #262626" transform="translate(42.314687 256.523952)scale(0.14 -0.14)">
       <use xlink:href="#Helvetica-32"/>
      </g>
     </g>
    </g>
    <g id="ytick_3">
     <g id="line2d_12">
      <g>
       <use xlink:href="#m8114b52cca" x="57.6" y="207.517091" style="fill: #262626; stroke: #262626"/>
      </g>
     </g>
     <g id="text_13">
      <!-- 4 -->
      <g style="fill: #262626" transform="translate(42.314687 212.538497)scale(0.14 -0.14)">
       <defs>
        <path id="Helvetica-34" d="M 2116 1584 
L 2116 3613 
L 681 1584 
L 2116 1584 
z
M 2125 0 
L 2125 1094 
L 163 1094 
L 163 1644 
L 2213 4488 
L 2688 4488 
L 2688 1584 
L 3347 1584 
L 3347 1094 
L 2688 1094 
L 2688 0 
L 2125 0 
z
" transform="scale(0.015625)"/>
       </defs>
       <use xlink:href="#Helvetica-34"/>
      </g>
     </g>
    </g>
    <g id="ytick_4">
     <g id="line2d_13">
      <g>
       <use xlink:href="#m8114b52cca" x="57.6" y="163.531636" style="fill: #262626; stroke: #262626"/>
      </g>
     </g>
     <g id="text_14">
      <!-- 6 -->
      <g style="fill: #262626" transform="translate(42.314687 168.553043)scale(0.14 -0.14)">
       <defs>
        <path id="Helvetica-36" d="M 1872 4494 
Q 2622 4494 2917 4105 
Q 3213 3716 3213 3303 
L 2656 3303 
Q 2606 3569 2497 3719 
Q 2294 4000 1881 4000 
Q 1409 4000 1131 3564 
Q 853 3128 822 2316 
Q 1016 2600 1309 2741 
Q 1578 2866 1909 2866 
Q 2472 2866 2890 2506 
Q 3309 2147 3309 1434 
Q 3309 825 2912 354 
Q 2516 -116 1781 -116 
Q 1153 -116 697 361 
Q 241 838 241 1966 
Q 241 2800 444 3381 
Q 834 4494 1872 4494 
z
M 1831 384 
Q 2275 384 2495 682 
Q 2716 981 2716 1388 
Q 2716 1731 2519 2042 
Q 2322 2353 1803 2353 
Q 1441 2353 1167 2112 
Q 894 1872 894 1388 
Q 894 963 1142 673 
Q 1391 384 1831 384 
z
" transform="scale(0.015625)"/>
       </defs>
       <use xlink:href="#Helvetica-36"/>
      </g>
     </g>
    </g>
    <g id="ytick_5">
     <g id="line2d_14">
      <g>
       <use xlink:href="#m8114b52cca" x="57.6" y="119.546182" style="fill: #262626; stroke: #262626"/>
      </g>
     </g>
     <g id="text_15">
      <!-- 8 -->
      <g style="fill: #262626" transform="translate(42.314687 124.567588)scale(0.14 -0.14)">
       <defs>
        <path id="Helvetica-38" d="M 1741 2600 
Q 2113 2600 2322 2808 
Q 2531 3016 2531 3303 
Q 2531 3553 2331 3762 
Q 2131 3972 1722 3972 
Q 1316 3972 1134 3762 
Q 953 3553 953 3272 
Q 953 2956 1187 2778 
Q 1422 2600 1741 2600 
z
M 1775 384 
Q 2166 384 2423 595 
Q 2681 806 2681 1225 
Q 2681 1659 2415 1884 
Q 2150 2109 1734 2109 
Q 1331 2109 1076 1879 
Q 822 1650 822 1244 
Q 822 894 1055 639 
Q 1288 384 1775 384 
z
M 975 2384 
Q 741 2484 609 2619 
Q 363 2869 363 3269 
Q 363 3769 725 4128 
Q 1088 4488 1753 4488 
Q 2397 4488 2762 4148 
Q 3128 3809 3128 3356 
Q 3128 2938 2916 2678 
Q 2797 2531 2547 2391 
Q 2825 2263 2984 2097 
Q 3281 1784 3281 1284 
Q 3281 694 2884 283 
Q 2488 -128 1763 -128 
Q 1109 -128 657 226 
Q 206 581 206 1256 
Q 206 1653 400 1942 
Q 594 2231 975 2384 
z
" transform="scale(0.015625)"/>
       </defs>
       <use xlink:href="#Helvetica-38"/>
      </g>
     </g>
    </g>
    <g id="ytick_6">
     <g id="line2d_15">
      <g>
       <use xlink:href="#m8114b52cca" x="57.6" y="75.560727" style="fill: #262626; stroke: #262626"/>
      </g>
     </g>
     <g id="text_16">
      <!-- 10 -->
      <g style="fill: #262626" transform="translate(34.529375 80.582134)scale(0.14 -0.14)">
       <use xlink:href="#Helvetica-31"/>
       <use xlink:href="#Helvetica-30" x="55.615234"/>
      </g>
     </g>
    </g>
    <g id="ytick_7">
     <g id="line2d_16">
      <defs>
       <path id="mb36bad66d5" d="M 0 0 
L -2 0 
" style="stroke: #262626"/>
      </defs>
      <g>
       <use xlink:href="#mb36bad66d5" x="57.6" y="306.484364" style="fill: #262626; stroke: #262626"/>
      </g>
     </g>
    </g>
    <g id="ytick_8">
     <g id="line2d_17">
      <g>
       <use xlink:href="#mb36bad66d5" x="57.6" y="284.491636" style="fill: #262626; stroke: #262626"/>
      </g>
     </g>
    </g>
    <g id="ytick_9">
     <g id="line2d_18">
      <g>
       <use xlink:href="#mb36bad66d5" x="57.6" y="273.495273" style="fill: #262626; stroke: #262626"/>
      </g>
     </g>
    </g>
    <g id="ytick_10">
     <g id="line2d_19">
      <g>
       <use xlink:href="#mb36bad66d5" x="57.6" y="262.498909" style="fill: #262626; stroke: #262626"/>
      </g>
     </g>
    </g>
    <g id="ytick_11">
     <g id="line2d_20">
      <g>
       <use xlink:href="#mb36bad66d5" x="57.6" y="240.506182" style="fill: #262626; stroke: #262626"/>
      </g>
     </g>
    </g>
    <g id="ytick_12">
     <g id="line2d_21">
      <g>
       <use xlink:href="#mb36bad66d5" x="57.6" y="229.509818" style="fill: #262626; stroke: #262626"/>
      </g>
     </g>
    </g>
    <g id="ytick_13">
     <g id="line2d_22">
      <g>
       <use xlink:href="#mb36bad66d5" x="57.6" y="218.513455" style="fill: #262626; stroke: #262626"/>
      </g>
     </g>
    </g>
    <g id="ytick_14">
     <g id="line2d_23">
      <g>
       <use xlink:href="#mb36bad66d5" x="57.6" y="196.520727" style="fill: #262626; stroke: #262626"/>
      </g>
     </g>
    </g>
    <g id="ytick_15">
     <g id="line2d_24">
      <g>
       <use xlink:href="#mb36bad66d5" x="57.6" y="185.524364" style="fill: #262626; stroke: #262626"/>
      </g>
     </g>
    </g>
    <g id="ytick_16">
     <g id="line2d_25">
      <g>
       <use xlink:href="#mb36bad66d5" x="57.6" y="174.528" style="fill: #262626; stroke: #262626"/>
      </g>
     </g>
    </g>
    <g id="ytick_17">
     <g id="line2d_26">
      <g>
       <use xlink:href="#mb36bad66d5" x="57.6" y="152.535273" style="fill: #262626; stroke: #262626"/>
      </g>
     </g>
    </g>
    <g id="ytick_18">
     <g id="line2d_27">
      <g>
       <use xlink:href="#mb36bad66d5" x="57.6" y="141.538909" style="fill: #262626; stroke: #262626"/>
      </g>
     </g>
    </g>
    <g id="ytick_19">
     <g id="line2d_28">
      <g>
       <use xlink:href="#mb36bad66d5" x="57.6" y="130.542545" style="fill: #262626; stroke: #262626"/>
      </g>
     </g>
    </g>
    <g id="ytick_20">
     <g id="line2d_29">
      <g>
       <use xlink:href="#mb36bad66d5" x="57.6" y="108.549818" style="fill: #262626; stroke: #262626"/>
      </g>
     </g>
    </g>
    <g id="ytick_21">
     <g id="line2d_30">
      <g>
       <use xlink:href="#mb36bad66d5" x="57.6" y="97.553455" style="fill: #262626; stroke: #262626"/>
      </g>
     </g>
    </g>
    <g id="ytick_22">
     <g id="line2d_31">
      <g>
       <use xlink:href="#mb36bad66d5" x="57.6" y="86.557091" style="fill: #262626; stroke: #262626"/>
      </g>
     </g>
    </g>
    <g id="ytick_23">
     <g id="line2d_32">
      <g>
       <use xlink:href="#mb36bad66d5" x="57.6" y="64.564364" style="fill: #262626; stroke: #262626"/>
      </g>
     </g>
    </g>
    <g id="ytick_24">
     <g id="line2d_33">
      <g>
       <use xlink:href="#mb36bad66d5" x="57.6" y="53.568" style="fill: #262626; stroke: #262626"/>
      </g>
     </g>
    </g>
    <g id="ytick_25">
     <g id="line2d_34">
      <g>
       <use xlink:href="#mb36bad66d5" x="57.6" y="42.571636" style="fill: #262626; stroke: #262626"/>
      </g>
     </g>
    </g>
    <g id="text_17">
     <!-- Concentration (nM) -->
     <g style="fill: #262626" transform="translate(26.7775 251.553937)rotate(-90)scale(0.18 -0.18)">
      <defs>
       <path id="Helvetica-43" d="M 2422 4716 
Q 3294 4716 3775 4256 
Q 4256 3797 4309 3213 
L 3703 3213 
Q 3600 3656 3292 3915 
Q 2984 4175 2428 4175 
Q 1750 4175 1333 3698 
Q 916 3222 916 2238 
Q 916 1431 1292 929 
Q 1669 428 2416 428 
Q 3103 428 3463 956 
Q 3653 1234 3747 1688 
L 4353 1688 
Q 4272 963 3816 472 
Q 3269 -119 2341 -119 
Q 1541 -119 997 366 
Q 281 1006 281 2344 
Q 281 3359 819 4009 
Q 1400 4716 2422 4716 
z
M 2297 4716 
L 2297 4716 
z
" transform="scale(0.015625)"/>
       <path id="Helvetica-6e" d="M 413 3347 
L 947 3347 
L 947 2872 
Q 1184 3166 1450 3294 
Q 1716 3422 2041 3422 
Q 2753 3422 3003 2925 
Q 3141 2653 3141 2147 
L 3141 0 
L 2569 0 
L 2569 2109 
Q 2569 2416 2478 2603 
Q 2328 2916 1934 2916 
Q 1734 2916 1606 2875 
Q 1375 2806 1200 2600 
Q 1059 2434 1017 2257 
Q 975 2081 975 1753 
L 975 0 
L 413 0 
L 413 3347 
z
M 1734 3428 
L 1734 3428 
z
" transform="scale(0.015625)"/>
       <path id="Helvetica-63" d="M 1703 3444 
Q 2269 3444 2623 3169 
Q 2978 2894 3050 2222 
L 2503 2222 
Q 2453 2531 2275 2736 
Q 2097 2941 1703 2941 
Q 1166 2941 934 2416 
Q 784 2075 784 1575 
Q 784 1072 996 728 
Q 1209 384 1666 384 
Q 2016 384 2220 598 
Q 2425 813 2503 1184 
L 3050 1184 
Q 2956 519 2581 211 
Q 2206 -97 1622 -97 
Q 966 -97 575 383 
Q 184 863 184 1581 
Q 184 2463 612 2953 
Q 1041 3444 1703 3444 
z
M 1616 3428 
L 1616 3428 
z
" transform="scale(0.015625)"/>
       <path id="Helvetica-74" d="M 525 4281 
L 1094 4281 
L 1094 3347 
L 1628 3347 
L 1628 2888 
L 1094 2888 
L 1094 703 
Q 1094 528 1213 469 
Q 1278 434 1431 434 
Q 1472 434 1519 436 
Q 1566 438 1628 444 
L 1628 0 
Q 1531 -28 1426 -40 
Q 1322 -53 1200 -53 
Q 806 -53 665 148 
Q 525 350 525 672 
L 525 2888 
L 72 2888 
L 72 3347 
L 525 3347 
L 525 4281 
z
" transform="scale(0.015625)"/>
       <path id="Helvetica-61" d="M 844 891 
Q 844 647 1022 506 
Q 1200 366 1444 366 
Q 1741 366 2019 503 
Q 2488 731 2488 1250 
L 2488 1703 
Q 2384 1638 2221 1594 
Q 2059 1550 1903 1531 
L 1563 1488 
Q 1256 1447 1103 1359 
Q 844 1213 844 891 
z
M 2206 2028 
Q 2400 2053 2466 2191 
Q 2503 2266 2503 2406 
Q 2503 2694 2298 2823 
Q 2094 2953 1713 2953 
Q 1272 2953 1088 2716 
Q 984 2584 953 2325 
L 428 2325 
Q 444 2944 830 3186 
Q 1216 3428 1725 3428 
Q 2316 3428 2684 3203 
Q 3050 2978 3050 2503 
L 3050 575 
Q 3050 488 3086 434 
Q 3122 381 3238 381 
Q 3275 381 3322 386 
Q 3369 391 3422 400 
L 3422 -16 
Q 3291 -53 3222 -62 
Q 3153 -72 3034 -72 
Q 2744 -72 2613 134 
Q 2544 244 2516 444 
Q 2344 219 2022 53 
Q 1700 -113 1313 -113 
Q 847 -113 551 170 
Q 256 453 256 878 
Q 256 1344 547 1600 
Q 838 1856 1309 1916 
L 2206 2028 
z
M 1741 3428 
L 1741 3428 
z
" transform="scale(0.015625)"/>
       <path id="Helvetica-4d" d="M 472 4591 
L 1363 4591 
L 2681 709 
L 3991 4591 
L 4872 4591 
L 4872 0 
L 4281 0 
L 4281 2709 
Q 4281 2850 4287 3175 
Q 4294 3500 4294 3872 
L 2984 0 
L 2369 0 
L 1050 3872 
L 1050 3731 
Q 1050 3563 1058 3217 
Q 1066 2872 1066 2709 
L 1066 0 
L 472 0 
L 472 4591 
z
" transform="scale(0.015625)"/>
      </defs>
      <use xlink:href="#Helvetica-43"/>
      <use xlink:href="#Helvetica-6f" x="72.216797"/>
      <use xlink:href="#Helvetica-6e" x="127.832031"/>
      <use xlink:href="#Helvetica-63" x="183.447266"/>
      <use xlink:href="#Helvetica-65" x="233.447266"/>
      <use xlink:href="#Helvetica-6e" x="289.0625"/>
      <use xlink:href="#Helvetica-74" x="344.677734"/>
      <use xlink:href="#Helvetica-72" x="372.460938"/>
      <use xlink:href="#Helvetica-61" x="405.761719"/>
      <use xlink:href="#Helvetica-74" x="461.376953"/>
      <use xlink:href="#Helvetica-69" x="489.160156"/>
      <use xlink:href="#Helvetica-6f" x="511.376953"/>
      <use xlink:href="#Helvetica-6e" x="566.992188"/>
      <use xlink:href="#Helvetica-20" x="622.607422"/>
      <use xlink:href="#Helvetica-28" x="650.390625"/>
      <use xlink:href="#Helvetica-6e" x="683.691406"/>
      <use xlink:href="#Helvetica-4d" x="739.306641"/>
      <use xlink:href="#Helvetica-29" x="822.607422"/>
     </g>
    </g>
   </g>
   <g id="line2d_35">
    <path d="M 73.832727 53.568 
L 74.483338 177.363184 
L 75.133948 184.42145 
L 75.784558 186.542896 
L 78.386999 192.690024 
L 85.543713 209.080997 
L 88.796764 215.959605 
L 91.399206 221.021525 
L 94.001647 225.619532 
L 96.604088 229.707749 
L 98.555919 232.421043 
L 100.50775 234.823085 
L 102.459581 236.909481 
L 104.411412 238.678192 
L 106.363243 240.128755 
L 108.315074 241.261585 
L 110.266905 242.077374 
L 112.218736 242.57661 
L 114.170567 242.759212 
L 116.122398 242.624291 
L 118.074228 242.170049 
L 120.026059 241.393802 
L 121.97789 240.292155 
L 123.929721 238.861315 
L 125.881552 237.097548 
L 127.833383 234.997783 
L 129.785214 232.560355 
L 131.737045 229.785862 
L 133.688876 226.678132 
L 136.291317 222.030811 
L 138.893758 216.840185 
L 141.4962 211.160997 
L 144.749251 203.496698 
L 149.303523 192.100103 
L 155.159016 177.449465 
L 158.412068 169.954423 
L 161.014509 164.578314 
L 162.96634 161.010616 
L 164.918171 157.904815 
L 166.870002 155.30863 
L 168.171222 153.879823 
L 169.472443 152.702563 
L 170.773664 151.78277 
L 172.074884 151.12399 
L 173.376105 150.727394 
L 174.677326 150.591815 
L 175.978546 150.713809 
L 177.279767 151.087762 
L 178.580987 151.706007 
L 179.882208 152.558987 
L 181.183429 153.635419 
L 183.13526 155.640636 
L 185.087091 158.07085 
L 187.038921 160.872358 
L 189.641363 165.086295 
L 192.894414 170.926415 
L 197.448686 179.69321 
L 203.95479 192.230425 
L 207.207841 198.085013 
L 210.460893 203.478602 
L 213.063334 207.398215 
L 215.665775 210.930316 
L 218.268216 214.053371 
L 220.870658 216.754916 
L 222.822489 218.501072 
L 224.77432 220.006925 
L 226.72615 221.273721 
L 228.677981 222.303782 
L 230.629812 223.100253 
L 232.581643 223.666912 
L 234.533474 224.008027 
L 236.485305 224.128262 
L 238.437136 224.032638 
L 240.388967 223.726522 
L 242.340798 223.215664 
L 244.292629 222.506263 
L 246.24446 221.605052 
L 248.846901 220.11794 
L 251.449342 218.322737 
L 254.051784 216.242093 
L 256.654225 213.902123 
L 259.907276 210.658573 
L 263.810938 206.389829 
L 269.015821 200.287442 
L 277.473755 190.289764 
L 281.377417 186.054827 
L 284.630468 182.88279 
L 287.232909 180.643042 
L 289.835351 178.711171 
L 292.437792 177.120406 
L 294.389623 176.167186 
L 296.341454 175.428905 
L 298.293285 174.911242 
L 300.245116 174.617308 
L 302.196947 174.547646 
L 304.148778 174.700288 
L 306.100608 175.070837 
L 308.052439 175.652607 
L 310.00427 176.43678 
L 311.956101 177.412602 
L 314.558543 178.990057 
L 317.160984 180.852363 
L 319.763425 182.962377 
L 323.016477 185.887648 
L 326.920138 189.713662 
L 332.775631 195.80966 
L 341.233565 204.5832 
L 345.787837 208.954163 
L 349.691499 212.37255 
L 352.944551 214.94216 
L 356.197602 217.22866 
L 359.450654 219.211346 
L 362.053095 220.568472 
L 364.655537 221.715984 
L 367.257978 222.650116 
L 369.860419 223.368555 
L 372.46286 223.870229 
L 375.065302 224.155143 
L 377.667743 224.224257 
L 380.270184 224.079409 
L 382.872625 223.723287 
L 385.475067 223.159443 
L 388.077508 222.39234 
L 390.679949 221.427448 
L 393.933001 219.953336 
L 397.186052 218.196198 
L 398.487273 217.418255 
L 398.487273 217.418255 
" clip-path="url(#pb6aa2bec03)" style="fill: none; stroke: #4477aa; stroke-linecap: round"/>
    <defs>
     <path id="mbf63461327" d="M 0 2 
C 0.530406 2 1.03916 1.789267 1.414214 1.414214 
C 1.789267 1.03916 2 0.530406 2 0 
C 2 -0.530406 1.789267 -1.03916 1.414214 -1.414214 
C 1.03916 -1.789267 0.530406 -2 0 -2 
C -0.530406 -2 -1.03916 -1.789267 -1.414214 -1.414214 
C -1.789267 -1.03916 -2 -0.530406 -2 0 
C -2 0.530406 -1.789267 1.03916 -1.414214 1.414214 
C -1.03916 1.789267 -0.530406 2 0 2 
z
" style="stroke: #4477aa"/>
    </defs>
    <g clip-path="url(#pb6aa2bec03)">
     <use xlink:href="#mbf63461327" x="73.832727" y="53.568" style="fill: #4477aa; stroke: #4477aa"/>
     <use xlink:href="#mbf63461327" x="106.363243" y="240.128755" style="fill: #4477aa; stroke: #4477aa"/>
     <use xlink:href="#mbf63461327" x="138.893758" y="216.840185" style="fill: #4477aa; stroke: #4477aa"/>
     <use xlink:href="#mbf63461327" x="171.424274" y="151.420625" style="fill: #4477aa; stroke: #4477aa"/>
     <use xlink:href="#mbf63461327" x="203.95479" y="192.230425" style="fill: #4477aa; stroke: #4477aa"/>
     <use xlink:href="#mbf63461327" x="236.485305" y="224.128262" style="fill: #4477aa; stroke: #4477aa"/>
     <use xlink:href="#mbf63461327" x="269.015821" y="200.287442" style="fill: #4477aa; stroke: #4477aa"/>
     <use xlink:href="#mbf63461327" x="301.546336" y="174.546018" style="fill: #4477aa; stroke: #4477aa"/>
     <use xlink:href="#mbf63461327" x="334.076852" y="197.184152" style="fill: #4477aa; stroke: #4477aa"/>
     <use xlink:href="#mbf63461327" x="366.607367" y="222.436737" style="fill: #4477aa; stroke: #4477aa"/>
    </g>
   </g>
   <g id="line2d_36">
    <path d="M 73.832727 75.560727 
L 74.483338 186.596823 
L 75.133948 190.357916 
L 75.784558 189.086586 
L 77.736389 182.83639 
L 81.640051 170.186377 
L 84.242492 162.348242 
L 86.844934 155.214228 
L 88.796764 150.432407 
L 90.748595 146.212957 
L 92.700426 142.614541 
L 94.001647 140.58529 
L 95.302868 138.866026 
L 96.604088 137.466407 
L 97.905309 136.393701 
L 99.206529 135.652672 
L 100.50775 135.245496 
L 101.808971 135.171694 
L 103.110191 135.428085 
L 104.411412 136.008777 
L 105.712633 136.905183 
L 107.013853 138.106073 
L 108.315074 139.597675 
L 109.616294 141.36381 
L 111.568125 144.486943 
L 113.519956 148.1156 
L 115.471787 152.171442 
L 118.074228 158.098092 
L 121.97789 167.680394 
L 129.134604 185.406376 
L 132.387655 192.777452 
L 134.990097 198.136052 
L 137.592538 202.927735 
L 139.544369 206.11498 
L 141.4962 208.935453 
L 143.448031 211.378572 
L 145.399862 213.438159 
L 147.351692 215.111503 
L 149.303523 216.39854 
L 150.604744 217.042822 
L 151.905965 217.517151 
L 153.207185 217.822679 
L 154.508406 217.960739 
L 155.809627 217.932826 
L 157.110847 217.740579 
L 158.412068 217.385783 
L 159.713288 216.870386 
L 161.665119 215.800885 
L 163.61695 214.383034 
L 165.568781 212.626452 
L 167.520612 210.542627 
L 169.472443 208.14538 
L 171.424274 205.451343 
L 174.026715 201.432535 
L 176.629156 196.979326 
L 179.882208 190.910008 
L 183.78587 183.11193 
L 192.894414 164.660788 
L 196.147466 158.706745 
L 198.749907 154.432718 
L 200.701738 151.579701 
L 202.653569 149.070688 
L 204.6054 146.937579 
L 206.557231 145.206284 
L 207.858451 144.28521 
L 209.159672 143.555639 
L 210.460893 143.020352 
L 211.762113 142.680776 
L 213.063334 142.537009 
L 214.364555 142.587829 
L 215.665775 142.83074 
L 216.966996 143.262017 
L 218.268216 143.876771 
L 219.569437 144.669011 
L 221.521268 146.174551 
L 223.473099 148.035919 
L 225.42493 150.221597 
L 227.376761 152.696833 
L 229.979202 156.38306 
L 233.232254 161.480818 
L 237.135915 168.07515 
L 248.846901 188.185118 
L 252.099953 193.250839 
L 255.353004 197.905883 
L 257.955445 201.291769 
L 260.557887 204.351775 
L 263.160328 207.069928 
L 265.762769 209.436136 
L 268.36521 211.44519 
L 270.967652 213.095845 
L 272.919483 214.099687 
L 274.871314 214.904701 
L 276.823144 215.513282 
L 278.774975 215.928378 
L 280.726806 216.153408 
L 282.678637 216.192213 
L 284.630468 216.049025 
L 286.582299 215.728464 
L 289.18474 215.033868 
L 291.787182 214.045982 
L 294.389623 212.779397 
L 296.992064 211.250418 
L 299.594505 209.477301 
L 302.847557 206.948914 
L 306.100608 204.116204 
L 310.00427 200.387621 
L 314.558543 195.710793 
L 328.871969 180.731085 
L 332.775631 177.133257 
L 336.028683 174.460707 
L 338.631124 172.578247 
L 341.233565 170.95118 
L 343.836007 169.601186 
L 346.438448 168.545387 
L 349.040889 167.796025 
L 350.99272 167.439602 
L 352.944551 167.260794 
L 354.896382 167.259077 
L 356.848213 167.432316 
L 358.800044 167.776814 
L 361.402485 168.493359 
L 364.004926 169.488771 
L 366.607367 170.742826 
L 369.209809 172.231779 
L 372.46286 174.382392 
L 375.715912 176.801083 
L 379.619574 179.971684 
L 385.475067 185.051358 
L 394.583611 192.97849 
L 398.487273 196.136403 
L 398.487273 196.136403 
" clip-path="url(#pb6aa2bec03)" style="fill: none; stroke: #ee6677; stroke-linecap: round"/>
    <defs>
     <path id="m9e08a37754" d="M 0 -2 
L -2 2 
L 2 2 
z
" style="stroke: #ee6677; stroke-linejoin: miter"/>
    </defs>
    <g clip-path="url(#pb6aa2bec03)">
     <use xlink:href="#m9e08a37754" x="73.832727" y="75.560727" style="fill: #ee6677; stroke: #ee6677; stroke-linejoin: miter"/>
     <use xlink:href="#m9e08a37754" x="96.604088" y="137.466407" style="fill: #ee6677; stroke: #ee6677; stroke-linejoin: miter"/>
     <use xlink:href="#m9e08a37754" x="119.375449" y="161.225705" style="fill: #ee6677; stroke: #ee6677; stroke-linejoin: miter"/>
     <use xlink:href="#m9e08a37754" x="142.14681" y="209.79214" style="fill: #ee6677; stroke: #ee6677; stroke-linejoin: miter"/>
     <use xlink:href="#m9e08a37754" x="164.918171" y="213.248951" style="fill: #ee6677; stroke: #ee6677; stroke-linejoin: miter"/>
     <use xlink:href="#m9e08a37754" x="187.689532" y="175.076315" style="fill: #ee6677; stroke: #ee6677; stroke-linejoin: miter"/>
     <use xlink:href="#m9e08a37754" x="210.460893" y="143.020352" style="fill: #ee6677; stroke: #ee6677; stroke-linejoin: miter"/>
     <use xlink:href="#m9e08a37754" x="233.232254" y="161.480818" style="fill: #ee6677; stroke: #ee6677; stroke-linejoin: miter"/>
     <use xlink:href="#m9e08a37754" x="256.003614" y="198.781782" style="fill: #ee6677; stroke: #ee6677; stroke-linejoin: miter"/>
     <use xlink:href="#m9e08a37754" x="278.774975" y="215.928378" style="fill: #ee6677; stroke: #ee6677; stroke-linejoin: miter"/>
     <use xlink:href="#m9e08a37754" x="301.546336" y="207.999444" style="fill: #ee6677; stroke: #ee6677; stroke-linejoin: miter"/>
     <use xlink:href="#m9e08a37754" x="324.317697" y="185.322997" style="fill: #ee6677; stroke: #ee6677; stroke-linejoin: miter"/>
     <use xlink:href="#m9e08a37754" x="347.089058" y="168.32895" style="fill: #ee6677; stroke: #ee6677; stroke-linejoin: miter"/>
     <use xlink:href="#m9e08a37754" x="369.860419" y="172.637647" style="fill: #ee6677; stroke: #ee6677; stroke-linejoin: miter"/>
     <use xlink:href="#m9e08a37754" x="392.63178" y="191.326289" style="fill: #ee6677; stroke: #ee6677; stroke-linejoin: miter"/>
    </g>
   </g>
   <g id="line2d_37">
    <path d="M 73.832727 229.509818 
L 74.483338 263.143447 
L 75.133948 264.824471 
L 75.784558 264.903509 
L 77.085779 264.500613 
L 79.03761 263.608644 
L 80.989441 262.476615 
L 82.941272 261.097947 
L 84.893103 259.460171 
L 86.844934 257.549667 
L 88.796764 255.35218 
L 90.748595 252.853393 
L 92.700426 250.039652 
L 94.652257 246.898828 
L 96.604088 243.421342 
L 99.206529 238.25154 
L 101.808971 232.473815 
L 104.411412 226.109909 
L 107.013853 219.208138 
L 110.266905 209.948316 
L 114.821177 196.233624 
L 120.67667 178.654359 
L 123.279111 171.412083 
L 125.881552 164.823872 
L 127.833383 160.433407 
L 129.785214 156.59991 
L 131.737045 153.388478 
L 133.038266 151.619492 
L 134.339486 150.162419 
L 135.640707 149.026127 
L 136.941927 148.216274 
L 138.243148 147.735271 
L 139.544369 147.582238 
L 140.845589 147.75305 
L 142.14681 148.240421 
L 143.448031 149.034041 
L 144.749251 150.120763 
L 146.050472 151.484837 
L 147.351692 153.108186 
L 149.303523 155.98491 
L 151.255354 159.324822 
L 153.857796 164.359235 
L 157.110847 171.308233 
L 168.821833 197.106708 
L 171.424274 202.133338 
L 174.026715 206.702337 
L 176.629156 210.76526 
L 178.580987 213.461765 
L 180.532818 215.849507 
L 182.484649 217.925314 
L 184.43648 219.689031 
L 186.388311 221.142797 
L 188.340142 222.290449 
L 190.291973 223.13703 
L 192.243804 223.688413 
L 194.195635 223.951038 
L 196.147466 223.931748 
L 198.099297 223.637727 
L 200.051128 223.076506 
L 202.002959 222.256059 
L 203.95479 221.184942 
L 205.906621 219.872489 
L 207.858451 218.329035 
L 210.460893 215.931979 
L 213.063334 213.176655 
L 215.665775 210.10034 
L 218.918827 205.870694 
L 222.822489 200.366135 
L 230.629812 188.769918 
L 235.184085 182.268761 
L 238.437136 178.02756 
L 241.039577 174.98475 
L 243.642019 172.324085 
L 245.59385 170.61384 
L 247.54568 169.170865 
L 249.497511 168.011773 
L 251.449342 167.149287 
L 253.401173 166.592062 
L 255.353004 166.344546 
L 257.304835 166.406992 
L 259.256666 166.775519 
L 261.208497 167.442271 
L 263.160328 168.395659 
L 265.112159 169.620665 
L 267.06399 171.099215 
L 269.015821 172.8106 
L 271.618262 175.414819 
L 274.220703 178.333353 
L 277.473755 182.328924 
L 282.028027 188.350411 
L 293.739013 204.083661 
L 297.642674 208.853465 
L 300.895726 212.502513 
L 304.148778 215.808409 
L 306.751219 218.184762 
L 309.35366 220.310325 
L 311.956101 222.177734 
L 314.558543 223.782687 
L 317.160984 225.123385 
L 319.763425 226.20003 
L 322.365866 227.014389 
L 324.968308 227.569452 
L 327.570749 227.869171 
L 330.17319 227.918278 
L 332.775631 227.722186 
L 335.378073 227.286969 
L 337.980514 226.619398 
L 340.582955 225.727039 
L 343.185396 224.618391 
L 345.787837 223.303057 
L 349.040889 221.384982 
L 352.293941 219.185717 
L 355.546992 216.734068 
L 359.450654 213.506372 
L 364.004926 209.432694 
L 370.511029 203.277815 
L 378.968963 195.32131 
L 383.523236 191.376858 
L 386.776287 188.817624 
L 390.029339 186.532102 
L 392.63178 184.931572 
L 395.234221 183.555484 
L 397.836662 182.420372 
L 398.487273 182.17582 
L 398.487273 182.17582 
" clip-path="url(#pb6aa2bec03)" style="fill: none; stroke: #228833; stroke-linecap: round"/>
    <defs>
     <path id="m5d7afaa34f" d="M -2 2 
L 2 2 
L 2 -2 
L -2 -2 
z
" style="stroke: #228833; stroke-linejoin: miter"/>
    </defs>
    <g clip-path="url(#pb6aa2bec03)">
     <use xlink:href="#m5d7afaa34f" x="73.832727" y="229.509818" style="fill: #228833; stroke: #228833; stroke-linejoin: miter"/>
     <use xlink:href="#m5d7afaa34f" x="106.363243" y="220.980234" style="fill: #228833; stroke: #228833; stroke-linejoin: miter"/>
     <use xlink:href="#m5d7afaa34f" x="138.893758" y="147.61794" style="fill: #228833; stroke: #228833; stroke-linejoin: miter"/>
     <use xlink:href="#m5d7afaa34f" x="171.424274" y="202.133338" style="fill: #228833; stroke: #228833; stroke-linejoin: miter"/>
     <use xlink:href="#m5d7afaa34f" x="203.95479" y="221.184942" style="fill: #228833; stroke: #228833; stroke-linejoin: miter"/>
     <use xlink:href="#m5d7afaa34f" x="236.485305" y="180.521579" style="fill: #228833; stroke: #228833; stroke-linejoin: miter"/>
     <use xlink:href="#m5d7afaa34f" x="269.015821" y="172.8106" style="fill: #228833; stroke: #228833; stroke-linejoin: miter"/>
     <use xlink:href="#m5d7afaa34f" x="301.546336" y="213.192306" style="fill: #228833; stroke: #228833; stroke-linejoin: miter"/>
     <use xlink:href="#m5d7afaa34f" x="334.076852" y="227.534062" style="fill: #228833; stroke: #228833; stroke-linejoin: miter"/>
     <use xlink:href="#m5d7afaa34f" x="366.607367" y="207.000529" style="fill: #228833; stroke: #228833; stroke-linejoin: miter"/>
    </g>
   </g>
   <g id="line2d_38">
    <path d="M 73.832727 295.488 
L 74.483338 295.299369 
L 82.290661 295.25421 
L 125.230942 295.141567 
L 179.231598 295.356435 
L 398.487273 295.41015 
L 398.487273 295.41015 
" clip-path="url(#pb6aa2bec03)" style="fill: none; stroke-dasharray: 3.7,1.6; stroke-dashoffset: 0; stroke: #4477aa"/>
    <g clip-path="url(#pb6aa2bec03)">
     <use xlink:href="#mbf63461327" x="73.832727" y="295.488" style="fill: #4477aa; stroke: #4477aa"/>
     <use xlink:href="#mbf63461327" x="112.869346" y="295.103628" style="fill: #4477aa; stroke: #4477aa"/>
     <use xlink:href="#mbf63461327" x="151.905965" y="295.3081" style="fill: #4477aa; stroke: #4477aa"/>
     <use xlink:href="#mbf63461327" x="190.942583" y="295.348019" style="fill: #4477aa; stroke: #4477aa"/>
     <use xlink:href="#mbf63461327" x="229.979202" y="295.28473" style="fill: #4477aa; stroke: #4477aa"/>
     <use xlink:href="#mbf63461327" x="269.015821" y="295.355643" style="fill: #4477aa; stroke: #4477aa"/>
     <use xlink:href="#mbf63461327" x="308.052439" y="295.400488" style="fill: #4477aa; stroke: #4477aa"/>
     <use xlink:href="#mbf63461327" x="347.089058" y="295.392034" style="fill: #4477aa; stroke: #4477aa"/>
     <use xlink:href="#mbf63461327" x="386.125677" y="295.398474" style="fill: #4477aa; stroke: #4477aa"/>
    </g>
   </g>
   <g id="line2d_39">
    <path d="M 73.832727 295.488 
L 74.483338 295.285218 
L 80.33883 295.302303 
L 112.869346 295.339876 
L 188.340142 295.339965 
L 239.738357 295.367844 
L 320.414035 295.396555 
L 398.487273 295.425801 
L 398.487273 295.425801 
" clip-path="url(#pb6aa2bec03)" style="fill: none; stroke-dasharray: 3.7,1.6; stroke-dashoffset: 0; stroke: #ee6677"/>
    <g clip-path="url(#pb6aa2bec03)">
     <use xlink:href="#m9e08a37754" x="73.832727" y="295.488" style="fill: #ee6677; stroke: #ee6677; stroke-linejoin: miter"/>
     <use xlink:href="#m9e08a37754" x="103.760802" y="295.347003" style="fill: #ee6677; stroke: #ee6677; stroke-linejoin: miter"/>
     <use xlink:href="#m9e08a37754" x="133.688876" y="295.284418" style="fill: #ee6677; stroke: #ee6677; stroke-linejoin: miter"/>
     <use xlink:href="#m9e08a37754" x="163.61695" y="295.25706" style="fill: #ee6677; stroke: #ee6677; stroke-linejoin: miter"/>
     <use xlink:href="#m9e08a37754" x="193.545025" y="295.352742" style="fill: #ee6677; stroke: #ee6677; stroke-linejoin: miter"/>
     <use xlink:href="#m9e08a37754" x="223.473099" y="295.378427" style="fill: #ee6677; stroke: #ee6677; stroke-linejoin: miter"/>
     <use xlink:href="#m9e08a37754" x="253.401173" y="295.352356" style="fill: #ee6677; stroke: #ee6677; stroke-linejoin: miter"/>
     <use xlink:href="#m9e08a37754" x="283.329248" y="295.342395" style="fill: #ee6677; stroke: #ee6677; stroke-linejoin: miter"/>
     <use xlink:href="#m9e08a37754" x="313.257322" y="295.386173" style="fill: #ee6677; stroke: #ee6677; stroke-linejoin: miter"/>
     <use xlink:href="#m9e08a37754" x="343.185396" y="295.418934" style="fill: #ee6677; stroke: #ee6677; stroke-linejoin: miter"/>
     <use xlink:href="#m9e08a37754" x="373.113471" y="295.427669" style="fill: #ee6677; stroke: #ee6677; stroke-linejoin: miter"/>
    </g>
   </g>
   <g id="line2d_40">
    <path d="M 73.832727 295.488 
L 74.483338 294.896588 
L 75.784558 294.805458 
L 88.146154 294.95842 
L 115.471787 295.279518 
L 144.749251 295.345831 
L 330.8238 295.357152 
L 398.487273 295.4328 
L 398.487273 295.4328 
" clip-path="url(#pb6aa2bec03)" style="fill: none; stroke-dasharray: 3.7,1.6; stroke-dashoffset: 0; stroke: #228833"/>
    <g clip-path="url(#pb6aa2bec03)">
     <use xlink:href="#m5d7afaa34f" x="73.832727" y="295.488" style="fill: #228833; stroke: #228833; stroke-linejoin: miter"/>
     <use xlink:href="#m5d7afaa34f" x="108.315074" y="295.225473" style="fill: #228833; stroke: #228833; stroke-linejoin: miter"/>
     <use xlink:href="#m5d7afaa34f" x="142.79742" y="295.346506" style="fill: #228833; stroke: #228833; stroke-linejoin: miter"/>
     <use xlink:href="#m5d7afaa34f" x="177.279767" y="295.27311" style="fill: #228833; stroke: #228833; stroke-linejoin: miter"/>
     <use xlink:href="#m5d7afaa34f" x="211.762113" y="295.289973" style="fill: #228833; stroke: #228833; stroke-linejoin: miter"/>
     <use xlink:href="#m5d7afaa34f" x="246.24446" y="295.373322" style="fill: #228833; stroke: #228833; stroke-linejoin: miter"/>
     <use xlink:href="#m5d7afaa34f" x="280.726806" y="295.377951" style="fill: #228833; stroke: #228833; stroke-linejoin: miter"/>
     <use xlink:href="#m5d7afaa34f" x="315.209153" y="295.352541" style="fill: #228833; stroke: #228833; stroke-linejoin: miter"/>
     <use xlink:href="#m5d7afaa34f" x="349.691499" y="295.380548" style="fill: #228833; stroke: #228833; stroke-linejoin: miter"/>
     <use xlink:href="#m5d7afaa34f" x="384.173846" y="295.423562" style="fill: #228833; stroke: #228833; stroke-linejoin: miter"/>
    </g>
   </g>
   <g id="patch_3">
    <path d="M 57.6 307.584 
L 57.6 41.472 
" style="fill: none; stroke: #262626; stroke-width: 0.5; stroke-linejoin: miter; stroke-linecap: square"/>
   </g>
   <g id="patch_4">
    <path d="M 57.6 307.584 
L 414.72 307.584 
" style="fill: none; stroke: #262626; stroke-width: 0.5; stroke-linejoin: miter; stroke-linecap: square"/>
   </g>
   <g id="legend_1">
    <g id="line2d_41">
     <path d="M 285 134.412187 
L 303 134.412187 
L 321 134.412187 
" style="fill: none; stroke: #4477aa; stroke-linecap: round"/>
     <g>
      <use xlink:href="#mbf63461327" x="303" y="134.412187" style="fill: #4477aa; stroke: #4477aa"/>
     </g>
    </g>
    <g id="text_18">
     <!-- A 100X -->
     <g style="fill: #262626" transform="translate(335.4 140.712187)scale(0.18 -0.18)">
      <defs>
       <path id="Helvetica-41" d="M 2844 1881 
L 2147 3909 
L 1406 1881 
L 2844 1881 
z
M 1822 4591 
L 2525 4591 
L 4191 0 
L 3509 0 
L 3044 1375 
L 1228 1375 
L 731 0 
L 94 0 
L 1822 4591 
z
" transform="scale(0.015625)"/>
       <path id="Helvetica-58" d="M 881 0 
L 131 0 
L 1775 2353 
L 234 4591 
L 1013 4591 
L 2184 2834 
L 3347 4591 
L 4088 4591 
L 2547 2353 
L 4163 0 
L 3391 0 
L 2153 1888 
L 881 0 
z
" transform="scale(0.015625)"/>
      </defs>
      <use xlink:href="#Helvetica-41"/>
      <use xlink:href="#Helvetica-20" x="66.699219"/>
      <use xlink:href="#Helvetica-31" x="94.482422"/>
      <use xlink:href="#Helvetica-30" x="150.097656"/>
      <use xlink:href="#Helvetica-30" x="205.712891"/>
      <use xlink:href="#Helvetica-58" x="261.328125"/>
     </g>
    </g>
    <g id="line2d_42">
     <path d="M 285 160.07625 
L 303 160.07625 
L 321 160.07625 
" style="fill: none; stroke: #ee6677; stroke-linecap: round"/>
     <g>
      <use xlink:href="#m9e08a37754" x="303" y="160.07625" style="fill: #ee6677; stroke: #ee6677; stroke-linejoin: miter"/>
     </g>
    </g>
    <g id="text_19">
     <!-- B 100X -->
     <g style="fill: #262626" transform="translate(335.4 166.37625)scale(0.18 -0.18)">
      <defs>
       <path id="Helvetica-42" d="M 2213 2650 
Q 2606 2650 2825 2759 
Q 3169 2931 3169 3378 
Q 3169 3828 2803 3984 
Q 2597 4072 2191 4072 
L 1081 4072 
L 1081 2650 
L 2213 2650 
z
M 2422 531 
Q 2994 531 3238 863 
Q 3391 1072 3391 1369 
Q 3391 1869 2944 2050 
Q 2706 2147 2316 2147 
L 1081 2147 
L 1081 531 
L 2422 531 
z
M 472 4591 
L 2444 4591 
Q 3250 4591 3591 4109 
Q 3791 3825 3791 3453 
Q 3791 3019 3544 2741 
Q 3416 2594 3175 2472 
Q 3528 2338 3703 2169 
Q 4013 1869 4013 1341 
Q 4013 897 3734 538 
Q 3319 0 2413 0 
L 472 0 
L 472 4591 
z
" transform="scale(0.015625)"/>
      </defs>
      <use xlink:href="#Helvetica-42"/>
      <use xlink:href="#Helvetica-20" x="66.699219"/>
      <use xlink:href="#Helvetica-31" x="94.482422"/>
      <use xlink:href="#Helvetica-30" x="150.097656"/>
      <use xlink:href="#Helvetica-30" x="205.712891"/>
      <use xlink:href="#Helvetica-58" x="261.328125"/>
     </g>
    </g>
    <g id="line2d_43">
     <path d="M 285 185.740312 
L 303 185.740312 
L 321 185.740312 
" style="fill: none; stroke: #228833; stroke-linecap: round"/>
     <g>
      <use xlink:href="#m5d7afaa34f" x="303" y="185.740312" style="fill: #228833; stroke: #228833; stroke-linejoin: miter"/>
     </g>
    </g>
    <g id="text_20">
     <!-- C 100X -->
     <g style="fill: #262626" transform="translate(335.4 192.040312)scale(0.18 -0.18)">
      <use xlink:href="#Helvetica-43"/>
      <use xlink:href="#Helvetica-20" x="72.216797"/>
      <use xlink:href="#Helvetica-31" x="100"/>
      <use xlink:href="#Helvetica-30" x="155.615234"/>
      <use xlink:href="#Helvetica-30" x="211.230469"/>
      <use xlink:href="#Helvetica-58" x="266.845703"/>
     </g>
    </g>
    <g id="line2d_44">
     <path d="M 285 211.404375 
L 303 211.404375 
L 321 211.404375 
" style="fill: none; stroke-dasharray: 3.7,1.6; stroke-dashoffset: 0; stroke: #4477aa"/>
     <g>
      <use xlink:href="#mbf63461327" x="303" y="211.404375" style="fill: #4477aa; stroke: #4477aa"/>
     </g>
    </g>
    <g id="text_21">
     <!-- shA 100X -->
     <g style="fill: #262626" transform="translate(335.4 217.704375)scale(0.18 -0.18)">
      <use xlink:href="#Helvetica-73"/>
      <use xlink:href="#Helvetica-68" x="50"/>
      <use xlink:href="#Helvetica-41" x="105.615234"/>
      <use xlink:href="#Helvetica-20" x="172.314453"/>
      <use xlink:href="#Helvetica-31" x="200.097656"/>
      <use xlink:href="#Helvetica-30" x="255.712891"/>
      <use xlink:href="#Helvetica-30" x="311.328125"/>
      <use xlink:href="#Helvetica-58" x="366.943359"/>
     </g>
    </g>
    <g id="line2d_45">
     <path d="M 285 237.068437 
L 303 237.068437 
L 321 237.068437 
" style="fill: none; stroke-dasharray: 3.7,1.6; stroke-dashoffset: 0; stroke: #ee6677"/>
     <g>
      <use xlink:href="#m9e08a37754" x="303" y="237.068437" style="fill: #ee6677; stroke: #ee6677; stroke-linejoin: miter"/>
     </g>
    </g>
    <g id="text_22">
     <!-- shB 100X -->
     <g style="fill: #262626" transform="translate(335.4 243.368437)scale(0.18 -0.18)">
      <use xlink:href="#Helvetica-73"/>
      <use xlink:href="#Helvetica-68" x="50"/>
      <use xlink:href="#Helvetica-42" x="105.615234"/>
      <use xlink:href="#Helvetica-20" x="172.314453"/>
      <use xlink:href="#Helvetica-31" x="200.097656"/>
      <use xlink:href="#Helvetica-30" x="255.712891"/>
      <use xlink:href="#Helvetica-30" x="311.328125"/>
      <use xlink:href="#Helvetica-58" x="366.943359"/>
     </g>
    </g>
    <g id="line2d_46">
     <path d="M 285 262.7325 
L 303 262.7325 
L 321 262.7325 
" style="fill: none; stroke-dasharray: 3.7,1.6; stroke-dashoffset: 0; stroke: #228833"/>
     <g>
      <use xlink:href="#m5d7afaa34f" x="303" y="262.7325" style="fill: #228833; stroke: #228833; stroke-linejoin: miter"/>
     </g>
    </g>
    <g id="text_23">
     <!-- shC 100X -->
     <g style="fill: #262626" transform="translate(335.4 269.0325)scale(0.18 -0.18)">
      <use xlink:href="#Helvetica-73"/>
      <use xlink:href="#Helvetica-68" x="50"/>
      <use xlink:href="#Helvetica-43" x="105.615234"/>
      <use xlink:href="#Helvetica-20" x="177.832031"/>
      <use xlink:href="#Helvetica-31" x="205.615234"/>
      <use xlink:href="#Helvetica-30" x="261.230469"/>
      <use xlink:href="#Helvetica-30" x="316.845703"/>
      <use xlink:href="#Helvetica-58" x="372.460938"/>
     </g>
    </g>
   </g>
  </g>
 </g>
 <defs>
  <clipPath id="pb6aa2bec03">
   <rect x="57.6" y="41.472" width="357.12" height="266.112"/>
  </clipPath>
 </defs>
</svg>
