<?xml version="1.0" encoding="utf-8" standalone="no"?>
<!DOCTYPE svg PUBLIC "-//W3C//DTD SVG 1.1//EN"
  "http://www.w3.org/Graphics/SVG/1.1/DTD/svg11.dtd">
<svg xmlns:xlink="http://www.w3.org/1999/xlink" width="460.8pt" height="345.6pt" viewBox="0 0 460.8 345.6" xmlns="http://www.w3.org/2000/svg" version="1.1">
 <metadata>
  <rdf:RDF xmlns:dc="http://purl.org/dc/elements/1.1/" xmlns:cc="http://creativecommons.org/ns#" xmlns:rdf="http://www.w3.org/1999/02/22-rdf-syntax-ns#">
   <cc:Work>
    <dc:type rdf:resource="http://purl.org/dc/dcmitype/StillImage"/>
    <dc:date>2024-04-09T10:45:31.449495</dc:date>
    <dc:format>image/svg+xml</dc:format>
    <dc:creator>
     <cc:Agent>
      <dc:title>Matplotlib v3.5.1, https://matplotlib.org/</dc:title>
     </cc:Agent>
    </dc:creator>
   </cc:Work>
  </rdf:RDF>
 </metadata>
 <defs>
  <style type="text/css">*{stroke-linejoin: round; stroke-linecap: butt}</style>
 </defs>
 <g id="figure_1">
  <g id="patch_1">
   <path d="M 0 345.6 
L 460.8 345.6 
L 460.8 0 
L 0 0 
z
" style="fill: #ffffff"/>
  </g>
  <g id="axes_1">
   <g id="patch_2">
    <path d="M 57.6 307.584 
L 414.72 307.584 
L 414.72 41.472 
L 57.6 41.472 
z
" style="fill: #ffffff"/>
   </g>
   <g id="matplotlib.axis_1">
    <g id="xtick_1">
     <g id="line2d_1">
      <defs>
       <path id="m24bf55b478" d="M 0 0 
L 0 4 
" style="stroke: #262626"/>
      </defs>
      <g>
       <use xlink:href="#m24bf55b478" x="73.832727" y="307.584" style="fill: #262626; stroke: #262626"/>
      </g>
     </g>
     <g id="text_1">
      <!-- 0 -->
      <g style="fill: #262626" transform="translate(69.940071 325.126812)scale(0.14 -0.14)">
       <defs>
        <path id="Helvetica-30" d="M 1731 4475 
Q 2600 4475 2988 3759 
Q 3288 3206 3288 2244 
Q 3288 1331 3016 734 
Q 2622 -122 1728 -122 
Q 922 -122 528 578 
Q 200 1163 200 2147 
Q 200 2909 397 3456 
Q 766 4475 1731 4475 
z
M 1725 391 
Q 2163 391 2422 778 
Q 2681 1166 2681 2222 
Q 2681 2984 2493 3476 
Q 2306 3969 1766 3969 
Q 1269 3969 1039 3501 
Q 809 3034 809 2125 
Q 809 1441 956 1025 
Q 1181 391 1725 391 
z
" transform="scale(0.015625)"/>
       </defs>
       <use xlink:href="#Helvetica-30"/>
      </g>
     </g>
    </g>
    <g id="xtick_2">
     <g id="line2d_2">
      <g>
       <use xlink:href="#m24bf55b478" x="127.941818" y="307.584" style="fill: #262626; stroke: #262626"/>
      </g>
     </g>
     <g id="text_2">
      <!-- 10 -->
      <g style="fill: #262626" transform="translate(120.156506 325.126812)scale(0.14 -0.14)">
       <defs>
        <path id="Helvetica-31" d="M 613 3169 
L 613 3600 
Q 1222 3659 1462 3798 
Q 1703 3938 1822 4456 
L 2266 4456 
L 2266 0 
L 1666 0 
L 1666 3169 
L 613 3169 
z
" transform="scale(0.015625)"/>
       </defs>
       <use xlink:href="#Helvetica-31"/>
       <use xlink:href="#Helvetica-30" x="55.615234"/>
      </g>
     </g>
    </g>
    <g id="xtick_3">
     <g id="line2d_3">
      <g>
       <use xlink:href="#m24bf55b478" x="182.050909" y="307.584" style="fill: #262626; stroke: #262626"/>
      </g>
     </g>
     <g id="text_3">
      <!-- 20 -->
      <g style="fill: #262626" transform="translate(174.265597 325.126812)scale(0.14 -0.14)">
       <defs>
        <path id="Helvetica-32" d="M 200 0 
Q 231 578 439 1006 
Q 647 1434 1250 1784 
L 1850 2131 
Q 2253 2366 2416 2531 
Q 2672 2791 2672 3125 
Q 2672 3516 2437 3745 
Q 2203 3975 1813 3975 
Q 1234 3975 1013 3538 
Q 894 3303 881 2888 
L 309 2888 
Q 319 3472 525 3841 
Q 891 4491 1816 4491 
Q 2584 4491 2939 4075 
Q 3294 3659 3294 3150 
Q 3294 2613 2916 2231 
Q 2697 2009 2131 1694 
L 1703 1456 
Q 1397 1288 1222 1134 
Q 909 863 828 531 
L 3272 531 
L 3272 0 
L 200 0 
z
" transform="scale(0.015625)"/>
       </defs>
       <use xlink:href="#Helvetica-32"/>
       <use xlink:href="#Helvetica-30" x="55.615234"/>
      </g>
     </g>
    </g>
    <g id="xtick_4">
     <g id="line2d_4">
      <g>
       <use xlink:href="#m24bf55b478" x="236.16" y="307.584" style="fill: #262626; stroke: #262626"/>
      </g>
     </g>
     <g id="text_4">
      <!-- 30 -->
      <g style="fill: #262626" transform="translate(228.374688 325.126812)scale(0.14 -0.14)">
       <defs>
        <path id="Helvetica-33" d="M 1663 -122 
Q 869 -122 511 314 
Q 153 750 153 1375 
L 741 1375 
Q 778 941 903 744 
Q 1122 391 1694 391 
Q 2138 391 2406 628 
Q 2675 866 2675 1241 
Q 2675 1703 2392 1887 
Q 2109 2072 1606 2072 
Q 1550 2072 1492 2070 
Q 1434 2069 1375 2066 
L 1375 2563 
Q 1463 2553 1522 2550 
Q 1581 2547 1650 2547 
Q 1966 2547 2169 2647 
Q 2525 2822 2525 3272 
Q 2525 3606 2287 3787 
Q 2050 3969 1734 3969 
Q 1172 3969 956 3594 
Q 838 3388 822 3006 
L 266 3006 
Q 266 3506 466 3856 
Q 809 4481 1675 4481 
Q 2359 4481 2734 4176 
Q 3109 3872 3109 3294 
Q 3109 2881 2888 2625 
Q 2750 2466 2531 2375 
Q 2884 2278 3082 2001 
Q 3281 1725 3281 1325 
Q 3281 684 2859 281 
Q 2438 -122 1663 -122 
z
" transform="scale(0.015625)"/>
       </defs>
       <use xlink:href="#Helvetica-33"/>
       <use xlink:href="#Helvetica-30" x="55.615234"/>
      </g>
     </g>
    </g>
    <g id="xtick_5">
     <g id="line2d_5">
      <g>
       <use xlink:href="#m24bf55b478" x="290.269091" y="307.584" style="fill: #262626; stroke: #262626"/>
      </g>
     </g>
     <g id="text_5">
      <!-- 40 -->
      <g style="fill: #262626" transform="translate(282.483778 325.126812)scale(0.14 -0.14)">
       <defs>
        <path id="Helvetica-34" d="M 2116 1584 
L 2116 3613 
L 681 1584 
L 2116 1584 
z
M 2125 0 
L 2125 1094 
L 163 1094 
L 163 1644 
L 2213 4488 
L 2688 4488 
L 2688 1584 
L 3347 1584 
L 3347 1094 
L 2688 1094 
L 2688 0 
L 2125 0 
z
" transform="scale(0.015625)"/>
       </defs>
       <use xlink:href="#Helvetica-34"/>
       <use xlink:href="#Helvetica-30" x="55.615234"/>
      </g>
     </g>
    </g>
    <g id="xtick_6">
     <g id="line2d_6">
      <g>
       <use xlink:href="#m24bf55b478" x="344.378182" y="307.584" style="fill: #262626; stroke: #262626"/>
      </g>
     </g>
     <g id="text_6">
      <!-- 50 -->
      <g style="fill: #262626" transform="translate(336.592869 325.126812)scale(0.14 -0.14)">
       <defs>
        <path id="Helvetica-35" d="M 791 1141 
Q 847 659 1238 475 
Q 1438 381 1700 381 
Q 2200 381 2440 700 
Q 2681 1019 2681 1406 
Q 2681 1875 2395 2131 
Q 2109 2388 1709 2388 
Q 1419 2388 1211 2275 
Q 1003 2163 856 1963 
L 369 1991 
L 709 4400 
L 3034 4400 
L 3034 3856 
L 1131 3856 
L 941 2613 
Q 1097 2731 1238 2791 
Q 1488 2894 1816 2894 
Q 2431 2894 2859 2497 
Q 3288 2100 3288 1491 
Q 3288 856 2895 371 
Q 2503 -113 1644 -113 
Q 1097 -113 676 195 
Q 256 503 206 1141 
L 791 1141 
z
" transform="scale(0.015625)"/>
       </defs>
       <use xlink:href="#Helvetica-35"/>
       <use xlink:href="#Helvetica-30" x="55.615234"/>
      </g>
     </g>
    </g>
    <g id="xtick_7">
     <g id="line2d_7">
      <g>
       <use xlink:href="#m24bf55b478" x="398.487273" y="307.584" style="fill: #262626; stroke: #262626"/>
      </g>
     </g>
     <g id="text_7">
      <!-- 60 -->
      <g style="fill: #262626" transform="translate(390.70196 325.126812)scale(0.14 -0.14)">
       <defs>
        <path id="Helvetica-36" d="M 1872 4494 
Q 2622 4494 2917 4105 
Q 3213 3716 3213 3303 
L 2656 3303 
Q 2606 3569 2497 3719 
Q 2294 4000 1881 4000 
Q 1409 4000 1131 3564 
Q 853 3128 822 2316 
Q 1016 2600 1309 2741 
Q 1578 2866 1909 2866 
Q 2472 2866 2890 2506 
Q 3309 2147 3309 1434 
Q 3309 825 2912 354 
Q 2516 -116 1781 -116 
Q 1153 -116 697 361 
Q 241 838 241 1966 
Q 241 2800 444 3381 
Q 834 4494 1872 4494 
z
M 1831 384 
Q 2275 384 2495 682 
Q 2716 981 2716 1388 
Q 2716 1731 2519 2042 
Q 2322 2353 1803 2353 
Q 1441 2353 1167 2112 
Q 894 1872 894 1388 
Q 894 963 1142 673 
Q 1391 384 1831 384 
z
" transform="scale(0.015625)"/>
       </defs>
       <use xlink:href="#Helvetica-36"/>
       <use xlink:href="#Helvetica-30" x="55.615234"/>
      </g>
     </g>
    </g>
    <g id="text_8">
     <!-- Time (hours) -->
     <g style="fill: #262626" transform="translate(185.156719 345.089312)scale(0.18 -0.18)">
      <defs>
       <path id="Helvetica-54" d="M 3828 4591 
L 3828 4044 
L 2281 4044 
L 2281 0 
L 1650 0 
L 1650 4044 
L 103 4044 
L 103 4591 
L 3828 4591 
z
" transform="scale(0.015625)"/>
       <path id="Helvetica-69" d="M 413 3331 
L 984 3331 
L 984 0 
L 413 0 
L 413 3331 
z
M 413 4591 
L 984 4591 
L 984 3953 
L 413 3953 
L 413 4591 
z
" transform="scale(0.015625)"/>
       <path id="Helvetica-6d" d="M 413 3347 
L 969 3347 
L 969 2872 
Q 1169 3119 1331 3231 
Q 1609 3422 1963 3422 
Q 2363 3422 2606 3225 
Q 2744 3113 2856 2894 
Q 3044 3163 3297 3292 
Q 3550 3422 3866 3422 
Q 4541 3422 4784 2934 
Q 4916 2672 4916 2228 
L 4916 0 
L 4331 0 
L 4331 2325 
Q 4331 2659 4164 2784 
Q 3997 2909 3756 2909 
Q 3425 2909 3186 2687 
Q 2947 2466 2947 1947 
L 2947 0 
L 2375 0 
L 2375 2184 
Q 2375 2525 2294 2681 
Q 2166 2916 1816 2916 
Q 1497 2916 1236 2669 
Q 975 2422 975 1775 
L 975 0 
L 413 0 
L 413 3347 
z
" transform="scale(0.015625)"/>
       <path id="Helvetica-65" d="M 1806 3422 
Q 2163 3422 2497 3255 
Q 2831 3088 3006 2822 
Q 3175 2569 3231 2231 
Q 3281 2000 3281 1494 
L 828 1494 
Q 844 984 1069 676 
Q 1294 369 1766 369 
Q 2206 369 2469 659 
Q 2619 828 2681 1050 
L 3234 1050 
Q 3213 866 3089 639 
Q 2966 413 2813 269 
Q 2556 19 2178 -69 
Q 1975 -119 1719 -119 
Q 1094 -119 659 336 
Q 225 791 225 1609 
Q 225 2416 662 2919 
Q 1100 3422 1806 3422 
z
M 2703 1941 
Q 2669 2306 2544 2525 
Q 2313 2931 1772 2931 
Q 1384 2931 1121 2651 
Q 859 2372 844 1941 
L 2703 1941 
z
M 1753 3428 
L 1753 3428 
z
" transform="scale(0.015625)"/>
       <path id="Helvetica-20" transform="scale(0.015625)"/>
       <path id="Helvetica-28" d="M 1894 4666 
Q 1403 3713 1256 3263 
Q 1034 2578 1034 1681 
Q 1034 775 1288 25 
Q 1444 -438 1903 -1306 
L 1525 -1306 
Q 1069 -594 959 -397 
Q 850 -200 722 138 
Q 547 600 478 1125 
Q 444 1397 444 1644 
Q 444 2569 734 3291 
Q 919 3750 1503 4666 
L 1894 4666 
z
" transform="scale(0.015625)"/>
       <path id="Helvetica-68" d="M 413 4606 
L 975 4606 
L 975 2894 
Q 1175 3147 1334 3250 
Q 1606 3428 2013 3428 
Q 2741 3428 3000 2919 
Q 3141 2641 3141 2147 
L 3141 0 
L 2563 0 
L 2563 2109 
Q 2563 2478 2469 2650 
Q 2316 2925 1894 2925 
Q 1544 2925 1259 2684 
Q 975 2444 975 1775 
L 975 0 
L 413 0 
L 413 4606 
z
" transform="scale(0.015625)"/>
       <path id="Helvetica-6f" d="M 1741 363 
Q 2300 363 2508 786 
Q 2716 1209 2716 1728 
Q 2716 2197 2566 2491 
Q 2328 2953 1747 2953 
Q 1231 2953 997 2559 
Q 763 2166 763 1609 
Q 763 1075 997 719 
Q 1231 363 1741 363 
z
M 1763 3444 
Q 2409 3444 2856 3012 
Q 3303 2581 3303 1744 
Q 3303 934 2909 406 
Q 2516 -122 1688 -122 
Q 997 -122 590 345 
Q 184 813 184 1600 
Q 184 2444 612 2944 
Q 1041 3444 1763 3444 
z
M 1744 3428 
L 1744 3428 
z
" transform="scale(0.015625)"/>
       <path id="Helvetica-75" d="M 975 3347 
L 975 1125 
Q 975 869 1056 706 
Q 1206 406 1616 406 
Q 2203 406 2416 931 
Q 2531 1213 2531 1703 
L 2531 3347 
L 3094 3347 
L 3094 0 
L 2563 0 
L 2569 494 
Q 2459 303 2297 172 
Q 1975 -91 1516 -91 
Q 800 -91 541 388 
Q 400 644 400 1072 
L 400 3347 
L 975 3347 
z
M 1747 3428 
L 1747 3428 
z
" transform="scale(0.015625)"/>
       <path id="Helvetica-72" d="M 428 3347 
L 963 3347 
L 963 2769 
Q 1028 2938 1284 3180 
Q 1541 3422 1875 3422 
Q 1891 3422 1928 3419 
Q 1966 3416 2056 3406 
L 2056 2813 
Q 2006 2822 1964 2825 
Q 1922 2828 1872 2828 
Q 1447 2828 1219 2554 
Q 991 2281 991 1925 
L 991 0 
L 428 0 
L 428 3347 
z
" transform="scale(0.015625)"/>
       <path id="Helvetica-73" d="M 747 1050 
Q 772 769 888 619 
Q 1100 347 1625 347 
Q 1938 347 2175 483 
Q 2413 619 2413 903 
Q 2413 1119 2222 1231 
Q 2100 1300 1741 1391 
L 1294 1503 
Q 866 1609 663 1741 
Q 300 1969 300 2372 
Q 300 2847 642 3140 
Q 984 3434 1563 3434 
Q 2319 3434 2653 2991 
Q 2863 2709 2856 2384 
L 2325 2384 
Q 2309 2575 2191 2731 
Q 1997 2953 1519 2953 
Q 1200 2953 1036 2831 
Q 872 2709 872 2509 
Q 872 2291 1088 2159 
Q 1213 2081 1456 2022 
L 1828 1931 
Q 2434 1784 2641 1647 
Q 2969 1431 2969 969 
Q 2969 522 2630 197 
Q 2291 -128 1597 -128 
Q 850 -128 539 211 
Q 228 550 206 1050 
L 747 1050 
z
M 1578 3428 
L 1578 3428 
z
" transform="scale(0.015625)"/>
       <path id="Helvetica-29" d="M 222 -1306 
Q 719 -338 863 106 
Q 1081 778 1081 1681 
Q 1081 2584 828 3334 
Q 672 3797 213 4666 
L 591 4666 
Q 1072 3897 1173 3717 
Q 1275 3538 1394 3222 
Q 1544 2831 1608 2450 
Q 1672 2069 1672 1716 
Q 1672 791 1378 66 
Q 1194 -400 613 -1306 
L 222 -1306 
z
" transform="scale(0.015625)"/>
      </defs>
      <use xlink:href="#Helvetica-54"/>
      <use xlink:href="#Helvetica-69" x="61.083984"/>
      <use xlink:href="#Helvetica-6d" x="83.300781"/>
      <use xlink:href="#Helvetica-65" x="166.601562"/>
      <use xlink:href="#Helvetica-20" x="222.216797"/>
      <use xlink:href="#Helvetica-28" x="250"/>
      <use xlink:href="#Helvetica-68" x="283.300781"/>
      <use xlink:href="#Helvetica-6f" x="338.916016"/>
      <use xlink:href="#Helvetica-75" x="394.53125"/>
      <use xlink:href="#Helvetica-72" x="450.146484"/>
      <use xlink:href="#Helvetica-73" x="483.447266"/>
      <use xlink:href="#Helvetica-29" x="533.447266"/>
     </g>
    </g>
   </g>
   <g id="matplotlib.axis_2">
    <g id="ytick_1">
     <g id="line2d_8">
      <defs>
       <path id="mb672445096" d="M 0 0 
L -4 0 
" style="stroke: #262626"/>
      </defs>
      <g>
       <use xlink:href="#mb672445096" x="57.6" y="295.488" style="fill: #262626; stroke: #262626"/>
      </g>
     </g>
     <g id="text_9">
      <!-- 0 -->
      <g style="fill: #262626" transform="translate(42.314687 300.509406)scale(0.14 -0.14)">
       <use xlink:href="#Helvetica-30"/>
      </g>
     </g>
    </g>
    <g id="ytick_2">
     <g id="line2d_9">
      <g>
       <use xlink:href="#mb672445096" x="57.6" y="251.502545" style="fill: #262626; stroke: #262626"/>
      </g>
     </g>
     <g id="text_10">
      <!-- 10 -->
      <g style="fill: #262626" transform="translate(34.529375 256.523952)scale(0.14 -0.14)">
       <use xlink:href="#Helvetica-31"/>
       <use xlink:href="#Helvetica-30" x="55.615234"/>
      </g>
     </g>
    </g>
    <g id="ytick_3">
     <g id="line2d_10">
      <g>
       <use xlink:href="#mb672445096" x="57.6" y="207.517091" style="fill: #262626; stroke: #262626"/>
      </g>
     </g>
     <g id="text_11">
      <!-- 20 -->
      <g style="fill: #262626" transform="translate(34.529375 212.538497)scale(0.14 -0.14)">
       <use xlink:href="#Helvetica-32"/>
       <use xlink:href="#Helvetica-30" x="55.615234"/>
      </g>
     </g>
    </g>
    <g id="ytick_4">
     <g id="line2d_11">
      <g>
       <use xlink:href="#mb672445096" x="57.6" y="163.531636" style="fill: #262626; stroke: #262626"/>
      </g>
     </g>
     <g id="text_12">
      <!-- 30 -->
      <g style="fill: #262626" transform="translate(34.529375 168.553043)scale(0.14 -0.14)">
       <use xlink:href="#Helvetica-33"/>
       <use xlink:href="#Helvetica-30" x="55.615234"/>
      </g>
     </g>
    </g>
    <g id="ytick_5">
     <g id="line2d_12">
      <g>
       <use xlink:href="#mb672445096" x="57.6" y="119.546182" style="fill: #262626; stroke: #262626"/>
      </g>
     </g>
     <g id="text_13">
      <!-- 40 -->
      <g style="fill: #262626" transform="translate(34.529375 124.567588)scale(0.14 -0.14)">
       <use xlink:href="#Helvetica-34"/>
       <use xlink:href="#Helvetica-30" x="55.615234"/>
      </g>
     </g>
    </g>
    <g id="ytick_6">
     <g id="line2d_13">
      <g>
       <use xlink:href="#mb672445096" x="57.6" y="75.560727" style="fill: #262626; stroke: #262626"/>
      </g>
     </g>
     <g id="text_14">
      <!-- 50 -->
      <g style="fill: #262626" transform="translate(34.529375 80.582134)scale(0.14 -0.14)">
       <use xlink:href="#Helvetica-35"/>
       <use xlink:href="#Helvetica-30" x="55.615234"/>
      </g>
     </g>
    </g>
    <g id="ytick_7">
     <g id="line2d_14">
      <defs>
       <path id="mdeb053cc16" d="M 0 0 
L -2 0 
" style="stroke: #262626"/>
      </defs>
      <g>
       <use xlink:href="#mdeb053cc16" x="57.6" y="304.285091" style="fill: #262626; stroke: #262626"/>
      </g>
     </g>
    </g>
    <g id="ytick_8">
     <g id="line2d_15">
      <g>
       <use xlink:href="#mdeb053cc16" x="57.6" y="286.690909" style="fill: #262626; stroke: #262626"/>
      </g>
     </g>
    </g>
    <g id="ytick_9">
     <g id="line2d_16">
      <g>
       <use xlink:href="#mdeb053cc16" x="57.6" y="277.893818" style="fill: #262626; stroke: #262626"/>
      </g>
     </g>
    </g>
    <g id="ytick_10">
     <g id="line2d_17">
      <g>
       <use xlink:href="#mdeb053cc16" x="57.6" y="269.096727" style="fill: #262626; stroke: #262626"/>
      </g>
     </g>
    </g>
    <g id="ytick_11">
     <g id="line2d_18">
      <g>
       <use xlink:href="#mdeb053cc16" x="57.6" y="260.299636" style="fill: #262626; stroke: #262626"/>
      </g>
     </g>
    </g>
    <g id="ytick_12">
     <g id="line2d_19">
      <g>
       <use xlink:href="#mdeb053cc16" x="57.6" y="242.705455" style="fill: #262626; stroke: #262626"/>
      </g>
     </g>
    </g>
    <g id="ytick_13">
     <g id="line2d_20">
      <g>
       <use xlink:href="#mdeb053cc16" x="57.6" y="233.908364" style="fill: #262626; stroke: #262626"/>
      </g>
     </g>
    </g>
    <g id="ytick_14">
     <g id="line2d_21">
      <g>
       <use xlink:href="#mdeb053cc16" x="57.6" y="225.111273" style="fill: #262626; stroke: #262626"/>
      </g>
     </g>
    </g>
    <g id="ytick_15">
     <g id="line2d_22">
      <g>
       <use xlink:href="#mdeb053cc16" x="57.6" y="216.314182" style="fill: #262626; stroke: #262626"/>
      </g>
     </g>
    </g>
    <g id="ytick_16">
     <g id="line2d_23">
      <g>
       <use xlink:href="#mdeb053cc16" x="57.6" y="198.72" style="fill: #262626; stroke: #262626"/>
      </g>
     </g>
    </g>
    <g id="ytick_17">
     <g id="line2d_24">
      <g>
       <use xlink:href="#mdeb053cc16" x="57.6" y="189.922909" style="fill: #262626; stroke: #262626"/>
      </g>
     </g>
    </g>
    <g id="ytick_18">
     <g id="line2d_25">
      <g>
       <use xlink:href="#mdeb053cc16" x="57.6" y="181.125818" style="fill: #262626; stroke: #262626"/>
      </g>
     </g>
    </g>
    <g id="ytick_19">
     <g id="line2d_26">
      <g>
       <use xlink:href="#mdeb053cc16" x="57.6" y="172.328727" style="fill: #262626; stroke: #262626"/>
      </g>
     </g>
    </g>
    <g id="ytick_20">
     <g id="line2d_27">
      <g>
       <use xlink:href="#mdeb053cc16" x="57.6" y="154.734545" style="fill: #262626; stroke: #262626"/>
      </g>
     </g>
    </g>
    <g id="ytick_21">
     <g id="line2d_28">
      <g>
       <use xlink:href="#mdeb053cc16" x="57.6" y="145.937455" style="fill: #262626; stroke: #262626"/>
      </g>
     </g>
    </g>
    <g id="ytick_22">
     <g id="line2d_29">
      <g>
       <use xlink:href="#mdeb053cc16" x="57.6" y="137.140364" style="fill: #262626; stroke: #262626"/>
      </g>
     </g>
    </g>
    <g id="ytick_23">
     <g id="line2d_30">
      <g>
       <use xlink:href="#mdeb053cc16" x="57.6" y="128.343273" style="fill: #262626; stroke: #262626"/>
      </g>
     </g>
    </g>
    <g id="ytick_24">
     <g id="line2d_31">
      <g>
       <use xlink:href="#mdeb053cc16" x="57.6" y="110.749091" style="fill: #262626; stroke: #262626"/>
      </g>
     </g>
    </g>
    <g id="ytick_25">
     <g id="line2d_32">
      <g>
       <use xlink:href="#mdeb053cc16" x="57.6" y="101.952" style="fill: #262626; stroke: #262626"/>
      </g>
     </g>
    </g>
    <g id="ytick_26">
     <g id="line2d_33">
      <g>
       <use xlink:href="#mdeb053cc16" x="57.6" y="93.154909" style="fill: #262626; stroke: #262626"/>
      </g>
     </g>
    </g>
    <g id="ytick_27">
     <g id="line2d_34">
      <g>
       <use xlink:href="#mdeb053cc16" x="57.6" y="84.357818" style="fill: #262626; stroke: #262626"/>
      </g>
     </g>
    </g>
    <g id="ytick_28">
     <g id="line2d_35">
      <g>
       <use xlink:href="#mdeb053cc16" x="57.6" y="66.763636" style="fill: #262626; stroke: #262626"/>
      </g>
     </g>
    </g>
    <g id="ytick_29">
     <g id="line2d_36">
      <g>
       <use xlink:href="#mdeb053cc16" x="57.6" y="57.966545" style="fill: #262626; stroke: #262626"/>
      </g>
     </g>
    </g>
    <g id="ytick_30">
     <g id="line2d_37">
      <g>
       <use xlink:href="#mdeb053cc16" x="57.6" y="49.169455" style="fill: #262626; stroke: #262626"/>
      </g>
     </g>
    </g>
    <g id="text_15">
     <!-- Concentration (nM) -->
     <g style="fill: #262626" transform="translate(26.7775 251.553937)rotate(-90)scale(0.18 -0.18)">
      <defs>
       <path id="Helvetica-43" d="M 2422 4716 
Q 3294 4716 3775 4256 
Q 4256 3797 4309 3213 
L 3703 3213 
Q 3600 3656 3292 3915 
Q 2984 4175 2428 4175 
Q 1750 4175 1333 3698 
Q 916 3222 916 2238 
Q 916 1431 1292 929 
Q 1669 428 2416 428 
Q 3103 428 3463 956 
Q 3653 1234 3747 1688 
L 4353 1688 
Q 4272 963 3816 472 
Q 3269 -119 2341 -119 
Q 1541 -119 997 366 
Q 281 1006 281 2344 
Q 281 3359 819 4009 
Q 1400 4716 2422 4716 
z
M 2297 4716 
L 2297 4716 
z
" transform="scale(0.015625)"/>
       <path id="Helvetica-6e" d="M 413 3347 
L 947 3347 
L 947 2872 
Q 1184 3166 1450 3294 
Q 1716 3422 2041 3422 
Q 2753 3422 3003 2925 
Q 3141 2653 3141 2147 
L 3141 0 
L 2569 0 
L 2569 2109 
Q 2569 2416 2478 2603 
Q 2328 2916 1934 2916 
Q 1734 2916 1606 2875 
Q 1375 2806 1200 2600 
Q 1059 2434 1017 2257 
Q 975 2081 975 1753 
L 975 0 
L 413 0 
L 413 3347 
z
M 1734 3428 
L 1734 3428 
z
" transform="scale(0.015625)"/>
       <path id="Helvetica-63" d="M 1703 3444 
Q 2269 3444 2623 3169 
Q 2978 2894 3050 2222 
L 2503 2222 
Q 2453 2531 2275 2736 
Q 2097 2941 1703 2941 
Q 1166 2941 934 2416 
Q 784 2075 784 1575 
Q 784 1072 996 728 
Q 1209 384 1666 384 
Q 2016 384 2220 598 
Q 2425 813 2503 1184 
L 3050 1184 
Q 2956 519 2581 211 
Q 2206 -97 1622 -97 
Q 966 -97 575 383 
Q 184 863 184 1581 
Q 184 2463 612 2953 
Q 1041 3444 1703 3444 
z
M 1616 3428 
L 1616 3428 
z
" transform="scale(0.015625)"/>
       <path id="Helvetica-74" d="M 525 4281 
L 1094 4281 
L 1094 3347 
L 1628 3347 
L 1628 2888 
L 1094 2888 
L 1094 703 
Q 1094 528 1213 469 
Q 1278 434 1431 434 
Q 1472 434 1519 436 
Q 1566 438 1628 444 
L 1628 0 
Q 1531 -28 1426 -40 
Q 1322 -53 1200 -53 
Q 806 -53 665 148 
Q 525 350 525 672 
L 525 2888 
L 72 2888 
L 72 3347 
L 525 3347 
L 525 4281 
z
" transform="scale(0.015625)"/>
       <path id="Helvetica-61" d="M 844 891 
Q 844 647 1022 506 
Q 1200 366 1444 366 
Q 1741 366 2019 503 
Q 2488 731 2488 1250 
L 2488 1703 
Q 2384 1638 2221 1594 
Q 2059 1550 1903 1531 
L 1563 1488 
Q 1256 1447 1103 1359 
Q 844 1213 844 891 
z
M 2206 2028 
Q 2400 2053 2466 2191 
Q 2503 2266 2503 2406 
Q 2503 2694 2298 2823 
Q 2094 2953 1713 2953 
Q 1272 2953 1088 2716 
Q 984 2584 953 2325 
L 428 2325 
Q 444 2944 830 3186 
Q 1216 3428 1725 3428 
Q 2316 3428 2684 3203 
Q 3050 2978 3050 2503 
L 3050 575 
Q 3050 488 3086 434 
Q 3122 381 3238 381 
Q 3275 381 3322 386 
Q 3369 391 3422 400 
L 3422 -16 
Q 3291 -53 3222 -62 
Q 3153 -72 3034 -72 
Q 2744 -72 2613 134 
Q 2544 244 2516 444 
Q 2344 219 2022 53 
Q 1700 -113 1313 -113 
Q 847 -113 551 170 
Q 256 453 256 878 
Q 256 1344 547 1600 
Q 838 1856 1309 1916 
L 2206 2028 
z
M 1741 3428 
L 1741 3428 
z
" transform="scale(0.015625)"/>
       <path id="Helvetica-4d" d="M 472 4591 
L 1363 4591 
L 2681 709 
L 3991 4591 
L 4872 4591 
L 4872 0 
L 4281 0 
L 4281 2709 
Q 4281 2850 4287 3175 
Q 4294 3500 4294 3872 
L 2984 0 
L 2369 0 
L 1050 3872 
L 1050 3731 
Q 1050 3563 1058 3217 
Q 1066 2872 1066 2709 
L 1066 0 
L 472 0 
L 472 4591 
z
" transform="scale(0.015625)"/>
      </defs>
      <use xlink:href="#Helvetica-43"/>
      <use xlink:href="#Helvetica-6f" x="72.216797"/>
      <use xlink:href="#Helvetica-6e" x="127.832031"/>
      <use xlink:href="#Helvetica-63" x="183.447266"/>
      <use xlink:href="#Helvetica-65" x="233.447266"/>
      <use xlink:href="#Helvetica-6e" x="289.0625"/>
      <use xlink:href="#Helvetica-74" x="344.677734"/>
      <use xlink:href="#Helvetica-72" x="372.460938"/>
      <use xlink:href="#Helvetica-61" x="405.761719"/>
      <use xlink:href="#Helvetica-74" x="461.376953"/>
      <use xlink:href="#Helvetica-69" x="489.160156"/>
      <use xlink:href="#Helvetica-6f" x="511.376953"/>
      <use xlink:href="#Helvetica-6e" x="566.992188"/>
      <use xlink:href="#Helvetica-20" x="622.607422"/>
      <use xlink:href="#Helvetica-28" x="650.390625"/>
      <use xlink:href="#Helvetica-6e" x="683.691406"/>
      <use xlink:href="#Helvetica-4d" x="739.306641"/>
      <use xlink:href="#Helvetica-29" x="822.607422"/>
     </g>
    </g>
   </g>
   <g id="line2d_38">
    <path d="M 73.832727 53.568 
L 74.483338 242.096881 
L 77.736389 243.54103 
L 79.68822 244.349497 
L 80.989441 244.700355 
L 82.290661 244.771037 
L 82.941272 244.659271 
L 83.591882 244.424182 
L 84.242492 244.045283 
L 84.893103 243.50117 
L 85.543713 242.769949 
L 86.194323 241.829868 
L 86.844934 240.660181 
L 88.146154 237.561154 
L 89.447375 233.377524 
L 90.748595 228.130607 
L 92.700426 218.754561 
L 95.302868 205.831878 
L 97.254698 197.310945 
L 98.555919 192.280365 
L 99.85714 188.121047 
L 100.50775 186.48127 
L 101.15836 185.180249 
L 101.808971 184.237873 
L 102.459581 183.66087 
L 103.110191 183.442347 
L 103.760802 183.562151 
L 104.411412 183.987972 
L 105.062022 184.677081 
L 106.363243 186.636035 
L 109.616294 192.249612 
L 110.917515 193.764021 
L 111.568125 194.250551 
L 112.218736 194.550258 
L 112.869346 194.671992 
L 113.519956 194.63465 
L 114.821177 194.200634 
L 117.423618 193.005976 
L 118.074228 192.884619 
L 118.724839 192.907825 
L 119.375449 193.102405 
L 120.026059 193.487785 
L 120.67667 194.075693 
L 121.32728 194.870307 
L 122.628501 197.062215 
L 123.929721 199.973512 
L 125.230942 203.451045 
L 127.182773 209.333013 
L 131.737045 223.412559 
L 133.688876 228.795633 
L 135.640707 233.610648 
L 137.592538 237.881596 
L 139.544369 241.686465 
L 142.14681 246.203392 
L 144.749251 250.281994 
L 148.652913 255.912944 
L 153.207185 262.026496 
L 157.110847 266.898796 
L 160.363899 270.620757 
L 162.96634 273.293862 
L 165.568781 275.598402 
L 167.520612 277.047497 
L 169.472443 278.259673 
L 171.424274 279.252448 
L 173.376105 280.047988 
L 175.978546 280.842228 
L 178.580987 281.38182 
L 181.834039 281.77668 
L 185.737701 281.961054 
L 190.942583 281.936925 
L 203.304179 281.795556 
L 208.509062 281.739659 
L 209.810282 281.548178 
L 211.111503 281.148405 
L 212.412724 280.432477 
L 213.713944 279.253307 
L 214.364555 278.430967 
L 215.015165 277.415498 
L 215.665775 276.174406 
L 216.316385 274.672226 
L 216.966996 272.870982 
L 218.268216 268.2117 
L 219.569437 261.882024 
L 220.870658 253.62774 
L 222.171878 243.361252 
L 223.473099 231.287595 
L 228.027371 185.721955 
L 229.328592 175.777523 
L 229.979202 171.779451 
L 230.629812 168.47952 
L 231.280423 165.889266 
L 231.931033 164.003529 
L 232.581643 162.803481 
L 233.232254 162.259489 
L 233.882864 162.333662 
L 234.533474 162.981987 
L 235.184085 164.156085 
L 235.834695 165.804645 
L 237.135915 170.311974 
L 238.437136 176.074391 
L 240.388967 186.164253 
L 244.292629 207.211613 
L 246.24446 216.451279 
L 247.54568 221.781396 
L 248.846901 226.359388 
L 250.148122 230.148948 
L 251.449342 233.138985 
L 252.750563 235.336212 
L 253.401173 236.143109 
L 254.051784 236.759709 
L 254.702394 237.18977 
L 255.353004 237.437498 
L 256.003614 237.50754 
L 256.654225 237.404995 
L 257.304835 237.135441 
L 257.955445 236.704977 
L 259.256666 235.388598 
L 260.557887 233.516872 
L 261.859107 231.161995 
L 263.810938 226.91035 
L 266.413379 220.418586 
L 269.666431 212.184176 
L 271.618262 207.781012 
L 272.919483 205.236681 
L 274.220703 203.070114 
L 275.521924 201.316752 
L 276.823144 199.994846 
L 278.124365 199.107142 
L 279.425586 198.643155 
L 280.726806 198.581716 
L 282.028027 198.893543 
L 283.329248 199.543648 
L 284.630468 200.493505 
L 285.931689 201.702873 
L 287.88352 203.915262 
L 289.835351 206.489301 
L 293.088402 211.262191 
L 300.245116 222.029929 
L 303.498167 226.429299 
L 306.100608 229.58019 
L 308.70305 232.367507 
L 311.305491 234.779298 
L 313.907932 236.817668 
L 316.510373 238.494391 
L 319.112815 239.827593 
L 321.715256 240.839357 
L 324.317697 241.554042 
L 326.920138 241.997159 
L 329.52258 242.194639 
L 332.125021 242.172372 
L 334.727462 241.955918 
L 337.980514 241.450373 
L 341.233565 240.727961 
L 345.137227 239.638735 
L 350.34211 237.929826 
L 369.860419 231.221299 
L 375.065302 229.805498 
L 379.619574 228.778701 
L 384.173846 227.958854 
L 388.728118 227.342364 
L 393.933001 226.869824 
L 398.487273 226.636556 
L 398.487273 226.636556 
" clip-path="url(#p883f5f8ffb)" style="fill: none; stroke: #4477aa; stroke-linecap: round"/>
    <defs>
     <path id="mbec3c18c16" d="M 0 2.5 
C 0.663008 2.5 1.29895 2.236584 1.767767 1.767767 
C 2.236584 1.29895 2.5 0.663008 2.5 0 
C 2.5 -0.663008 2.236584 -1.29895 1.767767 -1.767767 
C 1.29895 -2.236584 0.663008 -2.5 0 -2.5 
C -0.663008 -2.5 -1.29895 -2.236584 -1.767767 -1.767767 
C -2.236584 -1.29895 -2.5 -0.663008 -2.5 0 
C -2.5 0.663008 -2.236584 1.29895 -1.767767 1.767767 
C -1.29895 2.236584 -0.663008 2.5 0 2.5 
z
" style="stroke: #4477aa"/>
    </defs>
    <g clip-path="url(#p883f5f8ffb)">
     <use xlink:href="#mbec3c18c16" x="73.832727" y="53.568" style="fill: #4477aa; stroke: #4477aa"/>
     <use xlink:href="#mbec3c18c16" x="112.869346" y="194.671992" style="fill: #4477aa; stroke: #4477aa"/>
     <use xlink:href="#mbec3c18c16" x="151.905965" y="260.323618" style="fill: #4477aa; stroke: #4477aa"/>
     <use xlink:href="#mbec3c18c16" x="190.942583" y="281.936925" style="fill: #4477aa; stroke: #4477aa"/>
     <use xlink:href="#mbec3c18c16" x="229.979202" y="171.779451" style="fill: #4477aa; stroke: #4477aa"/>
     <use xlink:href="#mbec3c18c16" x="269.015821" y="213.771875" style="fill: #4477aa; stroke: #4477aa"/>
     <use xlink:href="#mbec3c18c16" x="308.052439" y="231.705695" style="fill: #4477aa; stroke: #4477aa"/>
     <use xlink:href="#mbec3c18c16" x="347.089058" y="239.024945" style="fill: #4477aa; stroke: #4477aa"/>
     <use xlink:href="#mbec3c18c16" x="386.125677" y="227.670312" style="fill: #4477aa; stroke: #4477aa"/>
    </g>
   </g>
   <g id="line2d_39">
    <path d="M 73.832727 75.560727 
L 74.483338 237.582301 
L 78.386999 227.097801 
L 79.68822 224.063922 
L 80.989441 221.578046 
L 81.640051 220.609658 
L 82.290661 219.86046 
L 82.941272 219.35492 
L 83.591882 219.113436 
L 84.242492 219.150492 
L 84.893103 219.472771 
L 85.543713 220.077424 
L 86.194323 220.95073 
L 87.495544 223.39068 
L 89.447375 228.090544 
L 90.748595 231.226811 
L 92.049816 233.80048 
L 92.700426 234.749673 
L 93.351037 235.42351 
L 94.001647 235.798216 
L 94.652257 235.864422 
L 95.302868 235.631441 
L 95.953478 235.129667 
L 96.604088 234.401048 
L 97.905309 232.363921 
L 99.206529 229.554234 
L 100.50775 225.939045 
L 101.808971 221.574528 
L 103.760802 214.080891 
L 105.712633 206.603283 
L 107.013853 202.460314 
L 107.664463 200.828024 
L 108.315074 199.553628 
L 108.965684 198.668761 
L 109.616294 198.187929 
L 110.266905 198.107185 
L 110.917515 198.404359 
L 111.568125 199.040893 
L 112.218736 199.965036 
L 113.519956 202.428574 
L 116.773008 209.324538 
L 118.074228 211.447412 
L 119.375449 212.980058 
L 120.67667 213.949398 
L 121.97789 214.465946 
L 123.279111 214.68784 
L 125.881552 214.943205 
L 127.182773 215.289728 
L 128.483993 215.937376 
L 129.785214 216.950173 
L 131.086435 218.348578 
L 132.387655 220.114069 
L 133.688876 222.197321 
L 135.640707 225.761612 
L 142.14681 238.309746 
L 144.098641 241.502231 
L 146.050472 244.234548 
L 148.002303 246.469602 
L 149.303523 247.677096 
L 150.604744 248.658605 
L 151.905965 249.415789 
L 153.207185 249.950655 
L 154.508406 250.264856 
L 155.809627 250.35929 
L 157.110847 250.234064 
L 158.412068 249.889007 
L 159.713288 249.325127 
L 161.014509 248.547522 
L 162.31573 247.569818 
L 164.267561 245.786877 
L 166.870002 242.99336 
L 169.472443 239.879381 
L 172.725495 235.61113 
L 175.978546 230.919701 
L 179.231598 225.769017 
L 182.484649 220.116761 
L 185.737701 213.924499 
L 188.990752 207.163468 
L 192.243804 199.819615 
L 195.496856 191.899973 
L 199.400517 181.696999 
L 206.557231 162.312038 
L 207.858451 159.670204 
L 208.509062 158.856141 
L 209.159672 158.56601 
L 209.810282 158.934163 
L 210.460893 160.078553 
L 211.111503 162.098898 
L 211.762113 165.069248 
L 212.412724 169.025963 
L 213.063334 173.955065 
L 214.364555 186.373833 
L 218.918827 236.083469 
L 220.220047 246.321977 
L 221.521268 253.953171 
L 222.171878 256.864819 
L 222.822489 259.231692 
L 223.473099 261.099304 
L 224.123709 262.510983 
L 224.77432 263.506096 
L 225.42493 264.11917 
L 226.07554 264.379625 
L 226.72615 264.311912 
L 227.376761 263.93591 
L 228.027371 263.267451 
L 228.677981 262.318934 
L 229.328592 261.099954 
L 230.629812 257.878822 
L 231.931033 253.648877 
L 233.232254 248.449795 
L 234.533474 242.334241 
L 236.485305 231.633074 
L 238.437136 219.529885 
L 242.991408 190.402641 
L 244.292629 183.273843 
L 245.59385 177.289365 
L 246.89507 172.738647 
L 247.54568 171.073426 
L 248.196291 169.842821 
L 248.846901 169.05974 
L 249.497511 168.730033 
L 250.148122 168.852121 
L 250.798732 169.416826 
L 251.449342 170.40743 
L 252.099953 171.80002 
L 252.750563 173.564058 
L 254.051784 178.056626 
L 255.353004 183.546254 
L 257.955445 196.039065 
L 260.557887 208.377264 
L 262.509718 216.451408 
L 263.810938 221.061845 
L 265.112159 225.012112 
L 266.413379 228.308084 
L 267.7146 230.979183 
L 269.015821 233.06849 
L 270.317041 234.625642 
L 271.618262 235.702106 
L 272.919483 236.348342 
L 274.220703 236.612289 
L 275.521924 236.538741 
L 276.823144 236.169267 
L 278.124365 235.542433 
L 279.425586 234.694147 
L 281.377417 233.079528 
L 283.329248 231.147489 
L 285.931689 228.245456 
L 293.739013 219.202535 
L 296.341454 216.626662 
L 298.293285 214.968106 
L 300.245116 213.581729 
L 302.196947 212.490236 
L 304.148777 211.706103 
L 306.100608 211.232185 
L 308.052439 211.062603 
L 310.00427 211.183852 
L 311.956101 211.576073 
L 313.907932 212.214396 
L 315.859763 213.07031 
L 318.462204 214.496536 
L 321.064646 216.179057 
L 324.968307 219.021233 
L 337.329903 228.351604 
L 341.233565 230.88753 
L 344.486617 232.747508 
L 347.739668 234.357626 
L 350.99272 235.711344 
L 354.245772 236.810469 
L 357.498823 237.662831 
L 360.751875 238.280428 
L 364.004926 238.678025 
L 367.257978 238.872125 
L 371.16164 238.861117 
L 375.065302 238.613446 
L 378.968963 238.160471 
L 383.523236 237.413927 
L 388.728118 236.331999 
L 395.234221 234.737003 
L 398.487273 233.874791 
L 398.487273 233.874791 
" clip-path="url(#p883f5f8ffb)" style="fill: none; stroke: #ee6677; stroke-linecap: round"/>
    <defs>
     <path id="m351b11b499" d="M 0 -2.5 
L -2.5 2.5 
L 2.5 2.5 
z
" style="stroke: #ee6677; stroke-linejoin: miter"/>
    </defs>
    <g clip-path="url(#p883f5f8ffb)">
     <use xlink:href="#m351b11b499" x="73.832727" y="75.560727" style="fill: #ee6677; stroke: #ee6677; stroke-linejoin: miter"/>
     <use xlink:href="#m351b11b499" x="107.664463" y="200.828024" style="fill: #ee6677; stroke: #ee6677; stroke-linejoin: miter"/>
     <use xlink:href="#m351b11b499" x="141.4962" y="237.155266" style="fill: #ee6677; stroke: #ee6677; stroke-linejoin: miter"/>
     <use xlink:href="#m351b11b499" x="175.327936" y="231.893391" style="fill: #ee6677; stroke: #ee6677; stroke-linejoin: miter"/>
     <use xlink:href="#m351b11b499" x="209.159672" y="158.56601" style="fill: #ee6677; stroke: #ee6677; stroke-linejoin: miter"/>
     <use xlink:href="#m351b11b499" x="242.991408" y="190.402641" style="fill: #ee6677; stroke: #ee6677; stroke-linejoin: miter"/>
     <use xlink:href="#m351b11b499" x="276.823144" y="236.169267" style="fill: #ee6677; stroke: #ee6677; stroke-linejoin: miter"/>
     <use xlink:href="#m351b11b499" x="310.654881" y="211.285622" style="fill: #ee6677; stroke: #ee6677; stroke-linejoin: miter"/>
     <use xlink:href="#m351b11b499" x="344.486617" y="232.747508" style="fill: #ee6677; stroke: #ee6677; stroke-linejoin: miter"/>
     <use xlink:href="#m351b11b499" x="378.318353" y="238.2489" style="fill: #ee6677; stroke: #ee6677; stroke-linejoin: miter"/>
    </g>
   </g>
   <g id="line2d_40">
    <path d="M 73.832727 229.509818 
L 74.483338 265.089154 
L 75.784558 263.006218 
L 77.085779 260.276234 
L 78.386999 256.769796 
L 79.68822 252.340845 
L 80.989441 246.84192 
L 82.290661 240.158183 
L 83.591882 232.269015 
L 85.543713 218.614282 
L 87.495544 204.546593 
L 88.796764 196.620775 
L 89.447375 193.549753 
L 90.097985 191.257593 
L 90.748595 189.846658 
L 91.399206 189.375303 
L 92.049816 189.847004 
L 92.700426 191.201052 
L 93.351037 193.302665 
L 95.302868 201.301937 
L 95.953478 203.184827 
L 96.604088 204.331224 
L 98.555919 206.769774 
L 101.808971 211.808834 
L 102.459581 212.453082 
L 103.110191 212.83545 
L 103.760802 212.915269 
L 104.411412 212.663381 
L 105.062022 212.06246 
L 105.712633 211.107425 
L 106.363243 209.806048 
L 107.664463 206.264241 
L 108.965684 201.783056 
L 111.568125 192.457815 
L 112.218736 190.599173 
L 112.869346 189.108761 
L 113.519956 188.05355 
L 114.170567 187.47956 
L 114.821177 187.409235 
L 115.471787 187.840923 
L 116.122398 188.750454 
L 116.773008 190.094411 
L 118.074228 193.843156 
L 119.375449 198.534973 
L 122.628501 210.963558 
L 123.929721 215.276145 
L 125.230942 218.960226 
L 126.532163 221.999011 
L 127.833383 224.445475 
L 129.134604 226.395895 
L 130.435824 227.969774 
L 132.387655 229.90405 
L 135.640707 232.972263 
L 137.592538 235.219273 
L 138.893758 237.000935 
L 140.845589 240.144224 
L 142.79742 243.830542 
L 144.749251 247.977254 
L 147.351692 254.023898 
L 151.905965 265.297435 
L 157.761457 279.757074 
L 160.363899 285.631678 
L 161.665119 288.160271 
L 162.96634 290.214185 
L 164.267561 291.697018 
L 165.568781 292.666739 
L 166.870002 293.281195 
L 168.821833 293.829724 
L 171.424274 294.225455 
L 175.327936 294.522142 
L 181.183429 294.710768 
L 189.641363 294.753489 
L 196.798076 294.581727 
L 200.051128 294.340211 
L 202.002959 294.048978 
L 203.304179 293.71156 
L 204.6054 293.121002 
L 205.25601 292.64112 
L 205.906621 291.938065 
L 206.557231 290.87139 
L 207.207841 289.222917 
L 207.858451 286.718943 
L 208.509062 283.144917 
L 209.159672 278.446716 
L 209.810282 272.636912 
L 210.460893 265.671789 
L 211.762113 247.913969 
L 213.063334 224.650584 
L 214.364555 196.352683 
L 217.617606 121.349935 
L 218.268216 109.681419 
L 218.918827 100.233378 
L 219.569437 93.308942 
L 220.220047 89.091767 
L 220.870658 87.644088 
L 221.521268 88.910944 
L 222.171878 92.728906 
L 222.822489 98.838923 
L 223.473099 106.903601 
L 224.77432 127.291206 
L 228.677981 194.534567 
L 229.979202 212.164073 
L 231.280423 226.325169 
L 232.581643 237.285781 
L 233.882864 245.509897 
L 235.184085 251.483097 
L 235.834695 253.761403 
L 236.485305 255.628963 
L 237.135915 257.124491 
L 237.786526 258.280959 
L 238.437136 259.125914 
L 239.087746 259.68188 
L 239.738357 259.966788 
L 240.388967 259.994424 
L 241.039577 259.774861 
L 241.690188 259.314887 
L 242.340798 258.618422 
L 242.991408 257.686938 
L 243.642019 256.51988 
L 244.943239 253.469389 
L 246.24446 249.439732 
L 247.54568 244.403823 
L 248.846901 238.355666 
L 250.148122 231.334306 
L 252.099953 219.238583 
L 257.304835 184.646285 
L 258.606056 177.667019 
L 259.907276 172.148664 
L 260.557887 170.018967 
L 261.208497 168.335705 
L 261.859107 167.10788 
L 262.509718 166.33578 
L 263.160328 166.011471 
L 263.810938 166.119552 
L 264.461549 166.638109 
L 265.112159 167.539791 
L 265.762769 168.792972 
L 267.06399 172.212898 
L 268.36521 176.602443 
L 270.317041 184.362732 
L 276.172534 208.947741 
L 278.124365 216.024918 
L 280.076196 222.217423 
L 282.028027 227.503205 
L 283.979858 231.91746 
L 285.281078 234.407492 
L 286.582299 236.561368 
L 287.88352 238.402425 
L 289.18474 239.95372 
L 290.485961 241.237424 
L 291.787182 242.274465 
L 293.088402 243.084364 
L 294.389623 243.685208 
L 295.690843 244.093702 
L 296.992064 244.32527 
L 298.293285 244.394201 
L 300.245116 244.221498 
L 302.196947 243.754052 
L 304.148777 243.030148 
L 306.100608 242.0858 
L 308.70305 240.543172 
L 311.305491 238.748773 
L 315.209153 235.752342 
L 324.317697 228.586041 
L 327.570749 226.350346 
L 330.17319 224.787254 
L 332.775631 223.457987 
L 335.378072 222.381903 
L 337.980514 221.56787 
L 340.582955 221.015107 
L 343.185396 220.71442 
L 345.787838 220.649699 
L 348.390279 220.799528 
L 351.64333 221.25003 
L 354.896382 221.942814 
L 358.800044 223.016561 
L 364.004926 224.710618 
L 378.968963 229.77334 
L 384.173846 231.230182 
L 388.728118 232.289119 
L 393.28239 233.126981 
L 397.836662 233.736957 
L 398.487273 233.805517 
L 398.487273 233.805517 
" clip-path="url(#p883f5f8ffb)" style="fill: none; stroke: #228833; stroke-linecap: round"/>
    <defs>
     <path id="mdd4abe7651" d="M -2.5 2.5 
L 2.5 2.5 
L 2.5 -2.5 
L -2.5 -2.5 
z
" style="stroke: #228833; stroke-linejoin: miter"/>
    </defs>
    <g clip-path="url(#p883f5f8ffb)">
     <use xlink:href="#mdd4abe7651" x="73.832727" y="229.509818" style="fill: #228833; stroke: #228833; stroke-linejoin: miter"/>
     <use xlink:href="#mdd4abe7651" x="110.917515" y="194.601239" style="fill: #228833; stroke: #228833; stroke-linejoin: miter"/>
     <use xlink:href="#mdd4abe7651" x="148.002303" y="255.59886" style="fill: #228833; stroke: #228833; stroke-linejoin: miter"/>
     <use xlink:href="#mdd4abe7651" x="185.087091" y="294.756527" style="fill: #228833; stroke: #228833; stroke-linejoin: miter"/>
     <use xlink:href="#mdd4abe7651" x="222.171878" y="92.728906" style="fill: #228833; stroke: #228833; stroke-linejoin: miter"/>
     <use xlink:href="#mdd4abe7651" x="259.256666" y="174.706894" style="fill: #228833; stroke: #228833; stroke-linejoin: miter"/>
     <use xlink:href="#mdd4abe7651" x="296.341454" y="244.230683" style="fill: #228833; stroke: #228833; stroke-linejoin: miter"/>
     <use xlink:href="#mdd4abe7651" x="333.426242" y="223.164709" style="fill: #228833; stroke: #228833; stroke-linejoin: miter"/>
     <use xlink:href="#mdd4abe7651" x="370.511029" y="226.985788" style="fill: #228833; stroke: #228833; stroke-linejoin: miter"/>
    </g>
   </g>
   <g id="line2d_41">
    <path d="M 73.832727 295.488 
L 74.483338 295.275986 
L 97.905309 295.361543 
L 131.086435 295.367619 
L 200.701738 295.331238 
L 291.136571 295.480088 
L 398.487273 295.485219 
L 398.487273 295.485219 
" clip-path="url(#p883f5f8ffb)" style="fill: none; stroke-dasharray: 1,1.65; stroke-dashoffset: 0; stroke: #4477aa"/>
    <g clip-path="url(#p883f5f8ffb)">
     <use xlink:href="#mbec3c18c16" x="73.832727" y="295.488" style="fill: #4477aa; stroke: #4477aa"/>
     <use xlink:href="#mbec3c18c16" x="113.519956" y="295.372314" style="fill: #4477aa; stroke: #4477aa"/>
     <use xlink:href="#mbec3c18c16" x="153.207185" y="295.323109" style="fill: #4477aa; stroke: #4477aa"/>
     <use xlink:href="#mbec3c18c16" x="192.894414" y="295.30539" style="fill: #4477aa; stroke: #4477aa"/>
     <use xlink:href="#mbec3c18c16" x="232.581643" y="295.473653" style="fill: #4477aa; stroke: #4477aa"/>
     <use xlink:href="#mbec3c18c16" x="272.268872" y="295.477885" style="fill: #4477aa; stroke: #4477aa"/>
     <use xlink:href="#mbec3c18c16" x="311.956101" y="295.480045" style="fill: #4477aa; stroke: #4477aa"/>
     <use xlink:href="#mbec3c18c16" x="351.64333" y="295.482854" style="fill: #4477aa; stroke: #4477aa"/>
     <use xlink:href="#mbec3c18c16" x="391.330559" y="295.485002" style="fill: #4477aa; stroke: #4477aa"/>
    </g>
   </g>
   <g id="line2d_42">
    <path d="M 73.832727 295.488 
L 74.483338 295.248468 
L 90.097985 295.260195 
L 102.459581 295.280957 
L 120.026059 295.304393 
L 192.243804 295.44107 
L 274.871314 295.472773 
L 398.487273 295.484744 
L 398.487273 295.484744 
" clip-path="url(#p883f5f8ffb)" style="fill: none; stroke-dasharray: 1,1.65; stroke-dashoffset: 0; stroke: #ee6677"/>
    <g clip-path="url(#p883f5f8ffb)">
     <use xlink:href="#m351b11b499" x="73.832727" y="295.488" style="fill: #ee6677; stroke: #ee6677; stroke-linejoin: miter"/>
     <use xlink:href="#m351b11b499" x="111.568125" y="295.315893" style="fill: #ee6677; stroke: #ee6677; stroke-linejoin: miter"/>
     <use xlink:href="#m351b11b499" x="149.303523" y="295.300419" style="fill: #ee6677; stroke: #ee6677; stroke-linejoin: miter"/>
     <use xlink:href="#m351b11b499" x="187.038921" y="295.430908" style="fill: #ee6677; stroke: #ee6677; stroke-linejoin: miter"/>
     <use xlink:href="#m351b11b499" x="224.77432" y="295.42964" style="fill: #ee6677; stroke: #ee6677; stroke-linejoin: miter"/>
     <use xlink:href="#m351b11b499" x="262.509718" y="295.473231" style="fill: #ee6677; stroke: #ee6677; stroke-linejoin: miter"/>
     <use xlink:href="#m351b11b499" x="300.245116" y="295.479732" style="fill: #ee6677; stroke: #ee6677; stroke-linejoin: miter"/>
     <use xlink:href="#m351b11b499" x="337.980514" y="295.482064" style="fill: #ee6677; stroke: #ee6677; stroke-linejoin: miter"/>
     <use xlink:href="#m351b11b499" x="375.715912" y="295.483619" style="fill: #ee6677; stroke: #ee6677; stroke-linejoin: miter"/>
    </g>
   </g>
   <g id="line2d_43">
    <path d="M 73.832727 295.488 
L 74.483338 294.437639 
L 88.146154 294.295308 
L 90.097985 293.969625 
L 91.399206 293.535205 
L 92.049816 293.19084 
L 92.700426 292.701407 
L 93.351037 291.980198 
L 94.001647 290.873929 
L 94.652257 289.117252 
L 95.302868 286.310271 
L 95.953478 282.070219 
L 97.254698 269.960741 
L 101.15836 230.105755 
L 103.760802 206.277643 
L 106.363243 184.975792 
L 108.315074 170.592325 
L 110.266905 157.503279 
L 112.218736 145.643837 
L 114.170567 134.953793 
L 116.122398 125.379122 
L 118.074228 116.872277 
L 120.026059 109.391642 
L 121.97789 102.900036 
L 123.929721 97.362725 
L 125.230942 94.184529 
L 126.532163 91.405143 
L 127.833383 89.014236 
L 129.134604 87.001356 
L 130.435824 85.355997 
L 131.737045 84.0677 
L 133.038266 83.126154 
L 134.339486 82.521286 
L 135.640707 82.24333 
L 136.941927 82.282876 
L 138.243148 82.630898 
L 139.544369 83.278761 
L 140.845589 84.218211 
L 142.14681 85.441346 
L 143.448031 86.940579 
L 144.749251 88.708568 
L 146.701082 91.848793 
L 148.652913 95.553418 
L 150.604744 99.797157 
L 152.556575 104.551301 
L 155.159016 111.618818 
L 157.761457 119.38402 
L 163.61695 137.245439 
L 166.219392 144.098041 
L 170.123053 154.287585 
L 173.376105 163.503955 
L 176.629156 173.510435 
L 179.882208 184.268093 
L 183.78587 198.06551 
L 187.689532 212.700458 
L 192.243804 230.649543 
L 197.448686 252.058603 
L 205.906621 287.406469 
L 207.207841 291.673094 
L 207.858451 293.13818 
L 208.509062 294.058347 
L 209.159672 294.563703 
L 210.460893 295.012815 
L 212.412724 295.255663 
L 216.316385 295.389674 
L 227.376761 295.422679 
L 252.750563 295.450159 
L 293.088402 295.466638 
L 398.487273 295.483817 
L 398.487273 295.483817 
" clip-path="url(#p883f5f8ffb)" style="fill: none; stroke-dasharray: 1,1.65; stroke-dashoffset: 0; stroke: #228833"/>
    <g clip-path="url(#p883f5f8ffb)">
     <use xlink:href="#mdd4abe7651" x="73.832727" y="295.488" style="fill: #228833; stroke: #228833; stroke-linejoin: miter"/>
     <use xlink:href="#mdd4abe7651" x="115.471787" y="128.449815" style="fill: #228833; stroke: #228833; stroke-linejoin: miter"/>
     <use xlink:href="#mdd4abe7651" x="157.110847" y="117.389654" style="fill: #228833; stroke: #228833; stroke-linejoin: miter"/>
     <use xlink:href="#mdd4abe7651" x="198.749907" y="257.52479" style="fill: #228833; stroke: #228833; stroke-linejoin: miter"/>
     <use xlink:href="#mdd4abe7651" x="240.388967" y="295.384012" style="fill: #228833; stroke: #228833; stroke-linejoin: miter"/>
     <use xlink:href="#mdd4abe7651" x="282.028027" y="295.466353" style="fill: #228833; stroke: #228833; stroke-linejoin: miter"/>
     <use xlink:href="#mdd4abe7651" x="323.667087" y="295.477437" style="fill: #228833; stroke: #228833; stroke-linejoin: miter"/>
     <use xlink:href="#mdd4abe7651" x="365.306147" y="295.482362" style="fill: #228833; stroke: #228833; stroke-linejoin: miter"/>
    </g>
   </g>
   <g id="line2d_44"/>
   <g id="patch_3">
    <path d="M 57.6 307.584 
L 57.6 41.472 
" style="fill: none; stroke: #262626; stroke-width: 0.5; stroke-linejoin: miter; stroke-linecap: square"/>
   </g>
   <g id="patch_4">
    <path d="M 57.6 307.584 
L 414.72 307.584 
" style="fill: none; stroke: #262626; stroke-width: 0.5; stroke-linejoin: miter; stroke-linecap: square"/>
   </g>
   <g id="legend_1">
    <g id="line2d_45">
     <path d="M 162.030937 64.284187 
L 180.030937 64.284187 
L 198.030937 64.284187 
" style="fill: none; stroke: #4477aa; stroke-linecap: round"/>
     <g>
      <use xlink:href="#mbec3c18c16" x="180.030937" y="64.284187" style="fill: #4477aa; stroke: #4477aa"/>
     </g>
    </g>
    <g id="text_16">
     <!-- A -->
     <g style="fill: #262626" transform="translate(212.430937 70.584187)scale(0.18 -0.18)">
      <defs>
       <path id="Helvetica-41" d="M 2844 1881 
L 2147 3909 
L 1406 1881 
L 2844 1881 
z
M 1822 4591 
L 2525 4591 
L 4191 0 
L 3509 0 
L 3044 1375 
L 1228 1375 
L 731 0 
L 94 0 
L 1822 4591 
z
" transform="scale(0.015625)"/>
      </defs>
      <use xlink:href="#Helvetica-41"/>
     </g>
    </g>
    <g id="line2d_46">
     <path d="M 162.030937 89.94825 
L 180.030937 89.94825 
L 198.030937 89.94825 
" style="fill: none; stroke: #ee6677; stroke-linecap: round"/>
     <g>
      <use xlink:href="#m351b11b499" x="180.030937" y="89.94825" style="fill: #ee6677; stroke: #ee6677; stroke-linejoin: miter"/>
     </g>
    </g>
    <g id="text_17">
     <!-- B -->
     <g style="fill: #262626" transform="translate(212.430937 96.24825)scale(0.18 -0.18)">
      <defs>
       <path id="Helvetica-42" d="M 2213 2650 
Q 2606 2650 2825 2759 
Q 3169 2931 3169 3378 
Q 3169 3828 2803 3984 
Q 2597 4072 2191 4072 
L 1081 4072 
L 1081 2650 
L 2213 2650 
z
M 2422 531 
Q 2994 531 3238 863 
Q 3391 1072 3391 1369 
Q 3391 1869 2944 2050 
Q 2706 2147 2316 2147 
L 1081 2147 
L 1081 531 
L 2422 531 
z
M 472 4591 
L 2444 4591 
Q 3250 4591 3591 4109 
Q 3791 3825 3791 3453 
Q 3791 3019 3544 2741 
Q 3416 2594 3175 2472 
Q 3528 2338 3703 2169 
Q 4013 1869 4013 1341 
Q 4013 897 3734 538 
Q 3319 0 2413 0 
L 472 0 
L 472 4591 
z
" transform="scale(0.015625)"/>
      </defs>
      <use xlink:href="#Helvetica-42"/>
     </g>
    </g>
    <g id="line2d_47">
     <path d="M 162.030937 115.612312 
L 180.030937 115.612312 
L 198.030937 115.612312 
" style="fill: none; stroke: #228833; stroke-linecap: round"/>
     <g>
      <use xlink:href="#mdd4abe7651" x="180.030937" y="115.612312" style="fill: #228833; stroke: #228833; stroke-linejoin: miter"/>
     </g>
    </g>
    <g id="text_18">
     <!-- C -->
     <g style="fill: #262626" transform="translate(212.430937 121.912312)scale(0.18 -0.18)">
      <use xlink:href="#Helvetica-43"/>
     </g>
    </g>
    <g id="line2d_48">
     <path d="M 162.030937 141.627937 
L 180.030937 141.627937 
L 198.030937 141.627937 
" style="fill: none; stroke-dasharray: 1.5,2.475; stroke-dashoffset: 0; stroke: #000000; stroke-width: 1.5"/>
    </g>
    <g id="text_19">
     <!-- LeakyCancel (Shadow) -->
     <g style="fill: #262626" transform="translate(212.430937 147.927937)scale(0.18 -0.18)">
      <defs>
       <path id="Helvetica-4c" d="M 488 4591 
L 1109 4591 
L 1109 547 
L 3434 547 
L 3434 0 
L 488 0 
L 488 4591 
z
" transform="scale(0.015625)"/>
       <path id="Helvetica-6b" d="M 400 4591 
L 941 4591 
L 941 1925 
L 2384 3347 
L 3103 3347 
L 1822 2094 
L 3175 0 
L 2456 0 
L 1413 1688 
L 941 1256 
L 941 0 
L 400 0 
L 400 4591 
z
" transform="scale(0.015625)"/>
       <path id="Helvetica-79" d="M 2503 3347 
L 3125 3347 
Q 3006 3025 2597 1878 
Q 2291 1016 2084 472 
Q 1597 -809 1397 -1090 
Q 1197 -1372 709 -1372 
Q 591 -1372 527 -1362 
Q 463 -1353 369 -1328 
L 369 -816 
Q 516 -856 581 -865 
Q 647 -875 697 -875 
Q 853 -875 926 -823 
Q 1000 -772 1050 -697 
Q 1066 -672 1162 -440 
Q 1259 -209 1303 -97 
L 66 3347 
L 703 3347 
L 1600 622 
L 2503 3347 
z
M 1597 3428 
L 1597 3428 
z
" transform="scale(0.015625)"/>
       <path id="Helvetica-6c" d="M 428 4591 
L 991 4591 
L 991 0 
L 428 0 
L 428 4591 
z
" transform="scale(0.015625)"/>
       <path id="Helvetica-53" d="M 894 1481 
Q 916 1091 1078 847 
Q 1388 391 2169 391 
Q 2519 391 2806 491 
Q 3363 684 3363 1184 
Q 3363 1559 3128 1719 
Q 2891 1875 2384 1991 
L 1763 2131 
Q 1153 2269 900 2434 
Q 463 2722 463 3294 
Q 463 3913 891 4309 
Q 1319 4706 2103 4706 
Q 2825 4706 3329 4357 
Q 3834 4009 3834 3244 
L 3250 3244 
Q 3203 3613 3050 3809 
Q 2766 4169 2084 4169 
Q 1534 4169 1293 3937 
Q 1053 3706 1053 3400 
Q 1053 3063 1334 2906 
Q 1519 2806 2169 2656 
L 2813 2509 
Q 3278 2403 3531 2219 
Q 3969 1897 3969 1284 
Q 3969 522 3414 194 
Q 2859 -134 2125 -134 
Q 1269 -134 784 303 
Q 300 738 309 1481 
L 894 1481 
z
M 2150 4716 
L 2150 4716 
z
" transform="scale(0.015625)"/>
       <path id="Helvetica-64" d="M 769 1634 
Q 769 1097 997 734 
Q 1225 372 1728 372 
Q 2119 372 2370 708 
Q 2622 1044 2622 1672 
Q 2622 2306 2362 2611 
Q 2103 2916 1722 2916 
Q 1297 2916 1033 2591 
Q 769 2266 769 1634 
z
M 1616 3406 
Q 2000 3406 2259 3244 
Q 2409 3150 2600 2916 
L 2600 4606 
L 3141 4606 
L 3141 0 
L 2634 0 
L 2634 466 
Q 2438 156 2169 18 
Q 1900 -119 1553 -119 
Q 994 -119 584 351 
Q 175 822 175 1603 
Q 175 2334 548 2870 
Q 922 3406 1616 3406 
z
" transform="scale(0.015625)"/>
       <path id="Helvetica-77" d="M 672 3347 
L 1316 709 
L 1969 3347 
L 2600 3347 
L 3256 725 
L 3941 3347 
L 4503 3347 
L 3531 0 
L 2947 0 
L 2266 2591 
L 1606 0 
L 1022 0 
L 56 3347 
L 672 3347 
z
" transform="scale(0.015625)"/>
      </defs>
      <use xlink:href="#Helvetica-4c"/>
      <use xlink:href="#Helvetica-65" x="55.615234"/>
      <use xlink:href="#Helvetica-61" x="111.230469"/>
      <use xlink:href="#Helvetica-6b" x="166.845703"/>
      <use xlink:href="#Helvetica-79" x="216.845703"/>
      <use xlink:href="#Helvetica-43" x="266.845703"/>
      <use xlink:href="#Helvetica-61" x="339.0625"/>
      <use xlink:href="#Helvetica-6e" x="394.677734"/>
      <use xlink:href="#Helvetica-63" x="450.292969"/>
      <use xlink:href="#Helvetica-65" x="500.292969"/>
      <use xlink:href="#Helvetica-6c" x="555.908203"/>
      <use xlink:href="#Helvetica-20" x="578.125"/>
      <use xlink:href="#Helvetica-28" x="605.908203"/>
      <use xlink:href="#Helvetica-53" x="639.208984"/>
      <use xlink:href="#Helvetica-68" x="705.908203"/>
      <use xlink:href="#Helvetica-61" x="761.523438"/>
      <use xlink:href="#Helvetica-64" x="817.138672"/>
      <use xlink:href="#Helvetica-6f" x="872.753906"/>
      <use xlink:href="#Helvetica-77" x="928.369141"/>
      <use xlink:href="#Helvetica-29" x="1000.585938"/>
     </g>
    </g>
   </g>
  </g>
 </g>
 <defs>
  <clipPath id="p883f5f8ffb">
   <rect x="57.6" y="41.472" width="357.12" height="266.112"/>
  </clipPath>
 </defs>
</svg>
