<?xml version="1.0" encoding="utf-8" standalone="no"?>
<!DOCTYPE svg PUBLIC "-//W3C//DTD SVG 1.1//EN"
  "http://www.w3.org/Graphics/SVG/1.1/DTD/svg11.dtd">
<svg xmlns:xlink="http://www.w3.org/1999/xlink" width="460.8pt" height="345.6pt" viewBox="0 0 460.8 345.6" xmlns="http://www.w3.org/2000/svg" version="1.1">
 <metadata>
  <rdf:RDF xmlns:dc="http://purl.org/dc/elements/1.1/" xmlns:cc="http://creativecommons.org/ns#" xmlns:rdf="http://www.w3.org/1999/02/22-rdf-syntax-ns#">
   <cc:Work>
    <dc:type rdf:resource="http://purl.org/dc/dcmitype/StillImage"/>
    <dc:date>2024-04-08T11:18:57.806050</dc:date>
    <dc:format>image/svg+xml</dc:format>
    <dc:creator>
     <cc:Agent>
      <dc:title>Matplotlib v3.5.1, https://matplotlib.org/</dc:title>
     </cc:Agent>
    </dc:creator>
   </cc:Work>
  </rdf:RDF>
 </metadata>
 <defs>
  <style type="text/css">*{stroke-linejoin: round; stroke-linecap: butt}</style>
 </defs>
 <g id="figure_1">
  <g id="patch_1">
   <path d="M 0 345.6 
L 460.8 345.6 
L 460.8 0 
L 0 0 
z
" style="fill: #ffffff"/>
  </g>
  <g id="axes_1">
   <g id="patch_2">
    <path d="M 57.6 307.584 
L 414.72 307.584 
L 414.72 41.472 
L 57.6 41.472 
z
" style="fill: #ffffff"/>
   </g>
   <g id="matplotlib.axis_1">
    <g id="xtick_1">
     <g id="line2d_1">
      <defs>
       <path id="md44560c0ac" d="M 0 0 
L 0 4 
" style="stroke: #262626"/>
      </defs>
      <g>
       <use xlink:href="#md44560c0ac" x="73.832727" y="307.584" style="fill: #262626; stroke: #262626"/>
      </g>
     </g>
     <g id="text_1">
      <!-- 0 -->
      <g style="fill: #262626" transform="translate(69.940071 325.126812)scale(0.14 -0.14)">
       <defs>
        <path id="Helvetica-30" d="M 1731 4475 
Q 2600 4475 2988 3759 
Q 3288 3206 3288 2244 
Q 3288 1331 3016 734 
Q 2622 -122 1728 -122 
Q 922 -122 528 578 
Q 200 1163 200 2147 
Q 200 2909 397 3456 
Q 766 4475 1731 4475 
z
M 1725 391 
Q 2163 391 2422 778 
Q 2681 1166 2681 2222 
Q 2681 2984 2493 3476 
Q 2306 3969 1766 3969 
Q 1269 3969 1039 3501 
Q 809 3034 809 2125 
Q 809 1441 956 1025 
Q 1181 391 1725 391 
z
" transform="scale(0.015625)"/>
       </defs>
       <use xlink:href="#Helvetica-30"/>
      </g>
     </g>
    </g>
    <g id="xtick_2">
     <g id="line2d_2">
      <g>
       <use xlink:href="#md44560c0ac" x="127.941818" y="307.584" style="fill: #262626; stroke: #262626"/>
      </g>
     </g>
     <g id="text_2">
      <!-- 10 -->
      <g style="fill: #262626" transform="translate(120.156506 325.126812)scale(0.14 -0.14)">
       <defs>
        <path id="Helvetica-31" d="M 613 3169 
L 613 3600 
Q 1222 3659 1462 3798 
Q 1703 3938 1822 4456 
L 2266 4456 
L 2266 0 
L 1666 0 
L 1666 3169 
L 613 3169 
z
" transform="scale(0.015625)"/>
       </defs>
       <use xlink:href="#Helvetica-31"/>
       <use xlink:href="#Helvetica-30" x="55.615234"/>
      </g>
     </g>
    </g>
    <g id="xtick_3">
     <g id="line2d_3">
      <g>
       <use xlink:href="#md44560c0ac" x="182.050909" y="307.584" style="fill: #262626; stroke: #262626"/>
      </g>
     </g>
     <g id="text_3">
      <!-- 20 -->
      <g style="fill: #262626" transform="translate(174.265597 325.126812)scale(0.14 -0.14)">
       <defs>
        <path id="Helvetica-32" d="M 200 0 
Q 231 578 439 1006 
Q 647 1434 1250 1784 
L 1850 2131 
Q 2253 2366 2416 2531 
Q 2672 2791 2672 3125 
Q 2672 3516 2437 3745 
Q 2203 3975 1813 3975 
Q 1234 3975 1013 3538 
Q 894 3303 881 2888 
L 309 2888 
Q 319 3472 525 3841 
Q 891 4491 1816 4491 
Q 2584 4491 2939 4075 
Q 3294 3659 3294 3150 
Q 3294 2613 2916 2231 
Q 2697 2009 2131 1694 
L 1703 1456 
Q 1397 1288 1222 1134 
Q 909 863 828 531 
L 3272 531 
L 3272 0 
L 200 0 
z
" transform="scale(0.015625)"/>
       </defs>
       <use xlink:href="#Helvetica-32"/>
       <use xlink:href="#Helvetica-30" x="55.615234"/>
      </g>
     </g>
    </g>
    <g id="xtick_4">
     <g id="line2d_4">
      <g>
       <use xlink:href="#md44560c0ac" x="236.16" y="307.584" style="fill: #262626; stroke: #262626"/>
      </g>
     </g>
     <g id="text_4">
      <!-- 30 -->
      <g style="fill: #262626" transform="translate(228.374688 325.126812)scale(0.14 -0.14)">
       <defs>
        <path id="Helvetica-33" d="M 1663 -122 
Q 869 -122 511 314 
Q 153 750 153 1375 
L 741 1375 
Q 778 941 903 744 
Q 1122 391 1694 391 
Q 2138 391 2406 628 
Q 2675 866 2675 1241 
Q 2675 1703 2392 1887 
Q 2109 2072 1606 2072 
Q 1550 2072 1492 2070 
Q 1434 2069 1375 2066 
L 1375 2563 
Q 1463 2553 1522 2550 
Q 1581 2547 1650 2547 
Q 1966 2547 2169 2647 
Q 2525 2822 2525 3272 
Q 2525 3606 2287 3787 
Q 2050 3969 1734 3969 
Q 1172 3969 956 3594 
Q 838 3388 822 3006 
L 266 3006 
Q 266 3506 466 3856 
Q 809 4481 1675 4481 
Q 2359 4481 2734 4176 
Q 3109 3872 3109 3294 
Q 3109 2881 2888 2625 
Q 2750 2466 2531 2375 
Q 2884 2278 3082 2001 
Q 3281 1725 3281 1325 
Q 3281 684 2859 281 
Q 2438 -122 1663 -122 
z
" transform="scale(0.015625)"/>
       </defs>
       <use xlink:href="#Helvetica-33"/>
       <use xlink:href="#Helvetica-30" x="55.615234"/>
      </g>
     </g>
    </g>
    <g id="xtick_5">
     <g id="line2d_5">
      <g>
       <use xlink:href="#md44560c0ac" x="290.269091" y="307.584" style="fill: #262626; stroke: #262626"/>
      </g>
     </g>
     <g id="text_5">
      <!-- 40 -->
      <g style="fill: #262626" transform="translate(282.483778 325.126812)scale(0.14 -0.14)">
       <defs>
        <path id="Helvetica-34" d="M 2116 1584 
L 2116 3613 
L 681 1584 
L 2116 1584 
z
M 2125 0 
L 2125 1094 
L 163 1094 
L 163 1644 
L 2213 4488 
L 2688 4488 
L 2688 1584 
L 3347 1584 
L 3347 1094 
L 2688 1094 
L 2688 0 
L 2125 0 
z
" transform="scale(0.015625)"/>
       </defs>
       <use xlink:href="#Helvetica-34"/>
       <use xlink:href="#Helvetica-30" x="55.615234"/>
      </g>
     </g>
    </g>
    <g id="xtick_6">
     <g id="line2d_6">
      <g>
       <use xlink:href="#md44560c0ac" x="344.378182" y="307.584" style="fill: #262626; stroke: #262626"/>
      </g>
     </g>
     <g id="text_6">
      <!-- 50 -->
      <g style="fill: #262626" transform="translate(336.592869 325.126812)scale(0.14 -0.14)">
       <defs>
        <path id="Helvetica-35" d="M 791 1141 
Q 847 659 1238 475 
Q 1438 381 1700 381 
Q 2200 381 2440 700 
Q 2681 1019 2681 1406 
Q 2681 1875 2395 2131 
Q 2109 2388 1709 2388 
Q 1419 2388 1211 2275 
Q 1003 2163 856 1963 
L 369 1991 
L 709 4400 
L 3034 4400 
L 3034 3856 
L 1131 3856 
L 941 2613 
Q 1097 2731 1238 2791 
Q 1488 2894 1816 2894 
Q 2431 2894 2859 2497 
Q 3288 2100 3288 1491 
Q 3288 856 2895 371 
Q 2503 -113 1644 -113 
Q 1097 -113 676 195 
Q 256 503 206 1141 
L 791 1141 
z
" transform="scale(0.015625)"/>
       </defs>
       <use xlink:href="#Helvetica-35"/>
       <use xlink:href="#Helvetica-30" x="55.615234"/>
      </g>
     </g>
    </g>
    <g id="xtick_7">
     <g id="line2d_7">
      <g>
       <use xlink:href="#md44560c0ac" x="398.487273" y="307.584" style="fill: #262626; stroke: #262626"/>
      </g>
     </g>
     <g id="text_7">
      <!-- 60 -->
      <g style="fill: #262626" transform="translate(390.70196 325.126812)scale(0.14 -0.14)">
       <defs>
        <path id="Helvetica-36" d="M 1872 4494 
Q 2622 4494 2917 4105 
Q 3213 3716 3213 3303 
L 2656 3303 
Q 2606 3569 2497 3719 
Q 2294 4000 1881 4000 
Q 1409 4000 1131 3564 
Q 853 3128 822 2316 
Q 1016 2600 1309 2741 
Q 1578 2866 1909 2866 
Q 2472 2866 2890 2506 
Q 3309 2147 3309 1434 
Q 3309 825 2912 354 
Q 2516 -116 1781 -116 
Q 1153 -116 697 361 
Q 241 838 241 1966 
Q 241 2800 444 3381 
Q 834 4494 1872 4494 
z
M 1831 384 
Q 2275 384 2495 682 
Q 2716 981 2716 1388 
Q 2716 1731 2519 2042 
Q 2322 2353 1803 2353 
Q 1441 2353 1167 2112 
Q 894 1872 894 1388 
Q 894 963 1142 673 
Q 1391 384 1831 384 
z
" transform="scale(0.015625)"/>
       </defs>
       <use xlink:href="#Helvetica-36"/>
       <use xlink:href="#Helvetica-30" x="55.615234"/>
      </g>
     </g>
    </g>
    <g id="text_8">
     <!-- Time (hours) -->
     <g style="fill: #262626" transform="translate(185.156719 345.089312)scale(0.18 -0.18)">
      <defs>
       <path id="Helvetica-54" d="M 3828 4591 
L 3828 4044 
L 2281 4044 
L 2281 0 
L 1650 0 
L 1650 4044 
L 103 4044 
L 103 4591 
L 3828 4591 
z
" transform="scale(0.015625)"/>
       <path id="Helvetica-69" d="M 413 3331 
L 984 3331 
L 984 0 
L 413 0 
L 413 3331 
z
M 413 4591 
L 984 4591 
L 984 3953 
L 413 3953 
L 413 4591 
z
" transform="scale(0.015625)"/>
       <path id="Helvetica-6d" d="M 413 3347 
L 969 3347 
L 969 2872 
Q 1169 3119 1331 3231 
Q 1609 3422 1963 3422 
Q 2363 3422 2606 3225 
Q 2744 3113 2856 2894 
Q 3044 3163 3297 3292 
Q 3550 3422 3866 3422 
Q 4541 3422 4784 2934 
Q 4916 2672 4916 2228 
L 4916 0 
L 4331 0 
L 4331 2325 
Q 4331 2659 4164 2784 
Q 3997 2909 3756 2909 
Q 3425 2909 3186 2687 
Q 2947 2466 2947 1947 
L 2947 0 
L 2375 0 
L 2375 2184 
Q 2375 2525 2294 2681 
Q 2166 2916 1816 2916 
Q 1497 2916 1236 2669 
Q 975 2422 975 1775 
L 975 0 
L 413 0 
L 413 3347 
z
" transform="scale(0.015625)"/>
       <path id="Helvetica-65" d="M 1806 3422 
Q 2163 3422 2497 3255 
Q 2831 3088 3006 2822 
Q 3175 2569 3231 2231 
Q 3281 2000 3281 1494 
L 828 1494 
Q 844 984 1069 676 
Q 1294 369 1766 369 
Q 2206 369 2469 659 
Q 2619 828 2681 1050 
L 3234 1050 
Q 3213 866 3089 639 
Q 2966 413 2813 269 
Q 2556 19 2178 -69 
Q 1975 -119 1719 -119 
Q 1094 -119 659 336 
Q 225 791 225 1609 
Q 225 2416 662 2919 
Q 1100 3422 1806 3422 
z
M 2703 1941 
Q 2669 2306 2544 2525 
Q 2313 2931 1772 2931 
Q 1384 2931 1121 2651 
Q 859 2372 844 1941 
L 2703 1941 
z
M 1753 3428 
L 1753 3428 
z
" transform="scale(0.015625)"/>
       <path id="Helvetica-20" transform="scale(0.015625)"/>
       <path id="Helvetica-28" d="M 1894 4666 
Q 1403 3713 1256 3263 
Q 1034 2578 1034 1681 
Q 1034 775 1288 25 
Q 1444 -438 1903 -1306 
L 1525 -1306 
Q 1069 -594 959 -397 
Q 850 -200 722 138 
Q 547 600 478 1125 
Q 444 1397 444 1644 
Q 444 2569 734 3291 
Q 919 3750 1503 4666 
L 1894 4666 
z
" transform="scale(0.015625)"/>
       <path id="Helvetica-68" d="M 413 4606 
L 975 4606 
L 975 2894 
Q 1175 3147 1334 3250 
Q 1606 3428 2013 3428 
Q 2741 3428 3000 2919 
Q 3141 2641 3141 2147 
L 3141 0 
L 2563 0 
L 2563 2109 
Q 2563 2478 2469 2650 
Q 2316 2925 1894 2925 
Q 1544 2925 1259 2684 
Q 975 2444 975 1775 
L 975 0 
L 413 0 
L 413 4606 
z
" transform="scale(0.015625)"/>
       <path id="Helvetica-6f" d="M 1741 363 
Q 2300 363 2508 786 
Q 2716 1209 2716 1728 
Q 2716 2197 2566 2491 
Q 2328 2953 1747 2953 
Q 1231 2953 997 2559 
Q 763 2166 763 1609 
Q 763 1075 997 719 
Q 1231 363 1741 363 
z
M 1763 3444 
Q 2409 3444 2856 3012 
Q 3303 2581 3303 1744 
Q 3303 934 2909 406 
Q 2516 -122 1688 -122 
Q 997 -122 590 345 
Q 184 813 184 1600 
Q 184 2444 612 2944 
Q 1041 3444 1763 3444 
z
M 1744 3428 
L 1744 3428 
z
" transform="scale(0.015625)"/>
       <path id="Helvetica-75" d="M 975 3347 
L 975 1125 
Q 975 869 1056 706 
Q 1206 406 1616 406 
Q 2203 406 2416 931 
Q 2531 1213 2531 1703 
L 2531 3347 
L 3094 3347 
L 3094 0 
L 2563 0 
L 2569 494 
Q 2459 303 2297 172 
Q 1975 -91 1516 -91 
Q 800 -91 541 388 
Q 400 644 400 1072 
L 400 3347 
L 975 3347 
z
M 1747 3428 
L 1747 3428 
z
" transform="scale(0.015625)"/>
       <path id="Helvetica-72" d="M 428 3347 
L 963 3347 
L 963 2769 
Q 1028 2938 1284 3180 
Q 1541 3422 1875 3422 
Q 1891 3422 1928 3419 
Q 1966 3416 2056 3406 
L 2056 2813 
Q 2006 2822 1964 2825 
Q 1922 2828 1872 2828 
Q 1447 2828 1219 2554 
Q 991 2281 991 1925 
L 991 0 
L 428 0 
L 428 3347 
z
" transform="scale(0.015625)"/>
       <path id="Helvetica-73" d="M 747 1050 
Q 772 769 888 619 
Q 1100 347 1625 347 
Q 1938 347 2175 483 
Q 2413 619 2413 903 
Q 2413 1119 2222 1231 
Q 2100 1300 1741 1391 
L 1294 1503 
Q 866 1609 663 1741 
Q 300 1969 300 2372 
Q 300 2847 642 3140 
Q 984 3434 1563 3434 
Q 2319 3434 2653 2991 
Q 2863 2709 2856 2384 
L 2325 2384 
Q 2309 2575 2191 2731 
Q 1997 2953 1519 2953 
Q 1200 2953 1036 2831 
Q 872 2709 872 2509 
Q 872 2291 1088 2159 
Q 1213 2081 1456 2022 
L 1828 1931 
Q 2434 1784 2641 1647 
Q 2969 1431 2969 969 
Q 2969 522 2630 197 
Q 2291 -128 1597 -128 
Q 850 -128 539 211 
Q 228 550 206 1050 
L 747 1050 
z
M 1578 3428 
L 1578 3428 
z
" transform="scale(0.015625)"/>
       <path id="Helvetica-29" d="M 222 -1306 
Q 719 -338 863 106 
Q 1081 778 1081 1681 
Q 1081 2584 828 3334 
Q 672 3797 213 4666 
L 591 4666 
Q 1072 3897 1173 3717 
Q 1275 3538 1394 3222 
Q 1544 2831 1608 2450 
Q 1672 2069 1672 1716 
Q 1672 791 1378 66 
Q 1194 -400 613 -1306 
L 222 -1306 
z
" transform="scale(0.015625)"/>
      </defs>
      <use xlink:href="#Helvetica-54"/>
      <use xlink:href="#Helvetica-69" x="61.083984"/>
      <use xlink:href="#Helvetica-6d" x="83.300781"/>
      <use xlink:href="#Helvetica-65" x="166.601562"/>
      <use xlink:href="#Helvetica-20" x="222.216797"/>
      <use xlink:href="#Helvetica-28" x="250"/>
      <use xlink:href="#Helvetica-68" x="283.300781"/>
      <use xlink:href="#Helvetica-6f" x="338.916016"/>
      <use xlink:href="#Helvetica-75" x="394.53125"/>
      <use xlink:href="#Helvetica-72" x="450.146484"/>
      <use xlink:href="#Helvetica-73" x="483.447266"/>
      <use xlink:href="#Helvetica-29" x="533.447266"/>
     </g>
    </g>
   </g>
   <g id="matplotlib.axis_2">
    <g id="ytick_1">
     <g id="line2d_8">
      <defs>
       <path id="m75ea08f324" d="M 0 0 
L -4 0 
" style="stroke: #262626"/>
      </defs>
      <g>
       <use xlink:href="#m75ea08f324" x="57.6" y="266.865361" style="fill: #262626; stroke: #262626"/>
      </g>
     </g>
     <g id="text_9">
      <!-- 4 -->
      <g style="fill: #262626" transform="translate(42.314687 271.886767)scale(0.14 -0.14)">
       <use xlink:href="#Helvetica-34"/>
      </g>
     </g>
    </g>
    <g id="ytick_2">
     <g id="line2d_9">
      <g>
       <use xlink:href="#m75ea08f324" x="57.6" y="220.98287" style="fill: #262626; stroke: #262626"/>
      </g>
     </g>
     <g id="text_10">
      <!-- 6 -->
      <g style="fill: #262626" transform="translate(42.314687 226.004276)scale(0.14 -0.14)">
       <use xlink:href="#Helvetica-36"/>
      </g>
     </g>
    </g>
    <g id="ytick_3">
     <g id="line2d_10">
      <g>
       <use xlink:href="#m75ea08f324" x="57.6" y="175.100379" style="fill: #262626; stroke: #262626"/>
      </g>
     </g>
     <g id="text_11">
      <!-- 8 -->
      <g style="fill: #262626" transform="translate(42.314687 180.121786)scale(0.14 -0.14)">
       <defs>
        <path id="Helvetica-38" d="M 1741 2600 
Q 2113 2600 2322 2808 
Q 2531 3016 2531 3303 
Q 2531 3553 2331 3762 
Q 2131 3972 1722 3972 
Q 1316 3972 1134 3762 
Q 953 3553 953 3272 
Q 953 2956 1187 2778 
Q 1422 2600 1741 2600 
z
M 1775 384 
Q 2166 384 2423 595 
Q 2681 806 2681 1225 
Q 2681 1659 2415 1884 
Q 2150 2109 1734 2109 
Q 1331 2109 1076 1879 
Q 822 1650 822 1244 
Q 822 894 1055 639 
Q 1288 384 1775 384 
z
M 975 2384 
Q 741 2484 609 2619 
Q 363 2869 363 3269 
Q 363 3769 725 4128 
Q 1088 4488 1753 4488 
Q 2397 4488 2762 4148 
Q 3128 3809 3128 3356 
Q 3128 2938 2916 2678 
Q 2797 2531 2547 2391 
Q 2825 2263 2984 2097 
Q 3281 1784 3281 1284 
Q 3281 694 2884 283 
Q 2488 -128 1763 -128 
Q 1109 -128 657 226 
Q 206 581 206 1256 
Q 206 1653 400 1942 
Q 594 2231 975 2384 
z
" transform="scale(0.015625)"/>
       </defs>
       <use xlink:href="#Helvetica-38"/>
      </g>
     </g>
    </g>
    <g id="ytick_4">
     <g id="line2d_11">
      <g>
       <use xlink:href="#m75ea08f324" x="57.6" y="129.217889" style="fill: #262626; stroke: #262626"/>
      </g>
     </g>
     <g id="text_12">
      <!-- 10 -->
      <g style="fill: #262626" transform="translate(34.529375 134.239295)scale(0.14 -0.14)">
       <use xlink:href="#Helvetica-31"/>
       <use xlink:href="#Helvetica-30" x="55.615234"/>
      </g>
     </g>
    </g>
    <g id="ytick_5">
     <g id="line2d_12">
      <g>
       <use xlink:href="#m75ea08f324" x="57.6" y="83.335398" style="fill: #262626; stroke: #262626"/>
      </g>
     </g>
     <g id="text_13">
      <!-- 12 -->
      <g style="fill: #262626" transform="translate(34.529375 88.356804)scale(0.14 -0.14)">
       <use xlink:href="#Helvetica-31"/>
       <use xlink:href="#Helvetica-32" x="55.615234"/>
      </g>
     </g>
    </g>
    <g id="ytick_6">
     <g id="line2d_13">
      <defs>
       <path id="m20fbe0909e" d="M 0 0 
L -2 0 
" style="stroke: #262626"/>
      </defs>
      <g>
       <use xlink:href="#m20fbe0909e" x="57.6" y="301.277229" style="fill: #262626; stroke: #262626"/>
      </g>
     </g>
    </g>
    <g id="ytick_7">
     <g id="line2d_14">
      <g>
       <use xlink:href="#m20fbe0909e" x="57.6" y="289.806606" style="fill: #262626; stroke: #262626"/>
      </g>
     </g>
    </g>
    <g id="ytick_8">
     <g id="line2d_15">
      <g>
       <use xlink:href="#m20fbe0909e" x="57.6" y="278.335984" style="fill: #262626; stroke: #262626"/>
      </g>
     </g>
    </g>
    <g id="ytick_9">
     <g id="line2d_16">
      <g>
       <use xlink:href="#m20fbe0909e" x="57.6" y="255.394738" style="fill: #262626; stroke: #262626"/>
      </g>
     </g>
    </g>
    <g id="ytick_10">
     <g id="line2d_17">
      <g>
       <use xlink:href="#m20fbe0909e" x="57.6" y="243.924116" style="fill: #262626; stroke: #262626"/>
      </g>
     </g>
    </g>
    <g id="ytick_11">
     <g id="line2d_18">
      <g>
       <use xlink:href="#m20fbe0909e" x="57.6" y="232.453493" style="fill: #262626; stroke: #262626"/>
      </g>
     </g>
    </g>
    <g id="ytick_12">
     <g id="line2d_19">
      <g>
       <use xlink:href="#m20fbe0909e" x="57.6" y="209.512247" style="fill: #262626; stroke: #262626"/>
      </g>
     </g>
    </g>
    <g id="ytick_13">
     <g id="line2d_20">
      <g>
       <use xlink:href="#m20fbe0909e" x="57.6" y="198.041625" style="fill: #262626; stroke: #262626"/>
      </g>
     </g>
    </g>
    <g id="ytick_14">
     <g id="line2d_21">
      <g>
       <use xlink:href="#m20fbe0909e" x="57.6" y="186.571002" style="fill: #262626; stroke: #262626"/>
      </g>
     </g>
    </g>
    <g id="ytick_15">
     <g id="line2d_22">
      <g>
       <use xlink:href="#m20fbe0909e" x="57.6" y="163.629757" style="fill: #262626; stroke: #262626"/>
      </g>
     </g>
    </g>
    <g id="ytick_16">
     <g id="line2d_23">
      <g>
       <use xlink:href="#m20fbe0909e" x="57.6" y="152.159134" style="fill: #262626; stroke: #262626"/>
      </g>
     </g>
    </g>
    <g id="ytick_17">
     <g id="line2d_24">
      <g>
       <use xlink:href="#m20fbe0909e" x="57.6" y="140.688511" style="fill: #262626; stroke: #262626"/>
      </g>
     </g>
    </g>
    <g id="ytick_18">
     <g id="line2d_25">
      <g>
       <use xlink:href="#m20fbe0909e" x="57.6" y="117.747266" style="fill: #262626; stroke: #262626"/>
      </g>
     </g>
    </g>
    <g id="ytick_19">
     <g id="line2d_26">
      <g>
       <use xlink:href="#m20fbe0909e" x="57.6" y="106.276643" style="fill: #262626; stroke: #262626"/>
      </g>
     </g>
    </g>
    <g id="ytick_20">
     <g id="line2d_27">
      <g>
       <use xlink:href="#m20fbe0909e" x="57.6" y="94.80602" style="fill: #262626; stroke: #262626"/>
      </g>
     </g>
    </g>
    <g id="ytick_21">
     <g id="line2d_28">
      <g>
       <use xlink:href="#m20fbe0909e" x="57.6" y="71.864775" style="fill: #262626; stroke: #262626"/>
      </g>
     </g>
    </g>
    <g id="ytick_22">
     <g id="line2d_29">
      <g>
       <use xlink:href="#m20fbe0909e" x="57.6" y="60.394152" style="fill: #262626; stroke: #262626"/>
      </g>
     </g>
    </g>
    <g id="ytick_23">
     <g id="line2d_30">
      <g>
       <use xlink:href="#m20fbe0909e" x="57.6" y="48.92353" style="fill: #262626; stroke: #262626"/>
      </g>
     </g>
    </g>
    <g id="text_14">
     <!-- Concentration (nM) -->
     <g style="fill: #262626" transform="translate(26.7775 251.553937)rotate(-90)scale(0.18 -0.18)">
      <defs>
       <path id="Helvetica-43" d="M 2422 4716 
Q 3294 4716 3775 4256 
Q 4256 3797 4309 3213 
L 3703 3213 
Q 3600 3656 3292 3915 
Q 2984 4175 2428 4175 
Q 1750 4175 1333 3698 
Q 916 3222 916 2238 
Q 916 1431 1292 929 
Q 1669 428 2416 428 
Q 3103 428 3463 956 
Q 3653 1234 3747 1688 
L 4353 1688 
Q 4272 963 3816 472 
Q 3269 -119 2341 -119 
Q 1541 -119 997 366 
Q 281 1006 281 2344 
Q 281 3359 819 4009 
Q 1400 4716 2422 4716 
z
M 2297 4716 
L 2297 4716 
z
" transform="scale(0.015625)"/>
       <path id="Helvetica-6e" d="M 413 3347 
L 947 3347 
L 947 2872 
Q 1184 3166 1450 3294 
Q 1716 3422 2041 3422 
Q 2753 3422 3003 2925 
Q 3141 2653 3141 2147 
L 3141 0 
L 2569 0 
L 2569 2109 
Q 2569 2416 2478 2603 
Q 2328 2916 1934 2916 
Q 1734 2916 1606 2875 
Q 1375 2806 1200 2600 
Q 1059 2434 1017 2257 
Q 975 2081 975 1753 
L 975 0 
L 413 0 
L 413 3347 
z
M 1734 3428 
L 1734 3428 
z
" transform="scale(0.015625)"/>
       <path id="Helvetica-63" d="M 1703 3444 
Q 2269 3444 2623 3169 
Q 2978 2894 3050 2222 
L 2503 2222 
Q 2453 2531 2275 2736 
Q 2097 2941 1703 2941 
Q 1166 2941 934 2416 
Q 784 2075 784 1575 
Q 784 1072 996 728 
Q 1209 384 1666 384 
Q 2016 384 2220 598 
Q 2425 813 2503 1184 
L 3050 1184 
Q 2956 519 2581 211 
Q 2206 -97 1622 -97 
Q 966 -97 575 383 
Q 184 863 184 1581 
Q 184 2463 612 2953 
Q 1041 3444 1703 3444 
z
M 1616 3428 
L 1616 3428 
z
" transform="scale(0.015625)"/>
       <path id="Helvetica-74" d="M 525 4281 
L 1094 4281 
L 1094 3347 
L 1628 3347 
L 1628 2888 
L 1094 2888 
L 1094 703 
Q 1094 528 1213 469 
Q 1278 434 1431 434 
Q 1472 434 1519 436 
Q 1566 438 1628 444 
L 1628 0 
Q 1531 -28 1426 -40 
Q 1322 -53 1200 -53 
Q 806 -53 665 148 
Q 525 350 525 672 
L 525 2888 
L 72 2888 
L 72 3347 
L 525 3347 
L 525 4281 
z
" transform="scale(0.015625)"/>
       <path id="Helvetica-61" d="M 844 891 
Q 844 647 1022 506 
Q 1200 366 1444 366 
Q 1741 366 2019 503 
Q 2488 731 2488 1250 
L 2488 1703 
Q 2384 1638 2221 1594 
Q 2059 1550 1903 1531 
L 1563 1488 
Q 1256 1447 1103 1359 
Q 844 1213 844 891 
z
M 2206 2028 
Q 2400 2053 2466 2191 
Q 2503 2266 2503 2406 
Q 2503 2694 2298 2823 
Q 2094 2953 1713 2953 
Q 1272 2953 1088 2716 
Q 984 2584 953 2325 
L 428 2325 
Q 444 2944 830 3186 
Q 1216 3428 1725 3428 
Q 2316 3428 2684 3203 
Q 3050 2978 3050 2503 
L 3050 575 
Q 3050 488 3086 434 
Q 3122 381 3238 381 
Q 3275 381 3322 386 
Q 3369 391 3422 400 
L 3422 -16 
Q 3291 -53 3222 -62 
Q 3153 -72 3034 -72 
Q 2744 -72 2613 134 
Q 2544 244 2516 444 
Q 2344 219 2022 53 
Q 1700 -113 1313 -113 
Q 847 -113 551 170 
Q 256 453 256 878 
Q 256 1344 547 1600 
Q 838 1856 1309 1916 
L 2206 2028 
z
M 1741 3428 
L 1741 3428 
z
" transform="scale(0.015625)"/>
       <path id="Helvetica-4d" d="M 472 4591 
L 1363 4591 
L 2681 709 
L 3991 4591 
L 4872 4591 
L 4872 0 
L 4281 0 
L 4281 2709 
Q 4281 2850 4287 3175 
Q 4294 3500 4294 3872 
L 2984 0 
L 2369 0 
L 1050 3872 
L 1050 3731 
Q 1050 3563 1058 3217 
Q 1066 2872 1066 2709 
L 1066 0 
L 472 0 
L 472 4591 
z
" transform="scale(0.015625)"/>
      </defs>
      <use xlink:href="#Helvetica-43"/>
      <use xlink:href="#Helvetica-6f" x="72.216797"/>
      <use xlink:href="#Helvetica-6e" x="127.832031"/>
      <use xlink:href="#Helvetica-63" x="183.447266"/>
      <use xlink:href="#Helvetica-65" x="233.447266"/>
      <use xlink:href="#Helvetica-6e" x="289.0625"/>
      <use xlink:href="#Helvetica-74" x="344.677734"/>
      <use xlink:href="#Helvetica-72" x="372.460938"/>
      <use xlink:href="#Helvetica-61" x="405.761719"/>
      <use xlink:href="#Helvetica-74" x="461.376953"/>
      <use xlink:href="#Helvetica-69" x="489.160156"/>
      <use xlink:href="#Helvetica-6f" x="511.376953"/>
      <use xlink:href="#Helvetica-6e" x="566.992188"/>
      <use xlink:href="#Helvetica-20" x="622.607422"/>
      <use xlink:href="#Helvetica-28" x="650.390625"/>
      <use xlink:href="#Helvetica-6e" x="683.691406"/>
      <use xlink:href="#Helvetica-4d" x="739.306641"/>
      <use xlink:href="#Helvetica-29" x="822.607422"/>
     </g>
    </g>
   </g>
   <g id="line2d_31">
    <path d="M 73.832727 106.276643 
L 74.483338 141.186585 
L 77.085779 200.501505 
L 78.386999 225.862612 
L 79.68822 246.930165 
L 80.989441 263.509971 
L 82.290661 275.821455 
L 82.941272 280.498592 
L 83.591882 284.260477 
L 84.242492 287.155968 
L 84.893103 289.227327 
L 85.543713 290.50841 
L 86.194323 291.023572 
L 86.844934 290.787185 
L 87.495544 289.803696 
L 88.146154 288.068173 
L 88.796764 285.567376 
L 89.447375 282.281352 
L 90.097985 278.185597 
L 90.748595 273.253849 
L 92.049816 260.789802 
L 93.351037 244.789051 
L 94.652257 225.393722 
L 96.604088 191.209896 
L 99.85714 130.932797 
L 101.15836 110.397938 
L 102.459581 94.220841 
L 103.110191 88.121476 
L 103.760802 83.480277 
L 104.411412 80.358512 
L 105.062022 78.787327 
L 105.712633 78.768422 
L 106.363243 80.275028 
L 107.013853 83.253105 
L 107.664463 87.622842 
L 108.315074 93.280536 
L 109.616294 107.940904 
L 110.917515 126.036476 
L 113.519956 167.114848 
L 115.471787 197.263376 
L 116.773008 215.283884 
L 118.074228 231.009145 
L 119.375449 244.191 
L 120.67667 254.771964 
L 121.97789 262.813409 
L 122.628501 265.917683 
L 123.279111 268.432571 
L 123.929721 270.373652 
L 124.580332 271.754962 
L 125.230942 272.588408 
L 125.881552 272.883386 
L 126.532163 272.646626 
L 127.182773 271.882212 
L 127.833383 270.591802 
L 128.483993 268.775022 
L 129.134604 266.43003 
L 129.785214 263.554252 
L 131.086435 256.201917 
L 132.387655 246.720385 
L 133.688876 235.170761 
L 134.990097 221.713848 
L 136.941927 198.641986 
L 142.14681 134.048898 
L 143.448031 121.169445 
L 144.749251 110.969483 
L 145.399862 107.026706 
L 146.050472 103.914301 
L 146.701082 101.661527 
L 147.351692 100.285515 
L 148.002303 99.791279 
L 148.652913 100.171991 
L 149.303523 101.409354 
L 149.954134 103.474144 
L 150.604744 106.326904 
L 151.255354 109.91877 
L 152.556575 119.083441 
L 153.857796 130.430564 
L 155.809627 150.200722 
L 160.363899 198.63113 
L 162.31573 216.531329 
L 163.61695 226.788371 
L 164.918171 235.555081 
L 166.219392 242.778781 
L 167.520612 248.451841 
L 168.821833 252.593792 
L 169.472443 254.100497 
L 170.123053 255.236895 
L 170.773664 256.007316 
L 171.424274 256.415826 
L 172.074884 256.466133 
L 172.725495 256.161558 
L 173.376105 255.505058 
L 174.026715 254.49931 
L 174.677326 253.14684 
L 175.327936 251.450216 
L 176.629156 247.036365 
L 177.930377 241.288688 
L 179.231598 234.256972 
L 180.532818 226.020936 
L 182.484649 211.685263 
L 184.43648 195.540015 
L 189.641363 151.001714 
L 190.942583 141.401538 
L 192.243804 133.094929 
L 193.545025 126.357662 
L 194.846245 121.403185 
L 195.496856 119.641718 
L 196.147466 118.37313 
L 196.798076 117.60313 
L 197.448686 117.332593 
L 198.099297 117.557644 
L 198.749907 118.269792 
L 199.400517 119.456126 
L 200.051128 121.099552 
L 200.701738 123.179091 
L 202.002959 128.545193 
L 203.304179 135.322509 
L 204.6054 143.242104 
L 206.557231 156.624776 
L 213.063334 202.978973 
L 215.015165 214.582573 
L 216.316385 221.297555 
L 217.617606 227.117921 
L 218.918827 232.004716 
L 220.220047 235.937664 
L 221.521268 238.910078 
L 222.171878 240.036624 
L 222.822489 240.924525 
L 223.473099 241.575006 
L 224.123709 241.989516 
L 224.77432 242.169691 
L 225.42493 242.117325 
L 226.07554 241.834367 
L 226.72615 241.322926 
L 227.376761 240.585301 
L 228.027371 239.624017 
L 229.328592 237.042025 
L 230.629812 233.603961 
L 231.931033 229.344907 
L 233.232254 224.310899 
L 234.533474 218.561874 
L 236.485305 208.770047 
L 239.087746 194.083282 
L 244.943239 159.826439 
L 246.89507 150.041318 
L 248.196291 144.447184 
L 249.497511 139.752792 
L 250.798732 136.064684 
L 251.449342 134.623554 
L 252.099953 133.460888 
L 252.750563 132.581614 
L 253.401173 131.988666 
L 254.051784 131.682985 
L 254.702394 131.663545 
L 255.353004 131.927388 
L 256.003614 132.469683 
L 256.654225 133.283799 
L 257.304835 134.361395 
L 258.606056 137.26577 
L 259.907276 141.08621 
L 261.208497 145.706738 
L 263.160328 153.849528 
L 265.762769 166.224804 
L 271.618262 195.076595 
L 273.570093 203.634249 
L 275.521924 211.201284 
L 276.823144 215.608455 
L 278.124365 219.462192 
L 279.425586 222.736784 
L 280.726806 225.414999 
L 282.028027 227.486591 
L 283.329248 228.946994 
L 283.979858 229.447865 
L 284.630468 229.796284 
L 285.281078 229.992862 
L 285.931689 230.038423 
L 286.582299 229.933996 
L 287.232909 229.680816 
L 287.88352 229.280323 
L 289.18474 228.044243 
L 290.485961 226.241765 
L 291.787182 223.893003 
L 293.088402 221.022829 
L 294.389623 217.661621 
L 296.341454 211.781144 
L 298.293285 205.033328 
L 300.895726 195.023637 
L 308.70305 163.810189 
L 310.654881 157.245072 
L 311.956101 153.433079 
L 313.257322 150.150818 
L 314.558542 147.453333 
L 315.859763 145.383638 
L 317.160984 143.97172 
L 317.811594 143.518084 
L 318.462204 143.233953 
L 319.112815 143.119222 
L 319.763425 143.172933 
L 320.414035 143.393302 
L 321.064646 143.777732 
L 321.715256 144.322849 
L 323.016477 145.877949 
L 324.317697 148.017396 
L 325.618918 150.690123 
L 326.920138 153.836845 
L 328.871969 159.300663 
L 330.8238 165.443268 
L 334.076852 176.518681 
L 338.631124 191.979267 
L 341.233565 199.937275 
L 343.185396 205.214784 
L 345.137227 209.780654 
L 346.438448 212.389891 
L 347.739668 214.631001 
L 349.040889 216.491386 
L 350.34211 217.962282 
L 351.64333 219.038346 
L 352.944551 219.717316 
L 354.245772 219.999733 
L 355.546992 219.888764 
L 356.848213 219.390094 
L 358.149433 218.511909 
L 359.450654 217.264947 
L 360.751875 215.662606 
L 362.053095 213.721101 
L 363.354316 211.459632 
L 365.306147 207.517315 
L 367.257978 202.995689 
L 369.860419 196.252693 
L 373.764081 185.233299 
L 378.318353 172.439664 
L 380.920794 165.891685 
L 382.872625 161.617836 
L 384.173846 159.14486 
L 385.475067 157.011297 
L 386.776287 155.244236 
L 388.077508 153.865006 
L 389.378728 152.888806 
L 390.679949 152.324485 
L 391.98117 152.174451 
L 393.28239 152.434751 
L 394.583611 153.095269 
L 395.884832 154.14007 
L 397.186052 155.54786 
L 398.487273 157.292548 
L 398.487273 157.292548 
" clip-path="url(#p6df39f7738)" style="fill: none; stroke: #4477aa; stroke-linecap: round"/>
   </g>
   <g id="line2d_32">
    <path d="M 73.832727 129.217889 
L 74.483338 132.038316 
L 75.784558 103.215925 
L 77.085779 79.521607 
L 77.736389 70.233948 
L 78.386999 62.897281 
L 79.03761 57.63296 
L 79.68822 54.514159 
L 80.33883 53.568 
L 80.989441 54.77747 
L 81.640051 58.082816 
L 82.290661 63.382533 
L 82.941272 70.534474 
L 84.242492 89.636602 
L 85.543713 113.557354 
L 90.097985 204.768648 
L 91.399206 226.057105 
L 92.700426 243.662887 
L 94.001647 257.483516 
L 95.302868 267.665062 
L 95.953478 271.468454 
L 96.604088 274.457632 
L 97.254698 276.662804 
L 97.905309 278.109794 
L 98.555919 278.818941 
L 99.206529 278.804501 
L 99.85714 278.074511 
L 100.50775 276.631089 
L 101.15836 274.471137 
L 101.808971 271.587467 
L 102.459581 267.97031 
L 103.760802 258.495458 
L 105.062022 245.998705 
L 106.363243 230.546938 
L 107.664463 212.413041 
L 109.616294 181.470535 
L 112.869346 128.233771 
L 114.170567 109.902375 
L 115.471787 94.981482 
L 116.122398 89.075019 
L 116.773008 84.313993 
L 117.423618 80.755515 
L 118.074228 78.436423 
L 118.724839 77.373462 
L 119.375449 77.563679 
L 120.026059 78.984983 
L 120.67667 81.596849 
L 121.32728 85.341192 
L 121.97789 90.14349 
L 123.279111 102.550665 
L 124.580332 117.957684 
L 126.532163 144.511371 
L 129.785214 189.789934 
L 131.737045 213.363814 
L 133.038266 226.6282 
L 134.339486 237.7076 
L 135.640707 246.551717 
L 136.941927 253.187299 
L 137.592538 255.696622 
L 138.243148 257.679498 
L 138.893758 259.145264 
L 139.544369 260.102563 
L 140.194979 260.559003 
L 140.845589 260.520956 
L 141.4962 259.993517 
L 142.14681 258.980587 
L 142.79742 257.485097 
L 143.448031 255.509352 
L 144.098641 253.055486 
L 145.399862 246.724575 
L 146.701082 238.529648 
L 148.002303 228.549126 
L 149.303523 216.927528 
L 151.255354 196.953555 
L 157.761457 126.204083 
L 159.062678 115.366753 
L 160.363899 106.799952 
L 161.014509 103.474002 
L 161.665119 100.827443 
L 162.31573 98.880946 
L 162.96634 97.646934 
L 163.61695 97.129609 
L 164.267561 97.32508 
L 164.918171 98.221575 
L 165.568781 99.799737 
L 166.219392 102.033015 
L 166.870002 104.888129 
L 168.171222 112.300554 
L 169.472443 121.65975 
L 171.424274 138.376183 
L 178.580987 204.04584 
L 179.882208 213.666402 
L 181.183429 222.054296 
L 182.484649 229.130107 
L 183.78587 234.855257 
L 185.087091 239.219954 
L 185.737701 240.894301 
L 186.388311 242.232641 
L 187.038921 243.237521 
L 187.689532 243.911742 
L 188.340142 244.258241 
L 188.990752 244.280032 
L 189.641363 243.980168 
L 190.291973 243.361762 
L 190.942583 242.428029 
L 191.593194 241.182381 
L 192.243804 239.628532 
L 193.545025 235.613545 
L 194.846245 230.425063 
L 196.147466 224.121397 
L 197.448686 216.783812 
L 199.400517 204.089436 
L 201.352348 189.842254 
L 207.207841 145.397405 
L 209.159672 132.991814 
L 210.460893 126.128477 
L 211.762113 120.61966 
L 213.063334 116.610543 
L 213.713944 115.19986 
L 214.364555 114.195243 
L 215.015165 113.600097 
L 215.665775 113.414474 
L 216.316385 113.63513 
L 216.966996 114.255616 
L 217.617606 115.266388 
L 218.268216 116.654956 
L 218.918827 118.406073 
L 220.220047 122.922344 
L 221.521268 128.646093 
L 222.822489 135.379285 
L 224.77432 146.892926 
L 228.027371 167.967551 
L 231.280423 188.585883 
L 233.232254 199.657332 
L 235.184085 209.280463 
L 236.485305 214.766887 
L 237.786526 219.453449 
L 239.087746 223.310487 
L 240.388967 226.321423 
L 241.690188 228.479739 
L 242.340798 229.239256 
L 242.991408 229.786501 
L 243.642019 230.122491 
L 244.292629 230.248533 
L 244.943239 230.166201 
L 245.59385 229.877333 
L 246.24446 229.38403 
L 246.89507 228.688673 
L 247.54568 227.793954 
L 248.846901 225.41888 
L 250.148122 222.287725 
L 251.449342 218.436906 
L 252.750563 213.911995 
L 254.702394 205.987383 
L 256.654225 196.918791 
L 259.256666 183.593366 
L 264.461549 156.287675 
L 266.413379 147.191811 
L 267.7146 141.825319 
L 269.015821 137.147302 
L 270.317041 133.251867 
L 271.618262 130.214172 
L 272.268872 129.034763 
L 272.919483 128.088381 
L 273.570093 127.378312 
L 274.220703 126.906415 
L 274.871314 126.673131 
L 275.521924 126.677491 
L 276.172534 126.91715 
L 276.823144 127.388417 
L 277.473755 128.086305 
L 278.124365 129.004589 
L 279.425586 131.471642 
L 280.726806 134.717672 
L 282.028027 138.655948 
L 283.329248 143.188018 
L 285.281078 150.864348 
L 287.88352 162.148709 
L 293.088402 185.088718 
L 295.040233 192.871045 
L 296.992064 199.838269 
L 298.943895 205.827988 
L 300.245116 209.219427 
L 301.546336 212.100478 
L 302.847557 214.454229 
L 304.148777 216.269801 
L 305.449998 217.541522 
L 306.100608 217.972916 
L 306.751219 218.268235 
L 307.401829 218.427958 
L 308.052439 218.452791 
L 308.70305 218.343663 
L 309.35366 218.101727 
L 310.00427 217.728354 
L 311.305491 216.593911 
L 312.606712 214.955895 
L 313.907932 212.8338 
L 315.209153 210.251399 
L 316.510373 207.23714 
L 318.462204 201.980776 
L 320.414035 195.965362 
L 323.016477 187.051868 
L 331.474411 156.792299 
L 333.426242 150.903082 
L 335.378072 145.885872 
L 336.679293 143.111551 
L 337.980514 140.84217 
L 339.281734 139.109106 
L 340.582955 137.933955 
L 341.233565 137.559583 
L 341.884176 137.328195 
L 342.534786 137.239633 
L 343.185396 137.29311 
L 343.836007 137.487223 
L 344.486617 137.81997 
L 345.787838 138.890456 
L 347.089058 140.477306 
L 348.390279 142.545158 
L 349.691499 145.051566 
L 350.99272 147.948149 
L 352.944551 152.907549 
L 355.546992 160.365577 
L 365.306147 189.522682 
L 367.257978 194.37982 
L 369.209809 198.631268 
L 371.16164 202.201712 
L 372.46286 204.175804 
L 373.764081 205.810832 
L 375.065302 207.098496 
L 376.366522 208.033574 
L 377.667743 208.613693 
L 378.968963 208.839145 
L 380.270184 208.712756 
L 381.571405 208.2398 
L 382.872625 207.427962 
L 384.173846 206.287345 
L 385.475067 204.830508 
L 386.776287 203.07253 
L 388.077508 201.031071 
L 390.029339 197.482528 
L 391.98117 193.422398 
L 394.583611 187.376383 
L 397.836662 179.168769 
L 398.487273 177.485468 
L 398.487273 177.485468 
" clip-path="url(#p6df39f7738)" style="fill: none; stroke: #ee6677; stroke-linecap: round"/>
   </g>
   <g id="line2d_33">
    <path d="M 73.832727 289.806606 
L 74.483338 295.488 
L 75.133948 294.841364 
L 75.784558 293.353805 
L 76.435169 291.014466 
L 77.085779 287.801333 
L 77.736389 283.683868 
L 78.386999 278.626459 
L 79.68822 265.550882 
L 80.989441 248.374579 
L 82.290661 227.173539 
L 83.591882 202.499671 
L 88.146154 109.831279 
L 89.447375 89.609416 
L 90.097985 81.665481 
L 90.748595 75.367154 
L 91.399206 70.819553 
L 92.049816 68.090611 
L 92.700426 67.211232 
L 93.351037 68.175634 
L 94.001647 70.941805 
L 94.652257 75.432107 
L 95.302868 81.534341 
L 96.604088 97.96592 
L 97.905309 118.754734 
L 100.50775 166.295964 
L 102.459581 200.615271 
L 103.760802 220.607563 
L 105.062022 237.580722 
L 106.363243 251.337503 
L 107.664463 261.921134 
L 108.315074 266.073853 
L 108.965684 269.501595 
L 109.616294 272.230629 
L 110.266905 274.285531 
L 110.917515 275.687973 
L 111.568125 276.455925 
L 112.218736 276.603193 
L 112.869346 276.139282 
L 113.519956 275.069549 
L 114.170567 273.395613 
L 114.821177 271.116036 
L 115.471787 268.227229 
L 116.122398 264.72461 
L 117.423618 255.86307 
L 118.724839 244.53171 
L 120.026059 230.819491 
L 121.32728 214.961031 
L 123.279111 188.134649 
L 127.182773 132.877498 
L 128.483993 117.368632 
L 129.785214 104.7837 
L 130.435824 99.801334 
L 131.086435 95.779492 
L 131.737045 92.765086 
L 132.387655 90.789676 
L 133.038266 89.869278 
L 133.688876 90.004375 
L 134.339486 91.180131 
L 134.990097 93.366776 
L 135.640707 96.520212 
L 136.291317 100.582855 
L 137.592538 111.144982 
L 138.893758 124.372657 
L 140.845589 147.461108 
L 144.749251 195.460705 
L 146.701082 216.14737 
L 148.002303 227.854102 
L 149.303523 237.714852 
L 150.604744 245.684818 
L 151.905965 251.780104 
L 152.556575 254.139404 
L 153.207185 256.049692 
L 153.857796 257.51868 
L 154.508406 258.553825 
L 155.159016 259.162041 
L 155.809627 259.349521 
L 156.460237 259.121652 
L 157.110847 258.483026 
L 157.761457 257.437535 
L 158.412068 255.988546 
L 159.062678 254.139154 
L 160.363899 249.252164 
L 161.665119 242.809466 
L 162.96634 234.865462 
L 164.267561 225.511927 
L 166.219392 209.172202 
L 168.821833 184.357545 
L 172.725495 146.546524 
L 174.026715 135.516759 
L 175.327936 125.980196 
L 176.629156 118.288728 
L 177.279767 115.223992 
L 177.930377 112.716385 
L 178.580987 110.78579 
L 179.231598 109.445883 
L 179.882208 108.704046 
L 180.532818 108.561346 
L 181.183429 109.012614 
L 181.834039 110.046577 
L 182.484649 111.646079 
L 183.13526 113.788379 
L 183.78587 116.445515 
L 185.087091 123.169089 
L 186.388311 131.507407 
L 188.340142 146.25291 
L 191.593194 173.610737 
L 194.195635 194.863254 
L 196.147466 209.034466 
L 197.448686 217.316064 
L 198.749907 224.543109 
L 200.051128 230.656288 
L 201.352348 235.626647 
L 202.653569 239.446992 
L 203.304179 240.927744 
L 203.95479 242.124433 
L 204.6054 243.039219 
L 205.25601 243.67452 
L 205.906621 244.032928 
L 206.557231 244.117155 
L 207.207841 243.930002 
L 207.858451 243.47436 
L 208.509062 242.753229 
L 209.159672 241.769768 
L 209.810282 240.527359 
L 211.111503 237.280877 
L 212.412724 233.048958 
L 213.713944 227.877282 
L 215.015165 221.826267 
L 216.966996 211.280535 
L 218.918827 199.304672 
L 222.171878 177.551804 
L 225.42493 156.15762 
L 227.376761 144.862867 
L 228.677981 138.393694 
L 229.979202 132.972611 
L 231.280423 128.736913 
L 231.931033 127.096791 
L 232.581643 125.78804 
L 233.232254 124.817175 
L 233.882864 124.188134 
L 234.533474 123.902262 
L 235.184085 123.958351 
L 235.834695 124.35264 
L 236.485305 125.078915 
L 237.135915 126.128591 
L 237.786526 127.490803 
L 239.087746 131.098958 
L 240.388967 135.776993 
L 241.690188 141.373089 
L 243.642019 151.112662 
L 246.24446 165.649495 
L 250.798732 191.437862 
L 252.750563 201.362949 
L 254.702394 210.108865 
L 256.003614 215.173955 
L 257.304835 219.574118 
L 258.606056 223.280236 
L 259.907276 226.274558 
L 261.208497 228.548378 
L 262.509718 230.100023 
L 263.160328 230.606032 
L 263.810938 230.933273 
L 264.461549 231.08289 
L 265.112159 231.056253 
L 265.762769 230.854954 
L 266.413379 230.480804 
L 267.06399 229.93584 
L 267.7146 229.222334 
L 269.015821 227.300077 
L 270.317041 224.73772 
L 271.618262 221.564289 
L 272.919483 217.815205 
L 274.220703 213.533379 
L 276.172534 206.226702 
L 278.124365 198.052184 
L 281.377417 183.230828 
L 285.281078 165.329542 
L 287.232909 157.162872 
L 289.18474 149.983781 
L 290.485961 145.899166 
L 291.787182 142.46649 
L 293.088402 139.748 
L 294.389623 137.790196 
L 295.040233 137.106477 
L 295.690843 136.62266 
L 296.341454 136.339698 
L 296.992064 136.257442 
L 297.642674 136.374651 
L 298.293285 136.68901 
L 298.943895 137.197162 
L 299.594505 137.894741 
L 300.895726 139.835937 
L 302.196947 142.459311 
L 303.498167 145.6989 
L 304.799388 149.478307 
L 306.751219 155.97358 
L 309.35366 165.699072 
L 316.510373 193.262532 
L 318.462204 199.814879 
L 320.414035 205.605964 
L 322.365866 210.519135 
L 323.667087 213.265422 
L 324.968307 215.568346 
L 326.269528 217.416675 
L 327.570749 218.803716 
L 328.871969 219.726741 
L 330.17319 220.186512 
L 330.8238 220.243787 
L 331.474411 220.186953 
L 332.775631 219.734935 
L 334.076852 218.840201 
L 335.378072 217.515392 
L 336.679293 215.776184 
L 337.980514 213.641486 
L 339.281734 211.133681 
L 341.233565 206.730598 
L 343.185396 201.652701 
L 345.787838 194.053252 
L 349.040889 183.732155 
L 353.595161 169.227148 
L 356.197603 161.736223 
L 358.149433 156.831257 
L 359.450654 153.99071 
L 360.751875 151.541401 
L 362.053095 149.517162 
L 363.354316 147.94478 
L 364.655537 146.843461 
L 365.956757 146.224498 
L 366.607368 146.097223 
L 367.257978 146.091118 
L 367.908588 146.205333 
L 369.209809 146.788905 
L 370.511029 147.831628 
L 371.81225 149.310099 
L 373.113471 151.194483 
L 374.414691 153.449299 
L 376.366522 157.437035 
L 378.318353 162.016247 
L 380.920794 168.761325 
L 389.378728 191.376072 
L 391.330559 195.92342 
L 393.28239 199.993037 
L 395.234221 203.511731 
L 397.186052 206.423812 
L 398.487273 208.007985 
L 398.487273 208.007985 
" clip-path="url(#p6df39f7738)" style="fill: none; stroke: #228833; stroke-linecap: round"/>
   </g>
   <g id="patch_3">
    <path d="M 57.6 307.584 
L 57.6 41.472 
" style="fill: none; stroke: #262626; stroke-width: 0.5; stroke-linejoin: miter; stroke-linecap: square"/>
   </g>
   <g id="patch_4">
    <path d="M 57.6 307.584 
L 414.72 307.584 
" style="fill: none; stroke: #262626; stroke-width: 0.5; stroke-linejoin: miter; stroke-linecap: square"/>
   </g>
   <g id="legend_1">
    <g id="line2d_34">
     <path d="M 335.120625 64.284187 
L 353.120625 64.284187 
L 371.120625 64.284187 
" style="fill: none; stroke: #4477aa; stroke-linecap: round"/>
    </g>
    <g id="text_15">
     <!-- A -->
     <g style="fill: #262626" transform="translate(385.520625 70.584187)scale(0.18 -0.18)">
      <defs>
       <path id="Helvetica-41" d="M 2844 1881 
L 2147 3909 
L 1406 1881 
L 2844 1881 
z
M 1822 4591 
L 2525 4591 
L 4191 0 
L 3509 0 
L 3044 1375 
L 1228 1375 
L 731 0 
L 94 0 
L 1822 4591 
z
" transform="scale(0.015625)"/>
      </defs>
      <use xlink:href="#Helvetica-41"/>
     </g>
    </g>
    <g id="line2d_35">
     <path d="M 335.120625 89.94825 
L 353.120625 89.94825 
L 371.120625 89.94825 
" style="fill: none; stroke: #ee6677; stroke-linecap: round"/>
    </g>
    <g id="text_16">
     <!-- B -->
     <g style="fill: #262626" transform="translate(385.520625 96.24825)scale(0.18 -0.18)">
      <defs>
       <path id="Helvetica-42" d="M 2213 2650 
Q 2606 2650 2825 2759 
Q 3169 2931 3169 3378 
Q 3169 3828 2803 3984 
Q 2597 4072 2191 4072 
L 1081 4072 
L 1081 2650 
L 2213 2650 
z
M 2422 531 
Q 2994 531 3238 863 
Q 3391 1072 3391 1369 
Q 3391 1869 2944 2050 
Q 2706 2147 2316 2147 
L 1081 2147 
L 1081 531 
L 2422 531 
z
M 472 4591 
L 2444 4591 
Q 3250 4591 3591 4109 
Q 3791 3825 3791 3453 
Q 3791 3019 3544 2741 
Q 3416 2594 3175 2472 
Q 3528 2338 3703 2169 
Q 4013 1869 4013 1341 
Q 4013 897 3734 538 
Q 3319 0 2413 0 
L 472 0 
L 472 4591 
z
" transform="scale(0.015625)"/>
      </defs>
      <use xlink:href="#Helvetica-42"/>
     </g>
    </g>
    <g id="line2d_36">
     <path d="M 335.120625 115.612312 
L 353.120625 115.612312 
L 371.120625 115.612312 
" style="fill: none; stroke: #228833; stroke-linecap: round"/>
    </g>
    <g id="text_17">
     <!-- C -->
     <g style="fill: #262626" transform="translate(385.520625 121.912312)scale(0.18 -0.18)">
      <use xlink:href="#Helvetica-43"/>
     </g>
    </g>
   </g>
  </g>
 </g>
 <defs>
  <clipPath id="p6df39f7738">
   <rect x="57.6" y="41.472" width="357.12" height="266.112"/>
  </clipPath>
 </defs>
</svg>
