<?xml version="1.0" encoding="utf-8" standalone="no"?>
<!DOCTYPE svg PUBLIC "-//W3C//DTD SVG 1.1//EN"
  "http://www.w3.org/Graphics/SVG/1.1/DTD/svg11.dtd">
<svg xmlns:xlink="http://www.w3.org/1999/xlink" width="460.8pt" height="345.6pt" viewBox="0 0 460.8 345.6" xmlns="http://www.w3.org/2000/svg" version="1.1">
 <metadata>
  <rdf:RDF xmlns:dc="http://purl.org/dc/elements/1.1/" xmlns:cc="http://creativecommons.org/ns#" xmlns:rdf="http://www.w3.org/1999/02/22-rdf-syntax-ns#">
   <cc:Work>
    <dc:type rdf:resource="http://purl.org/dc/dcmitype/StillImage"/>
    <dc:date>2024-04-08T17:26:31.467243</dc:date>
    <dc:format>image/svg+xml</dc:format>
    <dc:creator>
     <cc:Agent>
      <dc:title>Matplotlib v3.5.1, https://matplotlib.org/</dc:title>
     </cc:Agent>
    </dc:creator>
   </cc:Work>
  </rdf:RDF>
 </metadata>
 <defs>
  <style type="text/css">*{stroke-linejoin: round; stroke-linecap: butt}</style>
 </defs>
 <g id="figure_1">
  <g id="patch_1">
   <path d="M 0 345.6 
L 460.8 345.6 
L 460.8 0 
L 0 0 
z
" style="fill: #ffffff"/>
  </g>
  <g id="axes_1">
   <g id="patch_2">
    <path d="M 57.6 307.584 
L 414.72 307.584 
L 414.72 41.472 
L 57.6 41.472 
z
" style="fill: #ffffff"/>
   </g>
   <g id="matplotlib.axis_1">
    <g id="xtick_1">
     <g id="line2d_1">
      <defs>
       <path id="m90ed220363" d="M 0 0 
L 0 4 
" style="stroke: #262626"/>
      </defs>
      <g>
       <use xlink:href="#m90ed220363" x="73.832727" y="307.584" style="fill: #262626; stroke: #262626"/>
      </g>
     </g>
     <g id="text_1">
      <!-- 0 -->
      <g style="fill: #262626" transform="translate(69.940071 325.126812)scale(0.14 -0.14)">
       <defs>
        <path id="Helvetica-30" d="M 1731 4475 
Q 2600 4475 2988 3759 
Q 3288 3206 3288 2244 
Q 3288 1331 3016 734 
Q 2622 -122 1728 -122 
Q 922 -122 528 578 
Q 200 1163 200 2147 
Q 200 2909 397 3456 
Q 766 4475 1731 4475 
z
M 1725 391 
Q 2163 391 2422 778 
Q 2681 1166 2681 2222 
Q 2681 2984 2493 3476 
Q 2306 3969 1766 3969 
Q 1269 3969 1039 3501 
Q 809 3034 809 2125 
Q 809 1441 956 1025 
Q 1181 391 1725 391 
z
" transform="scale(0.015625)"/>
       </defs>
       <use xlink:href="#Helvetica-30"/>
      </g>
     </g>
    </g>
    <g id="xtick_2">
     <g id="line2d_2">
      <g>
       <use xlink:href="#m90ed220363" x="127.941818" y="307.584" style="fill: #262626; stroke: #262626"/>
      </g>
     </g>
     <g id="text_2">
      <!-- 10 -->
      <g style="fill: #262626" transform="translate(120.156506 325.126812)scale(0.14 -0.14)">
       <defs>
        <path id="Helvetica-31" d="M 613 3169 
L 613 3600 
Q 1222 3659 1462 3798 
Q 1703 3938 1822 4456 
L 2266 4456 
L 2266 0 
L 1666 0 
L 1666 3169 
L 613 3169 
z
" transform="scale(0.015625)"/>
       </defs>
       <use xlink:href="#Helvetica-31"/>
       <use xlink:href="#Helvetica-30" x="55.615234"/>
      </g>
     </g>
    </g>
    <g id="xtick_3">
     <g id="line2d_3">
      <g>
       <use xlink:href="#m90ed220363" x="182.050909" y="307.584" style="fill: #262626; stroke: #262626"/>
      </g>
     </g>
     <g id="text_3">
      <!-- 20 -->
      <g style="fill: #262626" transform="translate(174.265597 325.126812)scale(0.14 -0.14)">
       <defs>
        <path id="Helvetica-32" d="M 200 0 
Q 231 578 439 1006 
Q 647 1434 1250 1784 
L 1850 2131 
Q 2253 2366 2416 2531 
Q 2672 2791 2672 3125 
Q 2672 3516 2437 3745 
Q 2203 3975 1813 3975 
Q 1234 3975 1013 3538 
Q 894 3303 881 2888 
L 309 2888 
Q 319 3472 525 3841 
Q 891 4491 1816 4491 
Q 2584 4491 2939 4075 
Q 3294 3659 3294 3150 
Q 3294 2613 2916 2231 
Q 2697 2009 2131 1694 
L 1703 1456 
Q 1397 1288 1222 1134 
Q 909 863 828 531 
L 3272 531 
L 3272 0 
L 200 0 
z
" transform="scale(0.015625)"/>
       </defs>
       <use xlink:href="#Helvetica-32"/>
       <use xlink:href="#Helvetica-30" x="55.615234"/>
      </g>
     </g>
    </g>
    <g id="xtick_4">
     <g id="line2d_4">
      <g>
       <use xlink:href="#m90ed220363" x="236.16" y="307.584" style="fill: #262626; stroke: #262626"/>
      </g>
     </g>
     <g id="text_4">
      <!-- 30 -->
      <g style="fill: #262626" transform="translate(228.374688 325.126812)scale(0.14 -0.14)">
       <defs>
        <path id="Helvetica-33" d="M 1663 -122 
Q 869 -122 511 314 
Q 153 750 153 1375 
L 741 1375 
Q 778 941 903 744 
Q 1122 391 1694 391 
Q 2138 391 2406 628 
Q 2675 866 2675 1241 
Q 2675 1703 2392 1887 
Q 2109 2072 1606 2072 
Q 1550 2072 1492 2070 
Q 1434 2069 1375 2066 
L 1375 2563 
Q 1463 2553 1522 2550 
Q 1581 2547 1650 2547 
Q 1966 2547 2169 2647 
Q 2525 2822 2525 3272 
Q 2525 3606 2287 3787 
Q 2050 3969 1734 3969 
Q 1172 3969 956 3594 
Q 838 3388 822 3006 
L 266 3006 
Q 266 3506 466 3856 
Q 809 4481 1675 4481 
Q 2359 4481 2734 4176 
Q 3109 3872 3109 3294 
Q 3109 2881 2888 2625 
Q 2750 2466 2531 2375 
Q 2884 2278 3082 2001 
Q 3281 1725 3281 1325 
Q 3281 684 2859 281 
Q 2438 -122 1663 -122 
z
" transform="scale(0.015625)"/>
       </defs>
       <use xlink:href="#Helvetica-33"/>
       <use xlink:href="#Helvetica-30" x="55.615234"/>
      </g>
     </g>
    </g>
    <g id="xtick_5">
     <g id="line2d_5">
      <g>
       <use xlink:href="#m90ed220363" x="290.269091" y="307.584" style="fill: #262626; stroke: #262626"/>
      </g>
     </g>
     <g id="text_5">
      <!-- 40 -->
      <g style="fill: #262626" transform="translate(282.483778 325.126812)scale(0.14 -0.14)">
       <defs>
        <path id="Helvetica-34" d="M 2116 1584 
L 2116 3613 
L 681 1584 
L 2116 1584 
z
M 2125 0 
L 2125 1094 
L 163 1094 
L 163 1644 
L 2213 4488 
L 2688 4488 
L 2688 1584 
L 3347 1584 
L 3347 1094 
L 2688 1094 
L 2688 0 
L 2125 0 
z
" transform="scale(0.015625)"/>
       </defs>
       <use xlink:href="#Helvetica-34"/>
       <use xlink:href="#Helvetica-30" x="55.615234"/>
      </g>
     </g>
    </g>
    <g id="xtick_6">
     <g id="line2d_6">
      <g>
       <use xlink:href="#m90ed220363" x="344.378182" y="307.584" style="fill: #262626; stroke: #262626"/>
      </g>
     </g>
     <g id="text_6">
      <!-- 50 -->
      <g style="fill: #262626" transform="translate(336.592869 325.126812)scale(0.14 -0.14)">
       <defs>
        <path id="Helvetica-35" d="M 791 1141 
Q 847 659 1238 475 
Q 1438 381 1700 381 
Q 2200 381 2440 700 
Q 2681 1019 2681 1406 
Q 2681 1875 2395 2131 
Q 2109 2388 1709 2388 
Q 1419 2388 1211 2275 
Q 1003 2163 856 1963 
L 369 1991 
L 709 4400 
L 3034 4400 
L 3034 3856 
L 1131 3856 
L 941 2613 
Q 1097 2731 1238 2791 
Q 1488 2894 1816 2894 
Q 2431 2894 2859 2497 
Q 3288 2100 3288 1491 
Q 3288 856 2895 371 
Q 2503 -113 1644 -113 
Q 1097 -113 676 195 
Q 256 503 206 1141 
L 791 1141 
z
" transform="scale(0.015625)"/>
       </defs>
       <use xlink:href="#Helvetica-35"/>
       <use xlink:href="#Helvetica-30" x="55.615234"/>
      </g>
     </g>
    </g>
    <g id="xtick_7">
     <g id="line2d_7">
      <g>
       <use xlink:href="#m90ed220363" x="398.487273" y="307.584" style="fill: #262626; stroke: #262626"/>
      </g>
     </g>
     <g id="text_7">
      <!-- 60 -->
      <g style="fill: #262626" transform="translate(390.70196 325.126812)scale(0.14 -0.14)">
       <defs>
        <path id="Helvetica-36" d="M 1872 4494 
Q 2622 4494 2917 4105 
Q 3213 3716 3213 3303 
L 2656 3303 
Q 2606 3569 2497 3719 
Q 2294 4000 1881 4000 
Q 1409 4000 1131 3564 
Q 853 3128 822 2316 
Q 1016 2600 1309 2741 
Q 1578 2866 1909 2866 
Q 2472 2866 2890 2506 
Q 3309 2147 3309 1434 
Q 3309 825 2912 354 
Q 2516 -116 1781 -116 
Q 1153 -116 697 361 
Q 241 838 241 1966 
Q 241 2800 444 3381 
Q 834 4494 1872 4494 
z
M 1831 384 
Q 2275 384 2495 682 
Q 2716 981 2716 1388 
Q 2716 1731 2519 2042 
Q 2322 2353 1803 2353 
Q 1441 2353 1167 2112 
Q 894 1872 894 1388 
Q 894 963 1142 673 
Q 1391 384 1831 384 
z
" transform="scale(0.015625)"/>
       </defs>
       <use xlink:href="#Helvetica-36"/>
       <use xlink:href="#Helvetica-30" x="55.615234"/>
      </g>
     </g>
    </g>
    <g id="text_8">
     <!-- Time (hours) -->
     <g style="fill: #262626" transform="translate(185.156719 345.089312)scale(0.18 -0.18)">
      <defs>
       <path id="Helvetica-54" d="M 3828 4591 
L 3828 4044 
L 2281 4044 
L 2281 0 
L 1650 0 
L 1650 4044 
L 103 4044 
L 103 4591 
L 3828 4591 
z
" transform="scale(0.015625)"/>
       <path id="Helvetica-69" d="M 413 3331 
L 984 3331 
L 984 0 
L 413 0 
L 413 3331 
z
M 413 4591 
L 984 4591 
L 984 3953 
L 413 3953 
L 413 4591 
z
" transform="scale(0.015625)"/>
       <path id="Helvetica-6d" d="M 413 3347 
L 969 3347 
L 969 2872 
Q 1169 3119 1331 3231 
Q 1609 3422 1963 3422 
Q 2363 3422 2606 3225 
Q 2744 3113 2856 2894 
Q 3044 3163 3297 3292 
Q 3550 3422 3866 3422 
Q 4541 3422 4784 2934 
Q 4916 2672 4916 2228 
L 4916 0 
L 4331 0 
L 4331 2325 
Q 4331 2659 4164 2784 
Q 3997 2909 3756 2909 
Q 3425 2909 3186 2687 
Q 2947 2466 2947 1947 
L 2947 0 
L 2375 0 
L 2375 2184 
Q 2375 2525 2294 2681 
Q 2166 2916 1816 2916 
Q 1497 2916 1236 2669 
Q 975 2422 975 1775 
L 975 0 
L 413 0 
L 413 3347 
z
" transform="scale(0.015625)"/>
       <path id="Helvetica-65" d="M 1806 3422 
Q 2163 3422 2497 3255 
Q 2831 3088 3006 2822 
Q 3175 2569 3231 2231 
Q 3281 2000 3281 1494 
L 828 1494 
Q 844 984 1069 676 
Q 1294 369 1766 369 
Q 2206 369 2469 659 
Q 2619 828 2681 1050 
L 3234 1050 
Q 3213 866 3089 639 
Q 2966 413 2813 269 
Q 2556 19 2178 -69 
Q 1975 -119 1719 -119 
Q 1094 -119 659 336 
Q 225 791 225 1609 
Q 225 2416 662 2919 
Q 1100 3422 1806 3422 
z
M 2703 1941 
Q 2669 2306 2544 2525 
Q 2313 2931 1772 2931 
Q 1384 2931 1121 2651 
Q 859 2372 844 1941 
L 2703 1941 
z
M 1753 3428 
L 1753 3428 
z
" transform="scale(0.015625)"/>
       <path id="Helvetica-20" transform="scale(0.015625)"/>
       <path id="Helvetica-28" d="M 1894 4666 
Q 1403 3713 1256 3263 
Q 1034 2578 1034 1681 
Q 1034 775 1288 25 
Q 1444 -438 1903 -1306 
L 1525 -1306 
Q 1069 -594 959 -397 
Q 850 -200 722 138 
Q 547 600 478 1125 
Q 444 1397 444 1644 
Q 444 2569 734 3291 
Q 919 3750 1503 4666 
L 1894 4666 
z
" transform="scale(0.015625)"/>
       <path id="Helvetica-68" d="M 413 4606 
L 975 4606 
L 975 2894 
Q 1175 3147 1334 3250 
Q 1606 3428 2013 3428 
Q 2741 3428 3000 2919 
Q 3141 2641 3141 2147 
L 3141 0 
L 2563 0 
L 2563 2109 
Q 2563 2478 2469 2650 
Q 2316 2925 1894 2925 
Q 1544 2925 1259 2684 
Q 975 2444 975 1775 
L 975 0 
L 413 0 
L 413 4606 
z
" transform="scale(0.015625)"/>
       <path id="Helvetica-6f" d="M 1741 363 
Q 2300 363 2508 786 
Q 2716 1209 2716 1728 
Q 2716 2197 2566 2491 
Q 2328 2953 1747 2953 
Q 1231 2953 997 2559 
Q 763 2166 763 1609 
Q 763 1075 997 719 
Q 1231 363 1741 363 
z
M 1763 3444 
Q 2409 3444 2856 3012 
Q 3303 2581 3303 1744 
Q 3303 934 2909 406 
Q 2516 -122 1688 -122 
Q 997 -122 590 345 
Q 184 813 184 1600 
Q 184 2444 612 2944 
Q 1041 3444 1763 3444 
z
M 1744 3428 
L 1744 3428 
z
" transform="scale(0.015625)"/>
       <path id="Helvetica-75" d="M 975 3347 
L 975 1125 
Q 975 869 1056 706 
Q 1206 406 1616 406 
Q 2203 406 2416 931 
Q 2531 1213 2531 1703 
L 2531 3347 
L 3094 3347 
L 3094 0 
L 2563 0 
L 2569 494 
Q 2459 303 2297 172 
Q 1975 -91 1516 -91 
Q 800 -91 541 388 
Q 400 644 400 1072 
L 400 3347 
L 975 3347 
z
M 1747 3428 
L 1747 3428 
z
" transform="scale(0.015625)"/>
       <path id="Helvetica-72" d="M 428 3347 
L 963 3347 
L 963 2769 
Q 1028 2938 1284 3180 
Q 1541 3422 1875 3422 
Q 1891 3422 1928 3419 
Q 1966 3416 2056 3406 
L 2056 2813 
Q 2006 2822 1964 2825 
Q 1922 2828 1872 2828 
Q 1447 2828 1219 2554 
Q 991 2281 991 1925 
L 991 0 
L 428 0 
L 428 3347 
z
" transform="scale(0.015625)"/>
       <path id="Helvetica-73" d="M 747 1050 
Q 772 769 888 619 
Q 1100 347 1625 347 
Q 1938 347 2175 483 
Q 2413 619 2413 903 
Q 2413 1119 2222 1231 
Q 2100 1300 1741 1391 
L 1294 1503 
Q 866 1609 663 1741 
Q 300 1969 300 2372 
Q 300 2847 642 3140 
Q 984 3434 1563 3434 
Q 2319 3434 2653 2991 
Q 2863 2709 2856 2384 
L 2325 2384 
Q 2309 2575 2191 2731 
Q 1997 2953 1519 2953 
Q 1200 2953 1036 2831 
Q 872 2709 872 2509 
Q 872 2291 1088 2159 
Q 1213 2081 1456 2022 
L 1828 1931 
Q 2434 1784 2641 1647 
Q 2969 1431 2969 969 
Q 2969 522 2630 197 
Q 2291 -128 1597 -128 
Q 850 -128 539 211 
Q 228 550 206 1050 
L 747 1050 
z
M 1578 3428 
L 1578 3428 
z
" transform="scale(0.015625)"/>
       <path id="Helvetica-29" d="M 222 -1306 
Q 719 -338 863 106 
Q 1081 778 1081 1681 
Q 1081 2584 828 3334 
Q 672 3797 213 4666 
L 591 4666 
Q 1072 3897 1173 3717 
Q 1275 3538 1394 3222 
Q 1544 2831 1608 2450 
Q 1672 2069 1672 1716 
Q 1672 791 1378 66 
Q 1194 -400 613 -1306 
L 222 -1306 
z
" transform="scale(0.015625)"/>
      </defs>
      <use xlink:href="#Helvetica-54"/>
      <use xlink:href="#Helvetica-69" x="61.083984"/>
      <use xlink:href="#Helvetica-6d" x="83.300781"/>
      <use xlink:href="#Helvetica-65" x="166.601562"/>
      <use xlink:href="#Helvetica-20" x="222.216797"/>
      <use xlink:href="#Helvetica-28" x="250"/>
      <use xlink:href="#Helvetica-68" x="283.300781"/>
      <use xlink:href="#Helvetica-6f" x="338.916016"/>
      <use xlink:href="#Helvetica-75" x="394.53125"/>
      <use xlink:href="#Helvetica-72" x="450.146484"/>
      <use xlink:href="#Helvetica-73" x="483.447266"/>
      <use xlink:href="#Helvetica-29" x="533.447266"/>
     </g>
    </g>
   </g>
   <g id="matplotlib.axis_2">
    <g id="ytick_1">
     <g id="line2d_8">
      <defs>
       <path id="m4ae61a713f" d="M 0 0 
L -4 0 
" style="stroke: #262626"/>
      </defs>
      <g>
       <use xlink:href="#m4ae61a713f" x="57.6" y="295.488" style="fill: #262626; stroke: #262626"/>
      </g>
     </g>
     <g id="text_9">
      <!-- 0 -->
      <g style="fill: #262626" transform="translate(42.314687 300.509406)scale(0.14 -0.14)">
       <use xlink:href="#Helvetica-30"/>
      </g>
     </g>
    </g>
    <g id="ytick_2">
     <g id="line2d_9">
      <g>
       <use xlink:href="#m4ae61a713f" x="57.6" y="251.502545" style="fill: #262626; stroke: #262626"/>
      </g>
     </g>
     <g id="text_10">
      <!-- 2 -->
      <g style="fill: #262626" transform="translate(42.314687 256.523952)scale(0.14 -0.14)">
       <use xlink:href="#Helvetica-32"/>
      </g>
     </g>
    </g>
    <g id="ytick_3">
     <g id="line2d_10">
      <g>
       <use xlink:href="#m4ae61a713f" x="57.6" y="207.517091" style="fill: #262626; stroke: #262626"/>
      </g>
     </g>
     <g id="text_11">
      <!-- 4 -->
      <g style="fill: #262626" transform="translate(42.314687 212.538497)scale(0.14 -0.14)">
       <use xlink:href="#Helvetica-34"/>
      </g>
     </g>
    </g>
    <g id="ytick_4">
     <g id="line2d_11">
      <g>
       <use xlink:href="#m4ae61a713f" x="57.6" y="163.531636" style="fill: #262626; stroke: #262626"/>
      </g>
     </g>
     <g id="text_12">
      <!-- 6 -->
      <g style="fill: #262626" transform="translate(42.314687 168.553043)scale(0.14 -0.14)">
       <use xlink:href="#Helvetica-36"/>
      </g>
     </g>
    </g>
    <g id="ytick_5">
     <g id="line2d_12">
      <g>
       <use xlink:href="#m4ae61a713f" x="57.6" y="119.546182" style="fill: #262626; stroke: #262626"/>
      </g>
     </g>
     <g id="text_13">
      <!-- 8 -->
      <g style="fill: #262626" transform="translate(42.314687 124.567588)scale(0.14 -0.14)">
       <defs>
        <path id="Helvetica-38" d="M 1741 2600 
Q 2113 2600 2322 2808 
Q 2531 3016 2531 3303 
Q 2531 3553 2331 3762 
Q 2131 3972 1722 3972 
Q 1316 3972 1134 3762 
Q 953 3553 953 3272 
Q 953 2956 1187 2778 
Q 1422 2600 1741 2600 
z
M 1775 384 
Q 2166 384 2423 595 
Q 2681 806 2681 1225 
Q 2681 1659 2415 1884 
Q 2150 2109 1734 2109 
Q 1331 2109 1076 1879 
Q 822 1650 822 1244 
Q 822 894 1055 639 
Q 1288 384 1775 384 
z
M 975 2384 
Q 741 2484 609 2619 
Q 363 2869 363 3269 
Q 363 3769 725 4128 
Q 1088 4488 1753 4488 
Q 2397 4488 2762 4148 
Q 3128 3809 3128 3356 
Q 3128 2938 2916 2678 
Q 2797 2531 2547 2391 
Q 2825 2263 2984 2097 
Q 3281 1784 3281 1284 
Q 3281 694 2884 283 
Q 2488 -128 1763 -128 
Q 1109 -128 657 226 
Q 206 581 206 1256 
Q 206 1653 400 1942 
Q 594 2231 975 2384 
z
" transform="scale(0.015625)"/>
       </defs>
       <use xlink:href="#Helvetica-38"/>
      </g>
     </g>
    </g>
    <g id="ytick_6">
     <g id="line2d_13">
      <g>
       <use xlink:href="#m4ae61a713f" x="57.6" y="75.560727" style="fill: #262626; stroke: #262626"/>
      </g>
     </g>
     <g id="text_14">
      <!-- 10 -->
      <g style="fill: #262626" transform="translate(34.529375 80.582134)scale(0.14 -0.14)">
       <use xlink:href="#Helvetica-31"/>
       <use xlink:href="#Helvetica-30" x="55.615234"/>
      </g>
     </g>
    </g>
    <g id="ytick_7">
     <g id="line2d_14">
      <defs>
       <path id="m35e3e4e987" d="M 0 0 
L -2 0 
" style="stroke: #262626"/>
      </defs>
      <g>
       <use xlink:href="#m35e3e4e987" x="57.6" y="306.484364" style="fill: #262626; stroke: #262626"/>
      </g>
     </g>
    </g>
    <g id="ytick_8">
     <g id="line2d_15">
      <g>
       <use xlink:href="#m35e3e4e987" x="57.6" y="284.491636" style="fill: #262626; stroke: #262626"/>
      </g>
     </g>
    </g>
    <g id="ytick_9">
     <g id="line2d_16">
      <g>
       <use xlink:href="#m35e3e4e987" x="57.6" y="273.495273" style="fill: #262626; stroke: #262626"/>
      </g>
     </g>
    </g>
    <g id="ytick_10">
     <g id="line2d_17">
      <g>
       <use xlink:href="#m35e3e4e987" x="57.6" y="262.498909" style="fill: #262626; stroke: #262626"/>
      </g>
     </g>
    </g>
    <g id="ytick_11">
     <g id="line2d_18">
      <g>
       <use xlink:href="#m35e3e4e987" x="57.6" y="240.506182" style="fill: #262626; stroke: #262626"/>
      </g>
     </g>
    </g>
    <g id="ytick_12">
     <g id="line2d_19">
      <g>
       <use xlink:href="#m35e3e4e987" x="57.6" y="229.509818" style="fill: #262626; stroke: #262626"/>
      </g>
     </g>
    </g>
    <g id="ytick_13">
     <g id="line2d_20">
      <g>
       <use xlink:href="#m35e3e4e987" x="57.6" y="218.513455" style="fill: #262626; stroke: #262626"/>
      </g>
     </g>
    </g>
    <g id="ytick_14">
     <g id="line2d_21">
      <g>
       <use xlink:href="#m35e3e4e987" x="57.6" y="196.520727" style="fill: #262626; stroke: #262626"/>
      </g>
     </g>
    </g>
    <g id="ytick_15">
     <g id="line2d_22">
      <g>
       <use xlink:href="#m35e3e4e987" x="57.6" y="185.524364" style="fill: #262626; stroke: #262626"/>
      </g>
     </g>
    </g>
    <g id="ytick_16">
     <g id="line2d_23">
      <g>
       <use xlink:href="#m35e3e4e987" x="57.6" y="174.528" style="fill: #262626; stroke: #262626"/>
      </g>
     </g>
    </g>
    <g id="ytick_17">
     <g id="line2d_24">
      <g>
       <use xlink:href="#m35e3e4e987" x="57.6" y="152.535273" style="fill: #262626; stroke: #262626"/>
      </g>
     </g>
    </g>
    <g id="ytick_18">
     <g id="line2d_25">
      <g>
       <use xlink:href="#m35e3e4e987" x="57.6" y="141.538909" style="fill: #262626; stroke: #262626"/>
      </g>
     </g>
    </g>
    <g id="ytick_19">
     <g id="line2d_26">
      <g>
       <use xlink:href="#m35e3e4e987" x="57.6" y="130.542545" style="fill: #262626; stroke: #262626"/>
      </g>
     </g>
    </g>
    <g id="ytick_20">
     <g id="line2d_27">
      <g>
       <use xlink:href="#m35e3e4e987" x="57.6" y="108.549818" style="fill: #262626; stroke: #262626"/>
      </g>
     </g>
    </g>
    <g id="ytick_21">
     <g id="line2d_28">
      <g>
       <use xlink:href="#m35e3e4e987" x="57.6" y="97.553455" style="fill: #262626; stroke: #262626"/>
      </g>
     </g>
    </g>
    <g id="ytick_22">
     <g id="line2d_29">
      <g>
       <use xlink:href="#m35e3e4e987" x="57.6" y="86.557091" style="fill: #262626; stroke: #262626"/>
      </g>
     </g>
    </g>
    <g id="ytick_23">
     <g id="line2d_30">
      <g>
       <use xlink:href="#m35e3e4e987" x="57.6" y="64.564364" style="fill: #262626; stroke: #262626"/>
      </g>
     </g>
    </g>
    <g id="ytick_24">
     <g id="line2d_31">
      <g>
       <use xlink:href="#m35e3e4e987" x="57.6" y="53.568" style="fill: #262626; stroke: #262626"/>
      </g>
     </g>
    </g>
    <g id="ytick_25">
     <g id="line2d_32">
      <g>
       <use xlink:href="#m35e3e4e987" x="57.6" y="42.571636" style="fill: #262626; stroke: #262626"/>
      </g>
     </g>
    </g>
    <g id="text_15">
     <!-- Concentration (nM) -->
     <g style="fill: #262626" transform="translate(26.7775 251.553937)rotate(-90)scale(0.18 -0.18)">
      <defs>
       <path id="Helvetica-43" d="M 2422 4716 
Q 3294 4716 3775 4256 
Q 4256 3797 4309 3213 
L 3703 3213 
Q 3600 3656 3292 3915 
Q 2984 4175 2428 4175 
Q 1750 4175 1333 3698 
Q 916 3222 916 2238 
Q 916 1431 1292 929 
Q 1669 428 2416 428 
Q 3103 428 3463 956 
Q 3653 1234 3747 1688 
L 4353 1688 
Q 4272 963 3816 472 
Q 3269 -119 2341 -119 
Q 1541 -119 997 366 
Q 281 1006 281 2344 
Q 281 3359 819 4009 
Q 1400 4716 2422 4716 
z
M 2297 4716 
L 2297 4716 
z
" transform="scale(0.015625)"/>
       <path id="Helvetica-6e" d="M 413 3347 
L 947 3347 
L 947 2872 
Q 1184 3166 1450 3294 
Q 1716 3422 2041 3422 
Q 2753 3422 3003 2925 
Q 3141 2653 3141 2147 
L 3141 0 
L 2569 0 
L 2569 2109 
Q 2569 2416 2478 2603 
Q 2328 2916 1934 2916 
Q 1734 2916 1606 2875 
Q 1375 2806 1200 2600 
Q 1059 2434 1017 2257 
Q 975 2081 975 1753 
L 975 0 
L 413 0 
L 413 3347 
z
M 1734 3428 
L 1734 3428 
z
" transform="scale(0.015625)"/>
       <path id="Helvetica-63" d="M 1703 3444 
Q 2269 3444 2623 3169 
Q 2978 2894 3050 2222 
L 2503 2222 
Q 2453 2531 2275 2736 
Q 2097 2941 1703 2941 
Q 1166 2941 934 2416 
Q 784 2075 784 1575 
Q 784 1072 996 728 
Q 1209 384 1666 384 
Q 2016 384 2220 598 
Q 2425 813 2503 1184 
L 3050 1184 
Q 2956 519 2581 211 
Q 2206 -97 1622 -97 
Q 966 -97 575 383 
Q 184 863 184 1581 
Q 184 2463 612 2953 
Q 1041 3444 1703 3444 
z
M 1616 3428 
L 1616 3428 
z
" transform="scale(0.015625)"/>
       <path id="Helvetica-74" d="M 525 4281 
L 1094 4281 
L 1094 3347 
L 1628 3347 
L 1628 2888 
L 1094 2888 
L 1094 703 
Q 1094 528 1213 469 
Q 1278 434 1431 434 
Q 1472 434 1519 436 
Q 1566 438 1628 444 
L 1628 0 
Q 1531 -28 1426 -40 
Q 1322 -53 1200 -53 
Q 806 -53 665 148 
Q 525 350 525 672 
L 525 2888 
L 72 2888 
L 72 3347 
L 525 3347 
L 525 4281 
z
" transform="scale(0.015625)"/>
       <path id="Helvetica-61" d="M 844 891 
Q 844 647 1022 506 
Q 1200 366 1444 366 
Q 1741 366 2019 503 
Q 2488 731 2488 1250 
L 2488 1703 
Q 2384 1638 2221 1594 
Q 2059 1550 1903 1531 
L 1563 1488 
Q 1256 1447 1103 1359 
Q 844 1213 844 891 
z
M 2206 2028 
Q 2400 2053 2466 2191 
Q 2503 2266 2503 2406 
Q 2503 2694 2298 2823 
Q 2094 2953 1713 2953 
Q 1272 2953 1088 2716 
Q 984 2584 953 2325 
L 428 2325 
Q 444 2944 830 3186 
Q 1216 3428 1725 3428 
Q 2316 3428 2684 3203 
Q 3050 2978 3050 2503 
L 3050 575 
Q 3050 488 3086 434 
Q 3122 381 3238 381 
Q 3275 381 3322 386 
Q 3369 391 3422 400 
L 3422 -16 
Q 3291 -53 3222 -62 
Q 3153 -72 3034 -72 
Q 2744 -72 2613 134 
Q 2544 244 2516 444 
Q 2344 219 2022 53 
Q 1700 -113 1313 -113 
Q 847 -113 551 170 
Q 256 453 256 878 
Q 256 1344 547 1600 
Q 838 1856 1309 1916 
L 2206 2028 
z
M 1741 3428 
L 1741 3428 
z
" transform="scale(0.015625)"/>
       <path id="Helvetica-4d" d="M 472 4591 
L 1363 4591 
L 2681 709 
L 3991 4591 
L 4872 4591 
L 4872 0 
L 4281 0 
L 4281 2709 
Q 4281 2850 4287 3175 
Q 4294 3500 4294 3872 
L 2984 0 
L 2369 0 
L 1050 3872 
L 1050 3731 
Q 1050 3563 1058 3217 
Q 1066 2872 1066 2709 
L 1066 0 
L 472 0 
L 472 4591 
z
" transform="scale(0.015625)"/>
      </defs>
      <use xlink:href="#Helvetica-43"/>
      <use xlink:href="#Helvetica-6f" x="72.216797"/>
      <use xlink:href="#Helvetica-6e" x="127.832031"/>
      <use xlink:href="#Helvetica-63" x="183.447266"/>
      <use xlink:href="#Helvetica-65" x="233.447266"/>
      <use xlink:href="#Helvetica-6e" x="289.0625"/>
      <use xlink:href="#Helvetica-74" x="344.677734"/>
      <use xlink:href="#Helvetica-72" x="372.460938"/>
      <use xlink:href="#Helvetica-61" x="405.761719"/>
      <use xlink:href="#Helvetica-74" x="461.376953"/>
      <use xlink:href="#Helvetica-69" x="489.160156"/>
      <use xlink:href="#Helvetica-6f" x="511.376953"/>
      <use xlink:href="#Helvetica-6e" x="566.992188"/>
      <use xlink:href="#Helvetica-20" x="622.607422"/>
      <use xlink:href="#Helvetica-28" x="650.390625"/>
      <use xlink:href="#Helvetica-6e" x="683.691406"/>
      <use xlink:href="#Helvetica-4d" x="739.306641"/>
      <use xlink:href="#Helvetica-29" x="822.607422"/>
     </g>
    </g>
   </g>
   <g id="line2d_33">
    <path d="M 73.832727 53.568 
L 74.483338 202.872831 
L 77.085779 216.383396 
L 79.68822 228.969789 
L 81.640051 237.390288 
L 83.591882 244.734618 
L 85.543713 250.944626 
L 86.844934 254.462168 
L 88.146154 257.502006 
L 89.447375 260.087919 
L 90.748595 262.246094 
L 92.049816 264.002837 
L 93.351037 265.382873 
L 94.652257 266.408136 
L 95.953478 267.096967 
L 97.254698 267.46365 
L 98.555919 267.518221 
L 99.85714 267.26651 
L 101.15836 266.710403 
L 102.459581 265.848303 
L 103.760802 264.675806 
L 105.062022 263.186596 
L 106.363243 261.373569 
L 107.664463 259.230187 
L 108.965684 256.752043 
L 110.917515 252.407468 
L 112.869346 247.333817 
L 114.821177 241.596817 
L 117.423618 233.126005 
L 125.230942 206.844522 
L 127.182773 201.439766 
L 128.483993 198.354697 
L 129.785214 195.748375 
L 131.086435 193.662909 
L 132.387655 192.127968 
L 133.688876 191.160506 
L 134.339486 190.891429 
L 134.990097 190.764906 
L 135.640707 190.779597 
L 136.291317 190.933456 
L 136.941927 191.223751 
L 138.243148 192.199551 
L 139.544369 193.672888 
L 140.845589 195.601212 
L 142.14681 197.934998 
L 144.098641 202.074868 
L 146.050472 206.804246 
L 149.303523 215.447363 
L 154.508406 229.398025 
L 157.110847 235.729152 
L 159.062678 240.02018 
L 161.014509 243.864385 
L 162.96634 247.235946 
L 164.918171 250.125539 
L 166.870002 252.535578 
L 168.821833 254.475977 
L 170.123053 255.515459 
L 171.424274 256.35691 
L 172.725495 257.004846 
L 174.026715 257.463563 
L 175.327936 257.737006 
L 176.629156 257.828685 
L 177.930377 257.741652 
L 179.231598 257.478534 
L 180.532818 257.041599 
L 181.834039 256.432877 
L 183.78587 255.20198 
L 185.737701 253.596232 
L 187.689532 251.62519 
L 189.641363 249.302645 
L 191.593194 246.648643 
L 194.195635 242.644478 
L 196.798076 238.196389 
L 200.701738 230.980615 
L 206.557231 220.095314 
L 209.159672 215.739797 
L 211.111503 212.836984 
L 213.063334 210.324434 
L 215.015165 208.260214 
L 216.316385 207.155541 
L 217.617606 206.279342 
L 218.918827 205.63776 
L 220.220047 205.233751 
L 221.521268 205.067121 
L 222.822489 205.134623 
L 224.123709 205.430107 
L 225.42493 205.944717 
L 226.72615 206.667133 
L 228.027371 207.583855 
L 229.979202 209.289188 
L 231.931033 211.338686 
L 234.533474 214.496949 
L 237.786526 218.909105 
L 247.54568 232.551604 
L 250.148122 235.751058 
L 252.750563 238.616923 
L 255.353004 241.104702 
L 257.304835 242.704555 
L 259.256666 244.067778 
L 261.208497 245.190051 
L 263.160328 246.069532 
L 265.112159 246.706278 
L 267.06399 247.101797 
L 269.015821 247.258725 
L 270.967652 247.180632 
L 272.919483 246.871952 
L 274.871314 246.338022 
L 276.823144 245.585231 
L 278.774975 244.621235 
L 280.726806 243.455245 
L 283.329248 241.605825 
L 285.931689 239.449666 
L 288.53413 237.027224 
L 291.787182 233.700576 
L 296.992064 227.969516 
L 302.847557 221.553605 
L 306.100608 218.312892 
L 308.70305 216.011037 
L 311.305491 214.036259 
L 313.257322 212.801065 
L 315.209153 211.79532 
L 317.160984 211.030619 
L 319.112815 210.513484 
L 321.064646 210.245328 
L 323.016477 210.222563 
L 324.968307 210.436861 
L 326.920138 210.875558 
L 328.871969 211.522154 
L 331.474411 212.673169 
L 334.076852 214.104735 
L 337.329903 216.198596 
L 341.233565 218.999133 
L 350.99272 226.140806 
L 354.245772 228.236188 
L 357.498823 230.069271 
L 360.101264 231.313753 
L 362.703706 232.340658 
L 365.306147 233.136839 
L 367.908588 233.693786 
L 370.511029 234.007115 
L 373.113471 234.076154 
L 375.715912 233.903627 
L 378.318353 233.495458 
L 380.920794 232.860677 
L 383.523236 232.011404 
L 386.125677 230.962882 
L 389.378728 229.400369 
L 392.63178 227.598386 
L 396.535442 225.191208 
L 398.487273 223.916196 
L 398.487273 223.916196 
" clip-path="url(#p3b15cd4872)" style="fill: none; stroke: #4477aa; stroke-linecap: round"/>
    <defs>
     <path id="m26bb09f319" d="M 0 2 
C 0.530406 2 1.03916 1.789267 1.414214 1.414214 
C 1.789267 1.03916 2 0.530406 2 0 
C 2 -0.530406 1.789267 -1.03916 1.414214 -1.414214 
C 1.03916 -1.789267 0.530406 -2 0 -2 
C -0.530406 -2 -1.03916 -1.789267 -1.414214 -1.414214 
C -1.789267 -1.03916 -2 -0.530406 -2 0 
C -2 0.530406 -1.789267 1.03916 -1.414214 1.414214 
C -1.03916 1.789267 -0.530406 2 0 2 
z
" style="stroke: #4477aa"/>
    </defs>
    <g clip-path="url(#p3b15cd4872)">
     <use xlink:href="#m26bb09f319" x="73.832727" y="53.568" style="fill: #4477aa; stroke: #4477aa"/>
     <use xlink:href="#m26bb09f319" x="100.50775" y="267.026531" style="fill: #4477aa; stroke: #4477aa"/>
     <use xlink:href="#m26bb09f319" x="127.182773" y="201.439766" style="fill: #4477aa; stroke: #4477aa"/>
     <use xlink:href="#m26bb09f319" x="153.857796" y="227.724407" style="fill: #4477aa; stroke: #4477aa"/>
     <use xlink:href="#m26bb09f319" x="180.532818" y="257.041599" style="fill: #4477aa; stroke: #4477aa"/>
     <use xlink:href="#m26bb09f319" x="207.207841" y="218.963073" style="fill: #4477aa; stroke: #4477aa"/>
     <use xlink:href="#m26bb09f319" x="233.882864" y="213.669083" style="fill: #4477aa; stroke: #4477aa"/>
     <use xlink:href="#m26bb09f319" x="260.557887" y="244.84289" style="fill: #4477aa; stroke: #4477aa"/>
     <use xlink:href="#m26bb09f319" x="287.232909" y="238.268864" style="fill: #4477aa; stroke: #4477aa"/>
     <use xlink:href="#m26bb09f319" x="313.907932" y="212.439647" style="fill: #4477aa; stroke: #4477aa"/>
     <use xlink:href="#m26bb09f319" x="340.582955" y="218.518535" style="fill: #4477aa; stroke: #4477aa"/>
     <use xlink:href="#m26bb09f319" x="367.257978" y="233.577283" style="fill: #4477aa; stroke: #4477aa"/>
     <use xlink:href="#m26bb09f319" x="393.933001" y="226.821572" style="fill: #4477aa; stroke: #4477aa"/>
    </g>
   </g>
   <g id="line2d_34">
    <path d="M 73.832727 75.560727 
L 74.483338 207.006584 
L 78.386999 187.818622 
L 79.68822 182.446283 
L 80.989441 177.851599 
L 82.290661 174.133728 
L 83.591882 171.364413 
L 84.242492 170.35035 
L 84.893103 169.587909 
L 85.543713 169.078454 
L 86.194323 168.821751 
L 86.844934 168.816009 
L 87.495544 169.057921 
L 88.146154 169.542709 
L 88.796764 170.264167 
L 89.447375 171.214714 
L 90.748595 173.766229 
L 92.049816 177.111526 
L 93.351037 181.147669 
L 95.302868 188.239608 
L 97.905309 198.962967 
L 103.760802 223.676829 
L 105.712633 230.972655 
L 107.664463 237.479937 
L 109.616294 243.12039 
L 111.568125 247.870825 
L 112.869346 250.5495 
L 114.170567 252.849069 
L 115.471787 254.782517 
L 116.773008 256.363978 
L 118.074228 257.607595 
L 119.375449 258.526664 
L 120.67667 259.133021 
L 121.97789 259.436681 
L 123.279111 259.445659 
L 124.580332 259.165991 
L 125.881552 258.601905 
L 127.182773 257.756159 
L 128.483993 256.630506 
L 129.785214 255.226288 
L 131.086435 253.545141 
L 132.387655 251.589788 
L 134.339486 248.153559 
L 136.291317 244.139988 
L 138.243148 239.597929 
L 140.845589 232.851806 
L 144.098641 223.679816 
L 149.303523 208.926256 
L 151.255354 203.920186 
L 153.207185 199.456638 
L 155.159016 195.675058 
L 156.460237 193.589482 
L 157.761457 191.882887 
L 159.062678 190.574024 
L 160.363899 189.674806 
L 161.665119 189.190318 
L 162.96634 189.118948 
L 164.267561 189.452642 
L 165.568781 190.17726 
L 166.870002 191.27303 
L 168.171222 192.715095 
L 169.472443 194.474152 
L 171.424274 197.634021 
L 173.376105 201.309181 
L 175.978546 206.783743 
L 181.183429 218.548926 
L 184.43648 225.676682 
L 187.038921 230.921704 
L 189.641363 235.61024 
L 191.593194 238.707739 
L 193.545025 241.421211 
L 195.496856 243.739303 
L 197.448686 245.658317 
L 199.400517 247.17999 
L 201.352348 248.309618 
L 202.653569 248.848496 
L 203.95479 249.218869 
L 205.25601 249.423317 
L 206.557231 249.464471 
L 207.858451 249.344993 
L 209.159672 249.067581 
L 211.111503 248.361436 
L 213.063334 247.316244 
L 215.015165 245.943439 
L 216.966996 244.256716 
L 218.918827 242.272987 
L 220.870658 240.013342 
L 223.473099 236.617284 
L 226.07554 232.855824 
L 229.979202 226.746058 
L 237.135915 215.360138 
L 239.738357 211.611768 
L 242.340798 208.284409 
L 244.292629 206.134582 
L 246.24446 204.326027 
L 248.196291 202.890078 
L 249.497511 202.151049 
L 250.798732 201.591719 
L 252.099953 201.214243 
L 253.401173 201.018824 
L 254.702394 201.003755 
L 256.003614 201.165493 
L 257.304835 201.498738 
L 258.606056 201.996549 
L 260.557887 203.032994 
L 262.509718 204.386412 
L 264.461549 206.017322 
L 267.06399 208.547821 
L 270.317041 212.127863 
L 275.521924 218.310569 
L 280.076196 223.627786 
L 283.329248 227.112514 
L 285.931689 229.617697 
L 288.53413 231.821572 
L 291.136571 233.690788 
L 293.088402 234.858976 
L 295.040233 235.819543 
L 296.992064 236.568547 
L 298.943895 237.104097 
L 300.895726 237.426064 
L 302.847557 237.535868 
L 304.799388 237.436325 
L 306.751219 237.131567 
L 308.70305 236.627032 
L 310.654881 235.929489 
L 313.257322 234.713566 
L 315.859763 233.192904 
L 318.462204 231.39644 
L 321.715256 228.816302 
L 324.968307 225.940215 
L 329.52258 221.598106 
L 337.329903 214.097764 
L 340.582955 211.263024 
L 343.185396 209.227168 
L 345.787838 207.448529 
L 348.390279 205.965738 
L 350.34211 205.065707 
L 352.293941 204.35715 
L 354.245772 203.845072 
L 356.197603 203.530998 
L 358.149433 203.413019 
L 360.101264 203.485937 
L 362.053095 203.741471 
L 364.655537 204.346755 
L 367.257978 205.223852 
L 369.860419 206.333768 
L 373.113471 207.982228 
L 377.017133 210.224176 
L 389.378728 217.563116 
L 392.63178 219.195481 
L 395.884832 220.593327 
L 398.487273 221.517076 
L 398.487273 221.517076 
" clip-path="url(#p3b15cd4872)" style="fill: none; stroke: #ee6677; stroke-linecap: round"/>
    <defs>
     <path id="md1ac1efc5b" d="M 0 -2 
L -2 2 
L 2 2 
z
" style="stroke: #ee6677; stroke-linejoin: miter"/>
    </defs>
    <g clip-path="url(#p3b15cd4872)">
     <use xlink:href="#md1ac1efc5b" x="73.832727" y="75.560727" style="fill: #ee6677; stroke: #ee6677; stroke-linejoin: miter"/>
     <use xlink:href="#md1ac1efc5b" x="107.013853" y="235.404592" style="fill: #ee6677; stroke: #ee6677; stroke-linejoin: miter"/>
     <use xlink:href="#md1ac1efc5b" x="140.194979" y="234.601472" style="fill: #ee6677; stroke: #ee6677; stroke-linejoin: miter"/>
     <use xlink:href="#md1ac1efc5b" x="173.376105" y="201.309181" style="fill: #ee6677; stroke: #ee6677; stroke-linejoin: miter"/>
     <use xlink:href="#md1ac1efc5b" x="206.557231" y="249.464471" style="fill: #ee6677; stroke: #ee6677; stroke-linejoin: miter"/>
     <use xlink:href="#md1ac1efc5b" x="239.738357" y="211.611768" style="fill: #ee6677; stroke: #ee6677; stroke-linejoin: miter"/>
     <use xlink:href="#md1ac1efc5b" x="272.919483" y="215.189459" style="fill: #ee6677; stroke: #ee6677; stroke-linejoin: miter"/>
     <use xlink:href="#md1ac1efc5b" x="306.100608" y="237.255646" style="fill: #ee6677; stroke: #ee6677; stroke-linejoin: miter"/>
     <use xlink:href="#md1ac1efc5b" x="339.281734" y="212.36308" style="fill: #ee6677; stroke: #ee6677; stroke-linejoin: miter"/>
     <use xlink:href="#md1ac1efc5b" x="372.46286" y="207.633137" style="fill: #ee6677; stroke: #ee6677; stroke-linejoin: miter"/>
    </g>
   </g>
   <g id="line2d_35">
    <path d="M 73.832727 229.509818 
L 74.483338 270.437449 
L 75.133948 270.499525 
L 76.435169 270.29918 
L 77.736389 269.761081 
L 79.03761 268.866559 
L 80.33883 267.605602 
L 81.640051 265.966466 
L 82.941272 263.935142 
L 84.242492 261.497046 
L 85.543713 258.639379 
L 86.844934 255.353895 
L 88.796764 249.624828 
L 90.748595 242.979508 
L 92.700426 235.536686 
L 95.953478 221.950653 
L 99.85714 205.53699 
L 101.808971 198.168502 
L 103.110191 193.819244 
L 104.411412 190.031562 
L 105.712633 186.884442 
L 107.013853 184.439946 
L 108.315074 182.74187 
L 108.965684 182.181257 
L 109.616294 181.815081 
L 110.266905 181.643472 
L 110.917515 181.665385 
L 111.568125 181.878623 
L 112.218736 182.279859 
L 112.869346 182.86467 
L 113.519956 183.627583 
L 114.821177 185.660842 
L 116.122398 188.316838 
L 117.423618 191.51994 
L 119.375449 197.161171 
L 121.97789 205.752149 
L 129.134604 230.218864 
L 131.086435 236.047445 
L 133.038266 241.263321 
L 134.990097 245.816202 
L 136.941927 249.691266 
L 138.893758 252.898392 
L 140.194979 254.67735 
L 141.4962 256.179829 
L 142.79742 257.415851 
L 144.098641 258.395373 
L 145.399862 259.127821 
L 146.701082 259.621756 
L 148.002303 259.884659 
L 149.303523 259.922848 
L 150.604744 259.741477 
L 151.905965 259.344629 
L 153.207185 258.735482 
L 154.508406 257.91655 
L 155.809627 256.88998 
L 157.110847 255.657902 
L 159.062678 253.430161 
L 161.014509 250.758237 
L 162.96634 247.66202 
L 164.918171 244.172238 
L 167.520612 238.985977 
L 170.773664 231.864556 
L 178.580987 214.380855 
L 180.532818 210.546745 
L 182.484649 207.150845 
L 184.43648 204.287645 
L 185.737701 202.713624 
L 187.038921 201.428768 
L 188.340142 200.44641 
L 189.641363 199.775267 
L 190.942583 199.419332 
L 192.243804 199.377899 
L 193.545025 199.64566 
L 194.846245 200.212902 
L 196.147466 201.065796 
L 197.448686 202.186761 
L 198.749907 203.554907 
L 200.701738 206.018128 
L 202.653569 208.894876 
L 205.25601 213.20824 
L 209.159672 220.236179 
L 214.364555 229.562574 
L 216.966996 233.836425 
L 219.569437 237.698007 
L 221.521268 240.279747 
L 223.473099 242.569909 
L 225.42493 244.556926 
L 227.376761 246.23519 
L 229.328592 247.603575 
L 231.280423 248.664158 
L 233.232254 249.421151 
L 235.184085 249.880102 
L 237.135915 250.047346 
L 239.087746 249.92969 
L 241.039577 249.534329 
L 242.991408 248.868952 
L 244.943239 247.942016 
L 246.89507 246.763146 
L 248.846901 245.343638 
L 250.798732 243.697 
L 253.401173 241.176757 
L 256.003614 238.329806 
L 259.256666 234.403616 
L 263.810938 228.485714 
L 269.666431 220.875551 
L 272.919483 217.030168 
L 275.521924 214.315212 
L 277.473755 212.546211 
L 279.425586 211.040144 
L 281.377417 209.821264 
L 283.329248 208.907339 
L 285.281078 208.309163 
L 287.232909 208.030358 
L 289.18474 208.067417 
L 291.136571 208.409971 
L 293.088402 209.041302 
L 295.040233 209.939039 
L 296.992064 211.076022 
L 299.594505 212.91022 
L 302.196947 215.033875 
L 306.100608 218.576807 
L 315.859763 227.672234 
L 319.112815 230.33025 
L 321.715256 232.212684 
L 324.317697 233.843867 
L 326.920138 235.201087 
L 329.52258 236.268982 
L 332.125021 237.038427 
L 334.727462 237.50554 
L 336.679293 237.65765 
L 338.631124 237.641599 
L 341.233565 237.363594 
L 343.836007 236.801298 
L 346.438448 235.967642 
L 349.040889 234.879019 
L 351.64333 233.555476 
L 354.896382 231.60749 
L 358.149433 229.385587 
L 362.053095 226.450192 
L 376.366522 215.327412 
L 379.619574 213.21801 
L 382.222015 211.754916 
L 384.824456 210.522635 
L 387.426897 209.542882 
L 390.029339 208.829847 
L 392.63178 208.389827 
L 395.234221 208.221199 
L 397.836662 208.314726 
L 398.487273 208.377311 
L 398.487273 208.377311 
" clip-path="url(#p3b15cd4872)" style="fill: none; stroke: #228833; stroke-linecap: round"/>
    <defs>
     <path id="mb698950dcf" d="M -2 2 
L 2 2 
L 2 -2 
L -2 -2 
z
" style="stroke: #228833; stroke-linejoin: miter"/>
    </defs>
    <g clip-path="url(#p3b15cd4872)">
     <use xlink:href="#mb698950dcf" x="73.832727" y="229.509818" style="fill: #228833; stroke: #228833; stroke-linejoin: miter"/>
     <use xlink:href="#mb698950dcf" x="99.206529" y="208.165103" style="fill: #228833; stroke: #228833; stroke-linejoin: miter"/>
     <use xlink:href="#mb698950dcf" x="124.580332" y="214.878581" style="fill: #228833; stroke: #228833; stroke-linejoin: miter"/>
     <use xlink:href="#mb698950dcf" x="149.954134" y="259.859329" style="fill: #228833; stroke: #228833; stroke-linejoin: miter"/>
     <use xlink:href="#mb698950dcf" x="175.327936" y="221.448846" style="fill: #228833; stroke: #228833; stroke-linejoin: miter"/>
     <use xlink:href="#mb698950dcf" x="200.701738" y="206.018128" style="fill: #228833; stroke: #228833; stroke-linejoin: miter"/>
     <use xlink:href="#mb698950dcf" x="226.07554" y="245.150787" style="fill: #228833; stroke: #228833; stroke-linejoin: miter"/>
     <use xlink:href="#mb698950dcf" x="251.449342" y="243.100371" style="fill: #228833; stroke: #228833; stroke-linejoin: miter"/>
     <use xlink:href="#mb698950dcf" x="276.823144" y="213.108037" style="fill: #228833; stroke: #228833; stroke-linejoin: miter"/>
     <use xlink:href="#mb698950dcf" x="302.196947" y="215.033875" style="fill: #228833; stroke: #228833; stroke-linejoin: miter"/>
     <use xlink:href="#mb698950dcf" x="327.570749" y="235.49564" style="fill: #228833; stroke: #228833; stroke-linejoin: miter"/>
     <use xlink:href="#mb698950dcf" x="352.944551" y="232.812925" style="fill: #228833; stroke: #228833; stroke-linejoin: miter"/>
     <use xlink:href="#mb698950dcf" x="378.318353" y="214.027435" style="fill: #228833; stroke: #228833; stroke-linejoin: miter"/>
    </g>
   </g>
   <g id="line2d_36">
    <path d="M 73.832727 295.488 
L 75.133948 295.413903 
L 110.266905 295.358566 
L 135.640707 295.441623 
L 398.487273 295.46782 
L 398.487273 295.46782 
" clip-path="url(#p3b15cd4872)" style="fill: none; stroke-dasharray: 3.7,1.6; stroke-dashoffset: 0; stroke: #4477aa"/>
    <g clip-path="url(#p3b15cd4872)">
     <use xlink:href="#m26bb09f319" x="73.832727" y="295.488" style="fill: #4477aa; stroke: #4477aa"/>
     <use xlink:href="#m26bb09f319" x="105.062022" y="295.318293" style="fill: #4477aa; stroke: #4477aa"/>
     <use xlink:href="#m26bb09f319" x="136.291317" y="295.441734" style="fill: #4477aa; stroke: #4477aa"/>
     <use xlink:href="#m26bb09f319" x="167.520612" y="295.396446" style="fill: #4477aa; stroke: #4477aa"/>
     <use xlink:href="#m26bb09f319" x="198.749907" y="295.432062" style="fill: #4477aa; stroke: #4477aa"/>
     <use xlink:href="#m26bb09f319" x="229.979202" y="295.453513" style="fill: #4477aa; stroke: #4477aa"/>
     <use xlink:href="#m26bb09f319" x="261.208497" y="295.438406" style="fill: #4477aa; stroke: #4477aa"/>
     <use xlink:href="#m26bb09f319" x="292.437792" y="295.45268" style="fill: #4477aa; stroke: #4477aa"/>
     <use xlink:href="#m26bb09f319" x="323.667087" y="295.464938" style="fill: #4477aa; stroke: #4477aa"/>
     <use xlink:href="#m26bb09f319" x="354.896382" y="295.462557" style="fill: #4477aa; stroke: #4477aa"/>
     <use xlink:href="#m26bb09f319" x="386.125677" y="295.464677" style="fill: #4477aa; stroke: #4477aa"/>
    </g>
   </g>
   <g id="line2d_37">
    <path d="M 73.832727 295.488 
L 75.133948 295.414757 
L 105.712633 295.403184 
L 135.640707 295.394236 
L 173.376105 295.44614 
L 328.221359 295.46168 
L 398.487273 295.468467 
L 398.487273 295.468467 
" clip-path="url(#p3b15cd4872)" style="fill: none; stroke-dasharray: 3.7,1.6; stroke-dashoffset: 0; stroke: #ee6677"/>
    <g clip-path="url(#p3b15cd4872)">
     <use xlink:href="#md1ac1efc5b" x="73.832727" y="295.488" style="fill: #ee6677; stroke: #ee6677; stroke-linejoin: miter"/>
     <use xlink:href="#md1ac1efc5b" x="109.616294" y="295.386978" style="fill: #ee6677; stroke: #ee6677; stroke-linejoin: miter"/>
     <use xlink:href="#md1ac1efc5b" x="145.399862" y="295.428113" style="fill: #ee6677; stroke: #ee6677; stroke-linejoin: miter"/>
     <use xlink:href="#md1ac1efc5b" x="181.183429" y="295.439547" style="fill: #ee6677; stroke: #ee6677; stroke-linejoin: miter"/>
     <use xlink:href="#md1ac1efc5b" x="216.966996" y="295.427791" style="fill: #ee6677; stroke: #ee6677; stroke-linejoin: miter"/>
     <use xlink:href="#md1ac1efc5b" x="252.750563" y="295.459415" style="fill: #ee6677; stroke: #ee6677; stroke-linejoin: miter"/>
     <use xlink:href="#md1ac1efc5b" x="288.53413" y="295.452875" style="fill: #ee6677; stroke: #ee6677; stroke-linejoin: miter"/>
     <use xlink:href="#md1ac1efc5b" x="324.317697" y="295.459913" style="fill: #ee6677; stroke: #ee6677; stroke-linejoin: miter"/>
     <use xlink:href="#md1ac1efc5b" x="360.101264" y="295.469474" style="fill: #ee6677; stroke: #ee6677; stroke-linejoin: miter"/>
     <use xlink:href="#md1ac1efc5b" x="395.884832" y="295.468502" style="fill: #ee6677; stroke: #ee6677; stroke-linejoin: miter"/>
    </g>
   </g>
   <g id="line2d_38">
    <path d="M 73.832727 295.488 
L 74.483338 295.305161 
L 77.085779 295.240496 
L 154.508406 295.376921 
L 219.569437 295.435429 
L 310.654881 295.459753 
L 398.487273 295.471219 
L 398.487273 295.471219 
" clip-path="url(#p3b15cd4872)" style="fill: none; stroke-dasharray: 3.7,1.6; stroke-dashoffset: 0; stroke: #228833"/>
    <g clip-path="url(#p3b15cd4872)">
     <use xlink:href="#mb698950dcf" x="73.832727" y="295.488" style="fill: #228833; stroke: #228833; stroke-linejoin: miter"/>
     <use xlink:href="#mb698950dcf" x="105.062022" y="295.43412" style="fill: #228833; stroke: #228833; stroke-linejoin: miter"/>
     <use xlink:href="#mb698950dcf" x="136.291317" y="295.391036" style="fill: #228833; stroke: #228833; stroke-linejoin: miter"/>
     <use xlink:href="#mb698950dcf" x="167.520612" y="295.417666" style="fill: #228833; stroke: #228833; stroke-linejoin: miter"/>
     <use xlink:href="#mb698950dcf" x="198.749907" y="295.450253" style="fill: #228833; stroke: #228833; stroke-linejoin: miter"/>
     <use xlink:href="#mb698950dcf" x="229.979202" y="295.427546" style="fill: #228833; stroke: #228833; stroke-linejoin: miter"/>
     <use xlink:href="#mb698950dcf" x="261.208497" y="295.448095" style="fill: #228833; stroke: #228833; stroke-linejoin: miter"/>
     <use xlink:href="#mb698950dcf" x="292.437792" y="295.462092" style="fill: #228833; stroke: #228833; stroke-linejoin: miter"/>
     <use xlink:href="#mb698950dcf" x="323.667087" y="295.456983" style="fill: #228833; stroke: #228833; stroke-linejoin: miter"/>
     <use xlink:href="#mb698950dcf" x="354.896382" y="295.461365" style="fill: #228833; stroke: #228833; stroke-linejoin: miter"/>
     <use xlink:href="#mb698950dcf" x="386.125677" y="295.470085" style="fill: #228833; stroke: #228833; stroke-linejoin: miter"/>
    </g>
   </g>
   <g id="line2d_39"/>
   <g id="line2d_40"/>
   <g id="patch_3">
    <path d="M 57.6 307.584 
L 57.6 41.472 
" style="fill: none; stroke: #262626; stroke-width: 0.5; stroke-linejoin: miter; stroke-linecap: square"/>
   </g>
   <g id="patch_4">
    <path d="M 57.6 307.584 
L 414.72 307.584 
" style="fill: none; stroke: #262626; stroke-width: 0.5; stroke-linejoin: miter; stroke-linecap: square"/>
   </g>
   <g id="legend_1">
    <g id="line2d_41">
     <path d="M 283.075312 64.284187 
L 301.075312 64.284187 
L 319.075312 64.284187 
" style="fill: none; stroke: #4477aa; stroke-linecap: round"/>
     <g>
      <use xlink:href="#m26bb09f319" x="301.075312" y="64.284187" style="fill: #4477aa; stroke: #4477aa"/>
     </g>
    </g>
    <g id="text_16">
     <!-- A -->
     <g style="fill: #262626" transform="translate(333.475312 70.584187)scale(0.18 -0.18)">
      <defs>
       <path id="Helvetica-41" d="M 2844 1881 
L 2147 3909 
L 1406 1881 
L 2844 1881 
z
M 1822 4591 
L 2525 4591 
L 4191 0 
L 3509 0 
L 3044 1375 
L 1228 1375 
L 731 0 
L 94 0 
L 1822 4591 
z
" transform="scale(0.015625)"/>
      </defs>
      <use xlink:href="#Helvetica-41"/>
     </g>
    </g>
    <g id="line2d_42">
     <path d="M 283.075312 89.94825 
L 301.075312 89.94825 
L 319.075312 89.94825 
" style="fill: none; stroke: #ee6677; stroke-linecap: round"/>
     <g>
      <use xlink:href="#md1ac1efc5b" x="301.075312" y="89.94825" style="fill: #ee6677; stroke: #ee6677; stroke-linejoin: miter"/>
     </g>
    </g>
    <g id="text_17">
     <!-- B -->
     <g style="fill: #262626" transform="translate(333.475312 96.24825)scale(0.18 -0.18)">
      <defs>
       <path id="Helvetica-42" d="M 2213 2650 
Q 2606 2650 2825 2759 
Q 3169 2931 3169 3378 
Q 3169 3828 2803 3984 
Q 2597 4072 2191 4072 
L 1081 4072 
L 1081 2650 
L 2213 2650 
z
M 2422 531 
Q 2994 531 3238 863 
Q 3391 1072 3391 1369 
Q 3391 1869 2944 2050 
Q 2706 2147 2316 2147 
L 1081 2147 
L 1081 531 
L 2422 531 
z
M 472 4591 
L 2444 4591 
Q 3250 4591 3591 4109 
Q 3791 3825 3791 3453 
Q 3791 3019 3544 2741 
Q 3416 2594 3175 2472 
Q 3528 2338 3703 2169 
Q 4013 1869 4013 1341 
Q 4013 897 3734 538 
Q 3319 0 2413 0 
L 472 0 
L 472 4591 
z
" transform="scale(0.015625)"/>
      </defs>
      <use xlink:href="#Helvetica-42"/>
     </g>
    </g>
    <g id="line2d_43">
     <path d="M 283.075312 115.612312 
L 301.075312 115.612312 
L 319.075312 115.612312 
" style="fill: none; stroke: #228833; stroke-linecap: round"/>
     <g>
      <use xlink:href="#mb698950dcf" x="301.075312" y="115.612312" style="fill: #228833; stroke: #228833; stroke-linejoin: miter"/>
     </g>
    </g>
    <g id="text_18">
     <!-- C -->
     <g style="fill: #262626" transform="translate(333.475312 121.912312)scale(0.18 -0.18)">
      <use xlink:href="#Helvetica-43"/>
     </g>
    </g>
    <g id="line2d_44">
     <path d="M 283.075312 141.276375 
L 301.075312 141.276375 
L 319.075312 141.276375 
" style="fill: none; stroke: #000000; stroke-width: 1.5; stroke-linecap: round"/>
    </g>
    <g id="text_19">
     <!-- Primary -->
     <g style="fill: #262626" transform="translate(333.475312 147.576375)scale(0.18 -0.18)">
      <defs>
       <path id="Helvetica-50" d="M 547 4591 
L 2613 4591 
Q 3225 4591 3600 4245 
Q 3975 3900 3975 3275 
Q 3975 2738 3640 2339 
Q 3306 1941 2613 1941 
L 1169 1941 
L 1169 0 
L 547 0 
L 547 4591 
z
M 3347 3272 
Q 3347 3778 2972 3959 
Q 2766 4056 2406 4056 
L 1169 4056 
L 1169 2466 
L 2406 2466 
Q 2825 2466 3086 2644 
Q 3347 2822 3347 3272 
z
" transform="scale(0.015625)"/>
       <path id="Helvetica-79" d="M 2503 3347 
L 3125 3347 
Q 3006 3025 2597 1878 
Q 2291 1016 2084 472 
Q 1597 -809 1397 -1090 
Q 1197 -1372 709 -1372 
Q 591 -1372 527 -1362 
Q 463 -1353 369 -1328 
L 369 -816 
Q 516 -856 581 -865 
Q 647 -875 697 -875 
Q 853 -875 926 -823 
Q 1000 -772 1050 -697 
Q 1066 -672 1162 -440 
Q 1259 -209 1303 -97 
L 66 3347 
L 703 3347 
L 1600 622 
L 2503 3347 
z
M 1597 3428 
L 1597 3428 
z
" transform="scale(0.015625)"/>
      </defs>
      <use xlink:href="#Helvetica-50"/>
      <use xlink:href="#Helvetica-72" x="66.699219"/>
      <use xlink:href="#Helvetica-69" x="100"/>
      <use xlink:href="#Helvetica-6d" x="122.216797"/>
      <use xlink:href="#Helvetica-61" x="205.517578"/>
      <use xlink:href="#Helvetica-72" x="261.132812"/>
      <use xlink:href="#Helvetica-79" x="294.433594"/>
     </g>
    </g>
    <g id="line2d_45">
     <path d="M 283.075312 167.047312 
L 301.075312 167.047312 
L 319.075312 167.047312 
" style="fill: none; stroke-dasharray: 5.55,2.4; stroke-dashoffset: 0; stroke: #000000; stroke-width: 1.5"/>
    </g>
    <g id="text_20">
     <!-- Shadow -->
     <g style="fill: #262626" transform="translate(333.475312 173.347312)scale(0.18 -0.18)">
      <defs>
       <path id="Helvetica-53" d="M 894 1481 
Q 916 1091 1078 847 
Q 1388 391 2169 391 
Q 2519 391 2806 491 
Q 3363 684 3363 1184 
Q 3363 1559 3128 1719 
Q 2891 1875 2384 1991 
L 1763 2131 
Q 1153 2269 900 2434 
Q 463 2722 463 3294 
Q 463 3913 891 4309 
Q 1319 4706 2103 4706 
Q 2825 4706 3329 4357 
Q 3834 4009 3834 3244 
L 3250 3244 
Q 3203 3613 3050 3809 
Q 2766 4169 2084 4169 
Q 1534 4169 1293 3937 
Q 1053 3706 1053 3400 
Q 1053 3063 1334 2906 
Q 1519 2806 2169 2656 
L 2813 2509 
Q 3278 2403 3531 2219 
Q 3969 1897 3969 1284 
Q 3969 522 3414 194 
Q 2859 -134 2125 -134 
Q 1269 -134 784 303 
Q 300 738 309 1481 
L 894 1481 
z
M 2150 4716 
L 2150 4716 
z
" transform="scale(0.015625)"/>
       <path id="Helvetica-64" d="M 769 1634 
Q 769 1097 997 734 
Q 1225 372 1728 372 
Q 2119 372 2370 708 
Q 2622 1044 2622 1672 
Q 2622 2306 2362 2611 
Q 2103 2916 1722 2916 
Q 1297 2916 1033 2591 
Q 769 2266 769 1634 
z
M 1616 3406 
Q 2000 3406 2259 3244 
Q 2409 3150 2600 2916 
L 2600 4606 
L 3141 4606 
L 3141 0 
L 2634 0 
L 2634 466 
Q 2438 156 2169 18 
Q 1900 -119 1553 -119 
Q 994 -119 584 351 
Q 175 822 175 1603 
Q 175 2334 548 2870 
Q 922 3406 1616 3406 
z
" transform="scale(0.015625)"/>
       <path id="Helvetica-77" d="M 672 3347 
L 1316 709 
L 1969 3347 
L 2600 3347 
L 3256 725 
L 3941 3347 
L 4503 3347 
L 3531 0 
L 2947 0 
L 2266 2591 
L 1606 0 
L 1022 0 
L 56 3347 
L 672 3347 
z
" transform="scale(0.015625)"/>
      </defs>
      <use xlink:href="#Helvetica-53"/>
      <use xlink:href="#Helvetica-68" x="66.699219"/>
      <use xlink:href="#Helvetica-61" x="122.314453"/>
      <use xlink:href="#Helvetica-64" x="177.929688"/>
      <use xlink:href="#Helvetica-6f" x="233.544922"/>
      <use xlink:href="#Helvetica-77" x="289.160156"/>
     </g>
    </g>
   </g>
  </g>
 </g>
 <defs>
  <clipPath id="p3b15cd4872">
   <rect x="57.6" y="41.472" width="357.12" height="266.112"/>
  </clipPath>
 </defs>
</svg>
