<?xml version="1.0" encoding="utf-8" standalone="no"?>
<!DOCTYPE svg PUBLIC "-//W3C//DTD SVG 1.1//EN"
  "http://www.w3.org/Graphics/SVG/1.1/DTD/svg11.dtd">
<svg xmlns:xlink="http://www.w3.org/1999/xlink" width="460.8pt" height="345.6pt" viewBox="0 0 460.8 345.6" xmlns="http://www.w3.org/2000/svg" version="1.1">
 <metadata>
  <rdf:RDF xmlns:dc="http://purl.org/dc/elements/1.1/" xmlns:cc="http://creativecommons.org/ns#" xmlns:rdf="http://www.w3.org/1999/02/22-rdf-syntax-ns#">
   <cc:Work>
    <dc:type rdf:resource="http://purl.org/dc/dcmitype/StillImage"/>
    <dc:date>2024-04-08T11:19:51.693169</dc:date>
    <dc:format>image/svg+xml</dc:format>
    <dc:creator>
     <cc:Agent>
      <dc:title>Matplotlib v3.5.1, https://matplotlib.org/</dc:title>
     </cc:Agent>
    </dc:creator>
   </cc:Work>
  </rdf:RDF>
 </metadata>
 <defs>
  <style type="text/css">*{stroke-linejoin: round; stroke-linecap: butt}</style>
 </defs>
 <g id="figure_1">
  <g id="patch_1">
   <path d="M 0 345.6 
L 460.8 345.6 
L 460.8 0 
L 0 0 
z
" style="fill: #ffffff"/>
  </g>
  <g id="axes_1">
   <g id="patch_2">
    <path d="M 57.6 307.584 
L 414.72 307.584 
L 414.72 41.472 
L 57.6 41.472 
z
" style="fill: #ffffff"/>
   </g>
   <g id="matplotlib.axis_1">
    <g id="xtick_1">
     <g id="line2d_1">
      <defs>
       <path id="me007a41cf8" d="M 0 0 
L 0 4 
" style="stroke: #262626"/>
      </defs>
      <g>
       <use xlink:href="#me007a41cf8" x="73.832727" y="307.584" style="fill: #262626; stroke: #262626"/>
      </g>
     </g>
     <g id="text_1">
      <!-- 0 -->
      <g style="fill: #262626" transform="translate(69.940071 325.126812)scale(0.14 -0.14)">
       <defs>
        <path id="Helvetica-30" d="M 1731 4475 
Q 2600 4475 2988 3759 
Q 3288 3206 3288 2244 
Q 3288 1331 3016 734 
Q 2622 -122 1728 -122 
Q 922 -122 528 578 
Q 200 1163 200 2147 
Q 200 2909 397 3456 
Q 766 4475 1731 4475 
z
M 1725 391 
Q 2163 391 2422 778 
Q 2681 1166 2681 2222 
Q 2681 2984 2493 3476 
Q 2306 3969 1766 3969 
Q 1269 3969 1039 3501 
Q 809 3034 809 2125 
Q 809 1441 956 1025 
Q 1181 391 1725 391 
z
" transform="scale(0.015625)"/>
       </defs>
       <use xlink:href="#Helvetica-30"/>
      </g>
     </g>
    </g>
    <g id="xtick_2">
     <g id="line2d_2">
      <g>
       <use xlink:href="#me007a41cf8" x="127.941818" y="307.584" style="fill: #262626; stroke: #262626"/>
      </g>
     </g>
     <g id="text_2">
      <!-- 10 -->
      <g style="fill: #262626" transform="translate(120.156506 325.126812)scale(0.14 -0.14)">
       <defs>
        <path id="Helvetica-31" d="M 613 3169 
L 613 3600 
Q 1222 3659 1462 3798 
Q 1703 3938 1822 4456 
L 2266 4456 
L 2266 0 
L 1666 0 
L 1666 3169 
L 613 3169 
z
" transform="scale(0.015625)"/>
       </defs>
       <use xlink:href="#Helvetica-31"/>
       <use xlink:href="#Helvetica-30" x="55.615234"/>
      </g>
     </g>
    </g>
    <g id="xtick_3">
     <g id="line2d_3">
      <g>
       <use xlink:href="#me007a41cf8" x="182.050909" y="307.584" style="fill: #262626; stroke: #262626"/>
      </g>
     </g>
     <g id="text_3">
      <!-- 20 -->
      <g style="fill: #262626" transform="translate(174.265597 325.126812)scale(0.14 -0.14)">
       <defs>
        <path id="Helvetica-32" d="M 200 0 
Q 231 578 439 1006 
Q 647 1434 1250 1784 
L 1850 2131 
Q 2253 2366 2416 2531 
Q 2672 2791 2672 3125 
Q 2672 3516 2437 3745 
Q 2203 3975 1813 3975 
Q 1234 3975 1013 3538 
Q 894 3303 881 2888 
L 309 2888 
Q 319 3472 525 3841 
Q 891 4491 1816 4491 
Q 2584 4491 2939 4075 
Q 3294 3659 3294 3150 
Q 3294 2613 2916 2231 
Q 2697 2009 2131 1694 
L 1703 1456 
Q 1397 1288 1222 1134 
Q 909 863 828 531 
L 3272 531 
L 3272 0 
L 200 0 
z
" transform="scale(0.015625)"/>
       </defs>
       <use xlink:href="#Helvetica-32"/>
       <use xlink:href="#Helvetica-30" x="55.615234"/>
      </g>
     </g>
    </g>
    <g id="xtick_4">
     <g id="line2d_4">
      <g>
       <use xlink:href="#me007a41cf8" x="236.16" y="307.584" style="fill: #262626; stroke: #262626"/>
      </g>
     </g>
     <g id="text_4">
      <!-- 30 -->
      <g style="fill: #262626" transform="translate(228.374688 325.126812)scale(0.14 -0.14)">
       <defs>
        <path id="Helvetica-33" d="M 1663 -122 
Q 869 -122 511 314 
Q 153 750 153 1375 
L 741 1375 
Q 778 941 903 744 
Q 1122 391 1694 391 
Q 2138 391 2406 628 
Q 2675 866 2675 1241 
Q 2675 1703 2392 1887 
Q 2109 2072 1606 2072 
Q 1550 2072 1492 2070 
Q 1434 2069 1375 2066 
L 1375 2563 
Q 1463 2553 1522 2550 
Q 1581 2547 1650 2547 
Q 1966 2547 2169 2647 
Q 2525 2822 2525 3272 
Q 2525 3606 2287 3787 
Q 2050 3969 1734 3969 
Q 1172 3969 956 3594 
Q 838 3388 822 3006 
L 266 3006 
Q 266 3506 466 3856 
Q 809 4481 1675 4481 
Q 2359 4481 2734 4176 
Q 3109 3872 3109 3294 
Q 3109 2881 2888 2625 
Q 2750 2466 2531 2375 
Q 2884 2278 3082 2001 
Q 3281 1725 3281 1325 
Q 3281 684 2859 281 
Q 2438 -122 1663 -122 
z
" transform="scale(0.015625)"/>
       </defs>
       <use xlink:href="#Helvetica-33"/>
       <use xlink:href="#Helvetica-30" x="55.615234"/>
      </g>
     </g>
    </g>
    <g id="xtick_5">
     <g id="line2d_5">
      <g>
       <use xlink:href="#me007a41cf8" x="290.269091" y="307.584" style="fill: #262626; stroke: #262626"/>
      </g>
     </g>
     <g id="text_5">
      <!-- 40 -->
      <g style="fill: #262626" transform="translate(282.483778 325.126812)scale(0.14 -0.14)">
       <defs>
        <path id="Helvetica-34" d="M 2116 1584 
L 2116 3613 
L 681 1584 
L 2116 1584 
z
M 2125 0 
L 2125 1094 
L 163 1094 
L 163 1644 
L 2213 4488 
L 2688 4488 
L 2688 1584 
L 3347 1584 
L 3347 1094 
L 2688 1094 
L 2688 0 
L 2125 0 
z
" transform="scale(0.015625)"/>
       </defs>
       <use xlink:href="#Helvetica-34"/>
       <use xlink:href="#Helvetica-30" x="55.615234"/>
      </g>
     </g>
    </g>
    <g id="xtick_6">
     <g id="line2d_6">
      <g>
       <use xlink:href="#me007a41cf8" x="344.378182" y="307.584" style="fill: #262626; stroke: #262626"/>
      </g>
     </g>
     <g id="text_6">
      <!-- 50 -->
      <g style="fill: #262626" transform="translate(336.592869 325.126812)scale(0.14 -0.14)">
       <defs>
        <path id="Helvetica-35" d="M 791 1141 
Q 847 659 1238 475 
Q 1438 381 1700 381 
Q 2200 381 2440 700 
Q 2681 1019 2681 1406 
Q 2681 1875 2395 2131 
Q 2109 2388 1709 2388 
Q 1419 2388 1211 2275 
Q 1003 2163 856 1963 
L 369 1991 
L 709 4400 
L 3034 4400 
L 3034 3856 
L 1131 3856 
L 941 2613 
Q 1097 2731 1238 2791 
Q 1488 2894 1816 2894 
Q 2431 2894 2859 2497 
Q 3288 2100 3288 1491 
Q 3288 856 2895 371 
Q 2503 -113 1644 -113 
Q 1097 -113 676 195 
Q 256 503 206 1141 
L 791 1141 
z
" transform="scale(0.015625)"/>
       </defs>
       <use xlink:href="#Helvetica-35"/>
       <use xlink:href="#Helvetica-30" x="55.615234"/>
      </g>
     </g>
    </g>
    <g id="xtick_7">
     <g id="line2d_7">
      <g>
       <use xlink:href="#me007a41cf8" x="398.487273" y="307.584" style="fill: #262626; stroke: #262626"/>
      </g>
     </g>
     <g id="text_7">
      <!-- 60 -->
      <g style="fill: #262626" transform="translate(390.70196 325.126812)scale(0.14 -0.14)">
       <defs>
        <path id="Helvetica-36" d="M 1872 4494 
Q 2622 4494 2917 4105 
Q 3213 3716 3213 3303 
L 2656 3303 
Q 2606 3569 2497 3719 
Q 2294 4000 1881 4000 
Q 1409 4000 1131 3564 
Q 853 3128 822 2316 
Q 1016 2600 1309 2741 
Q 1578 2866 1909 2866 
Q 2472 2866 2890 2506 
Q 3309 2147 3309 1434 
Q 3309 825 2912 354 
Q 2516 -116 1781 -116 
Q 1153 -116 697 361 
Q 241 838 241 1966 
Q 241 2800 444 3381 
Q 834 4494 1872 4494 
z
M 1831 384 
Q 2275 384 2495 682 
Q 2716 981 2716 1388 
Q 2716 1731 2519 2042 
Q 2322 2353 1803 2353 
Q 1441 2353 1167 2112 
Q 894 1872 894 1388 
Q 894 963 1142 673 
Q 1391 384 1831 384 
z
" transform="scale(0.015625)"/>
       </defs>
       <use xlink:href="#Helvetica-36"/>
       <use xlink:href="#Helvetica-30" x="55.615234"/>
      </g>
     </g>
    </g>
    <g id="text_8">
     <!-- Time (hours) -->
     <g style="fill: #262626" transform="translate(185.156719 345.089312)scale(0.18 -0.18)">
      <defs>
       <path id="Helvetica-54" d="M 3828 4591 
L 3828 4044 
L 2281 4044 
L 2281 0 
L 1650 0 
L 1650 4044 
L 103 4044 
L 103 4591 
L 3828 4591 
z
" transform="scale(0.015625)"/>
       <path id="Helvetica-69" d="M 413 3331 
L 984 3331 
L 984 0 
L 413 0 
L 413 3331 
z
M 413 4591 
L 984 4591 
L 984 3953 
L 413 3953 
L 413 4591 
z
" transform="scale(0.015625)"/>
       <path id="Helvetica-6d" d="M 413 3347 
L 969 3347 
L 969 2872 
Q 1169 3119 1331 3231 
Q 1609 3422 1963 3422 
Q 2363 3422 2606 3225 
Q 2744 3113 2856 2894 
Q 3044 3163 3297 3292 
Q 3550 3422 3866 3422 
Q 4541 3422 4784 2934 
Q 4916 2672 4916 2228 
L 4916 0 
L 4331 0 
L 4331 2325 
Q 4331 2659 4164 2784 
Q 3997 2909 3756 2909 
Q 3425 2909 3186 2687 
Q 2947 2466 2947 1947 
L 2947 0 
L 2375 0 
L 2375 2184 
Q 2375 2525 2294 2681 
Q 2166 2916 1816 2916 
Q 1497 2916 1236 2669 
Q 975 2422 975 1775 
L 975 0 
L 413 0 
L 413 3347 
z
" transform="scale(0.015625)"/>
       <path id="Helvetica-65" d="M 1806 3422 
Q 2163 3422 2497 3255 
Q 2831 3088 3006 2822 
Q 3175 2569 3231 2231 
Q 3281 2000 3281 1494 
L 828 1494 
Q 844 984 1069 676 
Q 1294 369 1766 369 
Q 2206 369 2469 659 
Q 2619 828 2681 1050 
L 3234 1050 
Q 3213 866 3089 639 
Q 2966 413 2813 269 
Q 2556 19 2178 -69 
Q 1975 -119 1719 -119 
Q 1094 -119 659 336 
Q 225 791 225 1609 
Q 225 2416 662 2919 
Q 1100 3422 1806 3422 
z
M 2703 1941 
Q 2669 2306 2544 2525 
Q 2313 2931 1772 2931 
Q 1384 2931 1121 2651 
Q 859 2372 844 1941 
L 2703 1941 
z
M 1753 3428 
L 1753 3428 
z
" transform="scale(0.015625)"/>
       <path id="Helvetica-20" transform="scale(0.015625)"/>
       <path id="Helvetica-28" d="M 1894 4666 
Q 1403 3713 1256 3263 
Q 1034 2578 1034 1681 
Q 1034 775 1288 25 
Q 1444 -438 1903 -1306 
L 1525 -1306 
Q 1069 -594 959 -397 
Q 850 -200 722 138 
Q 547 600 478 1125 
Q 444 1397 444 1644 
Q 444 2569 734 3291 
Q 919 3750 1503 4666 
L 1894 4666 
z
" transform="scale(0.015625)"/>
       <path id="Helvetica-68" d="M 413 4606 
L 975 4606 
L 975 2894 
Q 1175 3147 1334 3250 
Q 1606 3428 2013 3428 
Q 2741 3428 3000 2919 
Q 3141 2641 3141 2147 
L 3141 0 
L 2563 0 
L 2563 2109 
Q 2563 2478 2469 2650 
Q 2316 2925 1894 2925 
Q 1544 2925 1259 2684 
Q 975 2444 975 1775 
L 975 0 
L 413 0 
L 413 4606 
z
" transform="scale(0.015625)"/>
       <path id="Helvetica-6f" d="M 1741 363 
Q 2300 363 2508 786 
Q 2716 1209 2716 1728 
Q 2716 2197 2566 2491 
Q 2328 2953 1747 2953 
Q 1231 2953 997 2559 
Q 763 2166 763 1609 
Q 763 1075 997 719 
Q 1231 363 1741 363 
z
M 1763 3444 
Q 2409 3444 2856 3012 
Q 3303 2581 3303 1744 
Q 3303 934 2909 406 
Q 2516 -122 1688 -122 
Q 997 -122 590 345 
Q 184 813 184 1600 
Q 184 2444 612 2944 
Q 1041 3444 1763 3444 
z
M 1744 3428 
L 1744 3428 
z
" transform="scale(0.015625)"/>
       <path id="Helvetica-75" d="M 975 3347 
L 975 1125 
Q 975 869 1056 706 
Q 1206 406 1616 406 
Q 2203 406 2416 931 
Q 2531 1213 2531 1703 
L 2531 3347 
L 3094 3347 
L 3094 0 
L 2563 0 
L 2569 494 
Q 2459 303 2297 172 
Q 1975 -91 1516 -91 
Q 800 -91 541 388 
Q 400 644 400 1072 
L 400 3347 
L 975 3347 
z
M 1747 3428 
L 1747 3428 
z
" transform="scale(0.015625)"/>
       <path id="Helvetica-72" d="M 428 3347 
L 963 3347 
L 963 2769 
Q 1028 2938 1284 3180 
Q 1541 3422 1875 3422 
Q 1891 3422 1928 3419 
Q 1966 3416 2056 3406 
L 2056 2813 
Q 2006 2822 1964 2825 
Q 1922 2828 1872 2828 
Q 1447 2828 1219 2554 
Q 991 2281 991 1925 
L 991 0 
L 428 0 
L 428 3347 
z
" transform="scale(0.015625)"/>
       <path id="Helvetica-73" d="M 747 1050 
Q 772 769 888 619 
Q 1100 347 1625 347 
Q 1938 347 2175 483 
Q 2413 619 2413 903 
Q 2413 1119 2222 1231 
Q 2100 1300 1741 1391 
L 1294 1503 
Q 866 1609 663 1741 
Q 300 1969 300 2372 
Q 300 2847 642 3140 
Q 984 3434 1563 3434 
Q 2319 3434 2653 2991 
Q 2863 2709 2856 2384 
L 2325 2384 
Q 2309 2575 2191 2731 
Q 1997 2953 1519 2953 
Q 1200 2953 1036 2831 
Q 872 2709 872 2509 
Q 872 2291 1088 2159 
Q 1213 2081 1456 2022 
L 1828 1931 
Q 2434 1784 2641 1647 
Q 2969 1431 2969 969 
Q 2969 522 2630 197 
Q 2291 -128 1597 -128 
Q 850 -128 539 211 
Q 228 550 206 1050 
L 747 1050 
z
M 1578 3428 
L 1578 3428 
z
" transform="scale(0.015625)"/>
       <path id="Helvetica-29" d="M 222 -1306 
Q 719 -338 863 106 
Q 1081 778 1081 1681 
Q 1081 2584 828 3334 
Q 672 3797 213 4666 
L 591 4666 
Q 1072 3897 1173 3717 
Q 1275 3538 1394 3222 
Q 1544 2831 1608 2450 
Q 1672 2069 1672 1716 
Q 1672 791 1378 66 
Q 1194 -400 613 -1306 
L 222 -1306 
z
" transform="scale(0.015625)"/>
      </defs>
      <use xlink:href="#Helvetica-54"/>
      <use xlink:href="#Helvetica-69" x="61.083984"/>
      <use xlink:href="#Helvetica-6d" x="83.300781"/>
      <use xlink:href="#Helvetica-65" x="166.601562"/>
      <use xlink:href="#Helvetica-20" x="222.216797"/>
      <use xlink:href="#Helvetica-28" x="250"/>
      <use xlink:href="#Helvetica-68" x="283.300781"/>
      <use xlink:href="#Helvetica-6f" x="338.916016"/>
      <use xlink:href="#Helvetica-75" x="394.53125"/>
      <use xlink:href="#Helvetica-72" x="450.146484"/>
      <use xlink:href="#Helvetica-73" x="483.447266"/>
      <use xlink:href="#Helvetica-29" x="533.447266"/>
     </g>
    </g>
   </g>
   <g id="matplotlib.axis_2">
    <g id="ytick_1">
     <g id="line2d_8">
      <defs>
       <path id="mb218159ebd" d="M 0 0 
L -4 0 
" style="stroke: #262626"/>
      </defs>
      <g>
       <use xlink:href="#mb218159ebd" x="57.6" y="284.768929" style="fill: #262626; stroke: #262626"/>
      </g>
     </g>
     <g id="text_9">
      <!-- 2 -->
      <g style="fill: #262626" transform="translate(42.314687 289.790335)scale(0.14 -0.14)">
       <use xlink:href="#Helvetica-32"/>
      </g>
     </g>
    </g>
    <g id="ytick_2">
     <g id="line2d_9">
      <g>
       <use xlink:href="#mb218159ebd" x="57.6" y="233.390944" style="fill: #262626; stroke: #262626"/>
      </g>
     </g>
     <g id="text_10">
      <!-- 4 -->
      <g style="fill: #262626" transform="translate(42.314687 238.412351)scale(0.14 -0.14)">
       <use xlink:href="#Helvetica-34"/>
      </g>
     </g>
    </g>
    <g id="ytick_3">
     <g id="line2d_10">
      <g>
       <use xlink:href="#mb218159ebd" x="57.6" y="182.01296" style="fill: #262626; stroke: #262626"/>
      </g>
     </g>
     <g id="text_11">
      <!-- 6 -->
      <g style="fill: #262626" transform="translate(42.314687 187.034367)scale(0.14 -0.14)">
       <use xlink:href="#Helvetica-36"/>
      </g>
     </g>
    </g>
    <g id="ytick_4">
     <g id="line2d_11">
      <g>
       <use xlink:href="#mb218159ebd" x="57.6" y="130.634976" style="fill: #262626; stroke: #262626"/>
      </g>
     </g>
     <g id="text_12">
      <!-- 8 -->
      <g style="fill: #262626" transform="translate(42.314687 135.656382)scale(0.14 -0.14)">
       <defs>
        <path id="Helvetica-38" d="M 1741 2600 
Q 2113 2600 2322 2808 
Q 2531 3016 2531 3303 
Q 2531 3553 2331 3762 
Q 2131 3972 1722 3972 
Q 1316 3972 1134 3762 
Q 953 3553 953 3272 
Q 953 2956 1187 2778 
Q 1422 2600 1741 2600 
z
M 1775 384 
Q 2166 384 2423 595 
Q 2681 806 2681 1225 
Q 2681 1659 2415 1884 
Q 2150 2109 1734 2109 
Q 1331 2109 1076 1879 
Q 822 1650 822 1244 
Q 822 894 1055 639 
Q 1288 384 1775 384 
z
M 975 2384 
Q 741 2484 609 2619 
Q 363 2869 363 3269 
Q 363 3769 725 4128 
Q 1088 4488 1753 4488 
Q 2397 4488 2762 4148 
Q 3128 3809 3128 3356 
Q 3128 2938 2916 2678 
Q 2797 2531 2547 2391 
Q 2825 2263 2984 2097 
Q 3281 1784 3281 1284 
Q 3281 694 2884 283 
Q 2488 -128 1763 -128 
Q 1109 -128 657 226 
Q 206 581 206 1256 
Q 206 1653 400 1942 
Q 594 2231 975 2384 
z
" transform="scale(0.015625)"/>
       </defs>
       <use xlink:href="#Helvetica-38"/>
      </g>
     </g>
    </g>
    <g id="ytick_5">
     <g id="line2d_12">
      <g>
       <use xlink:href="#mb218159ebd" x="57.6" y="79.256992" style="fill: #262626; stroke: #262626"/>
      </g>
     </g>
     <g id="text_13">
      <!-- 10 -->
      <g style="fill: #262626" transform="translate(34.529375 84.278398)scale(0.14 -0.14)">
       <use xlink:href="#Helvetica-31"/>
       <use xlink:href="#Helvetica-30" x="55.615234"/>
      </g>
     </g>
    </g>
    <g id="ytick_6">
     <g id="line2d_13">
      <defs>
       <path id="mfc1e67d9eb" d="M 0 0 
L -2 0 
" style="stroke: #262626"/>
      </defs>
      <g>
       <use xlink:href="#mfc1e67d9eb" x="57.6" y="297.613425" style="fill: #262626; stroke: #262626"/>
      </g>
     </g>
    </g>
    <g id="ytick_7">
     <g id="line2d_14">
      <g>
       <use xlink:href="#mfc1e67d9eb" x="57.6" y="271.924433" style="fill: #262626; stroke: #262626"/>
      </g>
     </g>
    </g>
    <g id="ytick_8">
     <g id="line2d_15">
      <g>
       <use xlink:href="#mfc1e67d9eb" x="57.6" y="259.079937" style="fill: #262626; stroke: #262626"/>
      </g>
     </g>
    </g>
    <g id="ytick_9">
     <g id="line2d_16">
      <g>
       <use xlink:href="#mfc1e67d9eb" x="57.6" y="246.235441" style="fill: #262626; stroke: #262626"/>
      </g>
     </g>
    </g>
    <g id="ytick_10">
     <g id="line2d_17">
      <g>
       <use xlink:href="#mfc1e67d9eb" x="57.6" y="220.546448" style="fill: #262626; stroke: #262626"/>
      </g>
     </g>
    </g>
    <g id="ytick_11">
     <g id="line2d_18">
      <g>
       <use xlink:href="#mfc1e67d9eb" x="57.6" y="207.701952" style="fill: #262626; stroke: #262626"/>
      </g>
     </g>
    </g>
    <g id="ytick_12">
     <g id="line2d_19">
      <g>
       <use xlink:href="#mfc1e67d9eb" x="57.6" y="194.857456" style="fill: #262626; stroke: #262626"/>
      </g>
     </g>
    </g>
    <g id="ytick_13">
     <g id="line2d_20">
      <g>
       <use xlink:href="#mfc1e67d9eb" x="57.6" y="169.168464" style="fill: #262626; stroke: #262626"/>
      </g>
     </g>
    </g>
    <g id="ytick_14">
     <g id="line2d_21">
      <g>
       <use xlink:href="#mfc1e67d9eb" x="57.6" y="156.323968" style="fill: #262626; stroke: #262626"/>
      </g>
     </g>
    </g>
    <g id="ytick_15">
     <g id="line2d_22">
      <g>
       <use xlink:href="#mfc1e67d9eb" x="57.6" y="143.479472" style="fill: #262626; stroke: #262626"/>
      </g>
     </g>
    </g>
    <g id="ytick_16">
     <g id="line2d_23">
      <g>
       <use xlink:href="#mfc1e67d9eb" x="57.6" y="117.79048" style="fill: #262626; stroke: #262626"/>
      </g>
     </g>
    </g>
    <g id="ytick_17">
     <g id="line2d_24">
      <g>
       <use xlink:href="#mfc1e67d9eb" x="57.6" y="104.945984" style="fill: #262626; stroke: #262626"/>
      </g>
     </g>
    </g>
    <g id="ytick_18">
     <g id="line2d_25">
      <g>
       <use xlink:href="#mfc1e67d9eb" x="57.6" y="92.101488" style="fill: #262626; stroke: #262626"/>
      </g>
     </g>
    </g>
    <g id="ytick_19">
     <g id="line2d_26">
      <g>
       <use xlink:href="#mfc1e67d9eb" x="57.6" y="66.412496" style="fill: #262626; stroke: #262626"/>
      </g>
     </g>
    </g>
    <g id="ytick_20">
     <g id="line2d_27">
      <g>
       <use xlink:href="#mfc1e67d9eb" x="57.6" y="53.568" style="fill: #262626; stroke: #262626"/>
      </g>
     </g>
    </g>
    <g id="text_14">
     <!-- Concentration (nM) -->
     <g style="fill: #262626" transform="translate(26.7775 251.553937)rotate(-90)scale(0.18 -0.18)">
      <defs>
       <path id="Helvetica-43" d="M 2422 4716 
Q 3294 4716 3775 4256 
Q 4256 3797 4309 3213 
L 3703 3213 
Q 3600 3656 3292 3915 
Q 2984 4175 2428 4175 
Q 1750 4175 1333 3698 
Q 916 3222 916 2238 
Q 916 1431 1292 929 
Q 1669 428 2416 428 
Q 3103 428 3463 956 
Q 3653 1234 3747 1688 
L 4353 1688 
Q 4272 963 3816 472 
Q 3269 -119 2341 -119 
Q 1541 -119 997 366 
Q 281 1006 281 2344 
Q 281 3359 819 4009 
Q 1400 4716 2422 4716 
z
M 2297 4716 
L 2297 4716 
z
" transform="scale(0.015625)"/>
       <path id="Helvetica-6e" d="M 413 3347 
L 947 3347 
L 947 2872 
Q 1184 3166 1450 3294 
Q 1716 3422 2041 3422 
Q 2753 3422 3003 2925 
Q 3141 2653 3141 2147 
L 3141 0 
L 2569 0 
L 2569 2109 
Q 2569 2416 2478 2603 
Q 2328 2916 1934 2916 
Q 1734 2916 1606 2875 
Q 1375 2806 1200 2600 
Q 1059 2434 1017 2257 
Q 975 2081 975 1753 
L 975 0 
L 413 0 
L 413 3347 
z
M 1734 3428 
L 1734 3428 
z
" transform="scale(0.015625)"/>
       <path id="Helvetica-63" d="M 1703 3444 
Q 2269 3444 2623 3169 
Q 2978 2894 3050 2222 
L 2503 2222 
Q 2453 2531 2275 2736 
Q 2097 2941 1703 2941 
Q 1166 2941 934 2416 
Q 784 2075 784 1575 
Q 784 1072 996 728 
Q 1209 384 1666 384 
Q 2016 384 2220 598 
Q 2425 813 2503 1184 
L 3050 1184 
Q 2956 519 2581 211 
Q 2206 -97 1622 -97 
Q 966 -97 575 383 
Q 184 863 184 1581 
Q 184 2463 612 2953 
Q 1041 3444 1703 3444 
z
M 1616 3428 
L 1616 3428 
z
" transform="scale(0.015625)"/>
       <path id="Helvetica-74" d="M 525 4281 
L 1094 4281 
L 1094 3347 
L 1628 3347 
L 1628 2888 
L 1094 2888 
L 1094 703 
Q 1094 528 1213 469 
Q 1278 434 1431 434 
Q 1472 434 1519 436 
Q 1566 438 1628 444 
L 1628 0 
Q 1531 -28 1426 -40 
Q 1322 -53 1200 -53 
Q 806 -53 665 148 
Q 525 350 525 672 
L 525 2888 
L 72 2888 
L 72 3347 
L 525 3347 
L 525 4281 
z
" transform="scale(0.015625)"/>
       <path id="Helvetica-61" d="M 844 891 
Q 844 647 1022 506 
Q 1200 366 1444 366 
Q 1741 366 2019 503 
Q 2488 731 2488 1250 
L 2488 1703 
Q 2384 1638 2221 1594 
Q 2059 1550 1903 1531 
L 1563 1488 
Q 1256 1447 1103 1359 
Q 844 1213 844 891 
z
M 2206 2028 
Q 2400 2053 2466 2191 
Q 2503 2266 2503 2406 
Q 2503 2694 2298 2823 
Q 2094 2953 1713 2953 
Q 1272 2953 1088 2716 
Q 984 2584 953 2325 
L 428 2325 
Q 444 2944 830 3186 
Q 1216 3428 1725 3428 
Q 2316 3428 2684 3203 
Q 3050 2978 3050 2503 
L 3050 575 
Q 3050 488 3086 434 
Q 3122 381 3238 381 
Q 3275 381 3322 386 
Q 3369 391 3422 400 
L 3422 -16 
Q 3291 -53 3222 -62 
Q 3153 -72 3034 -72 
Q 2744 -72 2613 134 
Q 2544 244 2516 444 
Q 2344 219 2022 53 
Q 1700 -113 1313 -113 
Q 847 -113 551 170 
Q 256 453 256 878 
Q 256 1344 547 1600 
Q 838 1856 1309 1916 
L 2206 2028 
z
M 1741 3428 
L 1741 3428 
z
" transform="scale(0.015625)"/>
       <path id="Helvetica-4d" d="M 472 4591 
L 1363 4591 
L 2681 709 
L 3991 4591 
L 4872 4591 
L 4872 0 
L 4281 0 
L 4281 2709 
Q 4281 2850 4287 3175 
Q 4294 3500 4294 3872 
L 2984 0 
L 2369 0 
L 1050 3872 
L 1050 3731 
Q 1050 3563 1058 3217 
Q 1066 2872 1066 2709 
L 1066 0 
L 472 0 
L 472 4591 
z
" transform="scale(0.015625)"/>
      </defs>
      <use xlink:href="#Helvetica-43"/>
      <use xlink:href="#Helvetica-6f" x="72.216797"/>
      <use xlink:href="#Helvetica-6e" x="127.832031"/>
      <use xlink:href="#Helvetica-63" x="183.447266"/>
      <use xlink:href="#Helvetica-65" x="233.447266"/>
      <use xlink:href="#Helvetica-6e" x="289.0625"/>
      <use xlink:href="#Helvetica-74" x="344.677734"/>
      <use xlink:href="#Helvetica-72" x="372.460938"/>
      <use xlink:href="#Helvetica-61" x="405.761719"/>
      <use xlink:href="#Helvetica-74" x="461.376953"/>
      <use xlink:href="#Helvetica-69" x="489.160156"/>
      <use xlink:href="#Helvetica-6f" x="511.376953"/>
      <use xlink:href="#Helvetica-6e" x="566.992188"/>
      <use xlink:href="#Helvetica-20" x="622.607422"/>
      <use xlink:href="#Helvetica-28" x="650.390625"/>
      <use xlink:href="#Helvetica-6e" x="683.691406"/>
      <use xlink:href="#Helvetica-4d" x="739.306641"/>
      <use xlink:href="#Helvetica-29" x="822.607422"/>
     </g>
    </g>
   </g>
   <g id="line2d_28">
    <path d="M 73.832727 53.568 
L 74.483338 186.50252 
L 81.640051 226.055748 
L 84.242492 238.994965 
L 86.194323 247.834364 
L 88.146154 255.849338 
L 90.097985 263.006278 
L 92.049816 269.301417 
L 94.001647 274.752935 
L 95.953478 279.393541 
L 97.905309 283.26401 
L 99.206529 285.437975 
L 100.50775 287.301694 
L 101.808971 288.8671 
L 103.110191 290.14503 
L 104.411412 291.144963 
L 105.712633 291.874808 
L 107.013853 292.340759 
L 108.315074 292.5472 
L 109.616294 292.496658 
L 110.917515 292.189806 
L 112.218736 291.625504 
L 113.519956 290.800895 
L 114.821177 289.711543 
L 116.122398 288.351623 
L 117.423618 286.714178 
L 118.724839 284.791428 
L 120.026059 282.57516 
L 121.97789 278.682632 
L 123.929721 274.086719 
L 125.881552 268.770335 
L 127.833383 262.729315 
L 129.785214 255.97808 
L 131.737045 248.555076 
L 134.339486 237.733106 
L 137.592538 223.083479 
L 145.399862 187.210329 
L 148.002303 176.682453 
L 149.954134 169.744687 
L 151.905965 163.81501 
L 153.207185 160.491328 
L 154.508406 157.71068 
L 155.809627 155.499441 
L 157.110847 153.877134 
L 157.761457 153.291034 
L 158.412068 152.856345 
L 159.062678 152.573554 
L 159.713288 152.442719 
L 160.363899 152.46347 
L 161.014509 152.635013 
L 161.665119 152.956133 
L 162.31573 153.425201 
L 163.61695 154.798632 
L 164.918171 156.734263 
L 166.219392 159.204912 
L 167.520612 162.177698 
L 168.821833 165.614463 
L 170.773664 171.544807 
L 172.725495 178.261456 
L 175.327936 188.138215 
L 179.231598 204.060299 
L 184.43648 225.273222 
L 187.689532 237.491233 
L 190.291973 246.338384 
L 192.243804 252.346023 
L 194.195635 257.780423 
L 196.147466 262.626886 
L 198.099297 266.882824 
L 200.051128 270.554475 
L 202.002959 273.65389 
L 203.95479 276.196298 
L 205.25601 277.589804 
L 206.557231 278.747635 
L 207.858451 279.674108 
L 209.159672 280.373051 
L 210.460893 280.847684 
L 211.762113 281.100549 
L 213.063334 281.133458 
L 214.364555 280.947484 
L 215.665775 280.542976 
L 216.966996 279.919604 
L 218.268216 279.076443 
L 219.569437 278.012072 
L 220.870658 276.724725 
L 222.171878 275.212452 
L 224.123709 272.518151 
L 226.07554 269.308331 
L 228.027371 265.581166 
L 229.979202 261.340446 
L 231.931033 256.597999 
L 234.533474 249.534592 
L 237.135915 241.709085 
L 240.388967 231.066826 
L 245.59385 212.983464 
L 249.497511 199.651544 
L 252.099953 191.423211 
L 254.051784 185.806492 
L 256.003614 180.791777 
L 257.955445 176.479911 
L 259.256666 174.038645 
L 260.557887 171.968969 
L 261.859107 170.28802 
L 263.160328 169.00898 
L 264.461549 168.140967 
L 265.762769 167.688975 
L 267.06399 167.653863 
L 268.36521 168.032399 
L 269.666431 168.817336 
L 270.967652 169.997546 
L 272.268872 171.558191 
L 273.570093 173.480938 
L 274.871314 175.744233 
L 276.823144 179.72347 
L 278.774975 184.320361 
L 280.726806 189.432202 
L 283.329248 196.860119 
L 287.232909 208.777978 
L 293.739013 228.675069 
L 296.992064 237.818909 
L 299.594505 244.492251 
L 302.196947 250.497038 
L 304.148777 254.526677 
L 306.100608 258.133519 
L 308.052439 261.309891 
L 310.00427 264.053175 
L 311.956101 266.364392 
L 313.907932 268.246922 
L 315.859763 269.70544 
L 317.160984 270.444735 
L 318.462204 270.999308 
L 319.763425 271.370503 
L 321.064646 271.559502 
L 322.365866 271.567295 
L 323.667087 271.394678 
L 324.968307 271.042253 
L 326.269528 270.510465 
L 327.570749 269.799641 
L 328.871969 268.910054 
L 330.8238 267.241174 
L 332.775631 265.172389 
L 334.727462 262.706778 
L 336.679293 259.849866 
L 338.631124 256.610723 
L 340.582955 253.003098 
L 343.185396 247.654516 
L 345.787838 241.752104 
L 349.040889 233.735732 
L 353.595161 221.759071 
L 359.450654 206.338309 
L 362.703706 198.468583 
L 365.306147 192.849049 
L 367.257978 189.142702 
L 369.209809 185.943621 
L 371.16164 183.306287 
L 372.46286 181.88224 
L 373.764081 180.737662 
L 375.065302 179.880225 
L 376.366522 179.315107 
L 377.667743 179.044956 
L 378.968963 179.069878 
L 380.270184 179.387464 
L 381.571405 179.992841 
L 382.872625 180.878748 
L 384.173846 182.035646 
L 385.475067 183.451849 
L 386.776287 185.113681 
L 388.728118 188.032668 
L 390.679949 191.410326 
L 392.63178 195.181495 
L 395.234221 200.70106 
L 398.487273 208.14883 
L 398.487273 208.14883 
" clip-path="url(#peb71d7bd0b)" style="fill: none; stroke: #4477aa; stroke-linecap: round"/>
   </g>
   <g id="line2d_29">
    <path d="M 73.832727 79.256992 
L 74.483338 193.556236 
L 77.736389 175.592921 
L 79.68822 165.723482 
L 81.640051 156.854334 
L 83.591882 149.210499 
L 84.893103 144.888725 
L 86.194323 141.239266 
L 87.495544 138.297728 
L 88.796764 136.090933 
L 89.447375 135.269063 
L 90.097985 134.637 
L 90.748595 134.195668 
L 91.399206 133.945463 
L 92.049816 133.886253 
L 92.700426 134.017382 
L 93.351037 134.337674 
L 94.001647 134.845431 
L 94.652257 135.538445 
L 95.953478 137.46879 
L 97.254698 140.100759 
L 98.555919 143.398353 
L 99.85714 147.31782 
L 101.15836 151.808093 
L 103.110191 159.485909 
L 105.062022 168.098948 
L 107.664463 180.625243 
L 117.423618 229.114671 
L 120.026059 240.404409 
L 121.97789 248.075258 
L 123.929721 255.006238 
L 125.881552 261.174512 
L 127.833383 266.577807 
L 129.785214 271.228804 
L 131.737045 275.149948 
L 133.038266 277.372134 
L 134.339486 279.290889 
L 135.640707 280.914752 
L 136.941927 282.25178 
L 138.243148 283.309268 
L 139.544369 284.093532 
L 140.845589 284.609749 
L 142.14681 284.861843 
L 143.448031 284.852432 
L 144.749251 284.582815 
L 146.050472 284.053001 
L 147.351692 283.2618 
L 148.652913 282.206942 
L 149.954134 280.88526 
L 151.255354 279.292916 
L 152.556575 277.425672 
L 153.857796 275.279231 
L 155.809627 271.527546 
L 157.761457 267.129058 
L 159.713288 262.081391 
L 161.665119 256.39354 
L 163.61695 250.089824 
L 166.219392 240.80471 
L 168.821833 230.66756 
L 172.725495 214.401932 
L 178.580987 189.860167 
L 181.183429 179.892822 
L 183.13526 173.136444 
L 185.087091 167.159768 
L 187.038921 162.089853 
L 188.340142 159.26639 
L 189.641363 156.917986 
L 190.942583 155.064522 
L 192.243804 153.720641 
L 193.545025 152.89568 
L 194.195635 152.679257 
L 194.846245 152.593655 
L 195.496856 152.638548 
L 196.147466 152.813285 
L 196.798076 153.116888 
L 198.099297 154.105179 
L 199.400517 155.589269 
L 200.701738 157.550105 
L 202.002959 159.963975 
L 203.304179 162.802797 
L 205.25601 167.78664 
L 207.207841 173.530857 
L 209.810282 182.135218 
L 213.063334 193.920865 
L 222.171878 227.680461 
L 224.77432 236.347293 
L 227.376761 244.234888 
L 229.328592 249.57663 
L 231.280423 254.396344 
L 233.232254 258.679784 
L 235.184085 262.421917 
L 237.135915 265.624509 
L 239.087746 268.293898 
L 240.388967 269.781637 
L 241.690188 271.039315 
L 242.991408 272.069899 
L 244.292629 272.876215 
L 245.59385 273.460835 
L 246.89507 273.82599 
L 248.196291 273.973506 
L 249.497511 273.904777 
L 250.798732 273.620766 
L 252.099953 273.122022 
L 253.401173 272.408743 
L 254.702394 271.480846 
L 256.003614 270.338075 
L 257.304835 268.980134 
L 259.256666 266.53945 
L 261.208497 263.61509 
L 263.160328 260.210873 
L 265.112159 256.335326 
L 267.06399 252.003463 
L 269.666431 245.559402 
L 272.268872 238.42945 
L 275.521924 228.736819 
L 280.076196 214.297255 
L 285.281078 197.894277 
L 287.88352 190.308693 
L 290.485961 183.458909 
L 292.437792 178.939202 
L 294.389623 175.041511 
L 295.690843 172.823804 
L 296.992064 170.931352 
L 298.293285 169.378529 
L 299.594505 168.17661 
L 300.895726 167.333668 
L 302.196947 166.854529 
L 303.498167 166.740747 
L 304.799388 166.990617 
L 306.100608 167.599225 
L 307.401829 168.558521 
L 308.70305 169.857435 
L 310.00427 171.482019 
L 311.305491 173.415625 
L 313.257322 176.85298 
L 315.209153 180.868355 
L 317.160984 185.378934 
L 319.763425 192.008165 
L 323.016477 200.970789 
L 332.775631 228.404367 
L 336.028683 236.593289 
L 338.631124 242.521239 
L 341.233565 247.815511 
L 343.185396 251.340916 
L 345.137227 254.470046 
L 347.089058 257.195331 
L 349.040889 259.51313 
L 350.99272 261.422683 
L 352.944551 262.925189 
L 354.245772 263.701869 
L 355.546992 264.299552 
L 356.848213 264.719154 
L 358.149433 264.961597 
L 359.450654 265.027774 
L 360.751875 264.91854 
L 362.053095 264.634712 
L 363.354316 264.177086 
L 364.655537 263.546467 
L 366.607368 262.278091 
L 368.559198 260.625913 
L 370.511029 258.59456 
L 372.46286 256.190505 
L 374.414691 253.42285 
L 376.366522 250.304162 
L 378.968963 245.629757 
L 381.571405 240.416381 
L 384.173846 234.737442 
L 387.426897 227.129319 
L 393.933001 211.136886 
L 397.836662 201.826769 
L 398.487273 200.345988 
L 398.487273 200.345988 
" clip-path="url(#peb71d7bd0b)" style="fill: none; stroke: #ee6677; stroke-linecap: round"/>
   </g>
   <g id="line2d_30">
    <path d="M 73.832727 259.079937 
L 74.483338 295.452486 
L 75.784558 295.455244 
L 77.085779 295.185544 
L 78.386999 294.643156 
L 79.68822 293.825584 
L 80.989441 292.728229 
L 82.290661 291.344607 
L 83.591882 289.666639 
L 84.893103 287.685001 
L 86.194323 285.389556 
L 87.495544 282.769877 
L 89.447375 278.210547 
L 91.399206 272.870108 
L 93.351037 266.730723 
L 95.302868 259.792441 
L 97.254698 252.079981 
L 99.85714 240.693451 
L 102.459581 228.264018 
L 107.013853 205.108874 
L 110.917515 185.528768 
L 113.519956 173.584657 
L 115.471787 165.590529 
L 117.423618 158.646278 
L 118.724839 154.685515 
L 120.026059 151.310024 
L 121.32728 148.554947 
L 122.628501 146.448018 
L 123.929721 145.00939 
L 124.580332 144.544886 
L 125.230942 144.251523 
L 125.881552 144.129643 
L 126.532163 144.1791 
L 127.182773 144.399258 
L 127.833383 144.788991 
L 128.483993 145.346684 
L 129.785214 146.957058 
L 131.086435 149.20777 
L 132.387655 152.068633 
L 133.688876 155.502172 
L 134.990097 159.464077 
L 136.941927 166.285651 
L 138.893758 173.989182 
L 141.4962 185.266638 
L 146.701082 209.333071 
L 150.604744 226.858158 
L 153.207185 237.606057 
L 155.809627 247.330342 
L 157.761457 253.86859 
L 159.713288 259.726795 
L 161.665119 264.896477 
L 163.61695 269.38361 
L 165.568781 273.204121 
L 167.520612 276.379868 
L 168.821833 278.150863 
L 170.123053 279.653428 
L 171.424274 280.89451 
L 172.725495 281.880491 
L 174.026715 282.617008 
L 175.327936 283.108819 
L 176.629156 283.359717 
L 177.930377 283.372476 
L 179.231598 283.148846 
L 180.532818 282.68958 
L 181.834039 281.994501 
L 183.13526 281.062594 
L 184.43648 279.892152 
L 185.737701 278.480942 
L 187.038921 276.826419 
L 188.990752 273.882749 
L 190.942583 270.378186 
L 192.894414 266.308681 
L 194.846245 261.676478 
L 196.798076 256.493033 
L 198.749907 250.781927 
L 201.352348 242.414997 
L 203.95479 233.318288 
L 207.858451 218.747904 
L 214.364555 194.310859 
L 216.966996 185.426978 
L 218.918827 179.404832 
L 220.870658 174.072881 
L 222.822489 169.542618 
L 224.123709 167.014893 
L 225.42493 164.908322 
L 226.72615 163.241418 
L 228.027371 162.028211 
L 229.328592 161.27812 
L 229.979202 161.078403 
L 230.629812 160.995866 
L 231.280423 161.030358 
L 231.931033 161.181435 
L 233.232254 161.830092 
L 234.533474 162.932434 
L 235.834695 164.474503 
L 237.135915 166.437956 
L 238.437136 168.800301 
L 239.738357 171.535186 
L 241.690188 176.269953 
L 243.642019 181.662218 
L 246.24446 189.658875 
L 249.497511 200.512438 
L 257.955445 229.209021 
L 260.557887 237.22397 
L 263.160328 244.55593 
L 265.762769 251.106995 
L 267.7146 255.471532 
L 269.666431 259.350857 
L 271.618262 262.740288 
L 273.570093 265.640992 
L 275.521924 268.058119 
L 277.473755 269.999179 
L 278.774975 271.032935 
L 280.076196 271.861433 
L 281.377417 272.487087 
L 282.678637 272.9121 
L 283.979858 273.138406 
L 285.281078 273.167628 
L 286.582299 273.001073 
L 287.88352 272.639734 
L 289.18474 272.084325 
L 290.485961 271.335333 
L 291.787182 270.393087 
L 293.739013 268.617958 
L 295.690843 266.409844 
L 297.642674 263.771227 
L 299.594505 260.707009 
L 301.546336 257.225806 
L 303.498167 253.341316 
L 306.100608 247.570516 
L 308.70305 241.188793 
L 311.956101 232.504068 
L 316.510373 219.504595 
L 322.365866 202.757199 
L 324.968307 195.859404 
L 327.570749 189.596865 
L 329.52258 185.435859 
L 331.474411 181.817543 
L 333.426242 178.806456 
L 334.727462 177.163118 
L 336.028683 175.826068 
L 337.329903 174.805196 
L 338.631124 174.107606 
L 339.932345 173.737544 
L 341.233565 173.696359 
L 342.534786 173.982504 
L 343.836007 174.591561 
L 345.137227 175.516298 
L 346.438448 176.746765 
L 347.739668 178.270424 
L 349.040889 180.072304 
L 350.99272 183.258594 
L 352.944551 186.965421 
L 354.896382 191.118362 
L 357.498823 197.210218 
L 360.751875 205.435935 
L 370.511029 230.629588 
L 373.764081 238.174833 
L 376.366522 243.650285 
L 378.968963 248.553437 
L 380.920794 251.827433 
L 382.872625 254.741549 
L 384.824456 257.288136 
L 386.776287 259.463191 
L 388.728118 261.265453 
L 390.679949 262.695602 
L 392.63178 263.755581 
L 393.933001 264.257882 
L 395.234221 264.597726 
L 396.535442 264.776023 
L 397.836662 264.79369 
L 398.487273 264.742573 
L 398.487273 264.742573 
" clip-path="url(#peb71d7bd0b)" style="fill: none; stroke: #228833; stroke-linecap: round"/>
   </g>
   <g id="patch_3">
    <path d="M 57.6 307.584 
L 57.6 41.472 
" style="fill: none; stroke: #262626; stroke-width: 0.5; stroke-linejoin: miter; stroke-linecap: square"/>
   </g>
   <g id="patch_4">
    <path d="M 57.6 307.584 
L 414.72 307.584 
" style="fill: none; stroke: #262626; stroke-width: 0.5; stroke-linejoin: miter; stroke-linecap: square"/>
   </g>
   <g id="legend_1">
    <g id="line2d_31">
     <path d="M 335.120625 64.284187 
L 353.120625 64.284187 
L 371.120625 64.284187 
" style="fill: none; stroke: #4477aa; stroke-linecap: round"/>
    </g>
    <g id="text_15">
     <!-- A -->
     <g style="fill: #262626" transform="translate(385.520625 70.584187)scale(0.18 -0.18)">
      <defs>
       <path id="Helvetica-41" d="M 2844 1881 
L 2147 3909 
L 1406 1881 
L 2844 1881 
z
M 1822 4591 
L 2525 4591 
L 4191 0 
L 3509 0 
L 3044 1375 
L 1228 1375 
L 731 0 
L 94 0 
L 1822 4591 
z
" transform="scale(0.015625)"/>
      </defs>
      <use xlink:href="#Helvetica-41"/>
     </g>
    </g>
    <g id="line2d_32">
     <path d="M 335.120625 89.94825 
L 353.120625 89.94825 
L 371.120625 89.94825 
" style="fill: none; stroke: #ee6677; stroke-linecap: round"/>
    </g>
    <g id="text_16">
     <!-- B -->
     <g style="fill: #262626" transform="translate(385.520625 96.24825)scale(0.18 -0.18)">
      <defs>
       <path id="Helvetica-42" d="M 2213 2650 
Q 2606 2650 2825 2759 
Q 3169 2931 3169 3378 
Q 3169 3828 2803 3984 
Q 2597 4072 2191 4072 
L 1081 4072 
L 1081 2650 
L 2213 2650 
z
M 2422 531 
Q 2994 531 3238 863 
Q 3391 1072 3391 1369 
Q 3391 1869 2944 2050 
Q 2706 2147 2316 2147 
L 1081 2147 
L 1081 531 
L 2422 531 
z
M 472 4591 
L 2444 4591 
Q 3250 4591 3591 4109 
Q 3791 3825 3791 3453 
Q 3791 3019 3544 2741 
Q 3416 2594 3175 2472 
Q 3528 2338 3703 2169 
Q 4013 1869 4013 1341 
Q 4013 897 3734 538 
Q 3319 0 2413 0 
L 472 0 
L 472 4591 
z
" transform="scale(0.015625)"/>
      </defs>
      <use xlink:href="#Helvetica-42"/>
     </g>
    </g>
    <g id="line2d_33">
     <path d="M 335.120625 115.612312 
L 353.120625 115.612312 
L 371.120625 115.612312 
" style="fill: none; stroke: #228833; stroke-linecap: round"/>
    </g>
    <g id="text_17">
     <!-- C -->
     <g style="fill: #262626" transform="translate(385.520625 121.912312)scale(0.18 -0.18)">
      <use xlink:href="#Helvetica-43"/>
     </g>
    </g>
   </g>
  </g>
 </g>
 <defs>
  <clipPath id="peb71d7bd0b">
   <rect x="57.6" y="41.472" width="357.12" height="266.112"/>
  </clipPath>
 </defs>
</svg>
