<?xml version="1.0" encoding="utf-8" standalone="no"?>
<!DOCTYPE svg PUBLIC "-//W3C//DTD SVG 1.1//EN"
  "http://www.w3.org/Graphics/SVG/1.1/DTD/svg11.dtd">
<svg xmlns:xlink="http://www.w3.org/1999/xlink" width="460.8pt" height="345.6pt" viewBox="0 0 460.8 345.6" xmlns="http://www.w3.org/2000/svg" version="1.1">
 <metadata>
  <rdf:RDF xmlns:dc="http://purl.org/dc/elements/1.1/" xmlns:cc="http://creativecommons.org/ns#" xmlns:rdf="http://www.w3.org/1999/02/22-rdf-syntax-ns#">
   <cc:Work>
    <dc:type rdf:resource="http://purl.org/dc/dcmitype/StillImage"/>
    <dc:date>2024-04-08T17:26:01.015880</dc:date>
    <dc:format>image/svg+xml</dc:format>
    <dc:creator>
     <cc:Agent>
      <dc:title>Matplotlib v3.5.1, https://matplotlib.org/</dc:title>
     </cc:Agent>
    </dc:creator>
   </cc:Work>
  </rdf:RDF>
 </metadata>
 <defs>
  <style type="text/css">*{stroke-linejoin: round; stroke-linecap: butt}</style>
 </defs>
 <g id="figure_1">
  <g id="patch_1">
   <path d="M 0 345.6 
L 460.8 345.6 
L 460.8 0 
L 0 0 
z
" style="fill: #ffffff"/>
  </g>
  <g id="axes_1">
   <g id="patch_2">
    <path d="M 57.6 307.584 
L 414.72 307.584 
L 414.72 41.472 
L 57.6 41.472 
z
" style="fill: #ffffff"/>
   </g>
   <g id="matplotlib.axis_1">
    <g id="xtick_1">
     <g id="line2d_1">
      <defs>
       <path id="m031b17b046" d="M 0 0 
L 0 4 
" style="stroke: #262626"/>
      </defs>
      <g>
       <use xlink:href="#m031b17b046" x="73.832727" y="307.584" style="fill: #262626; stroke: #262626"/>
      </g>
     </g>
     <g id="text_1">
      <!-- 0 -->
      <g style="fill: #262626" transform="translate(69.940071 325.126812)scale(0.14 -0.14)">
       <defs>
        <path id="Helvetica-30" d="M 1731 4475 
Q 2600 4475 2988 3759 
Q 3288 3206 3288 2244 
Q 3288 1331 3016 734 
Q 2622 -122 1728 -122 
Q 922 -122 528 578 
Q 200 1163 200 2147 
Q 200 2909 397 3456 
Q 766 4475 1731 4475 
z
M 1725 391 
Q 2163 391 2422 778 
Q 2681 1166 2681 2222 
Q 2681 2984 2493 3476 
Q 2306 3969 1766 3969 
Q 1269 3969 1039 3501 
Q 809 3034 809 2125 
Q 809 1441 956 1025 
Q 1181 391 1725 391 
z
" transform="scale(0.015625)"/>
       </defs>
       <use xlink:href="#Helvetica-30"/>
      </g>
     </g>
    </g>
    <g id="xtick_2">
     <g id="line2d_2">
      <g>
       <use xlink:href="#m031b17b046" x="127.941818" y="307.584" style="fill: #262626; stroke: #262626"/>
      </g>
     </g>
     <g id="text_2">
      <!-- 10 -->
      <g style="fill: #262626" transform="translate(120.156506 325.126812)scale(0.14 -0.14)">
       <defs>
        <path id="Helvetica-31" d="M 613 3169 
L 613 3600 
Q 1222 3659 1462 3798 
Q 1703 3938 1822 4456 
L 2266 4456 
L 2266 0 
L 1666 0 
L 1666 3169 
L 613 3169 
z
" transform="scale(0.015625)"/>
       </defs>
       <use xlink:href="#Helvetica-31"/>
       <use xlink:href="#Helvetica-30" x="55.615234"/>
      </g>
     </g>
    </g>
    <g id="xtick_3">
     <g id="line2d_3">
      <g>
       <use xlink:href="#m031b17b046" x="182.050909" y="307.584" style="fill: #262626; stroke: #262626"/>
      </g>
     </g>
     <g id="text_3">
      <!-- 20 -->
      <g style="fill: #262626" transform="translate(174.265597 325.126812)scale(0.14 -0.14)">
       <defs>
        <path id="Helvetica-32" d="M 200 0 
Q 231 578 439 1006 
Q 647 1434 1250 1784 
L 1850 2131 
Q 2253 2366 2416 2531 
Q 2672 2791 2672 3125 
Q 2672 3516 2437 3745 
Q 2203 3975 1813 3975 
Q 1234 3975 1013 3538 
Q 894 3303 881 2888 
L 309 2888 
Q 319 3472 525 3841 
Q 891 4491 1816 4491 
Q 2584 4491 2939 4075 
Q 3294 3659 3294 3150 
Q 3294 2613 2916 2231 
Q 2697 2009 2131 1694 
L 1703 1456 
Q 1397 1288 1222 1134 
Q 909 863 828 531 
L 3272 531 
L 3272 0 
L 200 0 
z
" transform="scale(0.015625)"/>
       </defs>
       <use xlink:href="#Helvetica-32"/>
       <use xlink:href="#Helvetica-30" x="55.615234"/>
      </g>
     </g>
    </g>
    <g id="xtick_4">
     <g id="line2d_4">
      <g>
       <use xlink:href="#m031b17b046" x="236.16" y="307.584" style="fill: #262626; stroke: #262626"/>
      </g>
     </g>
     <g id="text_4">
      <!-- 30 -->
      <g style="fill: #262626" transform="translate(228.374688 325.126812)scale(0.14 -0.14)">
       <defs>
        <path id="Helvetica-33" d="M 1663 -122 
Q 869 -122 511 314 
Q 153 750 153 1375 
L 741 1375 
Q 778 941 903 744 
Q 1122 391 1694 391 
Q 2138 391 2406 628 
Q 2675 866 2675 1241 
Q 2675 1703 2392 1887 
Q 2109 2072 1606 2072 
Q 1550 2072 1492 2070 
Q 1434 2069 1375 2066 
L 1375 2563 
Q 1463 2553 1522 2550 
Q 1581 2547 1650 2547 
Q 1966 2547 2169 2647 
Q 2525 2822 2525 3272 
Q 2525 3606 2287 3787 
Q 2050 3969 1734 3969 
Q 1172 3969 956 3594 
Q 838 3388 822 3006 
L 266 3006 
Q 266 3506 466 3856 
Q 809 4481 1675 4481 
Q 2359 4481 2734 4176 
Q 3109 3872 3109 3294 
Q 3109 2881 2888 2625 
Q 2750 2466 2531 2375 
Q 2884 2278 3082 2001 
Q 3281 1725 3281 1325 
Q 3281 684 2859 281 
Q 2438 -122 1663 -122 
z
" transform="scale(0.015625)"/>
       </defs>
       <use xlink:href="#Helvetica-33"/>
       <use xlink:href="#Helvetica-30" x="55.615234"/>
      </g>
     </g>
    </g>
    <g id="xtick_5">
     <g id="line2d_5">
      <g>
       <use xlink:href="#m031b17b046" x="290.269091" y="307.584" style="fill: #262626; stroke: #262626"/>
      </g>
     </g>
     <g id="text_5">
      <!-- 40 -->
      <g style="fill: #262626" transform="translate(282.483778 325.126812)scale(0.14 -0.14)">
       <defs>
        <path id="Helvetica-34" d="M 2116 1584 
L 2116 3613 
L 681 1584 
L 2116 1584 
z
M 2125 0 
L 2125 1094 
L 163 1094 
L 163 1644 
L 2213 4488 
L 2688 4488 
L 2688 1584 
L 3347 1584 
L 3347 1094 
L 2688 1094 
L 2688 0 
L 2125 0 
z
" transform="scale(0.015625)"/>
       </defs>
       <use xlink:href="#Helvetica-34"/>
       <use xlink:href="#Helvetica-30" x="55.615234"/>
      </g>
     </g>
    </g>
    <g id="xtick_6">
     <g id="line2d_6">
      <g>
       <use xlink:href="#m031b17b046" x="344.378182" y="307.584" style="fill: #262626; stroke: #262626"/>
      </g>
     </g>
     <g id="text_6">
      <!-- 50 -->
      <g style="fill: #262626" transform="translate(336.592869 325.126812)scale(0.14 -0.14)">
       <defs>
        <path id="Helvetica-35" d="M 791 1141 
Q 847 659 1238 475 
Q 1438 381 1700 381 
Q 2200 381 2440 700 
Q 2681 1019 2681 1406 
Q 2681 1875 2395 2131 
Q 2109 2388 1709 2388 
Q 1419 2388 1211 2275 
Q 1003 2163 856 1963 
L 369 1991 
L 709 4400 
L 3034 4400 
L 3034 3856 
L 1131 3856 
L 941 2613 
Q 1097 2731 1238 2791 
Q 1488 2894 1816 2894 
Q 2431 2894 2859 2497 
Q 3288 2100 3288 1491 
Q 3288 856 2895 371 
Q 2503 -113 1644 -113 
Q 1097 -113 676 195 
Q 256 503 206 1141 
L 791 1141 
z
" transform="scale(0.015625)"/>
       </defs>
       <use xlink:href="#Helvetica-35"/>
       <use xlink:href="#Helvetica-30" x="55.615234"/>
      </g>
     </g>
    </g>
    <g id="xtick_7">
     <g id="line2d_7">
      <g>
       <use xlink:href="#m031b17b046" x="398.487273" y="307.584" style="fill: #262626; stroke: #262626"/>
      </g>
     </g>
     <g id="text_7">
      <!-- 60 -->
      <g style="fill: #262626" transform="translate(390.70196 325.126812)scale(0.14 -0.14)">
       <defs>
        <path id="Helvetica-36" d="M 1872 4494 
Q 2622 4494 2917 4105 
Q 3213 3716 3213 3303 
L 2656 3303 
Q 2606 3569 2497 3719 
Q 2294 4000 1881 4000 
Q 1409 4000 1131 3564 
Q 853 3128 822 2316 
Q 1016 2600 1309 2741 
Q 1578 2866 1909 2866 
Q 2472 2866 2890 2506 
Q 3309 2147 3309 1434 
Q 3309 825 2912 354 
Q 2516 -116 1781 -116 
Q 1153 -116 697 361 
Q 241 838 241 1966 
Q 241 2800 444 3381 
Q 834 4494 1872 4494 
z
M 1831 384 
Q 2275 384 2495 682 
Q 2716 981 2716 1388 
Q 2716 1731 2519 2042 
Q 2322 2353 1803 2353 
Q 1441 2353 1167 2112 
Q 894 1872 894 1388 
Q 894 963 1142 673 
Q 1391 384 1831 384 
z
" transform="scale(0.015625)"/>
       </defs>
       <use xlink:href="#Helvetica-36"/>
       <use xlink:href="#Helvetica-30" x="55.615234"/>
      </g>
     </g>
    </g>
    <g id="text_8">
     <!-- Time (hours) -->
     <g style="fill: #262626" transform="translate(185.156719 345.089312)scale(0.18 -0.18)">
      <defs>
       <path id="Helvetica-54" d="M 3828 4591 
L 3828 4044 
L 2281 4044 
L 2281 0 
L 1650 0 
L 1650 4044 
L 103 4044 
L 103 4591 
L 3828 4591 
z
" transform="scale(0.015625)"/>
       <path id="Helvetica-69" d="M 413 3331 
L 984 3331 
L 984 0 
L 413 0 
L 413 3331 
z
M 413 4591 
L 984 4591 
L 984 3953 
L 413 3953 
L 413 4591 
z
" transform="scale(0.015625)"/>
       <path id="Helvetica-6d" d="M 413 3347 
L 969 3347 
L 969 2872 
Q 1169 3119 1331 3231 
Q 1609 3422 1963 3422 
Q 2363 3422 2606 3225 
Q 2744 3113 2856 2894 
Q 3044 3163 3297 3292 
Q 3550 3422 3866 3422 
Q 4541 3422 4784 2934 
Q 4916 2672 4916 2228 
L 4916 0 
L 4331 0 
L 4331 2325 
Q 4331 2659 4164 2784 
Q 3997 2909 3756 2909 
Q 3425 2909 3186 2687 
Q 2947 2466 2947 1947 
L 2947 0 
L 2375 0 
L 2375 2184 
Q 2375 2525 2294 2681 
Q 2166 2916 1816 2916 
Q 1497 2916 1236 2669 
Q 975 2422 975 1775 
L 975 0 
L 413 0 
L 413 3347 
z
" transform="scale(0.015625)"/>
       <path id="Helvetica-65" d="M 1806 3422 
Q 2163 3422 2497 3255 
Q 2831 3088 3006 2822 
Q 3175 2569 3231 2231 
Q 3281 2000 3281 1494 
L 828 1494 
Q 844 984 1069 676 
Q 1294 369 1766 369 
Q 2206 369 2469 659 
Q 2619 828 2681 1050 
L 3234 1050 
Q 3213 866 3089 639 
Q 2966 413 2813 269 
Q 2556 19 2178 -69 
Q 1975 -119 1719 -119 
Q 1094 -119 659 336 
Q 225 791 225 1609 
Q 225 2416 662 2919 
Q 1100 3422 1806 3422 
z
M 2703 1941 
Q 2669 2306 2544 2525 
Q 2313 2931 1772 2931 
Q 1384 2931 1121 2651 
Q 859 2372 844 1941 
L 2703 1941 
z
M 1753 3428 
L 1753 3428 
z
" transform="scale(0.015625)"/>
       <path id="Helvetica-20" transform="scale(0.015625)"/>
       <path id="Helvetica-28" d="M 1894 4666 
Q 1403 3713 1256 3263 
Q 1034 2578 1034 1681 
Q 1034 775 1288 25 
Q 1444 -438 1903 -1306 
L 1525 -1306 
Q 1069 -594 959 -397 
Q 850 -200 722 138 
Q 547 600 478 1125 
Q 444 1397 444 1644 
Q 444 2569 734 3291 
Q 919 3750 1503 4666 
L 1894 4666 
z
" transform="scale(0.015625)"/>
       <path id="Helvetica-68" d="M 413 4606 
L 975 4606 
L 975 2894 
Q 1175 3147 1334 3250 
Q 1606 3428 2013 3428 
Q 2741 3428 3000 2919 
Q 3141 2641 3141 2147 
L 3141 0 
L 2563 0 
L 2563 2109 
Q 2563 2478 2469 2650 
Q 2316 2925 1894 2925 
Q 1544 2925 1259 2684 
Q 975 2444 975 1775 
L 975 0 
L 413 0 
L 413 4606 
z
" transform="scale(0.015625)"/>
       <path id="Helvetica-6f" d="M 1741 363 
Q 2300 363 2508 786 
Q 2716 1209 2716 1728 
Q 2716 2197 2566 2491 
Q 2328 2953 1747 2953 
Q 1231 2953 997 2559 
Q 763 2166 763 1609 
Q 763 1075 997 719 
Q 1231 363 1741 363 
z
M 1763 3444 
Q 2409 3444 2856 3012 
Q 3303 2581 3303 1744 
Q 3303 934 2909 406 
Q 2516 -122 1688 -122 
Q 997 -122 590 345 
Q 184 813 184 1600 
Q 184 2444 612 2944 
Q 1041 3444 1763 3444 
z
M 1744 3428 
L 1744 3428 
z
" transform="scale(0.015625)"/>
       <path id="Helvetica-75" d="M 975 3347 
L 975 1125 
Q 975 869 1056 706 
Q 1206 406 1616 406 
Q 2203 406 2416 931 
Q 2531 1213 2531 1703 
L 2531 3347 
L 3094 3347 
L 3094 0 
L 2563 0 
L 2569 494 
Q 2459 303 2297 172 
Q 1975 -91 1516 -91 
Q 800 -91 541 388 
Q 400 644 400 1072 
L 400 3347 
L 975 3347 
z
M 1747 3428 
L 1747 3428 
z
" transform="scale(0.015625)"/>
       <path id="Helvetica-72" d="M 428 3347 
L 963 3347 
L 963 2769 
Q 1028 2938 1284 3180 
Q 1541 3422 1875 3422 
Q 1891 3422 1928 3419 
Q 1966 3416 2056 3406 
L 2056 2813 
Q 2006 2822 1964 2825 
Q 1922 2828 1872 2828 
Q 1447 2828 1219 2554 
Q 991 2281 991 1925 
L 991 0 
L 428 0 
L 428 3347 
z
" transform="scale(0.015625)"/>
       <path id="Helvetica-73" d="M 747 1050 
Q 772 769 888 619 
Q 1100 347 1625 347 
Q 1938 347 2175 483 
Q 2413 619 2413 903 
Q 2413 1119 2222 1231 
Q 2100 1300 1741 1391 
L 1294 1503 
Q 866 1609 663 1741 
Q 300 1969 300 2372 
Q 300 2847 642 3140 
Q 984 3434 1563 3434 
Q 2319 3434 2653 2991 
Q 2863 2709 2856 2384 
L 2325 2384 
Q 2309 2575 2191 2731 
Q 1997 2953 1519 2953 
Q 1200 2953 1036 2831 
Q 872 2709 872 2509 
Q 872 2291 1088 2159 
Q 1213 2081 1456 2022 
L 1828 1931 
Q 2434 1784 2641 1647 
Q 2969 1431 2969 969 
Q 2969 522 2630 197 
Q 2291 -128 1597 -128 
Q 850 -128 539 211 
Q 228 550 206 1050 
L 747 1050 
z
M 1578 3428 
L 1578 3428 
z
" transform="scale(0.015625)"/>
       <path id="Helvetica-29" d="M 222 -1306 
Q 719 -338 863 106 
Q 1081 778 1081 1681 
Q 1081 2584 828 3334 
Q 672 3797 213 4666 
L 591 4666 
Q 1072 3897 1173 3717 
Q 1275 3538 1394 3222 
Q 1544 2831 1608 2450 
Q 1672 2069 1672 1716 
Q 1672 791 1378 66 
Q 1194 -400 613 -1306 
L 222 -1306 
z
" transform="scale(0.015625)"/>
      </defs>
      <use xlink:href="#Helvetica-54"/>
      <use xlink:href="#Helvetica-69" x="61.083984"/>
      <use xlink:href="#Helvetica-6d" x="83.300781"/>
      <use xlink:href="#Helvetica-65" x="166.601562"/>
      <use xlink:href="#Helvetica-20" x="222.216797"/>
      <use xlink:href="#Helvetica-28" x="250"/>
      <use xlink:href="#Helvetica-68" x="283.300781"/>
      <use xlink:href="#Helvetica-6f" x="338.916016"/>
      <use xlink:href="#Helvetica-75" x="394.53125"/>
      <use xlink:href="#Helvetica-72" x="450.146484"/>
      <use xlink:href="#Helvetica-73" x="483.447266"/>
      <use xlink:href="#Helvetica-29" x="533.447266"/>
     </g>
    </g>
   </g>
   <g id="matplotlib.axis_2">
    <g id="ytick_1">
     <g id="line2d_8">
      <defs>
       <path id="m85ea6e0b48" d="M 0 0 
L -4 0 
" style="stroke: #262626"/>
      </defs>
      <g>
       <use xlink:href="#m85ea6e0b48" x="57.6" y="295.488" style="fill: #262626; stroke: #262626"/>
      </g>
     </g>
     <g id="text_9">
      <!-- 0 -->
      <g style="fill: #262626" transform="translate(42.314687 300.509406)scale(0.14 -0.14)">
       <use xlink:href="#Helvetica-30"/>
      </g>
     </g>
    </g>
    <g id="ytick_2">
     <g id="line2d_9">
      <g>
       <use xlink:href="#m85ea6e0b48" x="57.6" y="251.502545" style="fill: #262626; stroke: #262626"/>
      </g>
     </g>
     <g id="text_10">
      <!-- 2 -->
      <g style="fill: #262626" transform="translate(42.314687 256.523952)scale(0.14 -0.14)">
       <use xlink:href="#Helvetica-32"/>
      </g>
     </g>
    </g>
    <g id="ytick_3">
     <g id="line2d_10">
      <g>
       <use xlink:href="#m85ea6e0b48" x="57.6" y="207.517091" style="fill: #262626; stroke: #262626"/>
      </g>
     </g>
     <g id="text_11">
      <!-- 4 -->
      <g style="fill: #262626" transform="translate(42.314687 212.538497)scale(0.14 -0.14)">
       <use xlink:href="#Helvetica-34"/>
      </g>
     </g>
    </g>
    <g id="ytick_4">
     <g id="line2d_11">
      <g>
       <use xlink:href="#m85ea6e0b48" x="57.6" y="163.531636" style="fill: #262626; stroke: #262626"/>
      </g>
     </g>
     <g id="text_12">
      <!-- 6 -->
      <g style="fill: #262626" transform="translate(42.314687 168.553043)scale(0.14 -0.14)">
       <use xlink:href="#Helvetica-36"/>
      </g>
     </g>
    </g>
    <g id="ytick_5">
     <g id="line2d_12">
      <g>
       <use xlink:href="#m85ea6e0b48" x="57.6" y="119.546182" style="fill: #262626; stroke: #262626"/>
      </g>
     </g>
     <g id="text_13">
      <!-- 8 -->
      <g style="fill: #262626" transform="translate(42.314687 124.567588)scale(0.14 -0.14)">
       <defs>
        <path id="Helvetica-38" d="M 1741 2600 
Q 2113 2600 2322 2808 
Q 2531 3016 2531 3303 
Q 2531 3553 2331 3762 
Q 2131 3972 1722 3972 
Q 1316 3972 1134 3762 
Q 953 3553 953 3272 
Q 953 2956 1187 2778 
Q 1422 2600 1741 2600 
z
M 1775 384 
Q 2166 384 2423 595 
Q 2681 806 2681 1225 
Q 2681 1659 2415 1884 
Q 2150 2109 1734 2109 
Q 1331 2109 1076 1879 
Q 822 1650 822 1244 
Q 822 894 1055 639 
Q 1288 384 1775 384 
z
M 975 2384 
Q 741 2484 609 2619 
Q 363 2869 363 3269 
Q 363 3769 725 4128 
Q 1088 4488 1753 4488 
Q 2397 4488 2762 4148 
Q 3128 3809 3128 3356 
Q 3128 2938 2916 2678 
Q 2797 2531 2547 2391 
Q 2825 2263 2984 2097 
Q 3281 1784 3281 1284 
Q 3281 694 2884 283 
Q 2488 -128 1763 -128 
Q 1109 -128 657 226 
Q 206 581 206 1256 
Q 206 1653 400 1942 
Q 594 2231 975 2384 
z
" transform="scale(0.015625)"/>
       </defs>
       <use xlink:href="#Helvetica-38"/>
      </g>
     </g>
    </g>
    <g id="ytick_6">
     <g id="line2d_13">
      <g>
       <use xlink:href="#m85ea6e0b48" x="57.6" y="75.560727" style="fill: #262626; stroke: #262626"/>
      </g>
     </g>
     <g id="text_14">
      <!-- 10 -->
      <g style="fill: #262626" transform="translate(34.529375 80.582134)scale(0.14 -0.14)">
       <use xlink:href="#Helvetica-31"/>
       <use xlink:href="#Helvetica-30" x="55.615234"/>
      </g>
     </g>
    </g>
    <g id="ytick_7">
     <g id="line2d_14">
      <defs>
       <path id="madd20b2e1d" d="M 0 0 
L -2 0 
" style="stroke: #262626"/>
      </defs>
      <g>
       <use xlink:href="#madd20b2e1d" x="57.6" y="306.484364" style="fill: #262626; stroke: #262626"/>
      </g>
     </g>
    </g>
    <g id="ytick_8">
     <g id="line2d_15">
      <g>
       <use xlink:href="#madd20b2e1d" x="57.6" y="284.491636" style="fill: #262626; stroke: #262626"/>
      </g>
     </g>
    </g>
    <g id="ytick_9">
     <g id="line2d_16">
      <g>
       <use xlink:href="#madd20b2e1d" x="57.6" y="273.495273" style="fill: #262626; stroke: #262626"/>
      </g>
     </g>
    </g>
    <g id="ytick_10">
     <g id="line2d_17">
      <g>
       <use xlink:href="#madd20b2e1d" x="57.6" y="262.498909" style="fill: #262626; stroke: #262626"/>
      </g>
     </g>
    </g>
    <g id="ytick_11">
     <g id="line2d_18">
      <g>
       <use xlink:href="#madd20b2e1d" x="57.6" y="240.506182" style="fill: #262626; stroke: #262626"/>
      </g>
     </g>
    </g>
    <g id="ytick_12">
     <g id="line2d_19">
      <g>
       <use xlink:href="#madd20b2e1d" x="57.6" y="229.509818" style="fill: #262626; stroke: #262626"/>
      </g>
     </g>
    </g>
    <g id="ytick_13">
     <g id="line2d_20">
      <g>
       <use xlink:href="#madd20b2e1d" x="57.6" y="218.513455" style="fill: #262626; stroke: #262626"/>
      </g>
     </g>
    </g>
    <g id="ytick_14">
     <g id="line2d_21">
      <g>
       <use xlink:href="#madd20b2e1d" x="57.6" y="196.520727" style="fill: #262626; stroke: #262626"/>
      </g>
     </g>
    </g>
    <g id="ytick_15">
     <g id="line2d_22">
      <g>
       <use xlink:href="#madd20b2e1d" x="57.6" y="185.524364" style="fill: #262626; stroke: #262626"/>
      </g>
     </g>
    </g>
    <g id="ytick_16">
     <g id="line2d_23">
      <g>
       <use xlink:href="#madd20b2e1d" x="57.6" y="174.528" style="fill: #262626; stroke: #262626"/>
      </g>
     </g>
    </g>
    <g id="ytick_17">
     <g id="line2d_24">
      <g>
       <use xlink:href="#madd20b2e1d" x="57.6" y="152.535273" style="fill: #262626; stroke: #262626"/>
      </g>
     </g>
    </g>
    <g id="ytick_18">
     <g id="line2d_25">
      <g>
       <use xlink:href="#madd20b2e1d" x="57.6" y="141.538909" style="fill: #262626; stroke: #262626"/>
      </g>
     </g>
    </g>
    <g id="ytick_19">
     <g id="line2d_26">
      <g>
       <use xlink:href="#madd20b2e1d" x="57.6" y="130.542545" style="fill: #262626; stroke: #262626"/>
      </g>
     </g>
    </g>
    <g id="ytick_20">
     <g id="line2d_27">
      <g>
       <use xlink:href="#madd20b2e1d" x="57.6" y="108.549818" style="fill: #262626; stroke: #262626"/>
      </g>
     </g>
    </g>
    <g id="ytick_21">
     <g id="line2d_28">
      <g>
       <use xlink:href="#madd20b2e1d" x="57.6" y="97.553455" style="fill: #262626; stroke: #262626"/>
      </g>
     </g>
    </g>
    <g id="ytick_22">
     <g id="line2d_29">
      <g>
       <use xlink:href="#madd20b2e1d" x="57.6" y="86.557091" style="fill: #262626; stroke: #262626"/>
      </g>
     </g>
    </g>
    <g id="ytick_23">
     <g id="line2d_30">
      <g>
       <use xlink:href="#madd20b2e1d" x="57.6" y="64.564364" style="fill: #262626; stroke: #262626"/>
      </g>
     </g>
    </g>
    <g id="ytick_24">
     <g id="line2d_31">
      <g>
       <use xlink:href="#madd20b2e1d" x="57.6" y="53.568" style="fill: #262626; stroke: #262626"/>
      </g>
     </g>
    </g>
    <g id="ytick_25">
     <g id="line2d_32">
      <g>
       <use xlink:href="#madd20b2e1d" x="57.6" y="42.571636" style="fill: #262626; stroke: #262626"/>
      </g>
     </g>
    </g>
    <g id="text_15">
     <!-- Concentration (nM) -->
     <g style="fill: #262626" transform="translate(26.7775 251.553937)rotate(-90)scale(0.18 -0.18)">
      <defs>
       <path id="Helvetica-43" d="M 2422 4716 
Q 3294 4716 3775 4256 
Q 4256 3797 4309 3213 
L 3703 3213 
Q 3600 3656 3292 3915 
Q 2984 4175 2428 4175 
Q 1750 4175 1333 3698 
Q 916 3222 916 2238 
Q 916 1431 1292 929 
Q 1669 428 2416 428 
Q 3103 428 3463 956 
Q 3653 1234 3747 1688 
L 4353 1688 
Q 4272 963 3816 472 
Q 3269 -119 2341 -119 
Q 1541 -119 997 366 
Q 281 1006 281 2344 
Q 281 3359 819 4009 
Q 1400 4716 2422 4716 
z
M 2297 4716 
L 2297 4716 
z
" transform="scale(0.015625)"/>
       <path id="Helvetica-6e" d="M 413 3347 
L 947 3347 
L 947 2872 
Q 1184 3166 1450 3294 
Q 1716 3422 2041 3422 
Q 2753 3422 3003 2925 
Q 3141 2653 3141 2147 
L 3141 0 
L 2569 0 
L 2569 2109 
Q 2569 2416 2478 2603 
Q 2328 2916 1934 2916 
Q 1734 2916 1606 2875 
Q 1375 2806 1200 2600 
Q 1059 2434 1017 2257 
Q 975 2081 975 1753 
L 975 0 
L 413 0 
L 413 3347 
z
M 1734 3428 
L 1734 3428 
z
" transform="scale(0.015625)"/>
       <path id="Helvetica-63" d="M 1703 3444 
Q 2269 3444 2623 3169 
Q 2978 2894 3050 2222 
L 2503 2222 
Q 2453 2531 2275 2736 
Q 2097 2941 1703 2941 
Q 1166 2941 934 2416 
Q 784 2075 784 1575 
Q 784 1072 996 728 
Q 1209 384 1666 384 
Q 2016 384 2220 598 
Q 2425 813 2503 1184 
L 3050 1184 
Q 2956 519 2581 211 
Q 2206 -97 1622 -97 
Q 966 -97 575 383 
Q 184 863 184 1581 
Q 184 2463 612 2953 
Q 1041 3444 1703 3444 
z
M 1616 3428 
L 1616 3428 
z
" transform="scale(0.015625)"/>
       <path id="Helvetica-74" d="M 525 4281 
L 1094 4281 
L 1094 3347 
L 1628 3347 
L 1628 2888 
L 1094 2888 
L 1094 703 
Q 1094 528 1213 469 
Q 1278 434 1431 434 
Q 1472 434 1519 436 
Q 1566 438 1628 444 
L 1628 0 
Q 1531 -28 1426 -40 
Q 1322 -53 1200 -53 
Q 806 -53 665 148 
Q 525 350 525 672 
L 525 2888 
L 72 2888 
L 72 3347 
L 525 3347 
L 525 4281 
z
" transform="scale(0.015625)"/>
       <path id="Helvetica-61" d="M 844 891 
Q 844 647 1022 506 
Q 1200 366 1444 366 
Q 1741 366 2019 503 
Q 2488 731 2488 1250 
L 2488 1703 
Q 2384 1638 2221 1594 
Q 2059 1550 1903 1531 
L 1563 1488 
Q 1256 1447 1103 1359 
Q 844 1213 844 891 
z
M 2206 2028 
Q 2400 2053 2466 2191 
Q 2503 2266 2503 2406 
Q 2503 2694 2298 2823 
Q 2094 2953 1713 2953 
Q 1272 2953 1088 2716 
Q 984 2584 953 2325 
L 428 2325 
Q 444 2944 830 3186 
Q 1216 3428 1725 3428 
Q 2316 3428 2684 3203 
Q 3050 2978 3050 2503 
L 3050 575 
Q 3050 488 3086 434 
Q 3122 381 3238 381 
Q 3275 381 3322 386 
Q 3369 391 3422 400 
L 3422 -16 
Q 3291 -53 3222 -62 
Q 3153 -72 3034 -72 
Q 2744 -72 2613 134 
Q 2544 244 2516 444 
Q 2344 219 2022 53 
Q 1700 -113 1313 -113 
Q 847 -113 551 170 
Q 256 453 256 878 
Q 256 1344 547 1600 
Q 838 1856 1309 1916 
L 2206 2028 
z
M 1741 3428 
L 1741 3428 
z
" transform="scale(0.015625)"/>
       <path id="Helvetica-4d" d="M 472 4591 
L 1363 4591 
L 2681 709 
L 3991 4591 
L 4872 4591 
L 4872 0 
L 4281 0 
L 4281 2709 
Q 4281 2850 4287 3175 
Q 4294 3500 4294 3872 
L 2984 0 
L 2369 0 
L 1050 3872 
L 1050 3731 
Q 1050 3563 1058 3217 
Q 1066 2872 1066 2709 
L 1066 0 
L 472 0 
L 472 4591 
z
" transform="scale(0.015625)"/>
      </defs>
      <use xlink:href="#Helvetica-43"/>
      <use xlink:href="#Helvetica-6f" x="72.216797"/>
      <use xlink:href="#Helvetica-6e" x="127.832031"/>
      <use xlink:href="#Helvetica-63" x="183.447266"/>
      <use xlink:href="#Helvetica-65" x="233.447266"/>
      <use xlink:href="#Helvetica-6e" x="289.0625"/>
      <use xlink:href="#Helvetica-74" x="344.677734"/>
      <use xlink:href="#Helvetica-72" x="372.460938"/>
      <use xlink:href="#Helvetica-61" x="405.761719"/>
      <use xlink:href="#Helvetica-74" x="461.376953"/>
      <use xlink:href="#Helvetica-69" x="489.160156"/>
      <use xlink:href="#Helvetica-6f" x="511.376953"/>
      <use xlink:href="#Helvetica-6e" x="566.992188"/>
      <use xlink:href="#Helvetica-20" x="622.607422"/>
      <use xlink:href="#Helvetica-28" x="650.390625"/>
      <use xlink:href="#Helvetica-6e" x="683.691406"/>
      <use xlink:href="#Helvetica-4d" x="739.306641"/>
      <use xlink:href="#Helvetica-29" x="822.607422"/>
     </g>
    </g>
   </g>
   <g id="line2d_33">
    <path d="M 73.832727 53.568 
L 74.483338 202.844332 
L 77.085779 216.264282 
L 79.68822 228.775056 
L 81.640051 237.148154 
L 83.591882 244.449726 
L 85.543713 250.618717 
L 86.844934 254.108565 
L 88.146154 257.119585 
L 89.447375 259.674869 
L 90.748595 261.799928 
L 92.049816 263.520387 
L 93.351037 264.860267 
L 94.652257 265.840765 
L 95.953478 266.479453 
L 97.254698 266.789816 
L 98.555919 266.781079 
L 99.85714 266.458276 
L 101.15836 265.822553 
L 102.459581 264.871689 
L 103.760802 263.600845 
L 105.062022 262.003552 
L 106.363243 260.072941 
L 107.664463 257.803213 
L 108.965684 255.191317 
L 110.917515 250.636973 
L 112.869346 245.352039 
L 114.821177 239.416383 
L 117.423618 230.730042 
L 123.929721 208.423394 
L 125.881552 202.665631 
L 127.182773 199.308443 
L 128.483993 196.40911 
L 129.785214 194.017423 
L 131.086435 192.170671 
L 132.387655 190.893073 
L 133.038266 190.471678 
L 133.688876 190.195714 
L 134.339486 190.06457 
L 134.990097 190.076873 
L 135.640707 190.23052 
L 136.291317 190.522703 
L 137.592538 191.50817 
L 138.893758 192.998229 
L 140.194979 194.949223 
L 141.4962 197.310431 
L 143.448031 201.497732 
L 145.399862 206.278791 
L 148.652913 215.009537 
L 153.857796 229.088735 
L 156.460237 235.477668 
L 158.412068 239.810503 
L 160.363899 243.696338 
L 162.31573 247.110499 
L 164.267561 250.044844 
L 166.219392 252.502983 
L 168.171222 254.496059 
L 169.472443 255.573838 
L 170.773664 256.456594 
L 172.074884 257.14926 
L 173.376105 257.65657 
L 174.677326 257.982923 
L 175.978546 258.132299 
L 177.279767 258.108229 
L 178.580987 257.913822 
L 179.882208 257.551819 
L 181.183429 257.024693 
L 183.13526 255.92955 
L 185.087091 254.476499 
L 187.038921 252.675626 
L 188.990752 250.540506 
L 190.942583 248.090006 
L 193.545025 244.377948 
L 196.147466 240.237085 
L 199.400517 234.635437 
L 206.557231 222.077117 
L 209.159672 217.987753 
L 211.111503 215.261256 
L 213.063334 212.897747 
L 215.015165 210.95008 
L 216.316385 209.90322 
L 217.617606 209.068169 
L 218.918827 208.450865 
L 220.220047 208.05446 
L 221.521268 207.879355 
L 222.822489 207.923274 
L 224.123709 208.18139 
L 225.42493 208.64649 
L 226.72615 209.309185 
L 228.027371 210.158102 
L 229.979202 211.751649 
L 231.931033 213.684528 
L 233.882864 215.901676 
L 236.485305 219.199603 
L 240.388967 224.597598 
L 247.54568 234.620628 
L 250.798732 238.773262 
L 253.401173 241.78271 
L 256.003614 244.467059 
L 258.606056 246.798341 
L 261.208497 248.760323 
L 263.160328 249.984819 
L 265.112159 250.996774 
L 267.06399 251.797119 
L 269.015821 252.387885 
L 270.967652 252.77188 
L 272.919483 252.952469 
L 274.871314 252.933443 
L 276.823144 252.718983 
L 278.774975 252.313697 
L 280.726806 251.722736 
L 283.329248 250.656235 
L 285.931689 249.286794 
L 288.53413 247.635031 
L 291.136571 245.726649 
L 294.389623 243.029259 
L 298.293285 239.438337 
L 304.799388 233.035972 
L 309.35366 228.665031 
L 312.606712 225.813527 
L 315.209153 223.783636 
L 317.811594 222.033498 
L 320.414035 220.60603 
L 322.365866 219.767146 
L 324.317697 219.137702 
L 326.269528 218.723277 
L 328.221359 218.525548 
L 330.17319 218.542355 
L 332.125021 218.767863 
L 334.076852 219.192814 
L 336.028683 219.804865 
L 338.631124 220.885667 
L 341.233565 222.230479 
L 344.486617 224.21133 
L 348.390279 226.899257 
L 362.703706 237.134697 
L 365.956757 239.089061 
L 369.209809 240.789406 
L 372.46286 242.202815 
L 375.065302 243.111169 
L 377.667743 243.813124 
L 380.270184 244.30383 
L 382.872625 244.581058 
L 385.475067 244.644913 
L 388.077508 244.497637 
L 390.679949 244.143516 
L 393.28239 243.588899 
L 395.884832 242.842263 
L 398.487273 241.914346 
L 398.487273 241.914346 
" clip-path="url(#pae10800ed2)" style="fill: none; stroke: #4477aa; stroke-linecap: round"/>
    <defs>
     <path id="m226eefffcf" d="M 0 2 
C 0.530406 2 1.03916 1.789267 1.414214 1.414214 
C 1.789267 1.03916 2 0.530406 2 0 
C 2 -0.530406 1.789267 -1.03916 1.414214 -1.414214 
C 1.03916 -1.789267 0.530406 -2 0 -2 
C -0.530406 -2 -1.03916 -1.789267 -1.414214 -1.414214 
C -1.789267 -1.03916 -2 -0.530406 -2 0 
C -2 0.530406 -1.789267 1.03916 -1.414214 1.414214 
C -1.03916 1.789267 -0.530406 2 0 2 
z
" style="stroke: #4477aa"/>
    </defs>
    <g clip-path="url(#pae10800ed2)">
     <use xlink:href="#m226eefffcf" x="73.832727" y="53.568" style="fill: #4477aa; stroke: #4477aa"/>
     <use xlink:href="#m226eefffcf" x="103.110191" y="264.276644" style="fill: #4477aa; stroke: #4477aa"/>
     <use xlink:href="#m226eefffcf" x="132.387655" y="190.893073" style="fill: #4477aa; stroke: #4477aa"/>
     <use xlink:href="#m226eefffcf" x="161.665119" y="246.025642" style="fill: #4477aa; stroke: #4477aa"/>
     <use xlink:href="#m226eefffcf" x="190.942583" y="248.090006" style="fill: #4477aa; stroke: #4477aa"/>
     <use xlink:href="#m226eefffcf" x="220.220047" y="208.05446" style="fill: #4477aa; stroke: #4477aa"/>
     <use xlink:href="#m226eefffcf" x="249.497511" y="237.159272" style="fill: #4477aa; stroke: #4477aa"/>
     <use xlink:href="#m226eefffcf" x="278.774975" y="252.313697" style="fill: #4477aa; stroke: #4477aa"/>
     <use xlink:href="#m226eefffcf" x="308.052439" y="229.880073" style="fill: #4477aa; stroke: #4477aa"/>
     <use xlink:href="#m226eefffcf" x="337.329903" y="220.309522" style="fill: #4477aa; stroke: #4477aa"/>
     <use xlink:href="#m226eefffcf" x="366.607368" y="239.450659" style="fill: #4477aa; stroke: #4477aa"/>
     <use xlink:href="#m226eefffcf" x="395.884832" y="242.842263" style="fill: #4477aa; stroke: #4477aa"/>
    </g>
   </g>
   <g id="line2d_34">
    <path d="M 73.832727 75.560727 
L 74.483338 206.97716 
L 78.386999 187.616321 
L 79.68822 182.18735 
L 80.989441 177.541627 
L 82.290661 173.780633 
L 83.591882 170.978152 
L 84.242492 169.951755 
L 84.893103 169.180017 
L 85.543713 168.664405 
L 86.194323 168.404741 
L 86.844934 168.399243 
L 87.495544 168.644559 
L 88.146154 169.135818 
L 88.796764 169.866667 
L 89.447375 170.829328 
L 90.748595 173.412221 
L 92.049816 176.796312 
L 93.351037 180.875684 
L 95.302868 188.033636 
L 97.905309 198.830765 
L 103.110191 220.997603 
L 105.062022 228.496259 
L 107.013853 235.226221 
L 108.965684 241.090607 
L 110.917515 246.053169 
L 112.218736 248.86253 
L 113.519956 251.282481 
L 114.821177 253.325254 
L 116.122398 255.004723 
L 117.423618 256.335135 
L 118.724839 257.330143 
L 120.026059 258.002121 
L 121.32728 258.361725 
L 122.628501 258.417677 
L 123.929721 258.176743 
L 125.230942 257.6439 
L 126.532163 256.822652 
L 127.833383 255.715499 
L 129.134604 254.324544 
L 130.435824 252.652198 
L 131.737045 250.701986 
L 133.688876 247.268472 
L 135.640707 243.254345 
L 137.592538 238.711736 
L 140.194979 231.970788 
L 143.448031 222.825656 
L 148.002303 209.930109 
L 150.604744 203.251538 
L 152.556575 198.870253 
L 154.508406 195.181377 
L 155.809627 193.161891 
L 157.110847 191.5236 
L 158.412068 190.284141 
L 159.713288 189.454303 
L 161.014509 189.038074 
L 162.31573 189.032816 
L 163.61695 189.429558 
L 164.918171 190.213383 
L 166.219392 191.363923 
L 167.520612 192.855923 
L 168.821833 194.659888 
L 170.773664 197.87781 
L 172.725495 201.600795 
L 175.327936 207.126618 
L 180.532818 218.976646 
L 184.43648 227.538365 
L 187.038921 232.724751 
L 189.641363 237.349182 
L 191.593194 240.403847 
L 193.545025 243.084527 
L 195.496856 245.383826 
L 197.448686 247.301187 
L 199.400517 248.840839 
L 201.352348 250.01007 
L 203.304179 250.817886 
L 205.25601 251.274052 
L 206.557231 251.387709 
L 208.509062 251.279829 
L 210.460893 250.846645 
L 212.412724 250.098161 
L 214.364555 249.045032 
L 216.316385 247.699201 
L 218.268216 246.074676 
L 220.220047 244.188328 
L 222.822489 241.301989 
L 225.42493 238.047955 
L 228.677981 233.580838 
L 234.533474 224.998056 
L 238.437136 219.423883 
L 241.039577 216.010976 
L 243.642019 212.972745 
L 245.59385 210.999859 
L 247.54568 209.328331 
L 249.497511 207.986091 
L 251.449342 206.993556 
L 252.750563 206.532664 
L 254.051784 206.23467 
L 255.353004 206.099747 
L 256.654225 206.126533 
L 257.955445 206.312185 
L 259.907276 206.878875 
L 261.859107 207.773313 
L 263.810938 208.969778 
L 265.762769 210.437565 
L 268.36521 212.756346 
L 270.967652 215.406038 
L 274.220703 219.040506 
L 285.931689 232.531085 
L 289.18474 235.791832 
L 291.787182 238.120924 
L 294.389623 240.169347 
L 296.992064 241.916762 
L 299.594505 243.350196 
L 302.196947 244.462645 
L 304.148777 245.084811 
L 306.100608 245.525498 
L 308.052439 245.786117 
L 310.00427 245.868926 
L 311.956101 245.776946 
L 313.907932 245.513932 
L 316.510373 244.905086 
L 319.112815 244.013185 
L 321.715256 242.854037 
L 324.317697 241.446797 
L 326.920138 239.814438 
L 330.17319 237.499257 
L 334.076852 234.402566 
L 339.281734 229.948896 
L 346.438448 223.831169 
L 350.34211 220.811881 
L 353.595161 218.608365 
L 356.197603 217.104081 
L 358.800044 215.863363 
L 361.402485 214.909629 
L 364.004926 214.258239 
L 365.956757 213.972595 
L 367.908588 213.860872 
L 369.860419 213.920224 
L 372.46286 214.255866 
L 375.065302 214.866736 
L 377.667743 215.727244 
L 380.270184 216.806441 
L 383.523236 218.409273 
L 387.426897 220.6064 
L 393.933001 224.588464 
L 398.487273 227.348456 
L 398.487273 227.348456 
" clip-path="url(#pae10800ed2)" style="fill: none; stroke: #ee6677; stroke-linecap: round"/>
    <defs>
     <path id="m13cdff28be" d="M 0 -2 
L -2 2 
L 2 2 
z
" style="stroke: #ee6677; stroke-linejoin: miter"/>
    </defs>
    <g clip-path="url(#pae10800ed2)">
     <use xlink:href="#m13cdff28be" x="73.832727" y="75.560727" style="fill: #ee6677; stroke: #ee6677; stroke-linejoin: miter"/>
     <use xlink:href="#m13cdff28be" x="108.965684" y="241.090607" style="fill: #ee6677; stroke: #ee6677; stroke-linejoin: miter"/>
     <use xlink:href="#m13cdff28be" x="144.098641" y="220.953266" style="fill: #ee6677; stroke: #ee6677; stroke-linejoin: miter"/>
     <use xlink:href="#m13cdff28be" x="179.231598" y="216.002196" style="fill: #ee6677; stroke: #ee6677; stroke-linejoin: miter"/>
     <use xlink:href="#m13cdff28be" x="214.364555" y="249.045032" style="fill: #ee6677; stroke: #ee6677; stroke-linejoin: miter"/>
     <use xlink:href="#m13cdff28be" x="249.497511" y="207.986091" style="fill: #ee6677; stroke: #ee6677; stroke-linejoin: miter"/>
     <use xlink:href="#m13cdff28be" x="284.630468" y="231.1338" style="fill: #ee6677; stroke: #ee6677; stroke-linejoin: miter"/>
     <use xlink:href="#m13cdff28be" x="319.763425" y="243.747765" style="fill: #ee6677; stroke: #ee6677; stroke-linejoin: miter"/>
     <use xlink:href="#m13cdff28be" x="354.896382" y="217.825038" style="fill: #ee6677; stroke: #ee6677; stroke-linejoin: miter"/>
     <use xlink:href="#m13cdff28be" x="390.029339" y="222.17544" style="fill: #ee6677; stroke: #ee6677; stroke-linejoin: miter"/>
    </g>
   </g>
   <g id="line2d_35">
    <path d="M 73.832727 229.509818 
L 74.483338 270.414977 
L 75.133948 270.454073 
L 76.435169 270.208076 
L 77.736389 269.617941 
L 79.03761 268.667007 
L 80.33883 267.345433 
L 81.640051 265.640653 
L 82.941272 263.537753 
L 84.242492 261.02144 
L 85.543713 258.07854 
L 86.844934 254.700872 
L 88.796764 248.82199 
L 90.748595 242.01753 
L 92.700426 234.414607 
L 95.953478 220.592138 
L 99.85714 204.023249 
L 101.808971 196.657381 
L 103.110191 192.344441 
L 104.411412 188.621393 
L 105.712633 185.566618 
L 107.013853 183.240541 
L 107.664463 182.364398 
L 108.315074 181.684316 
L 108.965684 181.202328 
L 109.616294 180.919217 
L 110.266905 180.83453 
L 110.917515 180.94659 
L 111.568125 181.252528 
L 112.218736 181.748308 
L 112.869346 182.428772 
L 114.170567 184.317814 
L 115.471787 186.858027 
L 116.773008 189.97392 
L 118.074228 193.579034 
L 120.026059 199.697156 
L 123.279111 210.976329 
L 127.182773 224.585952 
L 129.785214 232.850716 
L 131.737045 238.380799 
L 133.688876 243.255916 
L 135.640707 247.447446 
L 137.592538 250.956537 
L 138.893758 252.926371 
L 140.194979 254.610697 
L 141.4962 256.019539 
L 142.79742 257.163254 
L 144.098641 258.051958 
L 145.399862 258.695104 
L 146.701082 259.1012 
L 148.002303 259.277658 
L 149.303523 259.230743 
L 150.604744 258.96562 
L 151.905965 258.486485 
L 153.207185 257.796766 
L 154.508406 256.899388 
L 155.809627 255.797093 
L 157.761457 253.765988 
L 159.713288 251.293373 
L 161.665119 248.39831 
L 163.61695 245.109312 
L 166.219392 240.183771 
L 168.821833 234.769086 
L 174.677326 221.823263 
L 177.930377 214.981695 
L 179.882208 211.276247 
L 181.834039 207.997299 
L 183.78587 205.234551 
L 185.087091 203.716312 
L 186.388311 202.477174 
L 187.689532 201.529813 
L 188.990752 200.882572 
L 190.291973 200.539393 
L 191.593194 200.499839 
L 192.894414 200.759203 
L 194.195635 201.308691 
L 195.496856 202.13569 
L 196.798076 203.224094 
L 198.099297 204.55471 
L 200.051128 206.95642 
L 202.002959 209.77133 
L 204.6054 214.013213 
L 208.509062 220.985828 
L 214.364555 231.511706 
L 217.617606 236.834253 
L 220.220047 240.647884 
L 222.822489 244.001831 
L 224.77432 246.195301 
L 226.72615 248.105257 
L 228.677981 249.73015 
L 230.629812 251.071898 
L 232.581643 252.134795 
L 234.533474 252.924636 
L 236.485305 253.448051 
L 238.437136 253.712048 
L 240.388967 253.72374 
L 242.340798 253.490265 
L 244.292629 253.018842 
L 246.24446 252.316962 
L 248.196291 251.392689 
L 250.148122 250.255032 
L 252.750563 248.424419 
L 255.353004 246.262932 
L 257.955445 243.807848 
L 261.208497 240.397273 
L 265.112159 235.953137 
L 274.220703 225.425352 
L 277.473755 222.116129 
L 280.076196 219.810903 
L 282.028027 218.326122 
L 283.979858 217.077085 
L 285.931689 216.082646 
L 287.88352 215.356546 
L 289.835351 214.907128 
L 291.787182 214.737206 
L 293.739013 214.8441 
L 295.690843 215.21983 
L 297.642674 215.851468 
L 299.594505 216.721605 
L 301.546336 217.808952 
L 304.148777 219.553947 
L 306.751219 221.57685 
L 310.00427 224.391219 
L 315.859763 229.848351 
L 321.064646 234.629122 
L 324.968307 237.910595 
L 328.221359 240.341881 
L 330.8238 242.050069 
L 333.426242 243.52697 
L 336.028683 244.759592 
L 338.631124 245.739768 
L 341.233565 246.463307 
L 343.836007 246.92922 
L 346.438448 247.139161 
L 349.040889 247.097 
L 351.64333 246.808612 
L 354.245772 246.281818 
L 356.848213 245.526477 
L 359.450654 244.554687 
L 362.053095 243.38105 
L 365.306147 241.656956 
L 368.559198 239.685646 
L 372.46286 237.062834 
L 378.318353 232.813603 
L 385.475067 227.623914 
L 389.378728 225.049009 
L 392.63178 223.152001 
L 395.884832 221.544282 
L 398.487273 220.498794 
L 398.487273 220.498794 
" clip-path="url(#pae10800ed2)" style="fill: none; stroke: #228833; stroke-linecap: round"/>
    <defs>
     <path id="m024a41505a" d="M -2 2 
L 2 2 
L 2 -2 
L -2 -2 
z
" style="stroke: #228833; stroke-linejoin: miter"/>
    </defs>
    <g clip-path="url(#pae10800ed2)">
     <use xlink:href="#m024a41505a" x="73.832727" y="229.509818" style="fill: #228833; stroke: #228833; stroke-linejoin: miter"/>
     <use xlink:href="#m024a41505a" x="115.471787" y="186.858027" style="fill: #228833; stroke: #228833; stroke-linejoin: miter"/>
     <use xlink:href="#m024a41505a" x="157.110847" y="254.49281" style="fill: #228833; stroke: #228833; stroke-linejoin: miter"/>
     <use xlink:href="#m024a41505a" x="198.749907" y="205.304114" style="fill: #228833; stroke: #228833; stroke-linejoin: miter"/>
     <use xlink:href="#m024a41505a" x="240.388967" y="253.72374" style="fill: #228833; stroke: #228833; stroke-linejoin: miter"/>
     <use xlink:href="#m024a41505a" x="282.028027" y="218.326122" style="fill: #228833; stroke: #228833; stroke-linejoin: miter"/>
     <use xlink:href="#m024a41505a" x="323.667087" y="236.856167" style="fill: #228833; stroke: #228833; stroke-linejoin: miter"/>
     <use xlink:href="#m024a41505a" x="365.306147" y="241.656956" style="fill: #228833; stroke: #228833; stroke-linejoin: miter"/>
    </g>
   </g>
   <g id="line2d_36">
    <path d="M 73.832727 295.488 
L 75.133948 295.420274 
L 113.519956 295.387417 
L 140.845589 295.438798 
L 302.196947 295.438999 
L 398.487273 295.445596 
L 398.487273 295.445596 
" clip-path="url(#pae10800ed2)" style="fill: none; stroke-dasharray: 3.7,1.6; stroke-dashoffset: 0; stroke: #4477aa"/>
    <g clip-path="url(#pae10800ed2)">
     <use xlink:href="#m226eefffcf" x="73.832727" y="295.488" style="fill: #4477aa; stroke: #4477aa"/>
     <use xlink:href="#m226eefffcf" x="107.013853" y="295.342957" style="fill: #4477aa; stroke: #4477aa"/>
     <use xlink:href="#m226eefffcf" x="140.194979" y="295.43919" style="fill: #4477aa; stroke: #4477aa"/>
     <use xlink:href="#m226eefffcf" x="173.376105" y="295.377717" style="fill: #4477aa; stroke: #4477aa"/>
     <use xlink:href="#m226eefffcf" x="206.557231" y="295.434779" style="fill: #4477aa; stroke: #4477aa"/>
     <use xlink:href="#m226eefffcf" x="239.738357" y="295.43908" style="fill: #4477aa; stroke: #4477aa"/>
     <use xlink:href="#m226eefffcf" x="272.919483" y="295.414575" style="fill: #4477aa; stroke: #4477aa"/>
     <use xlink:href="#m226eefffcf" x="306.100608" y="295.442315" style="fill: #4477aa; stroke: #4477aa"/>
     <use xlink:href="#m226eefffcf" x="339.281734" y="295.451903" style="fill: #4477aa; stroke: #4477aa"/>
     <use xlink:href="#m226eefffcf" x="372.46286" y="295.442635" style="fill: #4477aa; stroke: #4477aa"/>
    </g>
   </g>
   <g id="line2d_37">
    <path d="M 73.832727 295.488 
L 75.133948 295.420955 
L 104.411412 295.410865 
L 136.941927 295.400571 
L 175.327936 295.438999 
L 287.88352 295.438177 
L 398.487273 295.454317 
L 398.487273 295.454317 
" clip-path="url(#pae10800ed2)" style="fill: none; stroke-dasharray: 3.7,1.6; stroke-dashoffset: 0; stroke: #ee6677"/>
    <g clip-path="url(#pae10800ed2)">
     <use xlink:href="#m13cdff28be" x="73.832727" y="295.488" style="fill: #ee6677; stroke: #ee6677; stroke-linejoin: miter"/>
     <use xlink:href="#m13cdff28be" x="107.013853" y="295.400759" style="fill: #ee6677; stroke: #ee6677; stroke-linejoin: miter"/>
     <use xlink:href="#m13cdff28be" x="140.194979" y="295.412381" style="fill: #ee6677; stroke: #ee6677; stroke-linejoin: miter"/>
     <use xlink:href="#m13cdff28be" x="173.376105" y="295.44074" style="fill: #ee6677; stroke: #ee6677; stroke-linejoin: miter"/>
     <use xlink:href="#m13cdff28be" x="206.557231" y="295.401951" style="fill: #ee6677; stroke: #ee6677; stroke-linejoin: miter"/>
     <use xlink:href="#m13cdff28be" x="239.738357" y="295.442381" style="fill: #ee6677; stroke: #ee6677; stroke-linejoin: miter"/>
     <use xlink:href="#m13cdff28be" x="272.919483" y="295.446742" style="fill: #ee6677; stroke: #ee6677; stroke-linejoin: miter"/>
     <use xlink:href="#m13cdff28be" x="306.100608" y="295.4306" style="fill: #ee6677; stroke: #ee6677; stroke-linejoin: miter"/>
     <use xlink:href="#m13cdff28be" x="339.281734" y="295.447277" style="fill: #ee6677; stroke: #ee6677; stroke-linejoin: miter"/>
     <use xlink:href="#m13cdff28be" x="372.46286" y="295.457483" style="fill: #ee6677; stroke: #ee6677; stroke-linejoin: miter"/>
    </g>
   </g>
   <g id="line2d_38">
    <path d="M 73.832727 295.488 
L 75.133948 295.281066 
L 79.68822 295.277007 
L 112.869346 295.439854 
L 398.487273 295.457159 
L 398.487273 295.457159 
" clip-path="url(#pae10800ed2)" style="fill: none; stroke-dasharray: 3.7,1.6; stroke-dashoffset: 0; stroke: #228833"/>
    <g clip-path="url(#pae10800ed2)">
     <use xlink:href="#m024a41505a" x="73.832727" y="295.488" style="fill: #228833; stroke: #228833; stroke-linejoin: miter"/>
     <use xlink:href="#m024a41505a" x="109.616294" y="295.439822" style="fill: #228833; stroke: #228833; stroke-linejoin: miter"/>
     <use xlink:href="#m024a41505a" x="145.399862" y="295.364144" style="fill: #228833; stroke: #228833; stroke-linejoin: miter"/>
     <use xlink:href="#m024a41505a" x="181.183429" y="295.438626" style="fill: #228833; stroke: #228833; stroke-linejoin: miter"/>
     <use xlink:href="#m024a41505a" x="216.966996" y="295.425813" style="fill: #228833; stroke: #228833; stroke-linejoin: miter"/>
     <use xlink:href="#m024a41505a" x="252.750563" y="295.417178" style="fill: #228833; stroke: #228833; stroke-linejoin: miter"/>
     <use xlink:href="#m024a41505a" x="288.53413" y="295.449497" style="fill: #228833; stroke: #228833; stroke-linejoin: miter"/>
     <use xlink:href="#m024a41505a" x="324.317697" y="295.440729" style="fill: #228833; stroke: #228833; stroke-linejoin: miter"/>
     <use xlink:href="#m024a41505a" x="360.101264" y="295.43924" style="fill: #228833; stroke: #228833; stroke-linejoin: miter"/>
     <use xlink:href="#m024a41505a" x="395.884832" y="295.456545" style="fill: #228833; stroke: #228833; stroke-linejoin: miter"/>
    </g>
   </g>
   <g id="line2d_39"/>
   <g id="line2d_40"/>
   <g id="patch_3">
    <path d="M 57.6 307.584 
L 57.6 41.472 
" style="fill: none; stroke: #262626; stroke-width: 0.5; stroke-linejoin: miter; stroke-linecap: square"/>
   </g>
   <g id="patch_4">
    <path d="M 57.6 307.584 
L 414.72 307.584 
" style="fill: none; stroke: #262626; stroke-width: 0.5; stroke-linejoin: miter; stroke-linecap: square"/>
   </g>
   <g id="legend_1">
    <g id="line2d_41">
     <path d="M 283.075312 64.284187 
L 301.075312 64.284187 
L 319.075312 64.284187 
" style="fill: none; stroke: #4477aa; stroke-linecap: round"/>
     <g>
      <use xlink:href="#m226eefffcf" x="301.075312" y="64.284187" style="fill: #4477aa; stroke: #4477aa"/>
     </g>
    </g>
    <g id="text_16">
     <!-- A -->
     <g style="fill: #262626" transform="translate(333.475312 70.584187)scale(0.18 -0.18)">
      <defs>
       <path id="Helvetica-41" d="M 2844 1881 
L 2147 3909 
L 1406 1881 
L 2844 1881 
z
M 1822 4591 
L 2525 4591 
L 4191 0 
L 3509 0 
L 3044 1375 
L 1228 1375 
L 731 0 
L 94 0 
L 1822 4591 
z
" transform="scale(0.015625)"/>
      </defs>
      <use xlink:href="#Helvetica-41"/>
     </g>
    </g>
    <g id="line2d_42">
     <path d="M 283.075312 89.94825 
L 301.075312 89.94825 
L 319.075312 89.94825 
" style="fill: none; stroke: #ee6677; stroke-linecap: round"/>
     <g>
      <use xlink:href="#m13cdff28be" x="301.075312" y="89.94825" style="fill: #ee6677; stroke: #ee6677; stroke-linejoin: miter"/>
     </g>
    </g>
    <g id="text_17">
     <!-- B -->
     <g style="fill: #262626" transform="translate(333.475312 96.24825)scale(0.18 -0.18)">
      <defs>
       <path id="Helvetica-42" d="M 2213 2650 
Q 2606 2650 2825 2759 
Q 3169 2931 3169 3378 
Q 3169 3828 2803 3984 
Q 2597 4072 2191 4072 
L 1081 4072 
L 1081 2650 
L 2213 2650 
z
M 2422 531 
Q 2994 531 3238 863 
Q 3391 1072 3391 1369 
Q 3391 1869 2944 2050 
Q 2706 2147 2316 2147 
L 1081 2147 
L 1081 531 
L 2422 531 
z
M 472 4591 
L 2444 4591 
Q 3250 4591 3591 4109 
Q 3791 3825 3791 3453 
Q 3791 3019 3544 2741 
Q 3416 2594 3175 2472 
Q 3528 2338 3703 2169 
Q 4013 1869 4013 1341 
Q 4013 897 3734 538 
Q 3319 0 2413 0 
L 472 0 
L 472 4591 
z
" transform="scale(0.015625)"/>
      </defs>
      <use xlink:href="#Helvetica-42"/>
     </g>
    </g>
    <g id="line2d_43">
     <path d="M 283.075312 115.612312 
L 301.075312 115.612312 
L 319.075312 115.612312 
" style="fill: none; stroke: #228833; stroke-linecap: round"/>
     <g>
      <use xlink:href="#m024a41505a" x="301.075312" y="115.612312" style="fill: #228833; stroke: #228833; stroke-linejoin: miter"/>
     </g>
    </g>
    <g id="text_18">
     <!-- C -->
     <g style="fill: #262626" transform="translate(333.475312 121.912312)scale(0.18 -0.18)">
      <use xlink:href="#Helvetica-43"/>
     </g>
    </g>
    <g id="line2d_44">
     <path d="M 283.075312 141.276375 
L 301.075312 141.276375 
L 319.075312 141.276375 
" style="fill: none; stroke: #000000; stroke-width: 1.5; stroke-linecap: round"/>
    </g>
    <g id="text_19">
     <!-- Primary -->
     <g style="fill: #262626" transform="translate(333.475312 147.576375)scale(0.18 -0.18)">
      <defs>
       <path id="Helvetica-50" d="M 547 4591 
L 2613 4591 
Q 3225 4591 3600 4245 
Q 3975 3900 3975 3275 
Q 3975 2738 3640 2339 
Q 3306 1941 2613 1941 
L 1169 1941 
L 1169 0 
L 547 0 
L 547 4591 
z
M 3347 3272 
Q 3347 3778 2972 3959 
Q 2766 4056 2406 4056 
L 1169 4056 
L 1169 2466 
L 2406 2466 
Q 2825 2466 3086 2644 
Q 3347 2822 3347 3272 
z
" transform="scale(0.015625)"/>
       <path id="Helvetica-79" d="M 2503 3347 
L 3125 3347 
Q 3006 3025 2597 1878 
Q 2291 1016 2084 472 
Q 1597 -809 1397 -1090 
Q 1197 -1372 709 -1372 
Q 591 -1372 527 -1362 
Q 463 -1353 369 -1328 
L 369 -816 
Q 516 -856 581 -865 
Q 647 -875 697 -875 
Q 853 -875 926 -823 
Q 1000 -772 1050 -697 
Q 1066 -672 1162 -440 
Q 1259 -209 1303 -97 
L 66 3347 
L 703 3347 
L 1600 622 
L 2503 3347 
z
M 1597 3428 
L 1597 3428 
z
" transform="scale(0.015625)"/>
      </defs>
      <use xlink:href="#Helvetica-50"/>
      <use xlink:href="#Helvetica-72" x="66.699219"/>
      <use xlink:href="#Helvetica-69" x="100"/>
      <use xlink:href="#Helvetica-6d" x="122.216797"/>
      <use xlink:href="#Helvetica-61" x="205.517578"/>
      <use xlink:href="#Helvetica-72" x="261.132812"/>
      <use xlink:href="#Helvetica-79" x="294.433594"/>
     </g>
    </g>
    <g id="line2d_45">
     <path d="M 283.075312 167.047312 
L 301.075312 167.047312 
L 319.075312 167.047312 
" style="fill: none; stroke-dasharray: 5.55,2.4; stroke-dashoffset: 0; stroke: #000000; stroke-width: 1.5"/>
    </g>
    <g id="text_20">
     <!-- Shadow -->
     <g style="fill: #262626" transform="translate(333.475312 173.347312)scale(0.18 -0.18)">
      <defs>
       <path id="Helvetica-53" d="M 894 1481 
Q 916 1091 1078 847 
Q 1388 391 2169 391 
Q 2519 391 2806 491 
Q 3363 684 3363 1184 
Q 3363 1559 3128 1719 
Q 2891 1875 2384 1991 
L 1763 2131 
Q 1153 2269 900 2434 
Q 463 2722 463 3294 
Q 463 3913 891 4309 
Q 1319 4706 2103 4706 
Q 2825 4706 3329 4357 
Q 3834 4009 3834 3244 
L 3250 3244 
Q 3203 3613 3050 3809 
Q 2766 4169 2084 4169 
Q 1534 4169 1293 3937 
Q 1053 3706 1053 3400 
Q 1053 3063 1334 2906 
Q 1519 2806 2169 2656 
L 2813 2509 
Q 3278 2403 3531 2219 
Q 3969 1897 3969 1284 
Q 3969 522 3414 194 
Q 2859 -134 2125 -134 
Q 1269 -134 784 303 
Q 300 738 309 1481 
L 894 1481 
z
M 2150 4716 
L 2150 4716 
z
" transform="scale(0.015625)"/>
       <path id="Helvetica-64" d="M 769 1634 
Q 769 1097 997 734 
Q 1225 372 1728 372 
Q 2119 372 2370 708 
Q 2622 1044 2622 1672 
Q 2622 2306 2362 2611 
Q 2103 2916 1722 2916 
Q 1297 2916 1033 2591 
Q 769 2266 769 1634 
z
M 1616 3406 
Q 2000 3406 2259 3244 
Q 2409 3150 2600 2916 
L 2600 4606 
L 3141 4606 
L 3141 0 
L 2634 0 
L 2634 466 
Q 2438 156 2169 18 
Q 1900 -119 1553 -119 
Q 994 -119 584 351 
Q 175 822 175 1603 
Q 175 2334 548 2870 
Q 922 3406 1616 3406 
z
" transform="scale(0.015625)"/>
       <path id="Helvetica-77" d="M 672 3347 
L 1316 709 
L 1969 3347 
L 2600 3347 
L 3256 725 
L 3941 3347 
L 4503 3347 
L 3531 0 
L 2947 0 
L 2266 2591 
L 1606 0 
L 1022 0 
L 56 3347 
L 672 3347 
z
" transform="scale(0.015625)"/>
      </defs>
      <use xlink:href="#Helvetica-53"/>
      <use xlink:href="#Helvetica-68" x="66.699219"/>
      <use xlink:href="#Helvetica-61" x="122.314453"/>
      <use xlink:href="#Helvetica-64" x="177.929688"/>
      <use xlink:href="#Helvetica-6f" x="233.544922"/>
      <use xlink:href="#Helvetica-77" x="289.160156"/>
     </g>
    </g>
   </g>
  </g>
 </g>
 <defs>
  <clipPath id="pae10800ed2">
   <rect x="57.6" y="41.472" width="357.12" height="266.112"/>
  </clipPath>
 </defs>
</svg>
