<?xml version="1.0" encoding="utf-8" standalone="no"?>
<!DOCTYPE svg PUBLIC "-//W3C//DTD SVG 1.1//EN"
  "http://www.w3.org/Graphics/SVG/1.1/DTD/svg11.dtd">
<svg xmlns:xlink="http://www.w3.org/1999/xlink" width="460.8pt" height="345.6pt" viewBox="0 0 460.8 345.6" xmlns="http://www.w3.org/2000/svg" version="1.1">
 <metadata>
  <rdf:RDF xmlns:dc="http://purl.org/dc/elements/1.1/" xmlns:cc="http://creativecommons.org/ns#" xmlns:rdf="http://www.w3.org/1999/02/22-rdf-syntax-ns#">
   <cc:Work>
    <dc:type rdf:resource="http://purl.org/dc/dcmitype/StillImage"/>
    <dc:date>2024-04-09T00:04:47.513945</dc:date>
    <dc:format>image/svg+xml</dc:format>
    <dc:creator>
     <cc:Agent>
      <dc:title>Matplotlib v3.5.1, https://matplotlib.org/</dc:title>
     </cc:Agent>
    </dc:creator>
   </cc:Work>
  </rdf:RDF>
 </metadata>
 <defs>
  <style type="text/css">*{stroke-linejoin: round; stroke-linecap: butt}</style>
 </defs>
 <g id="figure_1">
  <g id="patch_1">
   <path d="M 0 345.6 
L 460.8 345.6 
L 460.8 0 
L 0 0 
z
" style="fill: #ffffff"/>
  </g>
  <g id="axes_1">
   <g id="patch_2">
    <path d="M 57.6 307.584 
L 414.72 307.584 
L 414.72 41.472 
L 57.6 41.472 
z
" style="fill: #ffffff"/>
   </g>
   <g id="matplotlib.axis_1">
    <g id="xtick_1">
     <g id="line2d_1">
      <defs>
       <path id="m2c523a530c" d="M 0 0 
L 0 4 
" style="stroke: #262626"/>
      </defs>
      <g>
       <use xlink:href="#m2c523a530c" x="73.832727" y="307.584" style="fill: #262626; stroke: #262626"/>
      </g>
     </g>
     <g id="text_1">
      <!-- 0 -->
      <g style="fill: #262626" transform="translate(69.940071 325.126812)scale(0.14 -0.14)">
       <defs>
        <path id="Helvetica-30" d="M 1731 4475 
Q 2600 4475 2988 3759 
Q 3288 3206 3288 2244 
Q 3288 1331 3016 734 
Q 2622 -122 1728 -122 
Q 922 -122 528 578 
Q 200 1163 200 2147 
Q 200 2909 397 3456 
Q 766 4475 1731 4475 
z
M 1725 391 
Q 2163 391 2422 778 
Q 2681 1166 2681 2222 
Q 2681 2984 2493 3476 
Q 2306 3969 1766 3969 
Q 1269 3969 1039 3501 
Q 809 3034 809 2125 
Q 809 1441 956 1025 
Q 1181 391 1725 391 
z
" transform="scale(0.015625)"/>
       </defs>
       <use xlink:href="#Helvetica-30"/>
      </g>
     </g>
    </g>
    <g id="xtick_2">
     <g id="line2d_2">
      <g>
       <use xlink:href="#m2c523a530c" x="127.941818" y="307.584" style="fill: #262626; stroke: #262626"/>
      </g>
     </g>
     <g id="text_2">
      <!-- 10 -->
      <g style="fill: #262626" transform="translate(120.156506 325.126812)scale(0.14 -0.14)">
       <defs>
        <path id="Helvetica-31" d="M 613 3169 
L 613 3600 
Q 1222 3659 1462 3798 
Q 1703 3938 1822 4456 
L 2266 4456 
L 2266 0 
L 1666 0 
L 1666 3169 
L 613 3169 
z
" transform="scale(0.015625)"/>
       </defs>
       <use xlink:href="#Helvetica-31"/>
       <use xlink:href="#Helvetica-30" x="55.615234"/>
      </g>
     </g>
    </g>
    <g id="xtick_3">
     <g id="line2d_3">
      <g>
       <use xlink:href="#m2c523a530c" x="182.050909" y="307.584" style="fill: #262626; stroke: #262626"/>
      </g>
     </g>
     <g id="text_3">
      <!-- 20 -->
      <g style="fill: #262626" transform="translate(174.265597 325.126812)scale(0.14 -0.14)">
       <defs>
        <path id="Helvetica-32" d="M 200 0 
Q 231 578 439 1006 
Q 647 1434 1250 1784 
L 1850 2131 
Q 2253 2366 2416 2531 
Q 2672 2791 2672 3125 
Q 2672 3516 2437 3745 
Q 2203 3975 1813 3975 
Q 1234 3975 1013 3538 
Q 894 3303 881 2888 
L 309 2888 
Q 319 3472 525 3841 
Q 891 4491 1816 4491 
Q 2584 4491 2939 4075 
Q 3294 3659 3294 3150 
Q 3294 2613 2916 2231 
Q 2697 2009 2131 1694 
L 1703 1456 
Q 1397 1288 1222 1134 
Q 909 863 828 531 
L 3272 531 
L 3272 0 
L 200 0 
z
" transform="scale(0.015625)"/>
       </defs>
       <use xlink:href="#Helvetica-32"/>
       <use xlink:href="#Helvetica-30" x="55.615234"/>
      </g>
     </g>
    </g>
    <g id="xtick_4">
     <g id="line2d_4">
      <g>
       <use xlink:href="#m2c523a530c" x="236.16" y="307.584" style="fill: #262626; stroke: #262626"/>
      </g>
     </g>
     <g id="text_4">
      <!-- 30 -->
      <g style="fill: #262626" transform="translate(228.374688 325.126812)scale(0.14 -0.14)">
       <defs>
        <path id="Helvetica-33" d="M 1663 -122 
Q 869 -122 511 314 
Q 153 750 153 1375 
L 741 1375 
Q 778 941 903 744 
Q 1122 391 1694 391 
Q 2138 391 2406 628 
Q 2675 866 2675 1241 
Q 2675 1703 2392 1887 
Q 2109 2072 1606 2072 
Q 1550 2072 1492 2070 
Q 1434 2069 1375 2066 
L 1375 2563 
Q 1463 2553 1522 2550 
Q 1581 2547 1650 2547 
Q 1966 2547 2169 2647 
Q 2525 2822 2525 3272 
Q 2525 3606 2287 3787 
Q 2050 3969 1734 3969 
Q 1172 3969 956 3594 
Q 838 3388 822 3006 
L 266 3006 
Q 266 3506 466 3856 
Q 809 4481 1675 4481 
Q 2359 4481 2734 4176 
Q 3109 3872 3109 3294 
Q 3109 2881 2888 2625 
Q 2750 2466 2531 2375 
Q 2884 2278 3082 2001 
Q 3281 1725 3281 1325 
Q 3281 684 2859 281 
Q 2438 -122 1663 -122 
z
" transform="scale(0.015625)"/>
       </defs>
       <use xlink:href="#Helvetica-33"/>
       <use xlink:href="#Helvetica-30" x="55.615234"/>
      </g>
     </g>
    </g>
    <g id="xtick_5">
     <g id="line2d_5">
      <g>
       <use xlink:href="#m2c523a530c" x="290.269091" y="307.584" style="fill: #262626; stroke: #262626"/>
      </g>
     </g>
     <g id="text_5">
      <!-- 40 -->
      <g style="fill: #262626" transform="translate(282.483778 325.126812)scale(0.14 -0.14)">
       <defs>
        <path id="Helvetica-34" d="M 2116 1584 
L 2116 3613 
L 681 1584 
L 2116 1584 
z
M 2125 0 
L 2125 1094 
L 163 1094 
L 163 1644 
L 2213 4488 
L 2688 4488 
L 2688 1584 
L 3347 1584 
L 3347 1094 
L 2688 1094 
L 2688 0 
L 2125 0 
z
" transform="scale(0.015625)"/>
       </defs>
       <use xlink:href="#Helvetica-34"/>
       <use xlink:href="#Helvetica-30" x="55.615234"/>
      </g>
     </g>
    </g>
    <g id="xtick_6">
     <g id="line2d_6">
      <g>
       <use xlink:href="#m2c523a530c" x="344.378182" y="307.584" style="fill: #262626; stroke: #262626"/>
      </g>
     </g>
     <g id="text_6">
      <!-- 50 -->
      <g style="fill: #262626" transform="translate(336.592869 325.126812)scale(0.14 -0.14)">
       <defs>
        <path id="Helvetica-35" d="M 791 1141 
Q 847 659 1238 475 
Q 1438 381 1700 381 
Q 2200 381 2440 700 
Q 2681 1019 2681 1406 
Q 2681 1875 2395 2131 
Q 2109 2388 1709 2388 
Q 1419 2388 1211 2275 
Q 1003 2163 856 1963 
L 369 1991 
L 709 4400 
L 3034 4400 
L 3034 3856 
L 1131 3856 
L 941 2613 
Q 1097 2731 1238 2791 
Q 1488 2894 1816 2894 
Q 2431 2894 2859 2497 
Q 3288 2100 3288 1491 
Q 3288 856 2895 371 
Q 2503 -113 1644 -113 
Q 1097 -113 676 195 
Q 256 503 206 1141 
L 791 1141 
z
" transform="scale(0.015625)"/>
       </defs>
       <use xlink:href="#Helvetica-35"/>
       <use xlink:href="#Helvetica-30" x="55.615234"/>
      </g>
     </g>
    </g>
    <g id="xtick_7">
     <g id="line2d_7">
      <g>
       <use xlink:href="#m2c523a530c" x="398.487273" y="307.584" style="fill: #262626; stroke: #262626"/>
      </g>
     </g>
     <g id="text_7">
      <!-- 60 -->
      <g style="fill: #262626" transform="translate(390.70196 325.126812)scale(0.14 -0.14)">
       <defs>
        <path id="Helvetica-36" d="M 1872 4494 
Q 2622 4494 2917 4105 
Q 3213 3716 3213 3303 
L 2656 3303 
Q 2606 3569 2497 3719 
Q 2294 4000 1881 4000 
Q 1409 4000 1131 3564 
Q 853 3128 822 2316 
Q 1016 2600 1309 2741 
Q 1578 2866 1909 2866 
Q 2472 2866 2890 2506 
Q 3309 2147 3309 1434 
Q 3309 825 2912 354 
Q 2516 -116 1781 -116 
Q 1153 -116 697 361 
Q 241 838 241 1966 
Q 241 2800 444 3381 
Q 834 4494 1872 4494 
z
M 1831 384 
Q 2275 384 2495 682 
Q 2716 981 2716 1388 
Q 2716 1731 2519 2042 
Q 2322 2353 1803 2353 
Q 1441 2353 1167 2112 
Q 894 1872 894 1388 
Q 894 963 1142 673 
Q 1391 384 1831 384 
z
" transform="scale(0.015625)"/>
       </defs>
       <use xlink:href="#Helvetica-36"/>
       <use xlink:href="#Helvetica-30" x="55.615234"/>
      </g>
     </g>
    </g>
    <g id="text_8">
     <!-- Time (hours) -->
     <g style="fill: #262626" transform="translate(185.156719 345.089312)scale(0.18 -0.18)">
      <defs>
       <path id="Helvetica-54" d="M 3828 4591 
L 3828 4044 
L 2281 4044 
L 2281 0 
L 1650 0 
L 1650 4044 
L 103 4044 
L 103 4591 
L 3828 4591 
z
" transform="scale(0.015625)"/>
       <path id="Helvetica-69" d="M 413 3331 
L 984 3331 
L 984 0 
L 413 0 
L 413 3331 
z
M 413 4591 
L 984 4591 
L 984 3953 
L 413 3953 
L 413 4591 
z
" transform="scale(0.015625)"/>
       <path id="Helvetica-6d" d="M 413 3347 
L 969 3347 
L 969 2872 
Q 1169 3119 1331 3231 
Q 1609 3422 1963 3422 
Q 2363 3422 2606 3225 
Q 2744 3113 2856 2894 
Q 3044 3163 3297 3292 
Q 3550 3422 3866 3422 
Q 4541 3422 4784 2934 
Q 4916 2672 4916 2228 
L 4916 0 
L 4331 0 
L 4331 2325 
Q 4331 2659 4164 2784 
Q 3997 2909 3756 2909 
Q 3425 2909 3186 2687 
Q 2947 2466 2947 1947 
L 2947 0 
L 2375 0 
L 2375 2184 
Q 2375 2525 2294 2681 
Q 2166 2916 1816 2916 
Q 1497 2916 1236 2669 
Q 975 2422 975 1775 
L 975 0 
L 413 0 
L 413 3347 
z
" transform="scale(0.015625)"/>
       <path id="Helvetica-65" d="M 1806 3422 
Q 2163 3422 2497 3255 
Q 2831 3088 3006 2822 
Q 3175 2569 3231 2231 
Q 3281 2000 3281 1494 
L 828 1494 
Q 844 984 1069 676 
Q 1294 369 1766 369 
Q 2206 369 2469 659 
Q 2619 828 2681 1050 
L 3234 1050 
Q 3213 866 3089 639 
Q 2966 413 2813 269 
Q 2556 19 2178 -69 
Q 1975 -119 1719 -119 
Q 1094 -119 659 336 
Q 225 791 225 1609 
Q 225 2416 662 2919 
Q 1100 3422 1806 3422 
z
M 2703 1941 
Q 2669 2306 2544 2525 
Q 2313 2931 1772 2931 
Q 1384 2931 1121 2651 
Q 859 2372 844 1941 
L 2703 1941 
z
M 1753 3428 
L 1753 3428 
z
" transform="scale(0.015625)"/>
       <path id="Helvetica-20" transform="scale(0.015625)"/>
       <path id="Helvetica-28" d="M 1894 4666 
Q 1403 3713 1256 3263 
Q 1034 2578 1034 1681 
Q 1034 775 1288 25 
Q 1444 -438 1903 -1306 
L 1525 -1306 
Q 1069 -594 959 -397 
Q 850 -200 722 138 
Q 547 600 478 1125 
Q 444 1397 444 1644 
Q 444 2569 734 3291 
Q 919 3750 1503 4666 
L 1894 4666 
z
" transform="scale(0.015625)"/>
       <path id="Helvetica-68" d="M 413 4606 
L 975 4606 
L 975 2894 
Q 1175 3147 1334 3250 
Q 1606 3428 2013 3428 
Q 2741 3428 3000 2919 
Q 3141 2641 3141 2147 
L 3141 0 
L 2563 0 
L 2563 2109 
Q 2563 2478 2469 2650 
Q 2316 2925 1894 2925 
Q 1544 2925 1259 2684 
Q 975 2444 975 1775 
L 975 0 
L 413 0 
L 413 4606 
z
" transform="scale(0.015625)"/>
       <path id="Helvetica-6f" d="M 1741 363 
Q 2300 363 2508 786 
Q 2716 1209 2716 1728 
Q 2716 2197 2566 2491 
Q 2328 2953 1747 2953 
Q 1231 2953 997 2559 
Q 763 2166 763 1609 
Q 763 1075 997 719 
Q 1231 363 1741 363 
z
M 1763 3444 
Q 2409 3444 2856 3012 
Q 3303 2581 3303 1744 
Q 3303 934 2909 406 
Q 2516 -122 1688 -122 
Q 997 -122 590 345 
Q 184 813 184 1600 
Q 184 2444 612 2944 
Q 1041 3444 1763 3444 
z
M 1744 3428 
L 1744 3428 
z
" transform="scale(0.015625)"/>
       <path id="Helvetica-75" d="M 975 3347 
L 975 1125 
Q 975 869 1056 706 
Q 1206 406 1616 406 
Q 2203 406 2416 931 
Q 2531 1213 2531 1703 
L 2531 3347 
L 3094 3347 
L 3094 0 
L 2563 0 
L 2569 494 
Q 2459 303 2297 172 
Q 1975 -91 1516 -91 
Q 800 -91 541 388 
Q 400 644 400 1072 
L 400 3347 
L 975 3347 
z
M 1747 3428 
L 1747 3428 
z
" transform="scale(0.015625)"/>
       <path id="Helvetica-72" d="M 428 3347 
L 963 3347 
L 963 2769 
Q 1028 2938 1284 3180 
Q 1541 3422 1875 3422 
Q 1891 3422 1928 3419 
Q 1966 3416 2056 3406 
L 2056 2813 
Q 2006 2822 1964 2825 
Q 1922 2828 1872 2828 
Q 1447 2828 1219 2554 
Q 991 2281 991 1925 
L 991 0 
L 428 0 
L 428 3347 
z
" transform="scale(0.015625)"/>
       <path id="Helvetica-73" d="M 747 1050 
Q 772 769 888 619 
Q 1100 347 1625 347 
Q 1938 347 2175 483 
Q 2413 619 2413 903 
Q 2413 1119 2222 1231 
Q 2100 1300 1741 1391 
L 1294 1503 
Q 866 1609 663 1741 
Q 300 1969 300 2372 
Q 300 2847 642 3140 
Q 984 3434 1563 3434 
Q 2319 3434 2653 2991 
Q 2863 2709 2856 2384 
L 2325 2384 
Q 2309 2575 2191 2731 
Q 1997 2953 1519 2953 
Q 1200 2953 1036 2831 
Q 872 2709 872 2509 
Q 872 2291 1088 2159 
Q 1213 2081 1456 2022 
L 1828 1931 
Q 2434 1784 2641 1647 
Q 2969 1431 2969 969 
Q 2969 522 2630 197 
Q 2291 -128 1597 -128 
Q 850 -128 539 211 
Q 228 550 206 1050 
L 747 1050 
z
M 1578 3428 
L 1578 3428 
z
" transform="scale(0.015625)"/>
       <path id="Helvetica-29" d="M 222 -1306 
Q 719 -338 863 106 
Q 1081 778 1081 1681 
Q 1081 2584 828 3334 
Q 672 3797 213 4666 
L 591 4666 
Q 1072 3897 1173 3717 
Q 1275 3538 1394 3222 
Q 1544 2831 1608 2450 
Q 1672 2069 1672 1716 
Q 1672 791 1378 66 
Q 1194 -400 613 -1306 
L 222 -1306 
z
" transform="scale(0.015625)"/>
      </defs>
      <use xlink:href="#Helvetica-54"/>
      <use xlink:href="#Helvetica-69" x="61.083984"/>
      <use xlink:href="#Helvetica-6d" x="83.300781"/>
      <use xlink:href="#Helvetica-65" x="166.601562"/>
      <use xlink:href="#Helvetica-20" x="222.216797"/>
      <use xlink:href="#Helvetica-28" x="250"/>
      <use xlink:href="#Helvetica-68" x="283.300781"/>
      <use xlink:href="#Helvetica-6f" x="338.916016"/>
      <use xlink:href="#Helvetica-75" x="394.53125"/>
      <use xlink:href="#Helvetica-72" x="450.146484"/>
      <use xlink:href="#Helvetica-73" x="483.447266"/>
      <use xlink:href="#Helvetica-29" x="533.447266"/>
     </g>
    </g>
   </g>
   <g id="matplotlib.axis_2">
    <g id="ytick_1">
     <g id="line2d_8">
      <defs>
       <path id="m16a62c2d4e" d="M 0 0 
L -4 0 
" style="stroke: #262626"/>
      </defs>
      <g>
       <use xlink:href="#m16a62c2d4e" x="57.6" y="286.532484" style="fill: #262626; stroke: #262626"/>
      </g>
     </g>
     <g id="text_9">
      <!-- 2 -->
      <g style="fill: #262626" transform="translate(42.314687 291.553891)scale(0.14 -0.14)">
       <use xlink:href="#Helvetica-32"/>
      </g>
     </g>
    </g>
    <g id="ytick_2">
     <g id="line2d_9">
      <g>
       <use xlink:href="#m16a62c2d4e" x="57.6" y="234.762599" style="fill: #262626; stroke: #262626"/>
      </g>
     </g>
     <g id="text_10">
      <!-- 4 -->
      <g style="fill: #262626" transform="translate(42.314687 239.784005)scale(0.14 -0.14)">
       <use xlink:href="#Helvetica-34"/>
      </g>
     </g>
    </g>
    <g id="ytick_3">
     <g id="line2d_10">
      <g>
       <use xlink:href="#m16a62c2d4e" x="57.6" y="182.992714" style="fill: #262626; stroke: #262626"/>
      </g>
     </g>
     <g id="text_11">
      <!-- 6 -->
      <g style="fill: #262626" transform="translate(42.314687 188.01412)scale(0.14 -0.14)">
       <use xlink:href="#Helvetica-36"/>
      </g>
     </g>
    </g>
    <g id="ytick_4">
     <g id="line2d_11">
      <g>
       <use xlink:href="#m16a62c2d4e" x="57.6" y="131.222828" style="fill: #262626; stroke: #262626"/>
      </g>
     </g>
     <g id="text_12">
      <!-- 8 -->
      <g style="fill: #262626" transform="translate(42.314687 136.244234)scale(0.14 -0.14)">
       <defs>
        <path id="Helvetica-38" d="M 1741 2600 
Q 2113 2600 2322 2808 
Q 2531 3016 2531 3303 
Q 2531 3553 2331 3762 
Q 2131 3972 1722 3972 
Q 1316 3972 1134 3762 
Q 953 3553 953 3272 
Q 953 2956 1187 2778 
Q 1422 2600 1741 2600 
z
M 1775 384 
Q 2166 384 2423 595 
Q 2681 806 2681 1225 
Q 2681 1659 2415 1884 
Q 2150 2109 1734 2109 
Q 1331 2109 1076 1879 
Q 822 1650 822 1244 
Q 822 894 1055 639 
Q 1288 384 1775 384 
z
M 975 2384 
Q 741 2484 609 2619 
Q 363 2869 363 3269 
Q 363 3769 725 4128 
Q 1088 4488 1753 4488 
Q 2397 4488 2762 4148 
Q 3128 3809 3128 3356 
Q 3128 2938 2916 2678 
Q 2797 2531 2547 2391 
Q 2825 2263 2984 2097 
Q 3281 1784 3281 1284 
Q 3281 694 2884 283 
Q 2488 -128 1763 -128 
Q 1109 -128 657 226 
Q 206 581 206 1256 
Q 206 1653 400 1942 
Q 594 2231 975 2384 
z
" transform="scale(0.015625)"/>
       </defs>
       <use xlink:href="#Helvetica-38"/>
      </g>
     </g>
    </g>
    <g id="ytick_5">
     <g id="line2d_12">
      <g>
       <use xlink:href="#m16a62c2d4e" x="57.6" y="79.452943" style="fill: #262626; stroke: #262626"/>
      </g>
     </g>
     <g id="text_13">
      <!-- 10 -->
      <g style="fill: #262626" transform="translate(34.529375 84.474349)scale(0.14 -0.14)">
       <use xlink:href="#Helvetica-31"/>
       <use xlink:href="#Helvetica-30" x="55.615234"/>
      </g>
     </g>
    </g>
    <g id="ytick_6">
     <g id="line2d_13">
      <defs>
       <path id="m1f62dd2590" d="M 0 0 
L -2 0 
" style="stroke: #262626"/>
      </defs>
      <g>
       <use xlink:href="#m1f62dd2590" x="57.6" y="299.474956" style="fill: #262626; stroke: #262626"/>
      </g>
     </g>
    </g>
    <g id="ytick_7">
     <g id="line2d_14">
      <g>
       <use xlink:href="#m1f62dd2590" x="57.6" y="273.590013" style="fill: #262626; stroke: #262626"/>
      </g>
     </g>
    </g>
    <g id="ytick_8">
     <g id="line2d_15">
      <g>
       <use xlink:href="#m1f62dd2590" x="57.6" y="260.647542" style="fill: #262626; stroke: #262626"/>
      </g>
     </g>
    </g>
    <g id="ytick_9">
     <g id="line2d_16">
      <g>
       <use xlink:href="#m1f62dd2590" x="57.6" y="247.70507" style="fill: #262626; stroke: #262626"/>
      </g>
     </g>
    </g>
    <g id="ytick_10">
     <g id="line2d_17">
      <g>
       <use xlink:href="#m1f62dd2590" x="57.6" y="221.820128" style="fill: #262626; stroke: #262626"/>
      </g>
     </g>
    </g>
    <g id="ytick_11">
     <g id="line2d_18">
      <g>
       <use xlink:href="#m1f62dd2590" x="57.6" y="208.877656" style="fill: #262626; stroke: #262626"/>
      </g>
     </g>
    </g>
    <g id="ytick_12">
     <g id="line2d_19">
      <g>
       <use xlink:href="#m1f62dd2590" x="57.6" y="195.935185" style="fill: #262626; stroke: #262626"/>
      </g>
     </g>
    </g>
    <g id="ytick_13">
     <g id="line2d_20">
      <g>
       <use xlink:href="#m1f62dd2590" x="57.6" y="170.050242" style="fill: #262626; stroke: #262626"/>
      </g>
     </g>
    </g>
    <g id="ytick_14">
     <g id="line2d_21">
      <g>
       <use xlink:href="#m1f62dd2590" x="57.6" y="157.107771" style="fill: #262626; stroke: #262626"/>
      </g>
     </g>
    </g>
    <g id="ytick_15">
     <g id="line2d_22">
      <g>
       <use xlink:href="#m1f62dd2590" x="57.6" y="144.1653" style="fill: #262626; stroke: #262626"/>
      </g>
     </g>
    </g>
    <g id="ytick_16">
     <g id="line2d_23">
      <g>
       <use xlink:href="#m1f62dd2590" x="57.6" y="118.280357" style="fill: #262626; stroke: #262626"/>
      </g>
     </g>
    </g>
    <g id="ytick_17">
     <g id="line2d_24">
      <g>
       <use xlink:href="#m1f62dd2590" x="57.6" y="105.337885" style="fill: #262626; stroke: #262626"/>
      </g>
     </g>
    </g>
    <g id="ytick_18">
     <g id="line2d_25">
      <g>
       <use xlink:href="#m1f62dd2590" x="57.6" y="92.395414" style="fill: #262626; stroke: #262626"/>
      </g>
     </g>
    </g>
    <g id="ytick_19">
     <g id="line2d_26">
      <g>
       <use xlink:href="#m1f62dd2590" x="57.6" y="66.510471" style="fill: #262626; stroke: #262626"/>
      </g>
     </g>
    </g>
    <g id="ytick_20">
     <g id="line2d_27">
      <g>
       <use xlink:href="#m1f62dd2590" x="57.6" y="53.568" style="fill: #262626; stroke: #262626"/>
      </g>
     </g>
    </g>
    <g id="text_14">
     <!-- Concentration (nM) -->
     <g style="fill: #262626" transform="translate(26.7775 251.553937)rotate(-90)scale(0.18 -0.18)">
      <defs>
       <path id="Helvetica-43" d="M 2422 4716 
Q 3294 4716 3775 4256 
Q 4256 3797 4309 3213 
L 3703 3213 
Q 3600 3656 3292 3915 
Q 2984 4175 2428 4175 
Q 1750 4175 1333 3698 
Q 916 3222 916 2238 
Q 916 1431 1292 929 
Q 1669 428 2416 428 
Q 3103 428 3463 956 
Q 3653 1234 3747 1688 
L 4353 1688 
Q 4272 963 3816 472 
Q 3269 -119 2341 -119 
Q 1541 -119 997 366 
Q 281 1006 281 2344 
Q 281 3359 819 4009 
Q 1400 4716 2422 4716 
z
M 2297 4716 
L 2297 4716 
z
" transform="scale(0.015625)"/>
       <path id="Helvetica-6e" d="M 413 3347 
L 947 3347 
L 947 2872 
Q 1184 3166 1450 3294 
Q 1716 3422 2041 3422 
Q 2753 3422 3003 2925 
Q 3141 2653 3141 2147 
L 3141 0 
L 2569 0 
L 2569 2109 
Q 2569 2416 2478 2603 
Q 2328 2916 1934 2916 
Q 1734 2916 1606 2875 
Q 1375 2806 1200 2600 
Q 1059 2434 1017 2257 
Q 975 2081 975 1753 
L 975 0 
L 413 0 
L 413 3347 
z
M 1734 3428 
L 1734 3428 
z
" transform="scale(0.015625)"/>
       <path id="Helvetica-63" d="M 1703 3444 
Q 2269 3444 2623 3169 
Q 2978 2894 3050 2222 
L 2503 2222 
Q 2453 2531 2275 2736 
Q 2097 2941 1703 2941 
Q 1166 2941 934 2416 
Q 784 2075 784 1575 
Q 784 1072 996 728 
Q 1209 384 1666 384 
Q 2016 384 2220 598 
Q 2425 813 2503 1184 
L 3050 1184 
Q 2956 519 2581 211 
Q 2206 -97 1622 -97 
Q 966 -97 575 383 
Q 184 863 184 1581 
Q 184 2463 612 2953 
Q 1041 3444 1703 3444 
z
M 1616 3428 
L 1616 3428 
z
" transform="scale(0.015625)"/>
       <path id="Helvetica-74" d="M 525 4281 
L 1094 4281 
L 1094 3347 
L 1628 3347 
L 1628 2888 
L 1094 2888 
L 1094 703 
Q 1094 528 1213 469 
Q 1278 434 1431 434 
Q 1472 434 1519 436 
Q 1566 438 1628 444 
L 1628 0 
Q 1531 -28 1426 -40 
Q 1322 -53 1200 -53 
Q 806 -53 665 148 
Q 525 350 525 672 
L 525 2888 
L 72 2888 
L 72 3347 
L 525 3347 
L 525 4281 
z
" transform="scale(0.015625)"/>
       <path id="Helvetica-61" d="M 844 891 
Q 844 647 1022 506 
Q 1200 366 1444 366 
Q 1741 366 2019 503 
Q 2488 731 2488 1250 
L 2488 1703 
Q 2384 1638 2221 1594 
Q 2059 1550 1903 1531 
L 1563 1488 
Q 1256 1447 1103 1359 
Q 844 1213 844 891 
z
M 2206 2028 
Q 2400 2053 2466 2191 
Q 2503 2266 2503 2406 
Q 2503 2694 2298 2823 
Q 2094 2953 1713 2953 
Q 1272 2953 1088 2716 
Q 984 2584 953 2325 
L 428 2325 
Q 444 2944 830 3186 
Q 1216 3428 1725 3428 
Q 2316 3428 2684 3203 
Q 3050 2978 3050 2503 
L 3050 575 
Q 3050 488 3086 434 
Q 3122 381 3238 381 
Q 3275 381 3322 386 
Q 3369 391 3422 400 
L 3422 -16 
Q 3291 -53 3222 -62 
Q 3153 -72 3034 -72 
Q 2744 -72 2613 134 
Q 2544 244 2516 444 
Q 2344 219 2022 53 
Q 1700 -113 1313 -113 
Q 847 -113 551 170 
Q 256 453 256 878 
Q 256 1344 547 1600 
Q 838 1856 1309 1916 
L 2206 2028 
z
M 1741 3428 
L 1741 3428 
z
" transform="scale(0.015625)"/>
       <path id="Helvetica-4d" d="M 472 4591 
L 1363 4591 
L 2681 709 
L 3991 4591 
L 4872 4591 
L 4872 0 
L 4281 0 
L 4281 2709 
Q 4281 2850 4287 3175 
Q 4294 3500 4294 3872 
L 2984 0 
L 2369 0 
L 1050 3872 
L 1050 3731 
Q 1050 3563 1058 3217 
Q 1066 2872 1066 2709 
L 1066 0 
L 472 0 
L 472 4591 
z
" transform="scale(0.015625)"/>
      </defs>
      <use xlink:href="#Helvetica-43"/>
      <use xlink:href="#Helvetica-6f" x="72.216797"/>
      <use xlink:href="#Helvetica-6e" x="127.832031"/>
      <use xlink:href="#Helvetica-63" x="183.447266"/>
      <use xlink:href="#Helvetica-65" x="233.447266"/>
      <use xlink:href="#Helvetica-6e" x="289.0625"/>
      <use xlink:href="#Helvetica-74" x="344.677734"/>
      <use xlink:href="#Helvetica-72" x="372.460938"/>
      <use xlink:href="#Helvetica-61" x="405.761719"/>
      <use xlink:href="#Helvetica-74" x="461.376953"/>
      <use xlink:href="#Helvetica-69" x="489.160156"/>
      <use xlink:href="#Helvetica-6f" x="511.376953"/>
      <use xlink:href="#Helvetica-6e" x="566.992188"/>
      <use xlink:href="#Helvetica-20" x="622.607422"/>
      <use xlink:href="#Helvetica-28" x="650.390625"/>
      <use xlink:href="#Helvetica-6e" x="683.691406"/>
      <use xlink:href="#Helvetica-4d" x="739.306641"/>
      <use xlink:href="#Helvetica-29" x="822.607422"/>
     </g>
    </g>
   </g>
   <g id="line2d_28">
    <path d="M 73.832727 53.568 
L 74.483338 185.616544 
L 80.989441 222.18737 
L 83.591882 235.45757 
L 85.543713 244.50546 
L 87.495544 252.673256 
L 89.447375 259.914243 
L 91.399206 266.216373 
L 93.351037 271.593109 
L 95.302868 276.074699 
L 96.604088 278.584379 
L 97.905309 280.726209 
L 99.206529 282.512577 
L 100.50775 283.955146 
L 101.808971 285.064398 
L 103.110191 285.849297 
L 104.411412 286.317047 
L 105.712633 286.472948 
L 107.013853 286.320332 
L 108.315074 285.860595 
L 109.616294 285.093309 
L 110.917515 284.016414 
L 112.218736 282.626499 
L 113.519956 280.919163 
L 114.821177 278.889467 
L 116.122398 276.532459 
L 117.423618 273.843797 
L 119.375449 269.182809 
L 121.32728 263.768339 
L 123.279111 257.615891 
L 125.230942 250.763314 
L 127.833383 240.655089 
L 131.086435 226.818022 
L 138.893758 192.586342 
L 140.845589 184.943371 
L 142.79742 178.083884 
L 144.749251 172.187723 
L 146.050472 168.867161 
L 147.351692 166.076953 
L 148.652913 163.844506 
L 149.954134 162.189072 
L 151.255354 161.121617 
L 151.905965 160.809531 
L 152.556575 160.644797 
L 153.207185 160.626478 
L 153.857796 160.753146 
L 154.508406 161.022901 
L 155.159016 161.433364 
L 156.460237 162.664723 
L 157.761457 164.419615 
L 159.062678 166.664195 
L 160.363899 169.359127 
L 161.665119 172.46044 
L 163.61695 177.769297 
L 165.568781 183.713268 
L 168.171222 192.320087 
L 177.279767 223.239337 
L 179.882208 231.028947 
L 181.834039 236.326876 
L 183.78587 241.104282 
L 185.737701 245.32999 
L 187.689532 248.985885 
L 189.641363 252.064041 
L 190.942583 253.794753 
L 192.243804 255.269674 
L 193.545025 256.490827 
L 194.846245 257.460778 
L 196.147466 258.182467 
L 197.448686 258.659068 
L 198.749907 258.893901 
L 200.051128 258.890376 
L 201.352348 258.651975 
L 202.653569 258.182279 
L 203.95479 257.485012 
L 205.25601 256.564129 
L 206.557231 255.423914 
L 207.858451 254.069115 
L 209.810282 251.646471 
L 211.762113 248.774642 
L 213.713944 245.480092 
L 215.665775 241.79549 
L 218.268216 236.345975 
L 220.870658 230.391326 
L 224.77432 220.830087 
L 231.931033 203.160188 
L 234.533474 197.328371 
L 237.135915 192.112955 
L 239.087746 188.704786 
L 241.039577 185.792833 
L 242.340798 184.15038 
L 243.642019 182.759621 
L 244.943239 181.628439 
L 246.24446 180.762054 
L 247.54568 180.16301 
L 248.846901 179.831205 
L 250.148122 179.763964 
L 251.449342 179.956143 
L 252.750563 180.400266 
L 254.051784 181.086693 
L 255.353004 182.003805 
L 256.654225 183.138223 
L 258.606056 185.214304 
L 260.557887 187.689892 
L 262.509718 190.504728 
L 265.112159 194.676352 
L 268.36521 200.350476 
L 278.774975 218.911559 
L 282.028027 224.039966 
L 284.630468 227.72346 
L 287.232909 230.979683 
L 289.18474 233.119783 
L 291.136571 234.989216 
L 293.088402 236.58111 
L 295.040233 237.891524 
L 296.992064 238.919056 
L 298.943895 239.664481 
L 300.895726 240.130467 
L 302.847557 240.321354 
L 304.799388 240.242996 
L 306.751219 239.902666 
L 308.70305 239.309001 
L 310.654881 238.472009 
L 312.606712 237.403086 
L 314.558542 236.115075 
L 317.160984 234.081931 
L 319.763425 231.723265 
L 322.365866 229.082392 
L 325.618918 225.458433 
L 330.17319 219.971926 
L 339.932345 207.98701 
L 343.185396 204.355558 
L 345.787838 201.710472 
L 348.390279 199.349305 
L 350.99272 197.31296 
L 352.944551 196.018702 
L 354.896382 194.935858 
L 356.848213 194.071672 
L 358.800044 193.430307 
L 360.751875 193.012868 
L 362.703706 192.817483 
L 364.655537 192.839443 
L 366.607368 193.071388 
L 368.559198 193.503533 
L 370.511029 194.123938 
L 373.113471 195.219893 
L 375.715912 196.588892 
L 378.318353 198.190419 
L 381.571405 200.454006 
L 385.475067 203.441148 
L 398.487273 213.801372 
L 398.487273 213.801372 
" clip-path="url(#p6e9049cf45)" style="fill: none; stroke: #4477aa; stroke-linecap: round"/>
   </g>
   <g id="line2d_29">
    <path d="M 73.832727 79.452943 
L 74.483338 192.64658 
L 77.736389 174.087929 
L 79.68822 163.978981 
L 81.640051 154.982309 
L 82.941272 149.721742 
L 84.242492 145.121344 
L 85.543713 141.230471 
L 86.844934 138.08839 
L 88.146154 135.724215 
L 88.796764 134.840177 
L 89.447375 134.156966 
L 90.097985 133.675401 
L 90.748595 133.395689 
L 91.399206 133.317423 
L 92.049816 133.439588 
L 92.700426 133.760569 
L 93.351037 134.278146 
L 94.001647 134.989506 
L 95.302868 136.979367 
L 96.604088 139.695934 
L 97.905309 143.095934 
L 99.206529 147.127491 
L 101.15836 154.226274 
L 103.110191 162.379995 
L 105.712633 174.449339 
L 110.266905 197.085042 
L 114.170567 216.000063 
L 116.773008 227.535005 
L 118.724839 235.395337 
L 120.67667 242.483951 
L 122.628501 248.751555 
L 124.580332 254.175049 
L 126.532163 258.751151 
L 127.833383 261.335827 
L 129.134604 263.553579 
L 130.435824 265.410629 
L 131.737045 266.91362 
L 133.038266 268.069182 
L 134.339486 268.883587 
L 135.640707 269.362504 
L 136.941927 269.510844 
L 138.243148 269.332699 
L 139.544369 268.831359 
L 140.845589 268.009419 
L 142.14681 266.868952 
L 143.448031 265.411766 
L 144.749251 263.639713 
L 146.050472 261.555066 
L 147.351692 259.16094 
L 149.303523 254.999613 
L 151.255354 250.175243 
L 153.207185 244.723422 
L 155.159016 238.695731 
L 157.761457 229.887216 
L 161.014509 217.959951 
L 168.821833 188.674172 
L 171.424274 179.974096 
L 173.376105 174.169921 
L 175.327936 169.127221 
L 176.629156 166.242176 
L 177.930377 163.769239 
L 179.231598 161.728944 
L 180.532818 160.136438 
L 181.834039 159.001373 
L 183.13526 158.327881 
L 184.43648 158.114646 
L 185.087091 158.178754 
L 186.388311 158.641872 
L 187.689532 159.539209 
L 188.990752 160.851968 
L 190.291973 162.557078 
L 191.593194 164.627655 
L 192.894414 167.033491 
L 194.846245 171.198068 
L 196.798076 175.922217 
L 199.400517 182.872408 
L 203.304179 194.079848 
L 208.509062 209.024256 
L 211.762113 217.627913 
L 214.364555 223.833336 
L 216.316385 228.015827 
L 218.268216 231.756157 
L 220.220047 235.031255 
L 222.171878 237.826585 
L 224.123709 240.134588 
L 225.42493 241.401333 
L 226.72615 242.451016 
L 228.027371 243.284859 
L 229.328592 243.904684 
L 230.629812 244.312822 
L 231.931033 244.512047 
L 233.232254 244.505531 
L 234.533474 244.296822 
L 235.834695 243.889843 
L 237.135915 243.288903 
L 238.437136 242.498727 
L 240.388967 240.970127 
L 242.340798 239.047246 
L 244.292629 236.752838 
L 246.24446 234.113151 
L 248.196291 231.158363 
L 250.798732 226.788645 
L 254.051784 220.769959 
L 257.955445 213.016956 
L 265.112159 198.663524 
L 268.36521 192.693986 
L 270.967652 188.407643 
L 272.919483 185.551244 
L 274.871314 183.046266 
L 276.823144 180.925278 
L 278.774975 179.213449 
L 280.076196 178.30844 
L 281.377417 177.596335 
L 282.678637 177.078719 
L 283.979858 176.755624 
L 285.281078 176.625549 
L 286.582299 176.685521 
L 287.88352 176.931164 
L 289.18474 177.356772 
L 290.485961 177.955425 
L 292.437792 179.159935 
L 294.389623 180.704093 
L 296.341454 182.552371 
L 298.293285 184.666021 
L 300.895726 187.825975 
L 304.148777 192.183892 
L 309.35366 199.642598 
L 315.209153 207.954268 
L 318.462204 212.229233 
L 321.715256 216.11271 
L 324.317697 218.879323 
L 326.920138 221.307321 
L 329.52258 223.372672 
L 331.474411 224.673721 
L 333.426242 225.757368 
L 335.378072 226.621413 
L 337.329903 227.265455 
L 339.281734 227.690727 
L 341.233565 227.89995 
L 343.185396 227.897218 
L 345.137227 227.6879 
L 347.089058 227.278574 
L 349.040889 226.676966 
L 350.99272 225.891925 
L 353.595161 224.577177 
L 356.197603 222.980559 
L 358.800044 221.131765 
L 362.053095 218.51635 
L 365.956757 215.024835 
L 371.16164 209.989396 
L 380.270184 201.07546 
L 384.173846 197.578642 
L 387.426897 194.947781 
L 390.679949 192.639546 
L 393.28239 191.058842 
L 395.884832 189.735909 
L 398.487273 188.684657 
L 398.487273 188.684657 
" clip-path="url(#p6e9049cf45)" style="fill: none; stroke: #ee6677; stroke-linecap: round"/>
   </g>
   <g id="line2d_30">
    <path d="M 73.832727 260.647542 
L 74.483338 295.488 
L 76.435169 295.188825 
L 77.736389 294.695905 
L 79.03761 293.898947 
L 80.33883 292.79379 
L 81.640051 291.374139 
L 82.941272 289.631906 
L 84.242492 287.5577 
L 85.543713 285.141428 
L 86.844934 282.372985 
L 88.796764 277.540033 
L 90.748595 271.87068 
L 92.700426 265.35741 
L 94.652257 258.016433 
L 96.604088 249.895223 
L 99.206529 238.00606 
L 102.459581 221.907289 
L 108.965684 189.246035 
L 111.568125 177.650155 
L 113.519956 170.055378 
L 114.821177 165.637841 
L 116.122398 161.800668 
L 117.423618 158.589177 
L 118.724839 156.039549 
L 120.026059 154.178338 
L 120.67667 153.511474 
L 121.32728 153.022154 
L 121.97789 152.710875 
L 122.628501 152.57751 
L 123.279111 152.621286 
L 123.929721 152.840808 
L 124.580332 153.234061 
L 125.230942 153.79843 
L 126.532163 155.42706 
L 127.833383 157.694063 
L 129.134604 160.558131 
L 130.435824 163.970085 
L 132.387655 169.991169 
L 134.339486 176.906214 
L 136.941927 187.119894 
L 146.701082 226.98475 
L 149.303523 236.143989 
L 151.255354 242.290347 
L 153.207185 247.760791 
L 155.159016 252.52903 
L 157.110847 256.585901 
L 158.412068 258.89648 
L 159.713288 260.895258 
L 161.014509 262.58644 
L 162.31573 263.97491 
L 163.61695 265.065892 
L 164.918171 265.864674 
L 166.219392 266.376403 
L 167.520612 266.605956 
L 168.821833 266.557864 
L 170.123053 266.236307 
L 171.424274 265.645154 
L 172.725495 264.788064 
L 174.026715 263.668625 
L 175.327936 262.290539 
L 176.629156 260.657841 
L 178.580987 257.741706 
L 180.532818 254.282698 
L 182.484649 250.306665 
L 184.43648 245.847966 
L 187.038921 239.231245 
L 189.641363 231.976555 
L 193.545025 220.300811 
L 200.051128 200.685956 
L 202.653569 193.557788 
L 204.6054 188.725912 
L 206.557231 184.445139 
L 208.509062 180.800823 
L 209.810282 178.759858 
L 211.111503 177.049099 
L 212.412724 175.68087 
L 213.713944 174.663545 
L 215.015165 174.001493 
L 216.316385 173.69508 
L 217.617606 173.740738 
L 218.918827 174.131101 
L 220.220047 174.85519 
L 221.521268 175.898664 
L 222.822489 177.244108 
L 224.123709 178.871371 
L 226.07554 181.790889 
L 228.027371 185.209589 
L 230.629812 190.387378 
L 233.882864 197.541663 
L 243.642019 219.664818 
L 246.24446 224.929645 
L 248.846901 229.698224 
L 250.798732 232.904698 
L 252.750563 235.769515 
L 254.702394 238.277752 
L 256.654225 240.420058 
L 258.606056 242.191715 
L 260.557887 243.591791 
L 262.509718 244.622411 
L 263.810938 245.106421 
L 265.112159 245.430106 
L 266.413379 245.595698 
L 267.7146 245.605754 
L 269.015821 245.463134 
L 270.967652 244.969926 
L 272.919483 244.152286 
L 274.871314 243.023705 
L 276.823144 241.599389 
L 278.774975 239.896436 
L 280.726806 237.934033 
L 283.329248 234.951339 
L 285.931689 231.603409 
L 289.18474 227.005408 
L 293.088402 221.075267 
L 302.196947 207.039495 
L 305.449998 202.50903 
L 308.052439 199.24892 
L 310.654881 196.390245 
L 312.606712 194.545943 
L 314.558542 192.981306 
L 316.510373 191.71181 
L 318.462204 190.748038 
L 320.414035 190.095588 
L 322.365866 189.755083 
L 324.317697 189.722313 
L 326.269528 189.988476 
L 328.221359 190.54052 
L 330.17319 191.36157 
L 332.125021 192.431416 
L 334.076852 193.727054 
L 336.679293 195.761954 
L 339.281734 198.089161 
L 342.534786 201.307373 
L 347.089058 206.156143 
L 354.896382 214.520147 
L 358.800044 218.358541 
L 362.053095 221.247749 
L 364.655537 223.314385 
L 367.257978 225.13881 
L 369.860419 226.704201 
L 372.46286 227.998814 
L 375.065302 229.015478 
L 377.667743 229.751109 
L 380.270184 230.206266 
L 382.872625 230.384774 
L 385.475067 230.293399 
L 388.077508 229.941599 
L 390.679949 229.341312 
L 393.28239 228.506808 
L 395.884832 227.454551 
L 398.487273 226.203086 
L 398.487273 226.203086 
" clip-path="url(#p6e9049cf45)" style="fill: none; stroke: #228833; stroke-linecap: round"/>
   </g>
   <g id="patch_3">
    <path d="M 57.6 307.584 
L 57.6 41.472 
" style="fill: none; stroke: #262626; stroke-width: 0.5; stroke-linejoin: miter; stroke-linecap: square"/>
   </g>
   <g id="patch_4">
    <path d="M 57.6 307.584 
L 414.72 307.584 
" style="fill: none; stroke: #262626; stroke-width: 0.5; stroke-linejoin: miter; stroke-linecap: square"/>
   </g>
   <g id="legend_1">
    <g id="line2d_31">
     <path d="M 335.120625 64.284187 
L 353.120625 64.284187 
L 371.120625 64.284187 
" style="fill: none; stroke: #4477aa; stroke-linecap: round"/>
    </g>
    <g id="text_15">
     <!-- A -->
     <g style="fill: #262626" transform="translate(385.520625 70.584187)scale(0.18 -0.18)">
      <defs>
       <path id="Helvetica-41" d="M 2844 1881 
L 2147 3909 
L 1406 1881 
L 2844 1881 
z
M 1822 4591 
L 2525 4591 
L 4191 0 
L 3509 0 
L 3044 1375 
L 1228 1375 
L 731 0 
L 94 0 
L 1822 4591 
z
" transform="scale(0.015625)"/>
      </defs>
      <use xlink:href="#Helvetica-41"/>
     </g>
    </g>
    <g id="line2d_32">
     <path d="M 335.120625 89.94825 
L 353.120625 89.94825 
L 371.120625 89.94825 
" style="fill: none; stroke: #ee6677; stroke-linecap: round"/>
    </g>
    <g id="text_16">
     <!-- B -->
     <g style="fill: #262626" transform="translate(385.520625 96.24825)scale(0.18 -0.18)">
      <defs>
       <path id="Helvetica-42" d="M 2213 2650 
Q 2606 2650 2825 2759 
Q 3169 2931 3169 3378 
Q 3169 3828 2803 3984 
Q 2597 4072 2191 4072 
L 1081 4072 
L 1081 2650 
L 2213 2650 
z
M 2422 531 
Q 2994 531 3238 863 
Q 3391 1072 3391 1369 
Q 3391 1869 2944 2050 
Q 2706 2147 2316 2147 
L 1081 2147 
L 1081 531 
L 2422 531 
z
M 472 4591 
L 2444 4591 
Q 3250 4591 3591 4109 
Q 3791 3825 3791 3453 
Q 3791 3019 3544 2741 
Q 3416 2594 3175 2472 
Q 3528 2338 3703 2169 
Q 4013 1869 4013 1341 
Q 4013 897 3734 538 
Q 3319 0 2413 0 
L 472 0 
L 472 4591 
z
" transform="scale(0.015625)"/>
      </defs>
      <use xlink:href="#Helvetica-42"/>
     </g>
    </g>
    <g id="line2d_33">
     <path d="M 335.120625 115.612312 
L 353.120625 115.612312 
L 371.120625 115.612312 
" style="fill: none; stroke: #228833; stroke-linecap: round"/>
    </g>
    <g id="text_17">
     <!-- C -->
     <g style="fill: #262626" transform="translate(385.520625 121.912312)scale(0.18 -0.18)">
      <use xlink:href="#Helvetica-43"/>
     </g>
    </g>
   </g>
  </g>
 </g>
 <defs>
  <clipPath id="p6e9049cf45">
   <rect x="57.6" y="41.472" width="357.12" height="266.112"/>
  </clipPath>
 </defs>
</svg>
