<?xml version="1.0" encoding="utf-8" standalone="no"?>
<!DOCTYPE svg PUBLIC "-//W3C//DTD SVG 1.1//EN"
  "http://www.w3.org/Graphics/SVG/1.1/DTD/svg11.dtd">
<svg xmlns:xlink="http://www.w3.org/1999/xlink" width="460.8pt" height="345.6pt" viewBox="0 0 460.8 345.6" xmlns="http://www.w3.org/2000/svg" version="1.1">
 <metadata>
  <rdf:RDF xmlns:dc="http://purl.org/dc/elements/1.1/" xmlns:cc="http://creativecommons.org/ns#" xmlns:rdf="http://www.w3.org/1999/02/22-rdf-syntax-ns#">
   <cc:Work>
    <dc:type rdf:resource="http://purl.org/dc/dcmitype/StillImage"/>
    <dc:date>2024-04-08T14:38:45.048247</dc:date>
    <dc:format>image/svg+xml</dc:format>
    <dc:creator>
     <cc:Agent>
      <dc:title>Matplotlib v3.5.1, https://matplotlib.org/</dc:title>
     </cc:Agent>
    </dc:creator>
   </cc:Work>
  </rdf:RDF>
 </metadata>
 <defs>
  <style type="text/css">*{stroke-linejoin: round; stroke-linecap: butt}</style>
 </defs>
 <g id="figure_1">
  <g id="patch_1">
   <path d="M 0 345.6 
L 460.8 345.6 
L 460.8 0 
L 0 0 
z
" style="fill: #ffffff"/>
  </g>
  <g id="axes_1">
   <g id="patch_2">
    <path d="M 57.6 307.584 
L 414.72 307.584 
L 414.72 41.472 
L 57.6 41.472 
z
" style="fill: #ffffff"/>
   </g>
   <g id="matplotlib.axis_1">
    <g id="xtick_1">
     <g id="line2d_1">
      <defs>
       <path id="ma086d51a7b" d="M 0 0 
L 0 4 
" style="stroke: #262626"/>
      </defs>
      <g>
       <use xlink:href="#ma086d51a7b" x="73.832727" y="307.584" style="fill: #262626; stroke: #262626"/>
      </g>
     </g>
     <g id="text_1">
      <!-- 0 -->
      <g style="fill: #262626" transform="translate(69.940071 325.126812)scale(0.14 -0.14)">
       <defs>
        <path id="Helvetica-30" d="M 1731 4475 
Q 2600 4475 2988 3759 
Q 3288 3206 3288 2244 
Q 3288 1331 3016 734 
Q 2622 -122 1728 -122 
Q 922 -122 528 578 
Q 200 1163 200 2147 
Q 200 2909 397 3456 
Q 766 4475 1731 4475 
z
M 1725 391 
Q 2163 391 2422 778 
Q 2681 1166 2681 2222 
Q 2681 2984 2493 3476 
Q 2306 3969 1766 3969 
Q 1269 3969 1039 3501 
Q 809 3034 809 2125 
Q 809 1441 956 1025 
Q 1181 391 1725 391 
z
" transform="scale(0.015625)"/>
       </defs>
       <use xlink:href="#Helvetica-30"/>
      </g>
     </g>
    </g>
    <g id="xtick_2">
     <g id="line2d_2">
      <g>
       <use xlink:href="#ma086d51a7b" x="114.414545" y="307.584" style="fill: #262626; stroke: #262626"/>
      </g>
     </g>
     <g id="text_2">
      <!-- 25 -->
      <g style="fill: #262626" transform="translate(106.629233 325.126812)scale(0.14 -0.14)">
       <defs>
        <path id="Helvetica-32" d="M 200 0 
Q 231 578 439 1006 
Q 647 1434 1250 1784 
L 1850 2131 
Q 2253 2366 2416 2531 
Q 2672 2791 2672 3125 
Q 2672 3516 2437 3745 
Q 2203 3975 1813 3975 
Q 1234 3975 1013 3538 
Q 894 3303 881 2888 
L 309 2888 
Q 319 3472 525 3841 
Q 891 4491 1816 4491 
Q 2584 4491 2939 4075 
Q 3294 3659 3294 3150 
Q 3294 2613 2916 2231 
Q 2697 2009 2131 1694 
L 1703 1456 
Q 1397 1288 1222 1134 
Q 909 863 828 531 
L 3272 531 
L 3272 0 
L 200 0 
z
" transform="scale(0.015625)"/>
        <path id="Helvetica-35" d="M 791 1141 
Q 847 659 1238 475 
Q 1438 381 1700 381 
Q 2200 381 2440 700 
Q 2681 1019 2681 1406 
Q 2681 1875 2395 2131 
Q 2109 2388 1709 2388 
Q 1419 2388 1211 2275 
Q 1003 2163 856 1963 
L 369 1991 
L 709 4400 
L 3034 4400 
L 3034 3856 
L 1131 3856 
L 941 2613 
Q 1097 2731 1238 2791 
Q 1488 2894 1816 2894 
Q 2431 2894 2859 2497 
Q 3288 2100 3288 1491 
Q 3288 856 2895 371 
Q 2503 -113 1644 -113 
Q 1097 -113 676 195 
Q 256 503 206 1141 
L 791 1141 
z
" transform="scale(0.015625)"/>
       </defs>
       <use xlink:href="#Helvetica-32"/>
       <use xlink:href="#Helvetica-35" x="55.615234"/>
      </g>
     </g>
    </g>
    <g id="xtick_3">
     <g id="line2d_3">
      <g>
       <use xlink:href="#ma086d51a7b" x="154.996364" y="307.584" style="fill: #262626; stroke: #262626"/>
      </g>
     </g>
     <g id="text_3">
      <!-- 50 -->
      <g style="fill: #262626" transform="translate(147.211051 325.126812)scale(0.14 -0.14)">
       <use xlink:href="#Helvetica-35"/>
       <use xlink:href="#Helvetica-30" x="55.615234"/>
      </g>
     </g>
    </g>
    <g id="xtick_4">
     <g id="line2d_4">
      <g>
       <use xlink:href="#ma086d51a7b" x="195.578182" y="307.584" style="fill: #262626; stroke: #262626"/>
      </g>
     </g>
     <g id="text_4">
      <!-- 75 -->
      <g style="fill: #262626" transform="translate(187.792869 325.126812)scale(0.14 -0.14)">
       <defs>
        <path id="Helvetica-37" d="M 3347 4400 
L 3347 3909 
Q 3131 3700 2773 3181 
Q 2416 2663 2141 2063 
Q 1869 1478 1728 997 
Q 1638 688 1494 0 
L 872 0 
Q 1084 1281 1809 2550 
Q 2238 3294 2709 3834 
L 234 3834 
L 234 4400 
L 3347 4400 
z
" transform="scale(0.015625)"/>
       </defs>
       <use xlink:href="#Helvetica-37"/>
       <use xlink:href="#Helvetica-35" x="55.615234"/>
      </g>
     </g>
    </g>
    <g id="xtick_5">
     <g id="line2d_5">
      <g>
       <use xlink:href="#ma086d51a7b" x="236.16" y="307.584" style="fill: #262626; stroke: #262626"/>
      </g>
     </g>
     <g id="text_5">
      <!-- 100 -->
      <g style="fill: #262626" transform="translate(224.482031 325.126812)scale(0.14 -0.14)">
       <defs>
        <path id="Helvetica-31" d="M 613 3169 
L 613 3600 
Q 1222 3659 1462 3798 
Q 1703 3938 1822 4456 
L 2266 4456 
L 2266 0 
L 1666 0 
L 1666 3169 
L 613 3169 
z
" transform="scale(0.015625)"/>
       </defs>
       <use xlink:href="#Helvetica-31"/>
       <use xlink:href="#Helvetica-30" x="55.615234"/>
       <use xlink:href="#Helvetica-30" x="111.230469"/>
      </g>
     </g>
    </g>
    <g id="xtick_6">
     <g id="line2d_6">
      <g>
       <use xlink:href="#ma086d51a7b" x="276.741818" y="307.584" style="fill: #262626; stroke: #262626"/>
      </g>
     </g>
     <g id="text_6">
      <!-- 125 -->
      <g style="fill: #262626" transform="translate(265.063849 325.126812)scale(0.14 -0.14)">
       <use xlink:href="#Helvetica-31"/>
       <use xlink:href="#Helvetica-32" x="55.615234"/>
       <use xlink:href="#Helvetica-35" x="111.230469"/>
      </g>
     </g>
    </g>
    <g id="xtick_7">
     <g id="line2d_7">
      <g>
       <use xlink:href="#ma086d51a7b" x="317.323636" y="307.584" style="fill: #262626; stroke: #262626"/>
      </g>
     </g>
     <g id="text_7">
      <!-- 150 -->
      <g style="fill: #262626" transform="translate(305.645668 325.126812)scale(0.14 -0.14)">
       <use xlink:href="#Helvetica-31"/>
       <use xlink:href="#Helvetica-35" x="55.615234"/>
       <use xlink:href="#Helvetica-30" x="111.230469"/>
      </g>
     </g>
    </g>
    <g id="xtick_8">
     <g id="line2d_8">
      <g>
       <use xlink:href="#ma086d51a7b" x="357.905455" y="307.584" style="fill: #262626; stroke: #262626"/>
      </g>
     </g>
     <g id="text_8">
      <!-- 175 -->
      <g style="fill: #262626" transform="translate(346.227486 325.126812)scale(0.14 -0.14)">
       <use xlink:href="#Helvetica-31"/>
       <use xlink:href="#Helvetica-37" x="55.615234"/>
       <use xlink:href="#Helvetica-35" x="111.230469"/>
      </g>
     </g>
    </g>
    <g id="xtick_9">
     <g id="line2d_9">
      <g>
       <use xlink:href="#ma086d51a7b" x="398.487273" y="307.584" style="fill: #262626; stroke: #262626"/>
      </g>
     </g>
     <g id="text_9">
      <!-- 200 -->
      <g style="fill: #262626" transform="translate(386.809304 325.126812)scale(0.14 -0.14)">
       <use xlink:href="#Helvetica-32"/>
       <use xlink:href="#Helvetica-30" x="55.615234"/>
       <use xlink:href="#Helvetica-30" x="111.230469"/>
      </g>
     </g>
    </g>
    <g id="text_10">
     <!-- Time (hours) -->
     <g style="fill: #262626" transform="translate(185.156719 345.089312)scale(0.18 -0.18)">
      <defs>
       <path id="Helvetica-54" d="M 3828 4591 
L 3828 4044 
L 2281 4044 
L 2281 0 
L 1650 0 
L 1650 4044 
L 103 4044 
L 103 4591 
L 3828 4591 
z
" transform="scale(0.015625)"/>
       <path id="Helvetica-69" d="M 413 3331 
L 984 3331 
L 984 0 
L 413 0 
L 413 3331 
z
M 413 4591 
L 984 4591 
L 984 3953 
L 413 3953 
L 413 4591 
z
" transform="scale(0.015625)"/>
       <path id="Helvetica-6d" d="M 413 3347 
L 969 3347 
L 969 2872 
Q 1169 3119 1331 3231 
Q 1609 3422 1963 3422 
Q 2363 3422 2606 3225 
Q 2744 3113 2856 2894 
Q 3044 3163 3297 3292 
Q 3550 3422 3866 3422 
Q 4541 3422 4784 2934 
Q 4916 2672 4916 2228 
L 4916 0 
L 4331 0 
L 4331 2325 
Q 4331 2659 4164 2784 
Q 3997 2909 3756 2909 
Q 3425 2909 3186 2687 
Q 2947 2466 2947 1947 
L 2947 0 
L 2375 0 
L 2375 2184 
Q 2375 2525 2294 2681 
Q 2166 2916 1816 2916 
Q 1497 2916 1236 2669 
Q 975 2422 975 1775 
L 975 0 
L 413 0 
L 413 3347 
z
" transform="scale(0.015625)"/>
       <path id="Helvetica-65" d="M 1806 3422 
Q 2163 3422 2497 3255 
Q 2831 3088 3006 2822 
Q 3175 2569 3231 2231 
Q 3281 2000 3281 1494 
L 828 1494 
Q 844 984 1069 676 
Q 1294 369 1766 369 
Q 2206 369 2469 659 
Q 2619 828 2681 1050 
L 3234 1050 
Q 3213 866 3089 639 
Q 2966 413 2813 269 
Q 2556 19 2178 -69 
Q 1975 -119 1719 -119 
Q 1094 -119 659 336 
Q 225 791 225 1609 
Q 225 2416 662 2919 
Q 1100 3422 1806 3422 
z
M 2703 1941 
Q 2669 2306 2544 2525 
Q 2313 2931 1772 2931 
Q 1384 2931 1121 2651 
Q 859 2372 844 1941 
L 2703 1941 
z
M 1753 3428 
L 1753 3428 
z
" transform="scale(0.015625)"/>
       <path id="Helvetica-20" transform="scale(0.015625)"/>
       <path id="Helvetica-28" d="M 1894 4666 
Q 1403 3713 1256 3263 
Q 1034 2578 1034 1681 
Q 1034 775 1288 25 
Q 1444 -438 1903 -1306 
L 1525 -1306 
Q 1069 -594 959 -397 
Q 850 -200 722 138 
Q 547 600 478 1125 
Q 444 1397 444 1644 
Q 444 2569 734 3291 
Q 919 3750 1503 4666 
L 1894 4666 
z
" transform="scale(0.015625)"/>
       <path id="Helvetica-68" d="M 413 4606 
L 975 4606 
L 975 2894 
Q 1175 3147 1334 3250 
Q 1606 3428 2013 3428 
Q 2741 3428 3000 2919 
Q 3141 2641 3141 2147 
L 3141 0 
L 2563 0 
L 2563 2109 
Q 2563 2478 2469 2650 
Q 2316 2925 1894 2925 
Q 1544 2925 1259 2684 
Q 975 2444 975 1775 
L 975 0 
L 413 0 
L 413 4606 
z
" transform="scale(0.015625)"/>
       <path id="Helvetica-6f" d="M 1741 363 
Q 2300 363 2508 786 
Q 2716 1209 2716 1728 
Q 2716 2197 2566 2491 
Q 2328 2953 1747 2953 
Q 1231 2953 997 2559 
Q 763 2166 763 1609 
Q 763 1075 997 719 
Q 1231 363 1741 363 
z
M 1763 3444 
Q 2409 3444 2856 3012 
Q 3303 2581 3303 1744 
Q 3303 934 2909 406 
Q 2516 -122 1688 -122 
Q 997 -122 590 345 
Q 184 813 184 1600 
Q 184 2444 612 2944 
Q 1041 3444 1763 3444 
z
M 1744 3428 
L 1744 3428 
z
" transform="scale(0.015625)"/>
       <path id="Helvetica-75" d="M 975 3347 
L 975 1125 
Q 975 869 1056 706 
Q 1206 406 1616 406 
Q 2203 406 2416 931 
Q 2531 1213 2531 1703 
L 2531 3347 
L 3094 3347 
L 3094 0 
L 2563 0 
L 2569 494 
Q 2459 303 2297 172 
Q 1975 -91 1516 -91 
Q 800 -91 541 388 
Q 400 644 400 1072 
L 400 3347 
L 975 3347 
z
M 1747 3428 
L 1747 3428 
z
" transform="scale(0.015625)"/>
       <path id="Helvetica-72" d="M 428 3347 
L 963 3347 
L 963 2769 
Q 1028 2938 1284 3180 
Q 1541 3422 1875 3422 
Q 1891 3422 1928 3419 
Q 1966 3416 2056 3406 
L 2056 2813 
Q 2006 2822 1964 2825 
Q 1922 2828 1872 2828 
Q 1447 2828 1219 2554 
Q 991 2281 991 1925 
L 991 0 
L 428 0 
L 428 3347 
z
" transform="scale(0.015625)"/>
       <path id="Helvetica-73" d="M 747 1050 
Q 772 769 888 619 
Q 1100 347 1625 347 
Q 1938 347 2175 483 
Q 2413 619 2413 903 
Q 2413 1119 2222 1231 
Q 2100 1300 1741 1391 
L 1294 1503 
Q 866 1609 663 1741 
Q 300 1969 300 2372 
Q 300 2847 642 3140 
Q 984 3434 1563 3434 
Q 2319 3434 2653 2991 
Q 2863 2709 2856 2384 
L 2325 2384 
Q 2309 2575 2191 2731 
Q 1997 2953 1519 2953 
Q 1200 2953 1036 2831 
Q 872 2709 872 2509 
Q 872 2291 1088 2159 
Q 1213 2081 1456 2022 
L 1828 1931 
Q 2434 1784 2641 1647 
Q 2969 1431 2969 969 
Q 2969 522 2630 197 
Q 2291 -128 1597 -128 
Q 850 -128 539 211 
Q 228 550 206 1050 
L 747 1050 
z
M 1578 3428 
L 1578 3428 
z
" transform="scale(0.015625)"/>
       <path id="Helvetica-29" d="M 222 -1306 
Q 719 -338 863 106 
Q 1081 778 1081 1681 
Q 1081 2584 828 3334 
Q 672 3797 213 4666 
L 591 4666 
Q 1072 3897 1173 3717 
Q 1275 3538 1394 3222 
Q 1544 2831 1608 2450 
Q 1672 2069 1672 1716 
Q 1672 791 1378 66 
Q 1194 -400 613 -1306 
L 222 -1306 
z
" transform="scale(0.015625)"/>
      </defs>
      <use xlink:href="#Helvetica-54"/>
      <use xlink:href="#Helvetica-69" x="61.083984"/>
      <use xlink:href="#Helvetica-6d" x="83.300781"/>
      <use xlink:href="#Helvetica-65" x="166.601562"/>
      <use xlink:href="#Helvetica-20" x="222.216797"/>
      <use xlink:href="#Helvetica-28" x="250"/>
      <use xlink:href="#Helvetica-68" x="283.300781"/>
      <use xlink:href="#Helvetica-6f" x="338.916016"/>
      <use xlink:href="#Helvetica-75" x="394.53125"/>
      <use xlink:href="#Helvetica-72" x="450.146484"/>
      <use xlink:href="#Helvetica-73" x="483.447266"/>
      <use xlink:href="#Helvetica-29" x="533.447266"/>
     </g>
    </g>
   </g>
   <g id="matplotlib.axis_2">
    <g id="ytick_1">
     <g id="line2d_10">
      <defs>
       <path id="m1115c216c2" d="M 0 0 
L -4 0 
" style="stroke: #262626"/>
      </defs>
      <g>
       <use xlink:href="#m1115c216c2" x="57.6" y="295.488" style="fill: #262626; stroke: #262626"/>
      </g>
     </g>
     <g id="text_11">
      <!-- 0 -->
      <g style="fill: #262626" transform="translate(42.314687 300.509406)scale(0.14 -0.14)">
       <use xlink:href="#Helvetica-30"/>
      </g>
     </g>
    </g>
    <g id="ytick_2">
     <g id="line2d_11">
      <g>
       <use xlink:href="#m1115c216c2" x="57.6" y="251.502545" style="fill: #262626; stroke: #262626"/>
      </g>
     </g>
     <g id="text_12">
      <!-- 2 -->
      <g style="fill: #262626" transform="translate(42.314687 256.523952)scale(0.14 -0.14)">
       <use xlink:href="#Helvetica-32"/>
      </g>
     </g>
    </g>
    <g id="ytick_3">
     <g id="line2d_12">
      <g>
       <use xlink:href="#m1115c216c2" x="57.6" y="207.517091" style="fill: #262626; stroke: #262626"/>
      </g>
     </g>
     <g id="text_13">
      <!-- 4 -->
      <g style="fill: #262626" transform="translate(42.314687 212.538497)scale(0.14 -0.14)">
       <defs>
        <path id="Helvetica-34" d="M 2116 1584 
L 2116 3613 
L 681 1584 
L 2116 1584 
z
M 2125 0 
L 2125 1094 
L 163 1094 
L 163 1644 
L 2213 4488 
L 2688 4488 
L 2688 1584 
L 3347 1584 
L 3347 1094 
L 2688 1094 
L 2688 0 
L 2125 0 
z
" transform="scale(0.015625)"/>
       </defs>
       <use xlink:href="#Helvetica-34"/>
      </g>
     </g>
    </g>
    <g id="ytick_4">
     <g id="line2d_13">
      <g>
       <use xlink:href="#m1115c216c2" x="57.6" y="163.531636" style="fill: #262626; stroke: #262626"/>
      </g>
     </g>
     <g id="text_14">
      <!-- 6 -->
      <g style="fill: #262626" transform="translate(42.314687 168.553043)scale(0.14 -0.14)">
       <defs>
        <path id="Helvetica-36" d="M 1872 4494 
Q 2622 4494 2917 4105 
Q 3213 3716 3213 3303 
L 2656 3303 
Q 2606 3569 2497 3719 
Q 2294 4000 1881 4000 
Q 1409 4000 1131 3564 
Q 853 3128 822 2316 
Q 1016 2600 1309 2741 
Q 1578 2866 1909 2866 
Q 2472 2866 2890 2506 
Q 3309 2147 3309 1434 
Q 3309 825 2912 354 
Q 2516 -116 1781 -116 
Q 1153 -116 697 361 
Q 241 838 241 1966 
Q 241 2800 444 3381 
Q 834 4494 1872 4494 
z
M 1831 384 
Q 2275 384 2495 682 
Q 2716 981 2716 1388 
Q 2716 1731 2519 2042 
Q 2322 2353 1803 2353 
Q 1441 2353 1167 2112 
Q 894 1872 894 1388 
Q 894 963 1142 673 
Q 1391 384 1831 384 
z
" transform="scale(0.015625)"/>
       </defs>
       <use xlink:href="#Helvetica-36"/>
      </g>
     </g>
    </g>
    <g id="ytick_5">
     <g id="line2d_14">
      <g>
       <use xlink:href="#m1115c216c2" x="57.6" y="119.546182" style="fill: #262626; stroke: #262626"/>
      </g>
     </g>
     <g id="text_15">
      <!-- 8 -->
      <g style="fill: #262626" transform="translate(42.314687 124.567588)scale(0.14 -0.14)">
       <defs>
        <path id="Helvetica-38" d="M 1741 2600 
Q 2113 2600 2322 2808 
Q 2531 3016 2531 3303 
Q 2531 3553 2331 3762 
Q 2131 3972 1722 3972 
Q 1316 3972 1134 3762 
Q 953 3553 953 3272 
Q 953 2956 1187 2778 
Q 1422 2600 1741 2600 
z
M 1775 384 
Q 2166 384 2423 595 
Q 2681 806 2681 1225 
Q 2681 1659 2415 1884 
Q 2150 2109 1734 2109 
Q 1331 2109 1076 1879 
Q 822 1650 822 1244 
Q 822 894 1055 639 
Q 1288 384 1775 384 
z
M 975 2384 
Q 741 2484 609 2619 
Q 363 2869 363 3269 
Q 363 3769 725 4128 
Q 1088 4488 1753 4488 
Q 2397 4488 2762 4148 
Q 3128 3809 3128 3356 
Q 3128 2938 2916 2678 
Q 2797 2531 2547 2391 
Q 2825 2263 2984 2097 
Q 3281 1784 3281 1284 
Q 3281 694 2884 283 
Q 2488 -128 1763 -128 
Q 1109 -128 657 226 
Q 206 581 206 1256 
Q 206 1653 400 1942 
Q 594 2231 975 2384 
z
" transform="scale(0.015625)"/>
       </defs>
       <use xlink:href="#Helvetica-38"/>
      </g>
     </g>
    </g>
    <g id="ytick_6">
     <g id="line2d_15">
      <g>
       <use xlink:href="#m1115c216c2" x="57.6" y="75.560727" style="fill: #262626; stroke: #262626"/>
      </g>
     </g>
     <g id="text_16">
      <!-- 10 -->
      <g style="fill: #262626" transform="translate(34.529375 80.582134)scale(0.14 -0.14)">
       <use xlink:href="#Helvetica-31"/>
       <use xlink:href="#Helvetica-30" x="55.615234"/>
      </g>
     </g>
    </g>
    <g id="ytick_7">
     <g id="line2d_16">
      <defs>
       <path id="m5243805181" d="M 0 0 
L -2 0 
" style="stroke: #262626"/>
      </defs>
      <g>
       <use xlink:href="#m5243805181" x="57.6" y="306.484364" style="fill: #262626; stroke: #262626"/>
      </g>
     </g>
    </g>
    <g id="ytick_8">
     <g id="line2d_17">
      <g>
       <use xlink:href="#m5243805181" x="57.6" y="284.491636" style="fill: #262626; stroke: #262626"/>
      </g>
     </g>
    </g>
    <g id="ytick_9">
     <g id="line2d_18">
      <g>
       <use xlink:href="#m5243805181" x="57.6" y="273.495273" style="fill: #262626; stroke: #262626"/>
      </g>
     </g>
    </g>
    <g id="ytick_10">
     <g id="line2d_19">
      <g>
       <use xlink:href="#m5243805181" x="57.6" y="262.498909" style="fill: #262626; stroke: #262626"/>
      </g>
     </g>
    </g>
    <g id="ytick_11">
     <g id="line2d_20">
      <g>
       <use xlink:href="#m5243805181" x="57.6" y="240.506182" style="fill: #262626; stroke: #262626"/>
      </g>
     </g>
    </g>
    <g id="ytick_12">
     <g id="line2d_21">
      <g>
       <use xlink:href="#m5243805181" x="57.6" y="229.509818" style="fill: #262626; stroke: #262626"/>
      </g>
     </g>
    </g>
    <g id="ytick_13">
     <g id="line2d_22">
      <g>
       <use xlink:href="#m5243805181" x="57.6" y="218.513455" style="fill: #262626; stroke: #262626"/>
      </g>
     </g>
    </g>
    <g id="ytick_14">
     <g id="line2d_23">
      <g>
       <use xlink:href="#m5243805181" x="57.6" y="196.520727" style="fill: #262626; stroke: #262626"/>
      </g>
     </g>
    </g>
    <g id="ytick_15">
     <g id="line2d_24">
      <g>
       <use xlink:href="#m5243805181" x="57.6" y="185.524364" style="fill: #262626; stroke: #262626"/>
      </g>
     </g>
    </g>
    <g id="ytick_16">
     <g id="line2d_25">
      <g>
       <use xlink:href="#m5243805181" x="57.6" y="174.528" style="fill: #262626; stroke: #262626"/>
      </g>
     </g>
    </g>
    <g id="ytick_17">
     <g id="line2d_26">
      <g>
       <use xlink:href="#m5243805181" x="57.6" y="152.535273" style="fill: #262626; stroke: #262626"/>
      </g>
     </g>
    </g>
    <g id="ytick_18">
     <g id="line2d_27">
      <g>
       <use xlink:href="#m5243805181" x="57.6" y="141.538909" style="fill: #262626; stroke: #262626"/>
      </g>
     </g>
    </g>
    <g id="ytick_19">
     <g id="line2d_28">
      <g>
       <use xlink:href="#m5243805181" x="57.6" y="130.542545" style="fill: #262626; stroke: #262626"/>
      </g>
     </g>
    </g>
    <g id="ytick_20">
     <g id="line2d_29">
      <g>
       <use xlink:href="#m5243805181" x="57.6" y="108.549818" style="fill: #262626; stroke: #262626"/>
      </g>
     </g>
    </g>
    <g id="ytick_21">
     <g id="line2d_30">
      <g>
       <use xlink:href="#m5243805181" x="57.6" y="97.553455" style="fill: #262626; stroke: #262626"/>
      </g>
     </g>
    </g>
    <g id="ytick_22">
     <g id="line2d_31">
      <g>
       <use xlink:href="#m5243805181" x="57.6" y="86.557091" style="fill: #262626; stroke: #262626"/>
      </g>
     </g>
    </g>
    <g id="ytick_23">
     <g id="line2d_32">
      <g>
       <use xlink:href="#m5243805181" x="57.6" y="64.564364" style="fill: #262626; stroke: #262626"/>
      </g>
     </g>
    </g>
    <g id="ytick_24">
     <g id="line2d_33">
      <g>
       <use xlink:href="#m5243805181" x="57.6" y="53.568" style="fill: #262626; stroke: #262626"/>
      </g>
     </g>
    </g>
    <g id="ytick_25">
     <g id="line2d_34">
      <g>
       <use xlink:href="#m5243805181" x="57.6" y="42.571636" style="fill: #262626; stroke: #262626"/>
      </g>
     </g>
    </g>
    <g id="text_17">
     <!-- Concentration (nM) -->
     <g style="fill: #262626" transform="translate(26.7775 251.553937)rotate(-90)scale(0.18 -0.18)">
      <defs>
       <path id="Helvetica-43" d="M 2422 4716 
Q 3294 4716 3775 4256 
Q 4256 3797 4309 3213 
L 3703 3213 
Q 3600 3656 3292 3915 
Q 2984 4175 2428 4175 
Q 1750 4175 1333 3698 
Q 916 3222 916 2238 
Q 916 1431 1292 929 
Q 1669 428 2416 428 
Q 3103 428 3463 956 
Q 3653 1234 3747 1688 
L 4353 1688 
Q 4272 963 3816 472 
Q 3269 -119 2341 -119 
Q 1541 -119 997 366 
Q 281 1006 281 2344 
Q 281 3359 819 4009 
Q 1400 4716 2422 4716 
z
M 2297 4716 
L 2297 4716 
z
" transform="scale(0.015625)"/>
       <path id="Helvetica-6e" d="M 413 3347 
L 947 3347 
L 947 2872 
Q 1184 3166 1450 3294 
Q 1716 3422 2041 3422 
Q 2753 3422 3003 2925 
Q 3141 2653 3141 2147 
L 3141 0 
L 2569 0 
L 2569 2109 
Q 2569 2416 2478 2603 
Q 2328 2916 1934 2916 
Q 1734 2916 1606 2875 
Q 1375 2806 1200 2600 
Q 1059 2434 1017 2257 
Q 975 2081 975 1753 
L 975 0 
L 413 0 
L 413 3347 
z
M 1734 3428 
L 1734 3428 
z
" transform="scale(0.015625)"/>
       <path id="Helvetica-63" d="M 1703 3444 
Q 2269 3444 2623 3169 
Q 2978 2894 3050 2222 
L 2503 2222 
Q 2453 2531 2275 2736 
Q 2097 2941 1703 2941 
Q 1166 2941 934 2416 
Q 784 2075 784 1575 
Q 784 1072 996 728 
Q 1209 384 1666 384 
Q 2016 384 2220 598 
Q 2425 813 2503 1184 
L 3050 1184 
Q 2956 519 2581 211 
Q 2206 -97 1622 -97 
Q 966 -97 575 383 
Q 184 863 184 1581 
Q 184 2463 612 2953 
Q 1041 3444 1703 3444 
z
M 1616 3428 
L 1616 3428 
z
" transform="scale(0.015625)"/>
       <path id="Helvetica-74" d="M 525 4281 
L 1094 4281 
L 1094 3347 
L 1628 3347 
L 1628 2888 
L 1094 2888 
L 1094 703 
Q 1094 528 1213 469 
Q 1278 434 1431 434 
Q 1472 434 1519 436 
Q 1566 438 1628 444 
L 1628 0 
Q 1531 -28 1426 -40 
Q 1322 -53 1200 -53 
Q 806 -53 665 148 
Q 525 350 525 672 
L 525 2888 
L 72 2888 
L 72 3347 
L 525 3347 
L 525 4281 
z
" transform="scale(0.015625)"/>
       <path id="Helvetica-61" d="M 844 891 
Q 844 647 1022 506 
Q 1200 366 1444 366 
Q 1741 366 2019 503 
Q 2488 731 2488 1250 
L 2488 1703 
Q 2384 1638 2221 1594 
Q 2059 1550 1903 1531 
L 1563 1488 
Q 1256 1447 1103 1359 
Q 844 1213 844 891 
z
M 2206 2028 
Q 2400 2053 2466 2191 
Q 2503 2266 2503 2406 
Q 2503 2694 2298 2823 
Q 2094 2953 1713 2953 
Q 1272 2953 1088 2716 
Q 984 2584 953 2325 
L 428 2325 
Q 444 2944 830 3186 
Q 1216 3428 1725 3428 
Q 2316 3428 2684 3203 
Q 3050 2978 3050 2503 
L 3050 575 
Q 3050 488 3086 434 
Q 3122 381 3238 381 
Q 3275 381 3322 386 
Q 3369 391 3422 400 
L 3422 -16 
Q 3291 -53 3222 -62 
Q 3153 -72 3034 -72 
Q 2744 -72 2613 134 
Q 2544 244 2516 444 
Q 2344 219 2022 53 
Q 1700 -113 1313 -113 
Q 847 -113 551 170 
Q 256 453 256 878 
Q 256 1344 547 1600 
Q 838 1856 1309 1916 
L 2206 2028 
z
M 1741 3428 
L 1741 3428 
z
" transform="scale(0.015625)"/>
       <path id="Helvetica-4d" d="M 472 4591 
L 1363 4591 
L 2681 709 
L 3991 4591 
L 4872 4591 
L 4872 0 
L 4281 0 
L 4281 2709 
Q 4281 2850 4287 3175 
Q 4294 3500 4294 3872 
L 2984 0 
L 2369 0 
L 1050 3872 
L 1050 3731 
Q 1050 3563 1058 3217 
Q 1066 2872 1066 2709 
L 1066 0 
L 472 0 
L 472 4591 
z
" transform="scale(0.015625)"/>
      </defs>
      <use xlink:href="#Helvetica-43"/>
      <use xlink:href="#Helvetica-6f" x="72.216797"/>
      <use xlink:href="#Helvetica-6e" x="127.832031"/>
      <use xlink:href="#Helvetica-63" x="183.447266"/>
      <use xlink:href="#Helvetica-65" x="233.447266"/>
      <use xlink:href="#Helvetica-6e" x="289.0625"/>
      <use xlink:href="#Helvetica-74" x="344.677734"/>
      <use xlink:href="#Helvetica-72" x="372.460938"/>
      <use xlink:href="#Helvetica-61" x="405.761719"/>
      <use xlink:href="#Helvetica-74" x="461.376953"/>
      <use xlink:href="#Helvetica-69" x="489.160156"/>
      <use xlink:href="#Helvetica-6f" x="511.376953"/>
      <use xlink:href="#Helvetica-6e" x="566.992188"/>
      <use xlink:href="#Helvetica-20" x="622.607422"/>
      <use xlink:href="#Helvetica-28" x="650.390625"/>
      <use xlink:href="#Helvetica-6e" x="683.691406"/>
      <use xlink:href="#Helvetica-4d" x="739.306641"/>
      <use xlink:href="#Helvetica-29" x="822.607422"/>
     </g>
    </g>
   </g>
   <g id="line2d_35">
    <path d="M 73.832727 53.568 
L 74.483338 177.61827 
L 75.133948 184.865787 
L 75.784558 187.180825 
L 78.386999 194.06986 
L 84.242492 209.006101 
L 87.495544 216.760483 
L 90.748595 223.892369 
L 93.351037 229.068345 
L 95.953478 233.731631 
L 98.555919 237.861792 
L 100.50775 240.604981 
L 102.459581 243.045086 
L 104.411412 245.185303 
L 106.363243 247.030373 
L 108.315074 248.585902 
L 110.266905 249.857769 
L 112.218736 250.851631 
L 114.170567 251.572511 
L 116.122398 252.02449 
L 118.074228 252.210484 
L 120.026059 252.13211 
L 121.97789 251.789646 
L 123.929721 251.182076 
L 125.881552 250.307231 
L 127.833383 249.162018 
L 129.785214 247.742747 
L 131.737045 246.04556 
L 133.688876 244.066943 
L 135.640707 241.804352 
L 137.592538 239.256903 
L 140.194979 235.42032 
L 142.79742 231.093478 
L 145.399862 226.303091 
L 148.002303 221.092701 
L 151.255354 214.086696 
L 155.809627 203.671816 
L 162.31573 188.730352 
L 165.568781 181.834242 
L 168.171222 176.85114 
L 170.123053 173.513451 
L 172.074884 170.574183 
L 174.026715 168.076158 
L 175.978546 166.054073 
L 177.279767 164.983512 
L 178.580987 164.141384 
L 179.882208 163.531035 
L 181.183429 163.153875 
L 182.484649 163.009381 
L 183.78587 163.095142 
L 185.087091 163.406918 
L 186.388311 163.938723 
L 187.689532 164.68293 
L 188.990752 165.630393 
L 190.942583 167.409318 
L 192.894414 169.581026 
L 194.846245 172.099986 
L 197.448686 175.913403 
L 200.051128 180.134127 
L 203.95479 186.958263 
L 213.713944 204.299906 
L 216.966996 209.551384 
L 219.569437 213.413978 
L 222.171878 216.929737 
L 224.77432 220.068584 
L 227.376761 222.810219 
L 229.328592 224.598101 
L 231.280423 226.152648 
L 233.232254 227.472608 
L 235.184085 228.55797 
L 237.135915 229.40968 
L 239.087746 230.02939 
L 241.039577 230.419282 
L 242.991408 230.581935 
L 244.943239 230.52025 
L 246.89507 230.237424 
L 248.846901 229.736979 
L 250.798732 229.022826 
L 252.750563 228.09938 
L 254.702394 226.971698 
L 257.304835 225.160714 
L 259.907276 223.013984 
L 262.509718 220.552305 
L 265.112159 217.801292 
L 268.36521 214.003679 
L 272.268872 209.020203 
L 277.473755 201.916535 
L 285.281079 191.219686 
L 288.53413 187.103004 
L 291.787182 183.370718 
L 294.389623 180.738933 
L 296.992064 178.477923 
L 298.943895 177.051707 
L 300.895726 175.873045 
L 302.847557 174.953219 
L 304.799388 174.300012 
L 306.751219 173.917615 
L 308.70305 173.806608 
L 310.654881 173.964026 
L 312.606712 174.383487 
L 314.558543 175.05539 
L 316.510373 175.967173 
L 318.462204 177.103627 
L 321.064646 178.937813 
L 323.667087 181.093356 
L 326.269528 183.519154 
L 329.52258 186.849353 
L 334.076852 191.876183 
L 345.137227 204.282516 
L 349.040889 208.263749 
L 352.293941 211.290649 
L 355.546992 214.004857 
L 358.149433 215.92773 
L 360.751875 217.615125 
L 363.354316 219.057125 
L 365.956757 220.246691 
L 368.559198 221.179236 
L 371.16164 221.852258 
L 373.764081 222.265032 
L 376.366522 222.418376 
L 378.968963 222.314494 
L 381.571405 221.956901 
L 384.173846 221.350417 
L 386.776287 220.501233 
L 389.378728 219.417032 
L 391.98117 218.107157 
L 394.583611 216.582807 
L 397.836662 214.396176 
L 398.487273 213.923759 
L 398.487273 213.923759 
" clip-path="url(#p418b34ac2a)" style="fill: none; stroke: #4477aa; stroke-linecap: round"/>
    <defs>
     <path id="mf256ee42e5" d="M 0 2 
C 0.530406 2 1.03916 1.789267 1.414214 1.414214 
C 1.789267 1.03916 2 0.530406 2 0 
C 2 -0.530406 1.789267 -1.03916 1.414214 -1.414214 
C 1.03916 -1.789267 0.530406 -2 0 -2 
C -0.530406 -2 -1.03916 -1.789267 -1.414214 -1.414214 
C -1.789267 -1.03916 -2 -0.530406 -2 0 
C -2 0.530406 -1.789267 1.03916 -1.414214 1.414214 
C -1.03916 1.789267 -0.530406 2 0 2 
z
" style="stroke: #4477aa"/>
    </defs>
    <g clip-path="url(#p418b34ac2a)">
     <use xlink:href="#mf256ee42e5" x="73.832727" y="53.568" style="fill: #4477aa; stroke: #4477aa"/>
     <use xlink:href="#mf256ee42e5" x="99.206529" y="238.809975" style="fill: #4477aa; stroke: #4477aa"/>
     <use xlink:href="#mf256ee42e5" x="124.580332" y="250.920295" style="fill: #4477aa; stroke: #4477aa"/>
     <use xlink:href="#mf256ee42e5" x="149.954134" y="216.946287" style="fill: #4477aa; stroke: #4477aa"/>
     <use xlink:href="#mf256ee42e5" x="175.327936" y="166.673439" style="fill: #4477aa; stroke: #4477aa"/>
     <use xlink:href="#mf256ee42e5" x="200.701738" y="181.238372" style="fill: #4477aa; stroke: #4477aa"/>
     <use xlink:href="#mf256ee42e5" x="226.07554" y="221.48999" style="fill: #4477aa; stroke: #4477aa"/>
     <use xlink:href="#mf256ee42e5" x="251.449342" y="228.73803" style="fill: #4477aa; stroke: #4477aa"/>
     <use xlink:href="#mf256ee42e5" x="276.823144" y="202.820307" style="fill: #4477aa; stroke: #4477aa"/>
     <use xlink:href="#mf256ee42e5" x="302.196947" y="175.230515" style="fill: #4477aa; stroke: #4477aa"/>
     <use xlink:href="#mf256ee42e5" x="327.570749" y="184.816645" style="fill: #4477aa; stroke: #4477aa"/>
     <use xlink:href="#mf256ee42e5" x="352.944551" y="211.859747" style="fill: #4477aa; stroke: #4477aa"/>
     <use xlink:href="#mf256ee42e5" x="378.318353" y="222.364409" style="fill: #4477aa; stroke: #4477aa"/>
    </g>
   </g>
   <g id="line2d_36">
    <path d="M 73.832727 75.560727 
L 74.483338 186.857046 
L 75.133948 190.815831 
L 75.784558 189.754426 
L 77.736389 184.155128 
L 81.640051 172.831307 
L 84.242492 165.858845 
L 86.844934 159.539937 
L 88.796764 155.316579 
L 90.748595 151.595198 
L 92.700426 148.421913 
L 94.001647 146.630104 
L 95.302868 145.108307 
L 96.604088 143.864052 
L 97.905309 142.903089 
L 99.206529 142.22935 
L 100.50775 141.844918 
L 101.808971 141.749996 
L 103.110191 141.942888 
L 104.411412 142.419994 
L 105.712633 143.175803 
L 107.013853 144.202919 
L 108.315074 145.492084 
L 109.616294 147.03224 
L 111.568125 149.784661 
L 113.519956 153.022768 
L 115.471787 156.689468 
L 118.074228 162.135555 
L 121.32728 169.611083 
L 126.532163 182.349436 
L 131.737045 194.951285 
L 134.990097 202.291063 
L 137.592538 207.707327 
L 140.194979 212.641706 
L 142.79742 217.044396 
L 144.749251 219.977322 
L 146.701082 222.58412 
L 148.652913 224.860004 
L 150.604744 226.80305 
L 152.556575 228.413486 
L 154.508406 229.693047 
L 156.460237 230.644441 
L 158.412068 231.270917 
L 160.363899 231.575948 
L 162.31573 231.563035 
L 164.267561 231.235621 
L 166.219392 230.597116 
L 168.171222 229.651029 
L 170.123053 228.401195 
L 172.074884 226.852085 
L 174.026715 225.009192 
L 175.978546 222.879475 
L 177.930377 220.471827 
L 180.532818 216.849278 
L 183.13526 212.788172 
L 185.737701 208.3345 
L 188.990752 202.305232 
L 192.894414 194.583363 
L 202.653569 174.978795 
L 205.906621 169.079198 
L 208.509062 164.832729 
L 210.460893 161.988205 
L 212.412724 159.475915 
L 214.364555 157.327104 
L 216.316386 155.567517 
L 218.268216 154.216897 
L 219.569437 153.550581 
L 220.870658 153.074486 
L 222.171878 152.789684 
L 223.473099 152.695943 
L 224.77432 152.791751 
L 226.07554 153.074351 
L 227.376761 153.539774 
L 228.677981 154.182894 
L 230.629812 155.46687 
L 232.581643 157.111213 
L 234.533474 159.086181 
L 236.485305 161.358219 
L 239.087746 164.786147 
L 241.690188 168.584493 
L 244.943239 173.707262 
L 251.449342 184.503397 
L 256.654225 192.935151 
L 259.907276 197.838062 
L 263.160328 202.333824 
L 265.762769 205.585106 
L 268.36521 208.49734 
L 270.967652 211.049338 
L 273.570093 213.226688 
L 275.521924 214.608382 
L 277.473755 215.772355 
L 279.425586 216.717874 
L 281.377417 217.445237 
L 283.329248 217.955607 
L 285.281079 218.250882 
L 287.232909 218.333606 
L 289.18474 218.206911 
L 291.136571 217.87449 
L 293.088402 217.340604 
L 295.040233 216.610119 
L 296.992064 215.688557 
L 299.594505 214.17351 
L 302.196947 212.347147 
L 304.799388 210.229623 
L 307.401829 207.844494 
L 310.654881 204.52872 
L 313.907932 200.899832 
L 318.462204 195.432233 
L 332.125021 178.606621 
L 335.378073 175.05993 
L 337.980514 172.486514 
L 340.582955 170.193935 
L 343.185396 168.219568 
L 345.137227 166.966743 
L 347.089058 165.921459 
L 349.040889 165.092173 
L 350.99272 164.484927 
L 352.944551 164.103285 
L 354.896382 163.948302 
L 356.848213 164.018537 
L 358.800044 164.310104 
L 360.751875 164.816764 
L 362.703706 165.530051 
L 364.655537 166.439437 
L 367.257978 167.935314 
L 369.860419 169.723695 
L 372.46286 171.766485 
L 375.715912 174.614708 
L 379.619574 178.352674 
L 386.125677 184.97432 
L 392.63178 191.526094 
L 396.535442 195.189019 
L 398.487273 196.904998 
L 398.487273 196.904998 
" clip-path="url(#p418b34ac2a)" style="fill: none; stroke: #ee6677; stroke-linecap: round"/>
    <defs>
     <path id="m01cb13c754" d="M 0 -2 
L -2 2 
L 2 2 
z
" style="stroke: #ee6677; stroke-linejoin: miter"/>
    </defs>
    <g clip-path="url(#p418b34ac2a)">
     <use xlink:href="#m01cb13c754" x="73.832727" y="75.560727" style="fill: #ee6677; stroke: #ee6677; stroke-linejoin: miter"/>
     <use xlink:href="#m01cb13c754" x="112.218736" y="150.812747" style="fill: #ee6677; stroke: #ee6677; stroke-linejoin: miter"/>
     <use xlink:href="#m01cb13c754" x="150.604744" y="226.80305" style="fill: #ee6677; stroke: #ee6677; stroke-linejoin: miter"/>
     <use xlink:href="#m01cb13c754" x="188.990752" y="202.305232" style="fill: #ee6677; stroke: #ee6677; stroke-linejoin: miter"/>
     <use xlink:href="#m01cb13c754" x="227.376761" y="153.539774" style="fill: #ee6677; stroke: #ee6677; stroke-linejoin: miter"/>
     <use xlink:href="#m01cb13c754" x="265.762769" y="205.585106" style="fill: #ee6677; stroke: #ee6677; stroke-linejoin: miter"/>
     <use xlink:href="#m01cb13c754" x="304.148778" y="210.785074" style="fill: #ee6677; stroke: #ee6677; stroke-linejoin: miter"/>
     <use xlink:href="#m01cb13c754" x="342.534786" y="168.681501" style="fill: #ee6677; stroke: #ee6677; stroke-linejoin: miter"/>
     <use xlink:href="#m01cb13c754" x="380.920794" y="179.652312" style="fill: #ee6677; stroke: #ee6677; stroke-linejoin: miter"/>
    </g>
   </g>
   <g id="line2d_37">
    <path d="M 73.832727 229.509818 
L 74.483338 263.430085 
L 75.133948 265.25001 
L 75.784558 265.502097 
L 77.085779 265.483999 
L 79.03761 265.182747 
L 80.989441 264.6499 
L 82.941272 263.886068 
L 84.893103 262.886101 
L 86.844934 261.643184 
L 88.796764 260.149222 
L 90.748595 258.395233 
L 92.700426 256.371838 
L 94.652257 254.069837 
L 96.604088 251.48089 
L 98.555919 248.598284 
L 101.15836 244.291195 
L 103.760802 239.454865 
L 106.363243 234.104114 
L 108.965684 228.272603 
L 112.218736 220.394533 
L 116.122398 210.300628 
L 125.230942 186.378858 
L 127.833383 180.164838 
L 130.435824 174.5366 
L 132.387655 170.794891 
L 134.339486 167.530526 
L 136.291317 164.794656 
L 137.592538 163.285343 
L 138.893758 162.03938 
L 140.194979 161.064264 
L 141.4962 160.365158 
L 142.79742 159.944827 
L 144.098641 159.803608 
L 145.399862 159.939408 
L 146.701082 160.347738 
L 148.002303 161.021771 
L 149.303523 161.952446 
L 150.604744 163.128591 
L 151.905965 164.537079 
L 153.857796 167.052449 
L 155.809627 170.000152 
L 157.761457 173.317568 
L 160.363899 178.200268 
L 163.61695 184.812727 
L 174.026715 206.468076 
L 177.279767 212.524599 
L 179.882208 216.928699 
L 182.484649 220.888371 
L 185.087091 224.372809 
L 187.038921 226.663338 
L 188.990752 228.673068 
L 190.942583 230.401115 
L 192.894414 231.848529 
L 194.846245 233.01774 
L 196.798076 233.912099 
L 198.749907 234.535513 
L 200.701738 234.892166 
L 202.653569 234.986342 
L 204.6054 234.822326 
L 206.557231 234.404387 
L 208.509062 233.736845 
L 210.460893 232.824187 
L 212.412724 231.671264 
L 214.364555 230.283515 
L 216.316386 228.667247 
L 218.918827 226.169873 
L 221.521268 223.301657 
L 224.123709 220.090548 
L 227.376761 215.648749 
L 230.629812 210.813251 
L 235.184085 203.591282 
L 244.292629 188.983998 
L 247.54568 184.236422 
L 250.148122 180.795203 
L 252.750563 177.754032 
L 254.702394 175.776737 
L 256.654225 174.087202 
L 258.606056 172.705865 
L 260.557887 171.648674 
L 262.509718 170.926746 
L 264.461549 170.54619 
L 265.762769 170.482837 
L 267.06399 170.570785 
L 269.015821 170.981871 
L 270.967652 171.718188 
L 272.919483 172.764616 
L 274.871314 174.101911 
L 276.823144 175.70719 
L 278.774975 177.554504 
L 281.377417 180.344735 
L 284.630468 184.256337 
L 288.53413 189.37839 
L 301.546336 206.87798 
L 304.799388 210.772366 
L 308.052439 214.312158 
L 310.654881 216.85443 
L 313.257322 219.118731 
L 315.859763 221.091838 
L 318.462204 222.765074 
L 321.064646 224.133507 
L 323.667087 225.195214 
L 326.269528 225.950643 
L 328.871969 226.40211 
L 330.8238 226.543478 
L 333.426242 226.472937 
L 336.028683 226.111857 
L 338.631124 225.467304 
L 341.233565 224.547568 
L 343.836007 223.362341 
L 346.438448 221.922962 
L 349.040889 220.242703 
L 352.293941 217.827527 
L 355.546992 215.096389 
L 358.800044 212.092242 
L 362.703706 208.198404 
L 368.559198 201.983132 
L 377.017132 192.963887 
L 380.920794 189.111384 
L 384.173846 186.186227 
L 387.426897 183.59631 
L 390.029339 181.808299 
L 392.63178 180.302586 
L 395.234221 179.10138 
L 397.186052 178.410447 
L 398.487273 178.052598 
L 398.487273 178.052598 
" clip-path="url(#p418b34ac2a)" style="fill: none; stroke: #228833; stroke-linecap: round"/>
    <defs>
     <path id="m065b7c37a9" d="M -2 2 
L 2 2 
L 2 -2 
L -2 -2 
z
" style="stroke: #228833; stroke-linejoin: miter"/>
    </defs>
    <g clip-path="url(#p418b34ac2a)">
     <use xlink:href="#m065b7c37a9" x="73.832727" y="229.509818" style="fill: #228833; stroke: #228833; stroke-linejoin: miter"/>
     <use xlink:href="#m065b7c37a9" x="107.013853" y="232.689527" style="fill: #228833; stroke: #228833; stroke-linejoin: miter"/>
     <use xlink:href="#m065b7c37a9" x="140.194979" y="161.064264" style="fill: #228833; stroke: #228833; stroke-linejoin: miter"/>
     <use xlink:href="#m065b7c37a9" x="173.376105" y="205.193372" style="fill: #228833; stroke: #228833; stroke-linejoin: miter"/>
     <use xlink:href="#m065b7c37a9" x="206.557231" y="234.404387" style="fill: #228833; stroke: #228833; stroke-linejoin: miter"/>
     <use xlink:href="#m065b7c37a9" x="239.738357" y="196.174051" style="fill: #228833; stroke: #228833; stroke-linejoin: miter"/>
     <use xlink:href="#m065b7c37a9" x="272.919483" y="172.764616" style="fill: #228833; stroke: #228833; stroke-linejoin: miter"/>
     <use xlink:href="#m065b7c37a9" x="306.100608" y="212.23401" style="fill: #228833; stroke: #228833; stroke-linejoin: miter"/>
     <use xlink:href="#m065b7c37a9" x="339.281734" y="225.262816" style="fill: #228833; stroke: #228833; stroke-linejoin: miter"/>
     <use xlink:href="#m065b7c37a9" x="372.46286" y="197.763116" style="fill: #228833; stroke: #228833; stroke-linejoin: miter"/>
    </g>
   </g>
   <g id="line2d_38">
    <path d="M 73.832727 295.488 
L 74.483338 295.280339 
L 80.989441 295.229103 
L 131.086435 295.018609 
L 177.279767 295.312967 
L 218.918827 295.253305 
L 256.654225 295.249367 
L 327.570749 295.380384 
L 398.487273 295.394607 
L 398.487273 295.394607 
" clip-path="url(#p418b34ac2a)" style="fill: none; stroke-dasharray: 3.7,1.6; stroke-dashoffset: 0; stroke: #4477aa"/>
    <g clip-path="url(#p418b34ac2a)">
     <use xlink:href="#mf256ee42e5" x="73.832727" y="295.488" style="fill: #4477aa; stroke: #4477aa"/>
     <use xlink:href="#mf256ee42e5" x="99.85714" y="295.067369" style="fill: #4477aa; stroke: #4477aa"/>
     <use xlink:href="#mf256ee42e5" x="125.881552" y="294.980302" style="fill: #4477aa; stroke: #4477aa"/>
     <use xlink:href="#mf256ee42e5" x="151.905965" y="295.210065" style="fill: #4477aa; stroke: #4477aa"/>
     <use xlink:href="#mf256ee42e5" x="177.930377" y="295.313759" style="fill: #4477aa; stroke: #4477aa"/>
     <use xlink:href="#mf256ee42e5" x="203.95479" y="295.295428" style="fill: #4477aa; stroke: #4477aa"/>
     <use xlink:href="#mf256ee42e5" x="229.979202" y="295.224571" style="fill: #4477aa; stroke: #4477aa"/>
     <use xlink:href="#mf256ee42e5" x="256.003614" y="295.247188" style="fill: #4477aa; stroke: #4477aa"/>
     <use xlink:href="#mf256ee42e5" x="282.028027" y="295.336288" style="fill: #4477aa; stroke: #4477aa"/>
     <use xlink:href="#mf256ee42e5" x="308.052439" y="295.377622" style="fill: #4477aa; stroke: #4477aa"/>
     <use xlink:href="#mf256ee42e5" x="334.076852" y="295.377981" style="fill: #4477aa; stroke: #4477aa"/>
     <use xlink:href="#mf256ee42e5" x="360.101264" y="295.365803" style="fill: #4477aa; stroke: #4477aa"/>
     <use xlink:href="#mf256ee42e5" x="386.125677" y="295.378821" style="fill: #4477aa; stroke: #4477aa"/>
    </g>
   </g>
   <g id="line2d_39">
    <path d="M 73.832727 295.488 
L 74.483338 295.264626 
L 79.68822 295.27377 
L 110.917515 295.315793 
L 198.749907 295.29861 
L 241.690188 295.341459 
L 322.365866 295.371375 
L 398.487273 295.409763 
L 398.487273 295.409763 
" clip-path="url(#p418b34ac2a)" style="fill: none; stroke-dasharray: 3.7,1.6; stroke-dashoffset: 0; stroke: #ee6677"/>
    <g clip-path="url(#p418b34ac2a)">
     <use xlink:href="#m01cb13c754" x="73.832727" y="295.488" style="fill: #ee6677; stroke: #ee6677; stroke-linejoin: miter"/>
     <use xlink:href="#m01cb13c754" x="112.218736" y="295.313867" style="fill: #ee6677; stroke: #ee6677; stroke-linejoin: miter"/>
     <use xlink:href="#m01cb13c754" x="150.604744" y="295.157987" style="fill: #ee6677; stroke: #ee6677; stroke-linejoin: miter"/>
     <use xlink:href="#m01cb13c754" x="188.990752" y="295.256413" style="fill: #ee6677; stroke: #ee6677; stroke-linejoin: miter"/>
     <use xlink:href="#m01cb13c754" x="227.376761" y="295.347664" style="fill: #ee6677; stroke: #ee6677; stroke-linejoin: miter"/>
     <use xlink:href="#m01cb13c754" x="265.762769" y="295.307736" style="fill: #ee6677; stroke: #ee6677; stroke-linejoin: miter"/>
     <use xlink:href="#m01cb13c754" x="304.148778" y="295.3308" style="fill: #ee6677; stroke: #ee6677; stroke-linejoin: miter"/>
     <use xlink:href="#m01cb13c754" x="342.534786" y="295.400611" style="fill: #ee6677; stroke: #ee6677; stroke-linejoin: miter"/>
     <use xlink:href="#m01cb13c754" x="380.920794" y="295.412808" style="fill: #ee6677; stroke: #ee6677; stroke-linejoin: miter"/>
    </g>
   </g>
   <g id="line2d_40">
    <path d="M 73.832727 295.488 
L 74.483338 294.837971 
L 75.784558 294.722392 
L 82.941272 294.751327 
L 146.050472 295.309294 
L 184.43648 295.191828 
L 212.412724 295.179916 
L 283.329248 295.353506 
L 378.318353 295.403491 
L 398.487273 295.421199 
L 398.487273 295.421199 
" clip-path="url(#p418b34ac2a)" style="fill: none; stroke-dasharray: 3.7,1.6; stroke-dashoffset: 0; stroke: #228833"/>
    <g clip-path="url(#p418b34ac2a)">
     <use xlink:href="#m065b7c37a9" x="73.832727" y="295.488" style="fill: #228833; stroke: #228833; stroke-linejoin: miter"/>
     <use xlink:href="#m065b7c37a9" x="101.15836" y="295.027997" style="fill: #228833; stroke: #228833; stroke-linejoin: miter"/>
     <use xlink:href="#m065b7c37a9" x="128.483993" y="295.279593" style="fill: #228833; stroke: #228833; stroke-linejoin: miter"/>
     <use xlink:href="#m065b7c37a9" x="155.809627" y="295.299646" style="fill: #228833; stroke: #228833; stroke-linejoin: miter"/>
     <use xlink:href="#m065b7c37a9" x="183.13526" y="295.197518" style="fill: #228833; stroke: #228833; stroke-linejoin: miter"/>
     <use xlink:href="#m065b7c37a9" x="210.460893" y="295.172715" style="fill: #228833; stroke: #228833; stroke-linejoin: miter"/>
     <use xlink:href="#m065b7c37a9" x="237.786526" y="295.29591" style="fill: #228833; stroke: #228833; stroke-linejoin: miter"/>
     <use xlink:href="#m065b7c37a9" x="265.112159" y="295.353772" style="fill: #228833; stroke: #228833; stroke-linejoin: miter"/>
     <use xlink:href="#m065b7c37a9" x="292.437792" y="295.345814" style="fill: #228833; stroke: #228833; stroke-linejoin: miter"/>
     <use xlink:href="#m065b7c37a9" x="319.763425" y="295.320712" style="fill: #228833; stroke: #228833; stroke-linejoin: miter"/>
     <use xlink:href="#m065b7c37a9" x="347.089058" y="295.348428" style="fill: #228833; stroke: #228833; stroke-linejoin: miter"/>
     <use xlink:href="#m065b7c37a9" x="374.414691" y="295.398262" style="fill: #228833; stroke: #228833; stroke-linejoin: miter"/>
    </g>
   </g>
   <g id="patch_3">
    <path d="M 57.6 307.584 
L 57.6 41.472 
" style="fill: none; stroke: #262626; stroke-width: 0.5; stroke-linejoin: miter; stroke-linecap: square"/>
   </g>
   <g id="patch_4">
    <path d="M 57.6 307.584 
L 414.72 307.584 
" style="fill: none; stroke: #262626; stroke-width: 0.5; stroke-linejoin: miter; stroke-linecap: square"/>
   </g>
   <g id="legend_1">
    <g id="line2d_41">
     <path d="M 285 134.412187 
L 303 134.412187 
L 321 134.412187 
" style="fill: none; stroke: #4477aa; stroke-linecap: round"/>
     <g>
      <use xlink:href="#mf256ee42e5" x="303" y="134.412187" style="fill: #4477aa; stroke: #4477aa"/>
     </g>
    </g>
    <g id="text_18">
     <!-- A 1X -->
     <g style="fill: #262626" transform="translate(335.4 140.712187)scale(0.18 -0.18)">
      <defs>
       <path id="Helvetica-41" d="M 2844 1881 
L 2147 3909 
L 1406 1881 
L 2844 1881 
z
M 1822 4591 
L 2525 4591 
L 4191 0 
L 3509 0 
L 3044 1375 
L 1228 1375 
L 731 0 
L 94 0 
L 1822 4591 
z
" transform="scale(0.015625)"/>
       <path id="Helvetica-58" d="M 881 0 
L 131 0 
L 1775 2353 
L 234 4591 
L 1013 4591 
L 2184 2834 
L 3347 4591 
L 4088 4591 
L 2547 2353 
L 4163 0 
L 3391 0 
L 2153 1888 
L 881 0 
z
" transform="scale(0.015625)"/>
      </defs>
      <use xlink:href="#Helvetica-41"/>
      <use xlink:href="#Helvetica-20" x="66.699219"/>
      <use xlink:href="#Helvetica-31" x="94.482422"/>
      <use xlink:href="#Helvetica-58" x="150.097656"/>
     </g>
    </g>
    <g id="line2d_42">
     <path d="M 285 160.07625 
L 303 160.07625 
L 321 160.07625 
" style="fill: none; stroke: #ee6677; stroke-linecap: round"/>
     <g>
      <use xlink:href="#m01cb13c754" x="303" y="160.07625" style="fill: #ee6677; stroke: #ee6677; stroke-linejoin: miter"/>
     </g>
    </g>
    <g id="text_19">
     <!-- B 1X -->
     <g style="fill: #262626" transform="translate(335.4 166.37625)scale(0.18 -0.18)">
      <defs>
       <path id="Helvetica-42" d="M 2213 2650 
Q 2606 2650 2825 2759 
Q 3169 2931 3169 3378 
Q 3169 3828 2803 3984 
Q 2597 4072 2191 4072 
L 1081 4072 
L 1081 2650 
L 2213 2650 
z
M 2422 531 
Q 2994 531 3238 863 
Q 3391 1072 3391 1369 
Q 3391 1869 2944 2050 
Q 2706 2147 2316 2147 
L 1081 2147 
L 1081 531 
L 2422 531 
z
M 472 4591 
L 2444 4591 
Q 3250 4591 3591 4109 
Q 3791 3825 3791 3453 
Q 3791 3019 3544 2741 
Q 3416 2594 3175 2472 
Q 3528 2338 3703 2169 
Q 4013 1869 4013 1341 
Q 4013 897 3734 538 
Q 3319 0 2413 0 
L 472 0 
L 472 4591 
z
" transform="scale(0.015625)"/>
      </defs>
      <use xlink:href="#Helvetica-42"/>
      <use xlink:href="#Helvetica-20" x="66.699219"/>
      <use xlink:href="#Helvetica-31" x="94.482422"/>
      <use xlink:href="#Helvetica-58" x="150.097656"/>
     </g>
    </g>
    <g id="line2d_43">
     <path d="M 285 185.740312 
L 303 185.740312 
L 321 185.740312 
" style="fill: none; stroke: #228833; stroke-linecap: round"/>
     <g>
      <use xlink:href="#m065b7c37a9" x="303" y="185.740312" style="fill: #228833; stroke: #228833; stroke-linejoin: miter"/>
     </g>
    </g>
    <g id="text_20">
     <!-- C 1X -->
     <g style="fill: #262626" transform="translate(335.4 192.040312)scale(0.18 -0.18)">
      <use xlink:href="#Helvetica-43"/>
      <use xlink:href="#Helvetica-20" x="72.216797"/>
      <use xlink:href="#Helvetica-31" x="100"/>
      <use xlink:href="#Helvetica-58" x="155.615234"/>
     </g>
    </g>
    <g id="line2d_44">
     <path d="M 285 211.404375 
L 303 211.404375 
L 321 211.404375 
" style="fill: none; stroke-dasharray: 3.7,1.6; stroke-dashoffset: 0; stroke: #4477aa"/>
     <g>
      <use xlink:href="#mf256ee42e5" x="303" y="211.404375" style="fill: #4477aa; stroke: #4477aa"/>
     </g>
    </g>
    <g id="text_21">
     <!-- shA 1X -->
     <g style="fill: #262626" transform="translate(335.4 217.704375)scale(0.18 -0.18)">
      <use xlink:href="#Helvetica-73"/>
      <use xlink:href="#Helvetica-68" x="50"/>
      <use xlink:href="#Helvetica-41" x="105.615234"/>
      <use xlink:href="#Helvetica-20" x="172.314453"/>
      <use xlink:href="#Helvetica-31" x="200.097656"/>
      <use xlink:href="#Helvetica-58" x="255.712891"/>
     </g>
    </g>
    <g id="line2d_45">
     <path d="M 285 237.068437 
L 303 237.068437 
L 321 237.068437 
" style="fill: none; stroke-dasharray: 3.7,1.6; stroke-dashoffset: 0; stroke: #ee6677"/>
     <g>
      <use xlink:href="#m01cb13c754" x="303" y="237.068437" style="fill: #ee6677; stroke: #ee6677; stroke-linejoin: miter"/>
     </g>
    </g>
    <g id="text_22">
     <!-- shB 1X -->
     <g style="fill: #262626" transform="translate(335.4 243.368437)scale(0.18 -0.18)">
      <use xlink:href="#Helvetica-73"/>
      <use xlink:href="#Helvetica-68" x="50"/>
      <use xlink:href="#Helvetica-42" x="105.615234"/>
      <use xlink:href="#Helvetica-20" x="172.314453"/>
      <use xlink:href="#Helvetica-31" x="200.097656"/>
      <use xlink:href="#Helvetica-58" x="255.712891"/>
     </g>
    </g>
    <g id="line2d_46">
     <path d="M 285 262.7325 
L 303 262.7325 
L 321 262.7325 
" style="fill: none; stroke-dasharray: 3.7,1.6; stroke-dashoffset: 0; stroke: #228833"/>
     <g>
      <use xlink:href="#m065b7c37a9" x="303" y="262.7325" style="fill: #228833; stroke: #228833; stroke-linejoin: miter"/>
     </g>
    </g>
    <g id="text_23">
     <!-- shC 1X -->
     <g style="fill: #262626" transform="translate(335.4 269.0325)scale(0.18 -0.18)">
      <use xlink:href="#Helvetica-73"/>
      <use xlink:href="#Helvetica-68" x="50"/>
      <use xlink:href="#Helvetica-43" x="105.615234"/>
      <use xlink:href="#Helvetica-20" x="177.832031"/>
      <use xlink:href="#Helvetica-31" x="205.615234"/>
      <use xlink:href="#Helvetica-58" x="261.230469"/>
     </g>
    </g>
   </g>
  </g>
 </g>
 <defs>
  <clipPath id="p418b34ac2a">
   <rect x="57.6" y="41.472" width="357.12" height="266.112"/>
  </clipPath>
 </defs>
</svg>
