<?xml version="1.0" encoding="utf-8" standalone="no"?>
<!DOCTYPE svg PUBLIC "-//W3C//DTD SVG 1.1//EN"
  "http://www.w3.org/Graphics/SVG/1.1/DTD/svg11.dtd">
<svg xmlns:xlink="http://www.w3.org/1999/xlink" width="460.8pt" height="345.6pt" viewBox="0 0 460.8 345.6" xmlns="http://www.w3.org/2000/svg" version="1.1">
 <metadata>
  <rdf:RDF xmlns:dc="http://purl.org/dc/elements/1.1/" xmlns:cc="http://creativecommons.org/ns#" xmlns:rdf="http://www.w3.org/1999/02/22-rdf-syntax-ns#">
   <cc:Work>
    <dc:type rdf:resource="http://purl.org/dc/dcmitype/StillImage"/>
    <dc:date>2024-04-08T17:30:19.851333</dc:date>
    <dc:format>image/svg+xml</dc:format>
    <dc:creator>
     <cc:Agent>
      <dc:title>Matplotlib v3.5.1, https://matplotlib.org/</dc:title>
     </cc:Agent>
    </dc:creator>
   </cc:Work>
  </rdf:RDF>
 </metadata>
 <defs>
  <style type="text/css">*{stroke-linejoin: round; stroke-linecap: butt}</style>
 </defs>
 <g id="figure_1">
  <g id="patch_1">
   <path d="M 0 345.6 
L 460.8 345.6 
L 460.8 0 
L 0 0 
z
" style="fill: #ffffff"/>
  </g>
  <g id="axes_1">
   <g id="patch_2">
    <path d="M 57.6 307.584 
L 414.72 307.584 
L 414.72 41.472 
L 57.6 41.472 
z
" style="fill: #ffffff"/>
   </g>
   <g id="matplotlib.axis_1">
    <g id="xtick_1">
     <g id="line2d_1">
      <defs>
       <path id="mc0b4a4afdf" d="M 0 0 
L 0 4 
" style="stroke: #262626"/>
      </defs>
      <g>
       <use xlink:href="#mc0b4a4afdf" x="73.832727" y="307.584" style="fill: #262626; stroke: #262626"/>
      </g>
     </g>
     <g id="text_1">
      <!-- 0 -->
      <g style="fill: #262626" transform="translate(69.940071 325.126812)scale(0.14 -0.14)">
       <defs>
        <path id="Helvetica-30" d="M 1731 4475 
Q 2600 4475 2988 3759 
Q 3288 3206 3288 2244 
Q 3288 1331 3016 734 
Q 2622 -122 1728 -122 
Q 922 -122 528 578 
Q 200 1163 200 2147 
Q 200 2909 397 3456 
Q 766 4475 1731 4475 
z
M 1725 391 
Q 2163 391 2422 778 
Q 2681 1166 2681 2222 
Q 2681 2984 2493 3476 
Q 2306 3969 1766 3969 
Q 1269 3969 1039 3501 
Q 809 3034 809 2125 
Q 809 1441 956 1025 
Q 1181 391 1725 391 
z
" transform="scale(0.015625)"/>
       </defs>
       <use xlink:href="#Helvetica-30"/>
      </g>
     </g>
    </g>
    <g id="xtick_2">
     <g id="line2d_2">
      <g>
       <use xlink:href="#mc0b4a4afdf" x="127.941818" y="307.584" style="fill: #262626; stroke: #262626"/>
      </g>
     </g>
     <g id="text_2">
      <!-- 10 -->
      <g style="fill: #262626" transform="translate(120.156506 325.126812)scale(0.14 -0.14)">
       <defs>
        <path id="Helvetica-31" d="M 613 3169 
L 613 3600 
Q 1222 3659 1462 3798 
Q 1703 3938 1822 4456 
L 2266 4456 
L 2266 0 
L 1666 0 
L 1666 3169 
L 613 3169 
z
" transform="scale(0.015625)"/>
       </defs>
       <use xlink:href="#Helvetica-31"/>
       <use xlink:href="#Helvetica-30" x="55.615234"/>
      </g>
     </g>
    </g>
    <g id="xtick_3">
     <g id="line2d_3">
      <g>
       <use xlink:href="#mc0b4a4afdf" x="182.050909" y="307.584" style="fill: #262626; stroke: #262626"/>
      </g>
     </g>
     <g id="text_3">
      <!-- 20 -->
      <g style="fill: #262626" transform="translate(174.265597 325.126812)scale(0.14 -0.14)">
       <defs>
        <path id="Helvetica-32" d="M 200 0 
Q 231 578 439 1006 
Q 647 1434 1250 1784 
L 1850 2131 
Q 2253 2366 2416 2531 
Q 2672 2791 2672 3125 
Q 2672 3516 2437 3745 
Q 2203 3975 1813 3975 
Q 1234 3975 1013 3538 
Q 894 3303 881 2888 
L 309 2888 
Q 319 3472 525 3841 
Q 891 4491 1816 4491 
Q 2584 4491 2939 4075 
Q 3294 3659 3294 3150 
Q 3294 2613 2916 2231 
Q 2697 2009 2131 1694 
L 1703 1456 
Q 1397 1288 1222 1134 
Q 909 863 828 531 
L 3272 531 
L 3272 0 
L 200 0 
z
" transform="scale(0.015625)"/>
       </defs>
       <use xlink:href="#Helvetica-32"/>
       <use xlink:href="#Helvetica-30" x="55.615234"/>
      </g>
     </g>
    </g>
    <g id="xtick_4">
     <g id="line2d_4">
      <g>
       <use xlink:href="#mc0b4a4afdf" x="236.16" y="307.584" style="fill: #262626; stroke: #262626"/>
      </g>
     </g>
     <g id="text_4">
      <!-- 30 -->
      <g style="fill: #262626" transform="translate(228.374688 325.126812)scale(0.14 -0.14)">
       <defs>
        <path id="Helvetica-33" d="M 1663 -122 
Q 869 -122 511 314 
Q 153 750 153 1375 
L 741 1375 
Q 778 941 903 744 
Q 1122 391 1694 391 
Q 2138 391 2406 628 
Q 2675 866 2675 1241 
Q 2675 1703 2392 1887 
Q 2109 2072 1606 2072 
Q 1550 2072 1492 2070 
Q 1434 2069 1375 2066 
L 1375 2563 
Q 1463 2553 1522 2550 
Q 1581 2547 1650 2547 
Q 1966 2547 2169 2647 
Q 2525 2822 2525 3272 
Q 2525 3606 2287 3787 
Q 2050 3969 1734 3969 
Q 1172 3969 956 3594 
Q 838 3388 822 3006 
L 266 3006 
Q 266 3506 466 3856 
Q 809 4481 1675 4481 
Q 2359 4481 2734 4176 
Q 3109 3872 3109 3294 
Q 3109 2881 2888 2625 
Q 2750 2466 2531 2375 
Q 2884 2278 3082 2001 
Q 3281 1725 3281 1325 
Q 3281 684 2859 281 
Q 2438 -122 1663 -122 
z
" transform="scale(0.015625)"/>
       </defs>
       <use xlink:href="#Helvetica-33"/>
       <use xlink:href="#Helvetica-30" x="55.615234"/>
      </g>
     </g>
    </g>
    <g id="xtick_5">
     <g id="line2d_5">
      <g>
       <use xlink:href="#mc0b4a4afdf" x="290.269091" y="307.584" style="fill: #262626; stroke: #262626"/>
      </g>
     </g>
     <g id="text_5">
      <!-- 40 -->
      <g style="fill: #262626" transform="translate(282.483778 325.126812)scale(0.14 -0.14)">
       <defs>
        <path id="Helvetica-34" d="M 2116 1584 
L 2116 3613 
L 681 1584 
L 2116 1584 
z
M 2125 0 
L 2125 1094 
L 163 1094 
L 163 1644 
L 2213 4488 
L 2688 4488 
L 2688 1584 
L 3347 1584 
L 3347 1094 
L 2688 1094 
L 2688 0 
L 2125 0 
z
" transform="scale(0.015625)"/>
       </defs>
       <use xlink:href="#Helvetica-34"/>
       <use xlink:href="#Helvetica-30" x="55.615234"/>
      </g>
     </g>
    </g>
    <g id="xtick_6">
     <g id="line2d_6">
      <g>
       <use xlink:href="#mc0b4a4afdf" x="344.378182" y="307.584" style="fill: #262626; stroke: #262626"/>
      </g>
     </g>
     <g id="text_6">
      <!-- 50 -->
      <g style="fill: #262626" transform="translate(336.592869 325.126812)scale(0.14 -0.14)">
       <defs>
        <path id="Helvetica-35" d="M 791 1141 
Q 847 659 1238 475 
Q 1438 381 1700 381 
Q 2200 381 2440 700 
Q 2681 1019 2681 1406 
Q 2681 1875 2395 2131 
Q 2109 2388 1709 2388 
Q 1419 2388 1211 2275 
Q 1003 2163 856 1963 
L 369 1991 
L 709 4400 
L 3034 4400 
L 3034 3856 
L 1131 3856 
L 941 2613 
Q 1097 2731 1238 2791 
Q 1488 2894 1816 2894 
Q 2431 2894 2859 2497 
Q 3288 2100 3288 1491 
Q 3288 856 2895 371 
Q 2503 -113 1644 -113 
Q 1097 -113 676 195 
Q 256 503 206 1141 
L 791 1141 
z
" transform="scale(0.015625)"/>
       </defs>
       <use xlink:href="#Helvetica-35"/>
       <use xlink:href="#Helvetica-30" x="55.615234"/>
      </g>
     </g>
    </g>
    <g id="xtick_7">
     <g id="line2d_7">
      <g>
       <use xlink:href="#mc0b4a4afdf" x="398.487273" y="307.584" style="fill: #262626; stroke: #262626"/>
      </g>
     </g>
     <g id="text_7">
      <!-- 60 -->
      <g style="fill: #262626" transform="translate(390.70196 325.126812)scale(0.14 -0.14)">
       <defs>
        <path id="Helvetica-36" d="M 1872 4494 
Q 2622 4494 2917 4105 
Q 3213 3716 3213 3303 
L 2656 3303 
Q 2606 3569 2497 3719 
Q 2294 4000 1881 4000 
Q 1409 4000 1131 3564 
Q 853 3128 822 2316 
Q 1016 2600 1309 2741 
Q 1578 2866 1909 2866 
Q 2472 2866 2890 2506 
Q 3309 2147 3309 1434 
Q 3309 825 2912 354 
Q 2516 -116 1781 -116 
Q 1153 -116 697 361 
Q 241 838 241 1966 
Q 241 2800 444 3381 
Q 834 4494 1872 4494 
z
M 1831 384 
Q 2275 384 2495 682 
Q 2716 981 2716 1388 
Q 2716 1731 2519 2042 
Q 2322 2353 1803 2353 
Q 1441 2353 1167 2112 
Q 894 1872 894 1388 
Q 894 963 1142 673 
Q 1391 384 1831 384 
z
" transform="scale(0.015625)"/>
       </defs>
       <use xlink:href="#Helvetica-36"/>
       <use xlink:href="#Helvetica-30" x="55.615234"/>
      </g>
     </g>
    </g>
    <g id="text_8">
     <!-- Time (hours) -->
     <g style="fill: #262626" transform="translate(185.156719 345.089312)scale(0.18 -0.18)">
      <defs>
       <path id="Helvetica-54" d="M 3828 4591 
L 3828 4044 
L 2281 4044 
L 2281 0 
L 1650 0 
L 1650 4044 
L 103 4044 
L 103 4591 
L 3828 4591 
z
" transform="scale(0.015625)"/>
       <path id="Helvetica-69" d="M 413 3331 
L 984 3331 
L 984 0 
L 413 0 
L 413 3331 
z
M 413 4591 
L 984 4591 
L 984 3953 
L 413 3953 
L 413 4591 
z
" transform="scale(0.015625)"/>
       <path id="Helvetica-6d" d="M 413 3347 
L 969 3347 
L 969 2872 
Q 1169 3119 1331 3231 
Q 1609 3422 1963 3422 
Q 2363 3422 2606 3225 
Q 2744 3113 2856 2894 
Q 3044 3163 3297 3292 
Q 3550 3422 3866 3422 
Q 4541 3422 4784 2934 
Q 4916 2672 4916 2228 
L 4916 0 
L 4331 0 
L 4331 2325 
Q 4331 2659 4164 2784 
Q 3997 2909 3756 2909 
Q 3425 2909 3186 2687 
Q 2947 2466 2947 1947 
L 2947 0 
L 2375 0 
L 2375 2184 
Q 2375 2525 2294 2681 
Q 2166 2916 1816 2916 
Q 1497 2916 1236 2669 
Q 975 2422 975 1775 
L 975 0 
L 413 0 
L 413 3347 
z
" transform="scale(0.015625)"/>
       <path id="Helvetica-65" d="M 1806 3422 
Q 2163 3422 2497 3255 
Q 2831 3088 3006 2822 
Q 3175 2569 3231 2231 
Q 3281 2000 3281 1494 
L 828 1494 
Q 844 984 1069 676 
Q 1294 369 1766 369 
Q 2206 369 2469 659 
Q 2619 828 2681 1050 
L 3234 1050 
Q 3213 866 3089 639 
Q 2966 413 2813 269 
Q 2556 19 2178 -69 
Q 1975 -119 1719 -119 
Q 1094 -119 659 336 
Q 225 791 225 1609 
Q 225 2416 662 2919 
Q 1100 3422 1806 3422 
z
M 2703 1941 
Q 2669 2306 2544 2525 
Q 2313 2931 1772 2931 
Q 1384 2931 1121 2651 
Q 859 2372 844 1941 
L 2703 1941 
z
M 1753 3428 
L 1753 3428 
z
" transform="scale(0.015625)"/>
       <path id="Helvetica-20" transform="scale(0.015625)"/>
       <path id="Helvetica-28" d="M 1894 4666 
Q 1403 3713 1256 3263 
Q 1034 2578 1034 1681 
Q 1034 775 1288 25 
Q 1444 -438 1903 -1306 
L 1525 -1306 
Q 1069 -594 959 -397 
Q 850 -200 722 138 
Q 547 600 478 1125 
Q 444 1397 444 1644 
Q 444 2569 734 3291 
Q 919 3750 1503 4666 
L 1894 4666 
z
" transform="scale(0.015625)"/>
       <path id="Helvetica-68" d="M 413 4606 
L 975 4606 
L 975 2894 
Q 1175 3147 1334 3250 
Q 1606 3428 2013 3428 
Q 2741 3428 3000 2919 
Q 3141 2641 3141 2147 
L 3141 0 
L 2563 0 
L 2563 2109 
Q 2563 2478 2469 2650 
Q 2316 2925 1894 2925 
Q 1544 2925 1259 2684 
Q 975 2444 975 1775 
L 975 0 
L 413 0 
L 413 4606 
z
" transform="scale(0.015625)"/>
       <path id="Helvetica-6f" d="M 1741 363 
Q 2300 363 2508 786 
Q 2716 1209 2716 1728 
Q 2716 2197 2566 2491 
Q 2328 2953 1747 2953 
Q 1231 2953 997 2559 
Q 763 2166 763 1609 
Q 763 1075 997 719 
Q 1231 363 1741 363 
z
M 1763 3444 
Q 2409 3444 2856 3012 
Q 3303 2581 3303 1744 
Q 3303 934 2909 406 
Q 2516 -122 1688 -122 
Q 997 -122 590 345 
Q 184 813 184 1600 
Q 184 2444 612 2944 
Q 1041 3444 1763 3444 
z
M 1744 3428 
L 1744 3428 
z
" transform="scale(0.015625)"/>
       <path id="Helvetica-75" d="M 975 3347 
L 975 1125 
Q 975 869 1056 706 
Q 1206 406 1616 406 
Q 2203 406 2416 931 
Q 2531 1213 2531 1703 
L 2531 3347 
L 3094 3347 
L 3094 0 
L 2563 0 
L 2569 494 
Q 2459 303 2297 172 
Q 1975 -91 1516 -91 
Q 800 -91 541 388 
Q 400 644 400 1072 
L 400 3347 
L 975 3347 
z
M 1747 3428 
L 1747 3428 
z
" transform="scale(0.015625)"/>
       <path id="Helvetica-72" d="M 428 3347 
L 963 3347 
L 963 2769 
Q 1028 2938 1284 3180 
Q 1541 3422 1875 3422 
Q 1891 3422 1928 3419 
Q 1966 3416 2056 3406 
L 2056 2813 
Q 2006 2822 1964 2825 
Q 1922 2828 1872 2828 
Q 1447 2828 1219 2554 
Q 991 2281 991 1925 
L 991 0 
L 428 0 
L 428 3347 
z
" transform="scale(0.015625)"/>
       <path id="Helvetica-73" d="M 747 1050 
Q 772 769 888 619 
Q 1100 347 1625 347 
Q 1938 347 2175 483 
Q 2413 619 2413 903 
Q 2413 1119 2222 1231 
Q 2100 1300 1741 1391 
L 1294 1503 
Q 866 1609 663 1741 
Q 300 1969 300 2372 
Q 300 2847 642 3140 
Q 984 3434 1563 3434 
Q 2319 3434 2653 2991 
Q 2863 2709 2856 2384 
L 2325 2384 
Q 2309 2575 2191 2731 
Q 1997 2953 1519 2953 
Q 1200 2953 1036 2831 
Q 872 2709 872 2509 
Q 872 2291 1088 2159 
Q 1213 2081 1456 2022 
L 1828 1931 
Q 2434 1784 2641 1647 
Q 2969 1431 2969 969 
Q 2969 522 2630 197 
Q 2291 -128 1597 -128 
Q 850 -128 539 211 
Q 228 550 206 1050 
L 747 1050 
z
M 1578 3428 
L 1578 3428 
z
" transform="scale(0.015625)"/>
       <path id="Helvetica-29" d="M 222 -1306 
Q 719 -338 863 106 
Q 1081 778 1081 1681 
Q 1081 2584 828 3334 
Q 672 3797 213 4666 
L 591 4666 
Q 1072 3897 1173 3717 
Q 1275 3538 1394 3222 
Q 1544 2831 1608 2450 
Q 1672 2069 1672 1716 
Q 1672 791 1378 66 
Q 1194 -400 613 -1306 
L 222 -1306 
z
" transform="scale(0.015625)"/>
      </defs>
      <use xlink:href="#Helvetica-54"/>
      <use xlink:href="#Helvetica-69" x="61.083984"/>
      <use xlink:href="#Helvetica-6d" x="83.300781"/>
      <use xlink:href="#Helvetica-65" x="166.601562"/>
      <use xlink:href="#Helvetica-20" x="222.216797"/>
      <use xlink:href="#Helvetica-28" x="250"/>
      <use xlink:href="#Helvetica-68" x="283.300781"/>
      <use xlink:href="#Helvetica-6f" x="338.916016"/>
      <use xlink:href="#Helvetica-75" x="394.53125"/>
      <use xlink:href="#Helvetica-72" x="450.146484"/>
      <use xlink:href="#Helvetica-73" x="483.447266"/>
      <use xlink:href="#Helvetica-29" x="533.447266"/>
     </g>
    </g>
   </g>
   <g id="matplotlib.axis_2">
    <g id="ytick_1">
     <g id="line2d_8">
      <defs>
       <path id="m030be19aa3" d="M 0 0 
L -4 0 
" style="stroke: #262626"/>
      </defs>
      <g>
       <use xlink:href="#m030be19aa3" x="57.6" y="295.488" style="fill: #262626; stroke: #262626"/>
      </g>
     </g>
     <g id="text_9">
      <!-- 0.000 -->
      <g style="fill: #262626" transform="translate(15.069375 300.509406)scale(0.14 -0.14)">
       <defs>
        <path id="Helvetica-2e" d="M 547 681 
L 1200 681 
L 1200 0 
L 547 0 
L 547 681 
z
" transform="scale(0.015625)"/>
       </defs>
       <use xlink:href="#Helvetica-30"/>
       <use xlink:href="#Helvetica-2e" x="55.615234"/>
       <use xlink:href="#Helvetica-30" x="83.398438"/>
       <use xlink:href="#Helvetica-30" x="139.013672"/>
       <use xlink:href="#Helvetica-30" x="194.628906"/>
      </g>
     </g>
    </g>
    <g id="ytick_2">
     <g id="line2d_9">
      <g>
       <use xlink:href="#m030be19aa3" x="57.6" y="242.257715" style="fill: #262626; stroke: #262626"/>
      </g>
     </g>
     <g id="text_10">
      <!-- 0.002 -->
      <g style="fill: #262626" transform="translate(15.069375 247.279121)scale(0.14 -0.14)">
       <use xlink:href="#Helvetica-30"/>
       <use xlink:href="#Helvetica-2e" x="55.615234"/>
       <use xlink:href="#Helvetica-30" x="83.398438"/>
       <use xlink:href="#Helvetica-30" x="139.013672"/>
       <use xlink:href="#Helvetica-32" x="194.628906"/>
      </g>
     </g>
    </g>
    <g id="ytick_3">
     <g id="line2d_10">
      <g>
       <use xlink:href="#m030be19aa3" x="57.6" y="189.02743" style="fill: #262626; stroke: #262626"/>
      </g>
     </g>
     <g id="text_11">
      <!-- 0.004 -->
      <g style="fill: #262626" transform="translate(15.069375 194.048837)scale(0.14 -0.14)">
       <use xlink:href="#Helvetica-30"/>
       <use xlink:href="#Helvetica-2e" x="55.615234"/>
       <use xlink:href="#Helvetica-30" x="83.398438"/>
       <use xlink:href="#Helvetica-30" x="139.013672"/>
       <use xlink:href="#Helvetica-34" x="194.628906"/>
      </g>
     </g>
    </g>
    <g id="ytick_4">
     <g id="line2d_11">
      <g>
       <use xlink:href="#m030be19aa3" x="57.6" y="135.797146" style="fill: #262626; stroke: #262626"/>
      </g>
     </g>
     <g id="text_12">
      <!-- 0.006 -->
      <g style="fill: #262626" transform="translate(15.069375 140.818552)scale(0.14 -0.14)">
       <use xlink:href="#Helvetica-30"/>
       <use xlink:href="#Helvetica-2e" x="55.615234"/>
       <use xlink:href="#Helvetica-30" x="83.398438"/>
       <use xlink:href="#Helvetica-30" x="139.013672"/>
       <use xlink:href="#Helvetica-36" x="194.628906"/>
      </g>
     </g>
    </g>
    <g id="ytick_5">
     <g id="line2d_12">
      <g>
       <use xlink:href="#m030be19aa3" x="57.6" y="82.566861" style="fill: #262626; stroke: #262626"/>
      </g>
     </g>
     <g id="text_13">
      <!-- 0.008 -->
      <g style="fill: #262626" transform="translate(15.069375 87.588267)scale(0.14 -0.14)">
       <defs>
        <path id="Helvetica-38" d="M 1741 2600 
Q 2113 2600 2322 2808 
Q 2531 3016 2531 3303 
Q 2531 3553 2331 3762 
Q 2131 3972 1722 3972 
Q 1316 3972 1134 3762 
Q 953 3553 953 3272 
Q 953 2956 1187 2778 
Q 1422 2600 1741 2600 
z
M 1775 384 
Q 2166 384 2423 595 
Q 2681 806 2681 1225 
Q 2681 1659 2415 1884 
Q 2150 2109 1734 2109 
Q 1331 2109 1076 1879 
Q 822 1650 822 1244 
Q 822 894 1055 639 
Q 1288 384 1775 384 
z
M 975 2384 
Q 741 2484 609 2619 
Q 363 2869 363 3269 
Q 363 3769 725 4128 
Q 1088 4488 1753 4488 
Q 2397 4488 2762 4148 
Q 3128 3809 3128 3356 
Q 3128 2938 2916 2678 
Q 2797 2531 2547 2391 
Q 2825 2263 2984 2097 
Q 3281 1784 3281 1284 
Q 3281 694 2884 283 
Q 2488 -128 1763 -128 
Q 1109 -128 657 226 
Q 206 581 206 1256 
Q 206 1653 400 1942 
Q 594 2231 975 2384 
z
" transform="scale(0.015625)"/>
       </defs>
       <use xlink:href="#Helvetica-30"/>
       <use xlink:href="#Helvetica-2e" x="55.615234"/>
       <use xlink:href="#Helvetica-30" x="83.398438"/>
       <use xlink:href="#Helvetica-30" x="139.013672"/>
       <use xlink:href="#Helvetica-38" x="194.628906"/>
      </g>
     </g>
    </g>
    <g id="ytick_6">
     <g id="line2d_13">
      <defs>
       <path id="m36833e73e5" d="M 0 0 
L -2 0 
" style="stroke: #262626"/>
      </defs>
      <g>
       <use xlink:href="#m36833e73e5" x="57.6" y="282.180429" style="fill: #262626; stroke: #262626"/>
      </g>
     </g>
    </g>
    <g id="ytick_7">
     <g id="line2d_14">
      <g>
       <use xlink:href="#m36833e73e5" x="57.6" y="268.872858" style="fill: #262626; stroke: #262626"/>
      </g>
     </g>
    </g>
    <g id="ytick_8">
     <g id="line2d_15">
      <g>
       <use xlink:href="#m36833e73e5" x="57.6" y="255.565286" style="fill: #262626; stroke: #262626"/>
      </g>
     </g>
    </g>
    <g id="ytick_9">
     <g id="line2d_16">
      <g>
       <use xlink:href="#m36833e73e5" x="57.6" y="228.950144" style="fill: #262626; stroke: #262626"/>
      </g>
     </g>
    </g>
    <g id="ytick_10">
     <g id="line2d_17">
      <g>
       <use xlink:href="#m36833e73e5" x="57.6" y="215.642573" style="fill: #262626; stroke: #262626"/>
      </g>
     </g>
    </g>
    <g id="ytick_11">
     <g id="line2d_18">
      <g>
       <use xlink:href="#m36833e73e5" x="57.6" y="202.335002" style="fill: #262626; stroke: #262626"/>
      </g>
     </g>
    </g>
    <g id="ytick_12">
     <g id="line2d_19">
      <g>
       <use xlink:href="#m36833e73e5" x="57.6" y="175.719859" style="fill: #262626; stroke: #262626"/>
      </g>
     </g>
    </g>
    <g id="ytick_13">
     <g id="line2d_20">
      <g>
       <use xlink:href="#m36833e73e5" x="57.6" y="162.412288" style="fill: #262626; stroke: #262626"/>
      </g>
     </g>
    </g>
    <g id="ytick_14">
     <g id="line2d_21">
      <g>
       <use xlink:href="#m36833e73e5" x="57.6" y="149.104717" style="fill: #262626; stroke: #262626"/>
      </g>
     </g>
    </g>
    <g id="ytick_15">
     <g id="line2d_22">
      <g>
       <use xlink:href="#m36833e73e5" x="57.6" y="122.489575" style="fill: #262626; stroke: #262626"/>
      </g>
     </g>
    </g>
    <g id="ytick_16">
     <g id="line2d_23">
      <g>
       <use xlink:href="#m36833e73e5" x="57.6" y="109.182003" style="fill: #262626; stroke: #262626"/>
      </g>
     </g>
    </g>
    <g id="ytick_17">
     <g id="line2d_24">
      <g>
       <use xlink:href="#m36833e73e5" x="57.6" y="95.874432" style="fill: #262626; stroke: #262626"/>
      </g>
     </g>
    </g>
    <g id="ytick_18">
     <g id="line2d_25">
      <g>
       <use xlink:href="#m36833e73e5" x="57.6" y="69.25929" style="fill: #262626; stroke: #262626"/>
      </g>
     </g>
    </g>
    <g id="ytick_19">
     <g id="line2d_26">
      <g>
       <use xlink:href="#m36833e73e5" x="57.6" y="55.951719" style="fill: #262626; stroke: #262626"/>
      </g>
     </g>
    </g>
    <g id="ytick_20">
     <g id="line2d_27">
      <g>
       <use xlink:href="#m36833e73e5" x="57.6" y="42.644147" style="fill: #262626; stroke: #262626"/>
      </g>
     </g>
    </g>
    <g id="text_14">
     <!-- Concentration (nM) -->
     <g style="fill: #262626" transform="translate(7.3175 251.553937)rotate(-90)scale(0.18 -0.18)">
      <defs>
       <path id="Helvetica-43" d="M 2422 4716 
Q 3294 4716 3775 4256 
Q 4256 3797 4309 3213 
L 3703 3213 
Q 3600 3656 3292 3915 
Q 2984 4175 2428 4175 
Q 1750 4175 1333 3698 
Q 916 3222 916 2238 
Q 916 1431 1292 929 
Q 1669 428 2416 428 
Q 3103 428 3463 956 
Q 3653 1234 3747 1688 
L 4353 1688 
Q 4272 963 3816 472 
Q 3269 -119 2341 -119 
Q 1541 -119 997 366 
Q 281 1006 281 2344 
Q 281 3359 819 4009 
Q 1400 4716 2422 4716 
z
M 2297 4716 
L 2297 4716 
z
" transform="scale(0.015625)"/>
       <path id="Helvetica-6e" d="M 413 3347 
L 947 3347 
L 947 2872 
Q 1184 3166 1450 3294 
Q 1716 3422 2041 3422 
Q 2753 3422 3003 2925 
Q 3141 2653 3141 2147 
L 3141 0 
L 2569 0 
L 2569 2109 
Q 2569 2416 2478 2603 
Q 2328 2916 1934 2916 
Q 1734 2916 1606 2875 
Q 1375 2806 1200 2600 
Q 1059 2434 1017 2257 
Q 975 2081 975 1753 
L 975 0 
L 413 0 
L 413 3347 
z
M 1734 3428 
L 1734 3428 
z
" transform="scale(0.015625)"/>
       <path id="Helvetica-63" d="M 1703 3444 
Q 2269 3444 2623 3169 
Q 2978 2894 3050 2222 
L 2503 2222 
Q 2453 2531 2275 2736 
Q 2097 2941 1703 2941 
Q 1166 2941 934 2416 
Q 784 2075 784 1575 
Q 784 1072 996 728 
Q 1209 384 1666 384 
Q 2016 384 2220 598 
Q 2425 813 2503 1184 
L 3050 1184 
Q 2956 519 2581 211 
Q 2206 -97 1622 -97 
Q 966 -97 575 383 
Q 184 863 184 1581 
Q 184 2463 612 2953 
Q 1041 3444 1703 3444 
z
M 1616 3428 
L 1616 3428 
z
" transform="scale(0.015625)"/>
       <path id="Helvetica-74" d="M 525 4281 
L 1094 4281 
L 1094 3347 
L 1628 3347 
L 1628 2888 
L 1094 2888 
L 1094 703 
Q 1094 528 1213 469 
Q 1278 434 1431 434 
Q 1472 434 1519 436 
Q 1566 438 1628 444 
L 1628 0 
Q 1531 -28 1426 -40 
Q 1322 -53 1200 -53 
Q 806 -53 665 148 
Q 525 350 525 672 
L 525 2888 
L 72 2888 
L 72 3347 
L 525 3347 
L 525 4281 
z
" transform="scale(0.015625)"/>
       <path id="Helvetica-61" d="M 844 891 
Q 844 647 1022 506 
Q 1200 366 1444 366 
Q 1741 366 2019 503 
Q 2488 731 2488 1250 
L 2488 1703 
Q 2384 1638 2221 1594 
Q 2059 1550 1903 1531 
L 1563 1488 
Q 1256 1447 1103 1359 
Q 844 1213 844 891 
z
M 2206 2028 
Q 2400 2053 2466 2191 
Q 2503 2266 2503 2406 
Q 2503 2694 2298 2823 
Q 2094 2953 1713 2953 
Q 1272 2953 1088 2716 
Q 984 2584 953 2325 
L 428 2325 
Q 444 2944 830 3186 
Q 1216 3428 1725 3428 
Q 2316 3428 2684 3203 
Q 3050 2978 3050 2503 
L 3050 575 
Q 3050 488 3086 434 
Q 3122 381 3238 381 
Q 3275 381 3322 386 
Q 3369 391 3422 400 
L 3422 -16 
Q 3291 -53 3222 -62 
Q 3153 -72 3034 -72 
Q 2744 -72 2613 134 
Q 2544 244 2516 444 
Q 2344 219 2022 53 
Q 1700 -113 1313 -113 
Q 847 -113 551 170 
Q 256 453 256 878 
Q 256 1344 547 1600 
Q 838 1856 1309 1916 
L 2206 2028 
z
M 1741 3428 
L 1741 3428 
z
" transform="scale(0.015625)"/>
       <path id="Helvetica-4d" d="M 472 4591 
L 1363 4591 
L 2681 709 
L 3991 4591 
L 4872 4591 
L 4872 0 
L 4281 0 
L 4281 2709 
Q 4281 2850 4287 3175 
Q 4294 3500 4294 3872 
L 2984 0 
L 2369 0 
L 1050 3872 
L 1050 3731 
Q 1050 3563 1058 3217 
Q 1066 2872 1066 2709 
L 1066 0 
L 472 0 
L 472 4591 
z
" transform="scale(0.015625)"/>
      </defs>
      <use xlink:href="#Helvetica-43"/>
      <use xlink:href="#Helvetica-6f" x="72.216797"/>
      <use xlink:href="#Helvetica-6e" x="127.832031"/>
      <use xlink:href="#Helvetica-63" x="183.447266"/>
      <use xlink:href="#Helvetica-65" x="233.447266"/>
      <use xlink:href="#Helvetica-6e" x="289.0625"/>
      <use xlink:href="#Helvetica-74" x="344.677734"/>
      <use xlink:href="#Helvetica-72" x="372.460938"/>
      <use xlink:href="#Helvetica-61" x="405.761719"/>
      <use xlink:href="#Helvetica-74" x="461.376953"/>
      <use xlink:href="#Helvetica-69" x="489.160156"/>
      <use xlink:href="#Helvetica-6f" x="511.376953"/>
      <use xlink:href="#Helvetica-6e" x="566.992188"/>
      <use xlink:href="#Helvetica-20" x="622.607422"/>
      <use xlink:href="#Helvetica-28" x="650.390625"/>
      <use xlink:href="#Helvetica-6e" x="683.691406"/>
      <use xlink:href="#Helvetica-4d" x="739.306641"/>
      <use xlink:href="#Helvetica-29" x="822.607422"/>
     </g>
    </g>
   </g>
   <g id="line2d_28">
    <path d="M 73.832727 295.488 
L 74.483338 218.737537 
L 75.133948 213.52733 
L 77.085779 204.621299 
L 78.386999 197.759388 
L 80.33883 185.850138 
L 82.290661 172.061177 
L 84.242492 156.623852 
L 87.495544 128.613638 
L 90.097985 106.418567 
L 92.049816 91.686951 
L 93.351037 83.498057 
L 94.652257 77.042985 
L 95.302868 74.565288 
L 95.953478 72.631217 
L 96.604088 71.266167 
L 97.254698 70.488736 
L 97.905309 70.310175 
L 98.555919 70.734001 
L 99.206529 71.75582 
L 99.85714 73.363356 
L 100.50775 75.53671 
L 101.15836 78.248812 
L 102.459581 85.149256 
L 103.760802 93.733697 
L 105.712633 108.909346 
L 109.616294 142.59987 
L 112.218736 164.010353 
L 114.170567 178.356028 
L 116.122398 190.909584 
L 118.074228 201.614175 
L 119.375449 207.759372 
L 120.67667 213.161326 
L 121.97789 217.872106 
L 123.279111 221.94733 
L 124.580332 225.442366 
L 125.881552 228.40986 
L 127.182773 230.898186 
L 128.483993 232.950893 
L 129.785214 234.605971 
L 131.086435 235.895983 
L 132.387655 236.84818 
L 133.688876 237.484838 
L 134.990097 237.823622 
L 136.291317 237.878078 
L 137.592538 237.65807 
L 138.893758 237.170334 
L 140.194979 236.418968 
L 141.4962 235.405973 
L 142.79742 234.131807 
L 144.098641 232.595968 
L 145.399862 230.797605 
L 147.351692 227.606898 
L 149.303523 223.827708 
L 151.255354 219.474031 
L 153.207185 214.576753 
L 155.809627 207.29873 
L 159.062678 197.311224 
L 164.918171 178.996543 
L 166.870002 173.579831 
L 168.821833 168.898923 
L 170.123053 166.298744 
L 171.424274 164.184057 
L 172.725495 162.603629 
L 174.026715 161.594311 
L 174.677326 161.311615 
L 175.327936 161.179212 
L 175.978546 161.197672 
L 176.629156 161.366561 
L 177.279767 161.684525 
L 177.930377 162.149246 
L 179.231598 163.505262 
L 180.532818 165.398769 
L 181.834039 167.782046 
L 183.13526 170.59777 
L 185.087091 175.490575 
L 187.689532 182.90227 
L 196.798076 210.074946 
L 199.400517 216.778365 
L 201.352348 221.29373 
L 203.304179 225.34699 
L 205.25601 228.938582 
L 207.207841 232.078564 
L 209.159672 234.786678 
L 211.111503 237.085907 
L 213.063334 239.001324 
L 215.015165 240.557678 
L 216.966996 241.778282 
L 218.918827 242.684243 
L 220.870658 243.294076 
L 222.822489 243.623634 
L 224.77432 243.686248 
L 226.72615 243.493025 
L 228.677981 243.053288 
L 230.629812 242.375098 
L 232.581643 241.465871 
L 234.533474 240.333048 
L 236.485305 238.984829 
L 239.087746 236.869269 
L 241.690188 234.418153 
L 244.292629 231.671842 
L 247.54568 227.907311 
L 253.401173 220.655982 
L 257.304835 215.953943 
L 259.907276 213.113025 
L 261.859107 211.225411 
L 263.810938 209.602066 
L 265.762769 208.288237 
L 267.7146 207.322055 
L 269.015821 206.885804 
L 270.317041 206.623133 
L 271.618262 206.53773 
L 272.919483 206.630891 
L 274.220703 206.901525 
L 275.521924 207.346135 
L 276.823144 207.95899 
L 278.774975 209.176041 
L 280.726806 210.7193 
L 282.678637 212.547001 
L 285.281078 215.344613 
L 288.53413 219.254015 
L 301.546336 235.466407 
L 304.799388 238.92558 
L 307.401829 241.409797 
L 310.00427 243.627696 
L 312.606712 245.575225 
L 315.209153 247.254734 
L 317.811594 248.672923 
L 320.414035 249.839225 
L 323.016477 250.764545 
L 325.618918 251.460415 
L 328.221359 251.938455 
L 330.8238 252.210117 
L 333.426242 252.286651 
L 336.028683 252.179253 
L 339.281734 251.803823 
L 342.534786 251.182719 
L 345.787838 250.342667 
L 349.691499 249.089763 
L 354.245772 247.373645 
L 368.559198 241.721783 
L 371.81225 240.754261 
L 375.065302 240.0335 
L 377.667743 239.666982 
L 380.270184 239.507105 
L 382.872625 239.564955 
L 385.475067 239.844066 
L 388.077508 240.340235 
L 390.679949 241.041874 
L 393.933001 242.179586 
L 397.186052 243.562474 
L 398.487273 244.17198 
L 398.487273 244.17198 
" clip-path="url(#pd520a84b4d)" style="fill: none; stroke: #4477aa; stroke-linecap: round"/>
    <defs>
     <path id="mf2aa8b0326" d="M 0 2 
C 0.530406 2 1.03916 1.789267 1.414214 1.414214 
C 1.789267 1.03916 2 0.530406 2 0 
C 2 -0.530406 1.789267 -1.03916 1.414214 -1.414214 
C 1.03916 -1.789267 0.530406 -2 0 -2 
C -0.530406 -2 -1.03916 -1.789267 -1.414214 -1.414214 
C -1.789267 -1.03916 -2 -0.530406 -2 0 
C -2 0.530406 -1.789267 1.03916 -1.414214 1.414214 
C -1.03916 1.789267 -0.530406 2 0 2 
z
" style="stroke: #4477aa"/>
    </defs>
    <g clip-path="url(#pd520a84b4d)">
     <use xlink:href="#mf2aa8b0326" x="73.832727" y="295.488" style="fill: #4477aa; stroke: #4477aa"/>
     <use xlink:href="#mf2aa8b0326" x="106.363243" y="114.374938" style="fill: #4477aa; stroke: #4477aa"/>
     <use xlink:href="#mf2aa8b0326" x="138.893758" y="237.170334" style="fill: #4477aa; stroke: #4477aa"/>
     <use xlink:href="#mf2aa8b0326" x="171.424274" y="164.184057" style="fill: #4477aa; stroke: #4477aa"/>
     <use xlink:href="#mf2aa8b0326" x="203.95479" y="226.59525" style="fill: #4477aa; stroke: #4477aa"/>
     <use xlink:href="#mf2aa8b0326" x="236.485305" y="238.984829" style="fill: #4477aa; stroke: #4477aa"/>
     <use xlink:href="#mf2aa8b0326" x="269.015821" y="206.885804" style="fill: #4477aa; stroke: #4477aa"/>
     <use xlink:href="#mf2aa8b0326" x="301.546336" y="235.466407" style="fill: #4477aa; stroke: #4477aa"/>
     <use xlink:href="#mf2aa8b0326" x="334.076852" y="252.276605" style="fill: #4477aa; stroke: #4477aa"/>
     <use xlink:href="#mf2aa8b0326" x="366.607368" y="242.397045" style="fill: #4477aa; stroke: #4477aa"/>
    </g>
   </g>
   <g id="line2d_29">
    <path d="M 73.832727 295.488 
L 74.483338 217.704004 
L 75.133948 212.180995 
L 78.386999 196.058216 
L 80.33883 184.104187 
L 82.290661 170.275859 
L 84.242492 154.814312 
L 87.495544 126.82668 
L 90.097985 104.733502 
L 92.049816 90.138394 
L 93.351037 82.07031 
L 94.652257 75.758823 
L 95.302868 73.3608 
L 95.953478 71.511162 
L 96.604088 70.234848 
L 97.254698 69.549953 
L 97.905309 69.467167 
L 98.555919 69.989411 
L 99.206529 71.111666 
L 99.85714 72.82102 
L 100.50775 75.096922 
L 101.15836 77.911664 
L 102.459581 85.015183 
L 103.760802 93.795921 
L 105.712633 109.244775 
L 112.869346 170.005017 
L 114.821177 183.877288 
L 116.773008 195.894104 
L 118.724839 206.059291 
L 120.026059 211.862694 
L 121.32728 216.945031 
L 122.628501 221.362258 
L 123.929721 225.171466 
L 125.230942 228.428001 
L 126.532163 231.183577 
L 127.833383 233.485115 
L 129.134604 235.374191 
L 130.435824 236.886829 
L 131.737045 238.053611 
L 133.038266 238.899942 
L 134.339486 239.446433 
L 135.640707 239.709348 
L 136.941927 239.70109 
L 138.243148 239.430707 
L 139.544369 238.90441 
L 140.845589 238.126105 
L 142.14681 237.097937 
L 143.448031 235.820859 
L 144.749251 234.295223 
L 146.050472 232.521404 
L 148.002303 229.398007 
L 149.954134 225.729084 
L 151.905965 221.537476 
L 153.857796 216.864532 
L 156.460237 210.002596 
L 160.363899 198.87765 
L 164.267561 187.886477 
L 166.219392 182.946471 
L 168.171222 178.672482 
L 169.472443 176.298387 
L 170.773664 174.370206 
L 172.074884 172.934708 
L 173.376105 172.027746 
L 174.026715 171.780208 
L 174.677326 171.672374 
L 175.327936 171.704932 
L 175.978546 171.877663 
L 176.629156 172.189439 
L 177.930377 173.221165 
L 179.231598 174.773773 
L 180.532818 176.808519 
L 181.834039 179.276229 
L 183.78587 183.662925 
L 185.737701 188.680943 
L 188.990752 197.853839 
L 194.195635 212.679177 
L 196.798076 219.458783 
L 199.400517 225.560673 
L 201.352348 229.641557 
L 203.304179 233.285384 
L 205.25601 236.497219 
L 207.207841 239.291996 
L 209.159672 241.690639 
L 211.111503 243.717051 
L 213.063334 245.395895 
L 215.015165 246.751073 
L 216.966996 247.804744 
L 218.918827 248.576802 
L 220.870658 249.084672 
L 222.822489 249.343366 
L 224.77432 249.365721 
L 226.72615 249.162774 
L 228.677981 248.744251 
L 230.629812 248.11912 
L 232.581643 247.296223 
L 235.184085 245.907774 
L 237.786526 244.210564 
L 240.388967 242.237476 
L 243.642019 239.449108 
L 247.54568 235.780055 
L 254.702394 228.99078 
L 257.304835 226.821523 
L 259.907276 224.977545 
L 261.859107 223.86683 
L 263.810938 223.029094 
L 265.762769 222.492451 
L 267.7146 222.276345 
L 269.666431 222.39042 
L 271.618262 222.83397 
L 273.570093 223.596023 
L 275.521924 224.656068 
L 277.473755 225.98534 
L 279.425586 227.548551 
L 282.028027 229.927498 
L 285.281078 233.233168 
L 296.992064 245.548618 
L 300.245116 248.530557 
L 303.498167 251.187581 
L 306.100608 253.061991 
L 308.70305 254.709077 
L 311.305491 256.131177 
L 313.907932 257.334566 
L 316.510373 258.328006 
L 319.112815 259.121624 
L 322.365866 259.849078 
L 325.618918 260.302559 
L 328.871969 260.503437 
L 332.125021 260.473183 
L 335.378072 260.233991 
L 339.281734 259.704904 
L 343.185396 258.955909 
L 348.390279 257.710612 
L 362.053095 254.263486 
L 365.956757 253.582604 
L 369.209809 253.221775 
L 372.46286 253.082675 
L 375.715912 253.184991 
L 378.968963 253.535011 
L 382.222015 254.125186 
L 385.475067 254.935075 
L 389.378728 256.152588 
L 393.933001 257.82522 
L 398.487273 259.656627 
L 398.487273 259.656627 
" clip-path="url(#pd520a84b4d)" style="fill: none; stroke: #ee6677; stroke-linecap: round"/>
    <defs>
     <path id="mf850a45086" d="M 0 -2 
L -2 2 
L 2 2 
z
" style="stroke: #ee6677; stroke-linejoin: miter"/>
    </defs>
    <g clip-path="url(#pd520a84b4d)">
     <use xlink:href="#mf850a45086" x="73.832727" y="295.488" style="fill: #ee6677; stroke: #ee6677; stroke-linejoin: miter"/>
     <use xlink:href="#mf850a45086" x="99.206529" y="71.111666" style="fill: #ee6677; stroke: #ee6677; stroke-linejoin: miter"/>
     <use xlink:href="#mf850a45086" x="124.580332" y="226.865484" style="fill: #ee6677; stroke: #ee6677; stroke-linejoin: miter"/>
     <use xlink:href="#mf850a45086" x="149.954134" y="225.729084" style="fill: #ee6677; stroke: #ee6677; stroke-linejoin: miter"/>
     <use xlink:href="#mf850a45086" x="175.327936" y="171.704932" style="fill: #ee6677; stroke: #ee6677; stroke-linejoin: miter"/>
     <use xlink:href="#mf850a45086" x="200.701738" y="228.329716" style="fill: #ee6677; stroke: #ee6677; stroke-linejoin: miter"/>
     <use xlink:href="#mf850a45086" x="226.07554" y="249.254835" style="fill: #ee6677; stroke: #ee6677; stroke-linejoin: miter"/>
     <use xlink:href="#mf850a45086" x="251.449342" y="231.999883" style="fill: #ee6677; stroke: #ee6677; stroke-linejoin: miter"/>
     <use xlink:href="#mf850a45086" x="276.823144" y="225.5144" style="fill: #ee6677; stroke: #ee6677; stroke-linejoin: miter"/>
     <use xlink:href="#mf850a45086" x="302.196947" y="250.16585" style="fill: #ee6677; stroke: #ee6677; stroke-linejoin: miter"/>
     <use xlink:href="#mf850a45086" x="327.570749" y="260.452031" style="fill: #ee6677; stroke: #ee6677; stroke-linejoin: miter"/>
     <use xlink:href="#mf850a45086" x="352.944551" y="256.501904" style="fill: #ee6677; stroke: #ee6677; stroke-linejoin: miter"/>
     <use xlink:href="#mf850a45086" x="378.318353" y="253.445357" style="fill: #ee6677; stroke: #ee6677; stroke-linejoin: miter"/>
    </g>
   </g>
   <g id="line2d_30">
    <path d="M 73.832727 295.488 
L 74.483338 226.667556 
L 75.133948 222.03995 
L 79.03761 204.607412 
L 80.989441 193.810142 
L 82.941272 181.519366 
L 85.543713 163.374495 
L 90.097985 131.099558 
L 91.399206 123.107456 
L 92.700426 116.257392 
L 94.001647 110.864083 
L 94.652257 108.800748 
L 95.302868 107.198181 
L 95.953478 106.07906 
L 96.604088 105.46025 
L 97.254698 105.352303 
L 97.905309 105.759081 
L 98.555919 106.677583 
L 99.206529 108.097932 
L 99.85714 110.003557 
L 100.50775 112.371584 
L 101.808971 118.375258 
L 103.110191 125.824453 
L 105.062022 138.965506 
L 112.218736 190.691372 
L 114.170567 202.458859 
L 116.122398 212.62509 
L 118.074228 221.198617 
L 119.375449 226.079654 
L 120.67667 230.344122 
L 121.97789 234.041181 
L 123.279111 237.220677 
L 124.580332 239.930675 
L 125.881552 242.215854 
L 127.182773 244.116582 
L 128.483993 245.668466 
L 129.785214 246.902278 
L 131.086435 247.844059 
L 132.387655 248.515363 
L 133.688876 248.93376 
L 134.990097 249.113287 
L 136.291317 249.064745 
L 137.592538 248.796339 
L 138.893758 248.314145 
L 140.194979 247.622635 
L 141.4962 246.725212 
L 142.79742 245.624761 
L 144.749251 243.60001 
L 146.701082 241.138595 
L 148.652913 238.261976 
L 150.604744 235.004565 
L 153.207185 230.162058 
L 157.110847 222.232905 
L 161.014509 214.378317 
L 162.96634 210.8673 
L 164.918171 207.859736 
L 166.219392 206.214123 
L 167.520612 204.905308 
L 168.821833 203.967775 
L 170.123053 203.427218 
L 171.424274 203.2992 
L 172.725495 203.588311 
L 174.026715 204.287921 
L 175.327936 205.380538 
L 176.629156 206.838774 
L 177.930377 208.626789 
L 179.882208 211.833019 
L 181.834039 215.524586 
L 185.087091 222.304332 
L 190.291973 233.284585 
L 192.894414 238.297913 
L 195.496856 242.798111 
L 197.448686 245.798202 
L 199.400517 248.467831 
L 201.352348 250.811203 
L 203.304179 252.839947 
L 205.25601 254.570138 
L 207.207841 256.02003 
L 209.159672 257.20839 
L 211.111503 258.153412 
L 213.063334 258.87204 
L 215.015165 259.379645 
L 216.966996 259.689959 
L 218.918827 259.815199 
L 220.870658 259.76633 
L 223.473099 259.447671 
L 226.07554 258.860173 
L 228.677981 258.027256 
L 231.280423 256.975047 
L 234.533474 255.399058 
L 238.437136 253.226936 
L 248.196291 247.610344 
L 250.798732 246.392651 
L 253.401173 245.42279 
L 255.353004 244.892817 
L 257.304835 244.553591 
L 259.256666 244.418533 
L 261.208497 244.494758 
L 263.160328 244.782732 
L 265.112159 245.276292 
L 267.06399 245.96307 
L 269.666431 247.147989 
L 272.268872 248.590895 
L 275.521924 250.662892 
L 280.726806 254.30433 
L 287.232909 258.820716 
L 291.136571 261.269595 
L 294.389623 263.089283 
L 297.642674 264.684708 
L 300.895726 266.04857 
L 304.148777 267.183206 
L 307.401829 268.097199 
L 310.654881 268.80282 
L 314.558542 269.394637 
L 318.462204 269.733297 
L 322.365866 269.846245 
L 326.920138 269.731166 
L 331.474411 269.397435 
L 337.329903 268.737307 
L 354.245772 266.639597 
L 358.800044 266.369192 
L 363.354316 266.337292 
L 367.257978 266.521056 
L 371.16164 266.901756 
L 375.715912 267.576759 
L 380.920794 268.600364 
L 387.426897 270.131845 
L 398.487273 272.90336 
L 398.487273 272.90336 
" clip-path="url(#pd520a84b4d)" style="fill: none; stroke: #228833; stroke-linecap: round"/>
    <defs>
     <path id="mccfbae8297" d="M -2 2 
L 2 2 
L 2 -2 
L -2 -2 
z
" style="stroke: #228833; stroke-linejoin: miter"/>
    </defs>
    <g clip-path="url(#pd520a84b4d)">
     <use xlink:href="#mccfbae8297" x="73.832727" y="295.488" style="fill: #228833; stroke: #228833; stroke-linejoin: miter"/>
     <use xlink:href="#mccfbae8297" x="116.122398" y="212.62509" style="fill: #228833; stroke: #228833; stroke-linejoin: miter"/>
     <use xlink:href="#mccfbae8297" x="158.412068" y="219.54878" style="fill: #228833; stroke: #228833; stroke-linejoin: miter"/>
     <use xlink:href="#mccfbae8297" x="200.701738" y="250.06573" style="fill: #228833; stroke: #228833; stroke-linejoin: miter"/>
     <use xlink:href="#mccfbae8297" x="242.991408" y="250.520486" style="fill: #228833; stroke: #228833; stroke-linejoin: miter"/>
     <use xlink:href="#mccfbae8297" x="285.281078" y="257.507366" style="fill: #228833; stroke: #228833; stroke-linejoin: miter"/>
     <use xlink:href="#mccfbae8297" x="327.570749" y="269.695658" style="fill: #228833; stroke: #228833; stroke-linejoin: miter"/>
     <use xlink:href="#mccfbae8297" x="369.860419" y="266.753496" style="fill: #228833; stroke: #228833; stroke-linejoin: miter"/>
    </g>
   </g>
   <g id="line2d_31">
    <path d="M 73.832727 295.488 
L 74.483338 211.420055 
L 75.133948 205.817748 
L 79.03761 184.314829 
L 80.989441 170.958662 
L 82.941272 155.675579 
L 85.543713 132.908842 
L 90.748595 85.930674 
L 92.049816 75.846219 
L 93.351037 67.225479 
L 94.652257 60.454643 
L 95.302868 57.869198 
L 95.953478 55.863968 
L 96.604088 54.466405 
L 97.254698 53.696868 
L 97.905309 53.568 
L 98.555919 54.084301 
L 99.206529 55.241919 
L 99.85714 57.028641 
L 100.50775 59.424113 
L 101.15836 62.400294 
L 102.459581 69.948281 
L 103.760802 79.323686 
L 105.712633 95.898917 
L 108.965684 126.608588 
L 111.568125 150.623219 
L 113.519956 166.994635 
L 115.471787 181.489335 
L 117.423618 193.973024 
L 119.375449 204.491059 
L 120.67667 210.482851 
L 121.97789 215.725187 
L 123.279111 220.280135 
L 124.580332 224.2097 
L 125.881552 227.573132 
L 127.182773 230.425248 
L 128.483993 232.815454 
L 129.785214 234.787318 
L 131.086435 236.378504 
L 132.387655 237.620961 
L 133.688876 238.541262 
L 134.990097 239.160926 
L 136.291317 239.497446 
L 137.592538 239.563811 
L 138.893758 239.369974 
L 140.194979 238.922942 
L 141.4962 238.227396 
L 142.79742 237.286251 
L 144.098641 236.10122 
L 145.399862 234.673395 
L 146.701082 233.003873 
L 148.652913 230.050574 
L 150.604744 226.569962 
L 152.556575 222.586552 
L 154.508406 218.142775 
L 157.110847 211.619401 
L 161.014509 201.067642 
L 164.918171 190.70734 
L 166.870002 186.092749 
L 168.821833 182.142946 
L 170.123053 179.981048 
L 171.424274 178.259629 
L 172.725495 177.023549 
L 173.376105 176.598629 
L 174.026715 176.306828 
L 174.677326 176.150401 
L 175.327936 176.130749 
L 175.978546 176.248356 
L 176.629156 176.502826 
L 177.279767 176.89286 
L 178.580987 178.070057 
L 179.882208 179.752552 
L 181.183429 181.900801 
L 182.484649 184.465102 
L 184.43648 188.964555 
L 186.388311 194.057347 
L 189.641363 203.276552 
L 194.195635 216.250306 
L 196.798076 223.091487 
L 199.400517 229.269863 
L 201.352348 233.413323 
L 203.304179 237.122278 
L 205.25601 240.401263 
L 207.207841 243.265479 
L 209.159672 245.736695 
L 211.111503 247.840086 
L 213.063334 249.60178 
L 215.015165 251.047257 
L 216.966996 252.200297 
L 218.918827 253.082396 
L 220.870658 253.712544 
L 222.822489 254.107267 
L 224.77432 254.280855 
L 226.72615 254.245739 
L 228.677981 254.012966 
L 230.629812 253.592749 
L 233.232254 252.758195 
L 235.834695 251.633359 
L 238.437136 250.247508 
L 241.690188 248.203982 
L 245.59385 245.419207 
L 254.051784 239.186838 
L 256.654225 237.558745 
L 259.256666 236.225921 
L 261.208497 235.469905 
L 263.160328 234.955233 
L 265.112159 234.703883 
L 267.06399 234.729642 
L 269.015821 235.037248 
L 270.967652 235.622108 
L 272.919483 236.470609 
L 274.871314 237.561019 
L 277.473755 239.341235 
L 280.076196 241.419887 
L 283.329248 244.303309 
L 295.040233 254.975585 
L 298.293285 257.537385 
L 301.546336 259.810477 
L 304.799388 261.777012 
L 308.052439 263.436039 
L 311.305491 264.797498 
L 314.558542 265.877822 
L 317.811594 266.696678 
L 321.064646 267.274936 
L 324.317697 267.633693 
L 327.570749 267.794058 
L 331.474411 267.754845 
L 335.378072 267.499869 
L 339.932345 266.987318 
L 346.438448 266.004867 
L 356.197603 264.53079 
L 360.751875 264.084343 
L 364.655537 263.918889 
L 368.559198 263.99363 
L 372.46286 264.325459 
L 376.366522 264.909303 
L 380.270184 265.719389 
L 384.824456 266.893434 
L 391.330559 268.836844 
L 398.487273 271.066197 
L 398.487273 271.066197 
" clip-path="url(#pd520a84b4d)" style="fill: none; stroke: #ccbb44; stroke-linecap: round"/>
    <defs>
     <path id="m982a232739" d="M -0.666667 2 
L 0.666667 2 
L 0.666667 0.666667 
L 2 0.666667 
L 2 -0.666667 
L 0.666667 -0.666667 
L 0.666667 -2 
L -0.666667 -2 
L -0.666667 -0.666667 
L -2 -0.666667 
L -2 0.666667 
L -0.666667 0.666667 
z
" style="stroke: #ccbb44; stroke-linejoin: miter"/>
    </defs>
    <g clip-path="url(#pd520a84b4d)">
     <use xlink:href="#m982a232739" x="73.832727" y="295.488" style="fill: #ccbb44; stroke: #ccbb44; stroke-linejoin: miter"/>
     <use xlink:href="#m982a232739" x="113.519956" y="166.994635" style="fill: #ccbb44; stroke: #ccbb44; stroke-linejoin: miter"/>
     <use xlink:href="#m982a232739" x="153.207185" y="221.153725" style="fill: #ccbb44; stroke: #ccbb44; stroke-linejoin: miter"/>
     <use xlink:href="#m982a232739" x="192.894414" y="212.632524" style="fill: #ccbb44; stroke: #ccbb44; stroke-linejoin: miter"/>
     <use xlink:href="#m982a232739" x="232.581643" y="252.995078" style="fill: #ccbb44; stroke: #ccbb44; stroke-linejoin: miter"/>
     <use xlink:href="#m982a232739" x="272.268872" y="236.159669" style="fill: #ccbb44; stroke: #ccbb44; stroke-linejoin: miter"/>
     <use xlink:href="#m982a232739" x="311.956101" y="265.035455" style="fill: #ccbb44; stroke: #ccbb44; stroke-linejoin: miter"/>
     <use xlink:href="#m982a232739" x="351.64333" y="265.168976" style="fill: #ccbb44; stroke: #ccbb44; stroke-linejoin: miter"/>
     <use xlink:href="#m982a232739" x="391.330559" y="268.836844" style="fill: #ccbb44; stroke: #ccbb44; stroke-linejoin: miter"/>
    </g>
   </g>
   <g id="patch_3">
    <path d="M 57.6 307.584 
L 57.6 41.472 
" style="fill: none; stroke: #262626; stroke-width: 0.5; stroke-linejoin: miter; stroke-linecap: square"/>
   </g>
   <g id="patch_4">
    <path d="M 57.6 307.584 
L 414.72 307.584 
" style="fill: none; stroke: #262626; stroke-width: 0.5; stroke-linejoin: miter; stroke-linecap: square"/>
   </g>
   <g id="legend_1">
    <g id="line2d_32">
     <path d="M 225.18 64.284187 
L 243.18 64.284187 
L 261.18 64.284187 
" style="fill: none; stroke: #4477aa; stroke-linecap: round"/>
     <g>
      <use xlink:href="#mf2aa8b0326" x="243.18" y="64.284187" style="fill: #4477aa; stroke: #4477aa"/>
     </g>
    </g>
    <g id="text_15">
     <!-- $\Delta$ Leak = 0% -->
     <g style="fill: #262626" transform="translate(275.58 70.584187)scale(0.18 -0.18)">
      <defs>
       <path id="DejaVuSans-394" d="M 2188 4044 
L 906 525 
L 3472 525 
L 2188 4044 
z
M 50 0 
L 1831 4666 
L 2547 4666 
L 4325 0 
L 50 0 
z
" transform="scale(0.015625)"/>
       <path id="Helvetica-4c" d="M 488 4591 
L 1109 4591 
L 1109 547 
L 3434 547 
L 3434 0 
L 488 0 
L 488 4591 
z
" transform="scale(0.015625)"/>
       <path id="Helvetica-6b" d="M 400 4591 
L 941 4591 
L 941 1925 
L 2384 3347 
L 3103 3347 
L 1822 2094 
L 3175 0 
L 2456 0 
L 1413 1688 
L 941 1256 
L 941 0 
L 400 0 
L 400 4591 
z
" transform="scale(0.015625)"/>
       <path id="Helvetica-3d" d="M 3547 2569 
L 3547 2044 
L 288 2044 
L 288 2569 
L 3547 2569 
z
M 3547 1228 
L 3547 694 
L 288 694 
L 288 1228 
L 3547 1228 
z
" transform="scale(0.015625)"/>
       <path id="Helvetica-25" d="M 4363 2175 
Q 4813 2175 5131 1856 
Q 5450 1538 5450 1088 
Q 5450 638 5131 319 
Q 4813 0 4363 0 
Q 3909 0 3590 319 
Q 3272 638 3272 1088 
Q 3272 1538 3590 1856 
Q 3909 2175 4363 2175 
z
M 3909 4456 
L 4256 4456 
L 1753 -119 
L 1406 -119 
L 3909 4456 
z
M 1294 2606 
Q 1563 2606 1752 2795 
Q 1941 2984 1941 3250 
Q 1941 3516 1752 3705 
Q 1563 3894 1294 3894 
Q 1028 3894 839 3706 
Q 650 3519 650 3250 
Q 650 2984 839 2795 
Q 1028 2606 1294 2606 
z
M 1294 4341 
Q 1747 4341 2065 4020 
Q 2384 3700 2384 3250 
Q 2384 2800 2065 2481 
Q 1747 2163 1294 2163 
Q 844 2163 525 2481 
Q 206 2800 206 3250 
Q 206 3700 525 4020 
Q 844 4341 1294 4341 
z
M 4363 444 
Q 4628 444 4817 633 
Q 5006 822 5006 1088 
Q 5006 1353 4817 1542 
Q 4628 1731 4363 1731 
Q 4094 1731 3905 1542 
Q 3716 1353 3716 1088 
Q 3716 822 3905 633 
Q 4094 444 4363 444 
z
" transform="scale(0.015625)"/>
      </defs>
      <use xlink:href="#DejaVuSans-394" transform="translate(0 0.09375)"/>
      <use xlink:href="#Helvetica-20" transform="translate(68.408203 0.09375)"/>
      <use xlink:href="#Helvetica-4c" transform="translate(96.191406 0.09375)"/>
      <use xlink:href="#Helvetica-65" transform="translate(151.806641 0.09375)"/>
      <use xlink:href="#Helvetica-61" transform="translate(207.421875 0.09375)"/>
      <use xlink:href="#Helvetica-6b" transform="translate(263.037109 0.09375)"/>
      <use xlink:href="#Helvetica-20" transform="translate(313.037109 0.09375)"/>
      <use xlink:href="#Helvetica-3d" transform="translate(340.820312 0.09375)"/>
      <use xlink:href="#Helvetica-20" transform="translate(399.21875 0.09375)"/>
      <use xlink:href="#Helvetica-30" transform="translate(427.001953 0.09375)"/>
      <use xlink:href="#Helvetica-25" transform="translate(482.617188 0.09375)"/>
     </g>
    </g>
    <g id="line2d_33">
     <path d="M 225.18 89.94825 
L 243.18 89.94825 
L 261.18 89.94825 
" style="fill: none; stroke: #ee6677; stroke-linecap: round"/>
     <g>
      <use xlink:href="#mf850a45086" x="243.18" y="89.94825" style="fill: #ee6677; stroke: #ee6677; stroke-linejoin: miter"/>
     </g>
    </g>
    <g id="text_16">
     <!-- $\Delta$ Leak = 200% -->
     <g style="fill: #262626" transform="translate(275.58 96.24825)scale(0.18 -0.18)">
      <use xlink:href="#DejaVuSans-394" transform="translate(0 0.09375)"/>
      <use xlink:href="#Helvetica-20" transform="translate(68.408203 0.09375)"/>
      <use xlink:href="#Helvetica-4c" transform="translate(96.191406 0.09375)"/>
      <use xlink:href="#Helvetica-65" transform="translate(151.806641 0.09375)"/>
      <use xlink:href="#Helvetica-61" transform="translate(207.421875 0.09375)"/>
      <use xlink:href="#Helvetica-6b" transform="translate(263.037109 0.09375)"/>
      <use xlink:href="#Helvetica-20" transform="translate(313.037109 0.09375)"/>
      <use xlink:href="#Helvetica-3d" transform="translate(340.820312 0.09375)"/>
      <use xlink:href="#Helvetica-20" transform="translate(399.21875 0.09375)"/>
      <use xlink:href="#Helvetica-32" transform="translate(427.001953 0.09375)"/>
      <use xlink:href="#Helvetica-30" transform="translate(482.617188 0.09375)"/>
      <use xlink:href="#Helvetica-30" transform="translate(538.232422 0.09375)"/>
      <use xlink:href="#Helvetica-25" transform="translate(593.847656 0.09375)"/>
     </g>
    </g>
    <g id="line2d_34">
     <path d="M 225.18 115.612312 
L 243.18 115.612312 
L 261.18 115.612312 
" style="fill: none; stroke: #228833; stroke-linecap: round"/>
     <g>
      <use xlink:href="#mccfbae8297" x="243.18" y="115.612312" style="fill: #228833; stroke: #228833; stroke-linejoin: miter"/>
     </g>
    </g>
    <g id="text_17">
     <!-- $\Delta$ Leak = 500% -->
     <g style="fill: #262626" transform="translate(275.58 121.912312)scale(0.18 -0.18)">
      <use xlink:href="#DejaVuSans-394" transform="translate(0 0.09375)"/>
      <use xlink:href="#Helvetica-20" transform="translate(68.408203 0.09375)"/>
      <use xlink:href="#Helvetica-4c" transform="translate(96.191406 0.09375)"/>
      <use xlink:href="#Helvetica-65" transform="translate(151.806641 0.09375)"/>
      <use xlink:href="#Helvetica-61" transform="translate(207.421875 0.09375)"/>
      <use xlink:href="#Helvetica-6b" transform="translate(263.037109 0.09375)"/>
      <use xlink:href="#Helvetica-20" transform="translate(313.037109 0.09375)"/>
      <use xlink:href="#Helvetica-3d" transform="translate(340.820312 0.09375)"/>
      <use xlink:href="#Helvetica-20" transform="translate(399.21875 0.09375)"/>
      <use xlink:href="#Helvetica-35" transform="translate(427.001953 0.09375)"/>
      <use xlink:href="#Helvetica-30" transform="translate(482.617188 0.09375)"/>
      <use xlink:href="#Helvetica-30" transform="translate(538.232422 0.09375)"/>
      <use xlink:href="#Helvetica-25" transform="translate(593.847656 0.09375)"/>
     </g>
    </g>
    <g id="line2d_35">
     <path d="M 225.18 141.276375 
L 243.18 141.276375 
L 261.18 141.276375 
" style="fill: none; stroke: #ccbb44; stroke-linecap: round"/>
     <g>
      <use xlink:href="#m982a232739" x="243.18" y="141.276375" style="fill: #ccbb44; stroke: #ccbb44; stroke-linejoin: miter"/>
     </g>
    </g>
    <g id="text_18">
     <!-- $\Delta$ Leak = 700% -->
     <g style="fill: #262626" transform="translate(275.58 147.576375)scale(0.18 -0.18)">
      <defs>
       <path id="Helvetica-37" d="M 3347 4400 
L 3347 3909 
Q 3131 3700 2773 3181 
Q 2416 2663 2141 2063 
Q 1869 1478 1728 997 
Q 1638 688 1494 0 
L 872 0 
Q 1084 1281 1809 2550 
Q 2238 3294 2709 3834 
L 234 3834 
L 234 4400 
L 3347 4400 
z
" transform="scale(0.015625)"/>
      </defs>
      <use xlink:href="#DejaVuSans-394" transform="translate(0 0.09375)"/>
      <use xlink:href="#Helvetica-20" transform="translate(68.408203 0.09375)"/>
      <use xlink:href="#Helvetica-4c" transform="translate(96.191406 0.09375)"/>
      <use xlink:href="#Helvetica-65" transform="translate(151.806641 0.09375)"/>
      <use xlink:href="#Helvetica-61" transform="translate(207.421875 0.09375)"/>
      <use xlink:href="#Helvetica-6b" transform="translate(263.037109 0.09375)"/>
      <use xlink:href="#Helvetica-20" transform="translate(313.037109 0.09375)"/>
      <use xlink:href="#Helvetica-3d" transform="translate(340.820312 0.09375)"/>
      <use xlink:href="#Helvetica-20" transform="translate(399.21875 0.09375)"/>
      <use xlink:href="#Helvetica-37" transform="translate(427.001953 0.09375)"/>
      <use xlink:href="#Helvetica-30" transform="translate(482.617188 0.09375)"/>
      <use xlink:href="#Helvetica-30" transform="translate(538.232422 0.09375)"/>
      <use xlink:href="#Helvetica-25" transform="translate(593.847656 0.09375)"/>
     </g>
    </g>
   </g>
  </g>
 </g>
 <defs>
  <clipPath id="pd520a84b4d">
   <rect x="57.6" y="41.472" width="357.12" height="266.112"/>
  </clipPath>
 </defs>
</svg>
