<?xml version="1.0" encoding="utf-8" standalone="no"?>
<!DOCTYPE svg PUBLIC "-//W3C//DTD SVG 1.1//EN"
  "http://www.w3.org/Graphics/SVG/1.1/DTD/svg11.dtd">
<svg xmlns:xlink="http://www.w3.org/1999/xlink" width="460.8pt" height="345.6pt" viewBox="0 0 460.8 345.6" xmlns="http://www.w3.org/2000/svg" version="1.1">
 <metadata>
  <rdf:RDF xmlns:dc="http://purl.org/dc/elements/1.1/" xmlns:cc="http://creativecommons.org/ns#" xmlns:rdf="http://www.w3.org/1999/02/22-rdf-syntax-ns#">
   <cc:Work>
    <dc:type rdf:resource="http://purl.org/dc/dcmitype/StillImage"/>
    <dc:date>2024-04-08T16:00:20.106609</dc:date>
    <dc:format>image/svg+xml</dc:format>
    <dc:creator>
     <cc:Agent>
      <dc:title>Matplotlib v3.5.1, https://matplotlib.org/</dc:title>
     </cc:Agent>
    </dc:creator>
   </cc:Work>
  </rdf:RDF>
 </metadata>
 <defs>
  <style type="text/css">*{stroke-linejoin: round; stroke-linecap: butt}</style>
 </defs>
 <g id="figure_1">
  <g id="patch_1">
   <path d="M 0 345.6 
L 460.8 345.6 
L 460.8 0 
L 0 0 
z
" style="fill: #ffffff"/>
  </g>
  <g id="axes_1">
   <g id="patch_2">
    <path d="M 57.6 307.584 
L 414.72 307.584 
L 414.72 41.472 
L 57.6 41.472 
z
" style="fill: #ffffff"/>
   </g>
   <g id="matplotlib.axis_1">
    <g id="xtick_1">
     <g id="line2d_1">
      <defs>
       <path id="m4706811176" d="M 0 0 
L 0 4 
" style="stroke: #262626"/>
      </defs>
      <g>
       <use xlink:href="#m4706811176" x="73.832727" y="307.584" style="fill: #262626; stroke: #262626"/>
      </g>
     </g>
     <g id="text_1">
      <!-- 0 -->
      <g style="fill: #262626" transform="translate(69.940071 325.126812)scale(0.14 -0.14)">
       <defs>
        <path id="Helvetica-30" d="M 1731 4475 
Q 2600 4475 2988 3759 
Q 3288 3206 3288 2244 
Q 3288 1331 3016 734 
Q 2622 -122 1728 -122 
Q 922 -122 528 578 
Q 200 1163 200 2147 
Q 200 2909 397 3456 
Q 766 4475 1731 4475 
z
M 1725 391 
Q 2163 391 2422 778 
Q 2681 1166 2681 2222 
Q 2681 2984 2493 3476 
Q 2306 3969 1766 3969 
Q 1269 3969 1039 3501 
Q 809 3034 809 2125 
Q 809 1441 956 1025 
Q 1181 391 1725 391 
z
" transform="scale(0.015625)"/>
       </defs>
       <use xlink:href="#Helvetica-30"/>
      </g>
     </g>
    </g>
    <g id="xtick_2">
     <g id="line2d_2">
      <g>
       <use xlink:href="#m4706811176" x="114.414545" y="307.584" style="fill: #262626; stroke: #262626"/>
      </g>
     </g>
     <g id="text_2">
      <!-- 25 -->
      <g style="fill: #262626" transform="translate(106.629233 325.126812)scale(0.14 -0.14)">
       <defs>
        <path id="Helvetica-32" d="M 200 0 
Q 231 578 439 1006 
Q 647 1434 1250 1784 
L 1850 2131 
Q 2253 2366 2416 2531 
Q 2672 2791 2672 3125 
Q 2672 3516 2437 3745 
Q 2203 3975 1813 3975 
Q 1234 3975 1013 3538 
Q 894 3303 881 2888 
L 309 2888 
Q 319 3472 525 3841 
Q 891 4491 1816 4491 
Q 2584 4491 2939 4075 
Q 3294 3659 3294 3150 
Q 3294 2613 2916 2231 
Q 2697 2009 2131 1694 
L 1703 1456 
Q 1397 1288 1222 1134 
Q 909 863 828 531 
L 3272 531 
L 3272 0 
L 200 0 
z
" transform="scale(0.015625)"/>
        <path id="Helvetica-35" d="M 791 1141 
Q 847 659 1238 475 
Q 1438 381 1700 381 
Q 2200 381 2440 700 
Q 2681 1019 2681 1406 
Q 2681 1875 2395 2131 
Q 2109 2388 1709 2388 
Q 1419 2388 1211 2275 
Q 1003 2163 856 1963 
L 369 1991 
L 709 4400 
L 3034 4400 
L 3034 3856 
L 1131 3856 
L 941 2613 
Q 1097 2731 1238 2791 
Q 1488 2894 1816 2894 
Q 2431 2894 2859 2497 
Q 3288 2100 3288 1491 
Q 3288 856 2895 371 
Q 2503 -113 1644 -113 
Q 1097 -113 676 195 
Q 256 503 206 1141 
L 791 1141 
z
" transform="scale(0.015625)"/>
       </defs>
       <use xlink:href="#Helvetica-32"/>
       <use xlink:href="#Helvetica-35" x="55.615234"/>
      </g>
     </g>
    </g>
    <g id="xtick_3">
     <g id="line2d_3">
      <g>
       <use xlink:href="#m4706811176" x="154.996364" y="307.584" style="fill: #262626; stroke: #262626"/>
      </g>
     </g>
     <g id="text_3">
      <!-- 50 -->
      <g style="fill: #262626" transform="translate(147.211051 325.126812)scale(0.14 -0.14)">
       <use xlink:href="#Helvetica-35"/>
       <use xlink:href="#Helvetica-30" x="55.615234"/>
      </g>
     </g>
    </g>
    <g id="xtick_4">
     <g id="line2d_4">
      <g>
       <use xlink:href="#m4706811176" x="195.578182" y="307.584" style="fill: #262626; stroke: #262626"/>
      </g>
     </g>
     <g id="text_4">
      <!-- 75 -->
      <g style="fill: #262626" transform="translate(187.792869 325.126812)scale(0.14 -0.14)">
       <defs>
        <path id="Helvetica-37" d="M 3347 4400 
L 3347 3909 
Q 3131 3700 2773 3181 
Q 2416 2663 2141 2063 
Q 1869 1478 1728 997 
Q 1638 688 1494 0 
L 872 0 
Q 1084 1281 1809 2550 
Q 2238 3294 2709 3834 
L 234 3834 
L 234 4400 
L 3347 4400 
z
" transform="scale(0.015625)"/>
       </defs>
       <use xlink:href="#Helvetica-37"/>
       <use xlink:href="#Helvetica-35" x="55.615234"/>
      </g>
     </g>
    </g>
    <g id="xtick_5">
     <g id="line2d_5">
      <g>
       <use xlink:href="#m4706811176" x="236.16" y="307.584" style="fill: #262626; stroke: #262626"/>
      </g>
     </g>
     <g id="text_5">
      <!-- 100 -->
      <g style="fill: #262626" transform="translate(224.482031 325.126812)scale(0.14 -0.14)">
       <defs>
        <path id="Helvetica-31" d="M 613 3169 
L 613 3600 
Q 1222 3659 1462 3798 
Q 1703 3938 1822 4456 
L 2266 4456 
L 2266 0 
L 1666 0 
L 1666 3169 
L 613 3169 
z
" transform="scale(0.015625)"/>
       </defs>
       <use xlink:href="#Helvetica-31"/>
       <use xlink:href="#Helvetica-30" x="55.615234"/>
       <use xlink:href="#Helvetica-30" x="111.230469"/>
      </g>
     </g>
    </g>
    <g id="xtick_6">
     <g id="line2d_6">
      <g>
       <use xlink:href="#m4706811176" x="276.741818" y="307.584" style="fill: #262626; stroke: #262626"/>
      </g>
     </g>
     <g id="text_6">
      <!-- 125 -->
      <g style="fill: #262626" transform="translate(265.063849 325.126812)scale(0.14 -0.14)">
       <use xlink:href="#Helvetica-31"/>
       <use xlink:href="#Helvetica-32" x="55.615234"/>
       <use xlink:href="#Helvetica-35" x="111.230469"/>
      </g>
     </g>
    </g>
    <g id="xtick_7">
     <g id="line2d_7">
      <g>
       <use xlink:href="#m4706811176" x="317.323636" y="307.584" style="fill: #262626; stroke: #262626"/>
      </g>
     </g>
     <g id="text_7">
      <!-- 150 -->
      <g style="fill: #262626" transform="translate(305.645668 325.126812)scale(0.14 -0.14)">
       <use xlink:href="#Helvetica-31"/>
       <use xlink:href="#Helvetica-35" x="55.615234"/>
       <use xlink:href="#Helvetica-30" x="111.230469"/>
      </g>
     </g>
    </g>
    <g id="xtick_8">
     <g id="line2d_8">
      <g>
       <use xlink:href="#m4706811176" x="357.905455" y="307.584" style="fill: #262626; stroke: #262626"/>
      </g>
     </g>
     <g id="text_8">
      <!-- 175 -->
      <g style="fill: #262626" transform="translate(346.227486 325.126812)scale(0.14 -0.14)">
       <use xlink:href="#Helvetica-31"/>
       <use xlink:href="#Helvetica-37" x="55.615234"/>
       <use xlink:href="#Helvetica-35" x="111.230469"/>
      </g>
     </g>
    </g>
    <g id="xtick_9">
     <g id="line2d_9">
      <g>
       <use xlink:href="#m4706811176" x="398.487273" y="307.584" style="fill: #262626; stroke: #262626"/>
      </g>
     </g>
     <g id="text_9">
      <!-- 200 -->
      <g style="fill: #262626" transform="translate(386.809304 325.126812)scale(0.14 -0.14)">
       <use xlink:href="#Helvetica-32"/>
       <use xlink:href="#Helvetica-30" x="55.615234"/>
       <use xlink:href="#Helvetica-30" x="111.230469"/>
      </g>
     </g>
    </g>
    <g id="text_10">
     <!-- Time (hours) -->
     <g style="fill: #262626" transform="translate(185.156719 345.089312)scale(0.18 -0.18)">
      <defs>
       <path id="Helvetica-54" d="M 3828 4591 
L 3828 4044 
L 2281 4044 
L 2281 0 
L 1650 0 
L 1650 4044 
L 103 4044 
L 103 4591 
L 3828 4591 
z
" transform="scale(0.015625)"/>
       <path id="Helvetica-69" d="M 413 3331 
L 984 3331 
L 984 0 
L 413 0 
L 413 3331 
z
M 413 4591 
L 984 4591 
L 984 3953 
L 413 3953 
L 413 4591 
z
" transform="scale(0.015625)"/>
       <path id="Helvetica-6d" d="M 413 3347 
L 969 3347 
L 969 2872 
Q 1169 3119 1331 3231 
Q 1609 3422 1963 3422 
Q 2363 3422 2606 3225 
Q 2744 3113 2856 2894 
Q 3044 3163 3297 3292 
Q 3550 3422 3866 3422 
Q 4541 3422 4784 2934 
Q 4916 2672 4916 2228 
L 4916 0 
L 4331 0 
L 4331 2325 
Q 4331 2659 4164 2784 
Q 3997 2909 3756 2909 
Q 3425 2909 3186 2687 
Q 2947 2466 2947 1947 
L 2947 0 
L 2375 0 
L 2375 2184 
Q 2375 2525 2294 2681 
Q 2166 2916 1816 2916 
Q 1497 2916 1236 2669 
Q 975 2422 975 1775 
L 975 0 
L 413 0 
L 413 3347 
z
" transform="scale(0.015625)"/>
       <path id="Helvetica-65" d="M 1806 3422 
Q 2163 3422 2497 3255 
Q 2831 3088 3006 2822 
Q 3175 2569 3231 2231 
Q 3281 2000 3281 1494 
L 828 1494 
Q 844 984 1069 676 
Q 1294 369 1766 369 
Q 2206 369 2469 659 
Q 2619 828 2681 1050 
L 3234 1050 
Q 3213 866 3089 639 
Q 2966 413 2813 269 
Q 2556 19 2178 -69 
Q 1975 -119 1719 -119 
Q 1094 -119 659 336 
Q 225 791 225 1609 
Q 225 2416 662 2919 
Q 1100 3422 1806 3422 
z
M 2703 1941 
Q 2669 2306 2544 2525 
Q 2313 2931 1772 2931 
Q 1384 2931 1121 2651 
Q 859 2372 844 1941 
L 2703 1941 
z
M 1753 3428 
L 1753 3428 
z
" transform="scale(0.015625)"/>
       <path id="Helvetica-20" transform="scale(0.015625)"/>
       <path id="Helvetica-28" d="M 1894 4666 
Q 1403 3713 1256 3263 
Q 1034 2578 1034 1681 
Q 1034 775 1288 25 
Q 1444 -438 1903 -1306 
L 1525 -1306 
Q 1069 -594 959 -397 
Q 850 -200 722 138 
Q 547 600 478 1125 
Q 444 1397 444 1644 
Q 444 2569 734 3291 
Q 919 3750 1503 4666 
L 1894 4666 
z
" transform="scale(0.015625)"/>
       <path id="Helvetica-68" d="M 413 4606 
L 975 4606 
L 975 2894 
Q 1175 3147 1334 3250 
Q 1606 3428 2013 3428 
Q 2741 3428 3000 2919 
Q 3141 2641 3141 2147 
L 3141 0 
L 2563 0 
L 2563 2109 
Q 2563 2478 2469 2650 
Q 2316 2925 1894 2925 
Q 1544 2925 1259 2684 
Q 975 2444 975 1775 
L 975 0 
L 413 0 
L 413 4606 
z
" transform="scale(0.015625)"/>
       <path id="Helvetica-6f" d="M 1741 363 
Q 2300 363 2508 786 
Q 2716 1209 2716 1728 
Q 2716 2197 2566 2491 
Q 2328 2953 1747 2953 
Q 1231 2953 997 2559 
Q 763 2166 763 1609 
Q 763 1075 997 719 
Q 1231 363 1741 363 
z
M 1763 3444 
Q 2409 3444 2856 3012 
Q 3303 2581 3303 1744 
Q 3303 934 2909 406 
Q 2516 -122 1688 -122 
Q 997 -122 590 345 
Q 184 813 184 1600 
Q 184 2444 612 2944 
Q 1041 3444 1763 3444 
z
M 1744 3428 
L 1744 3428 
z
" transform="scale(0.015625)"/>
       <path id="Helvetica-75" d="M 975 3347 
L 975 1125 
Q 975 869 1056 706 
Q 1206 406 1616 406 
Q 2203 406 2416 931 
Q 2531 1213 2531 1703 
L 2531 3347 
L 3094 3347 
L 3094 0 
L 2563 0 
L 2569 494 
Q 2459 303 2297 172 
Q 1975 -91 1516 -91 
Q 800 -91 541 388 
Q 400 644 400 1072 
L 400 3347 
L 975 3347 
z
M 1747 3428 
L 1747 3428 
z
" transform="scale(0.015625)"/>
       <path id="Helvetica-72" d="M 428 3347 
L 963 3347 
L 963 2769 
Q 1028 2938 1284 3180 
Q 1541 3422 1875 3422 
Q 1891 3422 1928 3419 
Q 1966 3416 2056 3406 
L 2056 2813 
Q 2006 2822 1964 2825 
Q 1922 2828 1872 2828 
Q 1447 2828 1219 2554 
Q 991 2281 991 1925 
L 991 0 
L 428 0 
L 428 3347 
z
" transform="scale(0.015625)"/>
       <path id="Helvetica-73" d="M 747 1050 
Q 772 769 888 619 
Q 1100 347 1625 347 
Q 1938 347 2175 483 
Q 2413 619 2413 903 
Q 2413 1119 2222 1231 
Q 2100 1300 1741 1391 
L 1294 1503 
Q 866 1609 663 1741 
Q 300 1969 300 2372 
Q 300 2847 642 3140 
Q 984 3434 1563 3434 
Q 2319 3434 2653 2991 
Q 2863 2709 2856 2384 
L 2325 2384 
Q 2309 2575 2191 2731 
Q 1997 2953 1519 2953 
Q 1200 2953 1036 2831 
Q 872 2709 872 2509 
Q 872 2291 1088 2159 
Q 1213 2081 1456 2022 
L 1828 1931 
Q 2434 1784 2641 1647 
Q 2969 1431 2969 969 
Q 2969 522 2630 197 
Q 2291 -128 1597 -128 
Q 850 -128 539 211 
Q 228 550 206 1050 
L 747 1050 
z
M 1578 3428 
L 1578 3428 
z
" transform="scale(0.015625)"/>
       <path id="Helvetica-29" d="M 222 -1306 
Q 719 -338 863 106 
Q 1081 778 1081 1681 
Q 1081 2584 828 3334 
Q 672 3797 213 4666 
L 591 4666 
Q 1072 3897 1173 3717 
Q 1275 3538 1394 3222 
Q 1544 2831 1608 2450 
Q 1672 2069 1672 1716 
Q 1672 791 1378 66 
Q 1194 -400 613 -1306 
L 222 -1306 
z
" transform="scale(0.015625)"/>
      </defs>
      <use xlink:href="#Helvetica-54"/>
      <use xlink:href="#Helvetica-69" x="61.083984"/>
      <use xlink:href="#Helvetica-6d" x="83.300781"/>
      <use xlink:href="#Helvetica-65" x="166.601562"/>
      <use xlink:href="#Helvetica-20" x="222.216797"/>
      <use xlink:href="#Helvetica-28" x="250"/>
      <use xlink:href="#Helvetica-68" x="283.300781"/>
      <use xlink:href="#Helvetica-6f" x="338.916016"/>
      <use xlink:href="#Helvetica-75" x="394.53125"/>
      <use xlink:href="#Helvetica-72" x="450.146484"/>
      <use xlink:href="#Helvetica-73" x="483.447266"/>
      <use xlink:href="#Helvetica-29" x="533.447266"/>
     </g>
    </g>
   </g>
   <g id="matplotlib.axis_2">
    <g id="ytick_1">
     <g id="line2d_10">
      <defs>
       <path id="m9b1c0b0987" d="M 0 0 
L -4 0 
" style="stroke: #262626"/>
      </defs>
      <g>
       <use xlink:href="#m9b1c0b0987" x="57.6" y="295.488" style="fill: #262626; stroke: #262626"/>
      </g>
     </g>
     <g id="text_11">
      <!-- 0 -->
      <g style="fill: #262626" transform="translate(42.314687 300.509406)scale(0.14 -0.14)">
       <use xlink:href="#Helvetica-30"/>
      </g>
     </g>
    </g>
    <g id="ytick_2">
     <g id="line2d_11">
      <g>
       <use xlink:href="#m9b1c0b0987" x="57.6" y="248.454184" style="fill: #262626; stroke: #262626"/>
      </g>
     </g>
     <g id="text_12">
      <!-- 2 -->
      <g style="fill: #262626" transform="translate(42.314687 253.475591)scale(0.14 -0.14)">
       <use xlink:href="#Helvetica-32"/>
      </g>
     </g>
    </g>
    <g id="ytick_3">
     <g id="line2d_12">
      <g>
       <use xlink:href="#m9b1c0b0987" x="57.6" y="201.420369" style="fill: #262626; stroke: #262626"/>
      </g>
     </g>
     <g id="text_13">
      <!-- 4 -->
      <g style="fill: #262626" transform="translate(42.314687 206.441775)scale(0.14 -0.14)">
       <defs>
        <path id="Helvetica-34" d="M 2116 1584 
L 2116 3613 
L 681 1584 
L 2116 1584 
z
M 2125 0 
L 2125 1094 
L 163 1094 
L 163 1644 
L 2213 4488 
L 2688 4488 
L 2688 1584 
L 3347 1584 
L 3347 1094 
L 2688 1094 
L 2688 0 
L 2125 0 
z
" transform="scale(0.015625)"/>
       </defs>
       <use xlink:href="#Helvetica-34"/>
      </g>
     </g>
    </g>
    <g id="ytick_4">
     <g id="line2d_13">
      <g>
       <use xlink:href="#m9b1c0b0987" x="57.6" y="154.386553" style="fill: #262626; stroke: #262626"/>
      </g>
     </g>
     <g id="text_14">
      <!-- 6 -->
      <g style="fill: #262626" transform="translate(42.314687 159.407959)scale(0.14 -0.14)">
       <defs>
        <path id="Helvetica-36" d="M 1872 4494 
Q 2622 4494 2917 4105 
Q 3213 3716 3213 3303 
L 2656 3303 
Q 2606 3569 2497 3719 
Q 2294 4000 1881 4000 
Q 1409 4000 1131 3564 
Q 853 3128 822 2316 
Q 1016 2600 1309 2741 
Q 1578 2866 1909 2866 
Q 2472 2866 2890 2506 
Q 3309 2147 3309 1434 
Q 3309 825 2912 354 
Q 2516 -116 1781 -116 
Q 1153 -116 697 361 
Q 241 838 241 1966 
Q 241 2800 444 3381 
Q 834 4494 1872 4494 
z
M 1831 384 
Q 2275 384 2495 682 
Q 2716 981 2716 1388 
Q 2716 1731 2519 2042 
Q 2322 2353 1803 2353 
Q 1441 2353 1167 2112 
Q 894 1872 894 1388 
Q 894 963 1142 673 
Q 1391 384 1831 384 
z
" transform="scale(0.015625)"/>
       </defs>
       <use xlink:href="#Helvetica-36"/>
      </g>
     </g>
    </g>
    <g id="ytick_5">
     <g id="line2d_14">
      <g>
       <use xlink:href="#m9b1c0b0987" x="57.6" y="107.352737" style="fill: #262626; stroke: #262626"/>
      </g>
     </g>
     <g id="text_15">
      <!-- 8 -->
      <g style="fill: #262626" transform="translate(42.314687 112.374144)scale(0.14 -0.14)">
       <defs>
        <path id="Helvetica-38" d="M 1741 2600 
Q 2113 2600 2322 2808 
Q 2531 3016 2531 3303 
Q 2531 3553 2331 3762 
Q 2131 3972 1722 3972 
Q 1316 3972 1134 3762 
Q 953 3553 953 3272 
Q 953 2956 1187 2778 
Q 1422 2600 1741 2600 
z
M 1775 384 
Q 2166 384 2423 595 
Q 2681 806 2681 1225 
Q 2681 1659 2415 1884 
Q 2150 2109 1734 2109 
Q 1331 2109 1076 1879 
Q 822 1650 822 1244 
Q 822 894 1055 639 
Q 1288 384 1775 384 
z
M 975 2384 
Q 741 2484 609 2619 
Q 363 2869 363 3269 
Q 363 3769 725 4128 
Q 1088 4488 1753 4488 
Q 2397 4488 2762 4148 
Q 3128 3809 3128 3356 
Q 3128 2938 2916 2678 
Q 2797 2531 2547 2391 
Q 2825 2263 2984 2097 
Q 3281 1784 3281 1284 
Q 3281 694 2884 283 
Q 2488 -128 1763 -128 
Q 1109 -128 657 226 
Q 206 581 206 1256 
Q 206 1653 400 1942 
Q 594 2231 975 2384 
z
" transform="scale(0.015625)"/>
       </defs>
       <use xlink:href="#Helvetica-38"/>
      </g>
     </g>
    </g>
    <g id="ytick_6">
     <g id="line2d_15">
      <g>
       <use xlink:href="#m9b1c0b0987" x="57.6" y="60.318922" style="fill: #262626; stroke: #262626"/>
      </g>
     </g>
     <g id="text_16">
      <!-- 10 -->
      <g style="fill: #262626" transform="translate(34.529375 65.340328)scale(0.14 -0.14)">
       <use xlink:href="#Helvetica-31"/>
       <use xlink:href="#Helvetica-30" x="55.615234"/>
      </g>
     </g>
    </g>
    <g id="ytick_7">
     <g id="line2d_16">
      <defs>
       <path id="md53cfdc931" d="M 0 0 
L -2 0 
" style="stroke: #262626"/>
      </defs>
      <g>
       <use xlink:href="#md53cfdc931" x="57.6" y="307.246454" style="fill: #262626; stroke: #262626"/>
      </g>
     </g>
    </g>
    <g id="ytick_8">
     <g id="line2d_17">
      <g>
       <use xlink:href="#md53cfdc931" x="57.6" y="283.729546" style="fill: #262626; stroke: #262626"/>
      </g>
     </g>
    </g>
    <g id="ytick_9">
     <g id="line2d_18">
      <g>
       <use xlink:href="#md53cfdc931" x="57.6" y="271.971092" style="fill: #262626; stroke: #262626"/>
      </g>
     </g>
    </g>
    <g id="ytick_10">
     <g id="line2d_19">
      <g>
       <use xlink:href="#md53cfdc931" x="57.6" y="260.212638" style="fill: #262626; stroke: #262626"/>
      </g>
     </g>
    </g>
    <g id="ytick_11">
     <g id="line2d_20">
      <g>
       <use xlink:href="#md53cfdc931" x="57.6" y="236.69573" style="fill: #262626; stroke: #262626"/>
      </g>
     </g>
    </g>
    <g id="ytick_12">
     <g id="line2d_21">
      <g>
       <use xlink:href="#md53cfdc931" x="57.6" y="224.937277" style="fill: #262626; stroke: #262626"/>
      </g>
     </g>
    </g>
    <g id="ytick_13">
     <g id="line2d_22">
      <g>
       <use xlink:href="#md53cfdc931" x="57.6" y="213.178823" style="fill: #262626; stroke: #262626"/>
      </g>
     </g>
    </g>
    <g id="ytick_14">
     <g id="line2d_23">
      <g>
       <use xlink:href="#md53cfdc931" x="57.6" y="189.661915" style="fill: #262626; stroke: #262626"/>
      </g>
     </g>
    </g>
    <g id="ytick_15">
     <g id="line2d_24">
      <g>
       <use xlink:href="#md53cfdc931" x="57.6" y="177.903461" style="fill: #262626; stroke: #262626"/>
      </g>
     </g>
    </g>
    <g id="ytick_16">
     <g id="line2d_25">
      <g>
       <use xlink:href="#md53cfdc931" x="57.6" y="166.145007" style="fill: #262626; stroke: #262626"/>
      </g>
     </g>
    </g>
    <g id="ytick_17">
     <g id="line2d_26">
      <g>
       <use xlink:href="#md53cfdc931" x="57.6" y="142.628099" style="fill: #262626; stroke: #262626"/>
      </g>
     </g>
    </g>
    <g id="ytick_18">
     <g id="line2d_27">
      <g>
       <use xlink:href="#md53cfdc931" x="57.6" y="130.869645" style="fill: #262626; stroke: #262626"/>
      </g>
     </g>
    </g>
    <g id="ytick_19">
     <g id="line2d_28">
      <g>
       <use xlink:href="#md53cfdc931" x="57.6" y="119.111191" style="fill: #262626; stroke: #262626"/>
      </g>
     </g>
    </g>
    <g id="ytick_20">
     <g id="line2d_29">
      <g>
       <use xlink:href="#md53cfdc931" x="57.6" y="95.594284" style="fill: #262626; stroke: #262626"/>
      </g>
     </g>
    </g>
    <g id="ytick_21">
     <g id="line2d_30">
      <g>
       <use xlink:href="#md53cfdc931" x="57.6" y="83.83583" style="fill: #262626; stroke: #262626"/>
      </g>
     </g>
    </g>
    <g id="ytick_22">
     <g id="line2d_31">
      <g>
       <use xlink:href="#md53cfdc931" x="57.6" y="72.077376" style="fill: #262626; stroke: #262626"/>
      </g>
     </g>
    </g>
    <g id="ytick_23">
     <g id="line2d_32">
      <g>
       <use xlink:href="#md53cfdc931" x="57.6" y="48.560468" style="fill: #262626; stroke: #262626"/>
      </g>
     </g>
    </g>
    <g id="text_17">
     <!-- Concentration (nM) -->
     <g style="fill: #262626" transform="translate(26.7775 251.553937)rotate(-90)scale(0.18 -0.18)">
      <defs>
       <path id="Helvetica-43" d="M 2422 4716 
Q 3294 4716 3775 4256 
Q 4256 3797 4309 3213 
L 3703 3213 
Q 3600 3656 3292 3915 
Q 2984 4175 2428 4175 
Q 1750 4175 1333 3698 
Q 916 3222 916 2238 
Q 916 1431 1292 929 
Q 1669 428 2416 428 
Q 3103 428 3463 956 
Q 3653 1234 3747 1688 
L 4353 1688 
Q 4272 963 3816 472 
Q 3269 -119 2341 -119 
Q 1541 -119 997 366 
Q 281 1006 281 2344 
Q 281 3359 819 4009 
Q 1400 4716 2422 4716 
z
M 2297 4716 
L 2297 4716 
z
" transform="scale(0.015625)"/>
       <path id="Helvetica-6e" d="M 413 3347 
L 947 3347 
L 947 2872 
Q 1184 3166 1450 3294 
Q 1716 3422 2041 3422 
Q 2753 3422 3003 2925 
Q 3141 2653 3141 2147 
L 3141 0 
L 2569 0 
L 2569 2109 
Q 2569 2416 2478 2603 
Q 2328 2916 1934 2916 
Q 1734 2916 1606 2875 
Q 1375 2806 1200 2600 
Q 1059 2434 1017 2257 
Q 975 2081 975 1753 
L 975 0 
L 413 0 
L 413 3347 
z
M 1734 3428 
L 1734 3428 
z
" transform="scale(0.015625)"/>
       <path id="Helvetica-63" d="M 1703 3444 
Q 2269 3444 2623 3169 
Q 2978 2894 3050 2222 
L 2503 2222 
Q 2453 2531 2275 2736 
Q 2097 2941 1703 2941 
Q 1166 2941 934 2416 
Q 784 2075 784 1575 
Q 784 1072 996 728 
Q 1209 384 1666 384 
Q 2016 384 2220 598 
Q 2425 813 2503 1184 
L 3050 1184 
Q 2956 519 2581 211 
Q 2206 -97 1622 -97 
Q 966 -97 575 383 
Q 184 863 184 1581 
Q 184 2463 612 2953 
Q 1041 3444 1703 3444 
z
M 1616 3428 
L 1616 3428 
z
" transform="scale(0.015625)"/>
       <path id="Helvetica-74" d="M 525 4281 
L 1094 4281 
L 1094 3347 
L 1628 3347 
L 1628 2888 
L 1094 2888 
L 1094 703 
Q 1094 528 1213 469 
Q 1278 434 1431 434 
Q 1472 434 1519 436 
Q 1566 438 1628 444 
L 1628 0 
Q 1531 -28 1426 -40 
Q 1322 -53 1200 -53 
Q 806 -53 665 148 
Q 525 350 525 672 
L 525 2888 
L 72 2888 
L 72 3347 
L 525 3347 
L 525 4281 
z
" transform="scale(0.015625)"/>
       <path id="Helvetica-61" d="M 844 891 
Q 844 647 1022 506 
Q 1200 366 1444 366 
Q 1741 366 2019 503 
Q 2488 731 2488 1250 
L 2488 1703 
Q 2384 1638 2221 1594 
Q 2059 1550 1903 1531 
L 1563 1488 
Q 1256 1447 1103 1359 
Q 844 1213 844 891 
z
M 2206 2028 
Q 2400 2053 2466 2191 
Q 2503 2266 2503 2406 
Q 2503 2694 2298 2823 
Q 2094 2953 1713 2953 
Q 1272 2953 1088 2716 
Q 984 2584 953 2325 
L 428 2325 
Q 444 2944 830 3186 
Q 1216 3428 1725 3428 
Q 2316 3428 2684 3203 
Q 3050 2978 3050 2503 
L 3050 575 
Q 3050 488 3086 434 
Q 3122 381 3238 381 
Q 3275 381 3322 386 
Q 3369 391 3422 400 
L 3422 -16 
Q 3291 -53 3222 -62 
Q 3153 -72 3034 -72 
Q 2744 -72 2613 134 
Q 2544 244 2516 444 
Q 2344 219 2022 53 
Q 1700 -113 1313 -113 
Q 847 -113 551 170 
Q 256 453 256 878 
Q 256 1344 547 1600 
Q 838 1856 1309 1916 
L 2206 2028 
z
M 1741 3428 
L 1741 3428 
z
" transform="scale(0.015625)"/>
       <path id="Helvetica-4d" d="M 472 4591 
L 1363 4591 
L 2681 709 
L 3991 4591 
L 4872 4591 
L 4872 0 
L 4281 0 
L 4281 2709 
Q 4281 2850 4287 3175 
Q 4294 3500 4294 3872 
L 2984 0 
L 2369 0 
L 1050 3872 
L 1050 3731 
Q 1050 3563 1058 3217 
Q 1066 2872 1066 2709 
L 1066 0 
L 472 0 
L 472 4591 
z
" transform="scale(0.015625)"/>
      </defs>
      <use xlink:href="#Helvetica-43"/>
      <use xlink:href="#Helvetica-6f" x="72.216797"/>
      <use xlink:href="#Helvetica-6e" x="127.832031"/>
      <use xlink:href="#Helvetica-63" x="183.447266"/>
      <use xlink:href="#Helvetica-65" x="233.447266"/>
      <use xlink:href="#Helvetica-6e" x="289.0625"/>
      <use xlink:href="#Helvetica-74" x="344.677734"/>
      <use xlink:href="#Helvetica-72" x="372.460938"/>
      <use xlink:href="#Helvetica-61" x="405.761719"/>
      <use xlink:href="#Helvetica-74" x="461.376953"/>
      <use xlink:href="#Helvetica-69" x="489.160156"/>
      <use xlink:href="#Helvetica-6f" x="511.376953"/>
      <use xlink:href="#Helvetica-6e" x="566.992188"/>
      <use xlink:href="#Helvetica-20" x="622.607422"/>
      <use xlink:href="#Helvetica-28" x="650.390625"/>
      <use xlink:href="#Helvetica-6e" x="683.691406"/>
      <use xlink:href="#Helvetica-4d" x="739.306641"/>
      <use xlink:href="#Helvetica-29" x="822.607422"/>
     </g>
    </g>
   </g>
   <g id="line2d_33">
    <path d="M 73.832727 295.488 
L 74.483338 291.864219 
L 77.736389 277.950088 
L 82.941272 256.603132 
L 88.146154 236.194818 
L 93.351037 216.657313 
L 98.555919 197.944601 
L 103.760802 180.04275 
L 108.965684 162.974413 
L 113.519956 148.768362 
L 118.074228 135.302304 
L 121.97789 124.401368 
L 125.881552 114.141973 
L 129.785214 104.570756 
L 133.038266 97.152037 
L 136.291317 90.264231 
L 139.544369 83.927053 
L 142.79742 78.157153 
L 145.399862 73.958995 
L 148.002303 70.138608 
L 150.604744 66.701067 
L 153.207185 63.650923 
L 155.809627 60.992505 
L 158.412068 58.730262 
L 160.363899 57.296496 
L 162.31573 56.090676 
L 164.267561 55.115486 
L 166.219392 54.374013 
L 168.171222 53.869808 
L 170.123053 53.606931 
L 172.074884 53.589982 
L 174.026715 53.824107 
L 175.978546 54.314965 
L 177.930377 55.068672 
L 179.882208 56.091681 
L 181.834039 57.390619 
L 183.78587 58.972052 
L 185.737701 60.842172 
L 187.689532 63.006417 
L 189.641363 65.468993 
L 191.593194 68.232335 
L 194.195635 72.384307 
L 196.798076 77.062149 
L 199.400517 82.245056 
L 202.002959 87.897726 
L 205.25601 95.544679 
L 209.159672 105.391192 
L 215.015165 120.909192 
L 221.521268 138.023819 
L 225.42493 147.708382 
L 228.677981 155.27249 
L 231.931033 162.313253 
L 235.184085 168.809381 
L 238.437136 174.767495 
L 241.690188 180.213468 
L 244.943239 185.184588 
L 248.196291 189.723381 
L 251.449342 193.873273 
L 254.702394 197.675867 
L 257.955445 201.16947 
L 261.859107 205.002065 
L 265.762769 208.490891 
L 269.666431 211.680128 
L 273.570093 214.607199 
L 278.124365 217.732757 
L 282.678637 220.586559 
L 287.88352 223.559883 
L 293.088402 226.266885 
L 298.943895 229.037775 
L 304.799388 231.557625 
L 311.305491 234.103972 
L 317.811594 236.420008 
L 324.968308 238.738535 
L 332.775631 241.032337 
L 341.233565 243.279919 
L 350.34211 245.464971 
L 360.101264 247.575701 
L 370.511029 249.604132 
L 382.222015 251.653474 
L 394.583611 253.591411 
L 398.487273 254.161326 
L 398.487273 254.161326 
" clip-path="url(#p98af9ffea9)" style="fill: none; stroke: #4477aa; stroke-linecap: round"/>
    <defs>
     <path id="m443712b14e" d="M 0 2 
C 0.530406 2 1.03916 1.789267 1.414214 1.414214 
C 1.789267 1.03916 2 0.530406 2 0 
C 2 -0.530406 1.789267 -1.03916 1.414214 -1.414214 
C 1.03916 -1.789267 0.530406 -2 0 -2 
C -0.530406 -2 -1.03916 -1.789267 -1.414214 -1.414214 
C -1.789267 -1.03916 -2 -0.530406 -2 0 
C -2 0.530406 -1.789267 1.03916 -1.414214 1.414214 
C -1.03916 1.789267 -0.530406 2 0 2 
z
" style="stroke: #4477aa"/>
    </defs>
    <g clip-path="url(#p98af9ffea9)">
     <use xlink:href="#m443712b14e" x="73.832727" y="295.488" style="fill: #4477aa; stroke: #4477aa"/>
     <use xlink:href="#m443712b14e" x="99.85714" y="193.392872" style="fill: #4477aa; stroke: #4477aa"/>
     <use xlink:href="#m443712b14e" x="125.881552" y="114.141973" style="fill: #4477aa; stroke: #4477aa"/>
     <use xlink:href="#m443712b14e" x="151.905965" y="65.127298" style="fill: #4477aa; stroke: #4477aa"/>
     <use xlink:href="#m443712b14e" x="177.930377" y="55.068672" style="fill: #4477aa; stroke: #4477aa"/>
     <use xlink:href="#m443712b14e" x="203.95479" y="92.415332" style="fill: #4477aa; stroke: #4477aa"/>
     <use xlink:href="#m443712b14e" x="229.979202" y="158.153514" style="fill: #4477aa; stroke: #4477aa"/>
     <use xlink:href="#m443712b14e" x="256.003614" y="199.108371" style="fill: #4477aa; stroke: #4477aa"/>
     <use xlink:href="#m443712b14e" x="282.028027" y="220.194117" style="fill: #4477aa; stroke: #4477aa"/>
     <use xlink:href="#m443712b14e" x="308.052439" y="232.861778" style="fill: #4477aa; stroke: #4477aa"/>
     <use xlink:href="#m443712b14e" x="334.076852" y="241.393248" style="fill: #4477aa; stroke: #4477aa"/>
     <use xlink:href="#m443712b14e" x="360.101264" y="247.575701" style="fill: #4477aa; stroke: #4477aa"/>
     <use xlink:href="#m443712b14e" x="386.125677" y="252.288603" style="fill: #4477aa; stroke: #4477aa"/>
    </g>
   </g>
   <g id="line2d_34">
    <path d="M 73.832727 295.488 
L 78.386999 277.548565 
L 86.194323 247.77381 
L 90.097985 233.472407 
L 92.700426 224.632817 
L 94.652257 218.601025 
L 96.604088 213.221644 
L 98.555919 208.592227 
L 99.85714 205.960247 
L 101.15836 203.716698 
L 102.459581 201.889776 
L 103.760802 200.525345 
L 104.411412 200.040237 
L 105.062022 199.706472 
L 105.712633 199.54627 
L 106.363243 199.590559 
L 107.013853 199.882527 
L 107.664463 200.482473 
L 108.315074 201.473955 
L 108.965684 202.970272 
L 109.616294 205.117734 
L 110.266905 208.086766 
L 110.917515 212.03463 
L 111.568125 217.024243 
L 114.821177 246.63035 
L 116.122398 254.576912 
L 117.423618 260.253523 
L 118.724839 264.469626 
L 120.026059 267.728412 
L 121.32728 270.328346 
L 122.628501 272.454896 
L 123.929721 274.229321 
L 125.881552 276.404771 
L 127.833383 278.15393 
L 129.785214 279.593499 
L 131.737045 280.800725 
L 134.339486 282.138667 
L 136.941927 283.242848 
L 140.194979 284.38023 
L 144.098641 285.48422 
L 148.652913 286.514654 
L 153.857796 287.452018 
L 160.363899 288.372888 
L 168.171222 289.226547 
L 177.279767 289.990037 
L 188.990752 290.730339 
L 203.304179 291.398602 
L 221.521268 292.015376 
L 244.943239 292.57658 
L 276.172534 293.090397 
L 318.462204 293.551031 
L 377.667743 293.960176 
L 398.487273 294.065575 
L 398.487273 294.065575 
" clip-path="url(#p98af9ffea9)" style="fill: none; stroke: #ee6677; stroke-linecap: round"/>
    <defs>
     <path id="m48c6090737" d="M 0 -2 
L -2 2 
L 2 2 
z
" style="stroke: #ee6677; stroke-linejoin: miter"/>
    </defs>
    <g clip-path="url(#p98af9ffea9)">
     <use xlink:href="#m48c6090737" x="73.832727" y="295.488" style="fill: #ee6677; stroke: #ee6677; stroke-linejoin: miter"/>
     <use xlink:href="#m48c6090737" x="108.315074" y="201.473955" style="fill: #ee6677; stroke: #ee6677; stroke-linejoin: miter"/>
     <use xlink:href="#m48c6090737" x="142.79742" y="285.142601" style="fill: #ee6677; stroke: #ee6677; stroke-linejoin: miter"/>
     <use xlink:href="#m48c6090737" x="177.279767" y="289.990037" style="fill: #ee6677; stroke: #ee6677; stroke-linejoin: miter"/>
     <use xlink:href="#m48c6090737" x="211.762113" y="291.710614" style="fill: #ee6677; stroke: #ee6677; stroke-linejoin: miter"/>
     <use xlink:href="#m48c6090737" x="246.24446" y="292.602415" style="fill: #ee6677; stroke: #ee6677; stroke-linejoin: miter"/>
     <use xlink:href="#m48c6090737" x="280.726806" y="293.150395" style="fill: #ee6677; stroke: #ee6677; stroke-linejoin: miter"/>
     <use xlink:href="#m48c6090737" x="315.209153" y="293.522035" style="fill: #ee6677; stroke: #ee6677; stroke-linejoin: miter"/>
     <use xlink:href="#m48c6090737" x="349.691499" y="293.790974" style="fill: #ee6677; stroke: #ee6677; stroke-linejoin: miter"/>
     <use xlink:href="#m48c6090737" x="384.173846" y="293.994765" style="fill: #ee6677; stroke: #ee6677; stroke-linejoin: miter"/>
    </g>
   </g>
   <g id="line2d_35">
    <path d="M 73.832727 295.488 
L 79.03761 275.503687 
L 86.844934 246.251882 
L 89.447375 237.351914 
L 91.399206 231.450575 
L 93.351037 226.425088 
L 94.652257 223.628006 
L 95.953478 221.312471 
L 97.254698 219.525662 
L 97.905309 218.857269 
L 98.555919 218.365111 
L 99.206529 218.083346 
L 99.85714 218.067088 
L 100.50775 218.407069 
L 101.15836 219.255039 
L 101.808971 220.864495 
L 102.459581 223.637544 
L 103.110191 228.10149 
L 103.760802 234.591501 
L 105.062022 250.463727 
L 105.712633 257.058532 
L 106.363243 262.131849 
L 107.013853 266.011602 
L 107.664463 269.048266 
L 108.315074 271.488735 
L 109.616294 275.175859 
L 110.917515 277.837942 
L 112.218736 279.856475 
L 113.519956 281.443293 
L 114.821177 282.725759 
L 116.773008 284.249077 
L 118.724839 285.436479 
L 120.67667 286.389624 
L 123.279111 287.403547 
L 126.532163 288.384767 
L 130.435824 289.281469 
L 134.990097 290.073106 
L 140.845589 290.831478 
L 148.002303 291.508317 
L 157.110847 292.126518 
L 168.821833 292.683609 
L 184.43648 293.189119 
L 205.906621 293.644116 
L 235.834695 294.041607 
L 280.076196 294.390244 
L 348.390279 294.687368 
L 398.487273 294.819764 
L 398.487273 294.819764 
" clip-path="url(#p98af9ffea9)" style="fill: none; stroke: #228833; stroke-linecap: round"/>
    <defs>
     <path id="mdcf9e3e40d" d="M -2 2 
L 2 2 
L 2 -2 
L -2 -2 
z
" style="stroke: #228833; stroke-linejoin: miter"/>
    </defs>
    <g clip-path="url(#p98af9ffea9)">
     <use xlink:href="#mdcf9e3e40d" x="73.832727" y="295.488" style="fill: #228833; stroke: #228833; stroke-linejoin: miter"/>
     <use xlink:href="#mdcf9e3e40d" x="110.266905" y="276.605669" style="fill: #228833; stroke: #228833; stroke-linejoin: miter"/>
     <use xlink:href="#mdcf9e3e40d" x="146.701082" y="291.400556" style="fill: #228833; stroke: #228833; stroke-linejoin: miter"/>
     <use xlink:href="#mdcf9e3e40d" x="183.13526" y="293.154131" style="fill: #228833; stroke: #228833; stroke-linejoin: miter"/>
     <use xlink:href="#mdcf9e3e40d" x="219.569437" y="293.849841" style="fill: #228833; stroke: #228833; stroke-linejoin: miter"/>
     <use xlink:href="#mdcf9e3e40d" x="256.003614" y="294.224674" style="fill: #228833; stroke: #228833; stroke-linejoin: miter"/>
     <use xlink:href="#mdcf9e3e40d" x="292.437792" y="294.459398" style="fill: #228833; stroke: #228833; stroke-linejoin: miter"/>
     <use xlink:href="#mdcf9e3e40d" x="328.871969" y="294.620329" style="fill: #228833; stroke: #228833; stroke-linejoin: miter"/>
     <use xlink:href="#mdcf9e3e40d" x="365.306147" y="294.73759" style="fill: #228833; stroke: #228833; stroke-linejoin: miter"/>
    </g>
   </g>
   <g id="line2d_36">
    <path d="M 73.832727 295.488 
L 79.68822 272.993383 
L 86.194323 248.545843 
L 88.146154 242.015179 
L 90.097985 236.366672 
L 91.399206 233.202006 
L 92.700426 230.571898 
L 94.001647 228.525401 
L 94.652257 227.748417 
L 95.302868 227.165206 
L 95.953478 226.81885 
L 96.604088 226.787059 
L 97.254698 227.215466 
L 97.905309 228.386884 
L 98.555919 230.850733 
L 99.206529 235.535419 
L 99.85714 243.209473 
L 101.15836 260.787888 
L 101.808971 266.677618 
L 102.459581 270.843835 
L 103.110191 273.916515 
L 103.760802 276.278576 
L 104.411412 278.154338 
L 105.712633 280.952427 
L 107.013853 282.946255 
L 108.315074 284.443296 
L 109.616294 285.611046 
L 111.568125 286.951994 
L 113.519956 287.964253 
L 116.122398 288.984239 
L 118.724839 289.755722 
L 121.97789 290.491868 
L 125.881552 291.155565 
L 131.086435 291.804337 
L 137.592538 292.382541 
L 146.050472 292.906723 
L 157.761457 293.393954 
L 174.026715 293.827508 
L 197.448686 294.20782 
L 232.581643 294.534417 
L 288.53413 294.809412 
L 384.824456 295.034164 
L 398.487273 295.054517 
L 398.487273 295.054517 
" clip-path="url(#p98af9ffea9)" style="fill: none; stroke: #ccbb44; stroke-linecap: round"/>
    <defs>
     <path id="md5badb2e2c" d="M -0.666667 2 
L 0.666667 2 
L 0.666667 0.666667 
L 2 0.666667 
L 2 -0.666667 
L 0.666667 -0.666667 
L 0.666667 -2 
L -0.666667 -2 
L -0.666667 -0.666667 
L -2 -0.666667 
L -2 0.666667 
L -0.666667 0.666667 
z
" style="stroke: #ccbb44; stroke-linejoin: miter"/>
    </defs>
    <g clip-path="url(#p98af9ffea9)">
     <use xlink:href="#md5badb2e2c" x="73.832727" y="295.488" style="fill: #ccbb44; stroke: #ccbb44; stroke-linejoin: miter"/>
     <use xlink:href="#md5badb2e2c" x="106.363243" y="282.02606" style="fill: #ccbb44; stroke: #ccbb44; stroke-linejoin: miter"/>
     <use xlink:href="#md5badb2e2c" x="138.893758" y="292.476806" style="fill: #ccbb44; stroke: #ccbb44; stroke-linejoin: miter"/>
     <use xlink:href="#md5badb2e2c" x="171.424274" y="293.770706" style="fill: #ccbb44; stroke: #ccbb44; stroke-linejoin: miter"/>
     <use xlink:href="#md5badb2e2c" x="203.95479" y="294.28426" style="fill: #ccbb44; stroke: #ccbb44; stroke-linejoin: miter"/>
     <use xlink:href="#md5badb2e2c" x="236.485305" y="294.560667" style="fill: #ccbb44; stroke: #ccbb44; stroke-linejoin: miter"/>
     <use xlink:href="#md5badb2e2c" x="269.015821" y="294.733574" style="fill: #ccbb44; stroke: #ccbb44; stroke-linejoin: miter"/>
     <use xlink:href="#md5badb2e2c" x="301.546336" y="294.852012" style="fill: #ccbb44; stroke: #ccbb44; stroke-linejoin: miter"/>
     <use xlink:href="#md5badb2e2c" x="334.076852" y="294.938245" style="fill: #ccbb44; stroke: #ccbb44; stroke-linejoin: miter"/>
     <use xlink:href="#md5badb2e2c" x="366.607367" y="295.003848" style="fill: #ccbb44; stroke: #ccbb44; stroke-linejoin: miter"/>
    </g>
   </g>
   <g id="line2d_37">
    <path d="M 73.832727 295.488 
L 80.33883 270.488563 
L 85.543713 250.862906 
L 87.495544 244.225384 
L 89.447375 238.478434 
L 90.748595 235.265354 
L 92.049816 232.605407 
L 93.351037 230.550706 
L 94.001647 229.780241 
L 94.652257 229.214662 
L 95.302868 228.904891 
L 95.953478 228.946515 
L 96.604088 229.527329 
L 97.254698 231.031061 
L 97.905309 234.226234 
L 98.555919 240.294577 
L 99.85714 258.820125 
L 100.50775 265.83688 
L 101.15836 270.650418 
L 101.808971 274.07582 
L 102.459581 276.63726 
L 103.110191 278.628957 
L 104.411412 281.533669 
L 105.712633 283.5573 
L 107.013853 285.052571 
L 108.315074 286.205015 
L 109.616294 287.121852 
L 111.568125 288.194094 
L 113.519956 289.017266 
L 116.122398 289.858636 
L 119.375449 290.641139 
L 123.279111 291.330379 
L 128.483993 291.989832 
L 134.990097 292.566081 
L 143.448031 293.079437 
L 155.159016 293.549088 
L 171.424274 293.961039 
L 195.496856 294.325389 
L 231.931033 294.6332 
L 291.787182 294.891868 
L 397.836662 295.099663 
L 398.487273 295.100491 
L 398.487273 295.100491 
" clip-path="url(#p98af9ffea9)" style="fill: none; stroke: #aa3377; stroke-linecap: round"/>
    <defs>
     <path id="me9fcfa3d9e" d="M -2 -0 
L 2 2 
L 2 -2 
z
" style="stroke: #aa3377; stroke-linejoin: miter"/>
    </defs>
    <g clip-path="url(#p98af9ffea9)">
     <use xlink:href="#me9fcfa3d9e" x="73.832727" y="295.488" style="fill: #aa3377; stroke: #aa3377; stroke-linejoin: miter"/>
     <use xlink:href="#me9fcfa3d9e" x="105.712633" y="283.5573" style="fill: #aa3377; stroke: #aa3377; stroke-linejoin: miter"/>
     <use xlink:href="#me9fcfa3d9e" x="137.592538" y="292.746176" style="fill: #aa3377; stroke: #aa3377; stroke-linejoin: miter"/>
     <use xlink:href="#me9fcfa3d9e" x="169.472443" y="293.92115" style="fill: #aa3377; stroke: #aa3377; stroke-linejoin: miter"/>
     <use xlink:href="#me9fcfa3d9e" x="201.352348" y="294.389063" style="fill: #aa3377; stroke: #aa3377; stroke-linejoin: miter"/>
     <use xlink:href="#me9fcfa3d9e" x="233.232254" y="294.641197" style="fill: #aa3377; stroke: #aa3377; stroke-linejoin: miter"/>
     <use xlink:href="#me9fcfa3d9e" x="265.112159" y="294.799007" style="fill: #aa3377; stroke: #aa3377; stroke-linejoin: miter"/>
     <use xlink:href="#me9fcfa3d9e" x="296.992064" y="294.907137" style="fill: #aa3377; stroke: #aa3377; stroke-linejoin: miter"/>
     <use xlink:href="#me9fcfa3d9e" x="328.871969" y="294.985878" style="fill: #aa3377; stroke: #aa3377; stroke-linejoin: miter"/>
     <use xlink:href="#me9fcfa3d9e" x="360.751875" y="295.045789" style="fill: #aa3377; stroke: #aa3377; stroke-linejoin: miter"/>
     <use xlink:href="#me9fcfa3d9e" x="392.63178" y="295.092909" style="fill: #aa3377; stroke: #aa3377; stroke-linejoin: miter"/>
    </g>
   </g>
   <g id="line2d_38">
    <path d="M 73.832727 295.488 
L 74.483338 294.792921 
L 75.784558 294.669333 
L 82.290661 294.693413 
L 102.459581 295.017141 
L 123.279111 295.239469 
L 151.905965 295.292886 
L 239.087746 295.287725 
L 282.678637 295.344605 
L 376.366522 295.394922 
L 398.487273 295.41657 
L 398.487273 295.41657 
" clip-path="url(#p98af9ffea9)" style="fill: none; stroke-dasharray: 3.7,1.6; stroke-dashoffset: 0; stroke: #4477aa"/>
    <g clip-path="url(#p98af9ffea9)">
     <use xlink:href="#m443712b14e" x="73.832727" y="295.488" style="fill: #4477aa; stroke: #4477aa"/>
     <use xlink:href="#m443712b14e" x="110.266905" y="295.126089" style="fill: #4477aa; stroke: #4477aa"/>
     <use xlink:href="#m443712b14e" x="146.701082" y="295.296788" style="fill: #4477aa; stroke: #4477aa"/>
     <use xlink:href="#m443712b14e" x="183.13526" y="295.177387" style="fill: #4477aa; stroke: #4477aa"/>
     <use xlink:href="#m443712b14e" x="219.569437" y="295.192893" style="fill: #4477aa; stroke: #4477aa"/>
     <use xlink:href="#m443712b14e" x="256.003614" y="295.333707" style="fill: #4477aa; stroke: #4477aa"/>
     <use xlink:href="#m443712b14e" x="292.437792" y="295.33596" style="fill: #4477aa; stroke: #4477aa"/>
     <use xlink:href="#m443712b14e" x="328.871969" y="295.3113" style="fill: #4477aa; stroke: #4477aa"/>
     <use xlink:href="#m443712b14e" x="365.306147" y="295.376479" style="fill: #4477aa; stroke: #4477aa"/>
    </g>
   </g>
   <g id="line2d_39">
    <path d="M 73.832727 295.488 
L 74.483338 294.840494 
L 75.784558 294.737265 
L 86.844934 294.869665 
L 117.423618 295.262086 
L 146.050472 295.32763 
L 254.051784 295.36492 
L 398.487273 295.426426 
L 398.487273 295.426426 
" clip-path="url(#p98af9ffea9)" style="fill: none; stroke-dasharray: 3.7,1.6; stroke-dashoffset: 0; stroke: #ee6677"/>
    <g clip-path="url(#p98af9ffea9)">
     <use xlink:href="#m48c6090737" x="73.832727" y="295.488" style="fill: #ee6677; stroke: #ee6677; stroke-linejoin: miter"/>
     <use xlink:href="#m48c6090737" x="114.170567" y="295.239529" style="fill: #ee6677; stroke: #ee6677; stroke-linejoin: miter"/>
     <use xlink:href="#m48c6090737" x="154.508406" y="295.316668" style="fill: #ee6677; stroke: #ee6677; stroke-linejoin: miter"/>
     <use xlink:href="#m48c6090737" x="194.846245" y="295.214518" style="fill: #ee6677; stroke: #ee6677; stroke-linejoin: miter"/>
     <use xlink:href="#m48c6090737" x="235.184085" y="295.333477" style="fill: #ee6677; stroke: #ee6677; stroke-linejoin: miter"/>
     <use xlink:href="#m48c6090737" x="275.521924" y="295.368238" style="fill: #ee6677; stroke: #ee6677; stroke-linejoin: miter"/>
     <use xlink:href="#m48c6090737" x="315.859763" y="295.335941" style="fill: #ee6677; stroke: #ee6677; stroke-linejoin: miter"/>
     <use xlink:href="#m48c6090737" x="356.197602" y="295.378222" style="fill: #ee6677; stroke: #ee6677; stroke-linejoin: miter"/>
     <use xlink:href="#m48c6090737" x="396.535442" y="295.425354" style="fill: #ee6677; stroke: #ee6677; stroke-linejoin: miter"/>
    </g>
   </g>
   <g id="line2d_40">
    <path d="M 73.832727 295.488 
L 74.483338 294.855906 
L 75.784558 294.758185 
L 87.495544 294.910588 
L 115.471787 295.264807 
L 143.448031 295.336472 
L 349.040889 295.371879 
L 398.487273 295.428907 
L 398.487273 295.428907 
" clip-path="url(#p98af9ffea9)" style="fill: none; stroke-dasharray: 3.7,1.6; stroke-dashoffset: 0; stroke: #228833"/>
    <g clip-path="url(#p98af9ffea9)">
     <use xlink:href="#mdcf9e3e40d" x="73.832727" y="295.488" style="fill: #228833; stroke: #228833; stroke-linejoin: miter"/>
     <use xlink:href="#mdcf9e3e40d" x="101.15836" y="295.124575" style="fill: #228833; stroke: #228833; stroke-linejoin: miter"/>
     <use xlink:href="#mdcf9e3e40d" x="128.483993" y="295.32145" style="fill: #228833; stroke: #228833; stroke-linejoin: miter"/>
     <use xlink:href="#mdcf9e3e40d" x="155.809627" y="295.321151" style="fill: #228833; stroke: #228833; stroke-linejoin: miter"/>
     <use xlink:href="#mdcf9e3e40d" x="183.13526" y="295.243517" style="fill: #228833; stroke: #228833; stroke-linejoin: miter"/>
     <use xlink:href="#mdcf9e3e40d" x="210.460893" y="295.271545" style="fill: #228833; stroke: #228833; stroke-linejoin: miter"/>
     <use xlink:href="#mdcf9e3e40d" x="237.786526" y="295.351836" style="fill: #228833; stroke: #228833; stroke-linejoin: miter"/>
     <use xlink:href="#mdcf9e3e40d" x="265.112159" y="295.376207" style="fill: #228833; stroke: #228833; stroke-linejoin: miter"/>
     <use xlink:href="#mdcf9e3e40d" x="292.437792" y="295.360184" style="fill: #228833; stroke: #228833; stroke-linejoin: miter"/>
     <use xlink:href="#mdcf9e3e40d" x="319.763425" y="295.342659" style="fill: #228833; stroke: #228833; stroke-linejoin: miter"/>
     <use xlink:href="#mdcf9e3e40d" x="347.089058" y="295.368809" style="fill: #228833; stroke: #228833; stroke-linejoin: miter"/>
     <use xlink:href="#mdcf9e3e40d" x="374.414691" y="295.408951" style="fill: #228833; stroke: #228833; stroke-linejoin: miter"/>
    </g>
   </g>
   <g id="line2d_41">
    <path d="M 73.832727 295.488 
L 74.483338 294.855653 
L 75.784558 294.758161 
L 87.495544 294.910837 
L 115.471787 295.265004 
L 143.448031 295.336512 
L 348.390279 295.370993 
L 398.487273 295.428958 
L 398.487273 295.428958 
" clip-path="url(#p98af9ffea9)" style="fill: none; stroke-dasharray: 3.7,1.6; stroke-dashoffset: 0; stroke: #ccbb44"/>
    <g clip-path="url(#p98af9ffea9)">
     <use xlink:href="#md5badb2e2c" x="73.832727" y="295.488" style="fill: #ccbb44; stroke: #ccbb44; stroke-linejoin: miter"/>
     <use xlink:href="#md5badb2e2c" x="110.917515" y="295.230879" style="fill: #ccbb44; stroke: #ccbb44; stroke-linejoin: miter"/>
     <use xlink:href="#md5badb2e2c" x="148.002303" y="295.333458" style="fill: #ccbb44; stroke: #ccbb44; stroke-linejoin: miter"/>
     <use xlink:href="#md5badb2e2c" x="185.087091" y="295.240017" style="fill: #ccbb44; stroke: #ccbb44; stroke-linejoin: miter"/>
     <use xlink:href="#md5badb2e2c" x="222.171878" y="295.311353" style="fill: #ccbb44; stroke: #ccbb44; stroke-linejoin: miter"/>
     <use xlink:href="#md5badb2e2c" x="259.256666" y="295.375304" style="fill: #ccbb44; stroke: #ccbb44; stroke-linejoin: miter"/>
     <use xlink:href="#md5badb2e2c" x="296.341454" y="295.356415" style="fill: #ccbb44; stroke: #ccbb44; stroke-linejoin: miter"/>
     <use xlink:href="#md5badb2e2c" x="333.426242" y="295.350532" style="fill: #ccbb44; stroke: #ccbb44; stroke-linejoin: miter"/>
     <use xlink:href="#md5badb2e2c" x="370.511029" y="295.404257" style="fill: #ccbb44; stroke: #ccbb44; stroke-linejoin: miter"/>
    </g>
   </g>
   <g id="line2d_42">
    <path d="M 73.832727 295.488 
L 74.483338 294.855601 
L 75.784558 294.758155 
L 87.495544 294.91092 
L 115.471787 295.265069 
L 143.448031 295.336526 
L 348.390279 295.37104 
L 398.487273 295.428975 
L 398.487273 295.428975 
" clip-path="url(#p98af9ffea9)" style="fill: none; stroke-dasharray: 3.7,1.6; stroke-dashoffset: 0; stroke: #aa3377"/>
    <g clip-path="url(#p98af9ffea9)">
     <use xlink:href="#me9fcfa3d9e" x="73.832727" y="295.488" style="fill: #aa3377; stroke: #aa3377; stroke-linejoin: miter"/>
     <use xlink:href="#me9fcfa3d9e" x="116.122398" y="295.269239" style="fill: #aa3377; stroke: #aa3377; stroke-linejoin: miter"/>
     <use xlink:href="#me9fcfa3d9e" x="158.412068" y="295.315237" style="fill: #aa3377; stroke: #aa3377; stroke-linejoin: miter"/>
     <use xlink:href="#me9fcfa3d9e" x="200.701738" y="295.244362" style="fill: #aa3377; stroke: #aa3377; stroke-linejoin: miter"/>
     <use xlink:href="#me9fcfa3d9e" x="242.991408" y="295.360952" style="fill: #aa3377; stroke: #aa3377; stroke-linejoin: miter"/>
     <use xlink:href="#me9fcfa3d9e" x="285.281079" y="295.366763" style="fill: #aa3377; stroke: #aa3377; stroke-linejoin: miter"/>
     <use xlink:href="#me9fcfa3d9e" x="327.570749" y="295.345601" style="fill: #aa3377; stroke: #aa3377; stroke-linejoin: miter"/>
     <use xlink:href="#me9fcfa3d9e" x="369.860419" y="295.403452" style="fill: #aa3377; stroke: #aa3377; stroke-linejoin: miter"/>
    </g>
   </g>
   <g id="line2d_43"/>
   <g id="line2d_44"/>
   <g id="patch_3">
    <path d="M 57.6 307.584 
L 57.6 41.472 
" style="fill: none; stroke: #262626; stroke-width: 0.5; stroke-linejoin: miter; stroke-linecap: square"/>
   </g>
   <g id="patch_4">
    <path d="M 57.6 307.584 
L 414.72 307.584 
" style="fill: none; stroke: #262626; stroke-width: 0.5; stroke-linejoin: miter; stroke-linecap: square"/>
   </g>
   <g id="legend_1">
    <g id="line2d_45">
     <path d="M 285 134.412187 
L 303 134.412187 
L 321 134.412187 
" style="fill: none; stroke: #4477aa; stroke-linecap: round"/>
     <g>
      <use xlink:href="#m443712b14e" x="303" y="134.412187" style="fill: #4477aa; stroke: #4477aa"/>
     </g>
    </g>
    <g id="text_18">
     <!-- 1X -->
     <g style="fill: #262626" transform="translate(335.4 140.712187)scale(0.18 -0.18)">
      <defs>
       <path id="Helvetica-58" d="M 881 0 
L 131 0 
L 1775 2353 
L 234 4591 
L 1013 4591 
L 2184 2834 
L 3347 4591 
L 4088 4591 
L 2547 2353 
L 4163 0 
L 3391 0 
L 2153 1888 
L 881 0 
z
" transform="scale(0.015625)"/>
      </defs>
      <use xlink:href="#Helvetica-31"/>
      <use xlink:href="#Helvetica-58" x="55.615234"/>
     </g>
    </g>
    <g id="line2d_46">
     <path d="M 285 160.07625 
L 303 160.07625 
L 321 160.07625 
" style="fill: none; stroke: #ee6677; stroke-linecap: round"/>
     <g>
      <use xlink:href="#m48c6090737" x="303" y="160.07625" style="fill: #ee6677; stroke: #ee6677; stroke-linejoin: miter"/>
     </g>
    </g>
    <g id="text_19">
     <!-- 30X -->
     <g style="fill: #262626" transform="translate(335.4 166.37625)scale(0.18 -0.18)">
      <defs>
       <path id="Helvetica-33" d="M 1663 -122 
Q 869 -122 511 314 
Q 153 750 153 1375 
L 741 1375 
Q 778 941 903 744 
Q 1122 391 1694 391 
Q 2138 391 2406 628 
Q 2675 866 2675 1241 
Q 2675 1703 2392 1887 
Q 2109 2072 1606 2072 
Q 1550 2072 1492 2070 
Q 1434 2069 1375 2066 
L 1375 2563 
Q 1463 2553 1522 2550 
Q 1581 2547 1650 2547 
Q 1966 2547 2169 2647 
Q 2525 2822 2525 3272 
Q 2525 3606 2287 3787 
Q 2050 3969 1734 3969 
Q 1172 3969 956 3594 
Q 838 3388 822 3006 
L 266 3006 
Q 266 3506 466 3856 
Q 809 4481 1675 4481 
Q 2359 4481 2734 4176 
Q 3109 3872 3109 3294 
Q 3109 2881 2888 2625 
Q 2750 2466 2531 2375 
Q 2884 2278 3082 2001 
Q 3281 1725 3281 1325 
Q 3281 684 2859 281 
Q 2438 -122 1663 -122 
z
" transform="scale(0.015625)"/>
      </defs>
      <use xlink:href="#Helvetica-33"/>
      <use xlink:href="#Helvetica-30" x="55.615234"/>
      <use xlink:href="#Helvetica-58" x="111.230469"/>
     </g>
    </g>
    <g id="line2d_47">
     <path d="M 285 185.740312 
L 303 185.740312 
L 321 185.740312 
" style="fill: none; stroke: #228833; stroke-linecap: round"/>
     <g>
      <use xlink:href="#mdcf9e3e40d" x="303" y="185.740312" style="fill: #228833; stroke: #228833; stroke-linejoin: miter"/>
     </g>
    </g>
    <g id="text_20">
     <!-- 60X -->
     <g style="fill: #262626" transform="translate(335.4 192.040312)scale(0.18 -0.18)">
      <use xlink:href="#Helvetica-36"/>
      <use xlink:href="#Helvetica-30" x="55.615234"/>
      <use xlink:href="#Helvetica-58" x="111.230469"/>
     </g>
    </g>
    <g id="line2d_48">
     <path d="M 285 211.404375 
L 303 211.404375 
L 321 211.404375 
" style="fill: none; stroke: #ccbb44; stroke-linecap: round"/>
     <g>
      <use xlink:href="#md5badb2e2c" x="303" y="211.404375" style="fill: #ccbb44; stroke: #ccbb44; stroke-linejoin: miter"/>
     </g>
    </g>
    <g id="text_21">
     <!-- 90X -->
     <g style="fill: #262626" transform="translate(335.4 217.704375)scale(0.18 -0.18)">
      <defs>
       <path id="Helvetica-39" d="M 850 1081 
Q 875 616 1209 438 
Q 1381 344 1597 344 
Q 2000 344 2284 680 
Q 2569 1016 2688 2044 
Q 2500 1747 2223 1626 
Q 1947 1506 1628 1506 
Q 981 1506 604 1909 
Q 228 2313 228 2947 
Q 228 3556 600 4018 
Q 972 4481 1697 4481 
Q 2675 4481 3047 3600 
Q 3253 3116 3253 2388 
Q 3253 1566 3006 931 
Q 2597 -125 1619 -125 
Q 963 -125 622 219 
Q 281 563 281 1081 
L 850 1081 
z
M 1703 2000 
Q 2038 2000 2314 2220 
Q 2591 2441 2591 2991 
Q 2591 3484 2342 3726 
Q 2094 3969 1709 3969 
Q 1297 3969 1055 3692 
Q 813 3416 813 2953 
Q 813 2516 1025 2258 
Q 1238 2000 1703 2000 
z
" transform="scale(0.015625)"/>
      </defs>
      <use xlink:href="#Helvetica-39"/>
      <use xlink:href="#Helvetica-30" x="55.615234"/>
      <use xlink:href="#Helvetica-58" x="111.230469"/>
     </g>
    </g>
    <g id="line2d_49">
     <path d="M 285 237.068437 
L 303 237.068437 
L 321 237.068437 
" style="fill: none; stroke: #aa3377; stroke-linecap: round"/>
     <g>
      <use xlink:href="#me9fcfa3d9e" x="303" y="237.068437" style="fill: #aa3377; stroke: #aa3377; stroke-linejoin: miter"/>
     </g>
    </g>
    <g id="text_22">
     <!-- 100X -->
     <g style="fill: #262626" transform="translate(335.4 243.368437)scale(0.18 -0.18)">
      <use xlink:href="#Helvetica-31"/>
      <use xlink:href="#Helvetica-30" x="55.615234"/>
      <use xlink:href="#Helvetica-30" x="111.230469"/>
      <use xlink:href="#Helvetica-58" x="166.845703"/>
     </g>
    </g>
    <g id="line2d_50">
     <path d="M 285 262.7325 
L 303 262.7325 
L 321 262.7325 
" style="fill: none; stroke: #000000; stroke-width: 1.5; stroke-linecap: round"/>
    </g>
    <g id="text_23">
     <!-- w/o cancellation -->
     <g style="fill: #262626" transform="translate(335.4 269.0325)scale(0.18 -0.18)">
      <defs>
       <path id="Helvetica-77" d="M 672 3347 
L 1316 709 
L 1969 3347 
L 2600 3347 
L 3256 725 
L 3941 3347 
L 4503 3347 
L 3531 0 
L 2947 0 
L 2266 2591 
L 1606 0 
L 1022 0 
L 56 3347 
L 672 3347 
z
" transform="scale(0.015625)"/>
       <path id="Helvetica-2f" d="M 1456 4591 
L 1931 4591 
L 475 0 
L 0 0 
L 1456 4591 
z
" transform="scale(0.015625)"/>
       <path id="Helvetica-6c" d="M 428 4591 
L 991 4591 
L 991 0 
L 428 0 
L 428 4591 
z
" transform="scale(0.015625)"/>
      </defs>
      <use xlink:href="#Helvetica-77"/>
      <use xlink:href="#Helvetica-2f" x="72.216797"/>
      <use xlink:href="#Helvetica-6f" x="100"/>
      <use xlink:href="#Helvetica-20" x="155.615234"/>
      <use xlink:href="#Helvetica-63" x="183.398438"/>
      <use xlink:href="#Helvetica-61" x="233.398438"/>
      <use xlink:href="#Helvetica-6e" x="289.013672"/>
      <use xlink:href="#Helvetica-63" x="344.628906"/>
      <use xlink:href="#Helvetica-65" x="394.628906"/>
      <use xlink:href="#Helvetica-6c" x="450.244141"/>
      <use xlink:href="#Helvetica-6c" x="472.460938"/>
      <use xlink:href="#Helvetica-61" x="494.677734"/>
      <use xlink:href="#Helvetica-74" x="550.292969"/>
      <use xlink:href="#Helvetica-69" x="578.076172"/>
      <use xlink:href="#Helvetica-6f" x="600.292969"/>
      <use xlink:href="#Helvetica-6e" x="655.908203"/>
     </g>
    </g>
    <g id="line2d_51">
     <path d="M 285 288.396562 
L 303 288.396562 
L 321 288.396562 
" style="fill: none; stroke-dasharray: 5.55,2.4; stroke-dashoffset: 0; stroke: #000000; stroke-width: 1.5"/>
    </g>
    <g id="text_24">
     <!-- w/ cancellation -->
     <g style="fill: #262626" transform="translate(335.4 294.696562)scale(0.18 -0.18)">
      <use xlink:href="#Helvetica-77"/>
      <use xlink:href="#Helvetica-2f" x="72.216797"/>
      <use xlink:href="#Helvetica-20" x="100"/>
      <use xlink:href="#Helvetica-63" x="127.783203"/>
      <use xlink:href="#Helvetica-61" x="177.783203"/>
      <use xlink:href="#Helvetica-6e" x="233.398438"/>
      <use xlink:href="#Helvetica-63" x="289.013672"/>
      <use xlink:href="#Helvetica-65" x="339.013672"/>
      <use xlink:href="#Helvetica-6c" x="394.628906"/>
      <use xlink:href="#Helvetica-6c" x="416.845703"/>
      <use xlink:href="#Helvetica-61" x="439.0625"/>
      <use xlink:href="#Helvetica-74" x="494.677734"/>
      <use xlink:href="#Helvetica-69" x="522.460938"/>
      <use xlink:href="#Helvetica-6f" x="544.677734"/>
      <use xlink:href="#Helvetica-6e" x="600.292969"/>
     </g>
    </g>
   </g>
  </g>
 </g>
 <defs>
  <clipPath id="p98af9ffea9">
   <rect x="57.6" y="41.472" width="357.12" height="266.112"/>
  </clipPath>
 </defs>
</svg>
