<?xml version="1.0" encoding="utf-8" standalone="no"?>
<!DOCTYPE svg PUBLIC "-//W3C//DTD SVG 1.1//EN"
  "http://www.w3.org/Graphics/SVG/1.1/DTD/svg11.dtd">
<svg xmlns:xlink="http://www.w3.org/1999/xlink" width="460.8pt" height="345.6pt" viewBox="0 0 460.8 345.6" xmlns="http://www.w3.org/2000/svg" version="1.1">
 <metadata>
  <rdf:RDF xmlns:dc="http://purl.org/dc/elements/1.1/" xmlns:cc="http://creativecommons.org/ns#" xmlns:rdf="http://www.w3.org/1999/02/22-rdf-syntax-ns#">
   <cc:Work>
    <dc:type rdf:resource="http://purl.org/dc/dcmitype/StillImage"/>
    <dc:date>2024-04-08T11:20:21.728921</dc:date>
    <dc:format>image/svg+xml</dc:format>
    <dc:creator>
     <cc:Agent>
      <dc:title>Matplotlib v3.5.1, https://matplotlib.org/</dc:title>
     </cc:Agent>
    </dc:creator>
   </cc:Work>
  </rdf:RDF>
 </metadata>
 <defs>
  <style type="text/css">*{stroke-linejoin: round; stroke-linecap: butt}</style>
 </defs>
 <g id="figure_1">
  <g id="patch_1">
   <path d="M 0 345.6 
L 460.8 345.6 
L 460.8 0 
L 0 0 
z
" style="fill: #ffffff"/>
  </g>
  <g id="axes_1">
   <g id="patch_2">
    <path d="M 57.6 307.584 
L 414.72 307.584 
L 414.72 41.472 
L 57.6 41.472 
z
" style="fill: #ffffff"/>
   </g>
   <g id="matplotlib.axis_1">
    <g id="xtick_1">
     <g id="line2d_1">
      <defs>
       <path id="m5c08bf8502" d="M 0 0 
L 0 4 
" style="stroke: #262626"/>
      </defs>
      <g>
       <use xlink:href="#m5c08bf8502" x="73.832727" y="307.584" style="fill: #262626; stroke: #262626"/>
      </g>
     </g>
     <g id="text_1">
      <!-- 0 -->
      <g style="fill: #262626" transform="translate(69.940071 325.126812)scale(0.14 -0.14)">
       <defs>
        <path id="Helvetica-30" d="M 1731 4475 
Q 2600 4475 2988 3759 
Q 3288 3206 3288 2244 
Q 3288 1331 3016 734 
Q 2622 -122 1728 -122 
Q 922 -122 528 578 
Q 200 1163 200 2147 
Q 200 2909 397 3456 
Q 766 4475 1731 4475 
z
M 1725 391 
Q 2163 391 2422 778 
Q 2681 1166 2681 2222 
Q 2681 2984 2493 3476 
Q 2306 3969 1766 3969 
Q 1269 3969 1039 3501 
Q 809 3034 809 2125 
Q 809 1441 956 1025 
Q 1181 391 1725 391 
z
" transform="scale(0.015625)"/>
       </defs>
       <use xlink:href="#Helvetica-30"/>
      </g>
     </g>
    </g>
    <g id="xtick_2">
     <g id="line2d_2">
      <g>
       <use xlink:href="#m5c08bf8502" x="127.941818" y="307.584" style="fill: #262626; stroke: #262626"/>
      </g>
     </g>
     <g id="text_2">
      <!-- 10 -->
      <g style="fill: #262626" transform="translate(120.156506 325.126812)scale(0.14 -0.14)">
       <defs>
        <path id="Helvetica-31" d="M 613 3169 
L 613 3600 
Q 1222 3659 1462 3798 
Q 1703 3938 1822 4456 
L 2266 4456 
L 2266 0 
L 1666 0 
L 1666 3169 
L 613 3169 
z
" transform="scale(0.015625)"/>
       </defs>
       <use xlink:href="#Helvetica-31"/>
       <use xlink:href="#Helvetica-30" x="55.615234"/>
      </g>
     </g>
    </g>
    <g id="xtick_3">
     <g id="line2d_3">
      <g>
       <use xlink:href="#m5c08bf8502" x="182.050909" y="307.584" style="fill: #262626; stroke: #262626"/>
      </g>
     </g>
     <g id="text_3">
      <!-- 20 -->
      <g style="fill: #262626" transform="translate(174.265597 325.126812)scale(0.14 -0.14)">
       <defs>
        <path id="Helvetica-32" d="M 200 0 
Q 231 578 439 1006 
Q 647 1434 1250 1784 
L 1850 2131 
Q 2253 2366 2416 2531 
Q 2672 2791 2672 3125 
Q 2672 3516 2437 3745 
Q 2203 3975 1813 3975 
Q 1234 3975 1013 3538 
Q 894 3303 881 2888 
L 309 2888 
Q 319 3472 525 3841 
Q 891 4491 1816 4491 
Q 2584 4491 2939 4075 
Q 3294 3659 3294 3150 
Q 3294 2613 2916 2231 
Q 2697 2009 2131 1694 
L 1703 1456 
Q 1397 1288 1222 1134 
Q 909 863 828 531 
L 3272 531 
L 3272 0 
L 200 0 
z
" transform="scale(0.015625)"/>
       </defs>
       <use xlink:href="#Helvetica-32"/>
       <use xlink:href="#Helvetica-30" x="55.615234"/>
      </g>
     </g>
    </g>
    <g id="xtick_4">
     <g id="line2d_4">
      <g>
       <use xlink:href="#m5c08bf8502" x="236.16" y="307.584" style="fill: #262626; stroke: #262626"/>
      </g>
     </g>
     <g id="text_4">
      <!-- 30 -->
      <g style="fill: #262626" transform="translate(228.374688 325.126812)scale(0.14 -0.14)">
       <defs>
        <path id="Helvetica-33" d="M 1663 -122 
Q 869 -122 511 314 
Q 153 750 153 1375 
L 741 1375 
Q 778 941 903 744 
Q 1122 391 1694 391 
Q 2138 391 2406 628 
Q 2675 866 2675 1241 
Q 2675 1703 2392 1887 
Q 2109 2072 1606 2072 
Q 1550 2072 1492 2070 
Q 1434 2069 1375 2066 
L 1375 2563 
Q 1463 2553 1522 2550 
Q 1581 2547 1650 2547 
Q 1966 2547 2169 2647 
Q 2525 2822 2525 3272 
Q 2525 3606 2287 3787 
Q 2050 3969 1734 3969 
Q 1172 3969 956 3594 
Q 838 3388 822 3006 
L 266 3006 
Q 266 3506 466 3856 
Q 809 4481 1675 4481 
Q 2359 4481 2734 4176 
Q 3109 3872 3109 3294 
Q 3109 2881 2888 2625 
Q 2750 2466 2531 2375 
Q 2884 2278 3082 2001 
Q 3281 1725 3281 1325 
Q 3281 684 2859 281 
Q 2438 -122 1663 -122 
z
" transform="scale(0.015625)"/>
       </defs>
       <use xlink:href="#Helvetica-33"/>
       <use xlink:href="#Helvetica-30" x="55.615234"/>
      </g>
     </g>
    </g>
    <g id="xtick_5">
     <g id="line2d_5">
      <g>
       <use xlink:href="#m5c08bf8502" x="290.269091" y="307.584" style="fill: #262626; stroke: #262626"/>
      </g>
     </g>
     <g id="text_5">
      <!-- 40 -->
      <g style="fill: #262626" transform="translate(282.483778 325.126812)scale(0.14 -0.14)">
       <defs>
        <path id="Helvetica-34" d="M 2116 1584 
L 2116 3613 
L 681 1584 
L 2116 1584 
z
M 2125 0 
L 2125 1094 
L 163 1094 
L 163 1644 
L 2213 4488 
L 2688 4488 
L 2688 1584 
L 3347 1584 
L 3347 1094 
L 2688 1094 
L 2688 0 
L 2125 0 
z
" transform="scale(0.015625)"/>
       </defs>
       <use xlink:href="#Helvetica-34"/>
       <use xlink:href="#Helvetica-30" x="55.615234"/>
      </g>
     </g>
    </g>
    <g id="xtick_6">
     <g id="line2d_6">
      <g>
       <use xlink:href="#m5c08bf8502" x="344.378182" y="307.584" style="fill: #262626; stroke: #262626"/>
      </g>
     </g>
     <g id="text_6">
      <!-- 50 -->
      <g style="fill: #262626" transform="translate(336.592869 325.126812)scale(0.14 -0.14)">
       <defs>
        <path id="Helvetica-35" d="M 791 1141 
Q 847 659 1238 475 
Q 1438 381 1700 381 
Q 2200 381 2440 700 
Q 2681 1019 2681 1406 
Q 2681 1875 2395 2131 
Q 2109 2388 1709 2388 
Q 1419 2388 1211 2275 
Q 1003 2163 856 1963 
L 369 1991 
L 709 4400 
L 3034 4400 
L 3034 3856 
L 1131 3856 
L 941 2613 
Q 1097 2731 1238 2791 
Q 1488 2894 1816 2894 
Q 2431 2894 2859 2497 
Q 3288 2100 3288 1491 
Q 3288 856 2895 371 
Q 2503 -113 1644 -113 
Q 1097 -113 676 195 
Q 256 503 206 1141 
L 791 1141 
z
" transform="scale(0.015625)"/>
       </defs>
       <use xlink:href="#Helvetica-35"/>
       <use xlink:href="#Helvetica-30" x="55.615234"/>
      </g>
     </g>
    </g>
    <g id="xtick_7">
     <g id="line2d_7">
      <g>
       <use xlink:href="#m5c08bf8502" x="398.487273" y="307.584" style="fill: #262626; stroke: #262626"/>
      </g>
     </g>
     <g id="text_7">
      <!-- 60 -->
      <g style="fill: #262626" transform="translate(390.70196 325.126812)scale(0.14 -0.14)">
       <defs>
        <path id="Helvetica-36" d="M 1872 4494 
Q 2622 4494 2917 4105 
Q 3213 3716 3213 3303 
L 2656 3303 
Q 2606 3569 2497 3719 
Q 2294 4000 1881 4000 
Q 1409 4000 1131 3564 
Q 853 3128 822 2316 
Q 1016 2600 1309 2741 
Q 1578 2866 1909 2866 
Q 2472 2866 2890 2506 
Q 3309 2147 3309 1434 
Q 3309 825 2912 354 
Q 2516 -116 1781 -116 
Q 1153 -116 697 361 
Q 241 838 241 1966 
Q 241 2800 444 3381 
Q 834 4494 1872 4494 
z
M 1831 384 
Q 2275 384 2495 682 
Q 2716 981 2716 1388 
Q 2716 1731 2519 2042 
Q 2322 2353 1803 2353 
Q 1441 2353 1167 2112 
Q 894 1872 894 1388 
Q 894 963 1142 673 
Q 1391 384 1831 384 
z
" transform="scale(0.015625)"/>
       </defs>
       <use xlink:href="#Helvetica-36"/>
       <use xlink:href="#Helvetica-30" x="55.615234"/>
      </g>
     </g>
    </g>
    <g id="text_8">
     <!-- Time (hours) -->
     <g style="fill: #262626" transform="translate(185.156719 345.089312)scale(0.18 -0.18)">
      <defs>
       <path id="Helvetica-54" d="M 3828 4591 
L 3828 4044 
L 2281 4044 
L 2281 0 
L 1650 0 
L 1650 4044 
L 103 4044 
L 103 4591 
L 3828 4591 
z
" transform="scale(0.015625)"/>
       <path id="Helvetica-69" d="M 413 3331 
L 984 3331 
L 984 0 
L 413 0 
L 413 3331 
z
M 413 4591 
L 984 4591 
L 984 3953 
L 413 3953 
L 413 4591 
z
" transform="scale(0.015625)"/>
       <path id="Helvetica-6d" d="M 413 3347 
L 969 3347 
L 969 2872 
Q 1169 3119 1331 3231 
Q 1609 3422 1963 3422 
Q 2363 3422 2606 3225 
Q 2744 3113 2856 2894 
Q 3044 3163 3297 3292 
Q 3550 3422 3866 3422 
Q 4541 3422 4784 2934 
Q 4916 2672 4916 2228 
L 4916 0 
L 4331 0 
L 4331 2325 
Q 4331 2659 4164 2784 
Q 3997 2909 3756 2909 
Q 3425 2909 3186 2687 
Q 2947 2466 2947 1947 
L 2947 0 
L 2375 0 
L 2375 2184 
Q 2375 2525 2294 2681 
Q 2166 2916 1816 2916 
Q 1497 2916 1236 2669 
Q 975 2422 975 1775 
L 975 0 
L 413 0 
L 413 3347 
z
" transform="scale(0.015625)"/>
       <path id="Helvetica-65" d="M 1806 3422 
Q 2163 3422 2497 3255 
Q 2831 3088 3006 2822 
Q 3175 2569 3231 2231 
Q 3281 2000 3281 1494 
L 828 1494 
Q 844 984 1069 676 
Q 1294 369 1766 369 
Q 2206 369 2469 659 
Q 2619 828 2681 1050 
L 3234 1050 
Q 3213 866 3089 639 
Q 2966 413 2813 269 
Q 2556 19 2178 -69 
Q 1975 -119 1719 -119 
Q 1094 -119 659 336 
Q 225 791 225 1609 
Q 225 2416 662 2919 
Q 1100 3422 1806 3422 
z
M 2703 1941 
Q 2669 2306 2544 2525 
Q 2313 2931 1772 2931 
Q 1384 2931 1121 2651 
Q 859 2372 844 1941 
L 2703 1941 
z
M 1753 3428 
L 1753 3428 
z
" transform="scale(0.015625)"/>
       <path id="Helvetica-20" transform="scale(0.015625)"/>
       <path id="Helvetica-28" d="M 1894 4666 
Q 1403 3713 1256 3263 
Q 1034 2578 1034 1681 
Q 1034 775 1288 25 
Q 1444 -438 1903 -1306 
L 1525 -1306 
Q 1069 -594 959 -397 
Q 850 -200 722 138 
Q 547 600 478 1125 
Q 444 1397 444 1644 
Q 444 2569 734 3291 
Q 919 3750 1503 4666 
L 1894 4666 
z
" transform="scale(0.015625)"/>
       <path id="Helvetica-68" d="M 413 4606 
L 975 4606 
L 975 2894 
Q 1175 3147 1334 3250 
Q 1606 3428 2013 3428 
Q 2741 3428 3000 2919 
Q 3141 2641 3141 2147 
L 3141 0 
L 2563 0 
L 2563 2109 
Q 2563 2478 2469 2650 
Q 2316 2925 1894 2925 
Q 1544 2925 1259 2684 
Q 975 2444 975 1775 
L 975 0 
L 413 0 
L 413 4606 
z
" transform="scale(0.015625)"/>
       <path id="Helvetica-6f" d="M 1741 363 
Q 2300 363 2508 786 
Q 2716 1209 2716 1728 
Q 2716 2197 2566 2491 
Q 2328 2953 1747 2953 
Q 1231 2953 997 2559 
Q 763 2166 763 1609 
Q 763 1075 997 719 
Q 1231 363 1741 363 
z
M 1763 3444 
Q 2409 3444 2856 3012 
Q 3303 2581 3303 1744 
Q 3303 934 2909 406 
Q 2516 -122 1688 -122 
Q 997 -122 590 345 
Q 184 813 184 1600 
Q 184 2444 612 2944 
Q 1041 3444 1763 3444 
z
M 1744 3428 
L 1744 3428 
z
" transform="scale(0.015625)"/>
       <path id="Helvetica-75" d="M 975 3347 
L 975 1125 
Q 975 869 1056 706 
Q 1206 406 1616 406 
Q 2203 406 2416 931 
Q 2531 1213 2531 1703 
L 2531 3347 
L 3094 3347 
L 3094 0 
L 2563 0 
L 2569 494 
Q 2459 303 2297 172 
Q 1975 -91 1516 -91 
Q 800 -91 541 388 
Q 400 644 400 1072 
L 400 3347 
L 975 3347 
z
M 1747 3428 
L 1747 3428 
z
" transform="scale(0.015625)"/>
       <path id="Helvetica-72" d="M 428 3347 
L 963 3347 
L 963 2769 
Q 1028 2938 1284 3180 
Q 1541 3422 1875 3422 
Q 1891 3422 1928 3419 
Q 1966 3416 2056 3406 
L 2056 2813 
Q 2006 2822 1964 2825 
Q 1922 2828 1872 2828 
Q 1447 2828 1219 2554 
Q 991 2281 991 1925 
L 991 0 
L 428 0 
L 428 3347 
z
" transform="scale(0.015625)"/>
       <path id="Helvetica-73" d="M 747 1050 
Q 772 769 888 619 
Q 1100 347 1625 347 
Q 1938 347 2175 483 
Q 2413 619 2413 903 
Q 2413 1119 2222 1231 
Q 2100 1300 1741 1391 
L 1294 1503 
Q 866 1609 663 1741 
Q 300 1969 300 2372 
Q 300 2847 642 3140 
Q 984 3434 1563 3434 
Q 2319 3434 2653 2991 
Q 2863 2709 2856 2384 
L 2325 2384 
Q 2309 2575 2191 2731 
Q 1997 2953 1519 2953 
Q 1200 2953 1036 2831 
Q 872 2709 872 2509 
Q 872 2291 1088 2159 
Q 1213 2081 1456 2022 
L 1828 1931 
Q 2434 1784 2641 1647 
Q 2969 1431 2969 969 
Q 2969 522 2630 197 
Q 2291 -128 1597 -128 
Q 850 -128 539 211 
Q 228 550 206 1050 
L 747 1050 
z
M 1578 3428 
L 1578 3428 
z
" transform="scale(0.015625)"/>
       <path id="Helvetica-29" d="M 222 -1306 
Q 719 -338 863 106 
Q 1081 778 1081 1681 
Q 1081 2584 828 3334 
Q 672 3797 213 4666 
L 591 4666 
Q 1072 3897 1173 3717 
Q 1275 3538 1394 3222 
Q 1544 2831 1608 2450 
Q 1672 2069 1672 1716 
Q 1672 791 1378 66 
Q 1194 -400 613 -1306 
L 222 -1306 
z
" transform="scale(0.015625)"/>
      </defs>
      <use xlink:href="#Helvetica-54"/>
      <use xlink:href="#Helvetica-69" x="61.083984"/>
      <use xlink:href="#Helvetica-6d" x="83.300781"/>
      <use xlink:href="#Helvetica-65" x="166.601562"/>
      <use xlink:href="#Helvetica-20" x="222.216797"/>
      <use xlink:href="#Helvetica-28" x="250"/>
      <use xlink:href="#Helvetica-68" x="283.300781"/>
      <use xlink:href="#Helvetica-6f" x="338.916016"/>
      <use xlink:href="#Helvetica-75" x="394.53125"/>
      <use xlink:href="#Helvetica-72" x="450.146484"/>
      <use xlink:href="#Helvetica-73" x="483.447266"/>
      <use xlink:href="#Helvetica-29" x="533.447266"/>
     </g>
    </g>
   </g>
   <g id="matplotlib.axis_2">
    <g id="ytick_1">
     <g id="line2d_8">
      <defs>
       <path id="mdecf7b8732" d="M 0 0 
L -4 0 
" style="stroke: #262626"/>
      </defs>
      <g>
       <use xlink:href="#mdecf7b8732" x="57.6" y="295.488" style="fill: #262626; stroke: #262626"/>
      </g>
     </g>
     <g id="text_9">
      <!-- 0 -->
      <g style="fill: #262626" transform="translate(42.314687 300.509406)scale(0.14 -0.14)">
       <use xlink:href="#Helvetica-30"/>
      </g>
     </g>
    </g>
    <g id="ytick_2">
     <g id="line2d_9">
      <g>
       <use xlink:href="#mdecf7b8732" x="57.6" y="251.502545" style="fill: #262626; stroke: #262626"/>
      </g>
     </g>
     <g id="text_10">
      <!-- 2 -->
      <g style="fill: #262626" transform="translate(42.314687 256.523952)scale(0.14 -0.14)">
       <use xlink:href="#Helvetica-32"/>
      </g>
     </g>
    </g>
    <g id="ytick_3">
     <g id="line2d_10">
      <g>
       <use xlink:href="#mdecf7b8732" x="57.6" y="207.517091" style="fill: #262626; stroke: #262626"/>
      </g>
     </g>
     <g id="text_11">
      <!-- 4 -->
      <g style="fill: #262626" transform="translate(42.314687 212.538497)scale(0.14 -0.14)">
       <use xlink:href="#Helvetica-34"/>
      </g>
     </g>
    </g>
    <g id="ytick_4">
     <g id="line2d_11">
      <g>
       <use xlink:href="#mdecf7b8732" x="57.6" y="163.531636" style="fill: #262626; stroke: #262626"/>
      </g>
     </g>
     <g id="text_12">
      <!-- 6 -->
      <g style="fill: #262626" transform="translate(42.314687 168.553043)scale(0.14 -0.14)">
       <use xlink:href="#Helvetica-36"/>
      </g>
     </g>
    </g>
    <g id="ytick_5">
     <g id="line2d_12">
      <g>
       <use xlink:href="#mdecf7b8732" x="57.6" y="119.546182" style="fill: #262626; stroke: #262626"/>
      </g>
     </g>
     <g id="text_13">
      <!-- 8 -->
      <g style="fill: #262626" transform="translate(42.314687 124.567588)scale(0.14 -0.14)">
       <defs>
        <path id="Helvetica-38" d="M 1741 2600 
Q 2113 2600 2322 2808 
Q 2531 3016 2531 3303 
Q 2531 3553 2331 3762 
Q 2131 3972 1722 3972 
Q 1316 3972 1134 3762 
Q 953 3553 953 3272 
Q 953 2956 1187 2778 
Q 1422 2600 1741 2600 
z
M 1775 384 
Q 2166 384 2423 595 
Q 2681 806 2681 1225 
Q 2681 1659 2415 1884 
Q 2150 2109 1734 2109 
Q 1331 2109 1076 1879 
Q 822 1650 822 1244 
Q 822 894 1055 639 
Q 1288 384 1775 384 
z
M 975 2384 
Q 741 2484 609 2619 
Q 363 2869 363 3269 
Q 363 3769 725 4128 
Q 1088 4488 1753 4488 
Q 2397 4488 2762 4148 
Q 3128 3809 3128 3356 
Q 3128 2938 2916 2678 
Q 2797 2531 2547 2391 
Q 2825 2263 2984 2097 
Q 3281 1784 3281 1284 
Q 3281 694 2884 283 
Q 2488 -128 1763 -128 
Q 1109 -128 657 226 
Q 206 581 206 1256 
Q 206 1653 400 1942 
Q 594 2231 975 2384 
z
" transform="scale(0.015625)"/>
       </defs>
       <use xlink:href="#Helvetica-38"/>
      </g>
     </g>
    </g>
    <g id="ytick_6">
     <g id="line2d_13">
      <g>
       <use xlink:href="#mdecf7b8732" x="57.6" y="75.560727" style="fill: #262626; stroke: #262626"/>
      </g>
     </g>
     <g id="text_14">
      <!-- 10 -->
      <g style="fill: #262626" transform="translate(34.529375 80.582134)scale(0.14 -0.14)">
       <use xlink:href="#Helvetica-31"/>
       <use xlink:href="#Helvetica-30" x="55.615234"/>
      </g>
     </g>
    </g>
    <g id="ytick_7">
     <g id="line2d_14">
      <defs>
       <path id="m2752319c18" d="M 0 0 
L -2 0 
" style="stroke: #262626"/>
      </defs>
      <g>
       <use xlink:href="#m2752319c18" x="57.6" y="306.484364" style="fill: #262626; stroke: #262626"/>
      </g>
     </g>
    </g>
    <g id="ytick_8">
     <g id="line2d_15">
      <g>
       <use xlink:href="#m2752319c18" x="57.6" y="284.491636" style="fill: #262626; stroke: #262626"/>
      </g>
     </g>
    </g>
    <g id="ytick_9">
     <g id="line2d_16">
      <g>
       <use xlink:href="#m2752319c18" x="57.6" y="273.495273" style="fill: #262626; stroke: #262626"/>
      </g>
     </g>
    </g>
    <g id="ytick_10">
     <g id="line2d_17">
      <g>
       <use xlink:href="#m2752319c18" x="57.6" y="262.498909" style="fill: #262626; stroke: #262626"/>
      </g>
     </g>
    </g>
    <g id="ytick_11">
     <g id="line2d_18">
      <g>
       <use xlink:href="#m2752319c18" x="57.6" y="240.506182" style="fill: #262626; stroke: #262626"/>
      </g>
     </g>
    </g>
    <g id="ytick_12">
     <g id="line2d_19">
      <g>
       <use xlink:href="#m2752319c18" x="57.6" y="229.509818" style="fill: #262626; stroke: #262626"/>
      </g>
     </g>
    </g>
    <g id="ytick_13">
     <g id="line2d_20">
      <g>
       <use xlink:href="#m2752319c18" x="57.6" y="218.513455" style="fill: #262626; stroke: #262626"/>
      </g>
     </g>
    </g>
    <g id="ytick_14">
     <g id="line2d_21">
      <g>
       <use xlink:href="#m2752319c18" x="57.6" y="196.520727" style="fill: #262626; stroke: #262626"/>
      </g>
     </g>
    </g>
    <g id="ytick_15">
     <g id="line2d_22">
      <g>
       <use xlink:href="#m2752319c18" x="57.6" y="185.524364" style="fill: #262626; stroke: #262626"/>
      </g>
     </g>
    </g>
    <g id="ytick_16">
     <g id="line2d_23">
      <g>
       <use xlink:href="#m2752319c18" x="57.6" y="174.528" style="fill: #262626; stroke: #262626"/>
      </g>
     </g>
    </g>
    <g id="ytick_17">
     <g id="line2d_24">
      <g>
       <use xlink:href="#m2752319c18" x="57.6" y="152.535273" style="fill: #262626; stroke: #262626"/>
      </g>
     </g>
    </g>
    <g id="ytick_18">
     <g id="line2d_25">
      <g>
       <use xlink:href="#m2752319c18" x="57.6" y="141.538909" style="fill: #262626; stroke: #262626"/>
      </g>
     </g>
    </g>
    <g id="ytick_19">
     <g id="line2d_26">
      <g>
       <use xlink:href="#m2752319c18" x="57.6" y="130.542545" style="fill: #262626; stroke: #262626"/>
      </g>
     </g>
    </g>
    <g id="ytick_20">
     <g id="line2d_27">
      <g>
       <use xlink:href="#m2752319c18" x="57.6" y="108.549818" style="fill: #262626; stroke: #262626"/>
      </g>
     </g>
    </g>
    <g id="ytick_21">
     <g id="line2d_28">
      <g>
       <use xlink:href="#m2752319c18" x="57.6" y="97.553455" style="fill: #262626; stroke: #262626"/>
      </g>
     </g>
    </g>
    <g id="ytick_22">
     <g id="line2d_29">
      <g>
       <use xlink:href="#m2752319c18" x="57.6" y="86.557091" style="fill: #262626; stroke: #262626"/>
      </g>
     </g>
    </g>
    <g id="ytick_23">
     <g id="line2d_30">
      <g>
       <use xlink:href="#m2752319c18" x="57.6" y="64.564364" style="fill: #262626; stroke: #262626"/>
      </g>
     </g>
    </g>
    <g id="ytick_24">
     <g id="line2d_31">
      <g>
       <use xlink:href="#m2752319c18" x="57.6" y="53.568" style="fill: #262626; stroke: #262626"/>
      </g>
     </g>
    </g>
    <g id="ytick_25">
     <g id="line2d_32">
      <g>
       <use xlink:href="#m2752319c18" x="57.6" y="42.571636" style="fill: #262626; stroke: #262626"/>
      </g>
     </g>
    </g>
    <g id="text_15">
     <!-- Concentration (nM) -->
     <g style="fill: #262626" transform="translate(26.7775 251.553937)rotate(-90)scale(0.18 -0.18)">
      <defs>
       <path id="Helvetica-43" d="M 2422 4716 
Q 3294 4716 3775 4256 
Q 4256 3797 4309 3213 
L 3703 3213 
Q 3600 3656 3292 3915 
Q 2984 4175 2428 4175 
Q 1750 4175 1333 3698 
Q 916 3222 916 2238 
Q 916 1431 1292 929 
Q 1669 428 2416 428 
Q 3103 428 3463 956 
Q 3653 1234 3747 1688 
L 4353 1688 
Q 4272 963 3816 472 
Q 3269 -119 2341 -119 
Q 1541 -119 997 366 
Q 281 1006 281 2344 
Q 281 3359 819 4009 
Q 1400 4716 2422 4716 
z
M 2297 4716 
L 2297 4716 
z
" transform="scale(0.015625)"/>
       <path id="Helvetica-6e" d="M 413 3347 
L 947 3347 
L 947 2872 
Q 1184 3166 1450 3294 
Q 1716 3422 2041 3422 
Q 2753 3422 3003 2925 
Q 3141 2653 3141 2147 
L 3141 0 
L 2569 0 
L 2569 2109 
Q 2569 2416 2478 2603 
Q 2328 2916 1934 2916 
Q 1734 2916 1606 2875 
Q 1375 2806 1200 2600 
Q 1059 2434 1017 2257 
Q 975 2081 975 1753 
L 975 0 
L 413 0 
L 413 3347 
z
M 1734 3428 
L 1734 3428 
z
" transform="scale(0.015625)"/>
       <path id="Helvetica-63" d="M 1703 3444 
Q 2269 3444 2623 3169 
Q 2978 2894 3050 2222 
L 2503 2222 
Q 2453 2531 2275 2736 
Q 2097 2941 1703 2941 
Q 1166 2941 934 2416 
Q 784 2075 784 1575 
Q 784 1072 996 728 
Q 1209 384 1666 384 
Q 2016 384 2220 598 
Q 2425 813 2503 1184 
L 3050 1184 
Q 2956 519 2581 211 
Q 2206 -97 1622 -97 
Q 966 -97 575 383 
Q 184 863 184 1581 
Q 184 2463 612 2953 
Q 1041 3444 1703 3444 
z
M 1616 3428 
L 1616 3428 
z
" transform="scale(0.015625)"/>
       <path id="Helvetica-74" d="M 525 4281 
L 1094 4281 
L 1094 3347 
L 1628 3347 
L 1628 2888 
L 1094 2888 
L 1094 703 
Q 1094 528 1213 469 
Q 1278 434 1431 434 
Q 1472 434 1519 436 
Q 1566 438 1628 444 
L 1628 0 
Q 1531 -28 1426 -40 
Q 1322 -53 1200 -53 
Q 806 -53 665 148 
Q 525 350 525 672 
L 525 2888 
L 72 2888 
L 72 3347 
L 525 3347 
L 525 4281 
z
" transform="scale(0.015625)"/>
       <path id="Helvetica-61" d="M 844 891 
Q 844 647 1022 506 
Q 1200 366 1444 366 
Q 1741 366 2019 503 
Q 2488 731 2488 1250 
L 2488 1703 
Q 2384 1638 2221 1594 
Q 2059 1550 1903 1531 
L 1563 1488 
Q 1256 1447 1103 1359 
Q 844 1213 844 891 
z
M 2206 2028 
Q 2400 2053 2466 2191 
Q 2503 2266 2503 2406 
Q 2503 2694 2298 2823 
Q 2094 2953 1713 2953 
Q 1272 2953 1088 2716 
Q 984 2584 953 2325 
L 428 2325 
Q 444 2944 830 3186 
Q 1216 3428 1725 3428 
Q 2316 3428 2684 3203 
Q 3050 2978 3050 2503 
L 3050 575 
Q 3050 488 3086 434 
Q 3122 381 3238 381 
Q 3275 381 3322 386 
Q 3369 391 3422 400 
L 3422 -16 
Q 3291 -53 3222 -62 
Q 3153 -72 3034 -72 
Q 2744 -72 2613 134 
Q 2544 244 2516 444 
Q 2344 219 2022 53 
Q 1700 -113 1313 -113 
Q 847 -113 551 170 
Q 256 453 256 878 
Q 256 1344 547 1600 
Q 838 1856 1309 1916 
L 2206 2028 
z
M 1741 3428 
L 1741 3428 
z
" transform="scale(0.015625)"/>
       <path id="Helvetica-4d" d="M 472 4591 
L 1363 4591 
L 2681 709 
L 3991 4591 
L 4872 4591 
L 4872 0 
L 4281 0 
L 4281 2709 
Q 4281 2850 4287 3175 
Q 4294 3500 4294 3872 
L 2984 0 
L 2369 0 
L 1050 3872 
L 1050 3731 
Q 1050 3563 1058 3217 
Q 1066 2872 1066 2709 
L 1066 0 
L 472 0 
L 472 4591 
z
" transform="scale(0.015625)"/>
      </defs>
      <use xlink:href="#Helvetica-43"/>
      <use xlink:href="#Helvetica-6f" x="72.216797"/>
      <use xlink:href="#Helvetica-6e" x="127.832031"/>
      <use xlink:href="#Helvetica-63" x="183.447266"/>
      <use xlink:href="#Helvetica-65" x="233.447266"/>
      <use xlink:href="#Helvetica-6e" x="289.0625"/>
      <use xlink:href="#Helvetica-74" x="344.677734"/>
      <use xlink:href="#Helvetica-72" x="372.460938"/>
      <use xlink:href="#Helvetica-61" x="405.761719"/>
      <use xlink:href="#Helvetica-74" x="461.376953"/>
      <use xlink:href="#Helvetica-69" x="489.160156"/>
      <use xlink:href="#Helvetica-6f" x="511.376953"/>
      <use xlink:href="#Helvetica-6e" x="566.992188"/>
      <use xlink:href="#Helvetica-20" x="622.607422"/>
      <use xlink:href="#Helvetica-28" x="650.390625"/>
      <use xlink:href="#Helvetica-6e" x="683.691406"/>
      <use xlink:href="#Helvetica-4d" x="739.306641"/>
      <use xlink:href="#Helvetica-29" x="822.607422"/>
     </g>
    </g>
   </g>
   <g id="line2d_33"/>
   <g id="line2d_34"/>
   <g id="line2d_35">
    <path d="M 73.832727 53.568 
L 74.483338 165.760932 
L 80.989441 196.832749 
L 83.591882 208.107562 
L 85.543713 215.794957 
L 87.495544 222.734594 
L 89.447375 228.886782 
L 91.399206 234.241287 
L 93.351037 238.809545 
L 95.302868 242.617255 
L 96.604088 244.749565 
L 97.905309 246.569336 
L 99.206529 248.087096 
L 100.50775 249.312751 
L 101.808971 250.255209 
L 103.110191 250.922086 
L 104.411412 251.319503 
L 105.712633 251.451961 
L 107.013853 251.322293 
L 108.315074 250.931685 
L 109.616294 250.279773 
L 110.917515 249.364806 
L 112.218736 248.183887 
L 113.519956 246.733277 
L 114.821177 245.008778 
L 116.122398 243.006184 
L 118.074228 239.473076 
L 120.026059 235.299049 
L 121.97789 230.487429 
L 123.929721 225.057166 
L 125.881552 219.047791 
L 128.483993 210.24941 
L 131.737045 198.324715 
L 138.893758 171.682709 
L 141.4962 163.164316 
L 143.448031 157.593281 
L 144.749251 154.351349 
L 146.050472 151.530087 
L 147.351692 149.159431 
L 148.652913 147.262668 
L 149.954134 145.856156 
L 151.255354 144.949209 
L 151.905965 144.684051 
L 152.556575 144.544087 
L 153.207185 144.528523 
L 153.857796 144.636144 
L 154.508406 144.865337 
L 155.809627 145.679985 
L 157.110847 146.951869 
L 158.412068 148.654817 
L 159.713288 150.757647 
L 161.014509 153.224877 
L 162.96634 157.522801 
L 164.918171 162.409752 
L 167.520612 169.582985 
L 173.376105 186.780921 
L 176.629156 195.975617 
L 179.231598 202.752637 
L 181.834039 208.84617 
L 183.78587 212.905219 
L 185.737701 216.495522 
L 187.689532 219.60169 
L 189.641363 222.216995 
L 191.593194 224.34111 
L 192.894414 225.486199 
L 194.195635 226.41672 
L 195.496856 227.135029 
L 196.798076 227.643736 
L 198.099297 227.945607 
L 199.400517 228.043503 
L 200.701738 227.940353 
L 202.002959 227.639154 
L 203.304179 227.143001 
L 204.6054 226.455147 
L 205.906621 225.57908 
L 207.858451 223.920559 
L 209.810282 221.862198 
L 211.762113 219.422192 
L 213.713944 216.623029 
L 215.665775 213.492465 
L 218.268216 208.862369 
L 221.521268 202.484914 
L 226.07554 192.900822 
L 231.280423 181.96904 
L 233.882864 176.907188 
L 236.485305 172.331236 
L 238.437136 169.305398 
L 240.388967 166.685933 
L 242.340798 164.515219 
L 243.642019 163.333586 
L 244.943239 162.372496 
L 246.24446 161.636388 
L 247.54568 161.127422 
L 248.846901 160.84551 
L 250.148122 160.788383 
L 251.449342 160.951666 
L 252.750563 161.329006 
L 254.051784 161.91222 
L 255.353004 162.691432 
L 257.304835 164.202516 
L 259.256666 166.085046 
L 261.208497 168.290307 
L 263.810938 171.64221 
L 267.06399 176.312873 
L 272.268872 184.317842 
L 277.473755 192.190374 
L 280.726806 196.718452 
L 283.329248 200.014654 
L 285.931689 202.967222 
L 288.53413 205.540395 
L 290.485961 207.206167 
L 292.437792 208.637782 
L 294.389623 209.831106 
L 296.341454 210.784261 
L 298.293285 211.497322 
L 300.245116 211.972036 
L 302.196947 212.211638 
L 304.148777 212.220687 
L 306.100608 212.004965 
L 308.052439 211.571426 
L 310.00427 210.928184 
L 311.956101 210.084523 
L 314.558542 208.666205 
L 317.160984 206.938775 
L 319.763425 204.93477 
L 323.016477 202.0973 
L 326.920138 198.313029 
L 332.125021 192.885675 
L 339.281734 185.414363 
L 343.185396 181.682223 
L 346.438448 178.90925 
L 349.040889 176.969132 
L 351.64333 175.312579 
L 354.245772 173.965215 
L 356.197603 173.168523 
L 358.149433 172.560258 
L 360.101264 172.142224 
L 362.053095 171.913658 
L 364.004926 171.87135 
L 365.956757 172.009773 
L 368.559198 172.461978 
L 371.16164 173.198358 
L 373.764081 174.190595 
L 376.366522 175.406455 
L 379.619574 177.187239 
L 383.523236 179.611907 
L 389.378728 183.577747 
L 397.186052 188.874123 
L 398.487273 189.707729 
L 398.487273 189.707729 
" clip-path="url(#ped9c02ec9e)" style="fill: none; stroke: #4477aa; stroke-linecap: round"/>
    <defs>
     <path id="m9c84a77894" d="M 0 2.5 
C 0.663008 2.5 1.29895 2.236584 1.767767 1.767767 
C 2.236584 1.29895 2.5 0.663008 2.5 0 
C 2.5 -0.663008 2.236584 -1.29895 1.767767 -1.767767 
C 1.29895 -2.236584 0.663008 -2.5 0 -2.5 
C -0.663008 -2.5 -1.29895 -2.236584 -1.767767 -1.767767 
C -2.236584 -1.29895 -2.5 -0.663008 -2.5 0 
C -2.5 0.663008 -2.236584 1.29895 -1.767767 1.767767 
C -1.29895 2.236584 -0.663008 2.5 0 2.5 
z
" style="stroke: #4477aa"/>
    </defs>
    <g clip-path="url(#ped9c02ec9e)">
     <use xlink:href="#m9c84a77894" x="73.832727" y="53.568" style="fill: #4477aa; stroke: #4477aa"/>
     <use xlink:href="#m9c84a77894" x="112.869346" y="247.49255" style="fill: #4477aa; stroke: #4477aa"/>
     <use xlink:href="#m9c84a77894" x="151.905965" y="144.684051" style="fill: #4477aa; stroke: #4477aa"/>
     <use xlink:href="#m9c84a77894" x="190.942583" y="223.687467" style="fill: #4477aa; stroke: #4477aa"/>
     <use xlink:href="#m9c84a77894" x="229.979202" y="184.632453" style="fill: #4477aa; stroke: #4477aa"/>
     <use xlink:href="#m9c84a77894" x="269.015821" y="179.275918" style="fill: #4477aa; stroke: #4477aa"/>
     <use xlink:href="#m9c84a77894" x="308.052439" y="211.571426" style="fill: #4477aa; stroke: #4477aa"/>
     <use xlink:href="#m9c84a77894" x="347.089058" y="178.399322" style="fill: #4477aa; stroke: #4477aa"/>
     <use xlink:href="#m9c84a77894" x="386.125677" y="181.344633" style="fill: #4477aa; stroke: #4477aa"/>
    </g>
   </g>
   <g id="line2d_36">
    <path d="M 73.832727 75.560727 
L 74.483338 171.733889 
L 77.736389 155.965829 
L 79.68822 147.376923 
L 81.640051 139.733045 
L 82.941272 135.263488 
L 84.242492 131.354834 
L 85.543713 128.049016 
L 86.844934 125.379397 
L 88.146154 123.370713 
L 88.796764 122.619604 
L 89.447375 122.039125 
L 90.097985 121.629971 
L 90.748595 121.392318 
L 91.399206 121.32582 
L 92.049816 121.429617 
L 92.700426 121.702332 
L 93.351037 122.142084 
L 94.001647 122.746479 
L 95.302868 124.437133 
L 96.604088 126.745221 
L 97.905309 129.633976 
L 99.206529 133.059324 
L 101.15836 139.090692 
L 103.110191 146.01837 
L 105.712633 156.272895 
L 110.917515 178.256712 
L 114.170567 191.575803 
L 116.773008 201.376281 
L 118.724839 208.054687 
L 120.67667 214.077414 
L 122.628501 219.402583 
L 124.580332 224.010568 
L 126.532163 227.89858 
L 127.833383 230.094609 
L 129.134604 231.978886 
L 130.435824 233.556699 
L 131.737045 234.833691 
L 133.038266 235.815496 
L 134.339486 236.507443 
L 135.640707 236.914346 
L 136.941927 237.040381 
L 138.243148 236.889023 
L 139.544369 236.463068 
L 140.845589 235.764719 
L 142.14681 234.79574 
L 143.448031 233.557665 
L 144.749251 232.052068 
L 146.050472 230.280881 
L 148.002303 227.1322 
L 149.954134 223.40618 
L 151.905965 219.125553 
L 153.857796 214.324796 
L 156.460237 207.201525 
L 159.062678 199.403947 
L 162.96634 186.928575 
L 168.171222 170.322342 
L 170.773664 162.736171 
L 172.725495 157.612438 
L 174.677326 153.101295 
L 176.629156 149.299801 
L 177.930377 147.198709 
L 179.231598 145.465205 
L 180.532818 144.112159 
L 181.834039 143.147769 
L 183.13526 142.575545 
L 184.43648 142.394376 
L 185.737701 142.598623 
L 187.038921 143.178329 
L 188.340142 144.119451 
L 189.641363 145.404157 
L 190.942583 147.011176 
L 192.243804 148.9162 
L 194.195635 152.273044 
L 196.147466 156.140123 
L 198.749907 161.906011 
L 202.002959 169.730669 
L 209.159672 187.164641 
L 211.762113 192.958894 
L 214.364555 198.231232 
L 216.316385 201.784816 
L 218.268216 204.962727 
L 220.220047 207.74536 
L 222.171878 210.120366 
L 224.123709 212.081321 
L 226.07554 213.626514 
L 227.376761 214.426503 
L 228.677981 215.043823 
L 229.979202 215.480246 
L 231.280423 215.737946 
L 232.581643 215.819456 
L 233.882864 215.727627 
L 235.184085 215.465635 
L 236.485305 215.036973 
L 238.437136 214.089965 
L 240.388967 212.791212 
L 242.340798 211.157466 
L 244.292629 209.208056 
L 246.24446 206.965286 
L 248.846901 203.563421 
L 251.449342 199.756885 
L 254.702394 194.556859 
L 259.907276 185.666714 
L 265.112159 176.846076 
L 268.36521 171.774156 
L 270.967652 168.132335 
L 272.919483 165.70544 
L 274.871314 163.577126 
L 276.823144 161.775062 
L 278.774975 160.320633 
L 280.726806 159.228591 
L 282.028027 158.7061 
L 283.329248 158.349032 
L 284.630468 158.156756 
L 285.931689 158.127365 
L 287.232909 158.25773 
L 288.53413 158.543565 
L 290.485961 159.251773 
L 292.437792 160.275172 
L 294.389623 161.587141 
L 296.341454 163.1575 
L 298.943895 165.596059 
L 301.546336 168.352322 
L 304.799388 172.114164 
L 318.462204 188.371991 
L 321.715256 191.671525 
L 324.317697 194.022133 
L 326.920138 196.085043 
L 329.52258 197.839834 
L 332.125021 199.272799 
L 334.076852 200.131437 
L 336.028683 200.803217 
L 337.980514 201.288277 
L 339.932345 201.588098 
L 341.884176 201.705391 
L 343.836007 201.644002 
L 345.787838 201.408843 
L 348.390279 200.835356 
L 350.99272 199.980267 
L 353.595161 198.863211 
L 356.197603 197.506672 
L 359.450654 195.512903 
L 362.703706 193.239518 
L 366.607368 190.228178 
L 372.46286 185.371176 
L 380.270184 178.89535 
L 384.173846 175.924337 
L 387.426897 173.689062 
L 390.679949 171.727905 
L 393.28239 170.384881 
L 395.884832 169.260868 
L 398.487273 168.367687 
L 398.487273 168.367687 
" clip-path="url(#ped9c02ec9e)" style="fill: none; stroke: #ee6677; stroke-linecap: round"/>
    <defs>
     <path id="mef2ea1bee6" d="M 0 -2.5 
L -2.5 2.5 
L 2.5 2.5 
z
" style="stroke: #ee6677; stroke-linejoin: miter"/>
    </defs>
    <g clip-path="url(#ped9c02ec9e)">
     <use xlink:href="#mef2ea1bee6" x="73.832727" y="75.560727" style="fill: #ee6677; stroke: #ee6677; stroke-linejoin: miter"/>
     <use xlink:href="#mef2ea1bee6" x="114.170567" y="191.575803" style="fill: #ee6677; stroke: #ee6677; stroke-linejoin: miter"/>
     <use xlink:href="#mef2ea1bee6" x="154.508406" y="212.616951" style="fill: #ee6677; stroke: #ee6677; stroke-linejoin: miter"/>
     <use xlink:href="#mef2ea1bee6" x="194.846245" y="153.510514" style="fill: #ee6677; stroke: #ee6677; stroke-linejoin: miter"/>
     <use xlink:href="#mef2ea1bee6" x="235.184085" y="215.465635" style="fill: #ee6677; stroke: #ee6677; stroke-linejoin: miter"/>
     <use xlink:href="#mef2ea1bee6" x="275.521924" y="162.938998" style="fill: #ee6677; stroke: #ee6677; stroke-linejoin: miter"/>
     <use xlink:href="#mef2ea1bee6" x="315.859763" y="185.488672" style="fill: #ee6677; stroke: #ee6677; stroke-linejoin: miter"/>
     <use xlink:href="#mef2ea1bee6" x="356.197603" y="197.506672" style="fill: #ee6677; stroke: #ee6677; stroke-linejoin: miter"/>
     <use xlink:href="#mef2ea1bee6" x="396.535442" y="169.015576" style="fill: #ee6677; stroke: #ee6677; stroke-linejoin: miter"/>
    </g>
   </g>
   <g id="line2d_37">
    <path d="M 73.832727 229.509818 
L 74.483338 259.111456 
L 77.085779 258.680001 
L 78.386999 258.132371 
L 79.68822 257.324879 
L 80.989441 256.25307 
L 82.290661 254.910787 
L 83.591882 253.290547 
L 84.893103 251.384003 
L 86.194323 249.182497 
L 88.146154 245.309192 
L 90.097985 240.730708 
L 92.049816 235.435421 
L 94.001647 229.429647 
L 95.953478 222.744204 
L 98.555919 212.883519 
L 101.808971 199.393944 
L 109.616294 166.270223 
L 111.568125 158.992417 
L 113.519956 152.539637 
L 114.821177 148.786347 
L 116.122398 145.526154 
L 117.423618 142.797562 
L 118.724839 140.631312 
L 120.026059 139.049964 
L 120.67667 138.483373 
L 121.32728 138.06763 
L 121.97789 137.803157 
L 122.628501 137.689846 
L 123.279111 137.727039 
L 123.929721 137.913552 
L 124.580332 138.247674 
L 125.230942 138.727181 
L 126.532163 140.11092 
L 127.833383 142.037043 
L 129.134604 144.470452 
L 130.435824 147.369364 
L 132.387655 152.485082 
L 134.339486 158.36034 
L 136.941927 167.038229 
L 146.701082 200.908766 
L 149.303523 208.690767 
L 151.255354 213.912922 
L 153.207185 218.560797 
L 155.159016 222.612054 
L 157.110847 226.05891 
L 159.062678 228.904081 
L 160.363899 230.471148 
L 161.665119 231.778892 
L 162.96634 232.831644 
L 164.267561 233.63389 
L 165.568781 234.190083 
L 166.870002 234.504492 
L 168.171222 234.581117 
L 169.472443 234.423657 
L 170.773664 234.035525 
L 172.074884 233.419904 
L 173.376105 232.579857 
L 174.677326 231.518459 
L 175.978546 230.238972 
L 177.930377 227.918958 
L 179.882208 225.13168 
L 181.834039 221.897082 
L 183.78587 218.241758 
L 186.388311 212.775252 
L 188.990752 206.733991 
L 192.243804 198.596302 
L 200.701738 176.997984 
L 203.304179 171.092566 
L 205.25601 167.134518 
L 207.207841 163.670248 
L 209.159672 160.767997 
L 210.460893 159.172688 
L 211.762113 157.863583 
L 213.063334 156.849484 
L 214.364555 156.135807 
L 215.665775 155.72456 
L 216.966996 155.614373 
L 218.268216 155.800583 
L 219.569437 156.275373 
L 220.870658 157.027959 
L 222.171878 158.044815 
L 223.473099 159.309947 
L 225.42493 161.632913 
L 227.376761 164.404504 
L 229.328592 167.549416 
L 231.931033 172.186334 
L 235.834695 179.708951 
L 242.340798 192.320221 
L 245.59385 198.08105 
L 248.196291 202.244604 
L 250.798732 205.938572 
L 252.750563 208.372616 
L 254.702394 210.503697 
L 256.654225 212.323871 
L 258.606056 213.82913 
L 260.557887 215.018681 
L 262.509718 215.894331 
L 264.461549 216.459984 
L 266.413379 216.721268 
L 268.36521 216.685276 
L 270.317041 216.360426 
L 272.268872 215.756408 
L 274.220703 214.884228 
L 276.172534 213.756304 
L 278.124365 212.386609 
L 280.076196 210.790836 
L 282.678637 208.342119 
L 285.281078 205.570228 
L 288.53413 201.733752 
L 292.437792 196.745203 
L 302.847557 183.163935 
L 306.100608 179.392051 
L 308.70305 176.702108 
L 311.305491 174.366868 
L 313.257322 172.87738 
L 315.209153 171.630341 
L 317.160984 170.637528 
L 319.112815 169.906527 
L 321.064646 169.440677 
L 323.016477 169.239123 
L 324.968307 169.296959 
L 326.920138 169.605468 
L 328.871969 170.152433 
L 330.8238 170.922523 
L 332.775631 171.897724 
L 335.378072 173.481831 
L 337.980514 175.341931 
L 341.233565 177.969921 
L 345.787838 182.01474 
L 356.197603 191.438138 
L 360.101264 194.593718 
L 363.354316 196.937013 
L 366.607368 198.973028 
L 369.209809 200.359156 
L 371.81225 201.517335 
L 374.414691 202.440541 
L 377.017133 203.125323 
L 379.619574 203.571414 
L 382.222015 203.781399 
L 384.824456 203.760423 
L 387.426897 203.515967 
L 390.029339 203.057661 
L 392.63178 202.397146 
L 395.884832 201.307934 
L 398.487273 200.244645 
L 398.487273 200.244645 
" clip-path="url(#ped9c02ec9e)" style="fill: none; stroke: #228833; stroke-linecap: round"/>
    <defs>
     <path id="mfb0e70b41c" d="M -2.5 2.5 
L 2.5 2.5 
L 2.5 -2.5 
L -2.5 -2.5 
z
" style="stroke: #228833; stroke-linejoin: miter"/>
    </defs>
    <g clip-path="url(#ped9c02ec9e)">
     <use xlink:href="#mfb0e70b41c" x="73.832727" y="229.509818" style="fill: #228833; stroke: #228833; stroke-linejoin: miter"/>
     <use xlink:href="#mfb0e70b41c" x="114.170567" y="150.60405" style="fill: #228833; stroke: #228833; stroke-linejoin: miter"/>
     <use xlink:href="#mfb0e70b41c" x="154.508406" y="221.32866" style="fill: #228833; stroke: #228833; stroke-linejoin: miter"/>
     <use xlink:href="#mfb0e70b41c" x="194.846245" y="191.837429" style="fill: #228833; stroke: #228833; stroke-linejoin: miter"/>
     <use xlink:href="#mfb0e70b41c" x="235.184085" y="178.429442" style="fill: #228833; stroke: #228833; stroke-linejoin: miter"/>
     <use xlink:href="#mfb0e70b41c" x="275.521924" y="214.159866" style="fill: #228833; stroke: #228833; stroke-linejoin: miter"/>
     <use xlink:href="#mfb0e70b41c" x="315.859763" y="171.270694" style="fill: #228833; stroke: #228833; stroke-linejoin: miter"/>
     <use xlink:href="#mfb0e70b41c" x="356.197603" y="191.438138" style="fill: #228833; stroke: #228833; stroke-linejoin: miter"/>
     <use xlink:href="#mfb0e70b41c" x="396.535442" y="201.057326" style="fill: #228833; stroke: #228833; stroke-linejoin: miter"/>
    </g>
   </g>
   <g id="line2d_38">
    <path d="M 73.832727 295.488 
L 74.483338 295.098724 
L 89.447375 294.810364 
L 103.760802 294.540043 
L 112.218736 294.62278 
L 144.749251 295.21716 
L 166.870002 295.222529 
L 211.762113 295.146476 
L 250.148122 295.322558 
L 398.487273 295.391831 
L 398.487273 295.391831 
" clip-path="url(#ped9c02ec9e)" style="fill: none; stroke-dasharray: 1,1.65; stroke-dashoffset: 0; stroke: #4477aa"/>
    <g clip-path="url(#ped9c02ec9e)">
     <use xlink:href="#m9c84a77894" x="73.832727" y="295.488" style="fill: #4477aa; stroke: #4477aa"/>
     <use xlink:href="#m9c84a77894" x="115.471787" y="294.699449" style="fill: #4477aa; stroke: #4477aa"/>
     <use xlink:href="#m9c84a77894" x="157.110847" y="295.244192" style="fill: #4477aa; stroke: #4477aa"/>
     <use xlink:href="#m9c84a77894" x="198.749907" y="295.080288" style="fill: #4477aa; stroke: #4477aa"/>
     <use xlink:href="#m9c84a77894" x="240.388967" y="295.306644" style="fill: #4477aa; stroke: #4477aa"/>
     <use xlink:href="#m9c84a77894" x="282.028027" y="295.300108" style="fill: #4477aa; stroke: #4477aa"/>
     <use xlink:href="#m9c84a77894" x="323.667087" y="295.331841" style="fill: #4477aa; stroke: #4477aa"/>
     <use xlink:href="#m9c84a77894" x="365.306147" y="295.389516" style="fill: #4477aa; stroke: #4477aa"/>
    </g>
   </g>
   <g id="line2d_39">
    <path d="M 73.832727 295.488 
L 74.483338 295.079625 
L 88.796764 295.199992 
L 108.315074 295.142904 
L 144.749251 294.922654 
L 178.580987 295.269149 
L 208.509062 295.241462 
L 242.991408 295.226443 
L 300.245116 295.355463 
L 398.487273 295.406484 
L 398.487273 295.406484 
" clip-path="url(#ped9c02ec9e)" style="fill: none; stroke-dasharray: 1,1.65; stroke-dashoffset: 0; stroke: #ee6677"/>
    <g clip-path="url(#ped9c02ec9e)">
     <use xlink:href="#mef2ea1bee6" x="73.832727" y="295.488" style="fill: #ee6677; stroke: #ee6677; stroke-linejoin: miter"/>
     <use xlink:href="#mef2ea1bee6" x="99.85714" y="295.194413" style="fill: #ee6677; stroke: #ee6677; stroke-linejoin: miter"/>
     <use xlink:href="#mef2ea1bee6" x="125.881552" y="294.92147" style="fill: #ee6677; stroke: #ee6677; stroke-linejoin: miter"/>
     <use xlink:href="#mef2ea1bee6" x="151.905965" y="295.028414" style="fill: #ee6677; stroke: #ee6677; stroke-linejoin: miter"/>
     <use xlink:href="#mef2ea1bee6" x="177.930377" y="295.267236" style="fill: #ee6677; stroke: #ee6677; stroke-linejoin: miter"/>
     <use xlink:href="#mef2ea1bee6" x="203.95479" y="295.256549" style="fill: #ee6677; stroke: #ee6677; stroke-linejoin: miter"/>
     <use xlink:href="#mef2ea1bee6" x="229.979202" y="295.192428" style="fill: #ee6677; stroke: #ee6677; stroke-linejoin: miter"/>
     <use xlink:href="#mef2ea1bee6" x="256.003614" y="295.283596" style="fill: #ee6677; stroke: #ee6677; stroke-linejoin: miter"/>
     <use xlink:href="#mef2ea1bee6" x="282.028027" y="295.349953" style="fill: #ee6677; stroke: #ee6677; stroke-linejoin: miter"/>
     <use xlink:href="#mef2ea1bee6" x="308.052439" y="295.35207" style="fill: #ee6677; stroke: #ee6677; stroke-linejoin: miter"/>
     <use xlink:href="#mef2ea1bee6" x="334.076852" y="295.342095" style="fill: #ee6677; stroke: #ee6677; stroke-linejoin: miter"/>
     <use xlink:href="#mef2ea1bee6" x="360.101264" y="295.365945" style="fill: #ee6677; stroke: #ee6677; stroke-linejoin: miter"/>
     <use xlink:href="#mef2ea1bee6" x="386.125677" y="295.397425" style="fill: #ee6677; stroke: #ee6677; stroke-linejoin: miter"/>
    </g>
   </g>
   <g id="line2d_40">
    <path d="M 73.832727 295.488 
L 74.483338 294.316044 
L 75.784558 294.213271 
L 82.941272 294.378947 
L 105.062022 295.084512 
L 120.026059 295.211606 
L 140.845589 295.156956 
L 174.026715 294.997355 
L 222.171878 295.299919 
L 398.487273 295.382055 
L 398.487273 295.382055 
" clip-path="url(#ped9c02ec9e)" style="fill: none; stroke-dasharray: 1,1.65; stroke-dashoffset: 0; stroke: #228833"/>
    <g clip-path="url(#ped9c02ec9e)">
     <use xlink:href="#mfb0e70b41c" x="73.832727" y="295.488" style="fill: #228833; stroke: #228833; stroke-linejoin: miter"/>
     <use xlink:href="#mfb0e70b41c" x="114.170567" y="295.184564" style="fill: #228833; stroke: #228833; stroke-linejoin: miter"/>
     <use xlink:href="#mfb0e70b41c" x="154.508406" y="295.024948" style="fill: #228833; stroke: #228833; stroke-linejoin: miter"/>
     <use xlink:href="#mfb0e70b41c" x="194.846245" y="295.208088" style="fill: #228833; stroke: #228833; stroke-linejoin: miter"/>
     <use xlink:href="#mfb0e70b41c" x="235.184085" y="295.28533" style="fill: #228833; stroke: #228833; stroke-linejoin: miter"/>
     <use xlink:href="#mfb0e70b41c" x="275.521924" y="295.258565" style="fill: #228833; stroke: #228833; stroke-linejoin: miter"/>
     <use xlink:href="#mfb0e70b41c" x="315.859763" y="295.361879" style="fill: #228833; stroke: #228833; stroke-linejoin: miter"/>
     <use xlink:href="#mfb0e70b41c" x="356.197603" y="295.367649" style="fill: #228833; stroke: #228833; stroke-linejoin: miter"/>
     <use xlink:href="#mfb0e70b41c" x="396.535442" y="295.380201" style="fill: #228833; stroke: #228833; stroke-linejoin: miter"/>
    </g>
   </g>
   <g id="patch_3">
    <path d="M 57.6 307.584 
L 57.6 41.472 
" style="fill: none; stroke: #262626; stroke-width: 0.5; stroke-linejoin: miter; stroke-linecap: square"/>
   </g>
   <g id="patch_4">
    <path d="M 57.6 307.584 
L 414.72 307.584 
" style="fill: none; stroke: #262626; stroke-width: 0.5; stroke-linejoin: miter; stroke-linecap: square"/>
   </g>
   <g id="legend_1">
    <g id="line2d_41">
     <path d="M 85.269375 64.284187 
L 103.269375 64.284187 
L 121.269375 64.284187 
" style="fill: none; stroke: #000000; stroke-width: 1.5; stroke-linecap: round"/>
    </g>
    <g id="text_16">
     <!-- Primary -->
     <g style="fill: #262626" transform="translate(135.669375 70.584187)scale(0.18 -0.18)">
      <defs>
       <path id="Helvetica-50" d="M 547 4591 
L 2613 4591 
Q 3225 4591 3600 4245 
Q 3975 3900 3975 3275 
Q 3975 2738 3640 2339 
Q 3306 1941 2613 1941 
L 1169 1941 
L 1169 0 
L 547 0 
L 547 4591 
z
M 3347 3272 
Q 3347 3778 2972 3959 
Q 2766 4056 2406 4056 
L 1169 4056 
L 1169 2466 
L 2406 2466 
Q 2825 2466 3086 2644 
Q 3347 2822 3347 3272 
z
" transform="scale(0.015625)"/>
       <path id="Helvetica-79" d="M 2503 3347 
L 3125 3347 
Q 3006 3025 2597 1878 
Q 2291 1016 2084 472 
Q 1597 -809 1397 -1090 
Q 1197 -1372 709 -1372 
Q 591 -1372 527 -1362 
Q 463 -1353 369 -1328 
L 369 -816 
Q 516 -856 581 -865 
Q 647 -875 697 -875 
Q 853 -875 926 -823 
Q 1000 -772 1050 -697 
Q 1066 -672 1162 -440 
Q 1259 -209 1303 -97 
L 66 3347 
L 703 3347 
L 1600 622 
L 2503 3347 
z
M 1597 3428 
L 1597 3428 
z
" transform="scale(0.015625)"/>
      </defs>
      <use xlink:href="#Helvetica-50"/>
      <use xlink:href="#Helvetica-72" x="66.699219"/>
      <use xlink:href="#Helvetica-69" x="100"/>
      <use xlink:href="#Helvetica-6d" x="122.216797"/>
      <use xlink:href="#Helvetica-61" x="205.517578"/>
      <use xlink:href="#Helvetica-72" x="261.132812"/>
      <use xlink:href="#Helvetica-79" x="294.433594"/>
     </g>
    </g>
    <g id="line2d_42">
     <path d="M 85.269375 90.055125 
L 103.269375 90.055125 
L 121.269375 90.055125 
" style="fill: none; stroke-dasharray: 1.5,2.475; stroke-dashoffset: 0; stroke: #000000; stroke-width: 1.5"/>
    </g>
    <g id="text_17">
     <!-- Shadow -->
     <g style="fill: #262626" transform="translate(135.669375 96.355125)scale(0.18 -0.18)">
      <defs>
       <path id="Helvetica-53" d="M 894 1481 
Q 916 1091 1078 847 
Q 1388 391 2169 391 
Q 2519 391 2806 491 
Q 3363 684 3363 1184 
Q 3363 1559 3128 1719 
Q 2891 1875 2384 1991 
L 1763 2131 
Q 1153 2269 900 2434 
Q 463 2722 463 3294 
Q 463 3913 891 4309 
Q 1319 4706 2103 4706 
Q 2825 4706 3329 4357 
Q 3834 4009 3834 3244 
L 3250 3244 
Q 3203 3613 3050 3809 
Q 2766 4169 2084 4169 
Q 1534 4169 1293 3937 
Q 1053 3706 1053 3400 
Q 1053 3063 1334 2906 
Q 1519 2806 2169 2656 
L 2813 2509 
Q 3278 2403 3531 2219 
Q 3969 1897 3969 1284 
Q 3969 522 3414 194 
Q 2859 -134 2125 -134 
Q 1269 -134 784 303 
Q 300 738 309 1481 
L 894 1481 
z
M 2150 4716 
L 2150 4716 
z
" transform="scale(0.015625)"/>
       <path id="Helvetica-64" d="M 769 1634 
Q 769 1097 997 734 
Q 1225 372 1728 372 
Q 2119 372 2370 708 
Q 2622 1044 2622 1672 
Q 2622 2306 2362 2611 
Q 2103 2916 1722 2916 
Q 1297 2916 1033 2591 
Q 769 2266 769 1634 
z
M 1616 3406 
Q 2000 3406 2259 3244 
Q 2409 3150 2600 2916 
L 2600 4606 
L 3141 4606 
L 3141 0 
L 2634 0 
L 2634 466 
Q 2438 156 2169 18 
Q 1900 -119 1553 -119 
Q 994 -119 584 351 
Q 175 822 175 1603 
Q 175 2334 548 2870 
Q 922 3406 1616 3406 
z
" transform="scale(0.015625)"/>
       <path id="Helvetica-77" d="M 672 3347 
L 1316 709 
L 1969 3347 
L 2600 3347 
L 3256 725 
L 3941 3347 
L 4503 3347 
L 3531 0 
L 2947 0 
L 2266 2591 
L 1606 0 
L 1022 0 
L 56 3347 
L 672 3347 
z
" transform="scale(0.015625)"/>
      </defs>
      <use xlink:href="#Helvetica-53"/>
      <use xlink:href="#Helvetica-68" x="66.699219"/>
      <use xlink:href="#Helvetica-61" x="122.314453"/>
      <use xlink:href="#Helvetica-64" x="177.929688"/>
      <use xlink:href="#Helvetica-6f" x="233.544922"/>
      <use xlink:href="#Helvetica-77" x="289.160156"/>
     </g>
    </g>
    <g id="line2d_43">
     <path d="M 236.714063 64.284187 
L 254.714063 64.284187 
L 272.714063 64.284187 
" style="fill: none; stroke: #4477aa; stroke-linecap: round"/>
     <g>
      <use xlink:href="#m9c84a77894" x="254.714063" y="64.284187" style="fill: #4477aa; stroke: #4477aa"/>
     </g>
    </g>
    <g id="text_18">
     <!-- A -->
     <g style="fill: #262626" transform="translate(287.114062 70.584187)scale(0.18 -0.18)">
      <defs>
       <path id="Helvetica-41" d="M 2844 1881 
L 2147 3909 
L 1406 1881 
L 2844 1881 
z
M 1822 4591 
L 2525 4591 
L 4191 0 
L 3509 0 
L 3044 1375 
L 1228 1375 
L 731 0 
L 94 0 
L 1822 4591 
z
" transform="scale(0.015625)"/>
      </defs>
      <use xlink:href="#Helvetica-41"/>
     </g>
    </g>
    <g id="line2d_44">
     <path d="M 236.714063 89.94825 
L 254.714063 89.94825 
L 272.714063 89.94825 
" style="fill: none; stroke: #ee6677; stroke-linecap: round"/>
     <g>
      <use xlink:href="#mef2ea1bee6" x="254.714063" y="89.94825" style="fill: #ee6677; stroke: #ee6677; stroke-linejoin: miter"/>
     </g>
    </g>
    <g id="text_19">
     <!-- B -->
     <g style="fill: #262626" transform="translate(287.114062 96.24825)scale(0.18 -0.18)">
      <defs>
       <path id="Helvetica-42" d="M 2213 2650 
Q 2606 2650 2825 2759 
Q 3169 2931 3169 3378 
Q 3169 3828 2803 3984 
Q 2597 4072 2191 4072 
L 1081 4072 
L 1081 2650 
L 2213 2650 
z
M 2422 531 
Q 2994 531 3238 863 
Q 3391 1072 3391 1369 
Q 3391 1869 2944 2050 
Q 2706 2147 2316 2147 
L 1081 2147 
L 1081 531 
L 2422 531 
z
M 472 4591 
L 2444 4591 
Q 3250 4591 3591 4109 
Q 3791 3825 3791 3453 
Q 3791 3019 3544 2741 
Q 3416 2594 3175 2472 
Q 3528 2338 3703 2169 
Q 4013 1869 4013 1341 
Q 4013 897 3734 538 
Q 3319 0 2413 0 
L 472 0 
L 472 4591 
z
" transform="scale(0.015625)"/>
      </defs>
      <use xlink:href="#Helvetica-42"/>
     </g>
    </g>
    <g id="line2d_45">
     <path d="M 335.120625 64.284187 
L 353.120625 64.284187 
L 371.120625 64.284187 
" style="fill: none; stroke: #228833; stroke-linecap: round"/>
     <g>
      <use xlink:href="#mfb0e70b41c" x="353.120625" y="64.284187" style="fill: #228833; stroke: #228833; stroke-linejoin: miter"/>
     </g>
    </g>
    <g id="text_20">
     <!-- C -->
     <g style="fill: #262626" transform="translate(385.520625 70.584187)scale(0.18 -0.18)">
      <use xlink:href="#Helvetica-43"/>
     </g>
    </g>
   </g>
  </g>
 </g>
 <defs>
  <clipPath id="ped9c02ec9e">
   <rect x="57.6" y="41.472" width="357.12" height="266.112"/>
  </clipPath>
 </defs>
</svg>
