<?xml version="1.0" encoding="utf-8" standalone="no"?>
<!DOCTYPE svg PUBLIC "-//W3C//DTD SVG 1.1//EN"
  "http://www.w3.org/Graphics/SVG/1.1/DTD/svg11.dtd">
<svg xmlns:xlink="http://www.w3.org/1999/xlink" width="460.8pt" height="345.6pt" viewBox="0 0 460.8 345.6" xmlns="http://www.w3.org/2000/svg" version="1.1">
 <metadata>
  <rdf:RDF xmlns:dc="http://purl.org/dc/elements/1.1/" xmlns:cc="http://creativecommons.org/ns#" xmlns:rdf="http://www.w3.org/1999/02/22-rdf-syntax-ns#">
   <cc:Work>
    <dc:type rdf:resource="http://purl.org/dc/dcmitype/StillImage"/>
    <dc:date>2024-04-08T23:29:52.364382</dc:date>
    <dc:format>image/svg+xml</dc:format>
    <dc:creator>
     <cc:Agent>
      <dc:title>Matplotlib v3.5.1, https://matplotlib.org/</dc:title>
     </cc:Agent>
    </dc:creator>
   </cc:Work>
  </rdf:RDF>
 </metadata>
 <defs>
  <style type="text/css">*{stroke-linejoin: round; stroke-linecap: butt}</style>
 </defs>
 <g id="figure_1">
  <g id="patch_1">
   <path d="M 0 345.6 
L 460.8 345.6 
L 460.8 0 
L 0 0 
z
" style="fill: #ffffff"/>
  </g>
  <g id="axes_1">
   <g id="patch_2">
    <path d="M 57.6 307.584 
L 414.72 307.584 
L 414.72 41.472 
L 57.6 41.472 
z
" style="fill: #ffffff"/>
   </g>
   <g id="matplotlib.axis_1">
    <g id="xtick_1">
     <g id="line2d_1">
      <defs>
       <path id="m4333738157" d="M 0 0 
L 0 4 
" style="stroke: #262626"/>
      </defs>
      <g>
       <use xlink:href="#m4333738157" x="73.832727" y="307.584" style="fill: #262626; stroke: #262626"/>
      </g>
     </g>
     <g id="text_1">
      <!-- 0 -->
      <g style="fill: #262626" transform="translate(69.940071 325.126812)scale(0.14 -0.14)">
       <defs>
        <path id="Helvetica-30" d="M 1731 4475 
Q 2600 4475 2988 3759 
Q 3288 3206 3288 2244 
Q 3288 1331 3016 734 
Q 2622 -122 1728 -122 
Q 922 -122 528 578 
Q 200 1163 200 2147 
Q 200 2909 397 3456 
Q 766 4475 1731 4475 
z
M 1725 391 
Q 2163 391 2422 778 
Q 2681 1166 2681 2222 
Q 2681 2984 2493 3476 
Q 2306 3969 1766 3969 
Q 1269 3969 1039 3501 
Q 809 3034 809 2125 
Q 809 1441 956 1025 
Q 1181 391 1725 391 
z
" transform="scale(0.015625)"/>
       </defs>
       <use xlink:href="#Helvetica-30"/>
      </g>
     </g>
    </g>
    <g id="xtick_2">
     <g id="line2d_2">
      <g>
       <use xlink:href="#m4333738157" x="146.88" y="307.584" style="fill: #262626; stroke: #262626"/>
      </g>
     </g>
     <g id="text_2">
      <!-- 5 -->
      <g style="fill: #262626" transform="translate(142.987344 325.126812)scale(0.14 -0.14)">
       <defs>
        <path id="Helvetica-35" d="M 791 1141 
Q 847 659 1238 475 
Q 1438 381 1700 381 
Q 2200 381 2440 700 
Q 2681 1019 2681 1406 
Q 2681 1875 2395 2131 
Q 2109 2388 1709 2388 
Q 1419 2388 1211 2275 
Q 1003 2163 856 1963 
L 369 1991 
L 709 4400 
L 3034 4400 
L 3034 3856 
L 1131 3856 
L 941 2613 
Q 1097 2731 1238 2791 
Q 1488 2894 1816 2894 
Q 2431 2894 2859 2497 
Q 3288 2100 3288 1491 
Q 3288 856 2895 371 
Q 2503 -113 1644 -113 
Q 1097 -113 676 195 
Q 256 503 206 1141 
L 791 1141 
z
" transform="scale(0.015625)"/>
       </defs>
       <use xlink:href="#Helvetica-35"/>
      </g>
     </g>
    </g>
    <g id="xtick_3">
     <g id="line2d_3">
      <g>
       <use xlink:href="#m4333738157" x="219.927273" y="307.584" style="fill: #262626; stroke: #262626"/>
      </g>
     </g>
     <g id="text_3">
      <!-- 10 -->
      <g style="fill: #262626" transform="translate(212.14196 325.126812)scale(0.14 -0.14)">
       <defs>
        <path id="Helvetica-31" d="M 613 3169 
L 613 3600 
Q 1222 3659 1462 3798 
Q 1703 3938 1822 4456 
L 2266 4456 
L 2266 0 
L 1666 0 
L 1666 3169 
L 613 3169 
z
" transform="scale(0.015625)"/>
       </defs>
       <use xlink:href="#Helvetica-31"/>
       <use xlink:href="#Helvetica-30" x="55.615234"/>
      </g>
     </g>
    </g>
    <g id="xtick_4">
     <g id="line2d_4">
      <g>
       <use xlink:href="#m4333738157" x="292.974545" y="307.584" style="fill: #262626; stroke: #262626"/>
      </g>
     </g>
     <g id="text_4">
      <!-- 15 -->
      <g style="fill: #262626" transform="translate(285.189233 325.126812)scale(0.14 -0.14)">
       <use xlink:href="#Helvetica-31"/>
       <use xlink:href="#Helvetica-35" x="55.615234"/>
      </g>
     </g>
    </g>
    <g id="xtick_5">
     <g id="line2d_5">
      <g>
       <use xlink:href="#m4333738157" x="366.021818" y="307.584" style="fill: #262626; stroke: #262626"/>
      </g>
     </g>
     <g id="text_5">
      <!-- 20 -->
      <g style="fill: #262626" transform="translate(358.236506 325.126812)scale(0.14 -0.14)">
       <defs>
        <path id="Helvetica-32" d="M 200 0 
Q 231 578 439 1006 
Q 647 1434 1250 1784 
L 1850 2131 
Q 2253 2366 2416 2531 
Q 2672 2791 2672 3125 
Q 2672 3516 2437 3745 
Q 2203 3975 1813 3975 
Q 1234 3975 1013 3538 
Q 894 3303 881 2888 
L 309 2888 
Q 319 3472 525 3841 
Q 891 4491 1816 4491 
Q 2584 4491 2939 4075 
Q 3294 3659 3294 3150 
Q 3294 2613 2916 2231 
Q 2697 2009 2131 1694 
L 1703 1456 
Q 1397 1288 1222 1134 
Q 909 863 828 531 
L 3272 531 
L 3272 0 
L 200 0 
z
" transform="scale(0.015625)"/>
       </defs>
       <use xlink:href="#Helvetica-32"/>
       <use xlink:href="#Helvetica-30" x="55.615234"/>
      </g>
     </g>
    </g>
    <g id="text_6">
     <!-- Time (hours) -->
     <g style="fill: #262626" transform="translate(185.156719 345.089312)scale(0.18 -0.18)">
      <defs>
       <path id="Helvetica-54" d="M 3828 4591 
L 3828 4044 
L 2281 4044 
L 2281 0 
L 1650 0 
L 1650 4044 
L 103 4044 
L 103 4591 
L 3828 4591 
z
" transform="scale(0.015625)"/>
       <path id="Helvetica-69" d="M 413 3331 
L 984 3331 
L 984 0 
L 413 0 
L 413 3331 
z
M 413 4591 
L 984 4591 
L 984 3953 
L 413 3953 
L 413 4591 
z
" transform="scale(0.015625)"/>
       <path id="Helvetica-6d" d="M 413 3347 
L 969 3347 
L 969 2872 
Q 1169 3119 1331 3231 
Q 1609 3422 1963 3422 
Q 2363 3422 2606 3225 
Q 2744 3113 2856 2894 
Q 3044 3163 3297 3292 
Q 3550 3422 3866 3422 
Q 4541 3422 4784 2934 
Q 4916 2672 4916 2228 
L 4916 0 
L 4331 0 
L 4331 2325 
Q 4331 2659 4164 2784 
Q 3997 2909 3756 2909 
Q 3425 2909 3186 2687 
Q 2947 2466 2947 1947 
L 2947 0 
L 2375 0 
L 2375 2184 
Q 2375 2525 2294 2681 
Q 2166 2916 1816 2916 
Q 1497 2916 1236 2669 
Q 975 2422 975 1775 
L 975 0 
L 413 0 
L 413 3347 
z
" transform="scale(0.015625)"/>
       <path id="Helvetica-65" d="M 1806 3422 
Q 2163 3422 2497 3255 
Q 2831 3088 3006 2822 
Q 3175 2569 3231 2231 
Q 3281 2000 3281 1494 
L 828 1494 
Q 844 984 1069 676 
Q 1294 369 1766 369 
Q 2206 369 2469 659 
Q 2619 828 2681 1050 
L 3234 1050 
Q 3213 866 3089 639 
Q 2966 413 2813 269 
Q 2556 19 2178 -69 
Q 1975 -119 1719 -119 
Q 1094 -119 659 336 
Q 225 791 225 1609 
Q 225 2416 662 2919 
Q 1100 3422 1806 3422 
z
M 2703 1941 
Q 2669 2306 2544 2525 
Q 2313 2931 1772 2931 
Q 1384 2931 1121 2651 
Q 859 2372 844 1941 
L 2703 1941 
z
M 1753 3428 
L 1753 3428 
z
" transform="scale(0.015625)"/>
       <path id="Helvetica-20" transform="scale(0.015625)"/>
       <path id="Helvetica-28" d="M 1894 4666 
Q 1403 3713 1256 3263 
Q 1034 2578 1034 1681 
Q 1034 775 1288 25 
Q 1444 -438 1903 -1306 
L 1525 -1306 
Q 1069 -594 959 -397 
Q 850 -200 722 138 
Q 547 600 478 1125 
Q 444 1397 444 1644 
Q 444 2569 734 3291 
Q 919 3750 1503 4666 
L 1894 4666 
z
" transform="scale(0.015625)"/>
       <path id="Helvetica-68" d="M 413 4606 
L 975 4606 
L 975 2894 
Q 1175 3147 1334 3250 
Q 1606 3428 2013 3428 
Q 2741 3428 3000 2919 
Q 3141 2641 3141 2147 
L 3141 0 
L 2563 0 
L 2563 2109 
Q 2563 2478 2469 2650 
Q 2316 2925 1894 2925 
Q 1544 2925 1259 2684 
Q 975 2444 975 1775 
L 975 0 
L 413 0 
L 413 4606 
z
" transform="scale(0.015625)"/>
       <path id="Helvetica-6f" d="M 1741 363 
Q 2300 363 2508 786 
Q 2716 1209 2716 1728 
Q 2716 2197 2566 2491 
Q 2328 2953 1747 2953 
Q 1231 2953 997 2559 
Q 763 2166 763 1609 
Q 763 1075 997 719 
Q 1231 363 1741 363 
z
M 1763 3444 
Q 2409 3444 2856 3012 
Q 3303 2581 3303 1744 
Q 3303 934 2909 406 
Q 2516 -122 1688 -122 
Q 997 -122 590 345 
Q 184 813 184 1600 
Q 184 2444 612 2944 
Q 1041 3444 1763 3444 
z
M 1744 3428 
L 1744 3428 
z
" transform="scale(0.015625)"/>
       <path id="Helvetica-75" d="M 975 3347 
L 975 1125 
Q 975 869 1056 706 
Q 1206 406 1616 406 
Q 2203 406 2416 931 
Q 2531 1213 2531 1703 
L 2531 3347 
L 3094 3347 
L 3094 0 
L 2563 0 
L 2569 494 
Q 2459 303 2297 172 
Q 1975 -91 1516 -91 
Q 800 -91 541 388 
Q 400 644 400 1072 
L 400 3347 
L 975 3347 
z
M 1747 3428 
L 1747 3428 
z
" transform="scale(0.015625)"/>
       <path id="Helvetica-72" d="M 428 3347 
L 963 3347 
L 963 2769 
Q 1028 2938 1284 3180 
Q 1541 3422 1875 3422 
Q 1891 3422 1928 3419 
Q 1966 3416 2056 3406 
L 2056 2813 
Q 2006 2822 1964 2825 
Q 1922 2828 1872 2828 
Q 1447 2828 1219 2554 
Q 991 2281 991 1925 
L 991 0 
L 428 0 
L 428 3347 
z
" transform="scale(0.015625)"/>
       <path id="Helvetica-73" d="M 747 1050 
Q 772 769 888 619 
Q 1100 347 1625 347 
Q 1938 347 2175 483 
Q 2413 619 2413 903 
Q 2413 1119 2222 1231 
Q 2100 1300 1741 1391 
L 1294 1503 
Q 866 1609 663 1741 
Q 300 1969 300 2372 
Q 300 2847 642 3140 
Q 984 3434 1563 3434 
Q 2319 3434 2653 2991 
Q 2863 2709 2856 2384 
L 2325 2384 
Q 2309 2575 2191 2731 
Q 1997 2953 1519 2953 
Q 1200 2953 1036 2831 
Q 872 2709 872 2509 
Q 872 2291 1088 2159 
Q 1213 2081 1456 2022 
L 1828 1931 
Q 2434 1784 2641 1647 
Q 2969 1431 2969 969 
Q 2969 522 2630 197 
Q 2291 -128 1597 -128 
Q 850 -128 539 211 
Q 228 550 206 1050 
L 747 1050 
z
M 1578 3428 
L 1578 3428 
z
" transform="scale(0.015625)"/>
       <path id="Helvetica-29" d="M 222 -1306 
Q 719 -338 863 106 
Q 1081 778 1081 1681 
Q 1081 2584 828 3334 
Q 672 3797 213 4666 
L 591 4666 
Q 1072 3897 1173 3717 
Q 1275 3538 1394 3222 
Q 1544 2831 1608 2450 
Q 1672 2069 1672 1716 
Q 1672 791 1378 66 
Q 1194 -400 613 -1306 
L 222 -1306 
z
" transform="scale(0.015625)"/>
      </defs>
      <use xlink:href="#Helvetica-54"/>
      <use xlink:href="#Helvetica-69" x="61.083984"/>
      <use xlink:href="#Helvetica-6d" x="83.300781"/>
      <use xlink:href="#Helvetica-65" x="166.601562"/>
      <use xlink:href="#Helvetica-20" x="222.216797"/>
      <use xlink:href="#Helvetica-28" x="250"/>
      <use xlink:href="#Helvetica-68" x="283.300781"/>
      <use xlink:href="#Helvetica-6f" x="338.916016"/>
      <use xlink:href="#Helvetica-75" x="394.53125"/>
      <use xlink:href="#Helvetica-72" x="450.146484"/>
      <use xlink:href="#Helvetica-73" x="483.447266"/>
      <use xlink:href="#Helvetica-29" x="533.447266"/>
     </g>
    </g>
   </g>
   <g id="matplotlib.axis_2">
    <g id="ytick_1">
     <g id="line2d_6">
      <defs>
       <path id="mb3d42239de" d="M 0 0 
L -4 0 
" style="stroke: #262626"/>
      </defs>
      <g>
       <use xlink:href="#mb3d42239de" x="57.6" y="295.488" style="fill: #262626; stroke: #262626"/>
      </g>
     </g>
     <g id="text_7">
      <!-- 0 -->
      <g style="fill: #262626" transform="translate(42.314687 300.509406)scale(0.14 -0.14)">
       <use xlink:href="#Helvetica-30"/>
      </g>
     </g>
    </g>
    <g id="ytick_2">
     <g id="line2d_7">
      <g>
       <use xlink:href="#mb3d42239de" x="57.6" y="265.649253" style="fill: #262626; stroke: #262626"/>
      </g>
     </g>
     <g id="text_8">
      <!-- 10 -->
      <g style="fill: #262626" transform="translate(34.529375 270.67066)scale(0.14 -0.14)">
       <use xlink:href="#Helvetica-31"/>
       <use xlink:href="#Helvetica-30" x="55.615234"/>
      </g>
     </g>
    </g>
    <g id="ytick_3">
     <g id="line2d_8">
      <g>
       <use xlink:href="#mb3d42239de" x="57.6" y="235.810507" style="fill: #262626; stroke: #262626"/>
      </g>
     </g>
     <g id="text_9">
      <!-- 20 -->
      <g style="fill: #262626" transform="translate(34.529375 240.831913)scale(0.14 -0.14)">
       <use xlink:href="#Helvetica-32"/>
       <use xlink:href="#Helvetica-30" x="55.615234"/>
      </g>
     </g>
    </g>
    <g id="ytick_4">
     <g id="line2d_9">
      <g>
       <use xlink:href="#mb3d42239de" x="57.6" y="205.97176" style="fill: #262626; stroke: #262626"/>
      </g>
     </g>
     <g id="text_10">
      <!-- 30 -->
      <g style="fill: #262626" transform="translate(34.529375 210.993167)scale(0.14 -0.14)">
       <defs>
        <path id="Helvetica-33" d="M 1663 -122 
Q 869 -122 511 314 
Q 153 750 153 1375 
L 741 1375 
Q 778 941 903 744 
Q 1122 391 1694 391 
Q 2138 391 2406 628 
Q 2675 866 2675 1241 
Q 2675 1703 2392 1887 
Q 2109 2072 1606 2072 
Q 1550 2072 1492 2070 
Q 1434 2069 1375 2066 
L 1375 2563 
Q 1463 2553 1522 2550 
Q 1581 2547 1650 2547 
Q 1966 2547 2169 2647 
Q 2525 2822 2525 3272 
Q 2525 3606 2287 3787 
Q 2050 3969 1734 3969 
Q 1172 3969 956 3594 
Q 838 3388 822 3006 
L 266 3006 
Q 266 3506 466 3856 
Q 809 4481 1675 4481 
Q 2359 4481 2734 4176 
Q 3109 3872 3109 3294 
Q 3109 2881 2888 2625 
Q 2750 2466 2531 2375 
Q 2884 2278 3082 2001 
Q 3281 1725 3281 1325 
Q 3281 684 2859 281 
Q 2438 -122 1663 -122 
z
" transform="scale(0.015625)"/>
       </defs>
       <use xlink:href="#Helvetica-33"/>
       <use xlink:href="#Helvetica-30" x="55.615234"/>
      </g>
     </g>
    </g>
    <g id="ytick_5">
     <g id="line2d_10">
      <g>
       <use xlink:href="#mb3d42239de" x="57.6" y="176.133014" style="fill: #262626; stroke: #262626"/>
      </g>
     </g>
     <g id="text_11">
      <!-- 40 -->
      <g style="fill: #262626" transform="translate(34.529375 181.15442)scale(0.14 -0.14)">
       <defs>
        <path id="Helvetica-34" d="M 2116 1584 
L 2116 3613 
L 681 1584 
L 2116 1584 
z
M 2125 0 
L 2125 1094 
L 163 1094 
L 163 1644 
L 2213 4488 
L 2688 4488 
L 2688 1584 
L 3347 1584 
L 3347 1094 
L 2688 1094 
L 2688 0 
L 2125 0 
z
" transform="scale(0.015625)"/>
       </defs>
       <use xlink:href="#Helvetica-34"/>
       <use xlink:href="#Helvetica-30" x="55.615234"/>
      </g>
     </g>
    </g>
    <g id="ytick_6">
     <g id="line2d_11">
      <g>
       <use xlink:href="#mb3d42239de" x="57.6" y="146.294267" style="fill: #262626; stroke: #262626"/>
      </g>
     </g>
     <g id="text_12">
      <!-- 50 -->
      <g style="fill: #262626" transform="translate(34.529375 151.315673)scale(0.14 -0.14)">
       <use xlink:href="#Helvetica-35"/>
       <use xlink:href="#Helvetica-30" x="55.615234"/>
      </g>
     </g>
    </g>
    <g id="ytick_7">
     <g id="line2d_12">
      <g>
       <use xlink:href="#mb3d42239de" x="57.6" y="116.455521" style="fill: #262626; stroke: #262626"/>
      </g>
     </g>
     <g id="text_13">
      <!-- 60 -->
      <g style="fill: #262626" transform="translate(34.529375 121.476927)scale(0.14 -0.14)">
       <defs>
        <path id="Helvetica-36" d="M 1872 4494 
Q 2622 4494 2917 4105 
Q 3213 3716 3213 3303 
L 2656 3303 
Q 2606 3569 2497 3719 
Q 2294 4000 1881 4000 
Q 1409 4000 1131 3564 
Q 853 3128 822 2316 
Q 1016 2600 1309 2741 
Q 1578 2866 1909 2866 
Q 2472 2866 2890 2506 
Q 3309 2147 3309 1434 
Q 3309 825 2912 354 
Q 2516 -116 1781 -116 
Q 1153 -116 697 361 
Q 241 838 241 1966 
Q 241 2800 444 3381 
Q 834 4494 1872 4494 
z
M 1831 384 
Q 2275 384 2495 682 
Q 2716 981 2716 1388 
Q 2716 1731 2519 2042 
Q 2322 2353 1803 2353 
Q 1441 2353 1167 2112 
Q 894 1872 894 1388 
Q 894 963 1142 673 
Q 1391 384 1831 384 
z
" transform="scale(0.015625)"/>
       </defs>
       <use xlink:href="#Helvetica-36"/>
       <use xlink:href="#Helvetica-30" x="55.615234"/>
      </g>
     </g>
    </g>
    <g id="ytick_8">
     <g id="line2d_13">
      <g>
       <use xlink:href="#mb3d42239de" x="57.6" y="86.616774" style="fill: #262626; stroke: #262626"/>
      </g>
     </g>
     <g id="text_14">
      <!-- 70 -->
      <g style="fill: #262626" transform="translate(34.529375 91.63818)scale(0.14 -0.14)">
       <defs>
        <path id="Helvetica-37" d="M 3347 4400 
L 3347 3909 
Q 3131 3700 2773 3181 
Q 2416 2663 2141 2063 
Q 1869 1478 1728 997 
Q 1638 688 1494 0 
L 872 0 
Q 1084 1281 1809 2550 
Q 2238 3294 2709 3834 
L 234 3834 
L 234 4400 
L 3347 4400 
z
" transform="scale(0.015625)"/>
       </defs>
       <use xlink:href="#Helvetica-37"/>
       <use xlink:href="#Helvetica-30" x="55.615234"/>
      </g>
     </g>
    </g>
    <g id="ytick_9">
     <g id="line2d_14">
      <g>
       <use xlink:href="#mb3d42239de" x="57.6" y="56.778027" style="fill: #262626; stroke: #262626"/>
      </g>
     </g>
     <g id="text_15">
      <!-- 80 -->
      <g style="fill: #262626" transform="translate(34.529375 61.799434)scale(0.14 -0.14)">
       <defs>
        <path id="Helvetica-38" d="M 1741 2600 
Q 2113 2600 2322 2808 
Q 2531 3016 2531 3303 
Q 2531 3553 2331 3762 
Q 2131 3972 1722 3972 
Q 1316 3972 1134 3762 
Q 953 3553 953 3272 
Q 953 2956 1187 2778 
Q 1422 2600 1741 2600 
z
M 1775 384 
Q 2166 384 2423 595 
Q 2681 806 2681 1225 
Q 2681 1659 2415 1884 
Q 2150 2109 1734 2109 
Q 1331 2109 1076 1879 
Q 822 1650 822 1244 
Q 822 894 1055 639 
Q 1288 384 1775 384 
z
M 975 2384 
Q 741 2484 609 2619 
Q 363 2869 363 3269 
Q 363 3769 725 4128 
Q 1088 4488 1753 4488 
Q 2397 4488 2762 4148 
Q 3128 3809 3128 3356 
Q 3128 2938 2916 2678 
Q 2797 2531 2547 2391 
Q 2825 2263 2984 2097 
Q 3281 1784 3281 1284 
Q 3281 694 2884 283 
Q 2488 -128 1763 -128 
Q 1109 -128 657 226 
Q 206 581 206 1256 
Q 206 1653 400 1942 
Q 594 2231 975 2384 
z
" transform="scale(0.015625)"/>
       </defs>
       <use xlink:href="#Helvetica-38"/>
       <use xlink:href="#Helvetica-30" x="55.615234"/>
      </g>
     </g>
    </g>
    <g id="ytick_10">
     <g id="line2d_15">
      <defs>
       <path id="me89eb53582" d="M 0 0 
L -2 0 
" style="stroke: #262626"/>
      </defs>
      <g>
       <use xlink:href="#me89eb53582" x="57.6" y="307.423499" style="fill: #262626; stroke: #262626"/>
      </g>
     </g>
    </g>
    <g id="ytick_11">
     <g id="line2d_16">
      <g>
       <use xlink:href="#me89eb53582" x="57.6" y="301.455749" style="fill: #262626; stroke: #262626"/>
      </g>
     </g>
    </g>
    <g id="ytick_12">
     <g id="line2d_17">
      <g>
       <use xlink:href="#me89eb53582" x="57.6" y="289.520251" style="fill: #262626; stroke: #262626"/>
      </g>
     </g>
    </g>
    <g id="ytick_13">
     <g id="line2d_18">
      <g>
       <use xlink:href="#me89eb53582" x="57.6" y="283.552501" style="fill: #262626; stroke: #262626"/>
      </g>
     </g>
    </g>
    <g id="ytick_14">
     <g id="line2d_19">
      <g>
       <use xlink:href="#me89eb53582" x="57.6" y="277.584752" style="fill: #262626; stroke: #262626"/>
      </g>
     </g>
    </g>
    <g id="ytick_15">
     <g id="line2d_20">
      <g>
       <use xlink:href="#me89eb53582" x="57.6" y="271.617003" style="fill: #262626; stroke: #262626"/>
      </g>
     </g>
    </g>
    <g id="ytick_16">
     <g id="line2d_21">
      <g>
       <use xlink:href="#me89eb53582" x="57.6" y="259.681504" style="fill: #262626; stroke: #262626"/>
      </g>
     </g>
    </g>
    <g id="ytick_17">
     <g id="line2d_22">
      <g>
       <use xlink:href="#me89eb53582" x="57.6" y="253.713755" style="fill: #262626; stroke: #262626"/>
      </g>
     </g>
    </g>
    <g id="ytick_18">
     <g id="line2d_23">
      <g>
       <use xlink:href="#me89eb53582" x="57.6" y="247.746005" style="fill: #262626; stroke: #262626"/>
      </g>
     </g>
    </g>
    <g id="ytick_19">
     <g id="line2d_24">
      <g>
       <use xlink:href="#me89eb53582" x="57.6" y="241.778256" style="fill: #262626; stroke: #262626"/>
      </g>
     </g>
    </g>
    <g id="ytick_20">
     <g id="line2d_25">
      <g>
       <use xlink:href="#me89eb53582" x="57.6" y="229.842758" style="fill: #262626; stroke: #262626"/>
      </g>
     </g>
    </g>
    <g id="ytick_21">
     <g id="line2d_26">
      <g>
       <use xlink:href="#me89eb53582" x="57.6" y="223.875008" style="fill: #262626; stroke: #262626"/>
      </g>
     </g>
    </g>
    <g id="ytick_22">
     <g id="line2d_27">
      <g>
       <use xlink:href="#me89eb53582" x="57.6" y="217.907259" style="fill: #262626; stroke: #262626"/>
      </g>
     </g>
    </g>
    <g id="ytick_23">
     <g id="line2d_28">
      <g>
       <use xlink:href="#me89eb53582" x="57.6" y="211.93951" style="fill: #262626; stroke: #262626"/>
      </g>
     </g>
    </g>
    <g id="ytick_24">
     <g id="line2d_29">
      <g>
       <use xlink:href="#me89eb53582" x="57.6" y="200.004011" style="fill: #262626; stroke: #262626"/>
      </g>
     </g>
    </g>
    <g id="ytick_25">
     <g id="line2d_30">
      <g>
       <use xlink:href="#me89eb53582" x="57.6" y="194.036262" style="fill: #262626; stroke: #262626"/>
      </g>
     </g>
    </g>
    <g id="ytick_26">
     <g id="line2d_31">
      <g>
       <use xlink:href="#me89eb53582" x="57.6" y="188.068512" style="fill: #262626; stroke: #262626"/>
      </g>
     </g>
    </g>
    <g id="ytick_27">
     <g id="line2d_32">
      <g>
       <use xlink:href="#me89eb53582" x="57.6" y="182.100763" style="fill: #262626; stroke: #262626"/>
      </g>
     </g>
    </g>
    <g id="ytick_28">
     <g id="line2d_33">
      <g>
       <use xlink:href="#me89eb53582" x="57.6" y="170.165264" style="fill: #262626; stroke: #262626"/>
      </g>
     </g>
    </g>
    <g id="ytick_29">
     <g id="line2d_34">
      <g>
       <use xlink:href="#me89eb53582" x="57.6" y="164.197515" style="fill: #262626; stroke: #262626"/>
      </g>
     </g>
    </g>
    <g id="ytick_30">
     <g id="line2d_35">
      <g>
       <use xlink:href="#me89eb53582" x="57.6" y="158.229766" style="fill: #262626; stroke: #262626"/>
      </g>
     </g>
    </g>
    <g id="ytick_31">
     <g id="line2d_36">
      <g>
       <use xlink:href="#me89eb53582" x="57.6" y="152.262016" style="fill: #262626; stroke: #262626"/>
      </g>
     </g>
    </g>
    <g id="ytick_32">
     <g id="line2d_37">
      <g>
       <use xlink:href="#me89eb53582" x="57.6" y="140.326518" style="fill: #262626; stroke: #262626"/>
      </g>
     </g>
    </g>
    <g id="ytick_33">
     <g id="line2d_38">
      <g>
       <use xlink:href="#me89eb53582" x="57.6" y="134.358769" style="fill: #262626; stroke: #262626"/>
      </g>
     </g>
    </g>
    <g id="ytick_34">
     <g id="line2d_39">
      <g>
       <use xlink:href="#me89eb53582" x="57.6" y="128.391019" style="fill: #262626; stroke: #262626"/>
      </g>
     </g>
    </g>
    <g id="ytick_35">
     <g id="line2d_40">
      <g>
       <use xlink:href="#me89eb53582" x="57.6" y="122.42327" style="fill: #262626; stroke: #262626"/>
      </g>
     </g>
    </g>
    <g id="ytick_36">
     <g id="line2d_41">
      <g>
       <use xlink:href="#me89eb53582" x="57.6" y="110.487771" style="fill: #262626; stroke: #262626"/>
      </g>
     </g>
    </g>
    <g id="ytick_37">
     <g id="line2d_42">
      <g>
       <use xlink:href="#me89eb53582" x="57.6" y="104.520022" style="fill: #262626; stroke: #262626"/>
      </g>
     </g>
    </g>
    <g id="ytick_38">
     <g id="line2d_43">
      <g>
       <use xlink:href="#me89eb53582" x="57.6" y="98.552273" style="fill: #262626; stroke: #262626"/>
      </g>
     </g>
    </g>
    <g id="ytick_39">
     <g id="line2d_44">
      <g>
       <use xlink:href="#me89eb53582" x="57.6" y="92.584523" style="fill: #262626; stroke: #262626"/>
      </g>
     </g>
    </g>
    <g id="ytick_40">
     <g id="line2d_45">
      <g>
       <use xlink:href="#me89eb53582" x="57.6" y="80.649025" style="fill: #262626; stroke: #262626"/>
      </g>
     </g>
    </g>
    <g id="ytick_41">
     <g id="line2d_46">
      <g>
       <use xlink:href="#me89eb53582" x="57.6" y="74.681275" style="fill: #262626; stroke: #262626"/>
      </g>
     </g>
    </g>
    <g id="ytick_42">
     <g id="line2d_47">
      <g>
       <use xlink:href="#me89eb53582" x="57.6" y="68.713526" style="fill: #262626; stroke: #262626"/>
      </g>
     </g>
    </g>
    <g id="ytick_43">
     <g id="line2d_48">
      <g>
       <use xlink:href="#me89eb53582" x="57.6" y="62.745777" style="fill: #262626; stroke: #262626"/>
      </g>
     </g>
    </g>
    <g id="ytick_44">
     <g id="line2d_49">
      <g>
       <use xlink:href="#me89eb53582" x="57.6" y="50.810278" style="fill: #262626; stroke: #262626"/>
      </g>
     </g>
    </g>
    <g id="ytick_45">
     <g id="line2d_50">
      <g>
       <use xlink:href="#me89eb53582" x="57.6" y="44.842529" style="fill: #262626; stroke: #262626"/>
      </g>
     </g>
    </g>
    <g id="text_16">
     <!-- Concentration (nM) -->
     <g style="fill: #262626" transform="translate(26.7775 251.553937)rotate(-90)scale(0.18 -0.18)">
      <defs>
       <path id="Helvetica-43" d="M 2422 4716 
Q 3294 4716 3775 4256 
Q 4256 3797 4309 3213 
L 3703 3213 
Q 3600 3656 3292 3915 
Q 2984 4175 2428 4175 
Q 1750 4175 1333 3698 
Q 916 3222 916 2238 
Q 916 1431 1292 929 
Q 1669 428 2416 428 
Q 3103 428 3463 956 
Q 3653 1234 3747 1688 
L 4353 1688 
Q 4272 963 3816 472 
Q 3269 -119 2341 -119 
Q 1541 -119 997 366 
Q 281 1006 281 2344 
Q 281 3359 819 4009 
Q 1400 4716 2422 4716 
z
M 2297 4716 
L 2297 4716 
z
" transform="scale(0.015625)"/>
       <path id="Helvetica-6e" d="M 413 3347 
L 947 3347 
L 947 2872 
Q 1184 3166 1450 3294 
Q 1716 3422 2041 3422 
Q 2753 3422 3003 2925 
Q 3141 2653 3141 2147 
L 3141 0 
L 2569 0 
L 2569 2109 
Q 2569 2416 2478 2603 
Q 2328 2916 1934 2916 
Q 1734 2916 1606 2875 
Q 1375 2806 1200 2600 
Q 1059 2434 1017 2257 
Q 975 2081 975 1753 
L 975 0 
L 413 0 
L 413 3347 
z
M 1734 3428 
L 1734 3428 
z
" transform="scale(0.015625)"/>
       <path id="Helvetica-63" d="M 1703 3444 
Q 2269 3444 2623 3169 
Q 2978 2894 3050 2222 
L 2503 2222 
Q 2453 2531 2275 2736 
Q 2097 2941 1703 2941 
Q 1166 2941 934 2416 
Q 784 2075 784 1575 
Q 784 1072 996 728 
Q 1209 384 1666 384 
Q 2016 384 2220 598 
Q 2425 813 2503 1184 
L 3050 1184 
Q 2956 519 2581 211 
Q 2206 -97 1622 -97 
Q 966 -97 575 383 
Q 184 863 184 1581 
Q 184 2463 612 2953 
Q 1041 3444 1703 3444 
z
M 1616 3428 
L 1616 3428 
z
" transform="scale(0.015625)"/>
       <path id="Helvetica-74" d="M 525 4281 
L 1094 4281 
L 1094 3347 
L 1628 3347 
L 1628 2888 
L 1094 2888 
L 1094 703 
Q 1094 528 1213 469 
Q 1278 434 1431 434 
Q 1472 434 1519 436 
Q 1566 438 1628 444 
L 1628 0 
Q 1531 -28 1426 -40 
Q 1322 -53 1200 -53 
Q 806 -53 665 148 
Q 525 350 525 672 
L 525 2888 
L 72 2888 
L 72 3347 
L 525 3347 
L 525 4281 
z
" transform="scale(0.015625)"/>
       <path id="Helvetica-61" d="M 844 891 
Q 844 647 1022 506 
Q 1200 366 1444 366 
Q 1741 366 2019 503 
Q 2488 731 2488 1250 
L 2488 1703 
Q 2384 1638 2221 1594 
Q 2059 1550 1903 1531 
L 1563 1488 
Q 1256 1447 1103 1359 
Q 844 1213 844 891 
z
M 2206 2028 
Q 2400 2053 2466 2191 
Q 2503 2266 2503 2406 
Q 2503 2694 2298 2823 
Q 2094 2953 1713 2953 
Q 1272 2953 1088 2716 
Q 984 2584 953 2325 
L 428 2325 
Q 444 2944 830 3186 
Q 1216 3428 1725 3428 
Q 2316 3428 2684 3203 
Q 3050 2978 3050 2503 
L 3050 575 
Q 3050 488 3086 434 
Q 3122 381 3238 381 
Q 3275 381 3322 386 
Q 3369 391 3422 400 
L 3422 -16 
Q 3291 -53 3222 -62 
Q 3153 -72 3034 -72 
Q 2744 -72 2613 134 
Q 2544 244 2516 444 
Q 2344 219 2022 53 
Q 1700 -113 1313 -113 
Q 847 -113 551 170 
Q 256 453 256 878 
Q 256 1344 547 1600 
Q 838 1856 1309 1916 
L 2206 2028 
z
M 1741 3428 
L 1741 3428 
z
" transform="scale(0.015625)"/>
       <path id="Helvetica-4d" d="M 472 4591 
L 1363 4591 
L 2681 709 
L 3991 4591 
L 4872 4591 
L 4872 0 
L 4281 0 
L 4281 2709 
Q 4281 2850 4287 3175 
Q 4294 3500 4294 3872 
L 2984 0 
L 2369 0 
L 1050 3872 
L 1050 3731 
Q 1050 3563 1058 3217 
Q 1066 2872 1066 2709 
L 1066 0 
L 472 0 
L 472 4591 
z
" transform="scale(0.015625)"/>
      </defs>
      <use xlink:href="#Helvetica-43"/>
      <use xlink:href="#Helvetica-6f" x="72.216797"/>
      <use xlink:href="#Helvetica-6e" x="127.832031"/>
      <use xlink:href="#Helvetica-63" x="183.447266"/>
      <use xlink:href="#Helvetica-65" x="233.447266"/>
      <use xlink:href="#Helvetica-6e" x="289.0625"/>
      <use xlink:href="#Helvetica-74" x="344.677734"/>
      <use xlink:href="#Helvetica-72" x="372.460938"/>
      <use xlink:href="#Helvetica-61" x="405.761719"/>
      <use xlink:href="#Helvetica-74" x="461.376953"/>
      <use xlink:href="#Helvetica-69" x="489.160156"/>
      <use xlink:href="#Helvetica-6f" x="511.376953"/>
      <use xlink:href="#Helvetica-6e" x="566.992188"/>
      <use xlink:href="#Helvetica-20" x="622.607422"/>
      <use xlink:href="#Helvetica-28" x="650.390625"/>
      <use xlink:href="#Helvetica-6e" x="683.691406"/>
      <use xlink:href="#Helvetica-4d" x="739.306641"/>
      <use xlink:href="#Helvetica-29" x="822.607422"/>
     </g>
    </g>
   </g>
   <g id="line2d_51">
    <path d="M 73.832727 292.504125 
L 84.366271 291.619813 
L 93.84646 290.601909 
L 102.273295 289.474282 
L 109.997894 288.213396 
L 117.020256 286.839105 
L 123.340382 285.381595 
L 129.30939 283.780201 
L 134.92728 282.041903 
L 140.194052 280.178548 
L 145.109706 278.207134 
L 149.674241 276.1499 
L 154.238777 273.847758 
L 158.452194 271.480174 
L 162.665612 268.853559 
L 166.527911 266.19413 
L 170.39021 263.269158 
L 174.25251 260.05213 
L 177.763691 256.849637 
L 181.274872 253.357721 
L 184.786053 249.550227 
L 188.297234 245.398632 
L 191.808416 240.87184 
L 194.968479 236.44897 
L 198.128542 231.667932 
L 201.288605 226.49972 
L 204.448668 220.912982 
L 207.608731 214.873824 
L 210.768794 208.34561 
L 213.928857 201.288734 
L 217.08892 193.660386 
L 220.248983 185.414286 
L 223.409046 176.500409 
L 226.569109 166.864678 
L 229.729173 156.448635 
L 232.889236 145.189092 
L 236.049299 133.017739 
L 239.209362 119.860737 
L 242.369425 105.63827 
L 245.529488 90.264053 
L 248.689551 73.644817 
L 249.040669 71.717079 
L 249.040669 71.717079 
" clip-path="url(#p0f95b26363)" style="fill: none; stroke: #4477aa; stroke-linecap: round"/>
    <defs>
     <path id="mc8479cc0bf" d="M 0 2.5 
C 0.663008 2.5 1.29895 2.236584 1.767767 1.767767 
C 2.236584 1.29895 2.5 0.663008 2.5 0 
C 2.5 -0.663008 2.236584 -1.29895 1.767767 -1.767767 
C 1.29895 -2.236584 0.663008 -2.5 0 -2.5 
C -0.663008 -2.5 -1.29895 -2.236584 -1.767767 -1.767767 
C -2.236584 -1.29895 -2.5 -0.663008 -2.5 0 
C -2.5 0.663008 -2.236584 1.29895 -1.767767 1.767767 
C -1.29895 2.236584 -0.663008 2.5 0 2.5 
z
" style="stroke: #4477aa"/>
    </defs>
    <g clip-path="url(#p0f95b26363)">
     <use xlink:href="#mc8479cc0bf" x="73.832727" y="292.504125" style="fill: #4477aa; stroke: #4477aa"/>
     <use xlink:href="#mc8479cc0bf" x="91.739751" y="290.849087" style="fill: #4477aa; stroke: #4477aa"/>
     <use xlink:href="#mc8479cc0bf" x="109.646776" y="288.276065" style="fill: #4477aa; stroke: #4477aa"/>
     <use xlink:href="#mc8479cc0bf" x="127.5538" y="284.275888" style="fill: #4477aa; stroke: #4477aa"/>
     <use xlink:href="#mc8479cc0bf" x="145.460824" y="278.056969" style="fill: #4477aa; stroke: #4477aa"/>
     <use xlink:href="#mc8479cc0bf" x="163.367848" y="268.388661" style="fill: #4477aa; stroke: #4477aa"/>
     <use xlink:href="#mc8479cc0bf" x="181.274872" y="253.357721" style="fill: #4477aa; stroke: #4477aa"/>
     <use xlink:href="#mc8479cc0bf" x="199.181896" y="229.989712" style="fill: #4477aa; stroke: #4477aa"/>
     <use xlink:href="#mc8479cc0bf" x="217.08892" y="193.660386" style="fill: #4477aa; stroke: #4477aa"/>
     <use xlink:href="#mc8479cc0bf" x="234.995944" y="137.180608" style="fill: #4477aa; stroke: #4477aa"/>
    </g>
   </g>
   <g id="line2d_52">
    <path d="M 73.832727 292.504125 
L 77.736389 292.204719 
L 87.495544 291.257554 
L 95.953478 290.226095 
L 103.760802 289.061802 
L 110.917515 287.7814 
L 117.423618 286.411012 
L 123.929721 284.814884 
L 129.785214 283.160136 
L 135.640707 281.274253 
L 141.4962 279.132942 
L 146.701082 276.995353 
L 151.905965 274.619851 
L 157.110847 271.990584 
L 162.31573 269.093243 
L 167.520612 265.915742 
L 172.725495 262.448946 
L 177.930377 258.687394 
L 183.13526 254.629987 
L 188.340142 250.280566 
L 193.545025 245.648336 
L 199.400517 240.117663 
L 205.25601 234.277349 
L 211.762113 227.471049 
L 219.569437 218.948365 
L 229.328592 207.928192 
L 254.702394 179.094916 
L 263.160328 169.93121 
L 270.317041 162.495604 
L 276.823144 156.030143 
L 283.329248 149.869808 
L 289.835351 144.030043 
L 295.690844 139.055109 
L 301.546336 134.34789 
L 307.401829 129.906431 
L 313.257322 125.726007 
L 319.112815 121.799707 
L 324.968308 118.118971 
L 331.474411 114.305371 
L 337.980514 110.768331 
L 344.486617 107.492609 
L 350.99272 104.462677 
L 357.498823 101.66305 
L 364.655537 98.83134 
L 371.81225 96.240358 
L 379.619574 93.666451 
L 387.426897 91.333914 
L 395.884831 89.054622 
L 398.487273 88.401305 
L 398.487273 88.401305 
" clip-path="url(#p0f95b26363)" style="fill: none; stroke: #ee6677; stroke-linecap: round"/>
    <defs>
     <path id="mdf55835d2b" d="M 0 -2.5 
L -2.5 2.5 
L 2.5 2.5 
z
" style="stroke: #ee6677; stroke-linejoin: miter"/>
    </defs>
    <g clip-path="url(#p0f95b26363)">
     <use xlink:href="#mdf55835d2b" x="73.832727" y="292.504125" style="fill: #ee6677; stroke: #ee6677; stroke-linejoin: miter"/>
     <use xlink:href="#mdf55835d2b" x="108.965684" y="288.152793" style="fill: #ee6677; stroke: #ee6677; stroke-linejoin: miter"/>
     <use xlink:href="#mdf55835d2b" x="144.098641" y="278.092853" style="fill: #ee6677; stroke: #ee6677; stroke-linejoin: miter"/>
     <use xlink:href="#mdf55835d2b" x="179.231598" y="257.700717" style="fill: #ee6677; stroke: #ee6677; stroke-linejoin: miter"/>
     <use xlink:href="#mdf55835d2b" x="214.364555" y="224.668138" style="fill: #ee6677; stroke: #ee6677; stroke-linejoin: miter"/>
     <use xlink:href="#mdf55835d2b" x="249.497511" y="184.896619" style="fill: #ee6677; stroke: #ee6677; stroke-linejoin: miter"/>
     <use xlink:href="#mdf55835d2b" x="284.630468" y="148.675853" style="fill: #ee6677; stroke: #ee6677; stroke-linejoin: miter"/>
     <use xlink:href="#mdf55835d2b" x="319.763425" y="121.378779" style="fill: #ee6677; stroke: #ee6677; stroke-linejoin: miter"/>
     <use xlink:href="#mdf55835d2b" x="354.896382" y="102.756245" style="fill: #ee6677; stroke: #ee6677; stroke-linejoin: miter"/>
     <use xlink:href="#mdf55835d2b" x="390.029339" y="90.6063" style="fill: #ee6677; stroke: #ee6677; stroke-linejoin: miter"/>
    </g>
   </g>
   <g id="line2d_53">
    <path d="M 73.832727 292.504125 
L 76.435169 290.924514 
L 80.33883 288.304621 
L 84.242492 285.41877 
L 88.146154 282.24944 
L 92.049816 278.780489 
L 95.953478 274.997846 
L 99.85714 270.890253 
L 103.760802 266.450028 
L 107.664463 261.673823 
L 111.568125 256.563295 
L 115.471787 251.125662 
L 120.026059 244.386197 
L 124.580332 237.25089 
L 129.785214 228.665958 
L 135.640707 218.553799 
L 142.79742 205.727262 
L 167.520612 160.97541 
L 174.026715 149.90484 
L 179.882208 140.4003 
L 185.087091 132.362595 
L 190.291973 124.737164 
L 195.496856 117.537417 
L 200.051128 111.590374 
L 204.6054 105.970745 
L 209.159672 100.673153 
L 213.713944 95.689494 
L 218.268216 91.009627 
L 222.822489 86.621984 
L 227.376761 82.514084 
L 231.931033 78.673 
L 237.135915 74.593285 
L 242.340798 70.826443 
L 247.54568 67.355418 
L 252.750563 64.166426 
L 257.955445 61.252499 
L 262.509718 58.934932 
L 267.06399 56.866385 
L 270.317041 55.59008 
L 273.570093 54.561345 
L 276.172534 53.988055 
L 278.774975 53.673559 
L 282.028027 53.568 
L 290.485961 53.68408 
L 328.871969 54.208165 
L 373.764081 54.588297 
L 398.487273 54.722942 
L 398.487273 54.722942 
" clip-path="url(#p0f95b26363)" style="fill: none; stroke: #228833; stroke-linecap: round"/>
    <defs>
     <path id="m01ab52b245" d="M -2.5 2.5 
L 2.5 2.5 
L 2.5 -2.5 
L -2.5 -2.5 
z
" style="stroke: #228833; stroke-linejoin: miter"/>
    </defs>
    <g clip-path="url(#p0f95b26363)">
     <use xlink:href="#m01ab52b245" x="73.832727" y="292.504125" style="fill: #228833; stroke: #228833; stroke-linejoin: miter"/>
     <use xlink:href="#m01ab52b245" x="106.363243" y="263.30323" style="fill: #228833; stroke: #228833; stroke-linejoin: miter"/>
     <use xlink:href="#m01ab52b245" x="138.893758" y="212.773748" style="fill: #228833; stroke: #228833; stroke-linejoin: miter"/>
     <use xlink:href="#m01ab52b245" x="171.424274" y="154.273424" style="fill: #228833; stroke: #228833; stroke-linejoin: miter"/>
     <use xlink:href="#m01ab52b245" x="203.95479" y="106.753675" style="fill: #228833; stroke: #228833; stroke-linejoin: miter"/>
     <use xlink:href="#m01ab52b245" x="236.485305" y="75.085767" style="fill: #228833; stroke: #228833; stroke-linejoin: miter"/>
     <use xlink:href="#m01ab52b245" x="269.015821" y="56.076017" style="fill: #228833; stroke: #228833; stroke-linejoin: miter"/>
     <use xlink:href="#m01ab52b245" x="301.546336" y="53.857501" style="fill: #228833; stroke: #228833; stroke-linejoin: miter"/>
     <use xlink:href="#m01ab52b245" x="334.076852" y="54.263489" style="fill: #228833; stroke: #228833; stroke-linejoin: miter"/>
     <use xlink:href="#m01ab52b245" x="366.607367" y="54.540818" style="fill: #228833; stroke: #228833; stroke-linejoin: miter"/>
    </g>
   </g>
   <g id="line2d_54">
    <path d="M 73.832727 292.504125 
L 74.483338 293.333912 
L 90.748595 292.566631 
L 105.062022 291.674241 
L 118.074228 290.636457 
L 129.785214 289.473242 
L 140.194979 288.219134 
L 149.954134 286.82165 
L 159.062678 285.293777 
L 167.520612 283.655656 
L 175.978546 281.781034 
L 183.78587 279.818873 
L 191.593194 277.613938 
L 198.749907 275.36327 
L 205.906621 272.879244 
L 213.063334 270.150213 
L 220.220047 267.166984 
L 227.376761 263.923534 
L 234.533474 260.417713 
L 241.690188 256.651878 
L 248.846901 252.633403 
L 256.654225 247.976552 
L 264.461549 243.058093 
L 272.919483 237.470824 
L 282.678637 230.751246 
L 295.040233 221.949378 
L 330.17319 196.740905 
L 340.582955 189.6326 
L 349.691499 183.663643 
L 358.800044 177.966347 
L 367.257978 172.941361 
L 375.715912 168.185157 
L 383.523236 164.039167 
L 391.330559 160.129049 
L 398.487273 156.750322 
L 398.487273 156.750322 
" clip-path="url(#p0f95b26363)" style="fill: none; stroke: #ccbb44; stroke-linecap: round"/>
    <defs>
     <path id="m8588bc9718" d="M -0.833333 2.5 
L 0.833333 2.5 
L 0.833333 0.833333 
L 2.5 0.833333 
L 2.5 -0.833333 
L 0.833333 -0.833333 
L 0.833333 -2.5 
L -0.833333 -2.5 
L -0.833333 -0.833333 
L -2.5 -0.833333 
L -2.5 0.833333 
L -0.833333 0.833333 
z
" style="stroke: #ccbb44; stroke-linejoin: miter"/>
    </defs>
    <g clip-path="url(#p0f95b26363)">
     <use xlink:href="#m8588bc9718" x="73.832727" y="292.504125" style="fill: #ccbb44; stroke: #ccbb44; stroke-linejoin: miter"/>
     <use xlink:href="#m8588bc9718" x="107.013853" y="291.533605" style="fill: #ccbb44; stroke: #ccbb44; stroke-linejoin: miter"/>
     <use xlink:href="#m8588bc9718" x="140.194979" y="288.219134" style="fill: #ccbb44; stroke: #ccbb44; stroke-linejoin: miter"/>
     <use xlink:href="#m8588bc9718" x="173.376105" y="282.384542" style="fill: #ccbb44; stroke: #ccbb44; stroke-linejoin: miter"/>
     <use xlink:href="#m8588bc9718" x="206.557231" y="272.641432" style="fill: #ccbb44; stroke: #ccbb44; stroke-linejoin: miter"/>
     <use xlink:href="#m8588bc9718" x="239.738357" y="257.704385" style="fill: #ccbb44; stroke: #ccbb44; stroke-linejoin: miter"/>
     <use xlink:href="#m8588bc9718" x="272.919483" y="237.470824" style="fill: #ccbb44; stroke: #ccbb44; stroke-linejoin: miter"/>
     <use xlink:href="#m8588bc9718" x="306.100608" y="213.942075" style="fill: #ccbb44; stroke: #ccbb44; stroke-linejoin: miter"/>
     <use xlink:href="#m8588bc9718" x="339.281734" y="190.50555" style="fill: #ccbb44; stroke: #ccbb44; stroke-linejoin: miter"/>
     <use xlink:href="#m8588bc9718" x="372.46286" y="169.982111" style="fill: #ccbb44; stroke: #ccbb44; stroke-linejoin: miter"/>
    </g>
   </g>
   <g id="line2d_55">
    <path d="M 73.832727 292.504125 
L 74.483338 293.339299 
L 76.435169 292.96259 
L 79.68822 292.689607 
L 98.555919 291.415207 
L 110.266905 290.374733 
L 121.32728 289.180263 
L 131.737045 287.842472 
L 141.4962 286.376596 
L 151.255354 284.682318 
L 160.363899 282.873849 
L 168.821833 280.980826 
L 177.279767 278.866807 
L 185.737701 276.51846 
L 194.195635 273.924775 
L 202.002959 271.306081 
L 209.810282 268.468774 
L 218.268216 265.14933 
L 226.72615 261.580942 
L 235.184085 257.776683 
L 244.292629 253.438833 
L 254.702394 248.217525 
L 266.413379 242.08256 
L 283.329248 232.940963 
L 306.100608 220.664017 
L 318.462204 214.269203 
L 328.871969 209.134649 
L 338.631124 204.575904 
L 347.739668 200.570592 
L 356.197602 197.080873 
L 364.655537 193.815939 
L 373.764081 190.536872 
L 391.330559 184.329957 
L 395.884831 182.371685 
L 398.487273 181.187819 
L 398.487273 181.187819 
" clip-path="url(#p0f95b26363)" style="fill: none; stroke: #aa3377; stroke-linecap: round"/>
    <defs>
     <path id="m0af71151e7" d="M -2.5 -0 
L 2.5 2.5 
L 2.5 -2.5 
z
" style="stroke: #aa3377; stroke-linejoin: miter"/>
    </defs>
    <g clip-path="url(#p0f95b26363)">
     <use xlink:href="#m0af71151e7" x="73.832727" y="292.504125" style="fill: #aa3377; stroke: #aa3377; stroke-linejoin: miter"/>
     <use xlink:href="#m0af71151e7" x="101.808971" y="291.147619" style="fill: #aa3377; stroke: #aa3377; stroke-linejoin: miter"/>
     <use xlink:href="#m0af71151e7" x="129.785214" y="288.11029" style="fill: #aa3377; stroke: #aa3377; stroke-linejoin: miter"/>
     <use xlink:href="#m0af71151e7" x="157.761457" y="283.414119" style="fill: #aa3377; stroke: #aa3377; stroke-linejoin: miter"/>
     <use xlink:href="#m0af71151e7" x="185.737701" y="276.51846" style="fill: #aa3377; stroke: #aa3377; stroke-linejoin: miter"/>
     <use xlink:href="#m0af71151e7" x="213.713944" y="266.968223" style="fill: #aa3377; stroke: #aa3377; stroke-linejoin: miter"/>
     <use xlink:href="#m0af71151e7" x="241.690188" y="254.702005" style="fill: #aa3377; stroke: #aa3377; stroke-linejoin: miter"/>
     <use xlink:href="#m0af71151e7" x="269.666431" y="240.342511" style="fill: #aa3377; stroke: #aa3377; stroke-linejoin: miter"/>
     <use xlink:href="#m0af71151e7" x="297.642674" y="225.175679" style="fill: #aa3377; stroke: #aa3377; stroke-linejoin: miter"/>
     <use xlink:href="#m0af71151e7" x="325.618918" y="210.710996" style="fill: #aa3377; stroke: #aa3377; stroke-linejoin: miter"/>
     <use xlink:href="#m0af71151e7" x="353.595161" y="198.130655" style="fill: #aa3377; stroke: #aa3377; stroke-linejoin: miter"/>
     <use xlink:href="#m0af71151e7" x="381.571405" y="187.864221" style="fill: #aa3377; stroke: #aa3377; stroke-linejoin: miter"/>
    </g>
   </g>
   <g id="line2d_56">
    <path d="M 73.832727 295.488 
L 75.133948 295.197695 
L 77.085779 295.025298 
L 80.989441 294.993202 
L 152.556575 295.323886 
L 248.196291 295.409717 
L 353.595161 295.316528 
L 373.764081 295.127179 
L 381.571405 294.874287 
L 386.125677 294.542611 
L 389.378728 294.120042 
L 392.63178 293.453814 
L 395.884831 292.518521 
L 398.487273 291.625967 
L 398.487273 291.625967 
" clip-path="url(#p0f95b26363)" style="fill: none; stroke-dasharray: 1,1.65; stroke-dashoffset: 0; stroke: #66ccee"/>
    <defs>
     <path id="m2c8a292af8" d="M -2.5 2.5 
L 2.5 -2.5 
M -2.5 -2.5 
L 2.5 2.5 
" style="stroke: #66ccee"/>
    </defs>
    <g clip-path="url(#p0f95b26363)">
     <use xlink:href="#m2c8a292af8" x="73.832727" y="295.488" style="fill: #66ccee; stroke: #66ccee"/>
     <use xlink:href="#m2c8a292af8" x="114.170567" y="295.203781" style="fill: #66ccee; stroke: #66ccee"/>
     <use xlink:href="#m2c8a292af8" x="154.508406" y="295.32785" style="fill: #66ccee; stroke: #66ccee"/>
     <use xlink:href="#m2c8a292af8" x="194.846245" y="295.383247" style="fill: #66ccee; stroke: #66ccee"/>
     <use xlink:href="#m2c8a292af8" x="235.184085" y="295.406585" style="fill: #66ccee; stroke: #66ccee"/>
     <use xlink:href="#m2c8a292af8" x="275.521924" y="295.410315" style="fill: #66ccee; stroke: #66ccee"/>
     <use xlink:href="#m2c8a292af8" x="315.859763" y="295.392459" style="fill: #66ccee; stroke: #66ccee"/>
     <use xlink:href="#m2c8a292af8" x="356.197602" y="295.304502" style="fill: #66ccee; stroke: #66ccee"/>
     <use xlink:href="#m2c8a292af8" x="396.535442" y="292.304735" style="fill: #66ccee; stroke: #66ccee"/>
    </g>
   </g>
   <g id="line2d_57"/>
   <g id="line2d_58"/>
   <g id="patch_3">
    <path d="M 57.6 307.584 
L 57.6 41.472 
" style="fill: none; stroke: #262626; stroke-width: 0.5; stroke-linejoin: miter; stroke-linecap: square"/>
   </g>
   <g id="patch_4">
    <path d="M 57.6 307.584 
L 414.72 307.584 
" style="fill: none; stroke: #262626; stroke-width: 0.5; stroke-linejoin: miter; stroke-linecap: square"/>
   </g>
   <g id="legend_1">
    <g id="line2d_59">
     <path d="M 407.88 22.812188 
L 425.88 22.812188 
L 443.88 22.812188 
" style="fill: none; stroke: #4477aa; stroke-linecap: round"/>
     <g>
      <use xlink:href="#mc8479cc0bf" x="425.88" y="22.812188" style="fill: #4477aa; stroke: #4477aa"/>
     </g>
    </g>
    <g id="text_17">
     <!-- Ideal -->
     <g style="fill: #262626" transform="translate(458.28 29.112188)scale(0.18 -0.18)">
      <defs>
       <path id="Helvetica-49" d="M 628 4591 
L 1256 4591 
L 1256 0 
L 628 0 
L 628 4591 
z
" transform="scale(0.015625)"/>
       <path id="Helvetica-64" d="M 769 1634 
Q 769 1097 997 734 
Q 1225 372 1728 372 
Q 2119 372 2370 708 
Q 2622 1044 2622 1672 
Q 2622 2306 2362 2611 
Q 2103 2916 1722 2916 
Q 1297 2916 1033 2591 
Q 769 2266 769 1634 
z
M 1616 3406 
Q 2000 3406 2259 3244 
Q 2409 3150 2600 2916 
L 2600 4606 
L 3141 4606 
L 3141 0 
L 2634 0 
L 2634 466 
Q 2438 156 2169 18 
Q 1900 -119 1553 -119 
Q 994 -119 584 351 
Q 175 822 175 1603 
Q 175 2334 548 2870 
Q 922 3406 1616 3406 
z
" transform="scale(0.015625)"/>
       <path id="Helvetica-6c" d="M 428 4591 
L 991 4591 
L 991 0 
L 428 0 
L 428 4591 
z
" transform="scale(0.015625)"/>
      </defs>
      <use xlink:href="#Helvetica-49"/>
      <use xlink:href="#Helvetica-64" x="27.783203"/>
      <use xlink:href="#Helvetica-65" x="83.398438"/>
      <use xlink:href="#Helvetica-61" x="139.013672"/>
      <use xlink:href="#Helvetica-6c" x="194.628906"/>
     </g>
    </g>
    <g id="line2d_60">
     <path d="M 407.88 48.47625 
L 425.88 48.47625 
L 443.88 48.47625 
" style="fill: none; stroke: #ee6677; stroke-linecap: round"/>
     <g>
      <use xlink:href="#mdf55835d2b" x="425.88" y="48.47625" style="fill: #ee6677; stroke: #ee6677; stroke-linejoin: miter"/>
     </g>
    </g>
    <g id="text_18">
     <!-- Vanilla -->
     <g style="fill: #262626" transform="translate(458.28 54.77625)scale(0.18 -0.18)">
      <defs>
       <path id="Helvetica-56" d="M 850 4591 
L 2169 681 
L 3472 4591 
L 4169 4591 
L 2494 0 
L 1834 0 
L 163 4591 
L 850 4591 
z
" transform="scale(0.015625)"/>
      </defs>
      <use xlink:href="#Helvetica-56"/>
      <use xlink:href="#Helvetica-61" x="66.699219"/>
      <use xlink:href="#Helvetica-6e" x="122.314453"/>
      <use xlink:href="#Helvetica-69" x="177.929688"/>
      <use xlink:href="#Helvetica-6c" x="200.146484"/>
      <use xlink:href="#Helvetica-6c" x="222.363281"/>
      <use xlink:href="#Helvetica-61" x="244.580078"/>
     </g>
    </g>
    <g id="line2d_61">
     <path d="M 407.88 74.140313 
L 425.88 74.140313 
L 443.88 74.140313 
" style="fill: none; stroke: #228833; stroke-linecap: round"/>
     <g>
      <use xlink:href="#m01ab52b245" x="425.88" y="74.140313" style="fill: #228833; stroke: #228833; stroke-linejoin: miter"/>
     </g>
    </g>
    <g id="text_19">
     <!-- Leaky -->
     <g style="fill: #262626" transform="translate(458.28 80.440313)scale(0.18 -0.18)">
      <defs>
       <path id="Helvetica-4c" d="M 488 4591 
L 1109 4591 
L 1109 547 
L 3434 547 
L 3434 0 
L 488 0 
L 488 4591 
z
" transform="scale(0.015625)"/>
       <path id="Helvetica-6b" d="M 400 4591 
L 941 4591 
L 941 1925 
L 2384 3347 
L 3103 3347 
L 1822 2094 
L 3175 0 
L 2456 0 
L 1413 1688 
L 941 1256 
L 941 0 
L 400 0 
L 400 4591 
z
" transform="scale(0.015625)"/>
       <path id="Helvetica-79" d="M 2503 3347 
L 3125 3347 
Q 3006 3025 2597 1878 
Q 2291 1016 2084 472 
Q 1597 -809 1397 -1090 
Q 1197 -1372 709 -1372 
Q 591 -1372 527 -1362 
Q 463 -1353 369 -1328 
L 369 -816 
Q 516 -856 581 -865 
Q 647 -875 697 -875 
Q 853 -875 926 -823 
Q 1000 -772 1050 -697 
Q 1066 -672 1162 -440 
Q 1259 -209 1303 -97 
L 66 3347 
L 703 3347 
L 1600 622 
L 2503 3347 
z
M 1597 3428 
L 1597 3428 
z
" transform="scale(0.015625)"/>
      </defs>
      <use xlink:href="#Helvetica-4c"/>
      <use xlink:href="#Helvetica-65" x="55.615234"/>
      <use xlink:href="#Helvetica-61" x="111.230469"/>
      <use xlink:href="#Helvetica-6b" x="166.845703"/>
      <use xlink:href="#Helvetica-79" x="216.845703"/>
     </g>
    </g>
    <g id="line2d_62">
     <path d="M 407.88 99.91125 
L 425.88 99.91125 
L 443.88 99.91125 
" style="fill: none; stroke: #ccbb44; stroke-linecap: round"/>
     <g>
      <use xlink:href="#m8588bc9718" x="425.88" y="99.91125" style="fill: #ccbb44; stroke: #ccbb44; stroke-linejoin: miter"/>
     </g>
    </g>
    <g id="text_20">
     <!-- VanillaOccluded -->
     <g style="fill: #262626" transform="translate(458.28 106.21125)scale(0.18 -0.18)">
      <defs>
       <path id="Helvetica-4f" d="M 2469 4716 
Q 3684 4716 4269 3934 
Q 4725 3325 4725 2375 
Q 4725 1347 4203 666 
Q 3591 -134 2456 -134 
Q 1397 -134 791 566 
Q 250 1241 250 2272 
Q 250 3203 713 3866 
Q 1306 4716 2469 4716 
z
M 2531 422 
Q 3353 422 3720 1011 
Q 4088 1600 4088 2366 
Q 4088 3175 3664 3669 
Q 3241 4163 2506 4163 
Q 1794 4163 1344 3673 
Q 894 3184 894 2231 
Q 894 1469 1280 945 
Q 1666 422 2531 422 
z
M 2488 4716 
L 2488 4716 
z
" transform="scale(0.015625)"/>
      </defs>
      <use xlink:href="#Helvetica-56"/>
      <use xlink:href="#Helvetica-61" x="66.699219"/>
      <use xlink:href="#Helvetica-6e" x="122.314453"/>
      <use xlink:href="#Helvetica-69" x="177.929688"/>
      <use xlink:href="#Helvetica-6c" x="200.146484"/>
      <use xlink:href="#Helvetica-6c" x="222.363281"/>
      <use xlink:href="#Helvetica-61" x="244.580078"/>
      <use xlink:href="#Helvetica-4f" x="300.195312"/>
      <use xlink:href="#Helvetica-63" x="377.978516"/>
      <use xlink:href="#Helvetica-63" x="427.978516"/>
      <use xlink:href="#Helvetica-6c" x="477.978516"/>
      <use xlink:href="#Helvetica-75" x="500.195312"/>
      <use xlink:href="#Helvetica-64" x="555.810547"/>
      <use xlink:href="#Helvetica-65" x="611.425781"/>
      <use xlink:href="#Helvetica-64" x="667.041016"/>
     </g>
    </g>
    <g id="line2d_63">
     <path d="M 407.88 125.926875 
L 425.88 125.926875 
L 443.88 125.926875 
" style="fill: none; stroke: #aa3377; stroke-linecap: round"/>
     <g>
      <use xlink:href="#m0af71151e7" x="425.88" y="125.926875" style="fill: #aa3377; stroke: #aa3377; stroke-linejoin: miter"/>
     </g>
    </g>
    <g id="text_21">
     <!-- LeakyCancel -->
     <g style="fill: #262626" transform="translate(458.28 132.226875)scale(0.18 -0.18)">
      <use xlink:href="#Helvetica-4c"/>
      <use xlink:href="#Helvetica-65" x="55.615234"/>
      <use xlink:href="#Helvetica-61" x="111.230469"/>
      <use xlink:href="#Helvetica-6b" x="166.845703"/>
      <use xlink:href="#Helvetica-79" x="216.845703"/>
      <use xlink:href="#Helvetica-43" x="266.845703"/>
      <use xlink:href="#Helvetica-61" x="339.0625"/>
      <use xlink:href="#Helvetica-6e" x="394.677734"/>
      <use xlink:href="#Helvetica-63" x="450.292969"/>
      <use xlink:href="#Helvetica-65" x="500.292969"/>
      <use xlink:href="#Helvetica-6c" x="555.908203"/>
     </g>
    </g>
    <g id="line2d_64">
     <path d="M 407.88 152.049375 
L 425.88 152.049375 
L 443.88 152.049375 
" style="fill: none; stroke-dasharray: 1,1.65; stroke-dashoffset: 0; stroke: #66ccee"/>
     <g>
      <use xlink:href="#m2c8a292af8" x="425.88" y="152.049375" style="fill: #66ccee; stroke: #66ccee"/>
     </g>
    </g>
    <g id="text_22">
     <!-- LeakyCancel -->
     <g style="fill: #262626" transform="translate(458.28 158.349375)scale(0.18 -0.18)">
      <use xlink:href="#Helvetica-4c"/>
      <use xlink:href="#Helvetica-65" x="55.615234"/>
      <use xlink:href="#Helvetica-61" x="111.230469"/>
      <use xlink:href="#Helvetica-6b" x="166.845703"/>
      <use xlink:href="#Helvetica-79" x="216.845703"/>
      <use xlink:href="#Helvetica-43" x="266.845703"/>
      <use xlink:href="#Helvetica-61" x="339.0625"/>
      <use xlink:href="#Helvetica-6e" x="394.677734"/>
      <use xlink:href="#Helvetica-63" x="450.292969"/>
      <use xlink:href="#Helvetica-65" x="500.292969"/>
      <use xlink:href="#Helvetica-6c" x="555.908203"/>
     </g>
    </g>
    <g id="line2d_65">
     <path d="M 407.88 177.820312 
L 425.88 177.820312 
L 443.88 177.820312 
" style="fill: none; stroke: #000000; stroke-width: 1.5; stroke-linecap: round"/>
    </g>
    <g id="text_23">
     <!-- Primary -->
     <g style="fill: #262626" transform="translate(458.28 184.120313)scale(0.18 -0.18)">
      <defs>
       <path id="Helvetica-50" d="M 547 4591 
L 2613 4591 
Q 3225 4591 3600 4245 
Q 3975 3900 3975 3275 
Q 3975 2738 3640 2339 
Q 3306 1941 2613 1941 
L 1169 1941 
L 1169 0 
L 547 0 
L 547 4591 
z
M 3347 3272 
Q 3347 3778 2972 3959 
Q 2766 4056 2406 4056 
L 1169 4056 
L 1169 2466 
L 2406 2466 
Q 2825 2466 3086 2644 
Q 3347 2822 3347 3272 
z
" transform="scale(0.015625)"/>
      </defs>
      <use xlink:href="#Helvetica-50"/>
      <use xlink:href="#Helvetica-72" x="66.699219"/>
      <use xlink:href="#Helvetica-69" x="100"/>
      <use xlink:href="#Helvetica-6d" x="122.216797"/>
      <use xlink:href="#Helvetica-61" x="205.517578"/>
      <use xlink:href="#Helvetica-72" x="261.132812"/>
      <use xlink:href="#Helvetica-79" x="294.433594"/>
     </g>
    </g>
    <g id="line2d_66">
     <path d="M 407.88 203.59125 
L 425.88 203.59125 
L 443.88 203.59125 
" style="fill: none; stroke-dasharray: 1.5,2.475; stroke-dashoffset: 0; stroke: #000000; stroke-width: 1.5"/>
    </g>
    <g id="text_24">
     <!-- Shadow -->
     <g style="fill: #262626" transform="translate(458.28 209.89125)scale(0.18 -0.18)">
      <defs>
       <path id="Helvetica-53" d="M 894 1481 
Q 916 1091 1078 847 
Q 1388 391 2169 391 
Q 2519 391 2806 491 
Q 3363 684 3363 1184 
Q 3363 1559 3128 1719 
Q 2891 1875 2384 1991 
L 1763 2131 
Q 1153 2269 900 2434 
Q 463 2722 463 3294 
Q 463 3913 891 4309 
Q 1319 4706 2103 4706 
Q 2825 4706 3329 4357 
Q 3834 4009 3834 3244 
L 3250 3244 
Q 3203 3613 3050 3809 
Q 2766 4169 2084 4169 
Q 1534 4169 1293 3937 
Q 1053 3706 1053 3400 
Q 1053 3063 1334 2906 
Q 1519 2806 2169 2656 
L 2813 2509 
Q 3278 2403 3531 2219 
Q 3969 1897 3969 1284 
Q 3969 522 3414 194 
Q 2859 -134 2125 -134 
Q 1269 -134 784 303 
Q 300 738 309 1481 
L 894 1481 
z
M 2150 4716 
L 2150 4716 
z
" transform="scale(0.015625)"/>
       <path id="Helvetica-77" d="M 672 3347 
L 1316 709 
L 1969 3347 
L 2600 3347 
L 3256 725 
L 3941 3347 
L 4503 3347 
L 3531 0 
L 2947 0 
L 2266 2591 
L 1606 0 
L 1022 0 
L 56 3347 
L 672 3347 
z
" transform="scale(0.015625)"/>
      </defs>
      <use xlink:href="#Helvetica-53"/>
      <use xlink:href="#Helvetica-68" x="66.699219"/>
      <use xlink:href="#Helvetica-61" x="122.314453"/>
      <use xlink:href="#Helvetica-64" x="177.929688"/>
      <use xlink:href="#Helvetica-6f" x="233.544922"/>
      <use xlink:href="#Helvetica-77" x="289.160156"/>
     </g>
    </g>
   </g>
  </g>
 </g>
 <defs>
  <clipPath id="p0f95b26363">
   <rect x="57.6" y="41.472" width="357.12" height="266.112"/>
  </clipPath>
 </defs>
</svg>
