<?xml version="1.0" encoding="utf-8" standalone="no"?>
<!DOCTYPE svg PUBLIC "-//W3C//DTD SVG 1.1//EN"
  "http://www.w3.org/Graphics/SVG/1.1/DTD/svg11.dtd">
<svg xmlns:xlink="http://www.w3.org/1999/xlink" width="460.8pt" height="345.6pt" viewBox="0 0 460.8 345.6" xmlns="http://www.w3.org/2000/svg" version="1.1">
 <metadata>
  <rdf:RDF xmlns:dc="http://purl.org/dc/elements/1.1/" xmlns:cc="http://creativecommons.org/ns#" xmlns:rdf="http://www.w3.org/1999/02/22-rdf-syntax-ns#">
   <cc:Work>
    <dc:type rdf:resource="http://purl.org/dc/dcmitype/StillImage"/>
    <dc:date>2024-04-08T16:38:57.657027</dc:date>
    <dc:format>image/svg+xml</dc:format>
    <dc:creator>
     <cc:Agent>
      <dc:title>Matplotlib v3.5.1, https://matplotlib.org/</dc:title>
     </cc:Agent>
    </dc:creator>
   </cc:Work>
  </rdf:RDF>
 </metadata>
 <defs>
  <style type="text/css">*{stroke-linejoin: round; stroke-linecap: butt}</style>
 </defs>
 <g id="figure_1">
  <g id="patch_1">
   <path d="M 0 345.6 
L 460.8 345.6 
L 460.8 0 
L 0 0 
z
" style="fill: #ffffff"/>
  </g>
  <g id="axes_1">
   <g id="patch_2">
    <path d="M 57.6 307.584 
L 414.72 307.584 
L 414.72 41.472 
L 57.6 41.472 
z
" style="fill: #ffffff"/>
   </g>
   <g id="matplotlib.axis_1">
    <g id="xtick_1">
     <g id="line2d_1">
      <defs>
       <path id="m1f2cc05b74" d="M 0 0 
L 0 4 
" style="stroke: #262626"/>
      </defs>
      <g>
       <use xlink:href="#m1f2cc05b74" x="73.832727" y="307.584" style="fill: #262626; stroke: #262626"/>
      </g>
     </g>
     <g id="text_1">
      <!-- 0.00 -->
      <g style="fill: #262626" transform="translate(60.210071 325.126812)scale(0.14 -0.14)">
       <defs>
        <path id="Helvetica-30" d="M 1731 4475 
Q 2600 4475 2988 3759 
Q 3288 3206 3288 2244 
Q 3288 1331 3016 734 
Q 2622 -122 1728 -122 
Q 922 -122 528 578 
Q 200 1163 200 2147 
Q 200 2909 397 3456 
Q 766 4475 1731 4475 
z
M 1725 391 
Q 2163 391 2422 778 
Q 2681 1166 2681 2222 
Q 2681 2984 2493 3476 
Q 2306 3969 1766 3969 
Q 1269 3969 1039 3501 
Q 809 3034 809 2125 
Q 809 1441 956 1025 
Q 1181 391 1725 391 
z
" transform="scale(0.015625)"/>
        <path id="Helvetica-2e" d="M 547 681 
L 1200 681 
L 1200 0 
L 547 0 
L 547 681 
z
" transform="scale(0.015625)"/>
       </defs>
       <use xlink:href="#Helvetica-30"/>
       <use xlink:href="#Helvetica-2e" x="55.615234"/>
       <use xlink:href="#Helvetica-30" x="83.398438"/>
       <use xlink:href="#Helvetica-30" x="139.013672"/>
      </g>
     </g>
    </g>
    <g id="xtick_2">
     <g id="line2d_2">
      <g>
       <use xlink:href="#m1f2cc05b74" x="114.414545" y="307.584" style="fill: #262626; stroke: #262626"/>
      </g>
     </g>
     <g id="text_2">
      <!-- 0.25 -->
      <g style="fill: #262626" transform="translate(100.791889 325.126812)scale(0.14 -0.14)">
       <defs>
        <path id="Helvetica-32" d="M 200 0 
Q 231 578 439 1006 
Q 647 1434 1250 1784 
L 1850 2131 
Q 2253 2366 2416 2531 
Q 2672 2791 2672 3125 
Q 2672 3516 2437 3745 
Q 2203 3975 1813 3975 
Q 1234 3975 1013 3538 
Q 894 3303 881 2888 
L 309 2888 
Q 319 3472 525 3841 
Q 891 4491 1816 4491 
Q 2584 4491 2939 4075 
Q 3294 3659 3294 3150 
Q 3294 2613 2916 2231 
Q 2697 2009 2131 1694 
L 1703 1456 
Q 1397 1288 1222 1134 
Q 909 863 828 531 
L 3272 531 
L 3272 0 
L 200 0 
z
" transform="scale(0.015625)"/>
        <path id="Helvetica-35" d="M 791 1141 
Q 847 659 1238 475 
Q 1438 381 1700 381 
Q 2200 381 2440 700 
Q 2681 1019 2681 1406 
Q 2681 1875 2395 2131 
Q 2109 2388 1709 2388 
Q 1419 2388 1211 2275 
Q 1003 2163 856 1963 
L 369 1991 
L 709 4400 
L 3034 4400 
L 3034 3856 
L 1131 3856 
L 941 2613 
Q 1097 2731 1238 2791 
Q 1488 2894 1816 2894 
Q 2431 2894 2859 2497 
Q 3288 2100 3288 1491 
Q 3288 856 2895 371 
Q 2503 -113 1644 -113 
Q 1097 -113 676 195 
Q 256 503 206 1141 
L 791 1141 
z
" transform="scale(0.015625)"/>
       </defs>
       <use xlink:href="#Helvetica-30"/>
       <use xlink:href="#Helvetica-2e" x="55.615234"/>
       <use xlink:href="#Helvetica-32" x="83.398438"/>
       <use xlink:href="#Helvetica-35" x="139.013672"/>
      </g>
     </g>
    </g>
    <g id="xtick_3">
     <g id="line2d_3">
      <g>
       <use xlink:href="#m1f2cc05b74" x="154.996364" y="307.584" style="fill: #262626; stroke: #262626"/>
      </g>
     </g>
     <g id="text_3">
      <!-- 0.50 -->
      <g style="fill: #262626" transform="translate(141.373707 325.126812)scale(0.14 -0.14)">
       <use xlink:href="#Helvetica-30"/>
       <use xlink:href="#Helvetica-2e" x="55.615234"/>
       <use xlink:href="#Helvetica-35" x="83.398438"/>
       <use xlink:href="#Helvetica-30" x="139.013672"/>
      </g>
     </g>
    </g>
    <g id="xtick_4">
     <g id="line2d_4">
      <g>
       <use xlink:href="#m1f2cc05b74" x="195.578182" y="307.584" style="fill: #262626; stroke: #262626"/>
      </g>
     </g>
     <g id="text_4">
      <!-- 0.75 -->
      <g style="fill: #262626" transform="translate(181.955526 325.126812)scale(0.14 -0.14)">
       <defs>
        <path id="Helvetica-37" d="M 3347 4400 
L 3347 3909 
Q 3131 3700 2773 3181 
Q 2416 2663 2141 2063 
Q 1869 1478 1728 997 
Q 1638 688 1494 0 
L 872 0 
Q 1084 1281 1809 2550 
Q 2238 3294 2709 3834 
L 234 3834 
L 234 4400 
L 3347 4400 
z
" transform="scale(0.015625)"/>
       </defs>
       <use xlink:href="#Helvetica-30"/>
       <use xlink:href="#Helvetica-2e" x="55.615234"/>
       <use xlink:href="#Helvetica-37" x="83.398438"/>
       <use xlink:href="#Helvetica-35" x="139.013672"/>
      </g>
     </g>
    </g>
    <g id="xtick_5">
     <g id="line2d_5">
      <g>
       <use xlink:href="#m1f2cc05b74" x="236.16" y="307.584" style="fill: #262626; stroke: #262626"/>
      </g>
     </g>
     <g id="text_5">
      <!-- 1.00 -->
      <g style="fill: #262626" transform="translate(222.537344 325.126812)scale(0.14 -0.14)">
       <defs>
        <path id="Helvetica-31" d="M 613 3169 
L 613 3600 
Q 1222 3659 1462 3798 
Q 1703 3938 1822 4456 
L 2266 4456 
L 2266 0 
L 1666 0 
L 1666 3169 
L 613 3169 
z
" transform="scale(0.015625)"/>
       </defs>
       <use xlink:href="#Helvetica-31"/>
       <use xlink:href="#Helvetica-2e" x="55.615234"/>
       <use xlink:href="#Helvetica-30" x="83.398438"/>
       <use xlink:href="#Helvetica-30" x="139.013672"/>
      </g>
     </g>
    </g>
    <g id="xtick_6">
     <g id="line2d_6">
      <g>
       <use xlink:href="#m1f2cc05b74" x="276.741818" y="307.584" style="fill: #262626; stroke: #262626"/>
      </g>
     </g>
     <g id="text_6">
      <!-- 1.25 -->
      <g style="fill: #262626" transform="translate(263.119162 325.126812)scale(0.14 -0.14)">
       <use xlink:href="#Helvetica-31"/>
       <use xlink:href="#Helvetica-2e" x="55.615234"/>
       <use xlink:href="#Helvetica-32" x="83.398438"/>
       <use xlink:href="#Helvetica-35" x="139.013672"/>
      </g>
     </g>
    </g>
    <g id="xtick_7">
     <g id="line2d_7">
      <g>
       <use xlink:href="#m1f2cc05b74" x="317.323636" y="307.584" style="fill: #262626; stroke: #262626"/>
      </g>
     </g>
     <g id="text_7">
      <!-- 1.50 -->
      <g style="fill: #262626" transform="translate(303.70098 325.126812)scale(0.14 -0.14)">
       <use xlink:href="#Helvetica-31"/>
       <use xlink:href="#Helvetica-2e" x="55.615234"/>
       <use xlink:href="#Helvetica-35" x="83.398438"/>
       <use xlink:href="#Helvetica-30" x="139.013672"/>
      </g>
     </g>
    </g>
    <g id="xtick_8">
     <g id="line2d_8">
      <g>
       <use xlink:href="#m1f2cc05b74" x="357.905455" y="307.584" style="fill: #262626; stroke: #262626"/>
      </g>
     </g>
     <g id="text_8">
      <!-- 1.75 -->
      <g style="fill: #262626" transform="translate(344.282798 325.126812)scale(0.14 -0.14)">
       <use xlink:href="#Helvetica-31"/>
       <use xlink:href="#Helvetica-2e" x="55.615234"/>
       <use xlink:href="#Helvetica-37" x="83.398438"/>
       <use xlink:href="#Helvetica-35" x="139.013672"/>
      </g>
     </g>
    </g>
    <g id="xtick_9">
     <g id="line2d_9">
      <g>
       <use xlink:href="#m1f2cc05b74" x="398.487273" y="307.584" style="fill: #262626; stroke: #262626"/>
      </g>
     </g>
     <g id="text_9">
      <!-- 2.00 -->
      <g style="fill: #262626" transform="translate(384.864616 325.126812)scale(0.14 -0.14)">
       <use xlink:href="#Helvetica-32"/>
       <use xlink:href="#Helvetica-2e" x="55.615234"/>
       <use xlink:href="#Helvetica-30" x="83.398438"/>
       <use xlink:href="#Helvetica-30" x="139.013672"/>
      </g>
     </g>
    </g>
    <g id="text_10">
     <!-- Time (hours) -->
     <g style="fill: #262626" transform="translate(185.156719 345.089312)scale(0.18 -0.18)">
      <defs>
       <path id="Helvetica-54" d="M 3828 4591 
L 3828 4044 
L 2281 4044 
L 2281 0 
L 1650 0 
L 1650 4044 
L 103 4044 
L 103 4591 
L 3828 4591 
z
" transform="scale(0.015625)"/>
       <path id="Helvetica-69" d="M 413 3331 
L 984 3331 
L 984 0 
L 413 0 
L 413 3331 
z
M 413 4591 
L 984 4591 
L 984 3953 
L 413 3953 
L 413 4591 
z
" transform="scale(0.015625)"/>
       <path id="Helvetica-6d" d="M 413 3347 
L 969 3347 
L 969 2872 
Q 1169 3119 1331 3231 
Q 1609 3422 1963 3422 
Q 2363 3422 2606 3225 
Q 2744 3113 2856 2894 
Q 3044 3163 3297 3292 
Q 3550 3422 3866 3422 
Q 4541 3422 4784 2934 
Q 4916 2672 4916 2228 
L 4916 0 
L 4331 0 
L 4331 2325 
Q 4331 2659 4164 2784 
Q 3997 2909 3756 2909 
Q 3425 2909 3186 2687 
Q 2947 2466 2947 1947 
L 2947 0 
L 2375 0 
L 2375 2184 
Q 2375 2525 2294 2681 
Q 2166 2916 1816 2916 
Q 1497 2916 1236 2669 
Q 975 2422 975 1775 
L 975 0 
L 413 0 
L 413 3347 
z
" transform="scale(0.015625)"/>
       <path id="Helvetica-65" d="M 1806 3422 
Q 2163 3422 2497 3255 
Q 2831 3088 3006 2822 
Q 3175 2569 3231 2231 
Q 3281 2000 3281 1494 
L 828 1494 
Q 844 984 1069 676 
Q 1294 369 1766 369 
Q 2206 369 2469 659 
Q 2619 828 2681 1050 
L 3234 1050 
Q 3213 866 3089 639 
Q 2966 413 2813 269 
Q 2556 19 2178 -69 
Q 1975 -119 1719 -119 
Q 1094 -119 659 336 
Q 225 791 225 1609 
Q 225 2416 662 2919 
Q 1100 3422 1806 3422 
z
M 2703 1941 
Q 2669 2306 2544 2525 
Q 2313 2931 1772 2931 
Q 1384 2931 1121 2651 
Q 859 2372 844 1941 
L 2703 1941 
z
M 1753 3428 
L 1753 3428 
z
" transform="scale(0.015625)"/>
       <path id="Helvetica-20" transform="scale(0.015625)"/>
       <path id="Helvetica-28" d="M 1894 4666 
Q 1403 3713 1256 3263 
Q 1034 2578 1034 1681 
Q 1034 775 1288 25 
Q 1444 -438 1903 -1306 
L 1525 -1306 
Q 1069 -594 959 -397 
Q 850 -200 722 138 
Q 547 600 478 1125 
Q 444 1397 444 1644 
Q 444 2569 734 3291 
Q 919 3750 1503 4666 
L 1894 4666 
z
" transform="scale(0.015625)"/>
       <path id="Helvetica-68" d="M 413 4606 
L 975 4606 
L 975 2894 
Q 1175 3147 1334 3250 
Q 1606 3428 2013 3428 
Q 2741 3428 3000 2919 
Q 3141 2641 3141 2147 
L 3141 0 
L 2563 0 
L 2563 2109 
Q 2563 2478 2469 2650 
Q 2316 2925 1894 2925 
Q 1544 2925 1259 2684 
Q 975 2444 975 1775 
L 975 0 
L 413 0 
L 413 4606 
z
" transform="scale(0.015625)"/>
       <path id="Helvetica-6f" d="M 1741 363 
Q 2300 363 2508 786 
Q 2716 1209 2716 1728 
Q 2716 2197 2566 2491 
Q 2328 2953 1747 2953 
Q 1231 2953 997 2559 
Q 763 2166 763 1609 
Q 763 1075 997 719 
Q 1231 363 1741 363 
z
M 1763 3444 
Q 2409 3444 2856 3012 
Q 3303 2581 3303 1744 
Q 3303 934 2909 406 
Q 2516 -122 1688 -122 
Q 997 -122 590 345 
Q 184 813 184 1600 
Q 184 2444 612 2944 
Q 1041 3444 1763 3444 
z
M 1744 3428 
L 1744 3428 
z
" transform="scale(0.015625)"/>
       <path id="Helvetica-75" d="M 975 3347 
L 975 1125 
Q 975 869 1056 706 
Q 1206 406 1616 406 
Q 2203 406 2416 931 
Q 2531 1213 2531 1703 
L 2531 3347 
L 3094 3347 
L 3094 0 
L 2563 0 
L 2569 494 
Q 2459 303 2297 172 
Q 1975 -91 1516 -91 
Q 800 -91 541 388 
Q 400 644 400 1072 
L 400 3347 
L 975 3347 
z
M 1747 3428 
L 1747 3428 
z
" transform="scale(0.015625)"/>
       <path id="Helvetica-72" d="M 428 3347 
L 963 3347 
L 963 2769 
Q 1028 2938 1284 3180 
Q 1541 3422 1875 3422 
Q 1891 3422 1928 3419 
Q 1966 3416 2056 3406 
L 2056 2813 
Q 2006 2822 1964 2825 
Q 1922 2828 1872 2828 
Q 1447 2828 1219 2554 
Q 991 2281 991 1925 
L 991 0 
L 428 0 
L 428 3347 
z
" transform="scale(0.015625)"/>
       <path id="Helvetica-73" d="M 747 1050 
Q 772 769 888 619 
Q 1100 347 1625 347 
Q 1938 347 2175 483 
Q 2413 619 2413 903 
Q 2413 1119 2222 1231 
Q 2100 1300 1741 1391 
L 1294 1503 
Q 866 1609 663 1741 
Q 300 1969 300 2372 
Q 300 2847 642 3140 
Q 984 3434 1563 3434 
Q 2319 3434 2653 2991 
Q 2863 2709 2856 2384 
L 2325 2384 
Q 2309 2575 2191 2731 
Q 1997 2953 1519 2953 
Q 1200 2953 1036 2831 
Q 872 2709 872 2509 
Q 872 2291 1088 2159 
Q 1213 2081 1456 2022 
L 1828 1931 
Q 2434 1784 2641 1647 
Q 2969 1431 2969 969 
Q 2969 522 2630 197 
Q 2291 -128 1597 -128 
Q 850 -128 539 211 
Q 228 550 206 1050 
L 747 1050 
z
M 1578 3428 
L 1578 3428 
z
" transform="scale(0.015625)"/>
       <path id="Helvetica-29" d="M 222 -1306 
Q 719 -338 863 106 
Q 1081 778 1081 1681 
Q 1081 2584 828 3334 
Q 672 3797 213 4666 
L 591 4666 
Q 1072 3897 1173 3717 
Q 1275 3538 1394 3222 
Q 1544 2831 1608 2450 
Q 1672 2069 1672 1716 
Q 1672 791 1378 66 
Q 1194 -400 613 -1306 
L 222 -1306 
z
" transform="scale(0.015625)"/>
      </defs>
      <use xlink:href="#Helvetica-54"/>
      <use xlink:href="#Helvetica-69" x="61.083984"/>
      <use xlink:href="#Helvetica-6d" x="83.300781"/>
      <use xlink:href="#Helvetica-65" x="166.601562"/>
      <use xlink:href="#Helvetica-20" x="222.216797"/>
      <use xlink:href="#Helvetica-28" x="250"/>
      <use xlink:href="#Helvetica-68" x="283.300781"/>
      <use xlink:href="#Helvetica-6f" x="338.916016"/>
      <use xlink:href="#Helvetica-75" x="394.53125"/>
      <use xlink:href="#Helvetica-72" x="450.146484"/>
      <use xlink:href="#Helvetica-73" x="483.447266"/>
      <use xlink:href="#Helvetica-29" x="533.447266"/>
     </g>
    </g>
   </g>
   <g id="matplotlib.axis_2">
    <g id="ytick_1">
     <g id="line2d_10">
      <defs>
       <path id="m5d00e395ba" d="M 0 0 
L -4 0 
" style="stroke: #262626"/>
      </defs>
      <g>
       <use xlink:href="#m5d00e395ba" x="57.6" y="302.624783" style="fill: #262626; stroke: #262626"/>
      </g>
     </g>
     <g id="text_11">
      <!-- 22.5 -->
      <g style="fill: #262626" transform="translate(22.854687 307.646189)scale(0.14 -0.14)">
       <use xlink:href="#Helvetica-32"/>
       <use xlink:href="#Helvetica-32" x="55.615234"/>
       <use xlink:href="#Helvetica-2e" x="111.230469"/>
       <use xlink:href="#Helvetica-35" x="139.013672"/>
      </g>
     </g>
    </g>
    <g id="ytick_2">
     <g id="line2d_11">
      <g>
       <use xlink:href="#m5d00e395ba" x="57.6" y="267.045243" style="fill: #262626; stroke: #262626"/>
      </g>
     </g>
     <g id="text_12">
      <!-- 25.0 -->
      <g style="fill: #262626" transform="translate(22.854687 272.066649)scale(0.14 -0.14)">
       <use xlink:href="#Helvetica-32"/>
       <use xlink:href="#Helvetica-35" x="55.615234"/>
       <use xlink:href="#Helvetica-2e" x="111.230469"/>
       <use xlink:href="#Helvetica-30" x="139.013672"/>
      </g>
     </g>
    </g>
    <g id="ytick_3">
     <g id="line2d_12">
      <g>
       <use xlink:href="#m5d00e395ba" x="57.6" y="231.465702" style="fill: #262626; stroke: #262626"/>
      </g>
     </g>
     <g id="text_13">
      <!-- 27.5 -->
      <g style="fill: #262626" transform="translate(22.854687 236.487108)scale(0.14 -0.14)">
       <use xlink:href="#Helvetica-32"/>
       <use xlink:href="#Helvetica-37" x="55.615234"/>
       <use xlink:href="#Helvetica-2e" x="111.230469"/>
       <use xlink:href="#Helvetica-35" x="139.013672"/>
      </g>
     </g>
    </g>
    <g id="ytick_4">
     <g id="line2d_13">
      <g>
       <use xlink:href="#m5d00e395ba" x="57.6" y="195.886162" style="fill: #262626; stroke: #262626"/>
      </g>
     </g>
     <g id="text_14">
      <!-- 30.0 -->
      <g style="fill: #262626" transform="translate(22.854687 200.907568)scale(0.14 -0.14)">
       <defs>
        <path id="Helvetica-33" d="M 1663 -122 
Q 869 -122 511 314 
Q 153 750 153 1375 
L 741 1375 
Q 778 941 903 744 
Q 1122 391 1694 391 
Q 2138 391 2406 628 
Q 2675 866 2675 1241 
Q 2675 1703 2392 1887 
Q 2109 2072 1606 2072 
Q 1550 2072 1492 2070 
Q 1434 2069 1375 2066 
L 1375 2563 
Q 1463 2553 1522 2550 
Q 1581 2547 1650 2547 
Q 1966 2547 2169 2647 
Q 2525 2822 2525 3272 
Q 2525 3606 2287 3787 
Q 2050 3969 1734 3969 
Q 1172 3969 956 3594 
Q 838 3388 822 3006 
L 266 3006 
Q 266 3506 466 3856 
Q 809 4481 1675 4481 
Q 2359 4481 2734 4176 
Q 3109 3872 3109 3294 
Q 3109 2881 2888 2625 
Q 2750 2466 2531 2375 
Q 2884 2278 3082 2001 
Q 3281 1725 3281 1325 
Q 3281 684 2859 281 
Q 2438 -122 1663 -122 
z
" transform="scale(0.015625)"/>
       </defs>
       <use xlink:href="#Helvetica-33"/>
       <use xlink:href="#Helvetica-30" x="55.615234"/>
       <use xlink:href="#Helvetica-2e" x="111.230469"/>
       <use xlink:href="#Helvetica-30" x="139.013672"/>
      </g>
     </g>
    </g>
    <g id="ytick_5">
     <g id="line2d_14">
      <g>
       <use xlink:href="#m5d00e395ba" x="57.6" y="160.306621" style="fill: #262626; stroke: #262626"/>
      </g>
     </g>
     <g id="text_15">
      <!-- 32.5 -->
      <g style="fill: #262626" transform="translate(22.854687 165.328028)scale(0.14 -0.14)">
       <use xlink:href="#Helvetica-33"/>
       <use xlink:href="#Helvetica-32" x="55.615234"/>
       <use xlink:href="#Helvetica-2e" x="111.230469"/>
       <use xlink:href="#Helvetica-35" x="139.013672"/>
      </g>
     </g>
    </g>
    <g id="ytick_6">
     <g id="line2d_15">
      <g>
       <use xlink:href="#m5d00e395ba" x="57.6" y="124.727081" style="fill: #262626; stroke: #262626"/>
      </g>
     </g>
     <g id="text_16">
      <!-- 35.0 -->
      <g style="fill: #262626" transform="translate(22.854687 129.748487)scale(0.14 -0.14)">
       <use xlink:href="#Helvetica-33"/>
       <use xlink:href="#Helvetica-35" x="55.615234"/>
       <use xlink:href="#Helvetica-2e" x="111.230469"/>
       <use xlink:href="#Helvetica-30" x="139.013672"/>
      </g>
     </g>
    </g>
    <g id="ytick_7">
     <g id="line2d_16">
      <g>
       <use xlink:href="#m5d00e395ba" x="57.6" y="89.14754" style="fill: #262626; stroke: #262626"/>
      </g>
     </g>
     <g id="text_17">
      <!-- 37.5 -->
      <g style="fill: #262626" transform="translate(22.854687 94.168947)scale(0.14 -0.14)">
       <use xlink:href="#Helvetica-33"/>
       <use xlink:href="#Helvetica-37" x="55.615234"/>
       <use xlink:href="#Helvetica-2e" x="111.230469"/>
       <use xlink:href="#Helvetica-35" x="139.013672"/>
      </g>
     </g>
    </g>
    <g id="ytick_8">
     <g id="line2d_17">
      <g>
       <use xlink:href="#m5d00e395ba" x="57.6" y="53.568" style="fill: #262626; stroke: #262626"/>
      </g>
     </g>
     <g id="text_18">
      <!-- 40.0 -->
      <g style="fill: #262626" transform="translate(22.854687 58.589406)scale(0.14 -0.14)">
       <defs>
        <path id="Helvetica-34" d="M 2116 1584 
L 2116 3613 
L 681 1584 
L 2116 1584 
z
M 2125 0 
L 2125 1094 
L 163 1094 
L 163 1644 
L 2213 4488 
L 2688 4488 
L 2688 1584 
L 3347 1584 
L 3347 1094 
L 2688 1094 
L 2688 0 
L 2125 0 
z
" transform="scale(0.015625)"/>
       </defs>
       <use xlink:href="#Helvetica-34"/>
       <use xlink:href="#Helvetica-30" x="55.615234"/>
       <use xlink:href="#Helvetica-2e" x="111.230469"/>
       <use xlink:href="#Helvetica-30" x="139.013672"/>
      </g>
     </g>
    </g>
    <g id="ytick_9">
     <g id="line2d_18">
      <defs>
       <path id="m771d74886f" d="M 0 0 
L -2 0 
" style="stroke: #262626"/>
      </defs>
      <g>
       <use xlink:href="#m771d74886f" x="57.6" y="295.508875" style="fill: #262626; stroke: #262626"/>
      </g>
     </g>
    </g>
    <g id="ytick_10">
     <g id="line2d_19">
      <g>
       <use xlink:href="#m771d74886f" x="57.6" y="288.392967" style="fill: #262626; stroke: #262626"/>
      </g>
     </g>
    </g>
    <g id="ytick_11">
     <g id="line2d_20">
      <g>
       <use xlink:href="#m771d74886f" x="57.6" y="281.277059" style="fill: #262626; stroke: #262626"/>
      </g>
     </g>
    </g>
    <g id="ytick_12">
     <g id="line2d_21">
      <g>
       <use xlink:href="#m771d74886f" x="57.6" y="274.161151" style="fill: #262626; stroke: #262626"/>
      </g>
     </g>
    </g>
    <g id="ytick_13">
     <g id="line2d_22">
      <g>
       <use xlink:href="#m771d74886f" x="57.6" y="259.929335" style="fill: #262626; stroke: #262626"/>
      </g>
     </g>
    </g>
    <g id="ytick_14">
     <g id="line2d_23">
      <g>
       <use xlink:href="#m771d74886f" x="57.6" y="252.813426" style="fill: #262626; stroke: #262626"/>
      </g>
     </g>
    </g>
    <g id="ytick_15">
     <g id="line2d_24">
      <g>
       <use xlink:href="#m771d74886f" x="57.6" y="245.697518" style="fill: #262626; stroke: #262626"/>
      </g>
     </g>
    </g>
    <g id="ytick_16">
     <g id="line2d_25">
      <g>
       <use xlink:href="#m771d74886f" x="57.6" y="238.58161" style="fill: #262626; stroke: #262626"/>
      </g>
     </g>
    </g>
    <g id="ytick_17">
     <g id="line2d_26">
      <g>
       <use xlink:href="#m771d74886f" x="57.6" y="224.349794" style="fill: #262626; stroke: #262626"/>
      </g>
     </g>
    </g>
    <g id="ytick_18">
     <g id="line2d_27">
      <g>
       <use xlink:href="#m771d74886f" x="57.6" y="217.233886" style="fill: #262626; stroke: #262626"/>
      </g>
     </g>
    </g>
    <g id="ytick_19">
     <g id="line2d_28">
      <g>
       <use xlink:href="#m771d74886f" x="57.6" y="210.117978" style="fill: #262626; stroke: #262626"/>
      </g>
     </g>
    </g>
    <g id="ytick_20">
     <g id="line2d_29">
      <g>
       <use xlink:href="#m771d74886f" x="57.6" y="203.00207" style="fill: #262626; stroke: #262626"/>
      </g>
     </g>
    </g>
    <g id="ytick_21">
     <g id="line2d_30">
      <g>
       <use xlink:href="#m771d74886f" x="57.6" y="188.770254" style="fill: #262626; stroke: #262626"/>
      </g>
     </g>
    </g>
    <g id="ytick_22">
     <g id="line2d_31">
      <g>
       <use xlink:href="#m771d74886f" x="57.6" y="181.654346" style="fill: #262626; stroke: #262626"/>
      </g>
     </g>
    </g>
    <g id="ytick_23">
     <g id="line2d_32">
      <g>
       <use xlink:href="#m771d74886f" x="57.6" y="174.538437" style="fill: #262626; stroke: #262626"/>
      </g>
     </g>
    </g>
    <g id="ytick_24">
     <g id="line2d_33">
      <g>
       <use xlink:href="#m771d74886f" x="57.6" y="167.422529" style="fill: #262626; stroke: #262626"/>
      </g>
     </g>
    </g>
    <g id="ytick_25">
     <g id="line2d_34">
      <g>
       <use xlink:href="#m771d74886f" x="57.6" y="153.190713" style="fill: #262626; stroke: #262626"/>
      </g>
     </g>
    </g>
    <g id="ytick_26">
     <g id="line2d_35">
      <g>
       <use xlink:href="#m771d74886f" x="57.6" y="146.074805" style="fill: #262626; stroke: #262626"/>
      </g>
     </g>
    </g>
    <g id="ytick_27">
     <g id="line2d_36">
      <g>
       <use xlink:href="#m771d74886f" x="57.6" y="138.958897" style="fill: #262626; stroke: #262626"/>
      </g>
     </g>
    </g>
    <g id="ytick_28">
     <g id="line2d_37">
      <g>
       <use xlink:href="#m771d74886f" x="57.6" y="131.842989" style="fill: #262626; stroke: #262626"/>
      </g>
     </g>
    </g>
    <g id="ytick_29">
     <g id="line2d_38">
      <g>
       <use xlink:href="#m771d74886f" x="57.6" y="117.611173" style="fill: #262626; stroke: #262626"/>
      </g>
     </g>
    </g>
    <g id="ytick_30">
     <g id="line2d_39">
      <g>
       <use xlink:href="#m771d74886f" x="57.6" y="110.495265" style="fill: #262626; stroke: #262626"/>
      </g>
     </g>
    </g>
    <g id="ytick_31">
     <g id="line2d_40">
      <g>
       <use xlink:href="#m771d74886f" x="57.6" y="103.379357" style="fill: #262626; stroke: #262626"/>
      </g>
     </g>
    </g>
    <g id="ytick_32">
     <g id="line2d_41">
      <g>
       <use xlink:href="#m771d74886f" x="57.6" y="96.263449" style="fill: #262626; stroke: #262626"/>
      </g>
     </g>
    </g>
    <g id="ytick_33">
     <g id="line2d_42">
      <g>
       <use xlink:href="#m771d74886f" x="57.6" y="82.031632" style="fill: #262626; stroke: #262626"/>
      </g>
     </g>
    </g>
    <g id="ytick_34">
     <g id="line2d_43">
      <g>
       <use xlink:href="#m771d74886f" x="57.6" y="74.915724" style="fill: #262626; stroke: #262626"/>
      </g>
     </g>
    </g>
    <g id="ytick_35">
     <g id="line2d_44">
      <g>
       <use xlink:href="#m771d74886f" x="57.6" y="67.799816" style="fill: #262626; stroke: #262626"/>
      </g>
     </g>
    </g>
    <g id="ytick_36">
     <g id="line2d_45">
      <g>
       <use xlink:href="#m771d74886f" x="57.6" y="60.683908" style="fill: #262626; stroke: #262626"/>
      </g>
     </g>
    </g>
    <g id="ytick_37">
     <g id="line2d_46">
      <g>
       <use xlink:href="#m771d74886f" x="57.6" y="46.452092" style="fill: #262626; stroke: #262626"/>
      </g>
     </g>
    </g>
    <g id="text_19">
     <!-- Concentration (nM) -->
     <g style="fill: #262626" transform="translate(15.102812 251.553937)rotate(-90)scale(0.18 -0.18)">
      <defs>
       <path id="Helvetica-43" d="M 2422 4716 
Q 3294 4716 3775 4256 
Q 4256 3797 4309 3213 
L 3703 3213 
Q 3600 3656 3292 3915 
Q 2984 4175 2428 4175 
Q 1750 4175 1333 3698 
Q 916 3222 916 2238 
Q 916 1431 1292 929 
Q 1669 428 2416 428 
Q 3103 428 3463 956 
Q 3653 1234 3747 1688 
L 4353 1688 
Q 4272 963 3816 472 
Q 3269 -119 2341 -119 
Q 1541 -119 997 366 
Q 281 1006 281 2344 
Q 281 3359 819 4009 
Q 1400 4716 2422 4716 
z
M 2297 4716 
L 2297 4716 
z
" transform="scale(0.015625)"/>
       <path id="Helvetica-6e" d="M 413 3347 
L 947 3347 
L 947 2872 
Q 1184 3166 1450 3294 
Q 1716 3422 2041 3422 
Q 2753 3422 3003 2925 
Q 3141 2653 3141 2147 
L 3141 0 
L 2569 0 
L 2569 2109 
Q 2569 2416 2478 2603 
Q 2328 2916 1934 2916 
Q 1734 2916 1606 2875 
Q 1375 2806 1200 2600 
Q 1059 2434 1017 2257 
Q 975 2081 975 1753 
L 975 0 
L 413 0 
L 413 3347 
z
M 1734 3428 
L 1734 3428 
z
" transform="scale(0.015625)"/>
       <path id="Helvetica-63" d="M 1703 3444 
Q 2269 3444 2623 3169 
Q 2978 2894 3050 2222 
L 2503 2222 
Q 2453 2531 2275 2736 
Q 2097 2941 1703 2941 
Q 1166 2941 934 2416 
Q 784 2075 784 1575 
Q 784 1072 996 728 
Q 1209 384 1666 384 
Q 2016 384 2220 598 
Q 2425 813 2503 1184 
L 3050 1184 
Q 2956 519 2581 211 
Q 2206 -97 1622 -97 
Q 966 -97 575 383 
Q 184 863 184 1581 
Q 184 2463 612 2953 
Q 1041 3444 1703 3444 
z
M 1616 3428 
L 1616 3428 
z
" transform="scale(0.015625)"/>
       <path id="Helvetica-74" d="M 525 4281 
L 1094 4281 
L 1094 3347 
L 1628 3347 
L 1628 2888 
L 1094 2888 
L 1094 703 
Q 1094 528 1213 469 
Q 1278 434 1431 434 
Q 1472 434 1519 436 
Q 1566 438 1628 444 
L 1628 0 
Q 1531 -28 1426 -40 
Q 1322 -53 1200 -53 
Q 806 -53 665 148 
Q 525 350 525 672 
L 525 2888 
L 72 2888 
L 72 3347 
L 525 3347 
L 525 4281 
z
" transform="scale(0.015625)"/>
       <path id="Helvetica-61" d="M 844 891 
Q 844 647 1022 506 
Q 1200 366 1444 366 
Q 1741 366 2019 503 
Q 2488 731 2488 1250 
L 2488 1703 
Q 2384 1638 2221 1594 
Q 2059 1550 1903 1531 
L 1563 1488 
Q 1256 1447 1103 1359 
Q 844 1213 844 891 
z
M 2206 2028 
Q 2400 2053 2466 2191 
Q 2503 2266 2503 2406 
Q 2503 2694 2298 2823 
Q 2094 2953 1713 2953 
Q 1272 2953 1088 2716 
Q 984 2584 953 2325 
L 428 2325 
Q 444 2944 830 3186 
Q 1216 3428 1725 3428 
Q 2316 3428 2684 3203 
Q 3050 2978 3050 2503 
L 3050 575 
Q 3050 488 3086 434 
Q 3122 381 3238 381 
Q 3275 381 3322 386 
Q 3369 391 3422 400 
L 3422 -16 
Q 3291 -53 3222 -62 
Q 3153 -72 3034 -72 
Q 2744 -72 2613 134 
Q 2544 244 2516 444 
Q 2344 219 2022 53 
Q 1700 -113 1313 -113 
Q 847 -113 551 170 
Q 256 453 256 878 
Q 256 1344 547 1600 
Q 838 1856 1309 1916 
L 2206 2028 
z
M 1741 3428 
L 1741 3428 
z
" transform="scale(0.015625)"/>
       <path id="Helvetica-4d" d="M 472 4591 
L 1363 4591 
L 2681 709 
L 3991 4591 
L 4872 4591 
L 4872 0 
L 4281 0 
L 4281 2709 
Q 4281 2850 4287 3175 
Q 4294 3500 4294 3872 
L 2984 0 
L 2369 0 
L 1050 3872 
L 1050 3731 
Q 1050 3563 1058 3217 
Q 1066 2872 1066 2709 
L 1066 0 
L 472 0 
L 472 4591 
z
" transform="scale(0.015625)"/>
      </defs>
      <use xlink:href="#Helvetica-43"/>
      <use xlink:href="#Helvetica-6f" x="72.216797"/>
      <use xlink:href="#Helvetica-6e" x="127.832031"/>
      <use xlink:href="#Helvetica-63" x="183.447266"/>
      <use xlink:href="#Helvetica-65" x="233.447266"/>
      <use xlink:href="#Helvetica-6e" x="289.0625"/>
      <use xlink:href="#Helvetica-74" x="344.677734"/>
      <use xlink:href="#Helvetica-72" x="372.460938"/>
      <use xlink:href="#Helvetica-61" x="405.761719"/>
      <use xlink:href="#Helvetica-74" x="461.376953"/>
      <use xlink:href="#Helvetica-69" x="489.160156"/>
      <use xlink:href="#Helvetica-6f" x="511.376953"/>
      <use xlink:href="#Helvetica-6e" x="566.992188"/>
      <use xlink:href="#Helvetica-20" x="622.607422"/>
      <use xlink:href="#Helvetica-28" x="650.390625"/>
      <use xlink:href="#Helvetica-6e" x="683.691406"/>
      <use xlink:href="#Helvetica-4d" x="739.306641"/>
      <use xlink:href="#Helvetica-29" x="822.607422"/>
     </g>
    </g>
   </g>
   <g id="line2d_47">
    <path d="M 73.832727 53.568 
L 74.483338 55.361675 
L 75.784558 55.060832 
L 77.736389 54.996472 
L 80.989441 55.23219 
L 86.194323 55.889838 
L 90.748595 56.673896 
L 94.652257 57.54333 
L 98.555919 58.648536 
L 101.808971 59.795367 
L 105.062022 61.194898 
L 107.664463 62.531456 
L 110.266905 64.093511 
L 112.869346 65.914183 
L 115.471787 68.028717 
L 118.074228 70.473402 
L 120.67667 73.284012 
L 123.279111 76.493766 
L 125.881552 80.130837 
L 128.483993 84.215584 
L 131.086435 88.757759 
L 133.688876 93.754017 
L 136.291317 99.186126 
L 139.544369 106.536163 
L 143.448031 116.042878 
L 148.002303 127.791673 
L 161.014509 161.794047 
L 165.568781 172.825729 
L 169.472443 181.680787 
L 173.376105 189.936659 
L 176.629156 196.352623 
L 179.882208 202.354284 
L 183.13526 207.955836 
L 186.388311 213.175539 
L 189.641363 218.0339 
L 192.894414 222.552478 
L 196.798076 227.557008 
L 200.701738 232.140994 
L 204.6054 236.340511 
L 208.509062 240.189923 
L 212.412724 243.721542 
L 216.316386 246.96543 
L 220.220047 249.949314 
L 224.77432 253.135613 
L 229.328592 256.038795 
L 233.882864 258.691155 
L 239.087746 261.451776 
L 244.292629 263.95921 
L 250.148122 266.517216 
L 256.003614 268.834269 
L 262.509718 271.166036 
L 269.666431 273.479163 
L 277.473755 275.748614 
L 285.931689 277.957102 
L 295.040233 280.094127 
L 304.799388 282.15479 
L 315.859763 284.256202 
L 328.221359 286.367141 
L 341.884176 288.467578 
L 357.498823 290.632898 
L 375.065302 292.836599 
L 395.234221 295.135974 
L 398.487273 295.488 
L 398.487273 295.488 
" clip-path="url(#p1ec92e7d29)" style="fill: none; stroke: #4477aa; stroke-linecap: round"/>
    <defs>
     <path id="m1a6f8991b4" d="M 0 2 
C 0.530406 2 1.03916 1.789267 1.414214 1.414214 
C 1.789267 1.03916 2 0.530406 2 0 
C 2 -0.530406 1.789267 -1.03916 1.414214 -1.414214 
C 1.03916 -1.789267 0.530406 -2 0 -2 
C -0.530406 -2 -1.03916 -1.789267 -1.414214 -1.414214 
C -1.789267 -1.03916 -2 -0.530406 -2 0 
C -2 0.530406 -1.789267 1.03916 -1.414214 1.414214 
C -1.03916 1.789267 -0.530406 2 0 2 
z
" style="stroke: #4477aa"/>
    </defs>
    <g clip-path="url(#p1ec92e7d29)">
     <use xlink:href="#m1a6f8991b4" x="73.832727" y="53.568" style="fill: #4477aa; stroke: #4477aa"/>
     <use xlink:href="#m1a6f8991b4" x="109.616294" y="63.680088" style="fill: #4477aa; stroke: #4477aa"/>
     <use xlink:href="#m1a6f8991b4" x="145.399862" y="121.012418" style="fill: #4477aa; stroke: #4477aa"/>
     <use xlink:href="#m1a6f8991b4" x="181.183429" y="204.641963" style="fill: #4477aa; stroke: #4477aa"/>
     <use xlink:href="#m1a6f8991b4" x="216.966996" y="247.480086" style="fill: #4477aa; stroke: #4477aa"/>
     <use xlink:href="#m1a6f8991b4" x="252.750563" y="267.574679" style="fill: #4477aa; stroke: #4477aa"/>
     <use xlink:href="#m1a6f8991b4" x="288.53413" y="278.591213" style="fill: #4477aa; stroke: #4477aa"/>
     <use xlink:href="#m1a6f8991b4" x="324.317697" y="285.724457" style="fill: #4477aa; stroke: #4477aa"/>
     <use xlink:href="#m1a6f8991b4" x="360.101264" y="290.973406" style="fill: #4477aa; stroke: #4477aa"/>
     <use xlink:href="#m1a6f8991b4" x="395.884831" y="295.206758" style="fill: #4477aa; stroke: #4477aa"/>
    </g>
   </g>
   <g id="line2d_48">
    <path d="M 73.832727 53.568 
L 74.483338 55.362138 
L 75.784558 55.063069 
L 77.736389 55.001009 
L 80.989441 55.237038 
L 86.194323 55.884575 
L 91.399206 56.771172 
L 95.953478 57.798554 
L 99.85714 58.920605 
L 103.110191 60.065667 
L 106.363243 61.43896 
L 109.616294 63.079622 
L 112.218736 64.613023 
L 114.821177 66.367177 
L 117.423618 68.364748 
L 120.026059 70.627613 
L 122.628501 73.175809 
L 125.230942 76.026337 
L 127.833383 79.191926 
L 130.435824 82.679837 
L 133.038266 86.490861 
L 136.291317 91.698586 
L 139.544369 97.371854 
L 142.79742 103.464479 
L 146.701082 111.242097 
L 151.905965 122.191862 
L 170.123053 161.191807 
L 174.677326 170.136277 
L 178.580987 177.349677 
L 182.484649 184.10735 
L 186.388311 190.394738 
L 190.291973 196.213432 
L 194.195635 201.577204 
L 198.099297 206.508269 
L 202.002959 211.034087 
L 205.906621 215.184821 
L 209.810282 218.991453 
L 213.713944 222.48446 
L 217.617606 225.692958 
L 221.521268 228.644191 
L 226.07554 231.795529 
L 230.629812 234.666888 
L 235.184085 237.29036 
L 240.388967 240.021272 
L 245.59385 242.502174 
L 251.449342 245.033657 
L 257.304835 247.327183 
L 263.810938 249.6357 
L 270.967652 251.926037 
L 278.774975 254.173137 
L 287.232909 256.359515 
L 296.341454 258.474327 
L 306.100608 260.512249 
L 317.160984 262.588436 
L 329.52258 264.671132 
L 343.185396 266.739639 
L 358.800044 268.866991 
L 376.366522 271.025678 
L 396.535442 273.270112 
L 398.487273 273.476386 
L 398.487273 273.476386 
" clip-path="url(#p1ec92e7d29)" style="fill: none; stroke: #ee6677; stroke-linecap: round"/>
    <defs>
     <path id="mb2a4634089" d="M 0 -2 
L -2 2 
L 2 2 
z
" style="stroke: #ee6677; stroke-linejoin: miter"/>
    </defs>
    <g clip-path="url(#p1ec92e7d29)">
     <use xlink:href="#mb2a4634089" x="73.832727" y="53.568" style="fill: #ee6677; stroke: #ee6677; stroke-linejoin: miter"/>
     <use xlink:href="#mb2a4634089" x="97.905309" y="58.328307" style="fill: #ee6677; stroke: #ee6677; stroke-linejoin: miter"/>
     <use xlink:href="#mb2a4634089" x="121.97789" y="72.511016" style="fill: #ee6677; stroke: #ee6677; stroke-linejoin: miter"/>
     <use xlink:href="#mb2a4634089" x="146.050472" y="109.915221" style="fill: #ee6677; stroke: #ee6677; stroke-linejoin: miter"/>
     <use xlink:href="#mb2a4634089" x="170.123053" y="161.191807" style="fill: #ee6677; stroke: #ee6677; stroke-linejoin: miter"/>
     <use xlink:href="#mb2a4634089" x="194.195635" y="201.577204" style="fill: #ee6677; stroke: #ee6677; stroke-linejoin: miter"/>
     <use xlink:href="#mb2a4634089" x="218.268216" y="226.201991" style="fill: #ee6677; stroke: #ee6677; stroke-linejoin: miter"/>
     <use xlink:href="#mb2a4634089" x="242.340798" y="240.979099" style="fill: #ee6677; stroke: #ee6677; stroke-linejoin: miter"/>
     <use xlink:href="#mb2a4634089" x="266.413379" y="250.496577" style="fill: #ee6677; stroke: #ee6677; stroke-linejoin: miter"/>
     <use xlink:href="#mb2a4634089" x="290.485961" y="257.141005" style="fill: #ee6677; stroke: #ee6677; stroke-linejoin: miter"/>
     <use xlink:href="#mb2a4634089" x="314.558543" y="262.119705" style="fill: #ee6677; stroke: #ee6677; stroke-linejoin: miter"/>
     <use xlink:href="#mb2a4634089" x="338.631124" y="266.074084" style="fill: #ee6677; stroke: #ee6677; stroke-linejoin: miter"/>
     <use xlink:href="#mb2a4634089" x="362.703706" y="269.366009" style="fill: #ee6677; stroke: #ee6677; stroke-linejoin: miter"/>
     <use xlink:href="#mb2a4634089" x="386.776287" y="272.211241" style="fill: #ee6677; stroke: #ee6677; stroke-linejoin: miter"/>
    </g>
   </g>
   <g id="line2d_49">
    <path d="M 73.832727 53.568 
L 74.483338 55.361422 
L 75.784558 55.061383 
L 77.736389 54.998437 
L 80.989441 55.232055 
L 86.194323 55.869781 
L 91.399206 56.736022 
L 95.953478 57.732723 
L 99.85714 58.814268 
L 103.760802 60.155327 
L 107.013853 61.51027 
L 110.266905 63.118228 
L 113.519956 65.016618 
L 116.122398 66.770391 
L 118.724839 68.754394 
L 121.32728 70.987353 
L 123.929721 73.486272 
L 126.532163 76.265538 
L 129.134604 79.336017 
L 131.737045 82.704198 
L 134.990097 87.334633 
L 138.243148 92.422099 
L 141.4962 97.942023 
L 145.399862 105.080509 
L 149.303523 112.69084 
L 154.508406 123.36688 
L 170.773664 157.256971 
L 175.327936 166.044769 
L 179.231598 173.139198 
L 183.13526 179.787187 
L 187.038921 185.971407 
L 190.942583 191.691954 
L 194.846245 196.961904 
L 198.749907 201.803218 
L 202.653569 206.243287 
L 206.557231 210.312259 
L 210.460893 214.04107 
L 214.364555 217.460101 
L 218.268216 220.598321 
L 222.171878 223.482773 
L 226.72615 226.560316 
L 231.280423 229.361938 
L 235.834695 231.919329 
L 241.039577 234.578693 
L 246.24446 236.991759 
L 252.099953 239.450739 
L 257.955445 241.675187 
L 264.461549 243.910307 
L 271.618262 246.123262 
L 279.425586 248.289167 
L 287.88352 250.390571 
L 296.992064 252.416557 
L 306.751219 254.361642 
L 317.811594 256.334763 
L 330.17319 258.304189 
L 343.836007 260.249096 
L 359.450654 262.236482 
L 377.017132 264.238632 
L 397.186052 266.303852 
L 398.487273 266.430006 
L 398.487273 266.430006 
" clip-path="url(#p1ec92e7d29)" style="fill: none; stroke: #228833; stroke-linecap: round"/>
    <defs>
     <path id="mbf52dfd80d" d="M -2 2 
L 2 2 
L 2 -2 
L -2 -2 
z
" style="stroke: #228833; stroke-linejoin: miter"/>
    </defs>
    <g clip-path="url(#p1ec92e7d29)">
     <use xlink:href="#mbf52dfd80d" x="73.832727" y="53.568" style="fill: #228833; stroke: #228833; stroke-linejoin: miter"/>
     <use xlink:href="#mbf52dfd80d" x="105.062022" y="60.669248" style="fill: #228833; stroke: #228833; stroke-linejoin: miter"/>
     <use xlink:href="#mbf52dfd80d" x="136.291317" y="89.315818" style="fill: #228833; stroke: #228833; stroke-linejoin: miter"/>
     <use xlink:href="#mbf52dfd80d" x="167.520612" y="150.696932" style="fill: #228833; stroke: #228833; stroke-linejoin: miter"/>
     <use xlink:href="#mbf52dfd80d" x="198.749907" y="201.803218" style="fill: #228833; stroke: #228833; stroke-linejoin: miter"/>
     <use xlink:href="#mbf52dfd80d" x="229.979202" y="228.587709" style="fill: #228833; stroke: #228833; stroke-linejoin: miter"/>
     <use xlink:href="#mbf52dfd80d" x="261.208497" y="242.821592" style="fill: #228833; stroke: #228833; stroke-linejoin: miter"/>
     <use xlink:href="#mbf52dfd80d" x="292.437792" y="251.431531" style="fill: #228833; stroke: #228833; stroke-linejoin: miter"/>
     <use xlink:href="#mbf52dfd80d" x="323.667087" y="257.295535" style="fill: #228833; stroke: #228833; stroke-linejoin: miter"/>
     <use xlink:href="#mbf52dfd80d" x="354.896382" y="261.6794" style="fill: #228833; stroke: #228833; stroke-linejoin: miter"/>
     <use xlink:href="#mbf52dfd80d" x="386.125677" y="265.198364" style="fill: #228833; stroke: #228833; stroke-linejoin: miter"/>
    </g>
   </g>
   <g id="line2d_50">
    <path d="M 73.832727 53.568 
L 74.483338 55.362862 
L 75.784558 55.066002 
L 77.736389 55.007625 
L 80.989441 55.248791 
L 86.194323 55.90024 
L 91.399206 56.784557 
L 95.953478 57.802634 
L 99.85714 58.908102 
L 103.110191 60.030256 
L 106.363243 61.369033 
L 109.616294 62.959611 
L 112.869346 64.839625 
L 115.471787 66.578177 
L 118.074228 68.546697 
L 120.67667 70.764135 
L 123.279111 73.247745 
L 125.881552 76.012202 
L 128.483993 79.068692 
L 131.086435 82.424068 
L 134.339486 87.040794 
L 137.592538 92.118005 
L 140.845589 97.632296 
L 144.098641 103.545803 
L 148.002303 111.095754 
L 152.556575 120.387392 
L 160.363899 136.946314 
L 168.171222 153.35987 
L 173.376105 163.750324 
L 177.930377 172.293775 
L 181.834039 179.145319 
L 185.737701 185.535435 
L 189.641363 191.45898 
L 193.545025 196.925236 
L 197.448686 201.953671 
L 201.352348 206.570267 
L 205.25601 210.804577 
L 209.159672 214.687535 
L 213.063334 218.24991 
L 216.966996 221.521296 
L 220.870658 224.529497 
L 225.42493 227.740591 
L 229.979202 230.665331 
L 234.533474 233.336622 
L 239.738357 236.116302 
L 244.943239 238.640588 
L 250.798732 241.215422 
L 256.654225 243.547411 
L 263.160328 245.893854 
L 270.317041 248.221022 
L 278.124365 250.503464 
L 286.582299 252.72344 
L 295.690844 254.869959 
L 305.449998 256.937625 
L 316.510373 259.043192 
L 328.871969 261.154277 
L 342.534786 263.249701 
L 357.498823 265.317783 
L 374.414691 267.431882 
L 393.933001 269.643381 
L 398.487273 270.130618 
L 398.487273 270.130618 
" clip-path="url(#p1ec92e7d29)" style="fill: none; stroke: #ccbb44; stroke-linecap: round"/>
    <defs>
     <path id="m9922dc9406" d="M -0.666667 2 
L 0.666667 2 
L 0.666667 0.666667 
L 2 0.666667 
L 2 -0.666667 
L 0.666667 -0.666667 
L 0.666667 -2 
L -0.666667 -2 
L -0.666667 -0.666667 
L -2 -0.666667 
L -2 0.666667 
L -0.666667 0.666667 
z
" style="stroke: #ccbb44; stroke-linejoin: miter"/>
    </defs>
    <g clip-path="url(#p1ec92e7d29)">
     <use xlink:href="#m9922dc9406" x="73.832727" y="53.568" style="fill: #ccbb44; stroke: #ccbb44; stroke-linejoin: miter"/>
     <use xlink:href="#m9922dc9406" x="112.218736" y="64.438606" style="fill: #ccbb44; stroke: #ccbb44; stroke-linejoin: miter"/>
     <use xlink:href="#m9922dc9406" x="150.604744" y="116.353078" style="fill: #ccbb44; stroke: #ccbb44; stroke-linejoin: miter"/>
     <use xlink:href="#m9922dc9406" x="188.990752" y="190.503877" style="fill: #ccbb44; stroke: #ccbb44; stroke-linejoin: miter"/>
     <use xlink:href="#m9922dc9406" x="227.376761" y="229.027105" style="fill: #ccbb44; stroke: #ccbb44; stroke-linejoin: miter"/>
     <use xlink:href="#m9922dc9406" x="265.762769" y="246.768669" style="fill: #ccbb44; stroke: #ccbb44; stroke-linejoin: miter"/>
     <use xlink:href="#m9922dc9406" x="304.148778" y="256.674228" style="fill: #ccbb44; stroke: #ccbb44; stroke-linejoin: miter"/>
     <use xlink:href="#m9922dc9406" x="342.534786" y="263.249701" style="fill: #ccbb44; stroke: #ccbb44; stroke-linejoin: miter"/>
     <use xlink:href="#m9922dc9406" x="380.920794" y="268.193151" style="fill: #ccbb44; stroke: #ccbb44; stroke-linejoin: miter"/>
    </g>
   </g>
   <g id="patch_3">
    <path d="M 57.6 307.584 
L 57.6 41.472 
" style="fill: none; stroke: #262626; stroke-width: 0.5; stroke-linejoin: miter; stroke-linecap: square"/>
   </g>
   <g id="patch_4">
    <path d="M 57.6 307.584 
L 414.72 307.584 
" style="fill: none; stroke: #262626; stroke-width: 0.5; stroke-linejoin: miter; stroke-linecap: square"/>
   </g>
   <g id="legend_1">
    <g id="line2d_51">
     <path d="M 274.248 143.772187 
L 292.248 143.772187 
L 310.248 143.772187 
" style="fill: none; stroke: #4477aa; stroke-linecap: round"/>
     <g>
      <use xlink:href="#m1a6f8991b4" x="292.248" y="143.772187" style="fill: #4477aa; stroke: #4477aa"/>
     </g>
    </g>
    <g id="text_20">
     <!-- $\Delta$ Leak = 0% -->
     <g style="fill: #262626" transform="translate(324.648 150.072187)scale(0.18 -0.18)">
      <defs>
       <path id="DejaVuSans-394" d="M 2188 4044 
L 906 525 
L 3472 525 
L 2188 4044 
z
M 50 0 
L 1831 4666 
L 2547 4666 
L 4325 0 
L 50 0 
z
" transform="scale(0.015625)"/>
       <path id="Helvetica-4c" d="M 488 4591 
L 1109 4591 
L 1109 547 
L 3434 547 
L 3434 0 
L 488 0 
L 488 4591 
z
" transform="scale(0.015625)"/>
       <path id="Helvetica-6b" d="M 400 4591 
L 941 4591 
L 941 1925 
L 2384 3347 
L 3103 3347 
L 1822 2094 
L 3175 0 
L 2456 0 
L 1413 1688 
L 941 1256 
L 941 0 
L 400 0 
L 400 4591 
z
" transform="scale(0.015625)"/>
       <path id="Helvetica-3d" d="M 3547 2569 
L 3547 2044 
L 288 2044 
L 288 2569 
L 3547 2569 
z
M 3547 1228 
L 3547 694 
L 288 694 
L 288 1228 
L 3547 1228 
z
" transform="scale(0.015625)"/>
       <path id="Helvetica-25" d="M 4363 2175 
Q 4813 2175 5131 1856 
Q 5450 1538 5450 1088 
Q 5450 638 5131 319 
Q 4813 0 4363 0 
Q 3909 0 3590 319 
Q 3272 638 3272 1088 
Q 3272 1538 3590 1856 
Q 3909 2175 4363 2175 
z
M 3909 4456 
L 4256 4456 
L 1753 -119 
L 1406 -119 
L 3909 4456 
z
M 1294 2606 
Q 1563 2606 1752 2795 
Q 1941 2984 1941 3250 
Q 1941 3516 1752 3705 
Q 1563 3894 1294 3894 
Q 1028 3894 839 3706 
Q 650 3519 650 3250 
Q 650 2984 839 2795 
Q 1028 2606 1294 2606 
z
M 1294 4341 
Q 1747 4341 2065 4020 
Q 2384 3700 2384 3250 
Q 2384 2800 2065 2481 
Q 1747 2163 1294 2163 
Q 844 2163 525 2481 
Q 206 2800 206 3250 
Q 206 3700 525 4020 
Q 844 4341 1294 4341 
z
M 4363 444 
Q 4628 444 4817 633 
Q 5006 822 5006 1088 
Q 5006 1353 4817 1542 
Q 4628 1731 4363 1731 
Q 4094 1731 3905 1542 
Q 3716 1353 3716 1088 
Q 3716 822 3905 633 
Q 4094 444 4363 444 
z
" transform="scale(0.015625)"/>
      </defs>
      <use xlink:href="#DejaVuSans-394" transform="translate(0 0.09375)"/>
      <use xlink:href="#Helvetica-20" transform="translate(68.408203 0.09375)"/>
      <use xlink:href="#Helvetica-4c" transform="translate(96.191406 0.09375)"/>
      <use xlink:href="#Helvetica-65" transform="translate(151.806641 0.09375)"/>
      <use xlink:href="#Helvetica-61" transform="translate(207.421875 0.09375)"/>
      <use xlink:href="#Helvetica-6b" transform="translate(263.037109 0.09375)"/>
      <use xlink:href="#Helvetica-20" transform="translate(313.037109 0.09375)"/>
      <use xlink:href="#Helvetica-3d" transform="translate(340.820312 0.09375)"/>
      <use xlink:href="#Helvetica-20" transform="translate(399.21875 0.09375)"/>
      <use xlink:href="#Helvetica-30" transform="translate(427.001953 0.09375)"/>
      <use xlink:href="#Helvetica-25" transform="translate(482.617188 0.09375)"/>
     </g>
    </g>
    <g id="line2d_52">
     <path d="M 274.248 169.43625 
L 292.248 169.43625 
L 310.248 169.43625 
" style="fill: none; stroke: #ee6677; stroke-linecap: round"/>
     <g>
      <use xlink:href="#mb2a4634089" x="292.248" y="169.43625" style="fill: #ee6677; stroke: #ee6677; stroke-linejoin: miter"/>
     </g>
    </g>
    <g id="text_21">
     <!-- $\Delta$ Leak = 200% -->
     <g style="fill: #262626" transform="translate(324.648 175.73625)scale(0.18 -0.18)">
      <use xlink:href="#DejaVuSans-394" transform="translate(0 0.09375)"/>
      <use xlink:href="#Helvetica-20" transform="translate(68.408203 0.09375)"/>
      <use xlink:href="#Helvetica-4c" transform="translate(96.191406 0.09375)"/>
      <use xlink:href="#Helvetica-65" transform="translate(151.806641 0.09375)"/>
      <use xlink:href="#Helvetica-61" transform="translate(207.421875 0.09375)"/>
      <use xlink:href="#Helvetica-6b" transform="translate(263.037109 0.09375)"/>
      <use xlink:href="#Helvetica-20" transform="translate(313.037109 0.09375)"/>
      <use xlink:href="#Helvetica-3d" transform="translate(340.820312 0.09375)"/>
      <use xlink:href="#Helvetica-20" transform="translate(399.21875 0.09375)"/>
      <use xlink:href="#Helvetica-32" transform="translate(427.001953 0.09375)"/>
      <use xlink:href="#Helvetica-30" transform="translate(482.617188 0.09375)"/>
      <use xlink:href="#Helvetica-30" transform="translate(538.232422 0.09375)"/>
      <use xlink:href="#Helvetica-25" transform="translate(593.847656 0.09375)"/>
     </g>
    </g>
    <g id="line2d_53">
     <path d="M 274.248 195.100312 
L 292.248 195.100312 
L 310.248 195.100312 
" style="fill: none; stroke: #228833; stroke-linecap: round"/>
     <g>
      <use xlink:href="#mbf52dfd80d" x="292.248" y="195.100312" style="fill: #228833; stroke: #228833; stroke-linejoin: miter"/>
     </g>
    </g>
    <g id="text_22">
     <!-- $\Delta$ Leak = 500% -->
     <g style="fill: #262626" transform="translate(324.648 201.400312)scale(0.18 -0.18)">
      <use xlink:href="#DejaVuSans-394" transform="translate(0 0.09375)"/>
      <use xlink:href="#Helvetica-20" transform="translate(68.408203 0.09375)"/>
      <use xlink:href="#Helvetica-4c" transform="translate(96.191406 0.09375)"/>
      <use xlink:href="#Helvetica-65" transform="translate(151.806641 0.09375)"/>
      <use xlink:href="#Helvetica-61" transform="translate(207.421875 0.09375)"/>
      <use xlink:href="#Helvetica-6b" transform="translate(263.037109 0.09375)"/>
      <use xlink:href="#Helvetica-20" transform="translate(313.037109 0.09375)"/>
      <use xlink:href="#Helvetica-3d" transform="translate(340.820312 0.09375)"/>
      <use xlink:href="#Helvetica-20" transform="translate(399.21875 0.09375)"/>
      <use xlink:href="#Helvetica-35" transform="translate(427.001953 0.09375)"/>
      <use xlink:href="#Helvetica-30" transform="translate(482.617188 0.09375)"/>
      <use xlink:href="#Helvetica-30" transform="translate(538.232422 0.09375)"/>
      <use xlink:href="#Helvetica-25" transform="translate(593.847656 0.09375)"/>
     </g>
    </g>
    <g id="line2d_54">
     <path d="M 274.248 220.764375 
L 292.248 220.764375 
L 310.248 220.764375 
" style="fill: none; stroke: #ccbb44; stroke-linecap: round"/>
     <g>
      <use xlink:href="#m9922dc9406" x="292.248" y="220.764375" style="fill: #ccbb44; stroke: #ccbb44; stroke-linejoin: miter"/>
     </g>
    </g>
    <g id="text_23">
     <!-- $\Delta$ Leak = 700% -->
     <g style="fill: #262626" transform="translate(324.648 227.064375)scale(0.18 -0.18)">
      <use xlink:href="#DejaVuSans-394" transform="translate(0 0.09375)"/>
      <use xlink:href="#Helvetica-20" transform="translate(68.408203 0.09375)"/>
      <use xlink:href="#Helvetica-4c" transform="translate(96.191406 0.09375)"/>
      <use xlink:href="#Helvetica-65" transform="translate(151.806641 0.09375)"/>
      <use xlink:href="#Helvetica-61" transform="translate(207.421875 0.09375)"/>
      <use xlink:href="#Helvetica-6b" transform="translate(263.037109 0.09375)"/>
      <use xlink:href="#Helvetica-20" transform="translate(313.037109 0.09375)"/>
      <use xlink:href="#Helvetica-3d" transform="translate(340.820312 0.09375)"/>
      <use xlink:href="#Helvetica-20" transform="translate(399.21875 0.09375)"/>
      <use xlink:href="#Helvetica-37" transform="translate(427.001953 0.09375)"/>
      <use xlink:href="#Helvetica-30" transform="translate(482.617188 0.09375)"/>
      <use xlink:href="#Helvetica-30" transform="translate(538.232422 0.09375)"/>
      <use xlink:href="#Helvetica-25" transform="translate(593.847656 0.09375)"/>
     </g>
    </g>
   </g>
  </g>
 </g>
 <defs>
  <clipPath id="p1ec92e7d29">
   <rect x="57.6" y="41.472" width="357.12" height="266.112"/>
  </clipPath>
 </defs>
</svg>
