<?xml version="1.0" encoding="utf-8" standalone="no"?>
<!DOCTYPE svg PUBLIC "-//W3C//DTD SVG 1.1//EN"
  "http://www.w3.org/Graphics/SVG/1.1/DTD/svg11.dtd">
<svg xmlns:xlink="http://www.w3.org/1999/xlink" width="460.8pt" height="345.6pt" viewBox="0 0 460.8 345.6" xmlns="http://www.w3.org/2000/svg" version="1.1">
 <metadata>
  <rdf:RDF xmlns:dc="http://purl.org/dc/elements/1.1/" xmlns:cc="http://creativecommons.org/ns#" xmlns:rdf="http://www.w3.org/1999/02/22-rdf-syntax-ns#">
   <cc:Work>
    <dc:type rdf:resource="http://purl.org/dc/dcmitype/StillImage"/>
    <dc:date>2024-04-08T16:32:16.412398</dc:date>
    <dc:format>image/svg+xml</dc:format>
    <dc:creator>
     <cc:Agent>
      <dc:title>Matplotlib v3.5.1, https://matplotlib.org/</dc:title>
     </cc:Agent>
    </dc:creator>
   </cc:Work>
  </rdf:RDF>
 </metadata>
 <defs>
  <style type="text/css">*{stroke-linejoin: round; stroke-linecap: butt}</style>
 </defs>
 <g id="figure_1">
  <g id="patch_1">
   <path d="M 0 345.6 
L 460.8 345.6 
L 460.8 0 
L 0 0 
z
" style="fill: #ffffff"/>
  </g>
  <g id="axes_1">
   <g id="patch_2">
    <path d="M 57.6 307.584 
L 414.72 307.584 
L 414.72 41.472 
L 57.6 41.472 
z
" style="fill: #ffffff"/>
   </g>
   <g id="matplotlib.axis_1">
    <g id="xtick_1">
     <g id="line2d_1">
      <defs>
       <path id="mf30fb36b2c" d="M 0 0 
L 0 4 
" style="stroke: #262626"/>
      </defs>
      <g>
       <use xlink:href="#mf30fb36b2c" x="73.832727" y="307.584" style="fill: #262626; stroke: #262626"/>
      </g>
     </g>
     <g id="text_1">
      <!-- 0.00 -->
      <g style="fill: #262626" transform="translate(60.210071 325.126812)scale(0.14 -0.14)">
       <defs>
        <path id="Helvetica-30" d="M 1731 4475 
Q 2600 4475 2988 3759 
Q 3288 3206 3288 2244 
Q 3288 1331 3016 734 
Q 2622 -122 1728 -122 
Q 922 -122 528 578 
Q 200 1163 200 2147 
Q 200 2909 397 3456 
Q 766 4475 1731 4475 
z
M 1725 391 
Q 2163 391 2422 778 
Q 2681 1166 2681 2222 
Q 2681 2984 2493 3476 
Q 2306 3969 1766 3969 
Q 1269 3969 1039 3501 
Q 809 3034 809 2125 
Q 809 1441 956 1025 
Q 1181 391 1725 391 
z
" transform="scale(0.015625)"/>
        <path id="Helvetica-2e" d="M 547 681 
L 1200 681 
L 1200 0 
L 547 0 
L 547 681 
z
" transform="scale(0.015625)"/>
       </defs>
       <use xlink:href="#Helvetica-30"/>
       <use xlink:href="#Helvetica-2e" x="55.615234"/>
       <use xlink:href="#Helvetica-30" x="83.398438"/>
       <use xlink:href="#Helvetica-30" x="139.013672"/>
      </g>
     </g>
    </g>
    <g id="xtick_2">
     <g id="line2d_2">
      <g>
       <use xlink:href="#mf30fb36b2c" x="114.414545" y="307.584" style="fill: #262626; stroke: #262626"/>
      </g>
     </g>
     <g id="text_2">
      <!-- 0.25 -->
      <g style="fill: #262626" transform="translate(100.791889 325.126812)scale(0.14 -0.14)">
       <defs>
        <path id="Helvetica-32" d="M 200 0 
Q 231 578 439 1006 
Q 647 1434 1250 1784 
L 1850 2131 
Q 2253 2366 2416 2531 
Q 2672 2791 2672 3125 
Q 2672 3516 2437 3745 
Q 2203 3975 1813 3975 
Q 1234 3975 1013 3538 
Q 894 3303 881 2888 
L 309 2888 
Q 319 3472 525 3841 
Q 891 4491 1816 4491 
Q 2584 4491 2939 4075 
Q 3294 3659 3294 3150 
Q 3294 2613 2916 2231 
Q 2697 2009 2131 1694 
L 1703 1456 
Q 1397 1288 1222 1134 
Q 909 863 828 531 
L 3272 531 
L 3272 0 
L 200 0 
z
" transform="scale(0.015625)"/>
        <path id="Helvetica-35" d="M 791 1141 
Q 847 659 1238 475 
Q 1438 381 1700 381 
Q 2200 381 2440 700 
Q 2681 1019 2681 1406 
Q 2681 1875 2395 2131 
Q 2109 2388 1709 2388 
Q 1419 2388 1211 2275 
Q 1003 2163 856 1963 
L 369 1991 
L 709 4400 
L 3034 4400 
L 3034 3856 
L 1131 3856 
L 941 2613 
Q 1097 2731 1238 2791 
Q 1488 2894 1816 2894 
Q 2431 2894 2859 2497 
Q 3288 2100 3288 1491 
Q 3288 856 2895 371 
Q 2503 -113 1644 -113 
Q 1097 -113 676 195 
Q 256 503 206 1141 
L 791 1141 
z
" transform="scale(0.015625)"/>
       </defs>
       <use xlink:href="#Helvetica-30"/>
       <use xlink:href="#Helvetica-2e" x="55.615234"/>
       <use xlink:href="#Helvetica-32" x="83.398438"/>
       <use xlink:href="#Helvetica-35" x="139.013672"/>
      </g>
     </g>
    </g>
    <g id="xtick_3">
     <g id="line2d_3">
      <g>
       <use xlink:href="#mf30fb36b2c" x="154.996364" y="307.584" style="fill: #262626; stroke: #262626"/>
      </g>
     </g>
     <g id="text_3">
      <!-- 0.50 -->
      <g style="fill: #262626" transform="translate(141.373707 325.126812)scale(0.14 -0.14)">
       <use xlink:href="#Helvetica-30"/>
       <use xlink:href="#Helvetica-2e" x="55.615234"/>
       <use xlink:href="#Helvetica-35" x="83.398438"/>
       <use xlink:href="#Helvetica-30" x="139.013672"/>
      </g>
     </g>
    </g>
    <g id="xtick_4">
     <g id="line2d_4">
      <g>
       <use xlink:href="#mf30fb36b2c" x="195.578182" y="307.584" style="fill: #262626; stroke: #262626"/>
      </g>
     </g>
     <g id="text_4">
      <!-- 0.75 -->
      <g style="fill: #262626" transform="translate(181.955526 325.126812)scale(0.14 -0.14)">
       <defs>
        <path id="Helvetica-37" d="M 3347 4400 
L 3347 3909 
Q 3131 3700 2773 3181 
Q 2416 2663 2141 2063 
Q 1869 1478 1728 997 
Q 1638 688 1494 0 
L 872 0 
Q 1084 1281 1809 2550 
Q 2238 3294 2709 3834 
L 234 3834 
L 234 4400 
L 3347 4400 
z
" transform="scale(0.015625)"/>
       </defs>
       <use xlink:href="#Helvetica-30"/>
       <use xlink:href="#Helvetica-2e" x="55.615234"/>
       <use xlink:href="#Helvetica-37" x="83.398438"/>
       <use xlink:href="#Helvetica-35" x="139.013672"/>
      </g>
     </g>
    </g>
    <g id="xtick_5">
     <g id="line2d_5">
      <g>
       <use xlink:href="#mf30fb36b2c" x="236.16" y="307.584" style="fill: #262626; stroke: #262626"/>
      </g>
     </g>
     <g id="text_5">
      <!-- 1.00 -->
      <g style="fill: #262626" transform="translate(222.537344 325.126812)scale(0.14 -0.14)">
       <defs>
        <path id="Helvetica-31" d="M 613 3169 
L 613 3600 
Q 1222 3659 1462 3798 
Q 1703 3938 1822 4456 
L 2266 4456 
L 2266 0 
L 1666 0 
L 1666 3169 
L 613 3169 
z
" transform="scale(0.015625)"/>
       </defs>
       <use xlink:href="#Helvetica-31"/>
       <use xlink:href="#Helvetica-2e" x="55.615234"/>
       <use xlink:href="#Helvetica-30" x="83.398438"/>
       <use xlink:href="#Helvetica-30" x="139.013672"/>
      </g>
     </g>
    </g>
    <g id="xtick_6">
     <g id="line2d_6">
      <g>
       <use xlink:href="#mf30fb36b2c" x="276.741818" y="307.584" style="fill: #262626; stroke: #262626"/>
      </g>
     </g>
     <g id="text_6">
      <!-- 1.25 -->
      <g style="fill: #262626" transform="translate(263.119162 325.126812)scale(0.14 -0.14)">
       <use xlink:href="#Helvetica-31"/>
       <use xlink:href="#Helvetica-2e" x="55.615234"/>
       <use xlink:href="#Helvetica-32" x="83.398438"/>
       <use xlink:href="#Helvetica-35" x="139.013672"/>
      </g>
     </g>
    </g>
    <g id="xtick_7">
     <g id="line2d_7">
      <g>
       <use xlink:href="#mf30fb36b2c" x="317.323636" y="307.584" style="fill: #262626; stroke: #262626"/>
      </g>
     </g>
     <g id="text_7">
      <!-- 1.50 -->
      <g style="fill: #262626" transform="translate(303.70098 325.126812)scale(0.14 -0.14)">
       <use xlink:href="#Helvetica-31"/>
       <use xlink:href="#Helvetica-2e" x="55.615234"/>
       <use xlink:href="#Helvetica-35" x="83.398438"/>
       <use xlink:href="#Helvetica-30" x="139.013672"/>
      </g>
     </g>
    </g>
    <g id="xtick_8">
     <g id="line2d_8">
      <g>
       <use xlink:href="#mf30fb36b2c" x="357.905455" y="307.584" style="fill: #262626; stroke: #262626"/>
      </g>
     </g>
     <g id="text_8">
      <!-- 1.75 -->
      <g style="fill: #262626" transform="translate(344.282798 325.126812)scale(0.14 -0.14)">
       <use xlink:href="#Helvetica-31"/>
       <use xlink:href="#Helvetica-2e" x="55.615234"/>
       <use xlink:href="#Helvetica-37" x="83.398438"/>
       <use xlink:href="#Helvetica-35" x="139.013672"/>
      </g>
     </g>
    </g>
    <g id="xtick_9">
     <g id="line2d_9">
      <g>
       <use xlink:href="#mf30fb36b2c" x="398.487273" y="307.584" style="fill: #262626; stroke: #262626"/>
      </g>
     </g>
     <g id="text_9">
      <!-- 2.00 -->
      <g style="fill: #262626" transform="translate(384.864616 325.126812)scale(0.14 -0.14)">
       <use xlink:href="#Helvetica-32"/>
       <use xlink:href="#Helvetica-2e" x="55.615234"/>
       <use xlink:href="#Helvetica-30" x="83.398438"/>
       <use xlink:href="#Helvetica-30" x="139.013672"/>
      </g>
     </g>
    </g>
    <g id="text_10">
     <!-- Time (hours) -->
     <g style="fill: #262626" transform="translate(185.156719 345.089312)scale(0.18 -0.18)">
      <defs>
       <path id="Helvetica-54" d="M 3828 4591 
L 3828 4044 
L 2281 4044 
L 2281 0 
L 1650 0 
L 1650 4044 
L 103 4044 
L 103 4591 
L 3828 4591 
z
" transform="scale(0.015625)"/>
       <path id="Helvetica-69" d="M 413 3331 
L 984 3331 
L 984 0 
L 413 0 
L 413 3331 
z
M 413 4591 
L 984 4591 
L 984 3953 
L 413 3953 
L 413 4591 
z
" transform="scale(0.015625)"/>
       <path id="Helvetica-6d" d="M 413 3347 
L 969 3347 
L 969 2872 
Q 1169 3119 1331 3231 
Q 1609 3422 1963 3422 
Q 2363 3422 2606 3225 
Q 2744 3113 2856 2894 
Q 3044 3163 3297 3292 
Q 3550 3422 3866 3422 
Q 4541 3422 4784 2934 
Q 4916 2672 4916 2228 
L 4916 0 
L 4331 0 
L 4331 2325 
Q 4331 2659 4164 2784 
Q 3997 2909 3756 2909 
Q 3425 2909 3186 2687 
Q 2947 2466 2947 1947 
L 2947 0 
L 2375 0 
L 2375 2184 
Q 2375 2525 2294 2681 
Q 2166 2916 1816 2916 
Q 1497 2916 1236 2669 
Q 975 2422 975 1775 
L 975 0 
L 413 0 
L 413 3347 
z
" transform="scale(0.015625)"/>
       <path id="Helvetica-65" d="M 1806 3422 
Q 2163 3422 2497 3255 
Q 2831 3088 3006 2822 
Q 3175 2569 3231 2231 
Q 3281 2000 3281 1494 
L 828 1494 
Q 844 984 1069 676 
Q 1294 369 1766 369 
Q 2206 369 2469 659 
Q 2619 828 2681 1050 
L 3234 1050 
Q 3213 866 3089 639 
Q 2966 413 2813 269 
Q 2556 19 2178 -69 
Q 1975 -119 1719 -119 
Q 1094 -119 659 336 
Q 225 791 225 1609 
Q 225 2416 662 2919 
Q 1100 3422 1806 3422 
z
M 2703 1941 
Q 2669 2306 2544 2525 
Q 2313 2931 1772 2931 
Q 1384 2931 1121 2651 
Q 859 2372 844 1941 
L 2703 1941 
z
M 1753 3428 
L 1753 3428 
z
" transform="scale(0.015625)"/>
       <path id="Helvetica-20" transform="scale(0.015625)"/>
       <path id="Helvetica-28" d="M 1894 4666 
Q 1403 3713 1256 3263 
Q 1034 2578 1034 1681 
Q 1034 775 1288 25 
Q 1444 -438 1903 -1306 
L 1525 -1306 
Q 1069 -594 959 -397 
Q 850 -200 722 138 
Q 547 600 478 1125 
Q 444 1397 444 1644 
Q 444 2569 734 3291 
Q 919 3750 1503 4666 
L 1894 4666 
z
" transform="scale(0.015625)"/>
       <path id="Helvetica-68" d="M 413 4606 
L 975 4606 
L 975 2894 
Q 1175 3147 1334 3250 
Q 1606 3428 2013 3428 
Q 2741 3428 3000 2919 
Q 3141 2641 3141 2147 
L 3141 0 
L 2563 0 
L 2563 2109 
Q 2563 2478 2469 2650 
Q 2316 2925 1894 2925 
Q 1544 2925 1259 2684 
Q 975 2444 975 1775 
L 975 0 
L 413 0 
L 413 4606 
z
" transform="scale(0.015625)"/>
       <path id="Helvetica-6f" d="M 1741 363 
Q 2300 363 2508 786 
Q 2716 1209 2716 1728 
Q 2716 2197 2566 2491 
Q 2328 2953 1747 2953 
Q 1231 2953 997 2559 
Q 763 2166 763 1609 
Q 763 1075 997 719 
Q 1231 363 1741 363 
z
M 1763 3444 
Q 2409 3444 2856 3012 
Q 3303 2581 3303 1744 
Q 3303 934 2909 406 
Q 2516 -122 1688 -122 
Q 997 -122 590 345 
Q 184 813 184 1600 
Q 184 2444 612 2944 
Q 1041 3444 1763 3444 
z
M 1744 3428 
L 1744 3428 
z
" transform="scale(0.015625)"/>
       <path id="Helvetica-75" d="M 975 3347 
L 975 1125 
Q 975 869 1056 706 
Q 1206 406 1616 406 
Q 2203 406 2416 931 
Q 2531 1213 2531 1703 
L 2531 3347 
L 3094 3347 
L 3094 0 
L 2563 0 
L 2569 494 
Q 2459 303 2297 172 
Q 1975 -91 1516 -91 
Q 800 -91 541 388 
Q 400 644 400 1072 
L 400 3347 
L 975 3347 
z
M 1747 3428 
L 1747 3428 
z
" transform="scale(0.015625)"/>
       <path id="Helvetica-72" d="M 428 3347 
L 963 3347 
L 963 2769 
Q 1028 2938 1284 3180 
Q 1541 3422 1875 3422 
Q 1891 3422 1928 3419 
Q 1966 3416 2056 3406 
L 2056 2813 
Q 2006 2822 1964 2825 
Q 1922 2828 1872 2828 
Q 1447 2828 1219 2554 
Q 991 2281 991 1925 
L 991 0 
L 428 0 
L 428 3347 
z
" transform="scale(0.015625)"/>
       <path id="Helvetica-73" d="M 747 1050 
Q 772 769 888 619 
Q 1100 347 1625 347 
Q 1938 347 2175 483 
Q 2413 619 2413 903 
Q 2413 1119 2222 1231 
Q 2100 1300 1741 1391 
L 1294 1503 
Q 866 1609 663 1741 
Q 300 1969 300 2372 
Q 300 2847 642 3140 
Q 984 3434 1563 3434 
Q 2319 3434 2653 2991 
Q 2863 2709 2856 2384 
L 2325 2384 
Q 2309 2575 2191 2731 
Q 1997 2953 1519 2953 
Q 1200 2953 1036 2831 
Q 872 2709 872 2509 
Q 872 2291 1088 2159 
Q 1213 2081 1456 2022 
L 1828 1931 
Q 2434 1784 2641 1647 
Q 2969 1431 2969 969 
Q 2969 522 2630 197 
Q 2291 -128 1597 -128 
Q 850 -128 539 211 
Q 228 550 206 1050 
L 747 1050 
z
M 1578 3428 
L 1578 3428 
z
" transform="scale(0.015625)"/>
       <path id="Helvetica-29" d="M 222 -1306 
Q 719 -338 863 106 
Q 1081 778 1081 1681 
Q 1081 2584 828 3334 
Q 672 3797 213 4666 
L 591 4666 
Q 1072 3897 1173 3717 
Q 1275 3538 1394 3222 
Q 1544 2831 1608 2450 
Q 1672 2069 1672 1716 
Q 1672 791 1378 66 
Q 1194 -400 613 -1306 
L 222 -1306 
z
" transform="scale(0.015625)"/>
      </defs>
      <use xlink:href="#Helvetica-54"/>
      <use xlink:href="#Helvetica-69" x="61.083984"/>
      <use xlink:href="#Helvetica-6d" x="83.300781"/>
      <use xlink:href="#Helvetica-65" x="166.601562"/>
      <use xlink:href="#Helvetica-20" x="222.216797"/>
      <use xlink:href="#Helvetica-28" x="250"/>
      <use xlink:href="#Helvetica-68" x="283.300781"/>
      <use xlink:href="#Helvetica-6f" x="338.916016"/>
      <use xlink:href="#Helvetica-75" x="394.53125"/>
      <use xlink:href="#Helvetica-72" x="450.146484"/>
      <use xlink:href="#Helvetica-73" x="483.447266"/>
      <use xlink:href="#Helvetica-29" x="533.447266"/>
     </g>
    </g>
   </g>
   <g id="matplotlib.axis_2">
    <g id="ytick_1">
     <g id="line2d_10">
      <defs>
       <path id="m3351d36f40" d="M 0 0 
L -4 0 
" style="stroke: #262626"/>
      </defs>
      <g>
       <use xlink:href="#m3351d36f40" x="57.6" y="296.668583" style="fill: #262626; stroke: #262626"/>
      </g>
     </g>
     <g id="text_11">
      <!-- 0 -->
      <g style="fill: #262626" transform="translate(42.314687 301.689989)scale(0.14 -0.14)">
       <use xlink:href="#Helvetica-30"/>
      </g>
     </g>
    </g>
    <g id="ytick_2">
     <g id="line2d_11">
      <g>
       <use xlink:href="#m3351d36f40" x="57.6" y="255.143651" style="fill: #262626; stroke: #262626"/>
      </g>
     </g>
     <g id="text_12">
      <!-- 20 -->
      <g style="fill: #262626" transform="translate(34.529375 260.165057)scale(0.14 -0.14)">
       <use xlink:href="#Helvetica-32"/>
       <use xlink:href="#Helvetica-30" x="55.615234"/>
      </g>
     </g>
    </g>
    <g id="ytick_3">
     <g id="line2d_12">
      <g>
       <use xlink:href="#m3351d36f40" x="57.6" y="213.618718" style="fill: #262626; stroke: #262626"/>
      </g>
     </g>
     <g id="text_13">
      <!-- 40 -->
      <g style="fill: #262626" transform="translate(34.529375 218.640125)scale(0.14 -0.14)">
       <defs>
        <path id="Helvetica-34" d="M 2116 1584 
L 2116 3613 
L 681 1584 
L 2116 1584 
z
M 2125 0 
L 2125 1094 
L 163 1094 
L 163 1644 
L 2213 4488 
L 2688 4488 
L 2688 1584 
L 3347 1584 
L 3347 1094 
L 2688 1094 
L 2688 0 
L 2125 0 
z
" transform="scale(0.015625)"/>
       </defs>
       <use xlink:href="#Helvetica-34"/>
       <use xlink:href="#Helvetica-30" x="55.615234"/>
      </g>
     </g>
    </g>
    <g id="ytick_4">
     <g id="line2d_13">
      <g>
       <use xlink:href="#m3351d36f40" x="57.6" y="172.093786" style="fill: #262626; stroke: #262626"/>
      </g>
     </g>
     <g id="text_14">
      <!-- 60 -->
      <g style="fill: #262626" transform="translate(34.529375 177.115193)scale(0.14 -0.14)">
       <defs>
        <path id="Helvetica-36" d="M 1872 4494 
Q 2622 4494 2917 4105 
Q 3213 3716 3213 3303 
L 2656 3303 
Q 2606 3569 2497 3719 
Q 2294 4000 1881 4000 
Q 1409 4000 1131 3564 
Q 853 3128 822 2316 
Q 1016 2600 1309 2741 
Q 1578 2866 1909 2866 
Q 2472 2866 2890 2506 
Q 3309 2147 3309 1434 
Q 3309 825 2912 354 
Q 2516 -116 1781 -116 
Q 1153 -116 697 361 
Q 241 838 241 1966 
Q 241 2800 444 3381 
Q 834 4494 1872 4494 
z
M 1831 384 
Q 2275 384 2495 682 
Q 2716 981 2716 1388 
Q 2716 1731 2519 2042 
Q 2322 2353 1803 2353 
Q 1441 2353 1167 2112 
Q 894 1872 894 1388 
Q 894 963 1142 673 
Q 1391 384 1831 384 
z
" transform="scale(0.015625)"/>
       </defs>
       <use xlink:href="#Helvetica-36"/>
       <use xlink:href="#Helvetica-30" x="55.615234"/>
      </g>
     </g>
    </g>
    <g id="ytick_5">
     <g id="line2d_14">
      <g>
       <use xlink:href="#m3351d36f40" x="57.6" y="130.568854" style="fill: #262626; stroke: #262626"/>
      </g>
     </g>
     <g id="text_15">
      <!-- 80 -->
      <g style="fill: #262626" transform="translate(34.529375 135.590261)scale(0.14 -0.14)">
       <defs>
        <path id="Helvetica-38" d="M 1741 2600 
Q 2113 2600 2322 2808 
Q 2531 3016 2531 3303 
Q 2531 3553 2331 3762 
Q 2131 3972 1722 3972 
Q 1316 3972 1134 3762 
Q 953 3553 953 3272 
Q 953 2956 1187 2778 
Q 1422 2600 1741 2600 
z
M 1775 384 
Q 2166 384 2423 595 
Q 2681 806 2681 1225 
Q 2681 1659 2415 1884 
Q 2150 2109 1734 2109 
Q 1331 2109 1076 1879 
Q 822 1650 822 1244 
Q 822 894 1055 639 
Q 1288 384 1775 384 
z
M 975 2384 
Q 741 2484 609 2619 
Q 363 2869 363 3269 
Q 363 3769 725 4128 
Q 1088 4488 1753 4488 
Q 2397 4488 2762 4148 
Q 3128 3809 3128 3356 
Q 3128 2938 2916 2678 
Q 2797 2531 2547 2391 
Q 2825 2263 2984 2097 
Q 3281 1784 3281 1284 
Q 3281 694 2884 283 
Q 2488 -128 1763 -128 
Q 1109 -128 657 226 
Q 206 581 206 1256 
Q 206 1653 400 1942 
Q 594 2231 975 2384 
z
" transform="scale(0.015625)"/>
       </defs>
       <use xlink:href="#Helvetica-38"/>
       <use xlink:href="#Helvetica-30" x="55.615234"/>
      </g>
     </g>
    </g>
    <g id="ytick_6">
     <g id="line2d_15">
      <g>
       <use xlink:href="#m3351d36f40" x="57.6" y="89.043922" style="fill: #262626; stroke: #262626"/>
      </g>
     </g>
     <g id="text_16">
      <!-- 100 -->
      <g style="fill: #262626" transform="translate(26.744062 94.065328)scale(0.14 -0.14)">
       <use xlink:href="#Helvetica-31"/>
       <use xlink:href="#Helvetica-30" x="55.615234"/>
       <use xlink:href="#Helvetica-30" x="111.230469"/>
      </g>
     </g>
    </g>
    <g id="ytick_7">
     <g id="line2d_16">
      <g>
       <use xlink:href="#m3351d36f40" x="57.6" y="47.51899" style="fill: #262626; stroke: #262626"/>
      </g>
     </g>
     <g id="text_17">
      <!-- 120 -->
      <g style="fill: #262626" transform="translate(26.744062 52.540396)scale(0.14 -0.14)">
       <use xlink:href="#Helvetica-31"/>
       <use xlink:href="#Helvetica-32" x="55.615234"/>
       <use xlink:href="#Helvetica-30" x="111.230469"/>
      </g>
     </g>
    </g>
    <g id="ytick_8">
     <g id="line2d_17">
      <defs>
       <path id="m71b970dd4c" d="M 0 0 
L -2 0 
" style="stroke: #262626"/>
      </defs>
      <g>
       <use xlink:href="#m71b970dd4c" x="57.6" y="307.049816" style="fill: #262626; stroke: #262626"/>
      </g>
     </g>
    </g>
    <g id="ytick_9">
     <g id="line2d_18">
      <g>
       <use xlink:href="#m71b970dd4c" x="57.6" y="286.28735" style="fill: #262626; stroke: #262626"/>
      </g>
     </g>
    </g>
    <g id="ytick_10">
     <g id="line2d_19">
      <g>
       <use xlink:href="#m71b970dd4c" x="57.6" y="275.906117" style="fill: #262626; stroke: #262626"/>
      </g>
     </g>
    </g>
    <g id="ytick_11">
     <g id="line2d_20">
      <g>
       <use xlink:href="#m71b970dd4c" x="57.6" y="265.524884" style="fill: #262626; stroke: #262626"/>
      </g>
     </g>
    </g>
    <g id="ytick_12">
     <g id="line2d_21">
      <g>
       <use xlink:href="#m71b970dd4c" x="57.6" y="244.762418" style="fill: #262626; stroke: #262626"/>
      </g>
     </g>
    </g>
    <g id="ytick_13">
     <g id="line2d_22">
      <g>
       <use xlink:href="#m71b970dd4c" x="57.6" y="234.381185" style="fill: #262626; stroke: #262626"/>
      </g>
     </g>
    </g>
    <g id="ytick_14">
     <g id="line2d_23">
      <g>
       <use xlink:href="#m71b970dd4c" x="57.6" y="223.999952" style="fill: #262626; stroke: #262626"/>
      </g>
     </g>
    </g>
    <g id="ytick_15">
     <g id="line2d_24">
      <g>
       <use xlink:href="#m71b970dd4c" x="57.6" y="203.237485" style="fill: #262626; stroke: #262626"/>
      </g>
     </g>
    </g>
    <g id="ytick_16">
     <g id="line2d_25">
      <g>
       <use xlink:href="#m71b970dd4c" x="57.6" y="192.856252" style="fill: #262626; stroke: #262626"/>
      </g>
     </g>
    </g>
    <g id="ytick_17">
     <g id="line2d_26">
      <g>
       <use xlink:href="#m71b970dd4c" x="57.6" y="182.475019" style="fill: #262626; stroke: #262626"/>
      </g>
     </g>
    </g>
    <g id="ytick_18">
     <g id="line2d_27">
      <g>
       <use xlink:href="#m71b970dd4c" x="57.6" y="161.712553" style="fill: #262626; stroke: #262626"/>
      </g>
     </g>
    </g>
    <g id="ytick_19">
     <g id="line2d_28">
      <g>
       <use xlink:href="#m71b970dd4c" x="57.6" y="151.33132" style="fill: #262626; stroke: #262626"/>
      </g>
     </g>
    </g>
    <g id="ytick_20">
     <g id="line2d_29">
      <g>
       <use xlink:href="#m71b970dd4c" x="57.6" y="140.950087" style="fill: #262626; stroke: #262626"/>
      </g>
     </g>
    </g>
    <g id="ytick_21">
     <g id="line2d_30">
      <g>
       <use xlink:href="#m71b970dd4c" x="57.6" y="120.187621" style="fill: #262626; stroke: #262626"/>
      </g>
     </g>
    </g>
    <g id="ytick_22">
     <g id="line2d_31">
      <g>
       <use xlink:href="#m71b970dd4c" x="57.6" y="109.806388" style="fill: #262626; stroke: #262626"/>
      </g>
     </g>
    </g>
    <g id="ytick_23">
     <g id="line2d_32">
      <g>
       <use xlink:href="#m71b970dd4c" x="57.6" y="99.425155" style="fill: #262626; stroke: #262626"/>
      </g>
     </g>
    </g>
    <g id="ytick_24">
     <g id="line2d_33">
      <g>
       <use xlink:href="#m71b970dd4c" x="57.6" y="78.662689" style="fill: #262626; stroke: #262626"/>
      </g>
     </g>
    </g>
    <g id="ytick_25">
     <g id="line2d_34">
      <g>
       <use xlink:href="#m71b970dd4c" x="57.6" y="68.281456" style="fill: #262626; stroke: #262626"/>
      </g>
     </g>
    </g>
    <g id="ytick_26">
     <g id="line2d_35">
      <g>
       <use xlink:href="#m71b970dd4c" x="57.6" y="57.900223" style="fill: #262626; stroke: #262626"/>
      </g>
     </g>
    </g>
    <g id="text_18">
     <!-- Concentration (nM) -->
     <g style="fill: #262626" transform="translate(18.992187 251.553937)rotate(-90)scale(0.18 -0.18)">
      <defs>
       <path id="Helvetica-43" d="M 2422 4716 
Q 3294 4716 3775 4256 
Q 4256 3797 4309 3213 
L 3703 3213 
Q 3600 3656 3292 3915 
Q 2984 4175 2428 4175 
Q 1750 4175 1333 3698 
Q 916 3222 916 2238 
Q 916 1431 1292 929 
Q 1669 428 2416 428 
Q 3103 428 3463 956 
Q 3653 1234 3747 1688 
L 4353 1688 
Q 4272 963 3816 472 
Q 3269 -119 2341 -119 
Q 1541 -119 997 366 
Q 281 1006 281 2344 
Q 281 3359 819 4009 
Q 1400 4716 2422 4716 
z
M 2297 4716 
L 2297 4716 
z
" transform="scale(0.015625)"/>
       <path id="Helvetica-6e" d="M 413 3347 
L 947 3347 
L 947 2872 
Q 1184 3166 1450 3294 
Q 1716 3422 2041 3422 
Q 2753 3422 3003 2925 
Q 3141 2653 3141 2147 
L 3141 0 
L 2569 0 
L 2569 2109 
Q 2569 2416 2478 2603 
Q 2328 2916 1934 2916 
Q 1734 2916 1606 2875 
Q 1375 2806 1200 2600 
Q 1059 2434 1017 2257 
Q 975 2081 975 1753 
L 975 0 
L 413 0 
L 413 3347 
z
M 1734 3428 
L 1734 3428 
z
" transform="scale(0.015625)"/>
       <path id="Helvetica-63" d="M 1703 3444 
Q 2269 3444 2623 3169 
Q 2978 2894 3050 2222 
L 2503 2222 
Q 2453 2531 2275 2736 
Q 2097 2941 1703 2941 
Q 1166 2941 934 2416 
Q 784 2075 784 1575 
Q 784 1072 996 728 
Q 1209 384 1666 384 
Q 2016 384 2220 598 
Q 2425 813 2503 1184 
L 3050 1184 
Q 2956 519 2581 211 
Q 2206 -97 1622 -97 
Q 966 -97 575 383 
Q 184 863 184 1581 
Q 184 2463 612 2953 
Q 1041 3444 1703 3444 
z
M 1616 3428 
L 1616 3428 
z
" transform="scale(0.015625)"/>
       <path id="Helvetica-74" d="M 525 4281 
L 1094 4281 
L 1094 3347 
L 1628 3347 
L 1628 2888 
L 1094 2888 
L 1094 703 
Q 1094 528 1213 469 
Q 1278 434 1431 434 
Q 1472 434 1519 436 
Q 1566 438 1628 444 
L 1628 0 
Q 1531 -28 1426 -40 
Q 1322 -53 1200 -53 
Q 806 -53 665 148 
Q 525 350 525 672 
L 525 2888 
L 72 2888 
L 72 3347 
L 525 3347 
L 525 4281 
z
" transform="scale(0.015625)"/>
       <path id="Helvetica-61" d="M 844 891 
Q 844 647 1022 506 
Q 1200 366 1444 366 
Q 1741 366 2019 503 
Q 2488 731 2488 1250 
L 2488 1703 
Q 2384 1638 2221 1594 
Q 2059 1550 1903 1531 
L 1563 1488 
Q 1256 1447 1103 1359 
Q 844 1213 844 891 
z
M 2206 2028 
Q 2400 2053 2466 2191 
Q 2503 2266 2503 2406 
Q 2503 2694 2298 2823 
Q 2094 2953 1713 2953 
Q 1272 2953 1088 2716 
Q 984 2584 953 2325 
L 428 2325 
Q 444 2944 830 3186 
Q 1216 3428 1725 3428 
Q 2316 3428 2684 3203 
Q 3050 2978 3050 2503 
L 3050 575 
Q 3050 488 3086 434 
Q 3122 381 3238 381 
Q 3275 381 3322 386 
Q 3369 391 3422 400 
L 3422 -16 
Q 3291 -53 3222 -62 
Q 3153 -72 3034 -72 
Q 2744 -72 2613 134 
Q 2544 244 2516 444 
Q 2344 219 2022 53 
Q 1700 -113 1313 -113 
Q 847 -113 551 170 
Q 256 453 256 878 
Q 256 1344 547 1600 
Q 838 1856 1309 1916 
L 2206 2028 
z
M 1741 3428 
L 1741 3428 
z
" transform="scale(0.015625)"/>
       <path id="Helvetica-4d" d="M 472 4591 
L 1363 4591 
L 2681 709 
L 3991 4591 
L 4872 4591 
L 4872 0 
L 4281 0 
L 4281 2709 
Q 4281 2850 4287 3175 
Q 4294 3500 4294 3872 
L 2984 0 
L 2369 0 
L 1050 3872 
L 1050 3731 
Q 1050 3563 1058 3217 
Q 1066 2872 1066 2709 
L 1066 0 
L 472 0 
L 472 4591 
z
" transform="scale(0.015625)"/>
      </defs>
      <use xlink:href="#Helvetica-43"/>
      <use xlink:href="#Helvetica-6f" x="72.216797"/>
      <use xlink:href="#Helvetica-6e" x="127.832031"/>
      <use xlink:href="#Helvetica-63" x="183.447266"/>
      <use xlink:href="#Helvetica-65" x="233.447266"/>
      <use xlink:href="#Helvetica-6e" x="289.0625"/>
      <use xlink:href="#Helvetica-74" x="344.677734"/>
      <use xlink:href="#Helvetica-72" x="372.460938"/>
      <use xlink:href="#Helvetica-61" x="405.761719"/>
      <use xlink:href="#Helvetica-74" x="461.376953"/>
      <use xlink:href="#Helvetica-69" x="489.160156"/>
      <use xlink:href="#Helvetica-6f" x="511.376953"/>
      <use xlink:href="#Helvetica-6e" x="566.992188"/>
      <use xlink:href="#Helvetica-20" x="622.607422"/>
      <use xlink:href="#Helvetica-28" x="650.390625"/>
      <use xlink:href="#Helvetica-6e" x="683.691406"/>
      <use xlink:href="#Helvetica-4d" x="739.306641"/>
      <use xlink:href="#Helvetica-29" x="822.607422"/>
     </g>
    </g>
   </g>
   <g id="line2d_36">
    <path d="M 73.832727 294.592336 
L 74.483338 295.173237 
L 75.784558 295.423414 
L 77.736389 295.484424 
L 80.989441 295.310521 
L 86.844934 294.749783 
L 92.700426 293.96727 
L 97.905309 293.031796 
L 102.459581 291.974157 
L 106.363243 290.84815 
L 110.266905 289.479167 
L 113.519956 288.121871 
L 116.773008 286.539001 
L 120.026059 284.70174 
L 123.279111 282.579921 
L 126.532163 280.142548 
L 129.134604 277.944548 
L 131.737045 275.509153 
L 134.339486 272.821656 
L 136.941927 269.868741 
L 139.544369 266.639168 
L 142.79742 262.200744 
L 146.050472 257.30933 
L 149.303523 251.968704 
L 152.556575 246.196443 
L 156.460237 238.746883 
L 160.363899 230.807649 
L 165.568781 219.653709 
L 175.978546 196.563551 
L 182.484649 182.464128 
L 187.689532 171.74308 
L 192.243804 162.896496 
L 196.147466 155.756219 
L 200.051128 149.041981 
L 203.95479 142.756356 
L 207.858451 136.89183 
L 211.762113 131.433746 
L 215.665775 126.362725 
L 219.569437 121.656576 
L 223.473099 117.291739 
L 227.376761 113.24433 
L 231.280423 109.49087 
L 235.184085 106.008769 
L 239.738357 102.260802 
L 244.292629 98.82145 
L 248.846901 95.661691 
L 253.401173 92.755131 
L 258.606056 89.712864 
L 263.810938 86.938297 
L 269.015821 84.403192 
L 274.871314 81.806472 
L 280.726806 79.450153 
L 287.232909 77.081129 
L 293.739013 74.943377 
L 300.895726 72.826136 
L 308.70305 70.760775 
L 317.160984 68.772409 
L 326.269528 66.880094 
L 336.028683 65.097311 
L 346.438448 63.432619 
L 357.498823 61.890396 
L 369.860419 60.398507 
L 383.523236 58.986243 
L 398.487273 57.673932 
L 398.487273 57.673932 
" clip-path="url(#p8c290b9a96)" style="fill: none; stroke: #4477aa; stroke-linecap: round"/>
    <defs>
     <path id="m81c14af816" d="M 0 2 
C 0.530406 2 1.03916 1.789267 1.414214 1.414214 
C 1.789267 1.03916 2 0.530406 2 0 
C 2 -0.530406 1.789267 -1.03916 1.414214 -1.414214 
C 1.03916 -1.789267 0.530406 -2 0 -2 
C -0.530406 -2 -1.03916 -1.789267 -1.414214 -1.414214 
C -1.789267 -1.03916 -2 -0.530406 -2 0 
C -2 0.530406 -1.789267 1.03916 -1.414214 1.414214 
C -1.03916 1.789267 -0.530406 2 0 2 
z
" style="stroke: #4477aa"/>
    </defs>
    <g clip-path="url(#p8c290b9a96)">
     <use xlink:href="#m81c14af816" x="73.832727" y="294.592336" style="fill: #4477aa; stroke: #4477aa"/>
     <use xlink:href="#m81c14af816" x="115.471787" y="287.201027" style="fill: #4477aa; stroke: #4477aa"/>
     <use xlink:href="#m81c14af816" x="157.110847" y="237.45499" style="fill: #4477aa; stroke: #4477aa"/>
     <use xlink:href="#m81c14af816" x="198.749907" y="151.232327" style="fill: #4477aa; stroke: #4477aa"/>
     <use xlink:href="#m81c14af816" x="240.388967" y="101.751277" style="fill: #4477aa; stroke: #4477aa"/>
     <use xlink:href="#m81c14af816" x="282.028027" y="78.956376" style="fill: #4477aa; stroke: #4477aa"/>
     <use xlink:href="#m81c14af816" x="323.667087" y="67.396649" style="fill: #4477aa; stroke: #4477aa"/>
     <use xlink:href="#m81c14af816" x="365.306147" y="60.922329" style="fill: #4477aa; stroke: #4477aa"/>
    </g>
   </g>
   <g id="line2d_37">
    <path d="M 73.832727 294.592336 
L 74.483338 295.173238 
L 75.784558 295.423425 
L 77.736389 295.484468 
L 80.989441 295.310631 
L 86.844934 294.749838 
L 92.700426 293.966251 
L 97.905309 293.027275 
L 102.459581 291.962075 
L 106.363243 290.823292 
L 110.266905 289.431796 
L 113.519956 288.044468 
L 116.773008 286.416994 
L 120.026059 284.515568 
L 123.279111 282.304273 
L 125.881552 280.28718 
L 128.483993 278.028936 
L 131.086435 275.511076 
L 133.688876 272.716442 
L 136.291317 269.63003 
L 138.893758 266.239931 
L 141.4962 262.538321 
L 144.749251 257.469576 
L 148.002303 251.917928 
L 151.255354 245.907237 
L 155.159016 238.146638 
L 159.062678 229.883497 
L 164.267561 218.302727 
L 181.834039 178.617353 
L 186.388311 169.080294 
L 190.942583 160.084566 
L 194.846245 152.843277 
L 198.749907 146.049174 
L 202.653569 139.701535 
L 206.557231 133.789837 
L 210.460893 128.29676 
L 214.364555 123.200627 
L 218.268216 118.477302 
L 222.171878 114.101599 
L 226.07554 110.048296 
L 229.979202 106.292818 
L 233.882864 102.811684 
L 238.437136 99.067668 
L 242.991408 95.634458 
L 247.54568 92.482345 
L 252.099953 89.584404 
L 257.304835 86.552673 
L 262.509718 83.78896 
L 267.7146 81.264713 
L 273.570093 78.679943 
L 279.425586 76.3351 
L 285.931689 73.978114 
L 292.437792 71.851557 
L 299.594505 69.74561 
L 307.401829 67.691345 
L 315.859763 65.713604 
L 324.968308 63.831202 
L 334.727462 62.057415 
L 345.137227 60.400643 
L 356.197602 58.865143 
L 368.559198 57.378951 
L 382.222015 55.971051 
L 397.186052 54.661527 
L 398.487273 54.557632 
L 398.487273 54.557632 
" clip-path="url(#p8c290b9a96)" style="fill: none; stroke: #ee6677; stroke-linecap: round"/>
    <defs>
     <path id="m4916b6ea31" d="M 0 -2 
L -2 2 
L 2 2 
z
" style="stroke: #ee6677; stroke-linejoin: miter"/>
    </defs>
    <g clip-path="url(#p8c290b9a96)">
     <use xlink:href="#m4916b6ea31" x="73.832727" y="294.592336" style="fill: #ee6677; stroke: #ee6677; stroke-linejoin: miter"/>
     <use xlink:href="#m4916b6ea31" x="111.568125" y="288.903624" style="fill: #ee6677; stroke: #ee6677; stroke-linejoin: miter"/>
     <use xlink:href="#m4916b6ea31" x="149.303523" y="249.566837" style="fill: #ee6677; stroke: #ee6677; stroke-linejoin: miter"/>
     <use xlink:href="#m4916b6ea31" x="187.038921" y="167.760503" style="fill: #ee6677; stroke: #ee6677; stroke-linejoin: miter"/>
     <use xlink:href="#m4916b6ea31" x="224.77432" y="111.365111" style="fill: #ee6677; stroke: #ee6677; stroke-linejoin: miter"/>
     <use xlink:href="#m4916b6ea31" x="262.509718" y="83.78896" style="fill: #ee6677; stroke: #ee6677; stroke-linejoin: miter"/>
     <use xlink:href="#m4916b6ea31" x="300.245116" y="69.565205" style="fill: #ee6677; stroke: #ee6677; stroke-linejoin: miter"/>
     <use xlink:href="#m4916b6ea31" x="337.980514" y="61.515425" style="fill: #ee6677; stroke: #ee6677; stroke-linejoin: miter"/>
     <use xlink:href="#m4916b6ea31" x="375.715912" y="56.613591" style="fill: #ee6677; stroke: #ee6677; stroke-linejoin: miter"/>
    </g>
   </g>
   <g id="line2d_38">
    <path d="M 73.832727 294.592336 
L 74.483338 295.173236 
L 75.784558 295.423414 
L 77.736389 295.484438 
L 80.989441 295.310551 
L 86.844934 294.749435 
L 92.700426 293.964698 
L 97.905309 293.023082 
L 102.459581 291.953157 
L 106.363243 290.807325 
L 110.266905 289.404573 
L 113.519956 288.003371 
L 116.773008 286.356613 
L 120.026059 284.429087 
L 122.628501 282.659843 
L 125.230942 280.667267 
L 127.833383 278.431603 
L 130.435824 275.933689 
L 133.038266 273.155701 
L 135.640707 270.082036 
L 138.243148 266.700274 
L 140.845589 263.002202 
L 144.098641 257.930727 
L 147.351692 252.368172 
L 150.604744 246.33841 
L 154.508406 238.544547 
L 158.412068 230.237696 
L 163.61695 218.584806 
L 181.183429 178.597509 
L 185.737701 168.982475 
L 190.291973 159.913305 
L 194.195635 152.613515 
L 198.099297 145.765382 
L 202.002959 139.368267 
L 205.906621 133.411548 
L 209.810282 127.877679 
L 213.713944 122.744685 
L 217.617606 117.988095 
L 221.521268 113.582378 
L 225.42493 109.501972 
L 229.328592 105.72198 
L 233.232254 102.218626 
L 237.786526 98.451226 
L 242.340798 94.997008 
L 246.89507 91.825928 
L 251.449342 88.910776 
L 256.654225 85.861209 
L 261.859107 83.081319 
L 267.06399 80.542293 
L 272.919483 77.942298 
L 278.774975 75.583468 
L 285.281079 73.212141 
L 291.787182 71.072283 
L 298.943895 68.952684 
L 306.751219 66.884473 
L 315.209153 64.892514 
L 324.317697 62.995614 
L 334.076852 61.207026 
L 344.486617 59.535104 
L 355.546992 57.984058 
L 367.908588 56.480994 
L 381.571405 55.054893 
L 396.535442 53.725816 
L 398.487273 53.568 
L 398.487273 53.568 
" clip-path="url(#p8c290b9a96)" style="fill: none; stroke: #228833; stroke-linecap: round"/>
    <defs>
     <path id="m12ea06b6f5" d="M -2 2 
L 2 2 
L 2 -2 
L -2 -2 
z
" style="stroke: #228833; stroke-linejoin: miter"/>
    </defs>
    <g clip-path="url(#p8c290b9a96)">
     <use xlink:href="#m12ea06b6f5" x="73.832727" y="294.592336" style="fill: #228833; stroke: #228833; stroke-linejoin: miter"/>
     <use xlink:href="#m12ea06b6f5" x="110.917515" y="289.142377" style="fill: #228833; stroke: #228833; stroke-linejoin: miter"/>
     <use xlink:href="#m12ea06b6f5" x="148.002303" y="251.198532" style="fill: #228833; stroke: #228833; stroke-linejoin: miter"/>
     <use xlink:href="#m12ea06b6f5" x="185.087091" y="170.324275" style="fill: #228833; stroke: #228833; stroke-linejoin: miter"/>
     <use xlink:href="#m12ea06b6f5" x="222.171878" y="112.880403" style="fill: #228833; stroke: #228833; stroke-linejoin: miter"/>
     <use xlink:href="#m12ea06b6f5" x="259.256666" y="84.43944" style="fill: #228833; stroke: #228833; stroke-linejoin: miter"/>
     <use xlink:href="#m12ea06b6f5" x="296.341454" y="69.697036" style="fill: #228833; stroke: #228833; stroke-linejoin: miter"/>
     <use xlink:href="#m12ea06b6f5" x="333.426242" y="61.319199" style="fill: #228833; stroke: #228833; stroke-linejoin: miter"/>
     <use xlink:href="#m12ea06b6f5" x="370.511029" y="56.1917" style="fill: #228833; stroke: #228833; stroke-linejoin: miter"/>
    </g>
   </g>
   <g id="line2d_39">
    <path d="M 73.832727 294.592336 
L 74.483338 295.173239 
L 75.784558 295.423441 
L 77.736389 295.484527 
L 80.989441 295.310824 
L 86.844934 294.75044 
L 92.700426 293.96731 
L 97.905309 293.028369 
L 102.459581 291.962277 
L 106.363243 290.821301 
L 110.266905 289.425328 
L 113.519956 288.031607 
L 116.773008 286.39433 
L 120.026059 284.478597 
L 122.628501 282.72064 
L 125.230942 280.74113 
L 127.833383 278.520399 
L 130.435824 276.039321 
L 133.038266 273.28006 
L 135.640707 270.226932 
L 138.243148 266.867374 
L 140.845589 263.192948 
L 144.098641 258.152614 
L 147.351692 252.622293 
L 150.604744 246.625036 
L 153.857796 240.200731 
L 157.761457 232.007392 
L 162.31573 221.936552 
L 170.123053 204.012537 
L 177.930377 186.220546 
L 183.13526 174.891745 
L 187.689532 165.503617 
L 191.593194 157.907196 
L 195.496856 150.75358 
L 199.400517 144.051366 
L 203.304179 137.796743 
L 207.207841 131.976894 
L 211.111503 126.572871 
L 215.015165 121.561919 
L 218.918827 116.919243 
L 222.822489 112.619321 
L 226.72615 108.636818 
L 230.629812 104.947211 
L 234.533474 101.527175 
L 239.087746 97.848713 
L 243.642019 94.475293 
L 248.196291 91.377656 
L 252.750563 88.529334 
L 257.955445 85.548927 
L 263.160328 82.831381 
L 268.36521 80.34871 
L 274.220703 77.805856 
L 280.076196 75.498402 
L 286.582299 73.178332 
L 293.088402 71.08446 
L 300.245116 69.010256 
L 308.052439 66.986315 
L 316.510373 65.037128 
L 325.618918 63.181283 
L 335.378073 61.431931 
L 345.787837 59.797428 
L 356.848213 58.282058 
L 369.209809 56.814845 
L 382.872625 55.42442 
L 397.836662 54.130659 
L 398.487273 54.079143 
L 398.487273 54.079143 
" clip-path="url(#p8c290b9a96)" style="fill: none; stroke: #ccbb44; stroke-linecap: round"/>
    <defs>
     <path id="mf80aa96339" d="M -0.666667 2 
L 0.666667 2 
L 0.666667 0.666667 
L 2 0.666667 
L 2 -0.666667 
L 0.666667 -0.666667 
L 0.666667 -2 
L -0.666667 -2 
L -0.666667 -0.666667 
L -2 -0.666667 
L -2 0.666667 
L -0.666667 0.666667 
z
" style="stroke: #ccbb44; stroke-linejoin: miter"/>
    </defs>
    <g clip-path="url(#p8c290b9a96)">
     <use xlink:href="#mf80aa96339" x="73.832727" y="294.592336" style="fill: #ccbb44; stroke: #ccbb44; stroke-linejoin: miter"/>
     <use xlink:href="#mf80aa96339" x="115.471787" y="287.080644" style="fill: #ccbb44; stroke: #ccbb44; stroke-linejoin: miter"/>
     <use xlink:href="#mf80aa96339" x="157.110847" y="233.405164" style="fill: #ccbb44; stroke: #ccbb44; stroke-linejoin: miter"/>
     <use xlink:href="#mf80aa96339" x="198.749907" y="145.137087" style="fill: #ccbb44; stroke: #ccbb44; stroke-linejoin: miter"/>
     <use xlink:href="#mf80aa96339" x="240.388967" y="96.855085" style="fill: #ccbb44; stroke: #ccbb44; stroke-linejoin: miter"/>
     <use xlink:href="#mf80aa96339" x="282.028027" y="74.776846" style="fill: #ccbb44; stroke: #ccbb44; stroke-linejoin: miter"/>
     <use xlink:href="#mf80aa96339" x="323.667087" y="63.559607" style="fill: #ccbb44; stroke: #ccbb44; stroke-linejoin: miter"/>
     <use xlink:href="#mf80aa96339" x="365.306147" y="57.254825" style="fill: #ccbb44; stroke: #ccbb44; stroke-linejoin: miter"/>
    </g>
   </g>
   <g id="patch_3">
    <path d="M 57.6 307.584 
L 57.6 41.472 
" style="fill: none; stroke: #262626; stroke-width: 0.5; stroke-linejoin: miter; stroke-linecap: square"/>
   </g>
   <g id="patch_4">
    <path d="M 57.6 307.584 
L 414.72 307.584 
" style="fill: none; stroke: #262626; stroke-width: 0.5; stroke-linejoin: miter; stroke-linecap: square"/>
   </g>
   <g id="legend_1">
    <g id="line2d_40">
     <path d="M 274.248 143.772187 
L 292.248 143.772187 
L 310.248 143.772187 
" style="fill: none; stroke: #4477aa; stroke-linecap: round"/>
     <g>
      <use xlink:href="#m81c14af816" x="292.248" y="143.772187" style="fill: #4477aa; stroke: #4477aa"/>
     </g>
    </g>
    <g id="text_19">
     <!-- $\Delta$ Leak = 0% -->
     <g style="fill: #262626" transform="translate(324.648 150.072187)scale(0.18 -0.18)">
      <defs>
       <path id="DejaVuSans-394" d="M 2188 4044 
L 906 525 
L 3472 525 
L 2188 4044 
z
M 50 0 
L 1831 4666 
L 2547 4666 
L 4325 0 
L 50 0 
z
" transform="scale(0.015625)"/>
       <path id="Helvetica-4c" d="M 488 4591 
L 1109 4591 
L 1109 547 
L 3434 547 
L 3434 0 
L 488 0 
L 488 4591 
z
" transform="scale(0.015625)"/>
       <path id="Helvetica-6b" d="M 400 4591 
L 941 4591 
L 941 1925 
L 2384 3347 
L 3103 3347 
L 1822 2094 
L 3175 0 
L 2456 0 
L 1413 1688 
L 941 1256 
L 941 0 
L 400 0 
L 400 4591 
z
" transform="scale(0.015625)"/>
       <path id="Helvetica-3d" d="M 3547 2569 
L 3547 2044 
L 288 2044 
L 288 2569 
L 3547 2569 
z
M 3547 1228 
L 3547 694 
L 288 694 
L 288 1228 
L 3547 1228 
z
" transform="scale(0.015625)"/>
       <path id="Helvetica-25" d="M 4363 2175 
Q 4813 2175 5131 1856 
Q 5450 1538 5450 1088 
Q 5450 638 5131 319 
Q 4813 0 4363 0 
Q 3909 0 3590 319 
Q 3272 638 3272 1088 
Q 3272 1538 3590 1856 
Q 3909 2175 4363 2175 
z
M 3909 4456 
L 4256 4456 
L 1753 -119 
L 1406 -119 
L 3909 4456 
z
M 1294 2606 
Q 1563 2606 1752 2795 
Q 1941 2984 1941 3250 
Q 1941 3516 1752 3705 
Q 1563 3894 1294 3894 
Q 1028 3894 839 3706 
Q 650 3519 650 3250 
Q 650 2984 839 2795 
Q 1028 2606 1294 2606 
z
M 1294 4341 
Q 1747 4341 2065 4020 
Q 2384 3700 2384 3250 
Q 2384 2800 2065 2481 
Q 1747 2163 1294 2163 
Q 844 2163 525 2481 
Q 206 2800 206 3250 
Q 206 3700 525 4020 
Q 844 4341 1294 4341 
z
M 4363 444 
Q 4628 444 4817 633 
Q 5006 822 5006 1088 
Q 5006 1353 4817 1542 
Q 4628 1731 4363 1731 
Q 4094 1731 3905 1542 
Q 3716 1353 3716 1088 
Q 3716 822 3905 633 
Q 4094 444 4363 444 
z
" transform="scale(0.015625)"/>
      </defs>
      <use xlink:href="#DejaVuSans-394" transform="translate(0 0.09375)"/>
      <use xlink:href="#Helvetica-20" transform="translate(68.408203 0.09375)"/>
      <use xlink:href="#Helvetica-4c" transform="translate(96.191406 0.09375)"/>
      <use xlink:href="#Helvetica-65" transform="translate(151.806641 0.09375)"/>
      <use xlink:href="#Helvetica-61" transform="translate(207.421875 0.09375)"/>
      <use xlink:href="#Helvetica-6b" transform="translate(263.037109 0.09375)"/>
      <use xlink:href="#Helvetica-20" transform="translate(313.037109 0.09375)"/>
      <use xlink:href="#Helvetica-3d" transform="translate(340.820312 0.09375)"/>
      <use xlink:href="#Helvetica-20" transform="translate(399.21875 0.09375)"/>
      <use xlink:href="#Helvetica-30" transform="translate(427.001953 0.09375)"/>
      <use xlink:href="#Helvetica-25" transform="translate(482.617188 0.09375)"/>
     </g>
    </g>
    <g id="line2d_41">
     <path d="M 274.248 169.43625 
L 292.248 169.43625 
L 310.248 169.43625 
" style="fill: none; stroke: #ee6677; stroke-linecap: round"/>
     <g>
      <use xlink:href="#m4916b6ea31" x="292.248" y="169.43625" style="fill: #ee6677; stroke: #ee6677; stroke-linejoin: miter"/>
     </g>
    </g>
    <g id="text_20">
     <!-- $\Delta$ Leak = 200% -->
     <g style="fill: #262626" transform="translate(324.648 175.73625)scale(0.18 -0.18)">
      <use xlink:href="#DejaVuSans-394" transform="translate(0 0.09375)"/>
      <use xlink:href="#Helvetica-20" transform="translate(68.408203 0.09375)"/>
      <use xlink:href="#Helvetica-4c" transform="translate(96.191406 0.09375)"/>
      <use xlink:href="#Helvetica-65" transform="translate(151.806641 0.09375)"/>
      <use xlink:href="#Helvetica-61" transform="translate(207.421875 0.09375)"/>
      <use xlink:href="#Helvetica-6b" transform="translate(263.037109 0.09375)"/>
      <use xlink:href="#Helvetica-20" transform="translate(313.037109 0.09375)"/>
      <use xlink:href="#Helvetica-3d" transform="translate(340.820312 0.09375)"/>
      <use xlink:href="#Helvetica-20" transform="translate(399.21875 0.09375)"/>
      <use xlink:href="#Helvetica-32" transform="translate(427.001953 0.09375)"/>
      <use xlink:href="#Helvetica-30" transform="translate(482.617188 0.09375)"/>
      <use xlink:href="#Helvetica-30" transform="translate(538.232422 0.09375)"/>
      <use xlink:href="#Helvetica-25" transform="translate(593.847656 0.09375)"/>
     </g>
    </g>
    <g id="line2d_42">
     <path d="M 274.248 195.100312 
L 292.248 195.100312 
L 310.248 195.100312 
" style="fill: none; stroke: #228833; stroke-linecap: round"/>
     <g>
      <use xlink:href="#m12ea06b6f5" x="292.248" y="195.100312" style="fill: #228833; stroke: #228833; stroke-linejoin: miter"/>
     </g>
    </g>
    <g id="text_21">
     <!-- $\Delta$ Leak = 500% -->
     <g style="fill: #262626" transform="translate(324.648 201.400312)scale(0.18 -0.18)">
      <use xlink:href="#DejaVuSans-394" transform="translate(0 0.09375)"/>
      <use xlink:href="#Helvetica-20" transform="translate(68.408203 0.09375)"/>
      <use xlink:href="#Helvetica-4c" transform="translate(96.191406 0.09375)"/>
      <use xlink:href="#Helvetica-65" transform="translate(151.806641 0.09375)"/>
      <use xlink:href="#Helvetica-61" transform="translate(207.421875 0.09375)"/>
      <use xlink:href="#Helvetica-6b" transform="translate(263.037109 0.09375)"/>
      <use xlink:href="#Helvetica-20" transform="translate(313.037109 0.09375)"/>
      <use xlink:href="#Helvetica-3d" transform="translate(340.820312 0.09375)"/>
      <use xlink:href="#Helvetica-20" transform="translate(399.21875 0.09375)"/>
      <use xlink:href="#Helvetica-35" transform="translate(427.001953 0.09375)"/>
      <use xlink:href="#Helvetica-30" transform="translate(482.617188 0.09375)"/>
      <use xlink:href="#Helvetica-30" transform="translate(538.232422 0.09375)"/>
      <use xlink:href="#Helvetica-25" transform="translate(593.847656 0.09375)"/>
     </g>
    </g>
    <g id="line2d_43">
     <path d="M 274.248 220.764375 
L 292.248 220.764375 
L 310.248 220.764375 
" style="fill: none; stroke: #ccbb44; stroke-linecap: round"/>
     <g>
      <use xlink:href="#mf80aa96339" x="292.248" y="220.764375" style="fill: #ccbb44; stroke: #ccbb44; stroke-linejoin: miter"/>
     </g>
    </g>
    <g id="text_22">
     <!-- $\Delta$ Leak = 700% -->
     <g style="fill: #262626" transform="translate(324.648 227.064375)scale(0.18 -0.18)">
      <use xlink:href="#DejaVuSans-394" transform="translate(0 0.09375)"/>
      <use xlink:href="#Helvetica-20" transform="translate(68.408203 0.09375)"/>
      <use xlink:href="#Helvetica-4c" transform="translate(96.191406 0.09375)"/>
      <use xlink:href="#Helvetica-65" transform="translate(151.806641 0.09375)"/>
      <use xlink:href="#Helvetica-61" transform="translate(207.421875 0.09375)"/>
      <use xlink:href="#Helvetica-6b" transform="translate(263.037109 0.09375)"/>
      <use xlink:href="#Helvetica-20" transform="translate(313.037109 0.09375)"/>
      <use xlink:href="#Helvetica-3d" transform="translate(340.820312 0.09375)"/>
      <use xlink:href="#Helvetica-20" transform="translate(399.21875 0.09375)"/>
      <use xlink:href="#Helvetica-37" transform="translate(427.001953 0.09375)"/>
      <use xlink:href="#Helvetica-30" transform="translate(482.617188 0.09375)"/>
      <use xlink:href="#Helvetica-30" transform="translate(538.232422 0.09375)"/>
      <use xlink:href="#Helvetica-25" transform="translate(593.847656 0.09375)"/>
     </g>
    </g>
   </g>
  </g>
 </g>
 <defs>
  <clipPath id="p8c290b9a96">
   <rect x="57.6" y="41.472" width="357.12" height="266.112"/>
  </clipPath>
 </defs>
</svg>
