<?xml version="1.0" encoding="utf-8" standalone="no"?>
<!DOCTYPE svg PUBLIC "-//W3C//DTD SVG 1.1//EN"
  "http://www.w3.org/Graphics/SVG/1.1/DTD/svg11.dtd">
<svg xmlns:xlink="http://www.w3.org/1999/xlink" width="460.8pt" height="345.6pt" viewBox="0 0 460.8 345.6" xmlns="http://www.w3.org/2000/svg" version="1.1">
 <metadata>
  <rdf:RDF xmlns:dc="http://purl.org/dc/elements/1.1/" xmlns:cc="http://creativecommons.org/ns#" xmlns:rdf="http://www.w3.org/1999/02/22-rdf-syntax-ns#">
   <cc:Work>
    <dc:type rdf:resource="http://purl.org/dc/dcmitype/StillImage"/>
    <dc:date>2024-04-08T16:41:26.694625</dc:date>
    <dc:format>image/svg+xml</dc:format>
    <dc:creator>
     <cc:Agent>
      <dc:title>Matplotlib v3.5.1, https://matplotlib.org/</dc:title>
     </cc:Agent>
    </dc:creator>
   </cc:Work>
  </rdf:RDF>
 </metadata>
 <defs>
  <style type="text/css">*{stroke-linejoin: round; stroke-linecap: butt}</style>
 </defs>
 <g id="figure_1">
  <g id="patch_1">
   <path d="M 0 345.6 
L 460.8 345.6 
L 460.8 0 
L 0 0 
z
" style="fill: #ffffff"/>
  </g>
  <g id="axes_1">
   <g id="patch_2">
    <path d="M 57.6 307.584 
L 414.72 307.584 
L 414.72 41.472 
L 57.6 41.472 
z
" style="fill: #ffffff"/>
   </g>
   <g id="matplotlib.axis_1">
    <g id="xtick_1">
     <g id="line2d_1">
      <defs>
       <path id="mdf03d84a47" d="M 0 0 
L 0 4 
" style="stroke: #262626"/>
      </defs>
      <g>
       <use xlink:href="#mdf03d84a47" x="73.832727" y="307.584" style="fill: #262626; stroke: #262626"/>
      </g>
     </g>
     <g id="text_1">
      <!-- 0.00 -->
      <g style="fill: #262626" transform="translate(60.210071 325.126812)scale(0.14 -0.14)">
       <defs>
        <path id="Helvetica-30" d="M 1731 4475 
Q 2600 4475 2988 3759 
Q 3288 3206 3288 2244 
Q 3288 1331 3016 734 
Q 2622 -122 1728 -122 
Q 922 -122 528 578 
Q 200 1163 200 2147 
Q 200 2909 397 3456 
Q 766 4475 1731 4475 
z
M 1725 391 
Q 2163 391 2422 778 
Q 2681 1166 2681 2222 
Q 2681 2984 2493 3476 
Q 2306 3969 1766 3969 
Q 1269 3969 1039 3501 
Q 809 3034 809 2125 
Q 809 1441 956 1025 
Q 1181 391 1725 391 
z
" transform="scale(0.015625)"/>
        <path id="Helvetica-2e" d="M 547 681 
L 1200 681 
L 1200 0 
L 547 0 
L 547 681 
z
" transform="scale(0.015625)"/>
       </defs>
       <use xlink:href="#Helvetica-30"/>
       <use xlink:href="#Helvetica-2e" x="55.615234"/>
       <use xlink:href="#Helvetica-30" x="83.398438"/>
       <use xlink:href="#Helvetica-30" x="139.013672"/>
      </g>
     </g>
    </g>
    <g id="xtick_2">
     <g id="line2d_2">
      <g>
       <use xlink:href="#mdf03d84a47" x="114.414545" y="307.584" style="fill: #262626; stroke: #262626"/>
      </g>
     </g>
     <g id="text_2">
      <!-- 0.25 -->
      <g style="fill: #262626" transform="translate(100.791889 325.126812)scale(0.14 -0.14)">
       <defs>
        <path id="Helvetica-32" d="M 200 0 
Q 231 578 439 1006 
Q 647 1434 1250 1784 
L 1850 2131 
Q 2253 2366 2416 2531 
Q 2672 2791 2672 3125 
Q 2672 3516 2437 3745 
Q 2203 3975 1813 3975 
Q 1234 3975 1013 3538 
Q 894 3303 881 2888 
L 309 2888 
Q 319 3472 525 3841 
Q 891 4491 1816 4491 
Q 2584 4491 2939 4075 
Q 3294 3659 3294 3150 
Q 3294 2613 2916 2231 
Q 2697 2009 2131 1694 
L 1703 1456 
Q 1397 1288 1222 1134 
Q 909 863 828 531 
L 3272 531 
L 3272 0 
L 200 0 
z
" transform="scale(0.015625)"/>
        <path id="Helvetica-35" d="M 791 1141 
Q 847 659 1238 475 
Q 1438 381 1700 381 
Q 2200 381 2440 700 
Q 2681 1019 2681 1406 
Q 2681 1875 2395 2131 
Q 2109 2388 1709 2388 
Q 1419 2388 1211 2275 
Q 1003 2163 856 1963 
L 369 1991 
L 709 4400 
L 3034 4400 
L 3034 3856 
L 1131 3856 
L 941 2613 
Q 1097 2731 1238 2791 
Q 1488 2894 1816 2894 
Q 2431 2894 2859 2497 
Q 3288 2100 3288 1491 
Q 3288 856 2895 371 
Q 2503 -113 1644 -113 
Q 1097 -113 676 195 
Q 256 503 206 1141 
L 791 1141 
z
" transform="scale(0.015625)"/>
       </defs>
       <use xlink:href="#Helvetica-30"/>
       <use xlink:href="#Helvetica-2e" x="55.615234"/>
       <use xlink:href="#Helvetica-32" x="83.398438"/>
       <use xlink:href="#Helvetica-35" x="139.013672"/>
      </g>
     </g>
    </g>
    <g id="xtick_3">
     <g id="line2d_3">
      <g>
       <use xlink:href="#mdf03d84a47" x="154.996364" y="307.584" style="fill: #262626; stroke: #262626"/>
      </g>
     </g>
     <g id="text_3">
      <!-- 0.50 -->
      <g style="fill: #262626" transform="translate(141.373707 325.126812)scale(0.14 -0.14)">
       <use xlink:href="#Helvetica-30"/>
       <use xlink:href="#Helvetica-2e" x="55.615234"/>
       <use xlink:href="#Helvetica-35" x="83.398438"/>
       <use xlink:href="#Helvetica-30" x="139.013672"/>
      </g>
     </g>
    </g>
    <g id="xtick_4">
     <g id="line2d_4">
      <g>
       <use xlink:href="#mdf03d84a47" x="195.578182" y="307.584" style="fill: #262626; stroke: #262626"/>
      </g>
     </g>
     <g id="text_4">
      <!-- 0.75 -->
      <g style="fill: #262626" transform="translate(181.955526 325.126812)scale(0.14 -0.14)">
       <defs>
        <path id="Helvetica-37" d="M 3347 4400 
L 3347 3909 
Q 3131 3700 2773 3181 
Q 2416 2663 2141 2063 
Q 1869 1478 1728 997 
Q 1638 688 1494 0 
L 872 0 
Q 1084 1281 1809 2550 
Q 2238 3294 2709 3834 
L 234 3834 
L 234 4400 
L 3347 4400 
z
" transform="scale(0.015625)"/>
       </defs>
       <use xlink:href="#Helvetica-30"/>
       <use xlink:href="#Helvetica-2e" x="55.615234"/>
       <use xlink:href="#Helvetica-37" x="83.398438"/>
       <use xlink:href="#Helvetica-35" x="139.013672"/>
      </g>
     </g>
    </g>
    <g id="xtick_5">
     <g id="line2d_5">
      <g>
       <use xlink:href="#mdf03d84a47" x="236.16" y="307.584" style="fill: #262626; stroke: #262626"/>
      </g>
     </g>
     <g id="text_5">
      <!-- 1.00 -->
      <g style="fill: #262626" transform="translate(222.537344 325.126812)scale(0.14 -0.14)">
       <defs>
        <path id="Helvetica-31" d="M 613 3169 
L 613 3600 
Q 1222 3659 1462 3798 
Q 1703 3938 1822 4456 
L 2266 4456 
L 2266 0 
L 1666 0 
L 1666 3169 
L 613 3169 
z
" transform="scale(0.015625)"/>
       </defs>
       <use xlink:href="#Helvetica-31"/>
       <use xlink:href="#Helvetica-2e" x="55.615234"/>
       <use xlink:href="#Helvetica-30" x="83.398438"/>
       <use xlink:href="#Helvetica-30" x="139.013672"/>
      </g>
     </g>
    </g>
    <g id="xtick_6">
     <g id="line2d_6">
      <g>
       <use xlink:href="#mdf03d84a47" x="276.741818" y="307.584" style="fill: #262626; stroke: #262626"/>
      </g>
     </g>
     <g id="text_6">
      <!-- 1.25 -->
      <g style="fill: #262626" transform="translate(263.119162 325.126812)scale(0.14 -0.14)">
       <use xlink:href="#Helvetica-31"/>
       <use xlink:href="#Helvetica-2e" x="55.615234"/>
       <use xlink:href="#Helvetica-32" x="83.398438"/>
       <use xlink:href="#Helvetica-35" x="139.013672"/>
      </g>
     </g>
    </g>
    <g id="xtick_7">
     <g id="line2d_7">
      <g>
       <use xlink:href="#mdf03d84a47" x="317.323636" y="307.584" style="fill: #262626; stroke: #262626"/>
      </g>
     </g>
     <g id="text_7">
      <!-- 1.50 -->
      <g style="fill: #262626" transform="translate(303.70098 325.126812)scale(0.14 -0.14)">
       <use xlink:href="#Helvetica-31"/>
       <use xlink:href="#Helvetica-2e" x="55.615234"/>
       <use xlink:href="#Helvetica-35" x="83.398438"/>
       <use xlink:href="#Helvetica-30" x="139.013672"/>
      </g>
     </g>
    </g>
    <g id="xtick_8">
     <g id="line2d_8">
      <g>
       <use xlink:href="#mdf03d84a47" x="357.905455" y="307.584" style="fill: #262626; stroke: #262626"/>
      </g>
     </g>
     <g id="text_8">
      <!-- 1.75 -->
      <g style="fill: #262626" transform="translate(344.282798 325.126812)scale(0.14 -0.14)">
       <use xlink:href="#Helvetica-31"/>
       <use xlink:href="#Helvetica-2e" x="55.615234"/>
       <use xlink:href="#Helvetica-37" x="83.398438"/>
       <use xlink:href="#Helvetica-35" x="139.013672"/>
      </g>
     </g>
    </g>
    <g id="xtick_9">
     <g id="line2d_9">
      <g>
       <use xlink:href="#mdf03d84a47" x="398.487273" y="307.584" style="fill: #262626; stroke: #262626"/>
      </g>
     </g>
     <g id="text_9">
      <!-- 2.00 -->
      <g style="fill: #262626" transform="translate(384.864616 325.126812)scale(0.14 -0.14)">
       <use xlink:href="#Helvetica-32"/>
       <use xlink:href="#Helvetica-2e" x="55.615234"/>
       <use xlink:href="#Helvetica-30" x="83.398438"/>
       <use xlink:href="#Helvetica-30" x="139.013672"/>
      </g>
     </g>
    </g>
    <g id="text_10">
     <!-- Time (hours) -->
     <g style="fill: #262626" transform="translate(185.156719 345.089312)scale(0.18 -0.18)">
      <defs>
       <path id="Helvetica-54" d="M 3828 4591 
L 3828 4044 
L 2281 4044 
L 2281 0 
L 1650 0 
L 1650 4044 
L 103 4044 
L 103 4591 
L 3828 4591 
z
" transform="scale(0.015625)"/>
       <path id="Helvetica-69" d="M 413 3331 
L 984 3331 
L 984 0 
L 413 0 
L 413 3331 
z
M 413 4591 
L 984 4591 
L 984 3953 
L 413 3953 
L 413 4591 
z
" transform="scale(0.015625)"/>
       <path id="Helvetica-6d" d="M 413 3347 
L 969 3347 
L 969 2872 
Q 1169 3119 1331 3231 
Q 1609 3422 1963 3422 
Q 2363 3422 2606 3225 
Q 2744 3113 2856 2894 
Q 3044 3163 3297 3292 
Q 3550 3422 3866 3422 
Q 4541 3422 4784 2934 
Q 4916 2672 4916 2228 
L 4916 0 
L 4331 0 
L 4331 2325 
Q 4331 2659 4164 2784 
Q 3997 2909 3756 2909 
Q 3425 2909 3186 2687 
Q 2947 2466 2947 1947 
L 2947 0 
L 2375 0 
L 2375 2184 
Q 2375 2525 2294 2681 
Q 2166 2916 1816 2916 
Q 1497 2916 1236 2669 
Q 975 2422 975 1775 
L 975 0 
L 413 0 
L 413 3347 
z
" transform="scale(0.015625)"/>
       <path id="Helvetica-65" d="M 1806 3422 
Q 2163 3422 2497 3255 
Q 2831 3088 3006 2822 
Q 3175 2569 3231 2231 
Q 3281 2000 3281 1494 
L 828 1494 
Q 844 984 1069 676 
Q 1294 369 1766 369 
Q 2206 369 2469 659 
Q 2619 828 2681 1050 
L 3234 1050 
Q 3213 866 3089 639 
Q 2966 413 2813 269 
Q 2556 19 2178 -69 
Q 1975 -119 1719 -119 
Q 1094 -119 659 336 
Q 225 791 225 1609 
Q 225 2416 662 2919 
Q 1100 3422 1806 3422 
z
M 2703 1941 
Q 2669 2306 2544 2525 
Q 2313 2931 1772 2931 
Q 1384 2931 1121 2651 
Q 859 2372 844 1941 
L 2703 1941 
z
M 1753 3428 
L 1753 3428 
z
" transform="scale(0.015625)"/>
       <path id="Helvetica-20" transform="scale(0.015625)"/>
       <path id="Helvetica-28" d="M 1894 4666 
Q 1403 3713 1256 3263 
Q 1034 2578 1034 1681 
Q 1034 775 1288 25 
Q 1444 -438 1903 -1306 
L 1525 -1306 
Q 1069 -594 959 -397 
Q 850 -200 722 138 
Q 547 600 478 1125 
Q 444 1397 444 1644 
Q 444 2569 734 3291 
Q 919 3750 1503 4666 
L 1894 4666 
z
" transform="scale(0.015625)"/>
       <path id="Helvetica-68" d="M 413 4606 
L 975 4606 
L 975 2894 
Q 1175 3147 1334 3250 
Q 1606 3428 2013 3428 
Q 2741 3428 3000 2919 
Q 3141 2641 3141 2147 
L 3141 0 
L 2563 0 
L 2563 2109 
Q 2563 2478 2469 2650 
Q 2316 2925 1894 2925 
Q 1544 2925 1259 2684 
Q 975 2444 975 1775 
L 975 0 
L 413 0 
L 413 4606 
z
" transform="scale(0.015625)"/>
       <path id="Helvetica-6f" d="M 1741 363 
Q 2300 363 2508 786 
Q 2716 1209 2716 1728 
Q 2716 2197 2566 2491 
Q 2328 2953 1747 2953 
Q 1231 2953 997 2559 
Q 763 2166 763 1609 
Q 763 1075 997 719 
Q 1231 363 1741 363 
z
M 1763 3444 
Q 2409 3444 2856 3012 
Q 3303 2581 3303 1744 
Q 3303 934 2909 406 
Q 2516 -122 1688 -122 
Q 997 -122 590 345 
Q 184 813 184 1600 
Q 184 2444 612 2944 
Q 1041 3444 1763 3444 
z
M 1744 3428 
L 1744 3428 
z
" transform="scale(0.015625)"/>
       <path id="Helvetica-75" d="M 975 3347 
L 975 1125 
Q 975 869 1056 706 
Q 1206 406 1616 406 
Q 2203 406 2416 931 
Q 2531 1213 2531 1703 
L 2531 3347 
L 3094 3347 
L 3094 0 
L 2563 0 
L 2569 494 
Q 2459 303 2297 172 
Q 1975 -91 1516 -91 
Q 800 -91 541 388 
Q 400 644 400 1072 
L 400 3347 
L 975 3347 
z
M 1747 3428 
L 1747 3428 
z
" transform="scale(0.015625)"/>
       <path id="Helvetica-72" d="M 428 3347 
L 963 3347 
L 963 2769 
Q 1028 2938 1284 3180 
Q 1541 3422 1875 3422 
Q 1891 3422 1928 3419 
Q 1966 3416 2056 3406 
L 2056 2813 
Q 2006 2822 1964 2825 
Q 1922 2828 1872 2828 
Q 1447 2828 1219 2554 
Q 991 2281 991 1925 
L 991 0 
L 428 0 
L 428 3347 
z
" transform="scale(0.015625)"/>
       <path id="Helvetica-73" d="M 747 1050 
Q 772 769 888 619 
Q 1100 347 1625 347 
Q 1938 347 2175 483 
Q 2413 619 2413 903 
Q 2413 1119 2222 1231 
Q 2100 1300 1741 1391 
L 1294 1503 
Q 866 1609 663 1741 
Q 300 1969 300 2372 
Q 300 2847 642 3140 
Q 984 3434 1563 3434 
Q 2319 3434 2653 2991 
Q 2863 2709 2856 2384 
L 2325 2384 
Q 2309 2575 2191 2731 
Q 1997 2953 1519 2953 
Q 1200 2953 1036 2831 
Q 872 2709 872 2509 
Q 872 2291 1088 2159 
Q 1213 2081 1456 2022 
L 1828 1931 
Q 2434 1784 2641 1647 
Q 2969 1431 2969 969 
Q 2969 522 2630 197 
Q 2291 -128 1597 -128 
Q 850 -128 539 211 
Q 228 550 206 1050 
L 747 1050 
z
M 1578 3428 
L 1578 3428 
z
" transform="scale(0.015625)"/>
       <path id="Helvetica-29" d="M 222 -1306 
Q 719 -338 863 106 
Q 1081 778 1081 1681 
Q 1081 2584 828 3334 
Q 672 3797 213 4666 
L 591 4666 
Q 1072 3897 1173 3717 
Q 1275 3538 1394 3222 
Q 1544 2831 1608 2450 
Q 1672 2069 1672 1716 
Q 1672 791 1378 66 
Q 1194 -400 613 -1306 
L 222 -1306 
z
" transform="scale(0.015625)"/>
      </defs>
      <use xlink:href="#Helvetica-54"/>
      <use xlink:href="#Helvetica-69" x="61.083984"/>
      <use xlink:href="#Helvetica-6d" x="83.300781"/>
      <use xlink:href="#Helvetica-65" x="166.601562"/>
      <use xlink:href="#Helvetica-20" x="222.216797"/>
      <use xlink:href="#Helvetica-28" x="250"/>
      <use xlink:href="#Helvetica-68" x="283.300781"/>
      <use xlink:href="#Helvetica-6f" x="338.916016"/>
      <use xlink:href="#Helvetica-75" x="394.53125"/>
      <use xlink:href="#Helvetica-72" x="450.146484"/>
      <use xlink:href="#Helvetica-73" x="483.447266"/>
      <use xlink:href="#Helvetica-29" x="533.447266"/>
     </g>
    </g>
   </g>
   <g id="matplotlib.axis_2">
    <g id="ytick_1">
     <g id="line2d_10">
      <defs>
       <path id="m251e8e3331" d="M 0 0 
L -4 0 
" style="stroke: #262626"/>
      </defs>
      <g>
       <use xlink:href="#m251e8e3331" x="57.6" y="295.488" style="fill: #262626; stroke: #262626"/>
      </g>
     </g>
     <g id="text_11">
      <!-- 0.0 -->
      <g style="fill: #262626" transform="translate(30.64 300.509406)scale(0.14 -0.14)">
       <use xlink:href="#Helvetica-30"/>
       <use xlink:href="#Helvetica-2e" x="55.615234"/>
       <use xlink:href="#Helvetica-30" x="83.398438"/>
      </g>
     </g>
    </g>
    <g id="ytick_2">
     <g id="line2d_11">
      <g>
       <use xlink:href="#m251e8e3331" x="57.6" y="237.726992" style="fill: #262626; stroke: #262626"/>
      </g>
     </g>
     <g id="text_12">
      <!-- 0.1 -->
      <g style="fill: #262626" transform="translate(30.64 242.748398)scale(0.14 -0.14)">
       <use xlink:href="#Helvetica-30"/>
       <use xlink:href="#Helvetica-2e" x="55.615234"/>
       <use xlink:href="#Helvetica-31" x="83.398438"/>
      </g>
     </g>
    </g>
    <g id="ytick_3">
     <g id="line2d_12">
      <g>
       <use xlink:href="#m251e8e3331" x="57.6" y="179.965983" style="fill: #262626; stroke: #262626"/>
      </g>
     </g>
     <g id="text_13">
      <!-- 0.2 -->
      <g style="fill: #262626" transform="translate(30.64 184.98739)scale(0.14 -0.14)">
       <use xlink:href="#Helvetica-30"/>
       <use xlink:href="#Helvetica-2e" x="55.615234"/>
       <use xlink:href="#Helvetica-32" x="83.398438"/>
      </g>
     </g>
    </g>
    <g id="ytick_4">
     <g id="line2d_13">
      <g>
       <use xlink:href="#m251e8e3331" x="57.6" y="122.204975" style="fill: #262626; stroke: #262626"/>
      </g>
     </g>
     <g id="text_14">
      <!-- 0.3 -->
      <g style="fill: #262626" transform="translate(30.64 127.226381)scale(0.14 -0.14)">
       <defs>
        <path id="Helvetica-33" d="M 1663 -122 
Q 869 -122 511 314 
Q 153 750 153 1375 
L 741 1375 
Q 778 941 903 744 
Q 1122 391 1694 391 
Q 2138 391 2406 628 
Q 2675 866 2675 1241 
Q 2675 1703 2392 1887 
Q 2109 2072 1606 2072 
Q 1550 2072 1492 2070 
Q 1434 2069 1375 2066 
L 1375 2563 
Q 1463 2553 1522 2550 
Q 1581 2547 1650 2547 
Q 1966 2547 2169 2647 
Q 2525 2822 2525 3272 
Q 2525 3606 2287 3787 
Q 2050 3969 1734 3969 
Q 1172 3969 956 3594 
Q 838 3388 822 3006 
L 266 3006 
Q 266 3506 466 3856 
Q 809 4481 1675 4481 
Q 2359 4481 2734 4176 
Q 3109 3872 3109 3294 
Q 3109 2881 2888 2625 
Q 2750 2466 2531 2375 
Q 2884 2278 3082 2001 
Q 3281 1725 3281 1325 
Q 3281 684 2859 281 
Q 2438 -122 1663 -122 
z
" transform="scale(0.015625)"/>
       </defs>
       <use xlink:href="#Helvetica-30"/>
       <use xlink:href="#Helvetica-2e" x="55.615234"/>
       <use xlink:href="#Helvetica-33" x="83.398438"/>
      </g>
     </g>
    </g>
    <g id="ytick_5">
     <g id="line2d_14">
      <g>
       <use xlink:href="#m251e8e3331" x="57.6" y="64.443967" style="fill: #262626; stroke: #262626"/>
      </g>
     </g>
     <g id="text_15">
      <!-- 0.4 -->
      <g style="fill: #262626" transform="translate(30.64 69.465373)scale(0.14 -0.14)">
       <defs>
        <path id="Helvetica-34" d="M 2116 1584 
L 2116 3613 
L 681 1584 
L 2116 1584 
z
M 2125 0 
L 2125 1094 
L 163 1094 
L 163 1644 
L 2213 4488 
L 2688 4488 
L 2688 1584 
L 3347 1584 
L 3347 1094 
L 2688 1094 
L 2688 0 
L 2125 0 
z
" transform="scale(0.015625)"/>
       </defs>
       <use xlink:href="#Helvetica-30"/>
       <use xlink:href="#Helvetica-2e" x="55.615234"/>
       <use xlink:href="#Helvetica-34" x="83.398438"/>
      </g>
     </g>
    </g>
    <g id="ytick_6">
     <g id="line2d_15">
      <defs>
       <path id="m5d9aeb228d" d="M 0 0 
L -2 0 
" style="stroke: #262626"/>
      </defs>
      <g>
       <use xlink:href="#m5d9aeb228d" x="57.6" y="307.040202" style="fill: #262626; stroke: #262626"/>
      </g>
     </g>
    </g>
    <g id="ytick_7">
     <g id="line2d_16">
      <g>
       <use xlink:href="#m5d9aeb228d" x="57.6" y="283.935798" style="fill: #262626; stroke: #262626"/>
      </g>
     </g>
    </g>
    <g id="ytick_8">
     <g id="line2d_17">
      <g>
       <use xlink:href="#m5d9aeb228d" x="57.6" y="272.383597" style="fill: #262626; stroke: #262626"/>
      </g>
     </g>
    </g>
    <g id="ytick_9">
     <g id="line2d_18">
      <g>
       <use xlink:href="#m5d9aeb228d" x="57.6" y="260.831395" style="fill: #262626; stroke: #262626"/>
      </g>
     </g>
    </g>
    <g id="ytick_10">
     <g id="line2d_19">
      <g>
       <use xlink:href="#m5d9aeb228d" x="57.6" y="249.279193" style="fill: #262626; stroke: #262626"/>
      </g>
     </g>
    </g>
    <g id="ytick_11">
     <g id="line2d_20">
      <g>
       <use xlink:href="#m5d9aeb228d" x="57.6" y="226.17479" style="fill: #262626; stroke: #262626"/>
      </g>
     </g>
    </g>
    <g id="ytick_12">
     <g id="line2d_21">
      <g>
       <use xlink:href="#m5d9aeb228d" x="57.6" y="214.622588" style="fill: #262626; stroke: #262626"/>
      </g>
     </g>
    </g>
    <g id="ytick_13">
     <g id="line2d_22">
      <g>
       <use xlink:href="#m5d9aeb228d" x="57.6" y="203.070387" style="fill: #262626; stroke: #262626"/>
      </g>
     </g>
    </g>
    <g id="ytick_14">
     <g id="line2d_23">
      <g>
       <use xlink:href="#m5d9aeb228d" x="57.6" y="191.518185" style="fill: #262626; stroke: #262626"/>
      </g>
     </g>
    </g>
    <g id="ytick_15">
     <g id="line2d_24">
      <g>
       <use xlink:href="#m5d9aeb228d" x="57.6" y="168.413782" style="fill: #262626; stroke: #262626"/>
      </g>
     </g>
    </g>
    <g id="ytick_16">
     <g id="line2d_25">
      <g>
       <use xlink:href="#m5d9aeb228d" x="57.6" y="156.86158" style="fill: #262626; stroke: #262626"/>
      </g>
     </g>
    </g>
    <g id="ytick_17">
     <g id="line2d_26">
      <g>
       <use xlink:href="#m5d9aeb228d" x="57.6" y="145.309378" style="fill: #262626; stroke: #262626"/>
      </g>
     </g>
    </g>
    <g id="ytick_18">
     <g id="line2d_27">
      <g>
       <use xlink:href="#m5d9aeb228d" x="57.6" y="133.757177" style="fill: #262626; stroke: #262626"/>
      </g>
     </g>
    </g>
    <g id="ytick_19">
     <g id="line2d_28">
      <g>
       <use xlink:href="#m5d9aeb228d" x="57.6" y="110.652773" style="fill: #262626; stroke: #262626"/>
      </g>
     </g>
    </g>
    <g id="ytick_20">
     <g id="line2d_29">
      <g>
       <use xlink:href="#m5d9aeb228d" x="57.6" y="99.100572" style="fill: #262626; stroke: #262626"/>
      </g>
     </g>
    </g>
    <g id="ytick_21">
     <g id="line2d_30">
      <g>
       <use xlink:href="#m5d9aeb228d" x="57.6" y="87.54837" style="fill: #262626; stroke: #262626"/>
      </g>
     </g>
    </g>
    <g id="ytick_22">
     <g id="line2d_31">
      <g>
       <use xlink:href="#m5d9aeb228d" x="57.6" y="75.996168" style="fill: #262626; stroke: #262626"/>
      </g>
     </g>
    </g>
    <g id="ytick_23">
     <g id="line2d_32">
      <g>
       <use xlink:href="#m5d9aeb228d" x="57.6" y="52.891765" style="fill: #262626; stroke: #262626"/>
      </g>
     </g>
    </g>
    <g id="text_16">
     <!-- Concentration (nM) -->
     <g style="fill: #262626" transform="translate(22.888125 251.553937)rotate(-90)scale(0.18 -0.18)">
      <defs>
       <path id="Helvetica-43" d="M 2422 4716 
Q 3294 4716 3775 4256 
Q 4256 3797 4309 3213 
L 3703 3213 
Q 3600 3656 3292 3915 
Q 2984 4175 2428 4175 
Q 1750 4175 1333 3698 
Q 916 3222 916 2238 
Q 916 1431 1292 929 
Q 1669 428 2416 428 
Q 3103 428 3463 956 
Q 3653 1234 3747 1688 
L 4353 1688 
Q 4272 963 3816 472 
Q 3269 -119 2341 -119 
Q 1541 -119 997 366 
Q 281 1006 281 2344 
Q 281 3359 819 4009 
Q 1400 4716 2422 4716 
z
M 2297 4716 
L 2297 4716 
z
" transform="scale(0.015625)"/>
       <path id="Helvetica-6e" d="M 413 3347 
L 947 3347 
L 947 2872 
Q 1184 3166 1450 3294 
Q 1716 3422 2041 3422 
Q 2753 3422 3003 2925 
Q 3141 2653 3141 2147 
L 3141 0 
L 2569 0 
L 2569 2109 
Q 2569 2416 2478 2603 
Q 2328 2916 1934 2916 
Q 1734 2916 1606 2875 
Q 1375 2806 1200 2600 
Q 1059 2434 1017 2257 
Q 975 2081 975 1753 
L 975 0 
L 413 0 
L 413 3347 
z
M 1734 3428 
L 1734 3428 
z
" transform="scale(0.015625)"/>
       <path id="Helvetica-63" d="M 1703 3444 
Q 2269 3444 2623 3169 
Q 2978 2894 3050 2222 
L 2503 2222 
Q 2453 2531 2275 2736 
Q 2097 2941 1703 2941 
Q 1166 2941 934 2416 
Q 784 2075 784 1575 
Q 784 1072 996 728 
Q 1209 384 1666 384 
Q 2016 384 2220 598 
Q 2425 813 2503 1184 
L 3050 1184 
Q 2956 519 2581 211 
Q 2206 -97 1622 -97 
Q 966 -97 575 383 
Q 184 863 184 1581 
Q 184 2463 612 2953 
Q 1041 3444 1703 3444 
z
M 1616 3428 
L 1616 3428 
z
" transform="scale(0.015625)"/>
       <path id="Helvetica-74" d="M 525 4281 
L 1094 4281 
L 1094 3347 
L 1628 3347 
L 1628 2888 
L 1094 2888 
L 1094 703 
Q 1094 528 1213 469 
Q 1278 434 1431 434 
Q 1472 434 1519 436 
Q 1566 438 1628 444 
L 1628 0 
Q 1531 -28 1426 -40 
Q 1322 -53 1200 -53 
Q 806 -53 665 148 
Q 525 350 525 672 
L 525 2888 
L 72 2888 
L 72 3347 
L 525 3347 
L 525 4281 
z
" transform="scale(0.015625)"/>
       <path id="Helvetica-61" d="M 844 891 
Q 844 647 1022 506 
Q 1200 366 1444 366 
Q 1741 366 2019 503 
Q 2488 731 2488 1250 
L 2488 1703 
Q 2384 1638 2221 1594 
Q 2059 1550 1903 1531 
L 1563 1488 
Q 1256 1447 1103 1359 
Q 844 1213 844 891 
z
M 2206 2028 
Q 2400 2053 2466 2191 
Q 2503 2266 2503 2406 
Q 2503 2694 2298 2823 
Q 2094 2953 1713 2953 
Q 1272 2953 1088 2716 
Q 984 2584 953 2325 
L 428 2325 
Q 444 2944 830 3186 
Q 1216 3428 1725 3428 
Q 2316 3428 2684 3203 
Q 3050 2978 3050 2503 
L 3050 575 
Q 3050 488 3086 434 
Q 3122 381 3238 381 
Q 3275 381 3322 386 
Q 3369 391 3422 400 
L 3422 -16 
Q 3291 -53 3222 -62 
Q 3153 -72 3034 -72 
Q 2744 -72 2613 134 
Q 2544 244 2516 444 
Q 2344 219 2022 53 
Q 1700 -113 1313 -113 
Q 847 -113 551 170 
Q 256 453 256 878 
Q 256 1344 547 1600 
Q 838 1856 1309 1916 
L 2206 2028 
z
M 1741 3428 
L 1741 3428 
z
" transform="scale(0.015625)"/>
       <path id="Helvetica-4d" d="M 472 4591 
L 1363 4591 
L 2681 709 
L 3991 4591 
L 4872 4591 
L 4872 0 
L 4281 0 
L 4281 2709 
Q 4281 2850 4287 3175 
Q 4294 3500 4294 3872 
L 2984 0 
L 2369 0 
L 1050 3872 
L 1050 3731 
Q 1050 3563 1058 3217 
Q 1066 2872 1066 2709 
L 1066 0 
L 472 0 
L 472 4591 
z
" transform="scale(0.015625)"/>
      </defs>
      <use xlink:href="#Helvetica-43"/>
      <use xlink:href="#Helvetica-6f" x="72.216797"/>
      <use xlink:href="#Helvetica-6e" x="127.832031"/>
      <use xlink:href="#Helvetica-63" x="183.447266"/>
      <use xlink:href="#Helvetica-65" x="233.447266"/>
      <use xlink:href="#Helvetica-6e" x="289.0625"/>
      <use xlink:href="#Helvetica-74" x="344.677734"/>
      <use xlink:href="#Helvetica-72" x="372.460938"/>
      <use xlink:href="#Helvetica-61" x="405.761719"/>
      <use xlink:href="#Helvetica-74" x="461.376953"/>
      <use xlink:href="#Helvetica-69" x="489.160156"/>
      <use xlink:href="#Helvetica-6f" x="511.376953"/>
      <use xlink:href="#Helvetica-6e" x="566.992188"/>
      <use xlink:href="#Helvetica-20" x="622.607422"/>
      <use xlink:href="#Helvetica-28" x="650.390625"/>
      <use xlink:href="#Helvetica-6e" x="683.691406"/>
      <use xlink:href="#Helvetica-4d" x="739.306641"/>
      <use xlink:href="#Helvetica-29" x="822.607422"/>
     </g>
    </g>
   </g>
   <g id="line2d_33">
    <path d="M 73.832727 295.488 
L 75.133948 291.835731 
L 77.085779 287.537718 
L 80.33883 280.624923 
L 82.290661 276.067201 
L 84.242492 271.065962 
L 86.194323 265.572439 
L 88.146154 259.551383 
L 90.097985 252.97257 
L 92.700426 243.287987 
L 95.302868 232.516281 
L 97.905309 220.631825 
L 100.50775 207.642278 
L 103.110191 193.599842 
L 106.363243 174.738275 
L 110.266905 150.692902 
L 117.423618 106.166743 
L 120.026059 91.37084 
L 121.97789 81.324294 
L 123.929721 72.46656 
L 125.230942 67.348301 
L 126.532163 62.943873 
L 127.833383 59.320023 
L 129.134604 56.536695 
L 129.785214 55.476681 
L 130.435824 54.645337 
L 131.086435 54.047494 
L 131.737045 53.687265 
L 132.387655 53.568 
L 133.038266 53.692252 
L 133.688876 54.061739 
L 134.339486 54.677324 
L 134.990097 55.538986 
L 135.640707 56.645813 
L 136.941927 59.58681 
L 138.243148 63.474967 
L 139.544369 68.270718 
L 140.845589 73.920939 
L 142.14681 80.359979 
L 144.098641 91.327181 
L 146.050472 103.59834 
L 148.652913 121.420178 
L 158.412068 190.496238 
L 161.014509 206.65845 
L 162.96634 217.677296 
L 164.918171 227.677133 
L 166.870002 236.637498 
L 168.821833 244.573041 
L 170.773664 251.525996 
L 172.725495 257.558733 
L 174.677326 262.746856 
L 176.629156 267.173218 
L 178.580987 270.922991 
L 180.532818 274.079897 
L 182.484649 276.723437 
L 184.43648 278.927126 
L 186.388311 280.757432 
L 188.340142 282.273339 
L 190.291973 283.526415 
L 192.243804 284.561104 
L 194.846245 285.665601 
L 197.448686 286.522309 
L 200.701738 287.33177 
L 204.6054 288.028934 
L 209.159672 288.590071 
L 215.015165 289.066517 
L 222.822489 289.464586 
L 234.533474 289.818245 
L 252.750563 290.124606 
L 282.028027 290.373121 
L 331.474411 290.543528 
L 398.487273 290.607228 
L 398.487273 290.607228 
" clip-path="url(#p9a74debeea)" style="fill: none; stroke: #4477aa; stroke-linecap: round"/>
    <defs>
     <path id="mb37ac84cb9" d="M 0 2 
C 0.530406 2 1.03916 1.789267 1.414214 1.414214 
C 1.789267 1.03916 2 0.530406 2 0 
C 2 -0.530406 1.789267 -1.03916 1.414214 -1.414214 
C 1.03916 -1.789267 0.530406 -2 0 -2 
C -0.530406 -2 -1.03916 -1.789267 -1.414214 -1.414214 
C -1.789267 -1.03916 -2 -0.530406 -2 0 
C -2 0.530406 -1.789267 1.03916 -1.414214 1.414214 
C -1.03916 1.789267 -0.530406 2 0 2 
z
" style="stroke: #4477aa"/>
    </defs>
    <g clip-path="url(#p9a74debeea)">
     <use xlink:href="#mb37ac84cb9" x="73.832727" y="295.488" style="fill: #4477aa; stroke: #4477aa"/>
     <use xlink:href="#mb37ac84cb9" x="101.15836" y="204.227189" style="fill: #4477aa; stroke: #4477aa"/>
     <use xlink:href="#mb37ac84cb9" x="128.483993" y="57.81986" style="fill: #4477aa; stroke: #4477aa"/>
     <use xlink:href="#mb37ac84cb9" x="155.809627" y="172.91975" style="fill: #4477aa; stroke: #4477aa"/>
     <use xlink:href="#mb37ac84cb9" x="183.13526" y="277.503439" style="fill: #4477aa; stroke: #4477aa"/>
     <use xlink:href="#mb37ac84cb9" x="210.460893" y="288.715144" style="fill: #4477aa; stroke: #4477aa"/>
     <use xlink:href="#mb37ac84cb9" x="237.786526" y="289.888298" style="fill: #4477aa; stroke: #4477aa"/>
     <use xlink:href="#mb37ac84cb9" x="265.112159" y="290.253055" style="fill: #4477aa; stroke: #4477aa"/>
     <use xlink:href="#mb37ac84cb9" x="292.437792" y="290.426018" style="fill: #4477aa; stroke: #4477aa"/>
     <use xlink:href="#mb37ac84cb9" x="319.763425" y="290.51807" style="fill: #4477aa; stroke: #4477aa"/>
     <use xlink:href="#mb37ac84cb9" x="347.089058" y="290.568735" style="fill: #4477aa; stroke: #4477aa"/>
     <use xlink:href="#mb37ac84cb9" x="374.414691" y="290.595743" style="fill: #4477aa; stroke: #4477aa"/>
    </g>
   </g>
   <g id="line2d_34">
    <path d="M 73.832727 295.488 
L 75.133948 291.504915 
L 77.085779 286.650565 
L 79.68822 280.996611 
L 85.543713 268.561861 
L 89.447375 259.622032 
L 93.351037 250.052773 
L 97.905309 238.275865 
L 107.013853 214.55655 
L 109.616294 208.355699 
L 112.218736 202.722572 
L 114.170567 198.986702 
L 116.122398 195.76225 
L 117.423618 193.936871 
L 118.724839 192.397584 
L 120.026059 191.165482 
L 121.32728 190.259541 
L 122.628501 189.696066 
L 123.929721 189.488178 
L 125.230942 189.645324 
L 126.532163 190.172837 
L 127.833383 191.071568 
L 129.134604 192.337606 
L 130.435824 193.962118 
L 131.737045 195.931313 
L 133.038266 198.226545 
L 134.990097 202.228699 
L 136.941927 206.81553 
L 139.544369 213.64466 
L 142.79742 222.909051 
L 149.303523 241.684314 
L 151.905965 248.605417 
L 154.508406 254.937983 
L 157.110847 260.597144 
L 159.062678 264.379281 
L 161.014509 267.767837 
L 162.96634 270.776974 
L 164.918171 273.42862 
L 166.870002 275.749791 
L 168.821833 277.770307 
L 170.773664 279.520961 
L 172.725495 281.032129 
L 175.327936 282.724292 
L 177.930377 284.104913 
L 180.532818 285.229248 
L 183.78587 286.345545 
L 187.038921 287.210463 
L 190.942583 287.999326 
L 195.496856 288.671704 
L 200.701738 289.216506 
L 207.858451 289.719345 
L 216.966996 290.121899 
L 229.979202 290.463688 
L 250.148122 290.753017 
L 283.329248 290.983159 
L 342.534786 291.143363 
L 398.487273 291.197822 
L 398.487273 291.197822 
" clip-path="url(#p9a74debeea)" style="fill: none; stroke: #ee6677; stroke-linecap: round"/>
    <defs>
     <path id="mec8aeb884d" d="M 0 -2 
L -2 2 
L 2 2 
z
" style="stroke: #ee6677; stroke-linejoin: miter"/>
    </defs>
    <g clip-path="url(#p9a74debeea)">
     <use xlink:href="#mec8aeb884d" x="73.832727" y="295.488" style="fill: #ee6677; stroke: #ee6677; stroke-linejoin: miter"/>
     <use xlink:href="#mec8aeb884d" x="116.122398" y="195.76225" style="fill: #ee6677; stroke: #ee6677; stroke-linejoin: miter"/>
     <use xlink:href="#mec8aeb884d" x="158.412068" y="263.16272" style="fill: #ee6677; stroke: #ee6677; stroke-linejoin: miter"/>
     <use xlink:href="#mec8aeb884d" x="200.701738" y="289.216506" style="fill: #ee6677; stroke: #ee6677; stroke-linejoin: miter"/>
     <use xlink:href="#mec8aeb884d" x="242.991408" y="290.670933" style="fill: #ee6677; stroke: #ee6677; stroke-linejoin: miter"/>
     <use xlink:href="#mec8aeb884d" x="285.281079" y="290.991923" style="fill: #ee6677; stroke: #ee6677; stroke-linejoin: miter"/>
     <use xlink:href="#mec8aeb884d" x="327.570749" y="291.117675" style="fill: #ee6677; stroke: #ee6677; stroke-linejoin: miter"/>
     <use xlink:href="#mec8aeb884d" x="369.860419" y="291.176269" style="fill: #ee6677; stroke: #ee6677; stroke-linejoin: miter"/>
    </g>
   </g>
   <g id="line2d_35">
    <path d="M 73.832727 295.488 
L 75.133948 291.81403 
L 77.085779 287.151094 
L 79.03761 283.060876 
L 82.290661 276.894154 
L 88.146154 266.473929 
L 98.555919 248.319825 
L 102.459581 241.961408 
L 105.062022 238.059481 
L 107.664463 234.539946 
L 109.616294 232.213501 
L 111.568125 230.204762 
L 113.519956 228.556904 
L 114.821177 227.678911 
L 116.122398 226.990189 
L 117.423618 226.500391 
L 118.724839 226.217697 
L 120.026059 226.148533 
L 121.32728 226.297329 
L 122.628501 226.66628 
L 123.929721 227.255145 
L 125.230942 228.061097 
L 126.532163 229.078616 
L 128.483993 230.982835 
L 130.435824 233.304954 
L 132.387655 235.993594 
L 134.990097 240.040532 
L 138.243148 245.605095 
L 146.701082 260.42639 
L 149.954134 265.519586 
L 152.556575 269.176777 
L 155.159016 272.430551 
L 157.761457 275.279712 
L 160.363899 277.742637 
L 162.96634 279.850239 
L 165.568781 281.640005 
L 168.171222 283.151471 
L 170.773664 284.423158 
L 174.026715 285.729563 
L 177.279767 286.778067 
L 181.183429 287.767611 
L 185.087091 288.530759 
L 189.641363 289.207503 
L 195.496856 289.836176 
L 202.653569 290.358974 
L 211.762113 290.786566 
L 224.123709 291.1339 
L 242.991408 291.421387 
L 274.220703 291.648979 
L 332.775631 291.820151 
L 398.487273 291.895828 
L 398.487273 291.895828 
" clip-path="url(#p9a74debeea)" style="fill: none; stroke: #228833; stroke-linecap: round"/>
    <defs>
     <path id="m15cf00cb6a" d="M -2 2 
L 2 2 
L 2 -2 
L -2 -2 
z
" style="stroke: #228833; stroke-linejoin: miter"/>
    </defs>
    <g clip-path="url(#p9a74debeea)">
     <use xlink:href="#m15cf00cb6a" x="73.832727" y="295.488" style="fill: #228833; stroke: #228833; stroke-linejoin: miter"/>
     <use xlink:href="#m15cf00cb6a" x="107.013853" y="235.378371" style="fill: #228833; stroke: #228833; stroke-linejoin: miter"/>
     <use xlink:href="#m15cf00cb6a" x="140.194979" y="249.081465" style="fill: #228833; stroke: #228833; stroke-linejoin: miter"/>
     <use xlink:href="#m15cf00cb6a" x="173.376105" y="285.490734" style="fill: #228833; stroke: #228833; stroke-linejoin: miter"/>
     <use xlink:href="#m15cf00cb6a" x="206.557231" y="290.567294" style="fill: #228833; stroke: #228833; stroke-linejoin: miter"/>
     <use xlink:href="#m15cf00cb6a" x="239.738357" y="291.384175" style="fill: #228833; stroke: #228833; stroke-linejoin: miter"/>
     <use xlink:href="#m15cf00cb6a" x="272.919483" y="291.642572" style="fill: #228833; stroke: #228833; stroke-linejoin: miter"/>
     <use xlink:href="#m15cf00cb6a" x="306.100608" y="291.763234" style="fill: #228833; stroke: #228833; stroke-linejoin: miter"/>
     <use xlink:href="#m15cf00cb6a" x="339.281734" y="291.830865" style="fill: #228833; stroke: #228833; stroke-linejoin: miter"/>
     <use xlink:href="#m15cf00cb6a" x="372.46286" y="291.872945" style="fill: #228833; stroke: #228833; stroke-linejoin: miter"/>
    </g>
   </g>
   <g id="line2d_36">
    <path d="M 73.832727 295.488 
L 75.133948 291.062073 
L 77.085779 285.415774 
L 79.03761 280.457151 
L 81.640051 274.448267 
L 85.543713 266.037582 
L 94.001647 248.483549 
L 99.206529 238.104863 
L 102.459581 232.049107 
L 105.062022 227.596016 
L 107.664463 223.611442 
L 109.616294 221.00121 
L 111.568125 218.770636 
L 113.519956 216.967909 
L 114.821177 216.025965 
L 116.122398 215.305883 
L 117.423618 214.818019 
L 118.724839 214.570961 
L 120.026059 214.571232 
L 121.32728 214.823007 
L 122.628501 215.327866 
L 123.929721 216.084579 
L 125.230942 217.088953 
L 126.532163 218.333743 
L 127.833383 219.808632 
L 129.785214 222.422497 
L 131.737045 225.466809 
L 134.339486 230.074987 
L 137.592538 236.450707 
L 146.701082 254.85345 
L 149.303523 259.572997 
L 151.905965 263.870577 
L 154.508406 267.709164 
L 157.110847 271.083265 
L 159.713288 274.010875 
L 162.31573 276.525376 
L 164.918171 278.668523 
L 167.520612 280.485075 
L 170.123053 282.019081 
L 172.725495 283.311623 
L 175.978546 284.643596 
L 179.231598 285.717843 
L 183.13526 286.738394 
L 187.038921 287.531977 
L 191.593194 288.242481 
L 197.448686 288.910505 
L 204.6054 289.474242 
L 213.713944 289.943001 
L 226.07554 290.330495 
L 243.642019 290.640221 
L 272.268872 290.896047 
L 322.365866 291.092255 
L 398.487273 291.209973 
L 398.487273 291.209973 
" clip-path="url(#p9a74debeea)" style="fill: none; stroke: #ccbb44; stroke-linecap: round"/>
    <defs>
     <path id="m969b8080db" d="M -0.666667 2 
L 0.666667 2 
L 0.666667 0.666667 
L 2 0.666667 
L 2 -0.666667 
L 0.666667 -0.666667 
L 0.666667 -2 
L -0.666667 -2 
L -0.666667 -0.666667 
L -2 -0.666667 
L -2 0.666667 
L -0.666667 0.666667 
z
" style="stroke: #ccbb44; stroke-linejoin: miter"/>
    </defs>
    <g clip-path="url(#p9a74debeea)">
     <use xlink:href="#m969b8080db" x="73.832727" y="295.488" style="fill: #ccbb44; stroke: #ccbb44; stroke-linejoin: miter"/>
     <use xlink:href="#m969b8080db" x="112.218736" y="218.119896" style="fill: #ccbb44; stroke: #ccbb44; stroke-linejoin: miter"/>
     <use xlink:href="#m969b8080db" x="150.604744" y="261.777673" style="fill: #ccbb44; stroke: #ccbb44; stroke-linejoin: miter"/>
     <use xlink:href="#m969b8080db" x="188.990752" y="287.861132" style="fill: #ccbb44; stroke: #ccbb44; stroke-linejoin: miter"/>
     <use xlink:href="#m969b8080db" x="227.376761" y="290.360804" style="fill: #ccbb44; stroke: #ccbb44; stroke-linejoin: miter"/>
     <use xlink:href="#m969b8080db" x="265.762769" y="290.852992" style="fill: #ccbb44; stroke: #ccbb44; stroke-linejoin: miter"/>
     <use xlink:href="#m969b8080db" x="304.148778" y="291.040153" style="fill: #ccbb44; stroke: #ccbb44; stroke-linejoin: miter"/>
     <use xlink:href="#m969b8080db" x="342.534786" y="291.135361" style="fill: #ccbb44; stroke: #ccbb44; stroke-linejoin: miter"/>
     <use xlink:href="#m969b8080db" x="380.920794" y="291.191516" style="fill: #ccbb44; stroke: #ccbb44; stroke-linejoin: miter"/>
    </g>
   </g>
   <g id="patch_3">
    <path d="M 57.6 307.584 
L 57.6 41.472 
" style="fill: none; stroke: #262626; stroke-width: 0.5; stroke-linejoin: miter; stroke-linecap: square"/>
   </g>
   <g id="patch_4">
    <path d="M 57.6 307.584 
L 414.72 307.584 
" style="fill: none; stroke: #262626; stroke-width: 0.5; stroke-linejoin: miter; stroke-linecap: square"/>
   </g>
   <g id="legend_1">
    <g id="line2d_37">
     <path d="M 274.248 143.772187 
L 292.248 143.772187 
L 310.248 143.772187 
" style="fill: none; stroke: #4477aa; stroke-linecap: round"/>
     <g>
      <use xlink:href="#mb37ac84cb9" x="292.248" y="143.772187" style="fill: #4477aa; stroke: #4477aa"/>
     </g>
    </g>
    <g id="text_17">
     <!-- $\Delta$ Leak = 0% -->
     <g style="fill: #262626" transform="translate(324.648 150.072187)scale(0.18 -0.18)">
      <defs>
       <path id="DejaVuSans-394" d="M 2188 4044 
L 906 525 
L 3472 525 
L 2188 4044 
z
M 50 0 
L 1831 4666 
L 2547 4666 
L 4325 0 
L 50 0 
z
" transform="scale(0.015625)"/>
       <path id="Helvetica-4c" d="M 488 4591 
L 1109 4591 
L 1109 547 
L 3434 547 
L 3434 0 
L 488 0 
L 488 4591 
z
" transform="scale(0.015625)"/>
       <path id="Helvetica-6b" d="M 400 4591 
L 941 4591 
L 941 1925 
L 2384 3347 
L 3103 3347 
L 1822 2094 
L 3175 0 
L 2456 0 
L 1413 1688 
L 941 1256 
L 941 0 
L 400 0 
L 400 4591 
z
" transform="scale(0.015625)"/>
       <path id="Helvetica-3d" d="M 3547 2569 
L 3547 2044 
L 288 2044 
L 288 2569 
L 3547 2569 
z
M 3547 1228 
L 3547 694 
L 288 694 
L 288 1228 
L 3547 1228 
z
" transform="scale(0.015625)"/>
       <path id="Helvetica-25" d="M 4363 2175 
Q 4813 2175 5131 1856 
Q 5450 1538 5450 1088 
Q 5450 638 5131 319 
Q 4813 0 4363 0 
Q 3909 0 3590 319 
Q 3272 638 3272 1088 
Q 3272 1538 3590 1856 
Q 3909 2175 4363 2175 
z
M 3909 4456 
L 4256 4456 
L 1753 -119 
L 1406 -119 
L 3909 4456 
z
M 1294 2606 
Q 1563 2606 1752 2795 
Q 1941 2984 1941 3250 
Q 1941 3516 1752 3705 
Q 1563 3894 1294 3894 
Q 1028 3894 839 3706 
Q 650 3519 650 3250 
Q 650 2984 839 2795 
Q 1028 2606 1294 2606 
z
M 1294 4341 
Q 1747 4341 2065 4020 
Q 2384 3700 2384 3250 
Q 2384 2800 2065 2481 
Q 1747 2163 1294 2163 
Q 844 2163 525 2481 
Q 206 2800 206 3250 
Q 206 3700 525 4020 
Q 844 4341 1294 4341 
z
M 4363 444 
Q 4628 444 4817 633 
Q 5006 822 5006 1088 
Q 5006 1353 4817 1542 
Q 4628 1731 4363 1731 
Q 4094 1731 3905 1542 
Q 3716 1353 3716 1088 
Q 3716 822 3905 633 
Q 4094 444 4363 444 
z
" transform="scale(0.015625)"/>
      </defs>
      <use xlink:href="#DejaVuSans-394" transform="translate(0 0.09375)"/>
      <use xlink:href="#Helvetica-20" transform="translate(68.408203 0.09375)"/>
      <use xlink:href="#Helvetica-4c" transform="translate(96.191406 0.09375)"/>
      <use xlink:href="#Helvetica-65" transform="translate(151.806641 0.09375)"/>
      <use xlink:href="#Helvetica-61" transform="translate(207.421875 0.09375)"/>
      <use xlink:href="#Helvetica-6b" transform="translate(263.037109 0.09375)"/>
      <use xlink:href="#Helvetica-20" transform="translate(313.037109 0.09375)"/>
      <use xlink:href="#Helvetica-3d" transform="translate(340.820312 0.09375)"/>
      <use xlink:href="#Helvetica-20" transform="translate(399.21875 0.09375)"/>
      <use xlink:href="#Helvetica-30" transform="translate(427.001953 0.09375)"/>
      <use xlink:href="#Helvetica-25" transform="translate(482.617188 0.09375)"/>
     </g>
    </g>
    <g id="line2d_38">
     <path d="M 274.248 169.43625 
L 292.248 169.43625 
L 310.248 169.43625 
" style="fill: none; stroke: #ee6677; stroke-linecap: round"/>
     <g>
      <use xlink:href="#mec8aeb884d" x="292.248" y="169.43625" style="fill: #ee6677; stroke: #ee6677; stroke-linejoin: miter"/>
     </g>
    </g>
    <g id="text_18">
     <!-- $\Delta$ Leak = 200% -->
     <g style="fill: #262626" transform="translate(324.648 175.73625)scale(0.18 -0.18)">
      <use xlink:href="#DejaVuSans-394" transform="translate(0 0.09375)"/>
      <use xlink:href="#Helvetica-20" transform="translate(68.408203 0.09375)"/>
      <use xlink:href="#Helvetica-4c" transform="translate(96.191406 0.09375)"/>
      <use xlink:href="#Helvetica-65" transform="translate(151.806641 0.09375)"/>
      <use xlink:href="#Helvetica-61" transform="translate(207.421875 0.09375)"/>
      <use xlink:href="#Helvetica-6b" transform="translate(263.037109 0.09375)"/>
      <use xlink:href="#Helvetica-20" transform="translate(313.037109 0.09375)"/>
      <use xlink:href="#Helvetica-3d" transform="translate(340.820312 0.09375)"/>
      <use xlink:href="#Helvetica-20" transform="translate(399.21875 0.09375)"/>
      <use xlink:href="#Helvetica-32" transform="translate(427.001953 0.09375)"/>
      <use xlink:href="#Helvetica-30" transform="translate(482.617188 0.09375)"/>
      <use xlink:href="#Helvetica-30" transform="translate(538.232422 0.09375)"/>
      <use xlink:href="#Helvetica-25" transform="translate(593.847656 0.09375)"/>
     </g>
    </g>
    <g id="line2d_39">
     <path d="M 274.248 195.100312 
L 292.248 195.100312 
L 310.248 195.100312 
" style="fill: none; stroke: #228833; stroke-linecap: round"/>
     <g>
      <use xlink:href="#m15cf00cb6a" x="292.248" y="195.100312" style="fill: #228833; stroke: #228833; stroke-linejoin: miter"/>
     </g>
    </g>
    <g id="text_19">
     <!-- $\Delta$ Leak = 500% -->
     <g style="fill: #262626" transform="translate(324.648 201.400312)scale(0.18 -0.18)">
      <use xlink:href="#DejaVuSans-394" transform="translate(0 0.09375)"/>
      <use xlink:href="#Helvetica-20" transform="translate(68.408203 0.09375)"/>
      <use xlink:href="#Helvetica-4c" transform="translate(96.191406 0.09375)"/>
      <use xlink:href="#Helvetica-65" transform="translate(151.806641 0.09375)"/>
      <use xlink:href="#Helvetica-61" transform="translate(207.421875 0.09375)"/>
      <use xlink:href="#Helvetica-6b" transform="translate(263.037109 0.09375)"/>
      <use xlink:href="#Helvetica-20" transform="translate(313.037109 0.09375)"/>
      <use xlink:href="#Helvetica-3d" transform="translate(340.820312 0.09375)"/>
      <use xlink:href="#Helvetica-20" transform="translate(399.21875 0.09375)"/>
      <use xlink:href="#Helvetica-35" transform="translate(427.001953 0.09375)"/>
      <use xlink:href="#Helvetica-30" transform="translate(482.617188 0.09375)"/>
      <use xlink:href="#Helvetica-30" transform="translate(538.232422 0.09375)"/>
      <use xlink:href="#Helvetica-25" transform="translate(593.847656 0.09375)"/>
     </g>
    </g>
    <g id="line2d_40">
     <path d="M 274.248 220.764375 
L 292.248 220.764375 
L 310.248 220.764375 
" style="fill: none; stroke: #ccbb44; stroke-linecap: round"/>
     <g>
      <use xlink:href="#m969b8080db" x="292.248" y="220.764375" style="fill: #ccbb44; stroke: #ccbb44; stroke-linejoin: miter"/>
     </g>
    </g>
    <g id="text_20">
     <!-- $\Delta$ Leak = 700% -->
     <g style="fill: #262626" transform="translate(324.648 227.064375)scale(0.18 -0.18)">
      <use xlink:href="#DejaVuSans-394" transform="translate(0 0.09375)"/>
      <use xlink:href="#Helvetica-20" transform="translate(68.408203 0.09375)"/>
      <use xlink:href="#Helvetica-4c" transform="translate(96.191406 0.09375)"/>
      <use xlink:href="#Helvetica-65" transform="translate(151.806641 0.09375)"/>
      <use xlink:href="#Helvetica-61" transform="translate(207.421875 0.09375)"/>
      <use xlink:href="#Helvetica-6b" transform="translate(263.037109 0.09375)"/>
      <use xlink:href="#Helvetica-20" transform="translate(313.037109 0.09375)"/>
      <use xlink:href="#Helvetica-3d" transform="translate(340.820312 0.09375)"/>
      <use xlink:href="#Helvetica-20" transform="translate(399.21875 0.09375)"/>
      <use xlink:href="#Helvetica-37" transform="translate(427.001953 0.09375)"/>
      <use xlink:href="#Helvetica-30" transform="translate(482.617188 0.09375)"/>
      <use xlink:href="#Helvetica-30" transform="translate(538.232422 0.09375)"/>
      <use xlink:href="#Helvetica-25" transform="translate(593.847656 0.09375)"/>
     </g>
    </g>
   </g>
  </g>
 </g>
 <defs>
  <clipPath id="p9a74debeea">
   <rect x="57.6" y="41.472" width="357.12" height="266.112"/>
  </clipPath>
 </defs>
</svg>
